<svg xmlns="http://www.w3.org/2000/svg" width="764.753" height="172.913" viewBox="0 0 764.753 172.913"><path fill="#878787" d="M274.364 6.61c5.582-1.174 14.397-2.056 23.36-2.056 12.78 0 21.007 2.204 27.177 7.2 5.143 3.82 8.228 9.695 8.228 17.482 0 9.55-6.317 17.923-16.748 21.742v.294c9.403 2.35 20.42 10.137 20.42 24.828 0 8.52-3.378 14.985-8.373 19.833-6.905 6.318-18.07 9.256-34.23 9.256-8.815 0-15.573-.59-19.833-1.177V6.61zm12.782 40.55h11.606c13.516 0 21.45-7.053 21.45-16.602 0-11.606-8.816-16.16-21.744-16.16-5.876 0-9.255.44-11.312.88v31.88zm0 47.45c2.497.44 6.17.59 10.725.59 13.222 0 25.416-4.85 25.416-19.248 0-13.515-11.606-19.098-25.562-19.098h-10.578V94.61zM367.946 13.222c.147 4.407-3.085 7.933-8.227 7.933-4.555 0-7.787-3.526-7.787-7.933 0-4.555 3.38-8.08 8.08-8.08 4.848 0 7.933 3.525 7.933 8.08m-14.397 19.98h12.927v71.104H353.55V33.202zM387.925 0h12.928v104.307h-12.928M422.597 0h12.928v104.307h-12.928M521.615 68.167c0 26.295-18.22 37.756-35.406 37.756-19.247 0-34.085-14.104-34.085-36.582 0-23.8 15.572-37.755 35.26-37.755 20.42 0 34.23 14.838 34.23 36.582M465.2 68.9c0 15.574 8.962 27.327 21.597 27.327 12.34 0 21.596-11.606 21.596-27.62 0-12.046-6.023-27.325-21.303-27.325s-21.89 14.103-21.89 27.62M537.92 52.447c0-7.346-.145-13.37-.587-19.246h11.313l.588 11.46h.44c3.968-6.757 10.577-13.074 22.33-13.074 9.696 0 17.042 5.876 20.128 14.25h.293c2.205-3.967 4.996-7.052 7.934-9.255 4.26-3.232 8.962-4.994 15.72-4.994 9.402 0 23.357 6.17 23.357 30.85v41.87h-12.633V64.054c0-13.663-4.996-21.89-15.426-21.89-7.346 0-13.076 5.436-15.28 11.753-.587 1.763-1.028 4.114-1.028 6.464v43.927h-12.635V61.702c0-11.312-4.994-19.54-14.838-19.54-8.08 0-13.955 6.465-16.012 12.93-.736 1.91-1.03 4.113-1.03 6.316v42.9h-12.634v-51.86zM699.82 104.307l-1.03-8.96h-.438c-3.967 5.58-11.607 10.576-21.744 10.576-14.396 0-21.742-10.137-21.742-20.42 0-17.19 15.28-26.59 42.752-26.445v-1.47c0-5.875-1.617-16.453-16.162-16.453-6.61 0-13.516 2.057-18.51 5.29l-2.938-8.522c5.875-3.82 14.396-6.317 23.357-6.317 21.744 0 27.033 14.838 27.033 29.088v26.59c0 6.172.293 12.195 1.174 17.043H699.82zm-1.91-36.287c-14.104-.294-30.117 2.204-30.117 16.013 0 8.374 5.582 12.34 12.193 12.34 9.256 0 15.133-5.875 17.19-11.9.44-1.32.733-2.79.733-4.112V68.02zM746.244 12.78V33.2h18.51v9.845h-18.51V81.39c0 8.813 2.498 13.81 9.695 13.81 3.378 0 5.876-.44 7.49-.882l.59 9.696c-2.497 1.027-6.464 1.763-11.46 1.763-6.023 0-10.87-1.91-13.955-5.437-3.675-3.818-4.996-10.137-4.996-18.51V43.044h-11.02V33.2h11.02V16.16l12.634-3.38zM283.327 161.96l-8.962-35.328h4.82l4.194 17.873c1.048 4.403 1.99 8.806 2.62 12.212h.105c.576-3.51 1.677-7.704 2.883-12.264l4.717-17.82h4.77l4.297 17.925c.996 4.193 1.94 8.386 2.464 12.107h.105c.735-3.878 1.73-7.81 2.83-12.212l4.666-17.82h4.665l-10.01 35.326h-4.77l-4.455-18.398c-1.1-4.508-1.834-7.967-2.306-11.53h-.106c-.63 3.51-1.415 6.97-2.726 11.53l-5.03 18.397h-4.77zM331.706 129.462c.052 1.573-1.1 2.83-2.935 2.83-1.624 0-2.777-1.257-2.777-2.83 0-1.625 1.205-2.882 2.882-2.882 1.73 0 2.83 1.257 2.83 2.882m-5.136 7.13h4.612v25.367h-4.613v-25.37zM344.495 144.505c0-2.987-.052-5.556-.21-7.914h4.037l.157 4.98h.208c1.154-3.406 3.932-5.555 7.024-5.555.524 0 .89.052 1.31.156v4.352c-.47-.104-.944-.157-1.572-.157-3.25 0-5.556 2.464-6.185 5.923-.105.63-.21 1.363-.21 2.15v13.52h-4.56v-17.453zM434.542 127.104c1.992-.42 5.138-.733 8.334-.733 4.56 0 7.495.787 9.696 2.568 1.835 1.363 2.935 3.46 2.935 6.238 0 3.406-2.253 6.395-5.975 7.757v.105c3.355.838 7.287 3.616 7.287 8.857 0 3.04-1.208 5.347-2.99 7.075-2.463 2.254-6.446 3.303-12.212 3.303-3.146 0-5.557-.21-7.076-.42v-34.75zm4.56 14.466h4.14c4.822 0 7.652-2.517 7.652-5.924 0-4.14-3.144-5.765-7.756-5.765-2.097 0-3.303.158-4.037.315v11.375zm0 16.93c.89.157 2.2.21 3.825.21 4.72 0 9.068-1.73 9.068-6.867 0-4.822-4.14-6.813-9.12-6.813H439.1v13.47zM489.682 155.04c0 2.62.053 4.927.208 6.92h-4.087l-.263-4.142h-.105c-1.204 2.044-3.877 4.718-8.385 4.718-3.983 0-8.754-2.202-8.754-11.112V136.59h4.613v14.048c0 4.822 1.466 8.07 5.66 8.07 3.09 0 5.24-2.146 6.078-4.192.263-.68.42-1.52.42-2.357V136.59h4.613v18.448zM521.08 161.016c-1.206.63-3.88 1.467-7.286 1.467-7.653 0-12.632-5.188-12.632-12.945 0-7.81 5.347-13.47 13.628-13.47 2.725 0 5.137.68 6.393 1.31l-1.046 3.564c-1.102-.63-2.832-1.206-5.347-1.206-5.817 0-8.963 4.298-8.963 9.593 0 5.868 3.773 9.484 8.806 9.484 2.62 0 4.35-.68 5.66-1.257l.786 3.46zM532.14 124.745h4.61v15.83h.104c.733-1.31 1.888-2.465 3.303-3.25 1.362-.788 2.988-1.31 4.718-1.31 3.406 0 8.858 2.095 8.858 10.848v15.096h-4.613v-14.572c0-4.088-1.52-7.547-5.87-7.547-2.987 0-5.347 2.097-6.186 4.612-.263.63-.315 1.312-.315 2.202v15.305h-4.61v-37.215zM632.565 124.745h4.613v37.214h-4.613M566.888 124.745h4.613v15.83h.106c.733-1.31 1.885-2.465 3.3-3.25 1.365-.788 2.988-1.31 4.72-1.31 3.405 0 8.856 2.095 8.856 10.848v15.096h-4.612v-14.572c0-4.088-1.52-7.547-5.87-7.547-2.988 0-5.347 2.097-6.184 4.612-.263.63-.315 1.312-.315 2.202v15.305h-4.612v-37.215zM615.687 161.96l-.367-3.198h-.156c-1.415 1.992-4.14 3.774-7.76 3.774-5.135 0-7.755-3.617-7.755-7.286 0-6.133 5.45-9.487 15.25-9.435v-.524c0-2.096-.576-5.87-5.765-5.87-2.358 0-4.82.734-6.604 1.888l-1.05-3.04c2.1-1.363 5.138-2.254 8.336-2.254 7.758 0 9.644 5.294 9.644 10.378v9.487c0 2.2.105 4.35.42 6.08h-4.193zm-.682-12.947c-5.03-.105-10.743.786-10.743 5.713 0 2.988 1.99 4.403 4.35 4.403 3.3 0 5.4-2.1 6.133-4.246.155-.472.26-.996.26-1.468v-4.403zM656.15 129.305v7.286h6.605v3.513h-6.604v13.68c0 3.145.893 4.927 3.46 4.927 1.206 0 2.098-.157 2.674-.314l.21 3.46c-.892.366-2.307.63-4.09.63-2.15 0-3.88-.683-4.978-1.94-1.31-1.362-1.782-3.617-1.782-6.604v-13.837h-3.932v-3.512h3.932v-6.08l4.507-1.208zM708.146 143.457c0-2.62-.052-4.77-.21-6.866h4.09l.263 4.194h.102c1.26-2.41 4.194-4.77 8.387-4.77 3.51 0 8.962 2.096 8.962 10.796v15.148h-4.612v-14.623c0-4.088-1.52-7.495-5.87-7.495-3.04 0-5.4 2.148-6.184 4.717-.21.576-.315 1.363-.315 2.15v15.25h-4.612v-18.5zM694.833 155.04c0 2.62.053 4.927.208 6.92h-4.086l-.263-4.142h-.104c-1.204 2.044-3.877 4.718-8.385 4.718-3.982 0-8.753-2.202-8.753-11.112V136.59h4.612v14.048c0 4.822 1.467 8.07 5.66 8.07 3.09 0 5.242-2.146 6.08-4.192.26-.68.42-1.52.42-2.357V136.59h4.612v18.448zM764.753 136.59c-.105 1.836-.21 3.88-.21 6.972v14.73c0 5.816-1.152 9.38-3.617 11.583-2.463 2.306-6.025 3.04-9.224 3.04-3.04 0-6.396-.734-8.438-2.098l1.153-3.51c1.676 1.047 4.297 1.99 7.443 1.99 4.716 0 8.177-2.463 8.177-8.858v-2.83h-.105c-1.415 2.358-4.142 4.245-8.07 4.245-6.292 0-10.8-5.347-10.8-12.37 0-8.596 5.61-13.47 11.428-13.47 4.402 0 6.813 2.306 7.913 4.402h.104l.21-3.826h4.036zm-4.768 10.012c0-.786-.053-1.468-.263-2.096-.84-2.674-3.093-4.875-6.446-4.875-4.402 0-7.548 3.722-7.548 9.593 0 4.98 2.515 9.12 7.495 9.12 2.83 0 5.4-1.782 6.394-4.717.263-.787.368-1.678.368-2.465v-4.558z"/><path fill="#878787" d="M402.26 134.185c-3.963-.26-6.724 1.366-8.337 4.6-1.615-3.233-4.377-4.86-8.338-4.6-5.672.374-7.575 3.903-6.984 8.485.708 5.48 8.98 8.79 15.032 15.346.1.105.194.21.29.318.098-.107.195-.213.294-.318 6.044-6.557 14.325-9.866 15.026-15.346.593-4.582-1.31-8.11-6.98-8.485M227.892 105.856c10.21-26.59-3.12-56.532-29.713-66.74-18.44-7.078-38.484-2.834-52.45 9.297-3.15-13.42-12.68-25.096-26.5-30.363-22.115-8.42-46.968 2.718-55.39 24.833l-4.26 11.17 12.608 4.812 4.253-11.182c5.784-15.17 22.816-22.803 37.986-17.027 15.17 5.783 22.81 22.817 17.037 37.99l-4.262 11.17 12.6 4.8 4.18-10.972.03.012C151.556 54 173.693 44.142 193.35 51.69c19.662 7.544 29.516 29.682 21.968 49.34l-4.284 11.162 12.592 4.832 4.285-11.165-.018-.004z"/><path fill="#878787" d="M30.15 126.74c-13.723-6.6-20.276-22.813-14.64-37.225 5.91-15.12 23.016-22.608 38.13-16.7l11.14 4.357 4.91-12.562-11.14-4.353C36.51 51.64 11.568 62.56 2.947 84.607c-8.31 21.26 1.56 45.218 22.05 54.617.753.344 1.518.678 2.3.982l.058.023h187.299l5.126-13.49H30.15z"/></svg>
