<?xml version="1.0" encoding="utf-8"?>
<!-- Generator: Adobe Illustrator 15.1.0, SVG Export Plug-In . SVG Version: 6.00 Build 0)  -->
<!DOCTYPE svg PUBLIC "-//W3C//DTD SVG 1.1//EN" "http://www.w3.org/Graphics/SVG/1.1/DTD/svg11.dtd">
<svg version="1.1"
	 id="svg2" inkscape:version="0.48.4 r9939" sodipodi:docname="CDRoundelWithLongText-LitBg.png" xmlns:dc="http://purl.org/dc/elements/1.1/" xmlns:cc="http://creativecommons.org/ns#" xmlns:rdf="http://www.w3.org/1999/02/22-rdf-syntax-ns#" xmlns:svg="http://www.w3.org/2000/svg" xmlns:sodipodi="http://sodipodi.sourceforge.net/DTD/sodipodi-0.dtd" xmlns:inkscape="http://www.inkscape.org/namespaces/inkscape"
	 xmlns="http://www.w3.org/2000/svg" xmlns:xlink="http://www.w3.org/1999/xlink" x="0px" y="0px" width="400px" height="112.975px"
	 viewBox="0.003 0 400 112.975" enable-background="new 0.003 0 400 112.975" xml:space="preserve">
<sodipodi:namedview  id="namedview21" inkscape:current-layer="svg2" inkscape:window-y="134" inkscape:window-x="0" inkscape:window-height="878" inkscape:window-width="970" inkscape:pageshadow="2" inkscape:pageopacity="0" bordercolor="#666666" showgrid="false" guidetolerance="10" inkscape:cy="41.128937" gridtolerance="10" inkscape:cx="145.61522" objecttolerance="10" inkscape:zoom="0.98204021" borderopacity="1" pagecolor="#ffffff" inkscape:window-maximized="0">
	</sodipodi:namedview>
<g id="Layer_x0020_1">
	<path id="path10" fill="#FFFFFF" d="M153.955,67.994v10.325c-0.101,3.066-0.713,5.828-1.843,8.177c-0.918,2.043-2.354,3.991-4.397,5.521
		c-2.042,1.632-4.803,2.556-8.482,2.556c-3.685,0-6.546-0.924-8.589-2.556c-2.042-1.53-3.372-3.479-4.291-5.521
		c-1.124-2.349-1.736-5.11-1.842-8.177V34.048c0.105-2.967,0.712-5.727,1.842-8.076c0.919-2.044,2.249-4.091,4.291-5.622
		c2.043-1.531,4.909-2.56,8.589-2.56c3.685,0,6.44,1.029,8.482,2.56c2.043,1.536,3.479,3.578,4.397,5.622
		c1.125,2.354,1.742,5.109,1.843,8.076v10.325H143.63V34.048c0-2.043-0.513-3.479-1.637-4.703c-0.512-0.513-1.43-0.818-2.556-0.818
		c-1.942,0-2.86,1.43-3.372,2.76c-0.301,0.818-0.406,1.742-0.513,2.767v44.271c0.106,2.145,0.718,3.58,1.742,4.698
		c0.513,0.518,1.225,0.818,2.143,0.818c2.355,0,3.273-1.225,3.785-2.76c0.302-0.713,0.407-1.637,0.407-2.762V67.994H153.955z
		 M186.134,80.162c-0.302,5.421-1.938,9.2-5.517,12.168c-1.843,1.535-4.397,2.248-7.771,2.248c-6.65,0-9.918-3.686-11.555-7.364
		c-0.918-2.143-1.531-4.598-1.632-7.358v-28.12c0.307-5.421,1.938-9.401,5.517-12.468c1.742-1.541,4.297-2.253,7.67-2.253
		c6.646,0,10.019,3.684,11.655,7.258c0.919,2.148,1.531,4.502,1.632,7.163v28.731V80.162z M176.421,51.73
		c0.105-2.143-0.307-3.679-1.331-4.909c-0.511-0.512-1.329-0.818-2.248-0.818c-1.947,0-2.766,1.331-3.173,2.862
		c-0.306,0.818-0.406,1.742-0.306,2.86v28.119c-0.101,2.144,0.412,3.686,1.33,4.804c0.512,0.512,1.225,0.818,2.148,0.818
		c1.938,0,2.861-1.224,3.268-2.762c0.306-0.817,0.412-1.741,0.306-2.86V51.725L176.421,51.73z M219.395,93.755h-10.325v-3.686
		c-1.736,1.637-3.268,2.862-5.211,3.786c-1.029,0.512-2.049,0.713-2.966,0.713c-2.861,0-4.804-1.637-6.033-3.786
		c-1.331-2.042-1.938-4.804-1.938-7.153V47.946c0-2.349,0.611-5.108,1.938-7.259c1.229-2.042,3.172-3.684,6.033-3.684
		c1.937,0,3.99,1.124,5.521,2.254c0.919,0.713,1.736,1.43,2.655,2.248V18.602h10.325V93.755z M209.069,50.094
		c0-1.636-1.535-3.371-3.068-3.371c-1.535,0-2.76,1.43-2.76,3.371v31.388c0,1.948,1.225,3.374,2.76,3.374
		c1.533,0,3.068-1.431,3.068-3.374V50.094z M253.542,73.712v6.445c-0.307,5.42-1.938,9.199-5.622,12.167
		c-1.843,1.536-4.398,2.249-7.771,2.249c-6.645,0-10.019-3.686-11.654-7.364c-0.917-2.143-1.531-4.598-1.635-7.358V51.73
		c0.305-5.421,2.042-9.401,5.726-12.468c1.742-1.541,4.297-2.253,7.671-2.253c6.646,0,10.018,3.684,11.654,7.258
		c0.919,2.147,1.531,4.502,1.632,7.163v16.259h-17.077v12.166c0.105,2.145,0.713,3.685,1.637,4.804
		c0.511,0.513,1.226,0.817,2.147,0.817c1.943,0,2.862-1.224,3.268-2.76c0.308-0.817,0.408-1.741,0.408-2.861v-6.139h9.61
		L253.542,73.712z M236.465,59.6h7.465v-7.875c0-2.143-0.408-3.679-1.431-4.909c-0.513-0.512-1.331-0.818-2.25-0.818
		c-1.948,0-2.767,1.331-3.272,2.862c-0.306,0.818-0.406,1.742-0.512,2.86v7.875V59.6z M281.074,48.458
		c-0.917-0.306-1.937-0.406-2.86-0.406c-1.631,0-3.579,0.206-5.209,1.737c-1.948,1.637-2.255,3.373-2.255,5.108v38.857h-10.325
		V37.822h10.325v6.239c0.105-0.713,0.817-2.455,2.454-4.091c1.637-1.536,4.091-2.967,7.87-2.967V48.458z M285.583,93.755V18.602
		h8.693c10.22,0,15.746,2.042,18.707,7.77c2.862,5.728,3.272,15.133,3.272,29.857c0,14.721-0.41,24.028-3.272,29.754
		c-2.961,5.728-8.487,7.771-18.707,7.771H285.583z M296.631,82.712c3.781,0,5.927-0.412,7.054-4.096
		c0.51-1.737,0.922-4.398,1.022-7.978c0.105-3.578,0.105-8.382,0.105-14.521c0-6.135,0-10.938-0.105-14.521
		c-0.101-3.474-0.513-6.135-1.022-7.976c-1.12-3.58-3.27-3.986-7.054-3.986V82.7V82.712z M349.086,80.157
		c-0.302,5.42-1.938,9.199-5.517,12.167c-1.843,1.536-4.397,2.249-7.77,2.249c-6.653,0-9.919-3.686-11.556-7.364
		c-0.919-2.143-1.536-4.598-1.632-7.358V51.73c0.307-5.421,1.943-9.401,5.517-12.468c1.742-1.541,4.297-2.253,7.671-2.253
		c6.645,0,10.018,3.684,11.652,7.258c0.919,2.147,1.533,4.502,1.634,7.163v28.731V80.157z M339.371,51.725
		c0.107-2.143-0.306-3.679-1.328-4.909c-0.513-0.512-1.331-0.818-2.25-0.818c-1.948,0-2.767,1.331-3.172,2.862
		c-0.306,0.818-0.406,1.742-0.306,2.86V79.84c-0.101,2.143,0.411,3.684,1.33,4.804c0.511,0.512,1.226,0.818,2.147,0.818
		c1.943,0,2.86-1.226,3.268-2.762c0.307-0.818,0.411-1.742,0.307-2.86V51.72L339.371,51.725z M355.963,18.597h10.325v10.325h-10.325
		V18.597z M366.288,37.822v57.357c0,2.86,0,7.364-1.432,11.048c-1.429,3.779-4.598,6.747-10.429,6.747
		c-1.632,0-2.762-0.105-3.475-0.307c-0.412-0.105-0.712-0.206-1.022-0.307v-9.507c0.305,0.101,0.61,0.101,0.917,0.201
		c0.713,0.105,1.33,0.206,1.948,0.206c1.735,0,2.554-1.431,2.961-3.167c0.105-0.818,0.206-1.742,0.206-2.661
		c0-0.924,0-1.742,0-2.354V37.822H366.288z M400.003,80.157c-0.302,5.42-1.943,9.199-5.517,12.167
		c-1.843,1.536-4.396,2.249-7.77,2.249c-6.651,0-9.919-3.686-11.556-7.364c-0.919-2.143-1.53-4.598-1.631-7.358V51.73
		c0.307-5.421,1.937-9.401,5.516-12.468c1.742-1.541,4.298-2.253,7.671-2.253c6.646,0,10.019,3.684,11.654,7.258
		c0.919,2.147,1.531,4.502,1.632,7.163v28.731V80.157z M390.29,51.725c0.105-2.143-0.307-3.679-1.33-4.909
		c-0.513-0.512-1.331-0.818-2.25-0.818c-1.941,0-2.767,1.331-3.172,2.862c-0.306,0.818-0.406,1.742-0.306,2.86V79.84
		c-0.101,2.143,0.413,3.684,1.33,4.804c0.512,0.512,1.226,0.818,2.147,0.818c1.943,0,2.862-1.226,3.273-2.762
		c0.307-0.818,0.412-1.742,0.307-2.86V51.72V51.725z"/>
	<g id="_833871744">
		<circle id="circle13" fill="#FEFEFE" cx="56.199" cy="56.429" r="55.336"/>
		<path id="path15" d="M56.432,0c31.165,0,56.429,25.264,56.429,56.429c0,31.166-25.264,56.429-56.429,56.429
			c-31.166,0-56.429-25.263-56.429-56.429C0.003,25.264,25.266,0,56.432,0z M55.861,2.919c-0.264,0-0.527,0.005-0.792,0.012
			C25.889,3.351,2.341,27.158,2.341,56.433c0,29.313,23.601,53.136,52.829,53.505c-14.453-0.364-26.066-12.21-26.066-26.747
			c0-14.77,11.988-26.758,26.757-26.758c14.77,0,26.757-11.986,26.757-26.756S70.631,2.919,55.861,2.919z"/>
		<path id="path17" d="M47.416,34.94V14.991c0-0.87,0.316-1.625,0.955-2.258c0.634-0.634,1.388-0.956,2.265-0.956h10.398
			c0.86,0,1.605,0.317,2.233,0.956c0.628,0.634,0.939,1.388,0.939,2.258V34.94c0,0.887-0.317,1.642-0.939,2.269
			c-0.628,0.629-1.389,0.94-2.275,0.94H50.636c-0.898,0-1.664-0.312-2.286-0.94c-0.623-0.627-0.929-1.382-0.929-2.269H47.416z
			 M60.913,34.818V15.155H50.752v19.663H60.913z"/>
		<path id="path19" fill="#FFFFFF" d="M51.216,95.244h5.121V75.58h-5.036c-0.464,0-0.855-0.163-1.182-0.485
			c-0.328-0.321-0.486-0.719-0.486-1.184c0-0.459,0.163-0.854,0.486-1.177c0.322-0.322,0.718-0.484,1.182-0.484h8.372v22.999h3.337
			v-6.941c0-0.449,0.164-0.841,0.485-1.172c0.322-0.334,0.717-0.497,1.177-0.497c0.465,0,0.86,0.163,1.183,0.486
			c0.322,0.327,0.485,0.718,0.485,1.183v8.609c0,0.465-0.164,0.86-0.485,1.188c-0.323,0.321-0.712,0.479-1.183,0.479H51.216
			c-0.464,0-0.855-0.168-1.177-0.502c-0.327-0.337-0.485-0.737-0.485-1.202c0-0.449,0.164-0.835,0.485-1.156
			c0.322-0.317,0.718-0.475,1.177-0.475V95.244z"/>
	</g>
</g>
</svg>
