<?xml version="1.0" encoding="utf-8"?>
<!-- Generator: Adobe Illustrator 15.1.0, SVG Export Plug-In . SVG Version: 6.00 Build 0)  -->
<!DOCTYPE svg PUBLIC "-//W3C//DTD SVG 1.1//EN" "http://www.w3.org/Graphics/SVG/1.1/DTD/svg11.dtd">
<svg version="1.1" id="Ebene_1" xmlns="http://www.w3.org/2000/svg" xmlns:xlink="http://www.w3.org/1999/xlink" x="0px" y="0px"
	 width="400px" height="119.259px" viewBox="0 0 400 119.259" enable-background="new 0 0 400 119.259" xml:space="preserve">
<path fill-rule="evenodd" clip-rule="evenodd" fill="#FFFFFF" d="M156.4,49.72v10.214c-0.104,3.037-0.695,5.768-1.817,8.089
	c-0.917,2.025-2.332,3.95-4.358,5.478c-2.028,1.608-4.747,2.51-8.399,2.51c-3.64,0-6.473-0.901-8.501-2.51
	c-2.026-1.527-3.337-3.452-4.246-5.478c-1.11-2.321-1.715-5.053-1.825-8.089V16.106c0.11-2.945,0.715-5.679,1.825-8.007
	c0.909-2.016,2.219-4.044,4.246-5.569c2.028-1.499,4.861-2.53,8.501-2.53c3.653,0,6.371,1.031,8.399,2.53
	c2.026,1.525,3.441,3.553,4.358,5.569c1.123,2.329,1.713,5.063,1.817,8.007v10.214h-10.217V16.106c0-2.029-0.504-3.449-1.624-4.658
	c-0.506-0.507-1.41-0.82-2.533-0.82c-1.914,0-2.833,1.423-3.337,2.744c-0.303,0.796-0.405,1.713-0.504,2.733v43.827
	c0.099,2.118,0.705,3.553,1.723,4.658c0.507,0.51,1.222,0.8,2.118,0.8c2.329,0,3.238-1.212,3.752-2.733
	c0.292-0.695,0.405-1.614,0.405-2.724V49.72H156.4L156.4,49.72z M188.265,61.739c-0.303,5.388-1.927,9.13-5.478,12.052
	c-1.814,1.527-4.347,2.22-7.684,2.22c-6.584,0-9.825-3.641-11.446-7.295c-0.909-2.093-1.514-4.536-1.604-7.257V33.613
	c0.293-5.365,1.917-9.318,5.457-12.342c1.723-1.525,4.243-2.24,7.593-2.24c6.577,0,9.924,3.64,11.535,7.19
	c0.909,2.128,1.525,4.447,1.626,7.079V61.739L188.265,61.739z M178.644,33.613c0.099-2.125-0.303-3.65-1.321-4.849
	c-0.506-0.517-1.311-0.83-2.219-0.83c-1.939,0-2.734,1.333-3.136,2.858c-0.303,0.794-0.402,1.713-0.303,2.82v27.846
	c-0.1,2.115,0.402,3.643,1.311,4.747c0.501,0.52,1.211,0.794,2.128,0.794c1.917,0,2.835-1.196,3.238-2.719
	c0.303-0.794,0.402-1.713,0.303-2.822V33.613L178.644,33.613z M221.188,75.226h-10.232v-3.65c-1.711,1.609-3.237,2.82-5.151,3.742
	c-1.019,0.509-2.026,0.692-2.936,0.692c-2.833,0-4.759-1.614-5.979-3.742c-1.311-2.031-1.917-4.749-1.917-7.065V29.874
	c0-2.342,0.606-5.075,1.917-7.203c1.219-2.026,3.146-3.64,5.979-3.64c1.917,0,3.943,1.107,5.465,2.24
	c0.911,0.705,1.716,1.4,2.622,2.227V0.817h10.232V75.226L221.188,75.226z M210.956,31.989c0-1.614-1.522-3.327-3.021-3.327
	c-1.524,0-2.736,1.4-2.736,3.327V63.07c0,1.903,1.212,3.339,2.736,3.339c1.499,0,3.021-1.436,3.021-3.339V31.989L210.956,31.989z
	 M254.975,55.365v6.374c-0.285,5.388-1.93,9.13-5.56,12.052c-1.812,1.527-4.357,2.22-7.691,2.22c-6.567,0-9.917-3.641-11.546-7.295
	c-0.896-2.093-1.517-4.536-1.613-7.257V33.613c0.315-5.365,2.021-9.318,5.666-12.342c1.735-1.525,4.261-2.24,7.595-2.24
	c6.593,0,9.927,3.64,11.535,7.19c0.916,2.128,1.527,4.447,1.614,7.079v16.106h-16.896v12.052c0.107,2.115,0.718,3.643,1.635,4.747
	c0.504,0.52,1.196,0.794,2.112,0.794c1.93,0,2.841-1.196,3.232-2.719c0.306-0.794,0.423-1.713,0.423-2.822v-6.093H254.975
	L254.975,55.365z M238.078,41.409h7.402v-7.796c0-2.125-0.423-3.65-1.421-4.849c-0.519-0.517-1.328-0.83-2.234-0.83
	c-1.914,0-2.733,1.333-3.237,2.858c-0.306,0.794-0.402,1.713-0.51,2.82V41.409L238.078,41.409z M282.239,30.375
	c-0.891-0.313-1.903-0.413-2.82-0.413c-1.639,0-3.568,0.224-5.177,1.713c-1.925,1.624-2.22,3.36-2.22,5.073v38.478H261.78v-55.38
	h10.242v6.185c0.092-0.728,0.81-2.444,2.418-4.055c1.634-1.525,4.053-2.945,7.799-2.945V30.375L282.239,30.375z M286.693,75.226
	V0.817h8.608c10.146,0,15.607,2.016,18.545,7.684c2.8,5.668,3.232,14.997,3.232,29.559c0,14.584-0.433,23.781-3.232,29.459
	c-2.938,5.666-8.399,7.707-18.545,7.707H286.693L286.693,75.226z M297.648,64.281c3.747,0,5.875-0.417,6.969-4.054
	c0.515-1.713,0.917-4.347,1.028-7.896c0.097-3.528,0.097-8.288,0.097-14.371c0-6.061,0-10.82-0.097-14.374
	c-0.111-3.449-0.514-6.081-1.028-7.896c-1.094-3.548-3.222-3.93-6.969-3.93V64.281L297.648,64.281z M349.577,61.739
	c-0.336,5.388-1.929,9.13-5.462,12.052c-1.822,1.527-4.348,2.22-7.717,2.22c-6.557,0-9.805-3.641-11.438-7.295
	c-0.896-2.093-1.507-4.536-1.589-7.257V33.613c0.285-5.365,1.925-9.318,5.442-12.342c1.746-1.525,4.25-2.24,7.585-2.24
	c6.592,0,9.946,3.64,11.545,7.19c0.916,2.128,1.537,4.447,1.634,7.079V61.739L349.577,61.739z M339.967,33.613
	c0.117-2.125-0.336-3.65-1.344-4.849c-0.499-0.517-1.299-0.83-2.225-0.83c-1.895,0-2.703,1.333-3.136,2.858
	c-0.285,0.794-0.397,1.713-0.285,2.82v27.846c-0.112,2.115,0.401,3.643,1.298,4.747c0.534,0.52,1.212,0.794,2.123,0.794
	c1.929,0,2.855-1.196,3.232-2.719c0.336-0.794,0.453-1.713,0.336-2.822V33.613L339.967,33.613z M356.384,0.817h10.201v10.214
	h-10.201V0.817L356.384,0.817z M366.585,19.846v56.765c0,2.846,0,7.305-1.39,10.955c-1.42,3.741-4.556,6.679-10.354,6.679
	c-1.593,0-2.688-0.092-3.421-0.316c-0.392-0.091-0.728-0.198-1.013-0.29v-9.407c0.285,0.087,0.621,0.087,0.916,0.179
	c0.718,0.111,1.293,0.219,1.925,0.219c1.705,0,2.504-1.431,2.957-3.131c0.097-0.83,0.179-1.751,0.179-2.647c0-0.916,0-1.726,0-2.331
	V19.846H366.585L366.585,19.846z M400,61.739c-0.336,5.388-1.925,9.13-5.503,12.052c-1.782,1.527-4.348,2.22-7.661,2.22
	c-6.593,0-9.82-3.641-11.454-7.295c-0.916-2.093-1.502-4.536-1.608-7.257V33.613c0.285-5.365,1.903-9.318,5.462-12.342
	c1.746-1.525,4.261-2.24,7.601-2.24c6.557,0,9.87,3.64,11.535,7.19c0.911,2.128,1.491,4.447,1.629,7.079V61.739L400,61.739z
	 M390.348,33.613c0.138-2.125-0.295-3.65-1.303-4.849c-0.483-0.517-1.318-0.83-2.209-0.83c-1.95,0-2.719,1.333-3.162,2.858
	c-0.295,0.794-0.387,1.713-0.295,2.82v27.846c-0.092,2.115,0.402,3.643,1.318,4.747c0.515,0.52,1.212,0.794,2.139,0.794
	c1.924,0,2.84-1.196,3.217-2.719c0.295-0.794,0.433-1.713,0.295-2.822V33.613L390.348,33.613z"/>
<g>
	<path fill="#FEFEFE" d="M50.786,94.463c-0.469,0-0.848,0.152-1.171,0.474c-0.326,0.305-0.489,0.697-0.489,1.13
		c0,0.453,0.163,0.865,0.489,1.191c0.323,0.325,0.702,0.498,1.171,0.498h13.337c0.466,0,0.845-0.152,1.181-0.479
		c0.326-0.325,0.476-0.712,0.476-1.17v-8.537c0-0.479-0.15-0.865-0.476-1.191c-0.336-0.326-0.715-0.479-1.181-0.479
		s-0.845,0.173-1.17,0.499c-0.326,0.325-0.486,0.718-0.486,1.171v6.893H59.16V71.642h-8.3c-0.466,0-0.845,0.152-1.168,0.479
		c-0.336,0.326-0.489,0.713-0.489,1.171c0,0.474,0.153,0.845,0.489,1.171c0.323,0.346,0.703,0.499,1.168,0.499h5.006v19.502H50.786z
		"/>
	<path d="M55.963,0C25.05,0,0,25.074,0,55.976s25.061,55.953,55.963,55.953c30.915,0,55.966-25.051,55.966-55.953
		C111.929,25.051,86.865,0,55.963,0z M65.78,96.108c0,0.458-0.15,0.845-0.476,1.17c-0.336,0.326-0.715,0.479-1.181,0.479H50.786
		c-0.469,0-0.848-0.173-1.171-0.498c-0.326-0.326-0.489-0.738-0.489-1.191c0-0.433,0.163-0.825,0.489-1.13
		c0.323-0.321,0.702-0.474,1.171-0.474h5.08V74.961H50.86c-0.466,0-0.845-0.153-1.168-0.499c-0.336-0.326-0.489-0.697-0.489-1.171
		c0-0.458,0.153-0.845,0.489-1.171c0.323-0.326,0.703-0.479,1.168-0.479h8.3v22.821h3.306v-6.893c0-0.453,0.16-0.846,0.486-1.171
		c0.326-0.326,0.705-0.499,1.17-0.499s0.845,0.152,1.181,0.479c0.326,0.326,0.476,0.713,0.476,1.191V96.108z M55.39,55.976
		c-14.638,0-26.537,11.874-26.537,26.524c0,14.411,11.541,26.155,25.865,26.527c-28.973-0.372-52.39-23.992-52.39-53.052
		c0-29.04,23.351-52.639,52.293-53.062c0.26-0.02,0.509-0.02,0.779-0.02l-0.01,0.02c14.628,0,26.525,11.866,26.525,26.537
		C81.915,44.079,70.039,55.976,55.39,55.976z"/>
	<g>
		<rect x="50.34" y="15.04" fill="#FEFEFE" width="10.067" height="19.502"/>
		<path fill="#FEFEFE" d="M55.39,2.914l0.01-0.02c-0.27,0-0.519,0-0.779,0.02C25.679,3.337,2.329,26.937,2.329,55.976
			c0,29.06,23.417,52.68,52.39,53.052C40.394,108.656,28.853,96.912,28.853,82.5c0-14.65,11.899-26.524,26.537-26.524
			c14.648,0,26.525-11.897,26.525-26.525C81.915,14.78,70.018,2.914,55.39,2.914z M63.701,34.651c0,0.888-0.303,1.647-0.942,2.252
			c-0.608,0.629-1.367,0.955-2.245,0.955H50.244c-0.888,0-1.659-0.326-2.265-0.955c-0.619-0.605-0.932-1.364-0.932-2.252h-0.01
			V14.887c0-0.865,0.303-1.624,0.942-2.232c0.629-0.629,1.377-0.952,2.242-0.952h10.327c0.845,0,1.604,0.323,2.211,0.952
			c0.616,0.628,0.942,1.387,0.942,2.232V34.651z"/>
		<path d="M60.547,11.703H50.221c-0.865,0-1.613,0.323-2.242,0.952c-0.639,0.608-0.942,1.367-0.942,2.232v19.764h0.01
			c0,0.888,0.313,1.647,0.932,2.252c0.606,0.629,1.377,0.955,2.265,0.955h10.271c0.878,0,1.637-0.326,2.245-0.955
			c0.639-0.605,0.942-1.364,0.942-2.252V14.887c0-0.845-0.326-1.604-0.942-2.232C62.151,12.026,61.392,11.703,60.547,11.703z
			 M60.407,34.542H50.34V15.04h10.067V34.542z"/>
	</g>
</g>
<g>
	<path fill="#FFFFFF" d="M133.197,97.243l-0.336-1.277h-0.239v15.842h-3.759V83.875h3.652l3.986,14.56l0.346,1.282h0.229V83.875
		h3.76v27.933h-3.64L133.197,97.243z"/>
	<path fill="#FFFFFF" d="M149.808,91.027h3.846v20.78h-3.846v-1.736c-0.077,0.025-0.229,0.179-0.413,0.372
		c-0.456,0.453-0.985,0.997-1.68,1.364c-0.336,0.193-0.682,0.305-1.028,0.305c-1.018,0-1.746-0.61-2.199-1.409
		c-0.456-0.759-0.685-1.777-0.685-2.643V91.027h3.835v16.448c0,0.799,0.456,0.905,0.921,0.905c0.413,0,0.639-0.213,0.912-0.473
		c0.106-0.133,0.226-0.306,0.336-0.499V91.027z M144.335,83.875h3.543v3.727h-3.543V83.875z M149.698,83.875h3.533v3.727h-3.533
		V83.875z"/>
	<path fill="#FFFFFF" d="M164.37,94.967c-0.346-0.107-0.715-0.147-1.062-0.147c-0.606,0-1.333,0.086-1.939,0.646
		c-0.726,0.605-0.835,1.257-0.835,1.909v14.432h-3.846v-20.78h3.846v2.316c0.033-0.28,0.303-0.911,0.911-1.537
		c0.606-0.565,1.517-1.085,2.925-1.085V94.967z"/>
	<path fill="#FFFFFF" d="M169.885,111.807h-3.846v-20.78h3.846v1.731c0.076-0.021,0.227-0.174,0.456-0.413
		c0.422-0.412,0.985-0.997,1.667-1.364c0.349-0.193,0.652-0.26,0.998-0.26c1.018,0,1.743,0.606,2.199,1.364
		c0.456,0.805,0.682,1.823,0.682,2.688v17.033h-3.835V95.359c0-0.804-0.453-0.911-0.909-0.911c-0.422,0-0.652,0.219-0.911,0.479
		c-0.12,0.153-0.227,0.301-0.346,0.499V111.807z"/>
	<path fill="#FFFFFF" d="M178.857,83.875h3.835v8.517c0.649-0.605,1.225-1.063,1.983-1.41c0.336-0.193,0.726-0.26,1.062-0.26
		c1.062,0,1.787,0.606,2.286,1.364c0.456,0.805,0.682,1.823,0.682,2.688v13.286c0,0.865-0.227,1.884-0.682,2.643
		c-0.499,0.799-1.224,1.409-2.286,1.409c-0.726,0-1.484-0.412-2.049-0.824c-0.346-0.26-0.649-0.545-0.996-0.845v1.364h-3.835V83.875
		z M182.693,107.255c0,0.718,0.573,1.258,1.148,1.258c0.563,0,1.018-0.54,1.018-1.258V95.578c0-0.718-0.456-1.257-1.018-1.257
		c-0.575,0-1.148,0.646-1.148,1.257V107.255z"/>
	<path fill="#FFFFFF" d="M201.21,104.354v2.403c-0.109,2.016-0.715,3.426-2.103,4.53c-0.672,0.565-1.624,0.824-2.871,0.824
		c-2.481,0-3.726-1.369-4.345-2.733c-0.336-0.799-0.563-1.71-0.605-2.729V96.184c0.117-2.017,0.769-3.492,2.133-4.638
		c0.651-0.565,1.593-0.825,2.851-0.825c2.469,0,3.727,1.364,4.335,2.688c0.323,0.799,0.583,1.67,0.605,2.662v6.048h-6.351v4.53
		c0.043,0.8,0.262,1.364,0.608,1.776c0.193,0.193,0.456,0.306,0.802,0.306c0.726,0,1.062-0.458,1.214-1.023
		c0.117-0.3,0.16-0.646,0.16-1.059v-2.296H201.21z M194.859,99.106h2.785v-2.922c0-0.805-0.16-1.364-0.54-1.822
		c-0.186-0.194-0.489-0.301-0.835-0.301c-0.725,0-1.031,0.494-1.214,1.059c-0.12,0.306-0.153,0.652-0.196,1.064V99.106z"/>
	<path fill="#FFFFFF" d="M211.435,94.967c-0.347-0.107-0.713-0.147-1.059-0.147c-0.611,0-1.345,0.086-1.95,0.646
		c-0.713,0.605-0.824,1.257-0.824,1.909v14.432h-3.854v-20.78h3.854v2.316c0.046-0.28,0.305-0.911,0.911-1.537
		c0.605-0.565,1.517-1.085,2.922-1.085V94.967z"/>
	<path fill="#FFFFFF" d="M222.512,101.773c-0.133,1.95-0.825,3.314-2.128,4.332c-0.692,0.545-1.649,0.805-2.811,0.805
		c-0.132,0-0.244,0-0.355,0c-0.123,0-0.255,0-0.388-0.046c-0.346,0.306-0.519,0.611-0.519,0.957c0,0.453,0.366,0.713,0.937,0.886
		c0.58,0.173,1.272,0.285,1.965,0.412c1.212,0.153,2.515,0.458,3.604,1.171c1.018,0.738,1.73,1.822,1.73,3.66
		c0,2.017-0.865,3.386-2.077,4.185c-1.263,0.805-2.952,1.125-4.51,1.125c-1.823-0.041-3.381-0.3-4.419-0.906
		c-1.13-0.61-1.741-1.604-1.741-3.12c0-0.718,0.397-1.323,0.957-1.863c0.561-0.524,1.344-0.957,2.057-1.283
		c-1.231-0.346-2.321-1.145-2.321-2.774c0-0.605,0.356-1.231,0.805-1.797c0.458-0.564,1.018-1.018,1.588-1.323
		c-1.089-0.733-1.629-1.863-1.894-2.815c-0.143-0.564-0.274-1.15-0.295-1.71v-5.682c0.152-1.924,0.753-3.334,2.097-4.438
		c0.652-0.565,1.578-0.825,2.779-0.825c1.925,0,3.116,0.866,3.809,1.884c0.285-0.26,0.732-0.713,1.344-1.125
		c0.56-0.433,1.211-0.759,1.822-0.759v3.427c-1.019,0-1.782,0.173-2.25,0.453c0.041,0.173,0.081,0.366,0.122,0.479
		c0,0.147,0,0.3,0.051,0.433c0.041,0.106,0.041,0.26,0.041,0.366V101.773z M216.963,112.758c-0.825,0.459-1.436,1.044-1.436,1.823
		c0,0.799,0.743,1.45,2.515,1.45c0.651,0,1.395-0.106,1.955-0.346c0.56-0.219,0.997-0.565,0.997-1.064
		c0-0.346-0.04-0.605-0.305-0.865c-0.306-0.26-0.825-0.453-1.782-0.605L216.963,112.758z M218.734,96.138
		c0-0.713-0.173-1.171-0.448-1.583c-0.152-0.193-0.366-0.301-0.713-0.301c-0.61,0-0.916,0.499-1.048,0.952
		c-0.082,0.26-0.122,0.605-0.082,0.932v5.722c-0.04,0.718,0.082,1.171,0.428,1.563c0.153,0.174,0.377,0.301,0.702,0.301
		c0.642,0,0.906-0.453,1.039-0.911c0.081-0.28,0.122-0.626,0.122-0.952V96.138z"/>
</g>
</svg>
