<?xml version="1.0" encoding="utf-8"?>
<!DOCTYPE svg PUBLIC "-//W3C//DTD SVG 1.1//EN" "http://www.w3.org/Graphics/SVG/1.1/DTD/svg11.dtd">
<svg version="1.1" id="Ebene_1" xmlns="http://www.w3.org/2000/svg" xmlns:xlink="http://www.w3.org/1999/xlink" x="0px" y="0px"
	 width="181.62px" height="196.649px" viewBox="708.65 351.72 181.62 196.649"
	 enable-background="new 708.65 351.72 181.62 196.649" xml:space="preserve">
<g>
	<path fill="#424242" d="M710.72,524.43c-1.351-1.44-2.07-3.33-2.07-5.67c0-2.25,0.45-4.32,1.44-6.21
		c0.989-1.891,2.34-3.33,4.14-4.5c1.8-1.08,3.87-1.62,6.21-1.62c1.89,0,3.42,0.18,4.68,0.63c1.261,0.36,1.891,1.26,1.891,2.7
		c0,0.72-0.181,2.069-0.54,3.87h-1.17c0-0.181,0-0.54,0-0.99c0-1.44-0.36-2.521-1.17-3.24c-0.811-0.72-1.98-1.08-3.421-1.08
		c-1.529,0-2.789,0.63-3.779,1.891c-0.99,1.26-1.71,2.789-2.16,4.5c-0.45,1.8-0.72,3.42-0.72,4.949c0,3.33,1.35,5.04,4.05,5.04
		c1.35,0,2.43-0.27,3.42-0.899s1.98-1.44,2.97-2.521l1.08,0.9c-1.08,1.26-2.25,2.25-3.51,3.06c-1.351,0.811-3.06,1.17-5.13,1.17
		C714.14,526.591,712.07,525.87,710.72,524.43z"/>
	<path fill="#424242" d="M744.289,508.41c0.181,0.45,0.271,0.721,0.271,0.811l-2.34,1.62c-0.09-0.271-0.271-0.54-0.54-0.811
		c-0.54-0.54-1.17-0.81-1.98-0.81c-1.62,0-2.88,0.45-3.87,1.26c0,0.18,0,0.36,0,0.63c0,0.18,0,0.36,0,0.63
		c0,0.271-0.09,0.54-0.09,0.721l-2.43,13.77H728c1.079-6.57,1.709-10.35,1.89-11.16c0.45-2.97,0.72-4.5,0.72-4.68
		c0-0.72-0.18-1.351-0.54-1.71c-0.36-0.36-0.899-0.54-1.8-0.54h-0.45l0.181-1.26h4.05c0.899,0,1.62,0.09,2.159,0.359
		c0.45,0.271,0.811,0.63,1.08,1.17c1.711-1.26,3.511-1.89,5.49-1.89c1.17,0,2.07,0.27,2.79,0.81
		C743.84,507.6,744.11,507.961,744.289,508.41z"/>
	<path fill="#424242" d="M744.38,524.52c-1.171-1.35-1.801-3.15-1.801-5.311c0-1.979,0.45-3.96,1.261-5.939
		c0.899-1.98,2.069-3.6,3.689-4.86c1.62-1.26,3.51-1.89,5.67-1.89c1.44,0,2.521,0.36,3.33,1.17c0.45,0.36,0.721,0.72,0.9,1.08h0.18
		l1.8-1.8h3.511l-2.7,15.12l-0.72,4.14h-3.511l-1.17-1.8h-0.18c-0.36,0.45-0.81,0.81-1.351,1.17c-1.08,0.72-2.25,1.08-3.779,1.08
		C747.35,526.591,745.64,525.961,744.38,524.52z M752.39,524.43c0.45-0.271,0.899-0.54,1.439-0.99c0.45-0.36,0.811-0.81,1.171-1.35
		l1.979-11.07c-0.18-0.45-0.36-0.9-0.72-1.35c-0.721-0.9-1.53-1.351-2.521-1.351c-1.35,0-2.43,0.72-3.239,2.07
		c-0.9,1.439-1.53,3.06-1.891,4.95c-0.359,1.89-0.63,3.51-0.63,4.859c0,2.971,0.99,4.5,2.88,4.5
		C751.4,524.79,751.94,524.61,752.39,524.43z"/>
	<path fill="#424242" d="M779.57,525.51c-0.899-0.721-1.26-1.891-1.26-3.33c0-0.181,0.18-1.26,0.45-3.24
		c0.27-1.89,0.899-5.31,1.71-10.17h-2.431l0.36-1.8h2.43l0.63-3.69l2.521-2.43h3.24l-1.08,6.12h4.5l-0.36,1.8h-4.5
		c-1.529,8.73-2.34,13.32-2.34,13.86c0,0.81,0.18,1.35,0.45,1.62c0.27,0.27,0.72,0.449,1.26,0.449c0.81,0,1.62-0.18,2.34-0.54
		c0.271-0.09,0.63-0.27,0.99-0.54l0.36,1.171c-0.36,0.27-0.811,0.539-1.44,0.899c-1.26,0.63-2.61,0.9-4.14,0.9
		C781.73,526.591,780.47,526.23,779.57,525.51z"/>
	<path fill="#424242" d="M793.159,516.33c0.721-4.05,0.99-6.21,0.99-6.3c0-0.72-0.18-1.35-0.54-1.71
		c-0.359-0.359-0.99-0.54-1.8-0.54h-0.18l0.09-0.81h3.06c1.08,0,1.8,0.18,2.25,0.45c0.45,0.27,0.811,0.81,0.9,1.35h0.18
		c1.53-1.53,3.51-2.25,5.94-2.25c1.979,0,3.42,0.63,4.409,1.979c0.99,1.351,1.53,3.061,1.53,5.221c0,1.979-0.359,3.87-1.08,5.939
		c-0.72,1.98-1.89,3.69-3.33,5.04c-1.529,1.351-3.329,1.98-5.399,1.98c-1.8,0-3.42-0.45-4.95-1.261l-1.53,8.641h-3.6L793.159,516.33
		z M803.24,523.08c1.08-1.26,1.8-2.79,2.25-4.59s0.72-3.51,0.72-5.13s-0.27-2.88-0.899-3.87c-0.54-0.899-1.44-1.35-2.7-1.35
		c-1.08,0-1.89,0.27-2.7,0.72c-0.72,0.45-1.439,1.08-2.069,1.8l-2.34,13.141c1.439,0.81,2.699,1.26,3.689,1.26
		C800.9,524.97,802.159,524.341,803.24,523.08z"/>
	<path fill="#424242" d="M813.949,511.921c0.271-1.71,0.63-3.601,0.99-5.94c0.36-2.25,0.63-3.51,0.63-3.69
		c0-0.72-0.18-1.35-0.54-1.71c-0.359-0.359-0.99-0.63-1.8-0.63h-0.81l0.18-0.81h3.689c1.17,0,1.98,0.18,2.431,0.45
		c0.45,0.359,0.72,0.989,0.72,1.979c0,0.45-0.27,1.98-0.72,4.771s-1.62,9.359-3.42,19.71h-3.69L813.949,511.921z"/>
	<path fill="#424242" d="M821.42,524.61c-0.99-1.35-1.53-3.06-1.53-5.13c0-1.98,0.36-3.96,1.17-5.85
		c0.72-1.891,1.89-3.511,3.33-4.86c1.53-1.35,3.239-2.07,5.399-2.25c2.25,0,3.78,0.72,4.681,2.25h0.18l1.8-1.8h2.07l-2.79,15.66
		l-0.63,3.6h-2.07l-1.17-1.8h-0.18c-0.63,0.63-1.44,1.17-2.34,1.62c-0.9,0.449-2.07,0.63-3.601,0.63
		C823.94,526.591,822.409,525.961,821.42,524.61z M830.15,524.341c0.72-0.45,1.351-1.08,1.98-1.801l2.159-11.88
		c-0.449-0.81-0.899-1.439-1.35-1.8c-0.45-0.45-1.17-0.63-2.07-0.63c-1.529,0-2.88,0.63-3.869,1.89
		c-1.08,1.261-1.801,2.79-2.25,4.59c-0.45,1.801-0.721,3.511-0.721,5.04c0,1.62,0.271,2.881,0.9,3.78c0.54,0.9,1.439,1.44,2.7,1.44
		C828.53,524.97,829.43,524.79,830.15,524.341z"/>
	<path fill="#424242" d="M841.67,524.52c-1.261-1.35-1.891-3.24-1.891-5.49c0-2.069,0.45-4.05,1.351-5.939
		c0.899-1.98,2.159-3.511,3.87-4.771c1.709-1.26,3.6-1.8,5.85-1.8c1.71,0,3.24,0.18,4.41,0.54c1.26,0.36,1.8,1.26,1.8,2.61
		c0,0.63-0.18,1.71-0.45,3.239v0.271h-0.81c0-0.181,0-0.54,0-0.9c0-1.35-0.36-2.43-1.17-3.149c-0.811-0.721-1.891-1.08-3.24-1.08
		c-1.71,0-3.061,0.54-4.23,1.71s-1.979,2.52-2.609,4.229c-0.54,1.71-0.811,3.42-0.811,5.04c0,1.8,0.36,3.24,1.17,4.23
		c0.811,0.989,1.98,1.529,3.511,1.529c1.35,0,2.609-0.27,3.6-0.81s1.98-1.35,2.97-2.52l0.72,0.63c-1.17,1.529-2.43,2.609-3.779,3.33
		c-1.351,0.63-2.88,0.989-4.59,0.989C844.73,526.591,842.93,525.961,841.67,524.52z"/>
	<path fill="#424242" d="M860.659,513.091c0.45-2.431,0.63-3.78,0.63-3.96c0-0.54-0.09-0.99-0.359-1.261
		c-0.271-0.27-0.721-0.359-1.351-0.359h-0.27l0.18-0.9h13.141c1.439,0,2.159,0.54,2.159,1.71c0,0.18-0.18,1.26-0.539,3.15h-0.9
		c0.09-0.36,0.09-0.721,0.09-0.99c0-1.71-1.08-2.61-3.15-2.61h-4.77l-1.35,7.471h7.739l-0.27,1.35h-7.74l-1.44,8.19h5.131
		c1.17,0,2.16-0.271,2.97-0.721c0.81-0.54,1.62-1.35,2.34-2.609l0.72,0.27l-1.26,2.34c-0.36,0.72-0.81,1.26-1.17,1.62
		c-0.45,0.36-0.99,0.45-1.71,0.45h-10.98C859.49,519.93,860.209,515.52,860.659,513.091z"/>
	<path fill="#424242" d="M877.579,526.32c-0.899-0.27-1.71-0.63-2.25-1.08s-0.899-1.08-0.899-1.71c0-0.18,0.18-1.439,0.63-3.87h0.81
		v0.181c0,1.979,0.36,3.33,1.17,4.229c0.811,0.9,1.98,1.26,3.69,1.26c0.72,0,1.44-0.09,2.07-0.359c0.63-0.271,1.17-0.63,1.62-1.17
		c0.449-0.54,0.63-1.17,0.63-1.891c0-0.63-0.181-1.17-0.63-1.71c-0.36-0.45-0.99-0.989-1.891-1.62l-3.24-2.159
		c-0.989-0.631-1.71-1.351-2.159-1.98c-0.45-0.63-0.63-1.44-0.63-2.25c0-1.26,0.359-2.34,1.079-3.24
		c0.721-0.899,1.62-1.62,2.79-2.16c1.17-0.449,2.431-0.72,3.78-0.72c1.08,0,2.07,0.09,2.97,0.36c0.9,0.27,1.71,0.63,2.25,1.08
		s0.9,1.08,0.9,1.71c0,0.18-0.18,1.439-0.63,3.87h-0.811v-0.36c0-1.89-0.359-3.24-1.17-4.14c-0.72-0.811-1.89-1.261-3.42-1.261
		c-0.63,0-1.35,0.091-1.89,0.36c-0.63,0.271-1.08,0.63-1.53,1.17c-0.36,0.54-0.63,1.17-0.63,1.8s0.18,1.17,0.54,1.53
		c0.36,0.45,0.99,0.9,1.89,1.53l3.33,2.16c1.08,0.72,1.891,1.439,2.34,2.069c0.45,0.63,0.721,1.351,0.721,2.16
		c0,1.351-0.45,2.521-1.261,3.51c-0.81,0.99-1.89,1.711-3.149,2.16c-1.26,0.45-2.7,0.721-4.05,0.721
		C879.56,526.68,878.48,526.591,877.579,526.32z"/>
	<path fill="#424242" d="M772.64,505.801c0.36-1.891,0.81-3.24,1.439-4.051c0.63-0.81,1.44-1.17,2.341-1.17
		c0.72,0,1.35,0.181,1.8,0.54c0.18,0.091,0.27,0.181,0.45,0.36l1.8-1.8c-0.09-0.09-0.181-0.181-0.271-0.271
		c-0.359-0.18-0.81-0.359-1.529-0.54c-0.631-0.09-1.351-0.18-2.07-0.18c-2.7,0-4.77,0.63-6.3,1.8s-2.521,2.971-2.97,5.311
		l-0.181,1.08h-2.43l-0.36,1.8h2.43l-2.88,16.38c-0.45,2.7-1.08,4.59-1.8,5.76s-1.8,1.8-3.15,2.07l-0.18,0.99
		c2.25,0,4.141-0.271,5.49-0.811s2.43-1.439,3.24-2.7c0.81-1.26,1.35-3.06,1.8-5.31l2.88-16.38h6.03l0.36-1.8h-6.03L772.64,505.801z
		"/>
</g>
<g>
	<path fill="#EB6047" d="M780.11,428.22c9.9,12.779,28.53,12.24,38.61,0c1.979-2.34-1.44-5.76-3.42-3.42
		c-8.55,10.35-23.49,10.8-31.86,0C781.64,422.461,778.31,425.881,780.11,428.22L780.11,428.22z"/>
	<path fill="#EB5F47" d="M799.459,351.72c-33.84,0-61.199,27.45-61.199,61.2c0,32.04,24.66,58.319,56.069,61.02
		c-9.359-14.85-27.899-46.35-27.899-61.56c0-20.881,18.45-33.66,33.12-33.66l0,0l0,0l0,0l0,0c14.67,0,33.12,12.779,33.12,33.66
		c0,15.21-18.631,46.71-27.9,61.56c31.41-2.61,56.07-28.89,56.07-61.02C860.659,379.08,833.3,351.72,799.459,351.72z"/>
</g>
<g>
	<path fill="#424242" d="M714.59,544.14h-3.96l-0.721,4.05h-0.72l1.53-8.73h5.22l-0.09,0.631h-4.5l-0.63,3.42h3.96L714.59,544.14z"
		/>
	<path fill="#424242" d="M719.27,548.19h-0.72l1.17-6.48h0.72L719.27,548.19z M719.9,539.82c0-0.27,0.18-0.45,0.54-0.45
		c0.18,0,0.27,0.09,0.36,0.181c0.09,0.09,0.09,0.18,0.09,0.359c0,0.181-0.09,0.271-0.181,0.36c-0.09,0.09-0.18,0.09-0.359,0.18
		C720.079,540.27,719.9,540.091,719.9,539.82z"/>
	<path fill="#424242" d="M725.75,541.711l-0.181,1.079c0.271-0.359,0.63-0.72,0.99-0.899s0.81-0.36,1.17-0.271
		c0.63,0,1.08,0.271,1.35,0.631c0.271,0.449,0.36,0.989,0.271,1.71l-0.72,4.229H728l0.72-4.229c0-0.271,0-0.45,0-0.631
		c-0.09-0.72-0.45-1.079-1.17-1.079c-0.45,0-0.811,0.09-1.17,0.359c-0.36,0.271-0.721,0.63-0.99,1.17l-0.811,4.41h-0.72l1.17-6.479
		H725.75L725.75,541.711z"/>
	<path fill="#424242" d="M733.49,544.95c0.09-0.72,0.271-1.26,0.54-1.8c0.271-0.54,0.63-0.9,0.99-1.17c0.45-0.27,0.9-0.36,1.35-0.36
		c0.36,0,0.721,0.09,1.08,0.271c0.36,0.18,0.54,0.45,0.721,0.81l0.63-3.6h0.72l-1.62,9.18h-0.63l0.18-0.899
		c-0.54,0.72-1.26,0.989-2.069,0.989c-0.63,0-1.08-0.27-1.44-0.72c-0.359-0.45-0.54-1.08-0.54-1.8c0-0.271,0-0.45,0-0.72
		L733.49,544.95z M734.209,545.04c0,0.271,0,0.54,0,0.811c0,0.54,0.181,0.99,0.36,1.26c0.271,0.271,0.54,0.45,0.99,0.45
		s0.81-0.09,1.17-0.271c0.36-0.18,0.63-0.539,0.81-0.899l0.54-3.061c-0.09-0.359-0.27-0.72-0.54-0.899
		c-0.27-0.181-0.63-0.36-0.989-0.36c-0.63,0-1.08,0.18-1.53,0.72c-0.45,0.45-0.63,1.17-0.811,1.98V545.04z"/>
	<path fill="#424242" d="M750.86,539.461l1.8,7.649l4.5-7.649h0.99l-1.53,8.729h-0.72l0.63-3.87l0.721-3.78l-4.41,7.561h-0.54
		l-1.8-7.65l-0.631,3.87l-0.63,3.78h-0.72l1.53-8.73h0.81V539.461z"/>
	<path fill="#424242" d="M761.48,544.86c0.09-0.63,0.271-1.17,0.54-1.71s0.72-0.9,1.17-1.17s0.99-0.36,1.53-0.36
		s0.989,0.181,1.35,0.45c0.36,0.271,0.63,0.63,0.811,1.17c0.18,0.45,0.27,1.08,0.18,1.62v0.09c-0.09,0.99-0.45,1.8-1.08,2.431
		c-0.63,0.63-1.35,0.899-2.16,0.899c-0.72,0-1.35-0.27-1.71-0.81c-0.45-0.54-0.63-1.17-0.63-2.07v-0.36V544.86z M762.199,545.04
		c-0.09,0.45,0,0.9,0.09,1.351c0.091,0.359,0.36,0.72,0.54,0.899c0.271,0.271,0.63,0.36,0.99,0.36c0.45,0,0.811-0.09,1.17-0.36
		c0.36-0.27,0.63-0.54,0.9-0.989c0.27-0.45,0.36-0.9,0.45-1.351v-0.18c0.09-0.811-0.09-1.44-0.36-1.89
		c-0.271-0.45-0.72-0.721-1.35-0.721s-1.171,0.271-1.62,0.721c-0.45,0.54-0.721,1.17-0.811,2.069V545.04z"/>
	<path fill="#424242" d="M776.42,544.95c-0.181,0.99-0.45,1.891-0.99,2.431s-1.17,0.899-1.891,0.899c-0.449,0-0.81-0.09-1.08-0.27
		c-0.27-0.181-0.539-0.45-0.72-0.721l-0.18,0.9h-0.63l1.62-9.18h0.72l-0.72,3.689c0.54-0.72,1.26-1.08,2.069-1.08
		c0.63,0,1.08,0.271,1.44,0.721c0.36,0.449,0.54,1.08,0.54,1.8c0,0.27,0,0.54,0,0.72L776.42,544.95z M775.699,544.86v-0.54
		c0-0.63-0.09-1.17-0.359-1.53c-0.271-0.359-0.631-0.539-1.08-0.539c-0.9,0-1.53,0.449-2.07,1.35l-0.45,2.97
		c0.09,0.36,0.271,0.72,0.63,0.9c0.36,0.18,0.631,0.359,0.99,0.359c0.63,0,1.08-0.18,1.53-0.72
		C775.34,546.48,775.61,545.76,775.699,544.86z"/>
	<path fill="#424242" d="M780.92,548.19h-0.721l1.17-6.48h0.721L780.92,548.19z M781.55,539.82c0-0.27,0.18-0.45,0.54-0.45
		c0.18,0,0.27,0.09,0.359,0.181c0.09,0.09,0.09,0.18,0.09,0.359c0,0.181-0.09,0.271-0.18,0.36s-0.18,0.09-0.359,0.18
		C781.73,540.27,781.55,540.091,781.55,539.82z"/>
	<path fill="#424242" d="M786.409,548.19h-0.72l1.62-9.18h0.72L786.409,548.19z"/>
	<path fill="#424242" d="M793.61,548.28c-0.54,0-0.99-0.18-1.35-0.45c-0.36-0.27-0.63-0.63-0.811-1.17
		c-0.18-0.54-0.27-0.989-0.18-1.529v-0.181c0.09-0.63,0.27-1.17,0.54-1.71c0.27-0.54,0.72-0.99,1.17-1.26
		c0.45-0.271,0.99-0.45,1.44-0.45c0.449,0,0.899,0.18,1.26,0.36c0.359,0.27,0.54,0.63,0.72,1.08s0.18,0.989,0.18,1.529l-0.09,0.45
		h-4.5v0.181c-0.09,0.449,0,0.81,0.09,1.26c0.091,0.36,0.36,0.72,0.63,0.99c0.271,0.27,0.631,0.359,0.99,0.359
		c0.36,0,0.721-0.09,1.08-0.18c0.271-0.18,0.63-0.36,0.811-0.63l0.449,0.359c-0.27,0.36-0.63,0.631-1.08,0.811
		C794.51,548.19,794.06,548.28,793.61,548.28z M794.329,542.16c-0.54,0-0.989,0.181-1.35,0.54c-0.36,0.36-0.72,0.9-0.9,1.62h3.78
		v-0.09c0.09-0.54,0-1.08-0.27-1.44C795.23,542.43,794.869,542.16,794.329,542.16z"/>
	<path fill="#424242" d="M805.76,548.19l1.529-8.73h2.431c0.81,0,1.439,0.271,1.89,0.631c0.45,0.359,0.63,0.899,0.54,1.619
		c0,0.45-0.18,0.811-0.54,1.171c-0.359,0.359-0.72,0.63-1.17,0.81c0.45,0.09,0.72,0.36,0.99,0.72c0.27,0.36,0.359,0.811,0.27,1.261
		c-0.09,0.72-0.359,1.35-0.899,1.8s-1.261,0.72-2.16,0.72H805.76z M807.199,543.961l-0.63,3.6h2.07c0.63,0,1.17-0.18,1.62-0.54
		c0.449-0.36,0.72-0.81,0.72-1.35c0.09-0.54-0.09-0.9-0.36-1.17c-0.27-0.271-0.72-0.45-1.26-0.45L807.199,543.961z M807.289,543.33
		h1.891c0.63,0,1.17-0.18,1.529-0.449c0.36-0.271,0.631-0.721,0.631-1.261c0.09-0.989-0.45-1.529-1.71-1.62h-1.8L807.289,543.33z"/>
	<path fill="#424242" d="M819.98,547.381c-0.54,0.63-1.26,0.989-2.16,0.899c-0.63,0-1.08-0.27-1.35-0.63
		c-0.271-0.45-0.45-0.99-0.36-1.8l0.72-4.14h0.721l-0.721,4.14c0,0.18,0,0.45,0,0.63c0,0.36,0.181,0.63,0.36,0.81
		c0.18,0.181,0.45,0.271,0.811,0.36c0.449,0,0.899-0.09,1.35-0.36c0.45-0.27,0.63-0.539,0.81-0.989l0.811-4.681h0.72l-1.17,6.48
		h-0.72L819.98,547.381z"/>
	<path fill="#424242" d="M829.07,546.48c0.09-0.54-0.27-0.99-0.99-1.17l-0.989-0.271c-0.99-0.359-1.351-0.81-1.351-1.619
		c0-0.54,0.271-0.99,0.72-1.351c0.45-0.359,0.99-0.54,1.711-0.45c0.63,0,1.17,0.181,1.529,0.54c0.36,0.36,0.54,0.811,0.54,1.44
		h-0.72c0-0.36-0.09-0.72-0.36-0.99c-0.27-0.27-0.63-0.36-1.08-0.36c-0.449,0-0.81,0.091-1.17,0.36c-0.27,0.18-0.45,0.54-0.54,0.811
		c-0.09,0.54,0.271,0.899,0.99,1.08l0.72,0.18l0.36,0.18c0.9,0.36,1.35,0.9,1.26,1.62c0,0.54-0.27,0.99-0.63,1.26
		c-0.45,0.36-0.989,0.54-1.62,0.54h-0.27c-0.45,0-0.811-0.09-1.17-0.27c-0.36-0.181-0.63-0.36-0.811-0.72
		c-0.18-0.271-0.27-0.631-0.27-0.99h0.72c0,0.45,0.181,0.72,0.45,0.99c0.27,0.27,0.63,0.359,1.17,0.359c0.45,0,0.9-0.09,1.26-0.359
		C828.8,547.11,828.98,546.841,829.07,546.48z"/>
	<path fill="#424242" d="M834.56,548.19h-0.72l1.17-6.48h0.72L834.56,548.19z M835.19,539.82c0-0.27,0.18-0.45,0.54-0.45
		c0.18,0,0.27,0.09,0.36,0.181c0.09,0.09,0.09,0.18,0.09,0.359c0,0.181-0.09,0.271-0.181,0.36c-0.09,0.09-0.18,0.09-0.359,0.18
		C835.28,540.27,835.19,540.091,835.19,539.82z"/>
	<path fill="#424242" d="M841.039,541.711l-0.18,1.079c0.27-0.359,0.63-0.72,0.99-0.899c0.359-0.18,0.81-0.36,1.17-0.271
		c0.63,0,1.08,0.271,1.35,0.631c0.271,0.449,0.36,0.989,0.271,1.71l-0.72,4.229h-0.721l0.721-4.229c0-0.271,0-0.45,0-0.631
		c-0.091-0.72-0.45-1.079-1.17-1.079c-0.45,0-0.811,0.09-1.171,0.359c-0.359,0.271-0.72,0.63-0.989,1.17l-0.811,4.41h-0.72
		l1.17-6.479H841.039L841.039,541.711z"/>
	<path fill="#424242" d="M851.03,548.28c-0.54,0-0.99-0.18-1.35-0.45c-0.36-0.27-0.63-0.63-0.811-1.17
		c-0.18-0.54-0.27-0.989-0.18-1.529v-0.181c0.09-0.63,0.27-1.17,0.54-1.71c0.27-0.54,0.72-0.99,1.17-1.26
		c0.45-0.271,0.99-0.45,1.44-0.45c0.449,0,0.899,0.18,1.26,0.36c0.359,0.27,0.54,0.63,0.72,1.08s0.18,0.989,0.18,1.529l-0.09,0.45
		h-4.5v0.181c-0.09,0.449,0,0.81,0.09,1.26c0.091,0.36,0.36,0.72,0.63,0.99c0.271,0.27,0.631,0.359,0.99,0.359
		c0.36,0,0.721-0.09,1.08-0.18c0.271-0.18,0.63-0.36,0.811-0.63l0.449,0.359c-0.27,0.36-0.63,0.631-1.08,0.811
		C852.02,548.19,851.57,548.28,851.03,548.28z M851.84,542.16c-0.54,0-0.99,0.181-1.351,0.54c-0.36,0.36-0.72,0.9-0.899,1.62h3.779
		v-0.09c0.09-0.54,0-1.08-0.27-1.44C852.74,542.43,852.289,542.16,851.84,542.16z"/>
	<path fill="#424242" d="M861.47,546.48c0.09-0.54-0.271-0.99-0.99-1.17l-0.99-0.271c-0.989-0.359-1.35-0.81-1.35-1.619
		c0-0.54,0.27-0.99,0.72-1.351c0.45-0.359,0.99-0.54,1.71-0.45c0.63,0,1.17,0.181,1.53,0.54c0.36,0.36,0.54,0.811,0.54,1.44h-0.72
		c0-0.36-0.09-0.72-0.36-0.99c-0.271-0.27-0.63-0.36-1.08-0.36s-0.81,0.091-1.17,0.36c-0.271,0.18-0.45,0.54-0.54,0.811
		c-0.09,0.54,0.27,0.899,0.99,1.08l0.72,0.18l0.36,0.18c0.899,0.36,1.35,0.9,1.26,1.62c0,0.54-0.27,0.99-0.63,1.26
		c-0.45,0.36-0.99,0.54-1.62,0.54h-0.27c-0.45,0-0.811-0.09-1.171-0.27c-0.359-0.181-0.63-0.36-0.81-0.72
		c-0.18-0.271-0.27-0.631-0.27-0.99h0.72c0,0.45,0.18,0.72,0.45,0.99c0.27,0.27,0.63,0.359,1.17,0.359
		c0.449,0,0.899-0.09,1.26-0.359C861.289,547.11,861.47,546.841,861.47,546.48z"/>
	<path fill="#424242" d="M870.289,546.48c0.09-0.54-0.27-0.99-0.989-1.17l-0.99-0.271c-0.99-0.359-1.351-0.81-1.351-1.619
		c0-0.54,0.271-0.99,0.721-1.351c0.45-0.359,0.99-0.54,1.71-0.45c0.63,0,1.17,0.181,1.53,0.54c0.359,0.36,0.539,0.811,0.539,1.44
		h-0.72c0-0.36-0.09-0.72-0.359-0.99c-0.271-0.27-0.63-0.36-1.08-0.36s-0.811,0.091-1.17,0.36c-0.271,0.18-0.45,0.54-0.54,0.811
		c-0.09,0.54,0.27,0.899,0.989,1.08l0.721,0.18l0.359,0.18c0.9,0.36,1.351,0.9,1.261,1.62c0,0.54-0.271,0.99-0.631,1.26
		c-0.449,0.36-0.989,0.54-1.619,0.54H868.4c-0.45,0-0.81-0.09-1.17-0.27c-0.36-0.181-0.63-0.36-0.81-0.72
		c-0.181-0.271-0.271-0.631-0.271-0.99h0.72c0,0.45,0.181,0.72,0.45,0.99c0.271,0.27,0.63,0.359,1.17,0.359
		c0.45,0,0.9-0.09,1.261-0.359C870.11,547.11,870.289,546.841,870.289,546.48z"/>
	<path fill="#424242" d="M877.579,548.28c-0.54,0-0.989-0.18-1.35-0.45c-0.36-0.27-0.63-0.63-0.81-1.17
		c-0.181-0.54-0.271-0.989-0.181-1.529v-0.181c0.09-0.63,0.271-1.17,0.54-1.71c0.271-0.54,0.72-0.99,1.17-1.26
		c0.45-0.271,0.99-0.45,1.44-0.45s0.899,0.18,1.26,0.36c0.36,0.27,0.54,0.63,0.72,1.08c0.181,0.45,0.181,0.989,0.181,1.529
		l-0.091,0.45h-4.5v0.181c-0.09,0.449,0,0.81,0.091,1.26c0.09,0.36,0.359,0.72,0.63,0.99c0.27,0.27,0.63,0.359,0.99,0.359
		c0.359,0,0.72-0.09,1.079-0.18c0.271-0.18,0.63-0.36,0.811-0.63l0.45,0.359c-0.271,0.36-0.631,0.631-1.08,0.811
		C878.48,548.19,878.03,548.28,877.579,548.28z M878.3,542.16c-0.54,0-0.99,0.181-1.351,0.54c-0.359,0.36-0.72,0.9-0.899,1.62h3.779
		v-0.09c0.091-0.54,0-1.08-0.27-1.44C879.199,542.43,878.84,542.16,878.3,542.16z"/>
	<path fill="#424242" d="M888.02,546.48c0.09-0.54-0.27-0.99-0.99-1.17l-0.99-0.271c-0.989-0.359-1.35-0.81-1.35-1.619
		c0-0.54,0.27-0.99,0.72-1.351c0.45-0.359,0.99-0.54,1.71-0.45c0.631,0,1.17,0.181,1.53,0.54c0.36,0.36,0.54,0.811,0.54,1.44h-0.72
		c0-0.36-0.09-0.72-0.36-0.99c-0.27-0.27-0.63-0.36-1.08-0.36s-0.81,0.091-1.17,0.36c-0.27,0.18-0.45,0.54-0.54,0.811
		c-0.09,0.54,0.271,0.899,0.99,1.08l0.72,0.18l0.36,0.18c0.899,0.36,1.35,0.9,1.26,1.62c0,0.54-0.27,0.99-0.63,1.26
		c-0.45,0.36-0.99,0.54-1.62,0.54h-0.27c-0.45,0-0.811-0.09-1.17-0.27c-0.36-0.181-0.63-0.36-0.811-0.72
		c-0.18-0.271-0.27-0.631-0.27-0.99h0.72c0,0.45,0.18,0.72,0.45,0.99c0.27,0.27,0.63,0.359,1.17,0.359c0.45,0,0.899-0.09,1.26-0.359
		C887.75,547.11,887.93,546.841,888.02,546.48z"/>
</g>
</svg>
