<?xml version="1.0" encoding="utf-8"?>
<!-- Generator: Adobe Illustrator 15.1.0, SVG Export Plug-In . SVG Version: 6.00 Build 0)  -->
<!DOCTYPE svg PUBLIC "-//W3C//DTD SVG 1.1//EN" "http://www.w3.org/Graphics/SVG/1.1/DTD/svg11.dtd">
<svg version="1.1" id="Ebene_1" xmlns="http://www.w3.org/2000/svg" xmlns:xlink="http://www.w3.org/1999/xlink" x="0px" y="0px"
	 width="133.229px" height="133.229px" viewBox="0 0 133.229 133.229" enable-background="new 0 0 133.229 133.229"
	 xml:space="preserve">
<g>
	<path fill="#878787" d="M65.363,90.988h-1.09v4.311h1.09c0.425,0,0.758-0.125,1.008-0.398c0.308-0.342,0.315-0.983,0.315-1.798
		c0-0.816-0.008-1.373-0.315-1.716C66.12,91.113,65.787,90.988,65.363,90.988z"/>
	<path fill="#878787" d="M58.705,47.936c0-1.75-1.226-2.8-3.025-2.8h-4v5.574h4C57.48,50.711,58.705,49.686,58.705,47.936z"/>
	<polygon fill="#878787" points="37.356,77.838 42.831,77.838 40.131,69.938 	"/>
	<path fill="#878787" d="M53.648,91.92c0-0.582-0.406-0.932-1.006-0.931H51.31v1.855h1.331C53.24,92.844,53.648,92.503,53.648,91.92
		z"/>
	<polygon fill="#878787" points="71.705,77.838 77.18,77.838 74.48,69.938 	"/>
	<path fill="#878787" d="M66.614,0C29.824,0,0,29.823,0,66.613s29.824,66.615,66.613,66.615c36.79,0,66.614-29.824,66.614-66.614
		S103.404,0,66.614,0z M65.279,42.711h12.5v2.426h-4.899v15.375h-2.7V45.136h-4.9V42.711z M30.331,42.711h2.699v11.676
		c0,2.375,1.45,3.85,3.676,3.85c2.225,0,3.699-1.475,3.699-3.85V42.711h2.7v11.801c0,3.675-2.774,6.149-6.399,6.149
		s-6.375-2.475-6.375-6.149V42.711z M14.481,44.461c1.226-1.225,2.825-1.899,4.675-1.899c3.275,0,5.726,1.925,6.351,5.476h-2.75
		c-0.425-1.801-1.625-3.051-3.601-3.051c-1.05,0-2,0.4-2.625,1.075c-0.875,0.95-1.074,1.976-1.074,5.55
		c0,3.575,0.199,4.601,1.074,5.551c0.625,0.675,1.575,1.074,2.625,1.074c1.976,0,3.2-1.25,3.625-3.05h2.726
		c-0.601,3.549-3.125,5.475-6.351,5.474c-1.85,0-3.449-0.675-4.675-1.899c-1.75-1.75-1.725-3.725-1.725-7.15
		C12.756,48.186,12.731,46.211,14.481,44.461z M12.756,65.913h2.7l5.199,11.075l5.101-11.075h2.7v17.8h-2.7V71.813l-4.101,8.676h-2
		l-4.199-8.676v11.899h-2.7V65.913z M18.272,96.105H17.49l-1.206-4.15l-1.198,4.15h-0.782l-1.548-5.923h0.949l1.03,4.233l1.19-4.233
		h0.724l1.19,4.233l1.032-4.233h0.947L18.272,96.105z M26.017,96.105h-0.782l-1.206-4.15l-1.197,4.15h-0.782l-1.548-5.923h0.949
		l1.03,4.233l1.19-4.233h0.724l1.19,4.233l1.031-4.233h0.948L26.017,96.105z M33.764,96.105h-0.782l-1.206-4.15l-1.198,4.15h-0.782
		l-1.547-5.923h0.947l1.032,4.233l1.19-4.233h0.724l1.189,4.233l1.031-4.233h0.949L33.764,96.105z M36.691,96.105h-1.014v-1.015
		h1.014V96.105z M39.612,94.992c0.208,0.224,0.525,0.357,0.874,0.357c0.657,0,1.065-0.416,1.206-1.017h0.907
		c-0.2,1.183-1.04,1.822-2.113,1.824c-0.615,0-1.147-0.226-1.555-0.633c-0.582-0.581-0.574-1.238-0.574-2.38
		c0-1.141-0.008-1.797,0.574-2.379c0.407-0.408,0.939-0.633,1.555-0.633c1.091,0,1.905,0.64,2.113,1.821h-0.915
		c-0.141-0.6-0.541-1.016-1.198-1.016c-0.349,0-0.666,0.133-0.874,0.357c-0.291,0.317-0.356,0.658-0.356,1.848
		C39.255,94.334,39.321,94.677,39.612,94.992z M36.556,80.138l-1.225,3.574h-2.875l6.524-17.8h2.175l6.525,17.8h-2.875l-1.225-3.574
		H36.556z M48.456,94.109c0,1.223-0.922,2.046-2.129,2.046s-2.121-0.823-2.121-2.046v-3.928h0.896v3.886
		c0,0.791,0.483,1.281,1.225,1.281c0.74,0,1.231-0.49,1.231-1.281v-3.886h0.897V94.109z M48.98,42.711h6.9
		c3.375,0,5.524,2.176,5.524,5.2c0,2.55-1.55,4.175-3.55,4.726l4.101,7.875h-3.15l-3.75-7.5H51.68v7.5h-2.7V42.711z M54.729,96.105
		h-1.048l-1.248-2.495h-1.124v2.495h-0.896v-5.923h2.295c1.124,0,1.839,0.723,1.839,1.729c0,0.849-0.517,1.388-1.182,1.572
		L54.729,96.105L54.729,96.105z M59.996,90.988h-1.632v5.116h-0.896v-5.116h-1.631v-0.807h4.159V90.988z M61.494,96.105H60.48
		v-1.015h1.015V96.105z M57.206,83.863c-1.851,0-3.45-0.675-4.676-1.9c-1.75-1.75-1.725-3.724-1.725-7.149
		c0-3.424-0.025-5.399,1.725-7.149c1.226-1.225,2.775-1.899,4.676-1.899c3.774,0,5.975,2.475,6.475,5.524h-2.725
		c-0.45-1.951-1.75-3.101-3.75-3.101c-1.051,0-2,0.426-2.625,1.101c-0.875,0.95-1.075,1.95-1.075,5.524
		c0,3.575,0.2,4.601,1.075,5.551c0.625,0.675,1.574,1.074,2.625,1.074c1.175,0,2.199-0.449,2.899-1.25c0.65-0.75,0.9-1.65,0.9-2.8
		v-1h-3.8v-2.301h6.5v2.726c0,2.3-0.426,3.774-1.601,5.024C60.756,83.262,59.081,83.863,57.206,83.863z M66.985,95.548
		c-0.374,0.374-0.916,0.558-1.53,0.558h-2.08v-5.923h2.08c0.614,0,1.156,0.184,1.53,0.558c0.641,0.639,0.6,1.506,0.6,2.362
		S67.625,94.908,66.985,95.548z M72.783,90.989h-2.888v1.731h2.462v0.796h-2.462v1.781h2.888v0.807v0.001h-3.785v-5.923h3.785
		V90.989z M79.155,83.713l-1.225-3.574h-7.025l-1.225,3.574h-2.875l6.525-17.8h2.175l6.523,17.8H79.155z M96.33,68.113
		l-8.275,13.175h8.275v2.425H84.929v-2.324l8.225-13.051h-7.875v-2.425H96.33V68.113z M103.43,83.713h-2.699v-17.8h2.699V83.713z
		 M119.879,83.713l-8.226-12.524v12.524h-2.699v-17.8h2.475l8.226,12.5v-12.5h2.699v17.8H119.879z"/>
</g>
</svg>
