<?xml version="1.0" encoding="utf-8"?>
<!-- Generator: Adobe Illustrator 16.0.0, SVG Export Plug-In . SVG Version: 6.00 Build 0)  -->
<!DOCTYPE svg PUBLIC "-//W3C//DTD SVG 1.1//EN" "http://www.w3.org/Graphics/SVG/1.1/DTD/svg11.dtd">
<svg version="1.1" id="Ebene_1" xmlns="http://www.w3.org/2000/svg" xmlns:xlink="http://www.w3.org/1999/xlink" x="0px" y="0px"
	 width="133.229px" height="133.228px" viewBox="0 0 133.229 133.228" enable-background="new 0 0 133.229 133.228"
	 xml:space="preserve">
<g>
	<defs>
		<rect id="SVGID_1_" width="133.229" height="133.228"/>
	</defs>
	<clipPath id="SVGID_2_">
		<use xlink:href="#SVGID_1_"  overflow="visible"/>
	</clipPath>
	<path clip-path="url(#SVGID_2_)" fill="#009FE3" d="M66.614,133.228c36.79,0,66.614-29.824,66.614-66.614S103.404,0,66.614,0
		S0,29.823,0,66.613S29.824,133.228,66.614,133.228"/>
	<path clip-path="url(#SVGID_2_)" fill="#FFFFFF" d="M72.783,96.104v-0.806h-2.887v-1.782h2.462V92.72h-2.462v-1.731h2.887v-0.807
		h-3.785v5.923H72.783z M66.686,93.102c0,0.815-0.008,1.456-0.316,1.798c-0.25,0.274-0.583,0.399-1.007,0.399h-1.09v-4.311h1.09
		c0.424,0,0.757,0.125,1.007,0.398C66.678,91.729,66.686,92.286,66.686,93.102 M67.584,93.102c0-0.856,0.041-1.723-0.599-2.362
		c-0.374-0.374-0.916-0.558-1.531-0.558h-2.08v5.923h2.08c0.615,0,1.157-0.183,1.531-0.557
		C67.625,94.908,67.584,93.959,67.584,93.102 M61.494,95.091h-1.014v1.014h1.014V95.091z M59.996,90.988v-0.807h-4.159v0.807h1.631
		v5.116h0.897v-5.116H59.996z M53.648,91.92c0,0.583-0.408,0.924-1.007,0.924H51.31v-1.855h1.332
		C53.241,90.988,53.648,91.338,53.648,91.92 M54.729,96.104l-1.364-2.62c0.665-0.184,1.181-0.724,1.181-1.572
		c0-1.007-0.715-1.73-1.839-1.73h-2.295v5.923h0.897v-2.495h1.124l1.248,2.495H54.729z M48.456,94.109v-3.928h-0.897v3.886
		c0,0.791-0.491,1.281-1.232,1.281c-0.741,0-1.224-0.49-1.224-1.281v-3.886h-0.897v3.928c0,1.223,0.914,2.046,2.121,2.046
		S48.456,95.332,48.456,94.109 M42.599,94.333h-0.907c-0.141,0.6-0.549,1.016-1.206,1.016c-0.349,0-0.666-0.133-0.874-0.357
		c-0.291-0.316-0.357-0.658-0.357-1.849c0-1.189,0.066-1.53,0.357-1.847c0.208-0.225,0.525-0.358,0.874-0.358
		c0.657,0,1.057,0.416,1.198,1.016h0.915c-0.208-1.182-1.023-1.821-2.113-1.821c-0.616,0-1.148,0.224-1.555,0.632
		c-0.582,0.582-0.574,1.239-0.574,2.379c0,1.142-0.008,1.799,0.574,2.38c0.407,0.407,0.939,0.633,1.555,0.633
		C41.559,96.155,42.399,95.515,42.599,94.333 M36.691,95.091h-1.014v1.014h1.014V95.091z M35.312,90.182h-0.949l-1.032,4.234
		l-1.189-4.234h-0.724l-1.19,4.234l-1.032-4.234h-0.948l1.547,5.923h0.782l1.199-4.15l1.206,4.15h0.782L35.312,90.182z
		 M27.565,90.182h-0.949l-1.031,4.234l-1.19-4.234h-0.724l-1.19,4.234l-1.031-4.234h-0.949l1.548,5.923h0.782l1.198-4.15l1.206,4.15
		h0.782L27.565,90.182z M19.82,90.182h-0.948l-1.032,4.234l-1.19-4.234h-0.724l-1.19,4.234l-1.031-4.234h-0.949l1.548,5.923h0.782
		l1.198-4.15l1.206,4.15h0.782L19.82,90.182z"/>
	<path clip-path="url(#SVGID_2_)" fill="#FFFFFF" d="M122.354,83.713v-17.8h-2.699v12.5l-8.226-12.5h-2.475v17.8h2.7V71.188
		l8.225,12.525H122.354z M103.43,65.913h-2.699v17.8h2.699V65.913z M96.33,83.713v-2.425h-8.275l8.275-13.175v-2.2H85.279v2.425
		h7.875l-8.225,13.05v2.325H96.33z M77.18,77.838h-5.475l2.775-7.9L77.18,77.838z M82.029,83.713l-6.524-17.8H73.33l-6.525,17.8
		h2.875l1.225-3.575h7.025l1.225,3.575H82.029z M63.706,76.813v-2.725h-6.5v2.3h3.8v1c0,1.15-0.25,2.05-0.9,2.8
		c-0.7,0.801-1.725,1.25-2.9,1.25c-1.05,0-2-0.399-2.625-1.074c-0.875-0.95-1.075-1.976-1.075-5.551c0-3.574,0.2-4.574,1.075-5.524
		c0.625-0.675,1.575-1.101,2.625-1.101c2,0,3.3,1.15,3.75,3.101h2.725c-0.5-3.05-2.7-5.525-6.475-5.525c-1.9,0-3.45,0.675-4.675,1.9
		c-1.75,1.75-1.725,3.725-1.725,7.149c0,3.426-0.025,5.4,1.725,7.15c1.225,1.225,2.825,1.9,4.675,1.9c1.875,0,3.55-0.601,4.9-2.025
		C63.281,80.588,63.706,79.113,63.706,76.813 M42.831,77.838h-5.475l2.775-7.9L42.831,77.838z M47.681,83.713l-6.525-17.8h-2.175
		l-6.525,17.8h2.875l1.225-3.575h7.025l1.225,3.575H47.681z M28.456,83.713v-17.8h-2.7l-5.1,11.075l-5.2-11.075h-2.7v17.8h2.7v-11.9
		l4.2,8.676h2l4.1-8.676v11.9H28.456z"/>
	<path clip-path="url(#SVGID_2_)" fill="#FFFFFF" d="M77.779,45.136v-2.425h-12.5v2.425h4.9v15.375h2.7V45.136H77.779z
		 M58.705,47.936c0,1.75-1.225,2.775-3.025,2.775h-4v-5.575h4C57.48,45.136,58.705,46.186,58.705,47.936 M61.955,60.511l-4.1-7.875
		c2-0.55,3.55-2.175,3.55-4.725c0-3.025-2.15-5.2-5.525-5.2h-6.9v17.8h2.7v-7.5h3.375l3.75,7.5H61.955z M43.106,54.511v-11.8h-2.7
		v11.675c0,2.375-1.475,3.85-3.7,3.85c-2.225,0-3.675-1.475-3.675-3.85V42.711h-2.7v11.8c0,3.675,2.75,6.15,6.375,6.15
		S43.106,58.186,43.106,54.511 M25.506,55.186h-2.725c-0.425,1.8-1.65,3.05-3.625,3.05c-1.05,0-2-0.399-2.625-1.074
		c-0.875-0.95-1.075-1.976-1.075-5.551c0-3.574,0.2-4.6,1.075-5.55c0.625-0.675,1.575-1.075,2.625-1.075
		c1.975,0,3.175,1.25,3.6,3.051h2.75c-0.625-3.551-3.075-5.476-6.35-5.476c-1.85,0-3.45,0.675-4.675,1.9
		c-1.75,1.75-1.725,3.725-1.725,7.149c0,3.426-0.025,5.4,1.725,7.15c1.225,1.225,2.825,1.9,4.675,1.9
		C22.381,60.661,24.906,58.735,25.506,55.186"/>
</g>
</svg>
