<?xml version="1.0" encoding="utf-8"?>
<!-- Generator: Adobe Illustrator 15.1.0, SVG Export Plug-In . SVG Version: 6.00 Build 0)  -->
<!DOCTYPE svg PUBLIC "-//W3C//DTD SVG 1.1//EN" "http://www.w3.org/Graphics/SVG/1.1/DTD/svg11.dtd">
<svg version="1.1" id="Ebene_1" xmlns="http://www.w3.org/2000/svg" xmlns:xlink="http://www.w3.org/1999/xlink" x="0px" y="0px"
	 width="501.965px" height="501.891px" viewBox="0 0 501.965 501.891" enable-background="new 0 0 501.965 501.891"
	 xml:space="preserve">
<path fill="#878787" d="M311.757,114.606c-5.544-22.234-28.063-35.766-50.298-30.222c-9.788,2.441-17.887,8.173-23.416,15.72
	c32.47,7.317,57.975,24.268,68.628,46.529C312.428,137.421,314.593,125.979,311.757,114.606z"/>
<path fill="#878787" d="M298.102,164.55c-5.999-24.064-30.126-38.769-53.889-32.843c-23.762,5.925-38.162,30.234-32.162,54.298
	c5.999,24.063,30.126,38.767,53.889,32.843C289.703,212.923,304.102,188.613,298.102,164.55z M256.323,193.145
	c-7.783,1.94-15.667-2.796-17.607-10.58c-1.941-7.785,2.796-15.668,10.58-17.608c7.784-1.941,15.668,2.796,17.607,10.58
	C268.844,183.32,264.106,191.204,256.323,193.145z"/>
<path fill="#878787" d="M210.412,192.999c-5.545-22.241-27.845-35.831-49.807-30.355c-21.962,5.477-35.271,27.944-29.726,50.185
	c5.545,22.239,27.844,35.831,49.806,30.354C202.649,237.707,215.957,215.239,210.412,192.999z M184.664,217.913
	c-7.784,1.94-15.667-2.796-17.608-10.58s2.796-15.667,10.58-17.608c7.784-1.94,15.668,2.796,17.608,10.58
	S192.448,215.973,184.664,217.913z"/>
<path fill="#878787" d="M493.827,265.464l8.136-10.048l-7.779-10.326l7.266-10.693l-8.616-9.638l6.348-11.261l-9.394-8.884
	l5.382-11.755l-10.104-8.065l4.379-12.165l-10.742-7.192l3.346-12.489l-11.308-6.268l2.289-12.724l-11.792-5.302l1.216-12.869
	l-12.193-4.297l0.134-12.926l-12.51-3.261l-0.948-12.893l-12.738-2.201l-2.023-12.77l-12.878-1.128l-3.085-12.554l-12.929-0.047
	l-4.125-12.252l-12.887,1.036l-5.135-11.864L358.38,32.74l-6.11-11.393l-12.532,3.17l-7.042-10.841l-12.225,4.208L312.546,7.67
	l-11.829,5.216l-8.752-9.515l-11.352,6.188l-9.518-8.75l-10.793,7.115L250.088,0l-10.16,7.994l-10.843-7.04l-9.456,8.815
	l-11.395-6.107l-8.685,9.575l-11.865-5.133l-7.853,10.27l-12.253-4.122l-6.967,10.891l-12.555-3.083l-6.031,11.436l-12.769-2.021
	l-5.052,11.899l-12.895-0.945l-4.039,12.281l-12.927,0.136l-2.997,12.576l-12.871,1.218l-1.934,12.782l-12.724,2.291l-0.857,12.899
	l-12.487,3.348l0.225,12.925l-12.163,4.381l1.305,12.862l-11.754,5.382l2.377,12.708l-11.263,6.347l3.432,12.465l-10.691,7.268
	l4.462,12.133l-10.046,8.137l5.463,11.717l-9.329,8.949l6.424,11.22l-8.549,9.697l7.34,10.644L0,257.171l8.205,9.991l-6.813,10.985
	l9.012,9.271l-5.867,11.52l9.756,8.483L9.41,319.39l10.431,7.637l-3.864,12.336l11.034,6.737l-2.819,12.617l11.56,5.79
	l-1.753,12.808L46,382.117l-0.675,12.909l12.362,3.78l0.407,12.922l12.636,2.733l1.487,12.842l12.82,1.667l2.556,12.672
	l12.915,0.588l3.608,12.414l12.918-0.495l4.635,12.068l12.831-1.573l5.628,11.639l12.655-2.644l6.582,11.128l12.389-3.692
	l7.49,10.536l12.037-4.715l8.346,9.873l11.6-5.706l9.143,9.141l11.082-6.656l9.875,8.343l10.484-7.562l10.539,7.487l9.817-8.411
	l11.128,6.579l9.078-9.204l11.64,5.625l8.276-9.932l12.069,4.632l7.416-10.589l12.415,3.605l6.504-11.173l12.673,2.555l5.548-11.679
	l12.842,1.484l4.55-12.102l12.921,0.404l3.521-12.438l12.91-0.679l2.469-12.689l12.808-1.756l1.397-12.853l12.615-2.82l0.317-12.925
	l12.336-3.866l-0.766-12.906l11.969-4.886l-1.842-12.796l11.518-5.87l-2.906-12.598l10.986-6.813l-3.95-12.31l10.378-7.709
	l-4.968-11.936l9.696-8.551l-5.948-11.479l8.947-9.332L493.827,265.464z M203.388,457.988l-9.857-39.535l-0.347,0.087l-12.842-51.51
	l164.08-40.908l11.007,44.147l49.302-12.292l11.693,46.896L203.388,457.988z M423.517,270.583
	c-0.896,8.512-5.672,15.663-12.376,19.921c5.672,5.559,8.858,13.547,7.964,22.059c-1.555,14.799-14.813,25.535-29.612,23.98
	c-14.798-1.557-25.534-14.813-23.979-29.613c0.128-1.214,0.355-2.391,0.635-3.545l-91.981-9.668
	c-8.896,5.343-18.718,9.484-29.311,12.126c-7.603,1.895-15.218,2.916-22.742,3.145l-63.651,42.935
	c0.789,0.888,1.542,1.82,2.225,2.833c8.321,12.337,5.066,29.083-7.271,37.404c-12.336,8.32-29.083,5.064-37.404-7.271
	c-4.786-7.096-5.723-15.645-3.324-23.216c-7.919-0.612-15.494-4.685-20.279-11.779c-8.321-12.337-5.067-29.083,7.27-37.405
	c12.337-8.32,29.083-5.065,37.404,7.271c0.683,1.012,1.266,2.06,1.794,3.124l35.17-23.723
	c-10.333-4.775-19.882-11.159-28.242-18.936l-50.383-5.296c0.034,1.189,0.011,2.386-0.117,3.6
	c-1.555,14.8-14.813,25.534-29.612,23.98c-14.799-1.554-25.536-14.813-23.979-29.612c0.894-8.512,5.672-15.664,12.376-19.921
	c-5.672-5.559-8.858-13.548-7.964-22.06c1.556-14.799,14.813-25.535,29.612-23.979c14.8,1.556,25.535,14.813,23.979,29.612
	c-0.127,1.214-0.354,2.391-0.634,3.546l20.522,2.157c-1.893-4.662-3.499-9.501-4.752-14.524c-1.9-7.625-2.91-15.26-3.138-22.807
	c-16.077-5.482-29.133-18.748-33.549-36.456c-1.024-4.108-1.514-8.221-1.535-12.274l-9.067-1.638l9.229-2.688
	c0.162-2.056,0.438-4.089,0.841-6.089l-9.93-4.681l11.175-0.242c0.377-1.232,0.809-2.444,1.274-3.642l-10.811-9.15l13.503,3.307
	c0.564-1.044,1.176-2.059,1.809-3.061l-10.267-8.091l13.999,2.914c0.761-0.928,1.551-1.832,2.376-2.708l-7.112-9.522l11.195,5.646
	c1.206-1.027,2.455-2.008,3.76-2.926l-4.437-11.116l9.152,8.172c3.856-2.13,8.047-3.806,12.524-4.922
	c15.091-3.763,30.28-0.466,42.109,7.781c10.337-7.143,22.099-12.592,35.011-15.811c12.155-3.031,24.339-3.833,36.138-2.706
	c6.901-9.886,17.258-17.425,29.876-20.57c3.205-0.799,6.413-1.272,9.592-1.453l1.811-12.499l4.174,12.516
	c1.142,0.068,2.274,0.186,3.401,0.33l6.338-15.55l0.686,16.952c0.499,0.135,0.986,0.299,1.479,0.448l13.154-16.769l-5.232,19.89
	c0.716,0.354,1.43,0.708,2.127,1.096l11.229-13.268l-4.365,17.827c0.23,0.181,0.472,0.35,0.7,0.535l12.651-8.781l-7.467,13.606
	c0.318,0.34,0.652,0.665,0.964,1.015l14.026-6.388l-9.854,11.749c3.287,4.873,5.796,10.391,7.3,16.424
	c3.664,14.693,0.645,29.486-7.13,41.175c3.558,7.037,6.419,14.56,8.407,22.535c1.735,6.956,2.709,13.918,3.045,20.815l21.824-14.72
	c-1.466-1.366-2.807-2.912-3.976-4.645c-8.322-12.336-5.065-29.083,7.271-37.404c12.337-8.321,29.083-5.066,37.405,7.271
	c4.785,7.097,5.722,15.645,3.323,23.217c7.919,0.611,15.493,4.683,20.279,11.778c8.321,12.337,5.065,29.083-7.272,37.405
	c-12.337,8.321-29.083,5.066-37.404-7.271c-0.21-0.312-0.372-0.641-0.568-0.957l-49.869,33.638
	c-2.626,5.952-5.754,11.669-9.402,17.047l62.183,6.536c-0.033-1.188-0.011-2.386,0.117-3.601
	c1.554-14.799,14.813-25.534,29.611-23.979C414.336,242.525,425.073,255.783,423.517,270.583z"/>
<path fill="#CFCFCF" d="M423.517,270.583c1.556-14.8-9.181-28.059-23.979-29.613c-14.798-1.555-28.058,9.181-29.611,23.979
	c-0.128,1.215-0.15,2.412-0.117,3.601l-62.183-6.536c3.648-5.378,6.776-11.095,9.402-17.047l49.869-33.638
	c0.196,0.316,0.358,0.646,0.568,0.957c8.321,12.337,25.067,15.592,37.404,7.271c12.338-8.322,15.594-25.068,7.272-37.405
	c-4.786-7.096-12.36-11.167-20.279-11.778c2.398-7.572,1.462-16.12-3.323-23.217c-8.322-12.337-25.068-15.592-37.405-7.271
	c-12.336,8.321-15.593,25.068-7.271,37.404c1.169,1.732,2.51,3.278,3.976,4.645l-21.824,14.72
	c-0.336-6.897-1.31-13.859-3.045-20.815c-1.988-7.976-4.85-15.498-8.407-22.535c7.774-11.688,10.794-26.481,7.13-41.175
	c-1.504-6.033-4.013-11.551-7.3-16.424l9.854-11.749l-14.026,6.388c-0.312-0.35-0.646-0.675-0.964-1.015l7.467-13.606l-12.651,8.781
	c-0.229-0.186-0.47-0.354-0.7-0.535l4.365-17.827l-11.229,13.268c-0.697-0.388-1.411-0.741-2.127-1.096l5.232-19.89L286.46,75.193
	c-0.493-0.149-0.98-0.313-1.479-0.448l-0.686-16.952l-6.338,15.55c-1.127-0.145-2.26-0.262-3.401-0.33l-4.174-12.516l-1.811,12.499
	c-3.179,0.181-6.387,0.654-9.592,1.453c-12.618,3.146-22.975,10.685-29.876,20.57c-11.799-1.127-23.982-0.325-36.138,2.706
	c-12.912,3.219-24.674,8.668-35.011,15.811c-11.829-8.247-27.019-11.544-42.109-7.781c-4.478,1.116-8.668,2.792-12.524,4.922
	l-9.152-8.172l4.437,11.116c-1.305,0.918-2.554,1.898-3.76,2.926L83.651,110.9l7.112,9.522c-0.825,0.876-1.615,1.78-2.376,2.708
	l-13.999-2.914l10.267,8.091c-0.633,1.002-1.244,2.017-1.809,3.061l-13.503-3.307l10.811,9.15c-0.466,1.197-0.897,2.409-1.274,3.642
	l-11.175,0.242l9.93,4.681c-0.402,2-0.679,4.033-0.841,6.089l-9.229,2.688l9.067,1.638c0.021,4.054,0.511,8.166,1.535,12.274
	c4.416,17.708,17.472,30.974,33.549,36.456c0.228,7.547,1.237,15.182,3.138,22.807c1.253,5.023,2.859,9.862,4.752,14.524
	l-20.522-2.157c0.279-1.155,0.507-2.332,0.634-3.546c1.556-14.799-9.18-28.057-23.979-29.612
	c-14.799-1.556-28.057,9.181-29.612,23.979c-0.895,8.512,2.292,16.501,7.964,22.06c-6.704,4.257-11.482,11.409-12.376,19.921
	c-1.557,14.799,9.181,28.059,23.979,29.612c14.8,1.554,28.058-9.181,29.612-23.98c0.128-1.214,0.151-2.41,0.117-3.6l50.383,5.296
	c8.36,7.776,17.909,14.16,28.242,18.936l-35.17,23.723c-0.528-1.064-1.111-2.112-1.794-3.124
	c-8.321-12.337-25.067-15.592-37.404-7.271c-12.337,8.322-15.591,25.068-7.27,37.405c4.785,7.095,12.36,11.167,20.279,11.779
	c-2.398,7.571-1.462,16.12,3.324,23.216c8.321,12.336,25.068,15.592,37.404,7.271c12.337-8.321,15.592-25.067,7.271-37.404
	c-0.683-1.013-1.436-1.945-2.225-2.833l63.651-42.935c7.524-0.229,15.14-1.25,22.742-3.145c10.593-2.642,20.414-6.783,29.311-12.126
	l91.981,9.668c-0.279,1.154-0.507,2.331-0.635,3.545c-1.555,14.8,9.182,28.057,23.979,29.613c14.8,1.555,28.058-9.182,29.612-23.98
	c0.895-8.512-2.292-16.5-7.964-22.059C417.845,286.246,422.621,279.095,423.517,270.583z M265.94,218.848
	c-23.763,5.924-47.89-8.78-53.889-32.843c-6-24.063,8.4-48.373,32.162-54.298c23.763-5.926,47.89,8.778,53.889,32.843
	C304.102,188.613,289.703,212.923,265.94,218.848z M180.686,243.183c-21.962,5.477-44.261-8.115-49.806-30.354
	c-5.545-22.24,7.764-44.708,29.726-50.185c21.962-5.476,44.262,8.114,49.807,30.355
	C215.957,215.239,202.649,237.707,180.686,243.183z M238.043,100.104c5.529-7.547,13.628-13.278,23.416-15.72
	c22.234-5.544,44.754,7.987,50.298,30.222c2.836,11.373,0.671,22.815-5.086,32.027C296.018,124.371,270.513,107.421,238.043,100.104
	z M239.378,260.317l0.006,0.017l-0.033,0.01l-0.025,0.021l-0.011-0.012l-23.659,6.942l-1.522-3.944l21.034-6.172l-6.632-11.964
	c-4.37,1.309-9.213-0.54-11.515-4.693c-2.657-4.792-0.925-10.831,3.867-13.486c4.792-2.657,10.831-0.926,13.487,3.866
	c2.303,4.154,1.305,9.239-2.121,12.252l6.632,11.965l16.379-14.567l2.538,3.381L239.378,260.317z"/>
<g>
	<path fill="#CFCFCF" d="M277.945,364.729c2.396-0.598,3.358-2.692,2.898-4.542c-0.461-1.848-2.295-3.248-4.692-2.647l-4.943,1.23
		l1.793,7.192L277.945,364.729z"/>
	<path fill="#CFCFCF" d="M275.602,405.785c-1.097-0.999-2.496-1.499-4.691-0.952l-3.847,0.959l4.98,19.976l3.846-0.959
		c2.197-0.547,3.196-1.646,3.697-3.043c0.45-1.173,0.463-2.184-1.044-8.227C277.049,407.546,276.55,406.609,275.602,405.785z"/>
	<path fill="#CFCFCF" d="M358.65,385.079c-1.096-1-2.494-1.5-4.691-0.952l-3.846,0.959l4.98,19.976l3.845-0.959
		c2.197-0.548,3.197-1.646,3.697-3.043c0.45-1.174,0.463-2.185-1.043-8.227C360.097,386.84,359.599,385.902,358.65,385.079z"/>
	<path fill="#CFCFCF" d="M404.731,357.977l-49.302,12.292l-11.007-44.147l-164.08,40.908l12.842,51.51l0.347-0.087l9.857,39.535
		l213.036-53.114L404.731,357.977z M318.442,338.665l1.943,7.791l-8.741,2.178l6.923,27.766l-8.738,2.181l-6.923-27.768
		l-8.739,2.181l-1.942-7.791L318.442,338.665z M274.595,349.597c7.891-1.967,13.53,2.568,14.987,8.411
		c1.208,4.843-1.03,8.637-3.479,10.731l11.39,12.915l-10.139,2.529l-9.592-11.665l-2.946,0.735l3.301,13.232l-8.739,2.181
		l-8.866-35.559L274.595,349.597z M233.196,359.921l5.702,22.872c0.822,3.295,3.094,4.746,5.99,4.021
		c2.896-0.722,4.321-3.093,3.499-6.389l-5.703-22.872l8.74-2.179l5.752,23.07c1.943,7.791-2.955,14.317-10.346,16.161
		c-7.392,1.842-14.68-1.645-16.621-9.435l-5.753-23.072L233.196,359.921z M248.675,408.414l-8.19,2.042l-1.557-6.242l8.19-2.042
		L248.675,408.414z M195.429,388.219c-1.332-5.343-2.727-10.3,0.085-14.98c1.949-3.242,4.747-5.427,8.892-6.461
		c6.742-1.68,13.119,0.708,16.372,8.227l-8.889,2.216c-1.047-1.861-2.594-3.385-5.491-2.662c-1.598,0.398-2.635,1.345-3.071,2.357
		c-0.538,1.248-0.776,2.633,0.843,9.126c1.619,6.491,2.479,7.602,3.54,8.453c0.86,0.687,2.221,1.035,3.818,0.639
		c2.897-0.722,3.548-2.794,3.599-4.929l8.89-2.218c0.656,8.164-3.853,13.269-10.595,14.948c-4.146,1.033-7.641,0.419-10.885-1.53
		C197.857,398.593,196.762,393.562,195.429,388.219z M230.839,444.316l-11.826-12.541l-2.137,4.193l2.776,11.137l-8.64,2.154
		l-8.865-35.557l8.64-2.155l3.138,12.585l7.15-15.15l10.687-2.664l-8.549,17.408l17.813,18.05L230.839,444.316z M247.868,440.07
		l-6.438-25.817l8.19-2.042l6.438,25.817L247.868,440.07z M287.147,426.564c-1.837,3.058-5.021,4.965-8.717,5.888l-13.184,3.286
		l-8.865-35.557l13.184-3.288c3.696-0.921,7.403-0.73,10.461,1.105c5.18,3.11,5.861,7.768,7.258,13.36
		C288.677,416.953,290.26,421.386,287.147,426.564z M310.468,424.779c-5.443,1.358-10.137,1.468-14.654-1.332l4.198-6.986
		c2.309,1.387,5.716,1.227,8.563,0.517c3.445-0.858,4.809-2.418,4.297-4.466c-0.211-0.849-0.585-1.498-1.223-1.923
		c-0.561-0.337-1.396-0.5-2.583-0.364l-4.444,0.472c-3.258,0.335-5.917-0.114-7.925-1.364c-2.072-1.287-3.47-3.485-4.229-6.531
		c-1.619-6.493,2.092-12.457,10.184-14.474c5.094-1.271,9.237-1.03,13.044,1.257l-4.124,6.861c-2.809-1.687-5.718-0.803-7.266-0.417
		c-3.046,0.762-3.859,2.819-3.473,4.367c0.111,0.451,0.423,1.063,1.108,1.476c0.563,0.337,1.424,0.6,2.71,0.438l4.443-0.471
		c3.309-0.35,5.854,0.078,7.727,1.203c2.359,1.375,3.769,3.835,4.589,7.131C323.217,417.412,317.958,422.913,310.468,424.779z
		 M340.483,351.206l1.918,7.688l-13.104,3.27l-1.917-7.691L340.483,351.206z M330.367,419.501l-2.241-8.989l8.989-2.241l2.24,8.989
		L330.367,419.501z M370.197,405.858c-1.837,3.059-5.022,4.965-8.718,5.888l-13.184,3.287l-8.866-35.559l13.185-3.287
		c3.695-0.921,7.402-0.731,10.46,1.105c5.18,3.11,5.861,7.767,7.257,13.36C371.726,396.247,373.308,400.679,370.197,405.858z
		 M373.19,371.057l24.172-6.026l1.941,7.79l-15.432,3.85l1.48,5.941l13.186-3.285l1.941,7.788l-13.184,3.287l1.556,6.243
		l15.433-3.848l1.941,7.791l-24.17,6.027L373.19,371.057z"/>
</g>
<path fill="#CFCFCF" d="M195.244,200.305c-1.112-4.461-4.181-7.913-8.06-9.689c-2.55,2.26-3.818,5.795-2.936,9.33
	c1.231,4.94,6.147,7.963,11.088,6.93C195.792,204.77,195.801,202.536,195.244,200.305z"/>
<path fill="#CFCFCF" d="M266.903,175.536c-1.394-5.592-5.858-9.594-11.146-10.695c1.067,0.224,2.104,0.557,3.087,1.007
	c-2.551,2.258-3.818,5.794-2.938,9.329c1.232,4.941,6.147,7.962,11.089,6.929C267.45,180.001,267.459,177.767,266.903,175.536z"/>
</svg>
