<?xml version="1.0" encoding="utf-8"?>
<!DOCTYPE svg PUBLIC "-//W3C//DTD SVG 1.0//EN" "http://www.w3.org/TR/2001/REC-SVG-20010904/DTD/svg10.dtd">
<svg version="1.0" id="Ebene_1" xmlns="http://www.w3.org/2000/svg" xmlns:xlink="http://www.w3.org/1999/xlink" x="0px" y="0px"
	 width="100px" height="79.126px" viewBox="0 0 100 79.126" enable-background="new 0 0 100 79.126" xml:space="preserve">
<g>
	<defs>
		<path id="SVGID_1_" d="M9.866,19.246c1.788-0.141,3.53-0.258,5.224-0.353c-0.095,2.307-0.165,5.13-0.212,8.472
			c-1.318,0.047-3.035,0.071-5.153,0.071C9.818,24.659,9.866,21.929,9.866,19.246 M7.8,0C7.601,0,7.407,0.05,7.219,0.15
			c-0.401,0.212-0.6,0.577-0.6,1.095C6.76,6.751,6.83,11.811,6.83,16.422c-1.883,0.188-3.741,0.377-5.577,0.565
			c-0.518,0.095-0.882,0.365-1.094,0.812C0.055,18.02,0.002,18.233,0,18.442v0.021c0.002,0.208,0.055,0.41,0.159,0.606
			c0.211,0.4,0.576,0.6,1.094,0.6c1.93-0.094,3.788-0.188,5.577-0.283c-0.047,2.778-0.095,5.46-0.141,8.048
			c-2.071,0-3.812,0.047-5.224,0.141c-0.612,0.141-0.965,0.6-1.059,1.376c-0.095,0.776,0.188,1.212,0.847,1.306
			c1.554,0.236,3.318,0.353,5.295,0.353c-0.141,3.483-0.33,6.872-0.564,10.166c-0.048,0.847,0.376,1.329,1.271,1.447
			c0.894,0.117,1.458-0.224,1.694-1.024c0.046-0.094,0.106-0.258,0.176-0.494c0.071-0.235,0.129-0.423,0.177-0.564
			c0.141-0.47,0.094-0.871-0.142-1.2c0.188-2.824,0.354-5.577,0.494-8.26c0.235,0,0.505-0.011,0.812-0.035
			c0.306-0.023,0.565-0.035,0.776-0.035h0.883c0.8,0,1.694-0.023,2.683-0.071c-0.141,5.13-0.236,8.895-0.282,11.295h0.07
			c-0.047,0.611,0.177,1.046,0.671,1.306c0.494,0.258,1.011,0.258,1.553,0c0.541-0.26,0.812-0.695,0.812-1.306
			c0-0.894,0.023-1.859,0.071-2.895c0.046-1.035,0.082-1.964,0.106-2.789c0.023-0.823,0.046-1.811,0.07-2.965
			c0.023-1.153,0.059-2.083,0.106-2.789c0.141-0.046,0.376-0.071,0.706-0.071c0.283,0,0.717-0.023,1.306-0.07
			c0.588-0.046,1.024-0.094,1.306-0.141c1.224,0,1.953-0.023,2.188-0.071c0.235,0.141,0.494,0.212,0.777,0.212h0.282
			c0.517,0.047,0.964-0.212,1.341-0.777c0.046,0,0.071-0.046,0.071-0.141l0.07-0.071c0.47-0.706,0.399-1.317-0.212-1.835
			c-0.519-0.47-1.153-0.729-1.906-0.777c-0.424,0-0.918,0.012-1.483,0.035c-0.564,0.024-1.012,0.048-1.341,0.071
			c-0.33,0.024-0.872,0.083-1.624,0.176c-0.753,0.095-1.225,0.166-1.412,0.212c0.046-1.553,0.082-3.023,0.105-4.412
			c0.023-1.388,0.059-2.764,0.106-4.13c2.118-0.188,4.211-0.376,6.283-0.565c0.611-0.046,1.047-0.329,1.306-0.847
			c0.258-0.517,0.258-1.011,0-1.482c-0.259-0.47-0.694-0.706-1.306-0.706c-2.118,0.142-4.189,0.283-6.212,0.424
			c0.046-2.353,0.07-4.647,0.07-6.883v-6.6c-0.095-0.848-0.553-1.259-1.376-1.236c-0.824,0.024-1.26,0.436-1.306,1.236
			c-0.236,4.094-0.424,8.66-0.565,13.695c-1.789,0.188-3.554,0.353-5.295,0.494c-0.047-1.647-0.095-3.294-0.141-4.942
			C9.677,9.551,9.619,7.904,9.548,6.257C9.478,4.61,9.372,2.963,9.23,1.315C9.183,0.797,8.936,0.421,8.489,0.186
			C8.254,0.062,8.025,0,7.803,0H7.8z"/>
	</defs>
	<use xlink:href="#SVGID_1_"  overflow="visible" fill="#936037"/>
	<clipPath id="SVGID_2_">
		<use xlink:href="#SVGID_1_"  overflow="visible"/>
	</clipPath>
</g>
<path fill="#12212B" d="M39.769,43.464h-4.527v-5.051h2.821l0.312-0.902h-3.133v-3.854h4.56v-0.853h-5.478v11.48h5.445V43.464z
	 M31.191,32.804h-2.018v0.804l1.099,0.033v10.644h0.919V32.804z M23.697,43.464h-2.23v-9.84h2.329c0.722,0,1.355,0.224,1.902,0.672
	c0.547,0.449,0.82,1.132,0.82,2.05v4.822C26.518,42.699,25.578,43.464,23.697,43.464 M27.437,41.004V36.51
	c0-1.125-0.326-2.028-0.976-2.706c-0.65-0.678-1.593-1.017-2.829-1.017h-3.083v11.497h3.411
	C26.277,44.284,27.437,43.191,27.437,41.004"/>
<path fill="#936037" d="M35.336,45.25v1.375l1.88,0.056v18.214h1.572V45.25H35.336z M57.816,45.25v1.375l1.88,0.056v18.214h1.572
	V45.25H57.816z M63.581,45.25v1.403h4.771v18.243h1.572V46.653h4.939V45.25H63.581z M80.242,47.692l2.807,8.784H77.52L80.242,47.692
	z M79.513,45.25l-6.287,19.646h1.655l2.189-6.876h6.399l2.245,6.876h1.684L81,45.25H79.513z M89.869,45.25v19.646H100v-1.403h-8.56
	V45.25H89.869z M22.12,46.653h3.985c1.234,0,2.319,0.384,3.255,1.151c0.936,0.768,1.403,1.937,1.403,3.508v8.251
	c0,2.62-1.609,3.929-4.827,3.929H22.12V46.653z M20.548,45.222v19.674h5.837c3.966,0,5.95-1.871,5.95-5.613v-7.69
	c0-1.927-0.557-3.47-1.67-4.63s-2.727-1.74-4.841-1.74H20.548z M45.991,45.699c-1.628,0.992-2.441,2.685-2.441,5.08v8.812
	c0,1.853,0.575,3.247,1.726,4.182c1.15,0.936,2.572,1.403,4.266,1.403s3.026-0.478,4-1.432l0.393,1.151h1.15v-8.42h-3.873
	l0.533,1.544h1.853v1.656c0,1.198-0.375,2.161-1.123,2.891c-0.749,0.73-1.754,1.095-3.017,1.095c-1.263,0-2.302-0.355-3.116-1.066
	c-0.813-0.711-1.221-1.693-1.221-2.947v-9.121c0-2.75,1.459-4.125,4.378-4.125c0.954,0,1.964,0.196,3.031,0.589l0.449-1.066
	c-1.216-0.618-2.545-0.926-3.985-0.926C47.834,44.998,46.833,45.232,45.991,45.699"/>
<path fill="#12212B" d="M96.769,66.992H100v-0.918h-7.38v0.918h3.121v11.933h1.028V66.992z M89.389,66.992h3.231v-0.918h-7.379
	v0.918h3.121v11.933h1.028V66.992z M79.452,73.417l1.78-5.746l1.836,5.746H79.452z M81.728,66.074h-0.973l-4.112,12.851h1.083
	l1.432-4.498h4.186l1.468,4.498h1.102L81.728,66.074z M74.403,66.992h3.231v-0.918h-7.38v0.918h3.121v11.933h1.028V66.992z
	 M62.86,78.07c0.765,0.704,1.854,1.056,3.268,1.056s2.478-0.34,3.194-1.019c0.716-0.68,1.074-1.582,1.074-2.708
	c0-0.587-0.135-1.107-0.404-1.561c-0.27-0.453-0.618-0.811-1.046-1.074c-0.429-0.263-0.906-0.499-1.432-0.707
	c-0.526-0.208-1.05-0.397-1.57-0.569c-0.521-0.171-0.995-0.355-1.423-0.551c-0.967-0.441-1.45-1.052-1.45-1.836
	c0-0.697,0.281-1.242,0.844-1.634c0.563-0.391,1.294-0.587,2.194-0.587s1.698,0.178,2.396,0.533
	c0.208-0.624,0.313-0.948,0.313-0.973c-0.771-0.367-1.665-0.551-2.68-0.551c-1.334,0-2.356,0.312-3.066,0.936
	c-0.71,0.625-1.065,1.365-1.065,2.222c0,0.649,0.181,1.206,0.542,1.67c0.361,0.465,0.811,0.814,1.349,1.046s1.123,0.468,1.753,0.707
	s1.214,0.462,1.753,0.67c0.539,0.208,0.988,0.511,1.35,0.909c0.361,0.398,0.542,0.878,0.542,1.441c0,0.918-0.318,1.588-0.955,2.01
	s-1.42,0.633-2.35,0.633c-0.93,0-1.692-0.251-2.286-0.753c-0.594-0.501-0.921-1.077-0.982-1.726h-1.046
	C61.7,76.563,62.095,77.367,62.86,78.07 M56.713,71.618l3.763-5.562h-1.193l-4.112,6.131v-6.131h-1.028v12.869h1.028v-4.938
	l0.881-1.395l4.149,6.333h1.23L56.713,71.618z M44.383,67.047h3.561c0.722,0,1.294,0.245,1.717,0.734
	c0.422,0.489,0.633,1.229,0.633,2.221c0,0.673-0.049,1.224-0.146,1.652c-0.074,0.379-0.184,0.679-0.331,0.899
	c-0.146,0.221-0.374,0.42-0.679,0.597c-0.306,0.178-0.679,0.267-1.12,0.267h-3.635V67.047z M49.707,74.059
	c0.478-0.257,0.845-0.651,1.102-1.184c0.257-0.532,0.407-1,0.45-1.404s0.064-0.893,0.064-1.468c0-1.199-0.285-2.154-0.854-2.864
	c-0.569-0.71-1.435-1.065-2.598-1.065h-4.516v12.851h1.028v-4.498H48c0.269,0,0.514-0.018,0.734-0.055l1.56,4.553h1.046
	L49.707,74.059z M41.122,78.006h-5.066v-5.654h3.157l0.349-1.009h-3.506v-4.314h5.104v-0.955h-6.131v12.851h6.094V78.006z
	 M33.198,66.074h-1.102l-2.588,11.583l-1.964-11.583h-1.432l-1.964,11.583l-2.625-11.583h-1.101l3.029,12.851h1.56l1.818-10.997
	l1.817,10.997h1.56L33.198,66.074z"/>
</svg>
