<?xml version="1.0" encoding="utf-8"?>
<!-- Generator: Adobe Illustrator 15.1.0, SVG Export Plug-In . SVG Version: 6.00 Build 0)  -->
<!DOCTYPE svg PUBLIC "-//W3C//DTD SVG 1.0//EN" "http://www.w3.org/TR/2001/REC-SVG-20010904/DTD/svg10.dtd">
<svg version="1.0" id="Ebene_1" xmlns="http://www.w3.org/2000/svg" xmlns:xlink="http://www.w3.org/1999/xlink" x="0px" y="0px"
	 width="100px" height="35.599px" viewBox="0 0 100 35.599" enable-background="new 0 0 100 35.599" xml:space="preserve">
<g>
	<polygon fill="#D5B503" points="38.222,13.766 43.113,13.766 43.113,15.922 41.758,15.922 41.758,15.034 40.261,15.034 
		40.261,16.364 41.558,16.364 41.558,17.577 40.261,17.577 40.261,18.945 40.928,18.945 40.928,20.087 38.222,20.087 38.222,18.945 
		38.876,18.945 38.876,15.034 38.222,15.034 	"/>
	<path fill="#D5B503" d="M46.445,20.2c-0.286,0-0.56-0.039-0.821-0.117s-0.505-0.188-0.732-0.33
		c-0.227-0.142-0.432-0.312-0.617-0.511s-0.342-0.42-0.473-0.663s-0.232-0.504-0.305-0.782s-0.108-0.568-0.108-0.872
		c0-0.303,0.036-0.594,0.108-0.874s0.174-0.541,0.305-0.784c0.131-0.243,0.288-0.464,0.473-0.663
		c0.185-0.199,0.391-0.369,0.617-0.511s0.471-0.251,0.732-0.329c0.261-0.078,0.535-0.117,0.821-0.117
		c0.287,0,0.561,0.039,0.824,0.117c0.263,0.078,0.507,0.188,0.734,0.329s0.432,0.312,0.617,0.511
		c0.185,0.199,0.343,0.42,0.475,0.663c0.132,0.244,0.234,0.505,0.307,0.784s0.108,0.571,0.108,0.874c0,0.3-0.036,0.59-0.108,0.87
		c-0.072,0.279-0.174,0.541-0.307,0.784c-0.132,0.243-0.291,0.464-0.475,0.663c-0.185,0.199-0.391,0.369-0.617,0.511
		c-0.227,0.142-0.471,0.252-0.734,0.33S46.731,20.2,46.445,20.2 M46.445,18.891c0.242,0,0.464-0.052,0.666-0.156
		c0.201-0.104,0.375-0.246,0.519-0.425s0.256-0.388,0.335-0.625c0.08-0.238,0.119-0.49,0.119-0.757c0-0.27-0.041-0.524-0.121-0.763
		c-0.081-0.239-0.194-0.448-0.34-0.627s-0.319-0.321-0.52-0.425c-0.2-0.104-0.419-0.157-0.659-0.157s-0.458,0.052-0.659,0.157
		c-0.2,0.104-0.373,0.246-0.517,0.425s-0.258,0.389-0.34,0.627c-0.082,0.239-0.123,0.494-0.123,0.763
		c0,0.267,0.041,0.519,0.123,0.757s0.195,0.446,0.34,0.625s0.317,0.321,0.517,0.425C45.986,18.839,46.206,18.891,46.445,18.891"/>
	<path fill="#D5B503" d="M53.2,20.2c-0.286,0-0.56-0.039-0.821-0.117s-0.505-0.188-0.732-0.33c-0.227-0.142-0.432-0.312-0.617-0.511
		s-0.343-0.42-0.473-0.663c-0.131-0.243-0.232-0.504-0.305-0.782s-0.108-0.568-0.108-0.872c0-0.303,0.036-0.594,0.108-0.874
		s0.174-0.541,0.305-0.784c0.13-0.243,0.288-0.464,0.473-0.663c0.185-0.199,0.391-0.369,0.617-0.511s0.471-0.251,0.732-0.329
		c0.261-0.078,0.535-0.117,0.821-0.117c0.287,0,0.561,0.039,0.824,0.117c0.263,0.078,0.507,0.188,0.734,0.329
		s0.432,0.312,0.617,0.511c0.185,0.199,0.343,0.42,0.475,0.663c0.132,0.244,0.234,0.505,0.307,0.784s0.108,0.571,0.108,0.874
		c0,0.3-0.036,0.59-0.108,0.87c-0.072,0.279-0.174,0.541-0.307,0.784c-0.132,0.243-0.291,0.464-0.475,0.663
		c-0.185,0.199-0.391,0.369-0.617,0.511c-0.227,0.142-0.471,0.252-0.734,0.33S53.487,20.2,53.2,20.2 M53.2,18.891
		c0.242,0,0.464-0.052,0.665-0.156c0.202-0.104,0.375-0.246,0.52-0.425c0.145-0.179,0.256-0.388,0.335-0.625s0.119-0.49,0.119-0.757
		c0-0.27-0.041-0.524-0.121-0.763c-0.081-0.239-0.194-0.448-0.34-0.627s-0.319-0.321-0.52-0.425c-0.2-0.104-0.419-0.157-0.659-0.157
		s-0.458,0.052-0.659,0.157c-0.2,0.104-0.373,0.246-0.517,0.425s-0.258,0.389-0.34,0.627c-0.082,0.239-0.123,0.494-0.123,0.763
		c0,0.267,0.041,0.519,0.123,0.757c0.082,0.238,0.195,0.446,0.34,0.625s0.317,0.321,0.517,0.425
		C52.742,18.839,52.961,18.891,53.2,18.891"/>
	<path fill="#D5B503" d="M56.966,13.766h2.427c0.289,0,0.566,0.038,0.832,0.112c0.266,0.075,0.513,0.181,0.742,0.317
		c0.229,0.136,0.438,0.3,0.625,0.49s0.348,0.402,0.482,0.636c0.133,0.233,0.236,0.485,0.309,0.755
		c0.072,0.27,0.108,0.55,0.108,0.842s-0.036,0.573-0.108,0.842c-0.073,0.27-0.175,0.522-0.309,0.757
		c-0.134,0.235-0.294,0.449-0.482,0.642c-0.188,0.193-0.396,0.359-0.625,0.497c-0.229,0.137-0.477,0.244-0.742,0.319
		c-0.266,0.075-0.543,0.112-0.832,0.112h-2.427v-1.143h0.504v-4.032h-0.504V13.766z M58.855,14.913v4.032h0.529
		c0.225,0,0.438-0.053,0.638-0.158c0.2-0.106,0.374-0.25,0.521-0.432c0.147-0.182,0.264-0.396,0.351-0.642
		c0.086-0.246,0.129-0.511,0.129-0.794c0-0.281-0.043-0.543-0.129-0.788c-0.086-0.245-0.203-0.458-0.351-0.638
		c-0.147-0.181-0.321-0.322-0.521-0.425c-0.2-0.103-0.413-0.154-0.638-0.154H58.855z"/>
	<polygon fill="#D5B503" points="64.301,18.945 64.956,18.945 64.956,14.871 64.188,14.871 64.188,15.688 62.829,15.688 
		62.829,13.766 68.579,13.766 68.579,15.688 67.211,15.688 67.211,14.871 66.34,14.871 66.34,18.945 67.007,18.945 67.007,20.087 
		64.301,20.087 	"/>
	<path fill="#D5B503" d="M69.18,13.766h3.344c0.325,0,0.616,0.048,0.872,0.146c0.256,0.097,0.471,0.227,0.646,0.39
		c0.175,0.163,0.309,0.352,0.402,0.567c0.093,0.216,0.14,0.44,0.14,0.674c0,0.214-0.023,0.401-0.069,0.563
		c-0.046,0.161-0.113,0.304-0.2,0.429c-0.087,0.125-0.195,0.236-0.323,0.332c-0.128,0.096-0.274,0.183-0.438,0.261
		c0.142,0.072,0.267,0.183,0.375,0.332c0.108,0.148,0.19,0.341,0.246,0.578l0.212,0.821h0.521l0.008,1.23h-1.835l-0.25-1.501
		c-0.025-0.178-0.063-0.332-0.115-0.461c-0.051-0.129-0.12-0.235-0.206-0.317c-0.086-0.082-0.191-0.143-0.315-0.181
		c-0.124-0.039-0.27-0.059-0.439-0.059h-0.538v1.376h0.58v1.143H69.18v-1.143h0.655v-4.032H69.18V13.766z M71.219,14.913v1.53h0.83
		c0.158,0,0.301-0.014,0.427-0.043s0.235-0.075,0.325-0.138s0.16-0.141,0.208-0.236c0.049-0.094,0.073-0.207,0.073-0.337
		c0-0.245-0.087-0.435-0.263-0.571c-0.175-0.136-0.432-0.205-0.771-0.205H71.219z"/>
	<path fill="#D5B503" d="M75.301,13.766h2.535v1.146h-0.58v2.623c0,0.239,0.027,0.442,0.082,0.609s0.13,0.303,0.227,0.409
		c0.097,0.105,0.213,0.183,0.346,0.231c0.133,0.048,0.279,0.073,0.438,0.073c0.164,0,0.313-0.021,0.449-0.063
		c0.135-0.042,0.25-0.113,0.346-0.215c0.096-0.102,0.17-0.237,0.221-0.406c0.051-0.17,0.077-0.382,0.077-0.638v-2.623h-0.671v-1.146
		h2.536v1.146h-0.505v2.46c0,0.445-0.064,0.84-0.191,1.187c-0.128,0.346-0.304,0.639-0.528,0.877
		c-0.224,0.239-0.487,0.421-0.788,0.546c-0.302,0.125-0.625,0.188-0.97,0.188c-0.342,0-0.662-0.062-0.959-0.186
		s-0.557-0.303-0.778-0.538c-0.221-0.235-0.396-0.521-0.523-0.857c-0.128-0.336-0.192-0.717-0.192-1.142v-2.536h-0.571V13.766z"/>
	<path fill="#D5B503" d="M86.21,15.688c-0.156-0.223-0.296-0.38-0.421-0.474c-0.125-0.093-0.26-0.16-0.404-0.2
		c-0.145-0.04-0.296-0.06-0.455-0.06c-0.234,0-0.45,0.052-0.651,0.156c-0.2,0.104-0.373,0.246-0.519,0.425s-0.261,0.388-0.344,0.625
		c-0.083,0.238-0.125,0.49-0.125,0.757c0,0.27,0.041,0.523,0.123,0.761c0.082,0.237,0.195,0.445,0.34,0.623
		c0.145,0.178,0.317,0.319,0.518,0.423c0.2,0.104,0.419,0.156,0.659,0.156c0.167,0,0.322-0.027,0.467-0.081s0.276-0.126,0.394-0.215
		s0.222-0.191,0.311-0.307c0.089-0.115,0.158-0.235,0.208-0.36l1.343,0.375c-0.086,0.272-0.213,0.525-0.38,0.757
		c-0.167,0.232-0.368,0.433-0.603,0.603c-0.235,0.17-0.499,0.303-0.792,0.4c-0.293,0.097-0.61,0.146-0.949,0.146
		c-0.287,0-0.561-0.039-0.822-0.117s-0.505-0.188-0.732-0.33c-0.227-0.142-0.432-0.313-0.617-0.513
		c-0.185-0.2-0.343-0.422-0.474-0.665c-0.13-0.244-0.232-0.505-0.304-0.784s-0.108-0.571-0.108-0.874
		c0-0.453,0.079-0.878,0.238-1.274c0.158-0.396,0.375-0.742,0.65-1.038c0.275-0.296,0.598-0.53,0.969-0.701s0.771-0.257,1.199-0.257
		c0.342,0,0.629,0.042,0.863,0.127c0.234,0.085,0.491,0.252,0.771,0.502h0.934v1.41H86.21z"/>
	<polygon fill="#D5B503" points="88.549,13.766 91.255,13.766 91.255,14.913 90.588,14.913 90.588,16.751 92.611,14.988 
		92.611,13.766 94.767,13.766 94.767,14.996 94.295,14.996 92.189,16.806 94.208,18.849 94.721,18.849 94.721,20.087 92.623,20.087 
		92.623,18.849 90.588,16.814 90.588,18.945 91.255,18.945 91.255,20.087 88.549,20.087 88.549,18.945 89.204,18.945 89.204,14.913 
		88.549,14.913 	"/>
	<path fill="#D5B503" d="M98.49,15.546c-0.014-0.097-0.048-0.189-0.102-0.275c-0.054-0.086-0.124-0.16-0.208-0.223
		s-0.181-0.112-0.288-0.148c-0.107-0.036-0.219-0.054-0.336-0.054c-0.105,0-0.205,0.011-0.296,0.033
		c-0.092,0.022-0.172,0.056-0.24,0.102c-0.068,0.046-0.123,0.105-0.163,0.177c-0.041,0.072-0.061,0.159-0.061,0.258
		c0,0.125,0.027,0.225,0.081,0.298s0.124,0.134,0.208,0.182c0.085,0.047,0.179,0.084,0.282,0.112c0.103,0.028,0.203,0.059,0.3,0.092
		l1.146,0.384c0.159,0.056,0.307,0.132,0.446,0.229c0.139,0.098,0.259,0.216,0.361,0.354c0.101,0.139,0.181,0.299,0.24,0.479
		c0.058,0.181,0.087,0.384,0.087,0.609c0,0.306-0.056,0.585-0.169,0.838c-0.112,0.253-0.271,0.47-0.473,0.65
		c-0.203,0.181-0.446,0.321-0.73,0.421c-0.283,0.1-0.598,0.15-0.942,0.15c-0.242,0-0.47-0.027-0.686-0.082
		c-0.215-0.054-0.412-0.132-0.59-0.235c-0.178-0.103-0.333-0.226-0.467-0.369c-0.134-0.143-0.238-0.305-0.313-0.486h-0.43V17.79
		h1.51v0.259c0,0.125,0.02,0.24,0.061,0.346s0.101,0.197,0.181,0.275c0.081,0.078,0.182,0.138,0.305,0.181
		c0.122,0.043,0.265,0.065,0.429,0.065c0.25,0,0.441-0.058,0.571-0.173c0.131-0.115,0.196-0.276,0.196-0.481
		c0-0.106-0.023-0.194-0.069-0.265c-0.046-0.071-0.105-0.131-0.177-0.18c-0.072-0.048-0.153-0.089-0.242-0.123
		c-0.089-0.033-0.177-0.064-0.263-0.091l-0.955-0.309c-0.181-0.056-0.355-0.134-0.523-0.234s-0.317-0.225-0.446-0.375
		c-0.129-0.15-0.232-0.326-0.309-0.528c-0.076-0.201-0.114-0.432-0.114-0.69c0-0.3,0.056-0.568,0.167-0.803
		c0.111-0.235,0.267-0.433,0.467-0.594c0.2-0.161,0.438-0.284,0.713-0.367c0.275-0.083,0.577-0.125,0.905-0.125
		c0.259,0,0.498,0.03,0.717,0.09c0.22,0.06,0.417,0.14,0.59,0.24s0.321,0.215,0.442,0.344s0.213,0.263,0.277,0.402H100v1.259H98.49
		V15.546z"/>
	<path fill="#656564" d="M38.228,23.229h1.882c0.231,0,0.451,0.03,0.66,0.09s0.404,0.145,0.584,0.253s0.344,0.24,0.49,0.392
		c0.147,0.152,0.272,0.322,0.375,0.509c0.104,0.187,0.183,0.387,0.238,0.602c0.056,0.214,0.083,0.438,0.083,0.669
		c0,0.236-0.028,0.461-0.083,0.677c-0.056,0.215-0.135,0.418-0.238,0.607s-0.229,0.361-0.375,0.516
		c-0.146,0.154-0.31,0.287-0.49,0.397c-0.18,0.11-0.375,0.195-0.584,0.255s-0.429,0.09-0.66,0.09h-1.882v-0.574h0.48v-3.907h-0.48
		V23.229z M39.362,23.806v3.907h0.787c0.234,0,0.454-0.051,0.659-0.154c0.206-0.102,0.385-0.242,0.539-0.418
		c0.154-0.177,0.275-0.385,0.364-0.624c0.089-0.239,0.133-0.497,0.133-0.772c0-0.271-0.044-0.525-0.133-0.761
		s-0.21-0.441-0.364-0.616c-0.153-0.174-0.333-0.312-0.539-0.412s-0.425-0.15-0.659-0.15H39.362z"/>
	<polygon fill="#656564" points="43.323,23.229 46.946,23.229 46.946,24.66 46.262,24.66 46.262,23.806 44.458,23.806 
		44.458,25.424 45.976,25.424 45.976,25.998 44.458,25.998 44.458,27.712 46.262,27.712 46.262,26.858 46.946,26.858 46.946,28.286 
		43.323,28.286 43.323,27.712 43.804,27.712 43.804,23.806 43.323,23.806 	"/>
	<path fill="#656564" d="M47.582,23.229h1.638v0.577h-0.517v2.355c0,0.282,0.032,0.523,0.095,0.722s0.151,0.361,0.264,0.487
		c0.112,0.126,0.246,0.217,0.4,0.275c0.154,0.058,0.324,0.086,0.508,0.086c0.191,0,0.367-0.025,0.527-0.077
		c0.16-0.051,0.297-0.137,0.412-0.258c0.114-0.121,0.204-0.282,0.267-0.484c0.063-0.201,0.095-0.452,0.095-0.752v-2.355h-0.547
		v-0.577h1.638v0.577h-0.45v2.282c0,0.365-0.051,0.688-0.152,0.971c-0.101,0.282-0.24,0.519-0.416,0.71
		c-0.175,0.191-0.382,0.336-0.62,0.435c-0.238,0.099-0.494,0.148-0.768,0.148c-0.267,0-0.516-0.049-0.749-0.146
		c-0.232-0.098-0.435-0.242-0.607-0.431s-0.308-0.419-0.407-0.692c-0.099-0.272-0.148-0.584-0.148-0.936v-2.342h-0.464V23.229z"/>
	<polygon fill="#656564" points="53.955,27.712 54.418,27.712 54.418,23.776 53.264,23.776 53.264,24.563 52.58,24.563 
		52.58,23.229 57.09,23.229 57.09,24.563 56.407,24.563 56.407,23.776 55.072,23.776 55.072,27.712 55.593,27.712 55.593,28.286 
		53.955,28.286 	"/>
	<path fill="#656564" d="M60.258,24.163c-0.071-0.098-0.149-0.173-0.235-0.225c-0.086-0.052-0.18-0.092-0.282-0.12
		c-0.102-0.028-0.205-0.042-0.307-0.042c-0.169,0-0.317,0.02-0.444,0.058c-0.127,0.039-0.232,0.092-0.315,0.159
		c-0.083,0.067-0.146,0.145-0.188,0.233c-0.042,0.089-0.063,0.183-0.063,0.28c0,0.147,0.026,0.265,0.078,0.355
		c0.052,0.09,0.119,0.162,0.199,0.217c0.08,0.054,0.168,0.097,0.265,0.128s0.189,0.062,0.279,0.093l0.673,0.22
		c0.203,0.064,0.381,0.138,0.536,0.22s0.284,0.18,0.389,0.292s0.184,0.242,0.238,0.389c0.055,0.146,0.082,0.317,0.082,0.51
		c0,0.209-0.043,0.402-0.128,0.581c-0.086,0.178-0.205,0.333-0.359,0.463c-0.153,0.131-0.336,0.234-0.549,0.309
		c-0.212,0.075-0.445,0.112-0.699,0.112c-0.26,0-0.482-0.029-0.667-0.088c-0.185-0.059-0.34-0.138-0.465-0.237
		c-0.126-0.099-0.227-0.212-0.302-0.339c-0.076-0.126-0.134-0.257-0.177-0.39h-0.253v-0.574h0.841c0,0.247,0.026,0.421,0.078,0.524
		c0.052,0.102,0.125,0.188,0.219,0.255c0.093,0.068,0.205,0.119,0.333,0.154c0.129,0.034,0.271,0.052,0.427,0.052
		c0.151,0,0.288-0.018,0.409-0.054c0.122-0.035,0.225-0.087,0.311-0.155c0.085-0.068,0.151-0.15,0.197-0.247
		c0.045-0.097,0.068-0.207,0.068-0.329c0-0.136-0.028-0.25-0.085-0.345s-0.13-0.175-0.219-0.242
		c-0.089-0.067-0.186-0.122-0.292-0.164c-0.105-0.042-0.207-0.079-0.305-0.11l-0.73-0.207c-0.16-0.049-0.306-0.111-0.438-0.187
		s-0.246-0.168-0.34-0.277c-0.095-0.109-0.167-0.236-0.219-0.382s-0.077-0.314-0.077-0.505c0-0.194,0.038-0.375,0.113-0.544
		c0.076-0.169,0.187-0.317,0.334-0.443c0.146-0.127,0.326-0.227,0.539-0.299s0.456-0.108,0.729-0.108
		c0.18,0,0.346,0.021,0.499,0.063c0.152,0.042,0.291,0.102,0.414,0.178c0.124,0.077,0.232,0.169,0.327,0.277
		c0.094,0.108,0.174,0.227,0.238,0.355h0.25v0.574h-0.817C60.365,24.407,60.329,24.261,60.258,24.163"/>
	<path fill="#656564" d="M65.467,24.563c-0.149-0.253-0.347-0.453-0.592-0.597c-0.246-0.145-0.52-0.217-0.822-0.217
		c-0.258,0-0.494,0.055-0.708,0.164s-0.396,0.255-0.549,0.438c-0.152,0.184-0.271,0.396-0.355,0.637s-0.127,0.496-0.127,0.762
		c0,0.316,0.047,0.596,0.14,0.839c0.093,0.243,0.215,0.446,0.365,0.607c0.15,0.161,0.329,0.296,0.536,0.404
		c0.207,0.108,0.439,0.162,0.697,0.162c0.351,0,0.657-0.085,0.917-0.255c0.26-0.17,0.482-0.45,0.667-0.839l0.587,0.277
		c-0.084,0.24-0.228,0.472-0.43,0.696c-0.203,0.223-0.452,0.403-0.749,0.541c-0.297,0.137-0.625,0.205-0.986,0.205
		c-0.345,0-0.662-0.065-0.951-0.195s-0.546-0.315-0.772-0.555c-0.226-0.24-0.398-0.525-0.517-0.854
		c-0.119-0.329-0.179-0.672-0.179-1.031c0-0.36,0.06-0.7,0.179-1.021c0.119-0.32,0.286-0.599,0.5-0.836
		c0.215-0.237,0.471-0.423,0.768-0.56c0.297-0.137,0.619-0.206,0.966-0.206c0.309,0,0.576,0.044,0.8,0.132s0.416,0.192,0.572,0.313
		c0.157,0.122,0.292,0.253,0.405,0.396h0.354v0.594H65.467z"/>
	<polygon fill="#656564" points="70.533,23.229 72.174,23.229 72.174,23.802 71.693,23.802 71.693,27.712 72.174,27.712 
		72.174,28.286 70.533,28.286 70.533,27.712 71.04,27.712 71.04,25.894 68.114,25.894 68.114,27.712 68.621,27.712 68.621,28.286 
		66.98,28.286 66.98,27.712 67.46,27.712 67.46,23.802 66.98,23.802 66.98,23.229 68.621,23.229 68.621,23.802 68.114,23.802 
		68.114,25.333 71.04,25.333 71.04,23.802 70.533,23.802 	"/>
	<path fill="#656564" d="M73.196,23.229h1.641v0.577h-0.507v3.907h1.745c0.036,0,0.071-0.009,0.107-0.025
		c0.035-0.017,0.067-0.038,0.097-0.065c0.029-0.027,0.052-0.057,0.07-0.092c0.018-0.034,0.027-0.069,0.027-0.105v-0.637h0.634v1.498
		h-3.813v-0.574h0.48v-3.907h-0.48V23.229z"/>
	<path fill="#656564" d="M80.581,27.712H81l-0.4-1.147h-1.945l-0.391,1.147h0.521v0.574h-1.642v-0.574h0.44l1.575-4.484h0.984
		l1.571,4.484h0.507v0.574h-1.641V27.712z M78.846,26.011h1.561l-0.787-2.262L78.846,26.011z"/>
	<polygon fill="#656564" points="85.93,23.229 87.571,23.229 87.571,23.806 87.141,23.806 87.141,28.286 86.287,28.286 
		83.935,24.093 83.935,27.712 84.455,27.712 84.455,28.286 82.814,28.286 82.814,27.712 83.281,27.712 83.281,23.806 82.8,23.806 
		82.8,23.222 84.162,23.222 86.47,27.375 86.497,27.215 86.497,23.806 85.93,23.806 	"/>
	<path fill="#656564" d="M88.286,23.229h1.882c0.231,0,0.451,0.03,0.661,0.09c0.208,0.06,0.403,0.145,0.583,0.253
		s0.344,0.24,0.49,0.392c0.147,0.152,0.272,0.322,0.375,0.509c0.104,0.187,0.183,0.387,0.238,0.602
		c0.056,0.214,0.083,0.438,0.083,0.669c0,0.236-0.028,0.461-0.083,0.677c-0.056,0.215-0.135,0.418-0.238,0.607
		s-0.229,0.361-0.375,0.516c-0.146,0.154-0.31,0.287-0.49,0.397c-0.18,0.11-0.375,0.195-0.583,0.255
		c-0.209,0.06-0.43,0.09-0.661,0.09h-1.882v-0.574h0.48v-3.907h-0.48V23.229z M89.42,23.806v3.907h0.788
		c0.233,0,0.453-0.051,0.659-0.154c0.206-0.102,0.385-0.242,0.539-0.418c0.154-0.177,0.275-0.385,0.364-0.624
		c0.089-0.239,0.133-0.497,0.133-0.772c0-0.271-0.044-0.525-0.133-0.761s-0.21-0.441-0.364-0.616
		c-0.153-0.174-0.333-0.312-0.539-0.412s-0.425-0.15-0.659-0.15H89.42z"/>
	<path fill="#656564" d="M23.85,10.754l-0.435,0.5l4.814,0.822c0.852-0.156,1.607-0.627,2.267-1.413
		c0.728-0.868,2.149-3.344,4.263-7.429l-0.386-0.324l-4.732,5.639c-0.296,0.354-0.589,0.409-0.878,0.166
		c-0.225-0.189-0.234-0.471-0.029-0.846l0.041-0.048l4.25-6.043l-0.385-0.323l-5.166,5.275l-0.041,0.048
		c-0.334,0.268-0.629,0.293-0.886,0.078c-0.289-0.243-0.286-0.541,0.011-0.894l4.731-5.639L30.902,0
		c-0.307,0.235-0.852,0.64-1.635,1.215s-1.405,1.039-1.866,1.391c-0.46,0.353-0.987,0.801-1.579,1.344
		c-0.593,0.543-1.091,1.056-1.496,1.537c-1.105,1.318-1.293,2.749-0.563,4.292C23.983,10.236,24.012,10.562,23.85,10.754"/>
	<path fill="#D5B503" d="M27.188,28.856c0.212,1.197,1.284,2.107,2.576,2.107c1.443,0,2.614-1.137,2.614-2.541
		c0-0.11-0.008-0.219-0.021-0.325L27.188,28.856z"/>
	<path fill="#656564" d="M8.786,28.907c-0.558,1.514-1.579,1.973-2.452,2.056c-0.626,0.688-1.142,1.249-1.142,1.249
		c-0.377,0.45-0.54,0.97-0.488,1.561c0.041,0.473,0.287,0.897,0.736,1.275c0.482,0.404,0.959,0.586,1.432,0.544
		c0.532-0.047,1-0.311,1.404-0.793c0.123-0.146,1.938-2.518,4.11-5.363L8.786,28.907z"/>
	<path fill="#D5B503" d="M5.783,28.026c0.022-0.167,0.056-0.494,0.056-0.963c0-1.206-0.338-2.487-0.965-2.487
		c-0.627,0-0.965,1.282-0.965,2.487c0,0.992,0.217,1.882,0.551,2.266c0.337,0.409,0.919,0.653,1.557,0.653
		c0.948,0,1.569-0.531,1.909-1.634C7.682,28.31,5.783,28.026,5.783,28.026"/>
	<path fill="#D5B503" d="M22.19,28.814c0,0.239-0.194,1.396-0.5,2.152c-0.298,0.763-1.035,1.002-2.827,1.002h-0.077
		c-1.292,0-2.339-1.575-2.339-3.518s1.048-3.517,2.339-3.517c1.292,0,2.34,1.575,2.34,3.517c0,0.125-0.004,0.242-0.012,0.363H22.19z
		"/>
	<path fill="#D5B503" d="M23.76,31.371c-2.072,1.343-4.541,2.124-7.188,2.124c-1.85,0-3.613-0.382-5.214-1.07
		c-0.422,0.552-0.821,1.074-1.166,1.523c1.939,0.906,4.101,1.414,6.379,1.414c3.108,0,6-0.943,8.405-2.558
		C24.612,32.375,24.207,31.897,23.76,31.371"/>
	<path fill="#656564" d="M25.404,29.116H23.15c2.749,3.235,4.85,5.709,4.976,5.86c0.653,0.778,1.885-0.255,1.232-1.034
		C29.247,33.81,27.632,31.836,25.404,29.116"/>
	<path fill="#D5B503" d="M4.407,11.255c-0.967,1.307-1.73,2.773-2.239,4.353l2.31-0.813c0.487-1.08,1.117-2.082,1.862-2.985
		C5.647,11.501,4.994,11.369,4.407,11.255"/>
	<path fill="#D5B503" d="M22.641,6.378c-1.859-0.817-3.912-1.273-6.069-1.273c-2.26,0-4.405,0.5-6.333,1.393
		c-0.001,0.578,0.035,1.235,0.239,1.96c1.826-0.949,3.899-1.486,6.095-1.486c2.07,0,4.03,0.477,5.777,1.326
		C22.303,7.642,22.4,6.999,22.641,6.378"/>
	<path fill="#656564" d="M3.582,10.04c1.218,0.421,3.578,0.224,5.903,2.994l2.144-0.754c-0.325-0.397-0.505-0.619-0.505-0.619
		C8.774,8.862,9.324,6.458,9.248,5.286C9.171,4.114,8.926,3.288,8.2,2.423C6.557,0.464,3.634,0.2,1.677,1.843
		s-2.254,4.607-0.61,6.566C1.714,9.192,2.363,9.619,3.582,10.04"/>
	<path fill="#D5B503" d="M3.248,27.088c0.009-1.437,0.442-3.091,1.641-3.091c1.211,0,1.641,1.69,1.641,3.137
		c0,0.159-0.004,0.304-0.01,0.433l9.221,1.357c-0.008-0.132-0.013-0.265-0.013-0.399c0-2.408,1.383-4.293,3.149-4.293
		c1.666,0,2.991,1.678,3.136,3.889h4.617l7.587-1.002v-0.901l-1.015-0.812l-8.625,0.65v-0.48l8.422-0.638V23.69l-1.947,0.076
		l0-2.236h-4.275v2.407l-2.201,0.087l-0.001-2.973h8.129l-1.97-1.616l-1.091-6.101l-12.123-2.071L2.158,16.667v1.268l-1.066,1.728
		l1.066-0.286v7.551C2.158,26.929,3.247,27.09,3.248,27.088 M11.551,21.868l-8.404,0.966v-3.721l6.664-1.785l1.727-2.54l0.014-0.006
		V21.868z M15.024,19.081l0.001-5.458l1.886-0.633l1.02,5.594L15.024,19.081z M28.888,14.472l0.812,4.445l-4.387-0.187l-0.877-4.939
		L28.888,14.472z M19.895,18.499l-1.014-5.559l5.053,0.775l0.881,4.994L19.895,18.499z"/>
</g>
</svg>
