<?xml version="1.0" encoding="utf-8"?>
<!-- Generator: Adobe Illustrator 15.1.0, SVG Export Plug-In . SVG Version: 6.00 Build 0)  -->
<!DOCTYPE svg PUBLIC "-//W3C//DTD SVG 1.1//EN" "http://www.w3.org/Graphics/SVG/1.1/DTD/svg11.dtd">
<svg version="1.1" id="Ebene_1" xmlns="http://www.w3.org/2000/svg" xmlns:xlink="http://www.w3.org/1999/xlink" x="0px" y="0px"
	 width="32px" height="32px" viewBox="0 0 32 32" enable-background="new 0 0 32 32" xml:space="preserve">
<path fill="#DD4433" d="M0,0v32h32V0H0z M12,23c-3.87,0-7-3.13-7-7s3.13-7,7-7c1.89,0,3.47,0.689,4.69,1.83l-1.9,1.83
	c-0.52-0.5-1.43-1.08-2.79-1.08c-2.39,0-4.34,1.98-4.34,4.42s1.95,4.42,4.34,4.42c2.771,0,3.81-1.99,3.97-3.02H12V15h6.61
	c0.06,0.35,0.109,0.7,0.109,1.16C18.72,20.16,16.04,23,12,23z M27,17h-2v2h-2v-2h-2v-2h2v-2h2v2h2V17z"/>
</svg>
