<?xml version="1.0" encoding="utf-8"?>
<!-- Generator: Adobe Illustrator 15.1.0, SVG Export Plug-In . SVG Version: 6.00 Build 0)  -->
<!DOCTYPE svg PUBLIC "-//W3C//DTD SVG 1.1//EN" "http://www.w3.org/Graphics/SVG/1.1/DTD/svg11.dtd">
<svg version="1.1" id="Ebene_1" xmlns="http://www.w3.org/2000/svg" xmlns:xlink="http://www.w3.org/1999/xlink" x="0px" y="0px"
	 width="32px" height="32px" viewBox="0 0 32 32" enable-background="new 0 0 32 32" xml:space="preserve">
<g>
	<path id="Shape" fill="#DDDDDD" d="M12,15v2.4h3.97c-0.16,1.029-1.199,3.02-3.97,3.02
		c-2.39,0-4.34-1.98-4.34-4.42s1.95-4.42,4.34-4.42c1.36,0,2.271,0.58,2.79,1.08l1.9-1.83C15.47,9.689,13.89,9,12,9
		c-3.87,0-7,3.13-7,7s3.13,7,7,7c4.04,0,6.72-2.84,6.72-6.84c0-0.46-0.05-0.811-0.109-1.16H12L12,15z"/>
	<path id="Shape-Copy" fill="#DDDDDD" d="M27,15h-2v-2h-2v2h-2v2h2v2h2v-2h2"/>
</g>
</svg>
