<?xml version="1.0" encoding="utf-8"?>
<!DOCTYPE svg PUBLIC "-//W3C//DTD SVG 1.1//EN" "http://www.w3.org/Graphics/SVG/1.1/DTD/svg11.dtd">
<svg version="1.1" id="Ebene_1" xmlns="http://www.w3.org/2000/svg" xmlns:xlink="http://www.w3.org/1999/xlink" x="0px" y="0px"
	 width="100.049px" height="18.069px" viewBox="-0.047 0 100.049 18.069" enable-background="new -0.047 0 100.049 18.069"
	 xml:space="preserve">
<g>
	<g>
		<path fill="#383738" d="M97.357,2.577c-1.705-1.658-4.063-2.573-6.641-2.576V0H9.213C6.64,0.001,4.286,0.917,2.586,2.577
			C0.888,4.237-0.047,6.53-0.047,9.035c0,2.504,0.935,4.798,2.633,6.457c1.7,1.661,4.055,2.577,6.63,2.577
			c0.002,0,0.004-0.002,0.007-0.002h81.472c0.004,0,0.006,0.002,0.006,0.002c0.005,0,0.007-0.002,0.007-0.002h0.01
			c2.578-0.002,4.937-0.916,6.64-2.575c1.705-1.66,2.645-3.953,2.645-6.457C100.002,6.531,99.063,4.237,97.357,2.577"/>
	</g>
</g>
<path fill="#878787" d="M96.793,3.096c-1.564-1.523-3.729-2.363-6.094-2.369h-0.018c-0.002,0-0.006-0.001-0.009-0.001
	c0,0-0.006,0.001-0.009,0.001h-50.32v0.004c3.305,1.354,5.479,4.469,5.479,8.307c0,3.836-2.172,6.949-5.477,8.303H90.66
	c0.004,0,0.01,0,0.015,0s0.011,0,0.017,0h0.01c2.365-0.006,4.527-0.846,6.094-2.367c1.566-1.528,2.432-3.637,2.432-5.938
	C99.225,6.731,98.361,4.622,96.793,3.096"/>
<polyline fill="#383738" points="55.061,11.013 56.552,6.138 58.509,6.138 56.157,13.084 54.02,13.084 52.479,8.389 50.953,13.084
	48.831,13.084 46.479,6.138 48.473,6.138 49.956,10.991 51.512,6.138 53.482,6.138 55.061,11.013 "/>
<path fill="#383738" d="M65.961,9.6c0,0.216-0.016,0.474-0.035,0.632H61c0.201,1.003,0.904,1.44,1.786,1.44
	c0.603,0,1.254-0.244,1.756-0.667l1.097,1.205c-0.789,0.724-1.791,1.053-2.961,1.053c-2.129,0-3.604-1.448-3.604-3.634
	s1.434-3.678,3.513-3.678C64.586,5.952,65.956,7.436,65.961,9.6 M61.008,8.956h3.075c-0.172-0.889-0.709-1.392-1.513-1.392
	C61.689,7.564,61.173,8.095,61.008,8.956z"/>
<rect x="67.102" y="3.513" fill="#383738" width="1.871" height="9.571"/>
<path fill="#383738" d="M75.6,7.801h-2.517v2.537c0,0.867,0.459,1.184,1.039,1.184c0.444,0,0.926-0.223,1.304-0.452l0.69,1.461
	c-0.61,0.417-1.313,0.731-2.304,0.731c-1.721,0-2.603-0.974-2.603-2.774V7.801h-1.339V6.138h1.339V4.073h1.872v2.064h2.516v1.664"/>
<path fill="#383738" d="M85.695,6.862v-3.35h1.865v9.573h-1.828v-0.767c-0.453,0.56-1.127,0.946-2.08,0.946
	c-1.914,0-3.361-1.57-3.361-3.656s1.447-3.656,3.361-3.656C84.584,5.952,85.245,6.317,85.695,6.862 M82.205,9.608
	c0,1.061,0.695,1.914,1.793,1.914c1.066,0,1.792-0.817,1.792-1.914c0-1.096-0.726-1.915-1.792-1.915
	C82.9,7.693,82.205,8.547,82.205,9.608z"/>
<path fill="#383738" d="M96.003,9.6c0,0.216-0.015,0.474-0.035,0.632h-4.926c0.2,1.003,0.903,1.44,1.785,1.44
	c0.603,0,1.255-0.244,1.757-0.667l1.096,1.205c-0.787,0.724-1.791,1.053-2.959,1.053c-2.131,0-3.605-1.448-3.605-3.634
	s1.433-3.678,3.513-3.678C94.626,5.952,95.997,7.436,96.003,9.6 M91.05,8.956h3.075c-0.174-0.889-0.71-1.392-1.514-1.392
	C91.73,7.564,91.214,8.095,91.05,8.956z"/>
<path fill="#383738" d="M79.52,11.995c0.045,0.735-0.531,1.304-1.264,1.267c-0.589-0.031-1.084-0.521-1.119-1.11
	c-0.044-0.732,0.521-1.318,1.254-1.281C78.986,10.902,79.484,11.4,79.52,11.995"/>
<path fill="#878787" d="M9.058,3.865c0,0.674-0.524,1.19-1.197,1.19c-0.674,0-1.191-0.516-1.191-1.19
	c0-0.673,0.517-1.205,1.191-1.205C8.534,2.661,9.058,3.192,9.058,3.865 M8.807,13.084h-1.87V6.138h1.871L8.807,13.084L8.807,13.084z
	"/>
<path fill="#878787" d="M21.99,8.661v4.423h-1.864V9.263c0-1.003-0.509-1.555-1.355-1.555c-0.803,0-1.47,0.523-1.47,1.57v3.806
	H15.43V9.263c0-1.003-0.502-1.555-1.354-1.555c-0.803,0-1.47,0.523-1.47,1.57v3.806h-1.871V6.138h1.82v0.817
	c0.494-0.738,1.254-1.003,2.043-1.003c1.003,0,1.829,0.451,2.293,1.19c0.538-0.882,1.449-1.19,2.359-1.19
	C20.886,5.951,21.99,7.048,21.99,8.661"/>
<path fill="#878787" d="M35.129,8.661v4.423h-1.863V9.263c0-1.003-0.509-1.555-1.355-1.555c-0.803,0-1.47,0.523-1.47,1.57v3.806
	H28.57V9.263c0-1.003-0.501-1.555-1.354-1.555c-0.803,0-1.47,0.523-1.47,1.57v3.806h-1.871V6.138h1.82v0.817
	c0.495-0.738,1.254-1.003,2.043-1.003c1.004,0,1.828,0.451,2.293,1.19c0.538-0.882,1.448-1.19,2.359-1.19
	C34.025,5.951,35.129,7.048,35.129,8.661"/>
<path fill="#878787" d="M44.104,9.608c0,2.094-1.599,3.656-3.764,3.656c-2.158,0-3.75-1.562-3.75-3.656
	c0-2.094,1.592-3.656,3.75-3.656C42.505,5.952,44.104,7.514,44.104,9.608 M38.498,9.608c0,1.125,0.788,1.914,1.843,1.914
	c1.054,0,1.849-0.789,1.849-1.914c0-1.126-0.795-1.915-1.849-1.915C39.286,7.693,38.498,8.482,38.498,9.608z"/>
</svg>
