<?xml version="1.0" encoding="utf-8"?>
<!-- Generator: Adobe Illustrator 15.1.0, SVG Export Plug-In . SVG Version: 6.00 Build 0)  -->
<!DOCTYPE svg PUBLIC "-//W3C//DTD SVG 1.0//EN" "http://www.w3.org/TR/2001/REC-SVG-20010904/DTD/svg10.dtd">
<svg version="1.0" id="Ebene_1" xmlns="http://www.w3.org/2000/svg" xmlns:xlink="http://www.w3.org/1999/xlink" x="0px" y="0px"
	 width="100px" height="41.28px" viewBox="0 0 100 41.28" enable-background="new 0 0 100 41.28" xml:space="preserve">
<path fill="#878787" d="M6.323,34.123v3.5c0,0.125-0.068,0.181-0.181,0.181H4.806c-0.113,0-0.169-0.057-0.169-0.181v-3.069
	c0-1.62-0.17-1.699-1.212-1.699H2.394v4.768c0,0.125-0.057,0.181-0.17,0.181H0.876c-0.113,0-0.17-0.057-0.17-0.181v-5.855
	c0-0.136,0.057-0.147,0.17-0.17c0.759-0.17,1.857-0.192,2.707-0.192C5.757,31.405,6.323,31.813,6.323,34.123"/>
<path fill="#878787" d="M15.904,34.553v0.351c0,0.226-0.068,0.306-0.362,0.306h-3.556c0.022,1.019,0.294,1.201,1.28,1.201h2.004
	c0.113,0,0.17,0.056,0.17,0.169v0.94c0,0.125-0.057,0.17-0.159,0.182c-0.6,0.125-1.416,0.158-2.163,0.158
	c-2.288,0-2.842-0.646-2.842-3.228c0-2.593,0.555-3.228,2.842-3.228C15.349,31.405,15.893,32.028,15.904,34.553 M11.974,34.111
	h2.242c-0.011-0.997-0.272-1.257-1.099-1.257C12.269,32.854,11.985,33.115,11.974,34.111"/>
<path fill="#878787" d="M28.678,31.461c0.113,0,0.147,0.034,0.136,0.159l-0.974,5.107c-0.192,1.008-0.509,1.132-1.551,1.132
	c-1.302,0-1.438-0.125-1.665-1.132l-0.555-2.514l-0.555,2.514c-0.215,1.008-0.362,1.132-1.653,1.132
	c-1.053,0-1.359-0.125-1.563-1.132l-0.962-5.107c-0.023-0.125,0.022-0.159,0.136-0.159h1.438c0.068,0,0.103,0.034,0.125,0.159
	l0.781,4.621c0.045,0.192,0.08,0.215,0.181,0.215c0.125,0,0.147-0.022,0.181-0.215l1.054-4.428c0.034-0.125,0.09-0.159,0.181-0.159
	h1.325c0.08,0,0.147,0.034,0.17,0.159l1.053,4.428c0.045,0.192,0.068,0.215,0.181,0.215c0.102,0,0.147-0.022,0.193-0.215
	l0.781-4.621c0.023-0.125,0.045-0.159,0.125-0.159H28.678z"/>
<path fill="#878787" d="M45.041,33.806l-0.012,3.816c0,0.125-0.057,0.181-0.169,0.181h-1.336c-0.113,0-0.17-0.057-0.17-0.181v-3.069
	c0-1.62-0.17-1.699-1.076-1.699c-0.306,0-0.634,0.023-0.917,0.068c0.102,0.306,0.147,0.691,0.147,1.2l-0.011,3.5
	c0,0.125-0.045,0.181-0.159,0.181H39.99c-0.113,0-0.159-0.057-0.159-0.181v-3.454c-0.011-1.257-0.215-1.314-1.087-1.314h-0.77v4.768
	c0,0.125-0.057,0.181-0.17,0.181h-1.336c-0.113,0-0.17-0.057-0.17-0.181v-5.855c0-0.125,0.045-0.147,0.147-0.17
	c0.623-0.136,1.586-0.192,2.175-0.192c0.872,0,1.608,0.158,2.027,0.362c0.623-0.238,1.393-0.374,1.97-0.374
	C44.384,31.393,45.041,31.892,45.041,33.806"/>
<path fill="#878787" d="M54.882,34.632c0,2.582-0.532,3.228-2.888,3.228c-2.344,0-2.888-0.646-2.888-3.228
	c0-2.593,0.543-3.228,2.888-3.228C54.35,31.405,54.882,32.039,54.882,34.632 M50.793,34.632c0,1.427,0.17,1.778,1.201,1.778
	c1.042,0,1.212-0.352,1.212-1.778s-0.17-1.778-1.212-1.778C50.963,32.854,50.793,33.206,50.793,34.632"/>
<path fill="#878787" d="M60.26,29.377c0.125,0,0.17,0.057,0.17,0.181v1.914c0.419-0.045,0.872-0.068,1.393-0.068
	c2.062,0,2.605,0.725,2.605,3.239c0,2.548-0.555,3.216-2.945,3.216c-0.781,0-1.563-0.068-2.491-0.215
	c-0.147-0.023-0.238-0.113-0.238-0.283v-7.803c0-0.125,0.045-0.181,0.17-0.181H60.26z M60.43,32.866v3.465
	c0.34,0.057,0.815,0.08,1.087,0.08c1.144,0,1.223-0.453,1.223-1.778c0-1.461-0.147-1.767-1.291-1.767H60.43z"/>
<path fill="#878787" d="M69.807,31.235c0.113,0,0.17,0.057,0.17,0.17v6.217c0,0.125-0.057,0.181-0.17,0.181h-1.336
	c-0.113,0-0.17-0.057-0.17-0.181v-6.217c0-0.113,0.057-0.17,0.17-0.17H69.807z"/>
<path fill="#878787" d="M75.56,29.377c0.113,0,0.17,0.057,0.17,0.17v8.075c0,0.125-0.057,0.181-0.17,0.181h-1.336
	c-0.113,0-0.169-0.057-0.169-0.181v-8.075c0-0.113,0.056-0.17,0.169-0.17H75.56z"/>
<path fill="#878787" d="M81.313,31.235c0.113,0,0.17,0.057,0.17,0.17v6.217c0,0.125-0.057,0.181-0.17,0.181h-1.336
	c-0.113,0-0.17-0.057-0.17-0.181v-6.217c0-0.113,0.057-0.17,0.17-0.17H81.313z"/>
<path fill="#878787" d="M87.45,29.706c0.113-0.034,0.181,0.045,0.181,0.17v1.619h1.042c0.125,0,0.192,0.057,0.192,0.17v0.906
	c0,0.113-0.068,0.169-0.192,0.169h-1.042v3.092c0,0.487,0.17,0.578,0.668,0.578h0.464c0.136,0,0.193,0.045,0.193,0.169v0.963
	c0,0.136-0.057,0.192-0.181,0.215c-0.396,0.08-0.713,0.102-0.963,0.102c-0.974,0-1.857-0.034-1.857-1.461v-3.658h-0.668
	c-0.125,0-0.181-0.056-0.181-0.169v-0.906c0-0.113,0.057-0.17,0.181-0.17h0.668v-1.257c0-0.113,0.045-0.159,0.159-0.181
	L87.45,29.706z"/>
<path fill="#878787" d="M98.208,31.461c0.113,0,0.17,0.057,0.17,0.17v6.036c0,1.862-0.34,3.613-2.774,3.613
	c-0.815,0-1.484-0.045-2.129-0.159c-0.102-0.011-0.159-0.057-0.159-0.181V40.08c0-0.125,0.045-0.17,0.159-0.17h1.982
	c0.997,0,1.234-0.739,1.234-2.106v-0.068c-0.487,0.091-0.906,0.125-1.381,0.125c-2.062,0-2.673-0.792-2.673-2.922v-3.307
	c0-0.113,0.057-0.17,0.17-0.17h1.348c0.113,0,0.17,0.057,0.17,0.17v2.99c0,1.461,0.215,1.778,1.359,1.778
	c0.283,0,0.691-0.011,1.008-0.068v-4.7c0-0.113,0.057-0.17,0.17-0.17H98.208z"/>
<rect x="36.298" y="2.144" fill="#878787" width="2.378" height="9.116"/>
<path fill="#878787" d="M43.271,2.144h2.378v0.65c0.698-0.349,1.617-0.745,2.394-0.745h0.444c1.997,0,3.012,0.507,3.012,2.711v6.5
	h-2.378V4.998c0-0.777-0.317-0.999-1.094-0.999h-0.365c-0.603,0-1.3,0.286-2.014,0.46v6.801h-2.378V2.144z"/>
<path fill="#878787" d="M63.582,3.999h-3.979c-0.634,0-0.888,0-0.888,0.396v0.286c0,0.38,0.127,0.428,0.396,0.476l2.426,0.444
	c1.696,0.317,2.647,0.459,2.647,2.331v0.65c0,2.061-1.094,2.774-3.155,2.759c-2.537,0-4.788-0.254-4.788-0.254l0.016-1.728h4.344
	c0.952,0,1.348-0.174,1.348-0.792V8.248c0-0.301-0.095-0.46-0.808-0.603l-3.124-0.571c-1.094-0.222-1.665-0.539-1.665-1.966V4.443
	c0-2.061,1.03-2.394,3.091-2.378c2.521,0,4.138,0.143,4.138,0.143V3.999z"/>
<path fill="#878787" d="M76.431,11.07c0,0-2.061,0.253-4.566,0.253c-2.061,0.016-3.092-0.539-3.092-2.774V5.014
	c0-1.696,1.157-2.901,3.219-2.901h1.998c2.061,0,3.091,1.205,3.091,2.901v2.358c0,0.159-0.016,0.206-0.158,0.206h-5.771v0.781
	c0,1.015,0.19,1.078,1.094,1.078h4.217L76.431,11.07z M74.782,5.331c0-1.237-0.38-1.379-1.237-1.379h-1.03
	c-0.872,0-1.363,0.095-1.363,1.379v0.55l3.63-0.048V5.331z"/>
<path fill="#878787" d="M81.728,2.144h2.378v0.777c0.698-0.396,1.617-0.856,2.394-0.856h1.015v2.108H86.12
	c-0.603,0-1.3,0.206-2.014,0.507v6.58h-2.378V2.144z"/>
<path fill="#878787" d="M91.745,2.128h2.174V0.162h2.378v1.982h2.441V4.11h-2.441v4.439c0,0.586,0.206,0.824,0.761,0.824
	c0.143,0,1.792-0.031,1.792-0.031l-0.032,1.648c0,0-1.648,0.333-2.663,0.333c-1.871,0-2.236-1.125-2.236-2.521V4.11h-2.174V2.128z"
	/>
<polygon fill="#878787" points="36.298,15.79 44.447,15.79 44.447,17.851 38.739,17.851 38.739,20.198 43.67,20.198 43.67,22.322
	38.739,22.322 38.739,24.716 44.416,24.716 44.416,26.888 36.298,26.888 "/>
<polygon fill="#878787" points="47.475,15.79 55.624,15.79 55.624,17.915 49.917,17.915 49.917,20.436 54.736,20.436 54.736,22.56
	49.917,22.56 49.917,26.888 47.475,26.888 "/>
<polygon fill="#878787" points="58.24,15.79 66.389,15.79 66.389,17.915 60.682,17.915 60.682,20.436 65.501,20.436 65.501,22.56
	60.682,22.56 60.682,26.888 58.24,26.888 "/>
<polygon fill="#878787" points="69.005,15.79 77.154,15.79 77.154,17.851 71.446,17.851 71.446,20.198 76.377,20.198 76.377,22.322
	71.446,22.322 71.446,24.716 77.123,24.716 77.123,26.888 69.005,26.888 "/>
<path fill="#878787" d="M88.299,17.867h-4.471c-0.967,0-1.411,0.38-1.411,1.252v4.313c0,0.888,0.444,1.379,1.411,1.379h4.471
	l0.016,1.966c0,0-2.758,0.19-5.374,0.19c-2.045,0.016-3.076-1.427-3.076-3.139v-5.105c0-1.712,1.031-3.028,3.076-3.013
	c2.854,0,5.374,0.143,5.374,0.143L88.299,17.867z"/>
<polygon fill="#878787" points="100,17.852 96.48,17.852 96.48,26.888 94.039,26.888 94.039,17.852 90.503,17.852 90.503,15.79
	100,15.79 "/>
<path fill="#878787" d="M6.296,24.321c-0.099,0.026-0.236,0.067-0.378,0.119c-0.143,0.051-0.293,0.112-0.446,0.178
	c-0.306,0.133-0.618,0.286-0.929,0.449c-0.311,0.163-0.622,0.336-0.929,0.515c-0.153,0.089-0.306,0.181-0.456,0.273l-0.221,0.138
	c-0.069,0.045-0.146,0.095-0.188,0.129h0l-0.417,0.123c-0.749,0.219-1.534-0.209-1.753-0.958c-0.053-0.182-0.067-0.373-0.049-0.55
	L0.56,24.45c0.003-0.027,0.006-0.043,0.008-0.058l0.008-0.048l0.016-0.096l0.063-0.378l0.12-0.735
	c0.077-0.489,0.151-0.974,0.217-1.461c0.136-0.974,0.248-1.949,0.347-2.924c0.193-1.951,0.312-3.907,0.38-5.857
	c0.033-0.975,0.044-1.948,0.036-2.918c-0.009-0.482-0.022-0.97-0.039-1.446C1.701,8.296,1.691,8.064,1.672,7.833
	C1.649,7.602,1.628,7.371,1.599,7.14c-0.116-0.923-0.3-1.843-0.547-2.745C0.931,3.944,0.792,3.497,0.635,3.059
	C0.559,2.839,0.478,2.622,0.392,2.41C0.35,2.302,0.305,2.199,0.261,2.094C0.218,1.996,0.167,1.881,0.131,1.81
	c-0.308-0.619-0.056-1.371,0.563-1.679c0.408-0.203,0.873-0.163,1.231,0.065l0.093,0.06c0.334,0.298,0.704,0.606,1.064,0.9
	c0.364,0.296,0.732,0.585,1.106,0.865C4.563,2.302,4.941,2.571,5.324,2.82C5.706,3.065,6.098,3.3,6.473,3.462L6.5,3.474
	c0.328,0.143,0.479,0.524,0.336,0.852C6.713,4.61,6.41,4.761,6.119,4.704C5.572,4.597,5.089,4.43,4.61,4.253
	C4.135,4.074,3.675,3.878,3.221,3.672c-0.453-0.207-0.9-0.422-1.342-0.646C1.434,2.8,1.005,2.577,0.554,2.324l0,0l1.888-1.554
	c0.064,0.156,0.105,0.27,0.154,0.4c0.045,0.125,0.091,0.251,0.132,0.376c0.085,0.25,0.165,0.499,0.241,0.749
	c0.153,0.5,0.285,1.002,0.406,1.507c0.237,1.011,0.421,2.035,0.53,3.073c0.028,0.259,0.044,0.52,0.068,0.78
	c0.019,0.26,0.028,0.522,0.042,0.784c0.014,0.51,0.021,1.009,0.026,1.513c0.002,1.004-0.004,2.005-0.03,3.002
	c-0.042,1.996-0.146,3.982-0.232,5.969c-0.046,0.993-0.086,1.986-0.122,2.978c-0.018,0.496-0.032,0.994-0.043,1.488
	c-0.008,0.249-0.01,0.494-0.013,0.739c-0.002,0.125-0.002,0.242,0,0.359l0,0.088l0,0.044c0,0.016,0,0.03,0.002,0.034
	c0.003,0.028,0.008,0.055,0.01,0.082l-2.22-1.386l0,0c0.125-0.046,0.217-0.073,0.317-0.104l0.289-0.085
	c0.191-0.054,0.382-0.106,0.573-0.155c0.382-0.099,0.765-0.19,1.155-0.272c0.39-0.082,0.786-0.154,1.198-0.21
	c0.207-0.027,0.418-0.05,0.641-0.063c0.224-0.013,0.456-0.019,0.729,0.004c0.508,0.044,0.885,0.491,0.841,1
	c-0.034,0.398-0.317,0.716-0.682,0.813L6.296,24.321z"/>
<path fill="#878787" d="M13.87,18.905c0.373-0.117,0.743-0.241,1.113-0.364c0.37-0.122,0.741-0.245,1.11-0.373
	c0.738-0.254,1.481-0.495,2.217-0.754c0.737-0.255,1.479-0.5,2.22-0.747c0.74-0.25,1.481-0.495,2.226-0.731
	c0.744-0.238,1.489-0.467,2.234-0.692l2.23-0.679c1.487-0.443,2.967-0.895,4.441-1.365l0.052,1.35
	c-1.534-0.374-3.07-0.748-4.606-1.145c-0.768-0.198-1.534-0.41-2.299-0.626c-0.767-0.214-1.53-0.443-2.292-0.68
	c-1.522-0.479-3.025-1.017-4.52-1.566c-1.495-0.549-2.977-1.122-4.463-1.676c-0.651-0.243-0.983-0.968-0.74-1.619
	c0.243-0.651,0.968-0.982,1.619-0.74c0.05,0.019,0.099,0.041,0.145,0.065l0.007,0.004c1.386,0.737,2.79,1.432,4.208,2.083
	c1.418,0.651,2.856,1.246,4.315,1.788c0.729,0.27,1.463,0.531,2.203,0.78c0.739,0.247,1.485,0.479,2.234,0.705
	c1.498,0.454,3.012,0.868,4.532,1.263c0.377,0.098,0.604,0.483,0.506,0.86c-0.061,0.234-0.233,0.41-0.444,0.487l-0.009,0.003
	c-1.463,0.515-2.925,1.032-4.377,1.565c-0.726,0.267-1.452,0.53-2.172,0.805c-0.719,0.277-1.437,0.558-2.149,0.846
	c-0.714,0.287-1.424,0.582-2.132,0.881c-0.707,0.304-1.408,0.622-2.108,0.94c-0.702,0.316-1.395,0.654-2.088,0.993
	c-0.347,0.168-0.693,0.339-1.036,0.518c-0.344,0.177-0.688,0.352-1.029,0.535l-0.006,0.003c-0.72,0.386-1.618,0.115-2.003-0.606
	c-0.386-0.72-0.115-1.617,0.605-2.003C13.694,18.969,13.785,18.932,13.87,18.905"/>
<path fill-rule="evenodd" clip-rule="evenodd" fill="#878787" d="M27.917,4.726c-2.848-3.04-5.598-3.917-7.164-4.046
	c-0.305-0.06-0.611-0.11-0.92-0.145c-1.406-0.175-2.851-0.061-4.218,0.286c-1.372,0.339-2.671,0.935-3.819,1.734
	c-1.156,0.79-2.161,1.779-3.007,2.882C7.946,6.544,7.274,7.78,6.795,9.089c-0.242,0.654-0.432,1.327-0.576,2.01
	c-0.139,0.685-0.229,1.379-0.269,2.078c-0.042,0.699-0.022,1.396,0.041,2.092c0.063,0.695,0.174,1.389,0.342,2.068
	c0.33,1.362,0.871,2.675,1.599,3.879c0.729,1.204,1.647,2.302,2.735,3.219c1.087,0.914,2.346,1.649,3.714,2.101
	c0.682,0.226,1.389,0.383,2.104,0.464c0.357,0.041,0.716,0.064,1.075,0.068l0.269,0l0.261-0.012
	c0.174-0.008,0.347-0.015,0.521-0.034c1.388-0.109,2.763-0.464,4.033-1.033c1.268-0.575,2.429-1.368,3.398-2.344
	c0.484-0.489,0.929-1.015,1.306-1.593c0.38-0.575,0.703-1.191,0.91-1.89c0.08-0.267-0.045-0.56-0.306-0.682
	c-0.286-0.135-0.628-0.012-0.763,0.274l-0.009,0.02c-0.235,0.5-0.585,0.983-0.968,1.427c-0.385,0.444-0.816,0.854-1.275,1.222
	c-0.463,0.364-0.949,0.697-1.461,0.979c-0.511,0.285-1.047,0.517-1.592,0.714c-1.093,0.393-2.246,0.58-3.403,0.61
	c-0.145,0.007-0.29,0.003-0.435,0.001l-0.217-0.003l-0.209-0.006c-0.279-0.012-0.556-0.038-0.831-0.078
	c-0.551-0.079-1.092-0.217-1.614-0.407c-1.046-0.376-2.021-0.965-2.868-1.709c-0.848-0.745-1.57-1.643-2.141-2.632
	c-1.138-1.983-1.7-4.302-1.639-6.611c0.013-0.576,0.068-1.151,0.163-1.72c0.094-0.569,0.226-1.133,0.401-1.685
	c0.348-1.104,0.862-2.158,1.521-3.111c0.657-0.956,1.476-1.798,2.408-2.474c0.466-0.338,0.964-0.628,1.483-0.87
	c0.518-0.241,1.056-0.44,1.611-0.568c2.225-0.52,4.598,0.039,6.534,1.176c0.97,0.569,1.849,1.279,2.558,2.108
	c0.18,0.206,0.342,0.423,0.501,0.642l0.479,0.657c0.156,0.223,0.322,0.446,0.483,0.68c0.17,0.231,0.33,0.473,0.535,0.721
	l0.055,0.067c0.116,0.141,0.282,0.241,0.477,0.271c0.352,0.055,0.685-0.136,0.825-0.445C29.159,8.178,29.7,6.627,27.917,4.726"/>
<path fill-rule="evenodd" clip-rule="evenodd" fill="#878787" d="M29.106,7.233c0,1.056-0.581,1.911-1.297,1.911
	c-0.717,0-1.298-0.855-1.298-1.911s0.581-1.912,1.298-1.912C28.525,5.322,29.106,6.178,29.106,7.233"/>
</svg>
