<?xml version="1.0" encoding="utf-8"?>
<!-- Generator: Adobe Illustrator 15.1.0, SVG Export Plug-In . SVG Version: 6.00 Build 0)  -->
<!DOCTYPE svg PUBLIC "-//W3C//DTD SVG 1.0//EN" "http://www.w3.org/TR/2001/REC-SVG-20010904/DTD/svg10.dtd">
<svg version="1.0" id="Ebene_1" xmlns="http://www.w3.org/2000/svg" xmlns:xlink="http://www.w3.org/1999/xlink" x="0px" y="0px"
	 width="100px" height="39.551px" viewBox="0 0 100 39.551" enable-background="new 0 0 100 39.551" xml:space="preserve">
<g>
	<path fill="#E95E28" d="M84.499,23.382c0-5.411-3.562-5.411-4.496-5.411c-2.965,0-4.596,2.526-4.596,5.312
		c0,3.164,1.612,5.372,5.252,5.372c1.074,0,2.268-0.219,3.282-0.597l-0.06-2.367c-0.776,0.417-1.85,0.815-2.924,0.815
		c-1.771,0-2.566-1.134-2.566-2.368h6.108V23.382z M78.391,22.427c0-0.557,0-2.546,1.612-2.546c1.293,0,1.631,1.233,1.631,2.546
		H78.391z M67.647,23.322c0-1.651,0.12-3.203,1.512-3.203c1.273,0,1.572,1.552,1.572,3.203c0,1.194-0.278,3.064-1.572,3.064
		C67.728,26.386,67.647,24.396,67.647,23.322 M73.875,13.574h-3.144v6.088h-0.04c-0.378-0.935-1.214-1.691-2.667-1.691
		c-2.606,0-3.641,2.308-3.641,5.093c0,3.303,1.313,5.591,3.641,5.591c1.811,0,2.507-1.174,2.825-1.811h0.04
		c0,0.716,0.04,1.253,0.08,1.651h2.984c-0.04-0.478-0.08-1.015-0.08-2.328V13.574z M59.929,28.495h2.865v-2.984h-2.865V28.495z
		 M40.5,28.495h6.003V17.401c0-2.545,0.684-4.217,2.622-4.217c1.216,0,2.317,0.646,2.317,3.115v12.196h6.003V15.54
		c0-3.952-1.444-7.143-5.813-7.143c-2.166,0-4.369,1.026-5.053,3.229h-0.076V0H40.5V28.495z M37.081,13.146
		c0-2.508,0.076-3.533,0.152-4.445h-5.699l-0.152,3.153h-0.076c-0.532-1.216-1.862-3.457-5.319-3.457
		c-4.521,0-7.029,3.913-7.029,10.22c0,7.447,3.534,9.878,6.991,9.878c3.344,0,4.864-2.432,5.206-3.496h0.076
		c0,4.104-0.19,7.599-4.939,7.599c-2.736,0-5.205-1.216-6.231-1.748l-0.19,4.901c1.899,0.57,4.331,1.178,7.143,1.178
		c9.992,0,10.068-7.94,10.068-10.828V13.146z M25.189,18.579c0-2.051,0.152-5.851,2.926-5.851c2.431,0,2.963,3.571,2.963,5.851
		c0,2.774-0.57,5.699-3.001,5.699C25.417,24.277,25.189,20.136,25.189,18.579 M0,28.495h6.003V19.11h0.076l4.977,9.385h6.687
		l-6.61-10.714l6.192-9.08h-6.23l-5.015,8.017H6.003V0H0V28.495z"/>
	<path fill="#216298" d="M98.663,39.477H100v-1.393h-1.337V39.477z M98.189,37.09c0-2.525-1.662-2.525-2.098-2.525
		c-1.383,0-2.145,1.179-2.145,2.479c0,1.476,0.752,2.507,2.451,2.507c0.502,0,1.059-0.102,1.532-0.279l-0.028-1.104
		c-0.362,0.195-0.863,0.38-1.365,0.38c-0.826,0-1.197-0.529-1.197-1.104h2.85V37.09z M95.339,36.645c0-0.26,0-1.188,0.752-1.188
		c0.604,0,0.761,0.576,0.761,1.188H95.339z M90.261,35.67h0.798v2.451c0,1.059,0.659,1.43,1.42,1.43c0.474,0,0.873-0.074,1.021-0.13
		V38.39c-0.148,0.065-0.279,0.102-0.482,0.102c-0.278,0-0.492-0.13-0.492-0.604V35.67h0.947v-1.031h-0.947v-1.448l-1.43,0.455v0.993
		h-0.835V35.67z M88.293,39.477h1.467v-6.963h-1.467V39.477z M85.684,33.859h1.095v-1.17h-1.095V33.859z M84.087,33.859h1.096v-1.17
		h-1.096V33.859z M86.092,37.425c0,1.179-0.743,1.197-0.873,1.197c-0.121,0-0.631,0-0.631-0.631c0-0.808,0.919-0.845,1.504-0.845
		V37.425z M83.846,35.958c0.576-0.343,0.975-0.427,1.346-0.427c0.213,0,0.9,0,0.9,0.929h-0.445c-0.511,0-2.396,0.009-2.396,1.625
		c0,0.882,0.594,1.467,1.495,1.467c0.697,0,1.263-0.446,1.328-0.743h0.019l0.037,0.668h1.337c-0.028-0.325-0.038-0.65-0.038-1.365
		v-1.764c0-1.077-0.39-1.782-2.089-1.782c-0.529,0-1.179,0.186-1.56,0.306L83.846,35.958z M75.778,34.639l1.3,4.837h1.597
		l0.743-3.538h0.019l0.789,3.538h1.561l1.29-4.837h-1.393l-0.678,3.445h-0.019l-0.659-3.445h-1.671l-0.687,3.445H77.95l-0.706-3.445
		H75.778z M73.939,39.477h1.467v-3.166c0-0.966-0.353-1.745-1.421-1.745c-0.77,0-1.142,0.353-1.365,0.881h-0.019
		c0-0.325-0.019-0.594-0.037-0.808h-1.337c0.028,0.251,0.037,0.548,0.037,1.012v3.825h1.467v-2.711c0-0.622,0.167-1.031,0.641-1.031
		c0.297,0,0.566,0.158,0.566,0.761V39.477z M69.112,37.425c0,1.179-0.743,1.197-0.873,1.197c-0.121,0-0.631,0-0.631-0.631
		c0-0.808,0.919-0.845,1.504-0.845V37.425z M66.865,35.958c0.576-0.343,0.975-0.427,1.346-0.427c0.213,0,0.901,0,0.901,0.929h-0.446
		c-0.511,0-2.396,0.009-2.396,1.625c0,0.882,0.595,1.467,1.495,1.467c0.696,0,1.263-0.446,1.328-0.743h0.019l0.037,0.668h1.337
		c-0.028-0.325-0.037-0.65-0.037-1.365v-1.764c0-1.077-0.39-1.782-2.089-1.782c-0.529,0-1.179,0.186-1.56,0.306L66.865,35.958z
		 M63.56,37.09c0-2.525-1.662-2.525-2.098-2.525c-1.383,0-2.145,1.179-2.145,2.479c0,1.476,0.752,2.507,2.451,2.507
		c0.501,0,1.059-0.102,1.532-0.279l-0.028-1.104c-0.362,0.195-0.863,0.38-1.364,0.38c-0.827,0-1.198-0.529-1.198-1.104h2.85V37.09z
		 M60.71,36.645c0-0.26,0-1.188,0.752-1.188c0.604,0,0.761,0.576,0.761,1.188H60.71z M57.135,39.477h1.467v-3.166
		c0-0.966-0.353-1.745-1.42-1.745c-0.771,0-1.142,0.353-1.365,0.881h-0.019c0-0.325-0.019-0.594-0.037-0.808h-1.337
		c0.028,0.251,0.037,0.548,0.037,1.012v3.825h1.467v-2.711c0-0.622,0.167-1.031,0.641-1.031c0.297,0,0.566,0.158,0.566,0.761V39.477
		z M52.112,33.813h1.467v-1.3h-1.467V33.813z M52.112,39.477h1.467v-4.837h-1.467V39.477z M51.389,37.09
		c0-2.525-1.662-2.525-2.098-2.525c-1.383,0-2.145,1.179-2.145,2.479c0,1.476,0.752,2.507,2.451,2.507
		c0.501,0,1.059-0.102,1.532-0.279l-0.028-1.104c-0.362,0.195-0.863,0.38-1.364,0.38c-0.827,0-1.198-0.529-1.198-1.104h2.851V37.09z
		 M48.538,36.645c0-0.26,0-1.188,0.752-1.188c0.604,0,0.761,0.576,0.761,1.188H48.538z M44.964,39.477h1.467v-3.166
		c0-0.966-0.353-1.745-1.42-1.745c-0.771,0-1.114,0.353-1.328,0.808c-0.204-0.483-0.557-0.808-1.253-0.808
		c-0.771,0-1.142,0.353-1.365,0.881h-0.019c0-0.325-0.019-0.594-0.037-0.808h-1.337c0.028,0.251,0.037,0.548,0.037,1.012v3.825
		h1.467v-2.711c0-0.613,0.167-1.031,0.65-1.031c0.242,0,0.511,0.148,0.511,0.761v2.98h1.467v-3.064c0-0.362,0.167-0.678,0.604-0.678
		c0.325,0,0.557,0.204,0.557,0.761V39.477z"/>
</g>
</svg>
