<?xml version="1.0" encoding="utf-8"?>
<!-- Generator: Adobe Illustrator 15.1.0, SVG Export Plug-In . SVG Version: 6.00 Build 0)  -->
<!DOCTYPE svg PUBLIC "-//W3C//DTD SVG 1.1//EN" "http://www.w3.org/Graphics/SVG/1.1/DTD/svg11.dtd">
<svg version="1.1" id="Ebene_1" xmlns="http://www.w3.org/2000/svg" xmlns:xlink="http://www.w3.org/1999/xlink" x="0px" y="0px"
	 width="100px" height="45.386px" viewBox="688.804 364.104 100 45.386" enable-background="new 688.804 364.104 100 45.386"
	 xml:space="preserve">
<g>
	<path d="M738.634,377.311h-2.151v-9.185h1.777l0.15,1.628h0.075c0.655-1.197,1.627-1.852,2.6-1.852
		c0.468,0,0.767,0.056,1.048,0.187l-0.375,1.871c-0.318-0.094-0.561-0.149-0.954-0.149c-0.73,0-1.609,0.505-2.17,1.889V377.311
		L738.634,377.311z M728.831,377.535c1.253,0,2.151-0.617,2.956-1.571h0.056l0.168,1.347h1.758v-9.185h-2.151v6.286
		c-0.692,0.898-1.234,1.272-2.039,1.272c-0.992,0-1.422-0.561-1.422-2.076v-5.481h-2.151v5.762
		C726.007,376.207,726.867,377.535,728.831,377.535 M731.881,366.499c0.655,0,1.141-0.505,1.141-1.141
		c0-0.636-0.486-1.141-1.141-1.141c-0.673,0-1.141,0.505-1.141,1.141C730.74,365.993,731.207,366.499,731.881,366.499
		 M743.647,393.288h3.218v-12.159h-3.218V393.288z M728.027,366.499c0.673,0,1.141-0.505,1.141-1.141
		c0-0.636-0.468-1.141-1.141-1.141c-0.655,0-1.141,0.505-1.141,1.141C726.886,365.993,727.372,366.499,728.027,366.499
		 M745.593,370.895c0.767-0.749,1.291-1.141,2.095-1.141c1.011,0,1.441,0.561,1.441,2.076v5.481h2.151v-5.762
		c0-2.319-0.86-3.647-2.825-3.647c-1.253,0-2.188,0.655-3.011,1.459h-0.075l-0.149-1.235h-1.777v9.185h2.151V370.895z
		 M770.286,381.129v12.159h7.819v-2.694h-4.602v-9.465H770.286L770.286,381.129z M763.832,372.728c0-2.993,2.076-4.826,4.228-4.826
		c2.487,0,3.797,1.796,3.797,4.358c0,0.412-0.037,0.823-0.093,1.048h-5.837c0.188,1.627,1.234,2.563,2.713,2.563
		c0.785,0,1.459-0.243,2.132-0.673l0.729,1.347c-0.879,0.58-1.982,0.991-3.143,0.991
		C765.814,377.535,763.832,375.758,763.832,372.728 M765.908,371.848h4.078c0-1.421-0.617-2.282-1.871-2.282
		C767.03,369.567,766.095,370.371,765.908,371.848 M776.065,371.699c0.562-1.384,1.44-1.889,2.17-1.889
		c0.394,0,0.637,0.056,0.954,0.149l0.374-1.871c-0.28-0.131-0.579-0.187-1.047-0.187c-0.973,0-1.945,0.655-2.601,1.852h-0.074
		l-0.15-1.628h-1.777v9.185h2.151V371.699L776.065,371.699z M755.095,393.288v-9.465h3.218v-2.694h-9.652v2.694h3.218v9.465H755.095
		z M755.619,377.311h-1.702v-13.207h2.151v3.404l-0.056,1.534c0.767-0.673,1.721-1.141,2.656-1.141c2.301,0,3.629,1.833,3.629,4.658
		c0,3.162-1.89,4.976-3.929,4.976c-0.842,0-1.739-0.43-2.506-1.197h-0.057L755.619,377.311L755.619,377.311z M756.068,374.991
		c0.655,0.561,1.31,0.767,1.853,0.767c1.216,0,2.151-1.085,2.151-3.161c0-1.833-0.599-2.918-1.983-2.918
		c-0.674,0-1.31,0.337-2.021,1.029V374.991L756.068,374.991z M728.869,381.129h-3.218v12.159h3.218V381.129z M739.925,402.27
		l-1.478-0.58c-1.104-0.431-1.796-0.636-1.796-1.216c0-0.542,0.486-0.823,1.272-0.823c0.898,0,1.609,0.299,2.432,0.879l1.608-2.02
		c-1.122-1.104-2.656-1.627-4.041-1.627c-2.656,0-4.527,1.702-4.527,3.778c0,1.759,1.141,2.862,2.451,3.386l1.515,0.637
		c1.029,0.411,1.646,0.599,1.646,1.179c0,0.542-0.412,0.86-1.384,0.86c-0.898,0-1.982-0.486-2.843-1.179l-1.833,2.207
		c1.309,1.179,3.068,1.74,4.602,1.74c3.03,0,4.751-1.834,4.751-3.892C742.301,403.915,741.44,402.868,739.925,402.27
		 M761.12,393.288h-3.293l3.704-12.159h3.891l3.704,12.159h-3.404l-0.599-2.582h-3.404L761.12,393.288z M762.298,388.219h2.245
		l-0.206-0.842c-0.299-1.16-0.599-2.638-0.897-3.854h-0.075c-0.262,1.234-0.562,2.693-0.86,3.854L762.298,388.219L762.298,388.219z
		 M765.834,397.107l-1.234,5.313c-0.318,1.291-0.562,2.544-0.898,3.854h-0.075c-0.336-1.31-0.561-2.563-0.897-3.854l-1.272-5.313
		h-3.404l3.592,12.159h3.891l3.592-12.159H765.834z M691.897,402.125c0.053-0.089,0.114-0.173,0.182-0.252
		c0.275-0.46,0.748-0.787,1.301-0.866c0.099-0.032,0.2-0.056,0.303-0.07c0.097-0.031,3.521-0.823,3.624-0.838
		c0.098-0.031,0.199-0.055,0.303-0.07l0.001,0c-0.013-0.016-0.025-0.032-0.038-0.048c-0.075-0.073-5.549-6.32-5.612-6.405
		c-0.075-0.074-0.145-0.153-0.208-0.237c-0.385-0.379-0.625-0.906-0.625-1.49c0-1.154,0.936-2.089,2.089-2.089
		c0.119,0,0.235,0.01,0.348,0.029c0.107,0.001,6.513,0.584,6.615,0.602c0.107,0.002,0.213,0.012,0.315,0.029
		c0.029,0,0.059,0.001,0.087,0.003c-0.006-0.008-0.012-0.016-0.018-0.023c-0.073-0.075-0.14-0.154-0.202-0.238
		c-0.073-0.075-2.775-3.252-2.837-3.336c-0.073-0.075-0.14-0.154-0.203-0.238c-0.412-0.425-0.666-1.004-0.666-1.643
		c0-0.421,0.112-0.835,0.326-1.198c0.042-0.099,0.09-0.194,0.145-0.287l9.234-18.381h-17.558v41.327
		C690.026,404.706,691.852,402.178,691.897,402.125 M783.903,381.37c-2.188,0-3.815-0.786-3.815-2.395
		c0-0.767,0.468-1.44,1.309-1.964v-0.075c-0.468-0.299-0.822-0.786-0.822-1.534c0-0.71,0.486-1.328,1.01-1.702v-0.075
		c-0.617-0.468-1.197-1.347-1.197-2.432c0-2.114,1.702-3.292,3.629-3.292c0.505,0,0.973,0.094,1.347,0.225h3.293v1.59h-1.684
		c0.299,0.355,0.523,0.917,0.523,1.553c0,2.039-1.534,3.124-3.479,3.124c-0.393,0-0.842-0.075-1.253-0.243
		c-0.281,0.243-0.449,0.468-0.449,0.879c0,0.524,0.374,0.842,1.497,0.842h1.627c2.207,0,3.367,0.673,3.367,2.264
		C788.804,379.948,786.896,381.37,783.903,381.37 M782.407,371.194c0,1.178,0.711,1.852,1.608,1.852c0.879,0,1.59-0.673,1.59-1.852
		c0-1.141-0.691-1.815-1.59-1.815C783.118,369.379,782.407,370.034,782.407,371.194 M784.24,379.967
		c1.478,0,2.488-0.692,2.488-1.478c0-0.711-0.58-0.917-1.628-0.917h-1.253c-0.506,0-0.898-0.037-1.254-0.131
		c-0.486,0.374-0.711,0.786-0.711,1.216C781.883,379.481,782.781,379.967,784.24,379.967 M775.991,397.107l3.704,12.159h-3.404
		l-0.599-2.582h-3.405l-0.599,2.582h-3.292l3.704-12.159H775.991L775.991,397.107z M775.112,404.197l-0.206-0.842
		c-0.299-1.16-0.599-2.638-0.897-3.854h-0.075c-0.262,1.234-0.562,2.693-0.86,3.854l-0.206,0.842H775.112L775.112,404.197z
		 M784.072,397.107h-3.217v12.159h7.819v-2.693h-4.602L784.072,397.107L784.072,397.107z M742.6,399.801h3.217v9.465h3.218v-9.465
		h3.218v-2.694H742.6V399.801L742.6,399.801z M753.675,409.266h3.217v-12.159h-3.217V409.266z M741.29,392.016v-5.799h-4.639v2.619
		h1.796v1.684c-0.225,0.149-0.599,0.225-0.936,0.225c-2.17,0-3.18-1.272-3.18-3.554c0-2.208,1.235-3.517,2.881-3.517
		c0.973,0,1.571,0.374,2.17,0.898l1.684-2.058c-0.86-0.86-2.17-1.609-3.966-1.609c-3.255,0-6.061,2.32-6.061,6.398
		c0,4.152,2.731,6.21,6.136,6.21C738.896,393.513,740.43,392.839,741.29,392.016 M716.093,371.961c0-1.366-0.188-2.843-0.281-4.134
		h0.075l1.253,2.601l3.816,6.884h2.227v-12.234h-2.077v5.313c0,1.366,0.187,2.918,0.281,4.171h-0.075l-1.253-2.6l-3.816-6.884
		h-2.226v12.234h2.077V371.961L716.093,371.961z M701.925,384.463c-0.029,0.067-0.062,0.133-0.096,0.196
		c0.038,0.046,0.073,0.093,0.107,0.142c0.071,0.077,0.137,0.158,0.196,0.243c0.071,0.077,5.046,6.243,5.106,6.329
		c0.071,0.076,0.137,0.158,0.197,0.244c0.37,0.397,0.596,0.93,0.596,1.515c0,1.229-0.997,2.226-2.226,2.226
		c-0.139,0-0.275-0.013-0.407-0.038c-0.107-0.005-7.127-0.797-7.229-0.816c-0.003,0-0.006,0-0.01,0
		c0.073,0.075,4.188,4.989,4.25,5.075c0.074,0.075,0.141,0.156,0.202,0.242c0.361,0.365,0.563,0.858,0.563,1.371
		c0,1.004-0.757,1.83-1.732,1.939c-0.098,0.027-0.2,0.048-0.304,0.06c-0.098,0.027-5.984,1.171-6.088,1.183
		c-0.099,0.027-0.2,0.048-0.304,0.059c-0.03,0.009-0.06,0.017-0.09,0.023c-0.02,0.023-0.041,0.047-0.062,0.07
		c-0.044,0.068-2.563,3.322-3.67,4.743h19.403v-41.027C707.89,372.951,701.969,384.391,701.925,384.463 M714.016,409.266h3.217
		v-4.452h4.041v-2.694h-4.041V399.8h4.714v-2.693h-7.931V409.266L714.016,409.266z M723.856,387.153
		c0,4.302-2.544,6.136-6.061,6.136h-3.778v-12.159h3.591C721.312,381.129,723.856,382.85,723.856,387.153 M720.563,387.153
		c0-2.843-1.384-3.442-3.143-3.442h-0.187v6.996h0.187C719.179,390.707,720.563,389.996,720.563,387.153 M726.886,404.403h3.965
		v-2.694h-3.965v-1.908h4.639v-2.694h-7.856v12.159h8.044v-2.693h-4.827L726.886,404.403L726.886,404.403z"/>
</g>
</svg>
