<?xml version="1.0" encoding="utf-8"?>
<!DOCTYPE svg PUBLIC "-//W3C//DTD SVG 1.0//EN" "http://www.w3.org/TR/2001/REC-SVG-20010904/DTD/svg10.dtd">
<svg version="1.0" id="Ebene_1" xmlns="http://www.w3.org/2000/svg" xmlns:xlink="http://www.w3.org/1999/xlink" x="0px" y="0px"
	 width="100px" height="24.842px" viewBox="0 0 100 24.842" enable-background="new 0 0 100 24.842" xml:space="preserve">
<g>
	<path fill="#878787" d="M15.341,15.061c0,2.954,0.035,8.515,4.329,8.515c3.87,0,4.504-3.873,4.504-5.243h1.337
		c0,2.816-1.549,6.439-5.701,6.439c-4.75,0-5.948-3.87-5.948-10.135c0-5.63,2.005-9.113,6.158-9.113
		c4.329,0,5.736,3.589,5.736,9.537H15.341z M24.278,13.864c0-3.345-0.528-7.145-4.328-7.145c-4.083,0-4.609,4.752-4.609,7.145
		H24.278z"/>
	<path fill="#878787" d="M53.694,0h2.955v5.487h3.273V7.81h-3.273v12.106c0,1.514,0.388,2.108,1.937,2.108
		c0.632,0,0.984-0.07,1.3-0.104v2.426c-0.387,0.073-1.159,0.214-2.391,0.214c-3.063,0-3.801-1.267-3.801-3.732V7.81h-2.745V5.487
		h2.745V0z"/>
	<path fill="#878787" d="M0,5.948h1.337v2.777h0.07c0.633-1.618,2.182-3.202,4.68-3.202c2.604,0,4.645,1.478,4.645,4.962v13.861
		H9.395V11.118c0-3.271-1.374-4.398-3.661-4.398c-2.814,0-4.397,2.64-4.397,5.841v11.786H0V5.948z"/>
	<path fill="#878787" d="M27.128,5.948h2.5V0.491h1.337v5.457h3.061v1.193h-3.061v14.181c0,1.758,0.845,2.042,1.617,2.042
		c0.564,0,1.056-0.036,1.654-0.211v1.193c-0.669,0.144-1.372,0.211-1.9,0.211c-1.9,0-2.708-1.09-2.708-3.095V7.141h-2.5V5.948z"/>
	<path fill="#878787" d="M36.383,11.188c0-4.291,1.83-6.192,6.333-6.192c5.735,0,5.735,3.449,5.735,5.42v10.522
		c0,0.772,0,1.511,0.916,1.511c0.387,0,0.563-0.07,0.703-0.178v2.112c-0.211,0.036-0.986,0.177-1.725,0.177
		c-1.126,0-2.533,0-2.673-2.43h-0.07c-0.951,1.691-2.78,2.711-4.54,2.711c-3.519,0-5.137-2.112-5.137-5.491
		c0-2.64,1.126-4.468,3.554-5.206l3.976-1.2c2.147-0.665,2.147-1.263,2.147-2.847c0-1.761-1.058-2.78-3.027-2.78
		c-3.236,0-3.236,3.027-3.236,3.695v0.174H36.383z M45.496,14.075c-1.092,1.163-3.694,1.407-5.031,2.215
		c-0.952,0.599-1.442,1.337-1.442,2.991c0,1.901,0.667,3.237,2.672,3.237c1.937,0,3.802-1.654,3.802-3.588V14.075z"/>
	<path fill="#878787" d="M62.209,5.487h2.814v2.218h0.07c0.775-1.724,2.745-2.71,4.575-2.71c2.18,0,3.483,0.845,4.08,2.991
		c0.845-1.651,2.534-2.991,4.471-2.991c4.961,0,4.961,3.766,4.961,5.981v13.37h-2.956V11.331c0-1.443-0.106-3.802-2.534-3.802
		c-1.372,0-3.519,0.845-3.519,3.802v13.016h-2.956V11.331c0-1.443-0.105-3.802-2.533-3.802c-1.371,0-3.517,0.845-3.517,3.802v13.016
		h-2.957V5.487z"/>
	<path fill="#878787" d="M93.208,4.996c5.454,0,6.792,4.608,6.792,9.924c0,5.313-1.375,9.922-6.792,9.922
		c-5.453,0-6.79-4.608-6.79-9.922C86.418,9.604,87.79,4.996,93.208,4.996 M96.902,14.92c0-4.083-0.598-7.602-3.765-7.602
		c-2.992,0-3.624,3.519-3.624,7.602c0,4.08,0.599,7.599,3.624,7.599C96.27,22.519,96.902,19,96.902,14.92"/>
</g>
</svg>
