<?xml version="1.0" encoding="utf-8"?>
<!-- Generator: Adobe Illustrator 15.1.0, SVG Export Plug-In . SVG Version: 6.00 Build 0)  -->
<!DOCTYPE svg PUBLIC "-//W3C//DTD SVG 1.1//EN" "http://www.w3.org/Graphics/SVG/1.1/DTD/svg11.dtd">
<svg version="1.1" id="Ebene_1" xmlns="http://www.w3.org/2000/svg" xmlns:xlink="http://www.w3.org/1999/xlink" x="0px" y="0px"
	 width="100px" height="26.667px" viewBox="0 0 100 26.667" enable-background="new 0 0 100 26.667" xml:space="preserve">
<path fill-rule="evenodd" clip-rule="evenodd" fill="#878787" d="M9.641,20.64c-1.422-2.148-2.249-4.728-2.249-7.501
	c0-1.45,0.225-2.848,0.644-4.157C3.785,10.792,0.71,14.73,0,19.373C2.98,21.017,6.432,21.431,9.641,20.64"/>
<path fill-rule="evenodd" clip-rule="evenodd" fill="#878787" d="M26.615,20.268c-0.407-4.679-3.128-8.59-6.927-10.689
	c-0.39,2.551-1.507,5.018-3.363,7.063c-1.859,2.047-4.198,3.384-6.684,3.999c2.404,3.633,6.506,6.026,11.164,6.026
	c1.85,0,3.612-0.377,5.215-1.062C26.556,23.934,26.776,22.132,26.615,20.268"/>
<path fill-rule="evenodd" clip-rule="evenodd" fill="#878787" d="M8.036,8.982c1.258-0.535,2.617-0.884,4.049-1.011
	c2.739-0.241,5.361,0.367,7.604,1.608C20.192,6.285,19.484,2.851,17.596,0C13.074,1.119,9.454,4.55,8.036,8.982"/>
<path fill="#878787" d="M28.889,17.78l1.568-8.889h5.252c1.418,0,2.365,0.246,2.843,0.737c0.477,0.491,0.605,1.355,0.387,2.596
	l-0.98,5.556H28.889 M29.773,17.16h3.365l0.979-5.555h0.115c0.214,0,0.371,0.037,0.47,0.116c0.1,0.079,0.136,0.188,0.111,0.333
	c-0.005,0.021-0.008,0.063-0.014,0.129c-0.007,0.064-0.012,0.116-0.021,0.157l-0.849,4.82h3.355l0.881-4.997
	c0.176-1.003,0.09-1.695-0.26-2.078c-0.35-0.382-1.064-0.574-2.142-0.574h-4.643L29.773,17.16z"/>
<path fill="#878787" d="M43.248,17.78c-1.429,0-2.475-0.393-3.14-1.176c-0.664-0.786-0.875-1.873-0.628-3.264
	c0.247-1.397,0.839-2.489,1.782-3.273c0.94-0.784,2.126-1.176,3.553-1.176c1.428,0,2.477,0.392,3.147,1.176
	c0.67,0.785,0.882,1.876,0.636,3.273c-0.246,1.391-0.842,2.478-1.789,3.264C45.863,17.387,44.675,17.78,43.248,17.78 M43.631,13.502
	h4.188l0.037-0.199c0.209-1.189,0.034-2.123-0.526-2.804c-0.561-0.677-1.434-1.017-2.62-1.017c-1.193,0-2.183,0.341-2.977,1.021
	c-0.792,0.68-1.294,1.627-1.507,2.836c-0.212,1.193-0.039,2.131,0.516,2.812c0.554,0.681,1.424,1.022,2.611,1.022
	c1.034,0,1.933-0.271,2.698-0.814c0.765-0.543,1.304-1.293,1.614-2.251h-3.401l-0.158,0.895c-0.022,0.125-0.074,0.227-0.156,0.305
	c-0.083,0.078-0.178,0.118-0.288,0.118c-0.115,0-0.199-0.039-0.251-0.114c-0.052-0.078-0.065-0.179-0.044-0.309L43.631,13.502z
	 M44.014,11.334c0.021-0.123,0.073-0.225,0.156-0.303c0.082-0.081,0.178-0.119,0.288-0.119c0.105,0,0.187,0.038,0.245,0.111
	c0.058,0.075,0.077,0.168,0.057,0.281l-0.006,0.03l-0.166,0.94h-0.74L44.014,11.334z"/>
<path fill="#878787" d="M50.196,8.888l5.32-2.294L55.11,8.888h1.831l-0.572,3.227h-1.827l-0.971,5.523
	c-0.328,0.043-0.634,0.079-0.92,0.105c-0.285,0.024-0.546,0.036-0.776,0.036c-1.192,0-1.99-0.235-2.393-0.703
	c-0.405-0.47-0.498-1.312-0.286-2.522L50.196,8.888 M52.911,17.077l0.975-5.536h1.831l0.365-2.077h-1.828l0.316-1.801l-3.679,1.581
	l-0.94,5.324c-0.175,0.996-0.115,1.676,0.181,2.044c0.294,0.365,0.884,0.55,1.77,0.55c0.202,0,0.379-0.007,0.542-0.022
	C52.603,17.129,52.758,17.106,52.911,17.077"/>
<path fill="#878787" d="M56.274,17.78l1.979-11.206h4.916L61.191,17.78H56.274 M57.158,17.162h3.37l1.759-9.97h-3.369L57.158,17.162
	z"/>
<path fill="#878787" d="M68.247,8.886c1.431,0,2.479,0.392,3.149,1.176c0.671,0.784,0.883,1.876,0.636,3.273
	c-0.247,1.391-0.844,2.479-1.788,3.265c-0.947,0.783-2.134,1.176-3.564,1.176c-1.428,0-2.472-0.393-3.137-1.176
	c-0.665-0.786-0.875-1.874-0.631-3.265c0.246-1.397,0.841-2.489,1.782-3.273S66.819,8.886,68.247,8.886 M68.144,9.478
	c-1.192,0-2.184,0.34-2.977,1.021c-0.79,0.681-1.293,1.627-1.507,2.836c-0.212,1.193-0.038,2.132,0.518,2.812
	c0.553,0.683,1.423,1.022,2.608,1.022c1.188,0,2.182-0.342,2.981-1.024c0.801-0.685,1.306-1.621,1.514-2.81
	c0.214-1.209,0.042-2.155-0.515-2.836C70.211,9.818,69.336,9.478,68.144,9.478 M68.112,11.846l-0.523,2.966
	c-0.021,0.126-0.076,0.227-0.165,0.31c-0.086,0.08-0.185,0.123-0.297,0.123c-0.114,0-0.198-0.041-0.249-0.12
	c-0.054-0.078-0.067-0.183-0.043-0.313l0.521-2.966c0.022-0.128,0.075-0.231,0.156-0.307c0.082-0.077,0.178-0.114,0.289-0.114
	c0.11,0,0.193,0.038,0.254,0.118C68.114,11.622,68.133,11.724,68.112,11.846"/>
<path fill="#878787" d="M83.272,8.861l-1.329,7.542c-0.289,1.632-0.793,2.748-1.517,3.349c-0.723,0.6-1.888,0.899-3.497,0.899
	c-0.428,0-0.869-0.017-1.32-0.052c-0.45-0.038-0.924-0.096-1.416-0.174l0.483-2.73c-0.818-0.272-1.379-0.74-1.682-1.408
	c-0.305-0.667-0.357-1.559-0.163-2.672c0.188-1.061,0.486-1.93,0.896-2.609c0.408-0.679,0.949-1.202,1.62-1.569
	c0.372-0.207,0.833-0.355,1.383-0.443c0.549-0.087,1.353-0.131,2.41-0.131H83.272 M82.379,9.483h-3.588
	c-0.848,0-1.511,0.041-1.987,0.124c-0.478,0.084-0.87,0.218-1.178,0.404c-0.525,0.312-0.947,0.757-1.273,1.337
	c-0.327,0.58-0.567,1.316-0.722,2.206c-0.232,1.3-0.129,2.25,0.31,2.854c0.435,0.604,1.23,0.905,2.387,0.905
	c0.052,0,0.112-0.002,0.188-0.008c0.075-0.005,0.192-0.017,0.349-0.03l0.873-4.957c0.058-0.32,0.135-0.524,0.235-0.61
	c0.103-0.085,0.273-0.127,0.517-0.127h0.155l-0.942,5.344c-0.076,0.428-0.204,0.693-0.388,0.791
	c-0.184,0.099-0.549,0.147-1.099,0.147c-0.104,0-0.233-0.003-0.383-0.012c-0.15-0.008-0.313-0.018-0.486-0.035l-0.363,2.066
	c0.523,0.056,0.952,0.095,1.279,0.118c0.33,0.019,0.633,0.03,0.907,0.03c1.286,0,2.2-0.217,2.751-0.65
	c0.551-0.431,0.945-1.329,1.186-2.692L82.379,9.483z"/>
<path fill="#878787" d="M82.516,17.78L84.5,6.52h4.942l-1.988,11.26H82.516 M83.401,17.16h3.386l1.356-7.682h-3.387L83.401,17.16z
	 M84.858,8.903h3.388l0.31-1.763h-3.387L84.858,8.903z"/>
<path fill="#878787" d="M88.345,17.78l3.579-4.759l-1.54-4.13H100l-2.623,4.395l1.64,4.495H88.345 M92.755,15.083l0.528-0.797
	l1.034,2.874h3.645l-1.401-3.835l2.282-3.813h-2.945l0.666,1.604l-0.506,0.774l-0.982-2.378h-3.629l1.303,3.495l-3.098,4.154h3.852
	L92.755,15.083z"/>
</svg>
