<?xml version="1.0" encoding="utf-8"?>
<!-- Generator: Adobe Illustrator 15.1.0, SVG Export Plug-In . SVG Version: 6.00 Build 0)  -->
<!DOCTYPE svg PUBLIC "-//W3C//DTD SVG 1.1//EN" "http://www.w3.org/Graphics/SVG/1.1/DTD/svg11.dtd">
<svg version="1.1" id="Ebene_1" xmlns="http://www.w3.org/2000/svg" xmlns:xlink="http://www.w3.org/1999/xlink" x="0px" y="0px"
	 width="100px" height="26.667px" viewBox="0 0 100 26.667" enable-background="new 0 0 100 26.667" xml:space="preserve">
<path fill-rule="evenodd" clip-rule="evenodd" fill="#F5821F" d="M9.641,20.64c-1.421-2.148-2.249-4.727-2.249-7.501
	c0-1.45,0.225-2.848,0.644-4.157C3.786,10.792,0.71,14.73,0,19.372C2.98,21.017,6.432,21.431,9.641,20.64"/>
<path fill-rule="evenodd" clip-rule="evenodd" fill="#006EB7" d="M26.615,20.268c-0.407-4.679-3.128-8.59-6.927-10.689
	c-0.39,2.55-1.506,5.018-3.363,7.063c-1.859,2.046-4.198,3.383-6.684,3.999c2.404,3.634,6.505,6.027,11.164,6.027
	c1.85,0,3.612-0.377,5.215-1.062C26.556,23.934,26.776,22.132,26.615,20.268"/>
<path fill-rule="evenodd" clip-rule="evenodd" fill="#66AE3E" d="M8.036,8.982c1.258-0.535,2.618-0.884,4.049-1.011
	c2.739-0.241,5.361,0.367,7.604,1.608C20.193,6.285,19.484,2.851,17.596,0C13.074,1.119,9.454,4.55,8.036,8.982"/>
<path fill="#161413" d="M28.889,17.528l1.568-8.889h5.252c1.418,0,2.365,0.246,2.843,0.737c0.477,0.491,0.605,1.355,0.387,2.596
	l-0.98,5.557H28.889 M29.773,16.909h3.364l0.979-5.556h0.115c0.214,0,0.372,0.037,0.47,0.116c0.1,0.078,0.136,0.188,0.111,0.333
	c-0.004,0.021-0.008,0.063-0.014,0.129c-0.007,0.064-0.012,0.116-0.021,0.157l-0.85,4.821h3.355l0.882-4.999
	c0.176-1.003,0.09-1.695-0.261-2.077c-0.35-0.382-1.064-0.574-2.141-0.574h-4.643L29.773,16.909z"/>
<path fill="#161413" d="M43.248,17.528c-1.429,0-2.475-0.392-3.139-1.175c-0.665-0.786-0.875-1.873-0.629-3.265
	c0.246-1.396,0.839-2.488,1.782-3.273c0.941-0.784,2.125-1.176,3.554-1.176s2.477,0.392,3.147,1.176
	c0.671,0.785,0.882,1.876,0.636,3.273c-0.246,1.392-0.842,2.479-1.789,3.265C45.863,17.136,44.675,17.528,43.248,17.528
	 M43.631,13.25h4.189l0.036-0.199c0.21-1.188,0.034-2.122-0.525-2.803c-0.562-0.678-1.434-1.017-2.62-1.017
	c-1.192,0-2.183,0.34-2.977,1.021c-0.791,0.68-1.294,1.627-1.507,2.836c-0.212,1.194-0.039,2.132,0.516,2.813
	c0.554,0.681,1.424,1.022,2.611,1.022c1.035,0,1.934-0.271,2.698-0.815c0.765-0.543,1.303-1.292,1.613-2.25h-3.401l-0.158,0.895
	c-0.022,0.125-0.074,0.226-0.156,0.305c-0.082,0.078-0.178,0.118-0.288,0.118c-0.115,0-0.199-0.039-0.251-0.114
	c-0.052-0.078-0.065-0.179-0.044-0.309L43.631,13.25z M44.014,11.082c0.021-0.124,0.073-0.225,0.155-0.303
	c0.082-0.081,0.178-0.119,0.289-0.119c0.105,0,0.187,0.038,0.244,0.111c0.058,0.074,0.078,0.167,0.058,0.281l-0.006,0.03
	l-0.166,0.939h-0.74L44.014,11.082z"/>
<path fill="#161413" d="M50.196,8.638l5.321-2.295L55.11,8.638h1.831l-0.571,3.226h-1.828l-0.972,5.523
	c-0.327,0.042-0.633,0.079-0.919,0.105c-0.286,0.024-0.546,0.036-0.776,0.036c-1.192,0-1.991-0.235-2.393-0.704
	c-0.405-0.469-0.498-1.31-0.286-2.522L50.196,8.638 M52.911,16.825l0.974-5.536h1.831l0.366-2.077h-1.828l0.315-1.801l-3.679,1.582
	l-0.939,5.325c-0.175,0.995-0.116,1.676,0.18,2.043c0.294,0.366,0.885,0.55,1.771,0.55c0.201,0,0.378-0.007,0.542-0.021
	C52.604,16.879,52.758,16.855,52.911,16.825"/>
<path fill="#161413" d="M56.275,17.528l1.978-11.207h4.916l-1.977,11.207H56.275 M57.158,16.911h3.37l1.76-9.971h-3.37
	L57.158,16.911z"/>
<path fill="#161413" d="M68.248,8.634c1.43,0,2.478,0.392,3.148,1.175c0.67,0.785,0.883,1.877,0.636,3.273
	c-0.247,1.392-0.843,2.479-1.788,3.266c-0.948,0.783-2.134,1.174-3.564,1.174c-1.428,0-2.472-0.391-3.137-1.174
	c-0.665-0.787-0.875-1.874-0.631-3.266c0.247-1.396,0.84-2.488,1.782-3.273C65.636,9.026,66.819,8.634,68.248,8.634 M68.145,9.226
	c-1.193,0-2.184,0.34-2.977,1.021c-0.79,0.681-1.292,1.627-1.507,2.836c-0.212,1.194-0.039,2.132,0.517,2.813
	c0.554,0.681,1.424,1.023,2.61,1.023c1.188,0,2.181-0.342,2.981-1.026c0.801-0.684,1.305-1.62,1.514-2.81
	c0.214-1.208,0.042-2.155-0.515-2.836C70.211,9.566,69.336,9.226,68.145,9.226 M68.113,11.595l-0.524,2.967
	c-0.021,0.125-0.076,0.227-0.165,0.31c-0.086,0.081-0.185,0.123-0.296,0.123c-0.115,0-0.199-0.041-0.25-0.12
	c-0.053-0.08-0.067-0.182-0.044-0.313l0.522-2.967c0.023-0.128,0.076-0.231,0.157-0.307c0.082-0.077,0.178-0.114,0.289-0.114
	c0.11,0,0.194,0.038,0.254,0.118C68.115,11.371,68.134,11.472,68.113,11.595"/>
<path fill="#161413" d="M83.273,8.61l-1.33,7.542c-0.289,1.632-0.792,2.748-1.517,3.349c-0.722,0.6-1.888,0.899-3.497,0.899
	c-0.428,0-0.869-0.016-1.32-0.052c-0.45-0.038-0.923-0.096-1.416-0.173l0.483-2.731c-0.818-0.272-1.378-0.739-1.681-1.407
	c-0.305-0.667-0.358-1.559-0.163-2.673c0.188-1.061,0.485-1.93,0.895-2.609c0.408-0.679,0.949-1.202,1.62-1.569
	c0.372-0.207,0.834-0.354,1.383-0.442c0.549-0.087,1.353-0.132,2.411-0.132H83.273 M82.379,9.231h-3.588
	c-0.848,0-1.511,0.042-1.987,0.123c-0.478,0.084-0.87,0.218-1.178,0.404c-0.525,0.311-0.947,0.757-1.273,1.337
	c-0.327,0.58-0.567,1.315-0.723,2.205c-0.231,1.301-0.127,2.251,0.31,2.855c0.435,0.603,1.231,0.905,2.388,0.905
	c0.051,0,0.112-0.001,0.188-0.007c0.076-0.005,0.193-0.017,0.348-0.031l0.874-4.957c0.057-0.32,0.134-0.525,0.234-0.61
	c0.103-0.085,0.274-0.126,0.517-0.126h0.154l-0.941,5.344c-0.076,0.427-0.205,0.693-0.388,0.791
	c-0.183,0.098-0.548,0.148-1.098,0.148c-0.105,0-0.234-0.004-0.383-0.012c-0.15-0.007-0.313-0.018-0.487-0.035l-0.363,2.066
	c0.524,0.056,0.953,0.095,1.28,0.118c0.33,0.019,0.632,0.03,0.906,0.03c1.287,0,2.201-0.217,2.752-0.65
	c0.55-0.431,0.945-1.329,1.186-2.692L82.379,9.231z"/>
<path fill="#161413" d="M82.516,17.529l1.985-11.26h4.942l-1.988,11.26H82.516 M83.401,16.909h3.387l1.356-7.682h-3.387
	L83.401,16.909z M84.858,8.652h3.387l0.31-1.763h-3.386L84.858,8.652z"/>
<path fill="#161413" d="M88.346,17.529l3.578-4.76l-1.54-4.129H100l-2.622,4.394l1.64,4.495H88.346 M92.755,14.832l0.529-0.797
	l1.033,2.875h3.646l-1.402-3.836l2.282-3.813h-2.944l0.666,1.605l-0.507,0.773L95.076,9.26h-3.628l1.302,3.495l-3.098,4.155h3.852
	L92.755,14.832z"/>
</svg>
