<?xml version="1.0" encoding="utf-8"?>
<!DOCTYPE svg PUBLIC "-//W3C//DTD SVG 1.0//EN" "http://www.w3.org/TR/2001/REC-SVG-20010904/DTD/svg10.dtd">
<svg version="1.0" id="Ebene_1" xmlns="http://www.w3.org/2000/svg" xmlns:xlink="http://www.w3.org/1999/xlink" x="0px" y="0px"
	 width="100px" height="59.549px" viewBox="0 0 100 59.549" enable-background="new 0 0 100 59.549" xml:space="preserve">
<g>
	<path fill="#878787" d="M90.977,51.851l-1.211-0.19v-1.29l1.211,0.18V51.851z M100,0.057v59.492H80.967V0.057H100z M88.41,50.146
		v1.302l-1.984-0.314v1.537l1.984,0.313v0.999h1.355v-0.786l1.211,0.179v0.999h1.369v-0.773l2.129,0.336V52.4l-2.129-0.336v-1.3
		l2.129,0.346v-1.535l-2.129-0.336v-0.998h-1.369v0.773l-1.211-0.179v-0.997H88.41v0.773l-1.984-0.302v1.524L88.41,50.146z
		 M91.381,41.816l-4.889,3.162v1.391h7.982V44.81h-4.899l4.899-3.162v-1.39h-7.982v1.558H91.381z M94.543,35.582
		c0-1.637-1.11-2.937-2.804-2.937h-5.247v1.548h5.19c0.92,0,1.47,0.549,1.47,1.389c0,0.842-0.55,1.38-1.47,1.38h-5.19v1.558h5.247
		C93.433,38.52,94.543,37.22,94.543,35.582z M91.527,22.129l-5.034,1.233v1.626l7.982-2.13v-1.301l-4.843-1.469l4.843-1.469v-1.301
		l-7.982-2.143v1.627l5.034,1.244l-5.034,1.457v1.167L91.527,22.129z M91.527,12.184l-5.034,1.233v1.626l7.982-2.131v-1.3
		l-4.843-1.468l4.843-1.47v-1.3l-7.982-2.142v1.625l5.034,1.246L86.493,9.56v1.168L91.527,12.184z M86.493,25.649v5.258h7.982
		v-5.258h-1.39v3.7h-1.94v-3.151h-1.39v3.151h-1.873v-3.7H86.493z M17.305,52.196l-3.634-12.551h-2.908L7.129,52.196L4.054,39.645H0
		l5.313,19.904h3.242l3.662-12.078l3.663,12.078h3.243l5.339-19.904h-4.054L17.305,52.196z M26.951,59.549h13.112v-3.467h-9.227
		v-4.836h7.857v-3.466h-7.857v-4.67h9.227v-3.465H26.951V59.549z M43.863,59.549h13.113v-3.467H47.75v-4.836h7.855v-3.466H47.75
		v-4.67h9.227v-3.465H43.863V59.549z M76.405,39.645h-4.726l-7.017,8.667v-8.667h-3.885v19.904h3.885v-5.982l2.572-3.076
		l5.117,9.058h4.529l-7.074-11.993L76.405,39.645z M66.424,37.575h3.411l7.967-24.042h-3.41L66.424,37.575z M17.305,28.155
		l-3.634-12.552h-2.908L7.129,28.155L4.054,15.603H0l5.313,19.904h3.242l3.662-12.077l3.663,12.077h3.243l5.339-19.904h-4.054
		L17.305,28.155z M26.951,35.506h13.112v-3.465h-9.227v-4.837h7.857v-3.465h-7.857v-4.669h9.227v-3.466H26.951V35.506z
		 M58.289,29.776c0,3.718-2.543,5.73-6.094,5.73h-8.332V15.603h7.996c3.886,0,6.151,2.18,6.151,5.59c0,2.209-1.454,3.634-2.461,4.11
		C56.752,25.862,58.289,27.12,58.289,29.776z M47.75,23.654h3.802c1.65,0,2.572-0.923,2.572-2.293c0-1.37-0.922-2.292-2.572-2.292
		H47.75V23.654z M54.403,29.58c0-1.342-0.837-2.432-2.6-2.432H47.75v4.893h4.054C53.566,32.041,54.403,30.922,54.403,29.58z
		 M18.763,9.678h6.322V8.005h-4.449v-2.33h3.788V4.003h-3.788v-2.25h4.449V0.081h-6.322V9.678z M41.205,5.958l-3.8-5.876h-1.671
		v9.597h1.872v-5.89l3.802,5.89h1.67V0.081h-1.874V5.958z M28.792,9.678h-1.874V0.081h3.761c1.955,0,3.113,1.333,3.113,2.938
		c0,1.348-0.821,2.183-1.752,2.521l2.144,4.138h-2.17L30.139,5.85h-1.347V9.678z M28.792,4.286h1.765
		c0.822,0,1.362-0.525,1.362-1.266c0-0.742-0.54-1.267-1.362-1.267h-1.765V4.286z M74.363,5.904h1.766v0.364
		c0,0.525-0.148,0.957-0.432,1.28c-0.336,0.365-0.781,0.539-1.333,0.539c-0.513,0-0.916-0.162-1.2-0.499
		c-0.376-0.444-0.457-0.822-0.457-2.708c0-1.9,0.106-2.251,0.457-2.697c0.297-0.337,0.702-0.512,1.2-0.512
		c0.931,0,1.496,0.472,1.726,1.402h1.886C77.719,1.401,76.547,0,74.363,0c-1.024,0-1.887,0.351-2.587,1.05
		c-0.418,0.418-0.675,0.891-0.783,1.443c-0.107,0.539-0.162,1.334-0.162,2.387c0,1.051,0.054,1.846,0.162,2.384
		c0.108,0.541,0.365,1.026,0.783,1.443c0.7,0.702,1.563,1.052,2.587,1.052c1.078,0,1.968-0.336,2.708-1.092
		c0.662-0.7,0.918-1.522,0.918-2.924V4.34h-3.626V5.904z M54.185,9.678h6.322V8.005h-4.448v-2.33h3.788V4.003h-3.788v-2.25h4.448
		V0.081h-6.322V9.678z M64.212,9.678H62.34V0.081h3.76c1.954,0,3.115,1.333,3.115,2.938c0,1.348-0.823,2.183-1.753,2.521
		l2.144,4.138h-2.17L65.561,5.85h-1.349V9.678z M64.212,4.286h1.767c0.822,0,1.361-0.525,1.361-1.266
		c0-0.742-0.539-1.267-1.361-1.267h-1.767V4.286z M2.049,3.788l3.801,5.89h1.671V0.081H5.648v5.876L1.847,0.081h-1.67v9.597h1.873
		V3.788z M49.333,9.678h-4.017V0.081h3.855c1.873,0,2.964,1.051,2.964,2.695c0,1.065-0.7,1.753-1.185,1.981
		c0.58,0.27,1.32,0.876,1.32,2.156C52.271,8.707,51.045,9.678,49.333,9.678z M47.189,3.962h1.833c0.795,0,1.241-0.445,1.241-1.104
		c0-0.661-0.445-1.105-1.241-1.105h-1.833V3.962z M49.144,8.005c0.85,0,1.253-0.538,1.253-1.186c0-0.646-0.404-1.173-1.253-1.173
		h-1.955v2.358H49.144z M13.142,9.758c1.968,0,3.532-1.333,3.532-3.369V0.081h-1.861v6.24c0,1.106-0.661,1.766-1.671,1.766
		c-1.011,0-1.658-0.66-1.658-1.766v-6.24H9.611v6.308C9.611,8.425,11.174,9.758,13.142,9.758z"/>
</g>
</svg>
