<svg xmlns="http://www.w3.org/2000/svg" width="740.878" height="147.778" viewBox="0 0 740.878 147.778"><path fill="#0B2659" d="M153.427 15.6h-15.6v23.397h15.6c7.56 0 12.36-4.675 12.36-11.638 0-6.96-4.8-11.76-12.36-11.76m.84 38.402h-16.44v32.16h-16.682V.72h33.122c17.64 0 28.2 12.118 28.2 26.64s-10.56 26.642-28.2 26.642M219.422 25.92L208.622 57h21.243l-10.443-31.08zm19.92 60.242l-5.038-15.122H203.94l-5.16 15.122h-17.4L212.462.72h13.08l31.203 85.44h-17.402zM267.308 86.162V.72h56.284V15.6h-39.604v20.038h33.72v14.88h-33.72v20.765h39.604v14.88"/><g fill="#0B2659"><path d="M363.435 86.883c-12.958 0-22.8-2.76-31.2-11.28l10.8-10.8c5.4 5.4 12.722 7.2 20.645 7.2 9.836 0 15.118-3.72 15.118-10.563 0-2.996-.84-5.518-2.642-7.198-1.674-1.56-3.598-2.402-7.563-3l-10.32-1.44c-7.318-1.08-12.718-3.36-16.56-7.082-4.08-4.078-6.12-9.6-6.12-16.8 0-15.24 11.28-25.92 29.763-25.92 11.762 0 20.28 2.878 27.6 9.96L382.398 20.4c-5.397-5.16-11.88-5.88-17.52-5.88-8.88 0-13.2 4.92-13.2 10.8 0 2.16.718 4.44 2.516 6.122 1.684 1.56 4.44 2.88 7.92 3.358l10.085 1.44c7.796 1.083 12.715 3.242 16.314 6.6 4.563 4.32 6.604 10.56 6.604 18.123 0 16.56-13.803 25.92-31.683 25.92M434.36 86.883c-12.96 0-22.8-2.76-31.2-11.28l10.8-10.8c5.4 5.4 12.72 7.2 20.643 7.2 9.84 0 15.12-3.72 15.12-10.563 0-2.996-.837-5.518-2.642-7.198-1.68-1.56-3.595-2.402-7.558-3l-10.325-1.44c-7.32-1.08-12.716-3.36-16.555-7.082-4.083-4.078-6.123-9.6-6.123-16.8C406.52 10.68 417.8 0 436.282 0c11.76 0 20.28 2.877 27.6 9.96L453.32 20.4c-5.395-5.162-11.88-5.88-17.516-5.88-8.883 0-13.205 4.92-13.205 10.8 0 2.16.72 4.438 2.52 6.12 1.678 1.56 4.442 2.882 7.926 3.36l10.08 1.44c7.8 1.082 12.713 3.24 16.314 6.6 4.56 4.32 6.598 10.56 6.598 18.122 0 16.56-13.796 25.92-31.677 25.92"/></g><path fill="#0B2659" d="M481.77 86.162V.72h16.675v70.563h38.767v14.88M550.775 86.162V.72h56.282V15.6H567.46v20.038h33.716v14.88H567.46v20.765h39.597v14.88M655.78 15.6h-15.72v22.56h15.72c7.32 0 12.124-4.68 12.124-11.28S663.102 15.6 655.78 15.6m12.963 70.562l-16.686-34.078H640.06v34.078h-16.684V.72h33.483c17.4 0 27.722 11.88 27.722 26.16 0 12-7.322 19.442-15.603 22.438l19.078 36.843h-19.315zM0 120.81v4.07h7.227v22.677H11.7V124.88h7.23v-4.07M38.717 120.81v11.21H28.554v-11.21H24.08v26.747h4.474v-11.47h10.163v11.47h4.476V120.81M50.666 120.81v26.747h17.27v-4.068H55.14v-7.402h10.915v-4.03H55.14v-7.18h12.795v-4.068M99.745 120.81v17.86l-11.753-17.86h-4.03v26.747h4.475V129.66l11.68 17.785.073.112h4.03V120.81M111.692 120.81v26.747h17.27v-4.068h-12.795v-7.402h10.915v-4.03h-10.915v-7.18h12.796v-4.068M132.71 120.81v4.07h7.228v22.677h4.475V124.88h7.228v-4.07M180.92 120.81l-4.395 18.045-5.07-18.045h-3.58l-5.07 18.045-4.396-18.045h-4.715l6.986 26.747h3.84l5.127-17.763 5.11 17.586.053.177h3.84l6.985-26.747"/><g fill="#0B2659"><path d="M202.104 142.162c-1 1.036-2.29 1.583-3.73 1.583s-2.733-.547-3.73-1.58c-1.22-1.325-1.482-2.743-1.482-7.982 0-5.21.278-6.71 1.48-8.015.975-1.013 2.266-1.547 3.73-1.547s2.755.535 3.733 1.55c1.284 1.318 1.478 2.98 1.478 8.013 0 5.312-.262 6.73-1.48 7.98m-3.73-21.574c-2.807 0-5.147.918-6.958 2.726-2.617 2.616-2.727 5.223-2.727 10.868 0 5.643.11 8.25 2.727 10.868 1.81 1.808 4.15 2.727 6.958 2.727s5.15-.92 6.96-2.728c2.616-2.618 2.726-5.225 2.726-10.868 0-5.645-.11-8.25-2.728-10.868-1.81-1.808-4.152-2.727-6.96-2.727M219.048 124.88h5.653c2.6 0 4.216 1.487 4.216 3.883 0 2.372-1.615 3.847-4.215 3.847h-5.652v-7.73zm14.344 3.846c0-4.736-3.375-7.917-8.396-7.917h-10.422v26.745h4.475v-11.06h4.578l5.533 11.06h5.204l-6.097-11.708c3.214-1.004 5.125-3.644 5.125-7.12"/></g><path fill="#0B2659" d="M254.673 120.81l-10.367 12.754V120.81h-4.473v26.747h4.473v-7.79l4.142-4.97 7.27 12.76h5.256l-9.534-16.19 8.74-10.557M294.42 120.81l-7.367 15.998-7.51-15.998h-4.385v26.747h4.474V130.83l5.794 11.97h3.26l5.646-11.946v16.703h4.475V120.81M318.702 142.162c-1 1.036-2.29 1.583-3.73 1.583s-2.733-.547-3.73-1.58c-1.22-1.325-1.482-2.743-1.482-7.982 0-5.21.278-6.71 1.48-8.015.976-1.013 2.267-1.547 3.73-1.547s2.756.535 3.734 1.55c1.284 1.318 1.478 2.98 1.478 8.013 0 5.312-.264 6.73-1.48 7.98m-3.732-21.574c-2.808 0-5.148.918-6.96 2.726-2.615 2.616-2.726 5.223-2.726 10.868 0 5.643.11 8.25 2.727 10.868 1.812 1.808 4.152 2.727 6.96 2.727 2.807 0 5.15-.92 6.96-2.728 2.615-2.618 2.726-5.225 2.726-10.868 0-5.645-.11-8.25-2.727-10.868-1.81-1.808-4.153-2.727-6.96-2.727M346.952 120.81v17.86l-11.68-17.75-.074-.11h-4.03v26.747h4.476V129.66l11.68 17.785.073.112h4.03V120.81M358.898 120.81h4.475v26.748h-4.475zM368.523 120.81v4.07h7.227v22.677h4.475V124.88h7.228v-4.07"/><g fill="#0B2659"><path d="M404.323 142.162c-1 1.036-2.29 1.583-3.732 1.583-1.44 0-2.73-.547-3.725-1.58-1.222-1.325-1.485-2.743-1.485-7.982 0-5.21.278-6.71 1.48-8.015.976-1.013 2.265-1.547 3.73-1.547s2.756.535 3.733 1.55c1.285 1.318 1.48 2.982 1.48 8.013 0 5.31-.263 6.73-1.48 7.98m-3.732-21.574c-2.806 0-5.146.918-6.957 2.726-2.617 2.616-2.727 5.223-2.727 10.868 0 5.643.11 8.25 2.727 10.868 1.81 1.808 4.15 2.727 6.958 2.727s5.15-.92 6.96-2.728c2.616-2.616 2.727-5.223 2.727-10.868 0-5.646-.11-8.25-2.727-10.868-1.81-1.808-4.152-2.727-6.96-2.727M421.267 124.88h5.654c2.6 0 4.216 1.487 4.216 3.883 0 2.372-1.615 3.847-4.215 3.847h-5.653v-7.73zm14.343 3.846c0-4.736-3.374-7.917-8.395-7.917h-10.423v26.745h4.474v-11.06h4.58l5.464 10.924.066.135h5.205l-6.096-11.708c3.217-1.004 5.126-3.644 5.126-7.12"/></g><path fill="#0B2659" d="M442.052 120.81h4.473v26.748h-4.473zM469.78 120.81v17.86l-11.68-17.75-.072-.11h-4.03v26.747h4.474V129.66l11.68 17.785.074.112h4.03V120.81"/><g fill="#0B2659"><path d="M490.21 136.753h5.603v1.23c0 1.762-.38 2.986-1.23 3.97-.982 1.157-2.45 1.795-4.128 1.795-1.466 0-2.755-.536-3.727-1.545-1.207-1.31-1.484-2.807-1.484-8.02 0-5.21.277-6.708 1.48-8.014.976-1.012 2.265-1.548 3.73-1.548 2.76 0 4.64 1.555 5.292 4.38l.043.192h4.466l-.046-.284c-.793-5.054-4.623-8.32-9.756-8.32-2.808 0-5.147.92-6.96 2.73-2.608 2.645-2.726 5.393-2.726 10.865 0 5.47.117 8.22 2.727 10.868 1.812 1.81 4.15 2.727 6.96 2.727 2.99 0 5.48-1.03 7.408-3.067 1.744-1.893 2.424-4.018 2.424-7.578v-4.264h-10.08v3.883zM525.448 124.62c2.616 0 4.465 1.584 5.07 4.343l.042.194h4.547l-.05-.29c-.92-5.183-4.513-8.28-9.61-8.28-2.807 0-5.146.92-6.958 2.73-2.61 2.645-2.73 5.395-2.73 10.865s.118 8.22 2.73 10.868c1.81 1.81 4.15 2.727 6.958 2.727 5.097 0 8.69-3.095 9.608-8.278l.05-.29h-4.47l-.045.19c-.642 2.762-2.517 4.346-5.143 4.346-1.48 0-2.754-.534-3.693-1.547-1.248-1.316-1.518-2.743-1.518-8.018s.27-6.7 1.52-8.02c.938-1.007 2.214-1.54 3.692-1.54M553.073 142.162c-1 1.036-2.29 1.583-3.73 1.583s-2.732-.547-3.727-1.58c-1.223-1.325-1.485-2.743-1.485-7.982 0-5.21.28-6.71 1.48-8.015.977-1.013 2.266-1.547 3.732-1.547 1.466 0 2.755.535 3.73 1.55 1.286 1.318 1.48 2.982 1.48 8.013.002 5.31-.26 6.73-1.48 7.98m-3.73-21.574c-2.807 0-5.147.918-6.958 2.726-2.617 2.616-2.728 5.223-2.728 10.868 0 5.643.11 8.25 2.728 10.868 1.81 1.808 4.15 2.727 6.96 2.727 2.806 0 5.146-.92 6.957-2.728 2.618-2.616 2.73-5.223 2.73-10.868 0-5.646-.11-8.25-2.73-10.868-1.81-1.808-4.15-2.727-6.957-2.727"/></g><path fill="#0B2659" d="M584.807 120.81l-7.368 15.998-7.447-15.856-.065-.142h-4.384v26.747h4.475V130.83l5.793 11.97h3.26l5.645-11.946v16.703h4.474V120.81M601.103 124.88h5.508c2.756 0 4.4 1.547 4.4 4.14 0 2.555-1.687 4.142-4.4 4.142h-5.507v-8.283zm5.728-4.07h-10.2v26.746h4.473v-10.36h5.73c5.093 0 8.652-3.362 8.652-8.175 0-4.834-3.56-8.21-8.654-8.21M627.513 127.745l3.643 10.653h-7.383l3.74-10.653zm-1.864-6.935l-9.804 26.748h4.766l1.808-5.273h10.01l1.808 5.273h4.768l-9.746-26.585-.06-.163h-3.55zM659.02 120.81v17.86l-11.68-17.75-.072-.11h-4.03v26.747h4.474V129.66l11.68 17.785.073.112h4.03V120.81M683.154 120.81l-5.34 11.217-5.34-11.217h-4.906l8.01 15.755v10.992h4.472v-10.992l8.01-15.755"/><g fill="#0B2659"><path d="M41.736 31.516c0 5.976-4.845 10.82-10.82 10.82-5.98 0-10.823-4.844-10.823-10.82 0-5.978 4.844-10.822 10.822-10.822 5.977 0 10.82 4.844 10.82 10.822m7.064 0c0-9.878-8.008-17.885-17.884-17.885-9.878 0-17.885 8.008-17.885 17.886 0 9.877 8.008 17.884 17.886 17.884 9.876 0 17.883-8.007 17.883-17.884m29.507 47.606H7.077l-.004-13.578s9.27 6.954 23.027 6.954c22.936 0 41.53-18.593 41.53-41.53 0-8.535-2.25-15.858-6.992-23.1l13.668.022v71.232zM64.622 30.97c0 19.064-15.455 34.52-34.522 34.52-8.376 0-16.91-3.206-23.02-8.8-.002-.127-.002-48.8-.002-48.8l48.72.006c-.002 0 8.824 8.688 8.824 23.073M85.408.707H0v85.408h85.408V.708zM726.793 14.888c0 1.625-1.28 2.906-3.152 2.906h-3.25v-5.812h3.25c1.872 0 3.153 1.28 3.153 2.906m3.99 13.347l-4.287-8.126c2.118-.74 3.794-2.514 3.794-5.222 0-3.2-2.562-5.91-6.206-5.91h-7.24v19.257h3.546V20.6h2.462l3.94 7.635h3.99zm6.5-9.604c0 8.126-6.255 14.53-14.233 14.53s-14.283-6.403-14.283-14.53 6.305-14.528 14.283-14.528 14.232 6.404 14.232 14.53m3.596 0c0-9.85-7.98-17.83-17.828-17.83-9.85 0-17.828 7.98-17.828 17.83s7.978 17.827 17.828 17.827 17.828-7.98 17.828-17.83"/></g></svg>