<?xml version="1.0" encoding="utf-8"?>
<!-- Generator: Adobe Illustrator 15.1.0, SVG Export Plug-In . SVG Version: 6.00 Build 0)  -->
<!DOCTYPE svg PUBLIC "-//W3C//DTD SVG 1.1//EN" "http://www.w3.org/Graphics/SVG/1.1/DTD/svg11.dtd">
<svg version="1.1" id="Ebene_1" xmlns="http://www.w3.org/2000/svg" xmlns:xlink="http://www.w3.org/1999/xlink" x="0px" y="0px"
	 width="606.293px" height="643.132px" viewBox="499.075 17.284 606.293 643.132"
	 enable-background="new 499.075 17.284 606.293 643.132" xml:space="preserve">
<path fill="#878787" d="M737.756,499.858c-19.69,0-34.935,15.879-34.935,34.933c0,19.69,15.879,34.935,34.935,34.935
	c19.054,0,34.297-15.244,34.933-34.935C772.689,515.101,756.81,499.858,737.756,499.858z"/>
<path fill="#878787" d="M746.012,308.047c22.865,0,41.92-17.784,41.92-40.016s-19.055-40.014-41.92-40.014
	c-23.5,0-41.919,17.782-41.919,40.014S723.147,308.047,746.012,308.047z"/>
<path fill="#878787" d="M964.502,364.573c23.5,0,41.92-17.784,41.92-40.014c0-22.231-19.056-40.016-41.92-40.016
	c-23.5,0-41.92,17.785-41.92,40.016C922.582,346.789,941.637,364.573,964.502,364.573z"/>
<path fill="#878787" d="M499.575,17.784v642.132h605.293V17.784H499.575z M964.502,252.152c10.162,0,20.324,1.906,29.852,5.717
	l12.068,48.271V196.26v-0.637h34.298c0,0,0,128.3,0,128.936c0,40.013-34.298,72.406-76.218,72.406s-76.218-32.393-76.218-72.406
	C888.284,284.545,922.582,252.152,964.502,252.152z M878.123,265.49l-5.082,31.122v0.635l-8.892,48.272
	c-5.717,19.689-20.325,42.555-43.825,48.271c-9.526,2.541-24.136,5.718-39.379,4.446v-31.122c13.973,0,30.487-1.271,40.649-13.974
	c7.621-8.257,9.526-19.054,11.433-29.217l0.635-3.812c1.271-6.352,3.177-13.973,4.446-23.5l0.635-3.813
	c4.446-41.283,9.527-84.474,55.894-94.001c14.607-1.904,26.041-2.541,38.108-1.904v31.757c-13.339-0.635-29.853-0.635-41.284,9.527
	C884.475,244.53,880.028,253.421,878.123,265.49z M550.388,306.14c1.905-113.057,107.975-210.868,252.151-226.112
	c84.476-8.892,164.504,12.703,224.842,53.352l-16.515,30.486c-55.256-41.919-131.474-65.42-212.772-59.703
	c-135.921,8.893-238.815,96.542-246.437,201.978C550.388,308.047,550.388,306.14,550.388,306.14z M660.903,574.174
	c-10.162,13.338-26.676,21.595-47,20.324h-23.501l-7.621-21.595h29.853c11.432,0,20.96-5.082,25.406-13.974
	c4.444-6.986,1.904-19.689-3.177-26.041c-4.446-5.081-10.163-8.256-16.515-9.527c-1.906-0.635-4.446-0.635-6.352-0.635H581.51
	v12.067c0,18.42,0,41.284,0,59.703h-27.946v-59.703V429.359l50.177-0.636c27.311,1.27,42.555,10.163,51.446,26.041
	c6.986,12.703,6.986,36.204-3.812,47.001c-1.904,2.541-4.445,5.081-6.986,6.986c7.622,4.445,14.607,10.798,18.42,18.42
	C670.43,540.51,669.795,563.375,660.903,574.174z M669.795,268.666c0-40.013,34.298-72.405,76.217-72.405
	c41.92,0,76.218,32.392,76.218,72.406s-34.298,72.407-76.218,72.407c-10.163,0-20.325-1.904-29.853-5.717l-12.066-48.271v110.516
	h-34.298C669.795,397.601,669.795,269.302,669.795,268.666z M800,543.684v51.446h-28.582v-7.621v-5.717v-26.677
	c0,0-5.718,24.771-8.258,36.838c-7.621,3.813-16.513,5.718-25.404,5.718c-34.299,0-62.245-27.946-62.245-62.244
	s27.946-62.244,62.245-62.244c34.297,0,62.879,27.31,62.244,62.244V543.684z M926.394,595.766h-28.582v-69.231
	c0-29.217-30.487-26.041-29.851-26.04c-10.799,0.637-20.325,6.987-24.771,15.88c-1.27,3.176-1.905,6.351-2.541,10.161v1.271v67.325
	h-28.581V473.819h28.581v43.189l0.636-2.54c3.177-11.433,5.081-23.5,7.621-35.568c6.353-4.446,13.975-5.081,20.96-5.716
	c0,0,55.893-5.081,56.528,51.446V595.766z M1019.123,595.766l-52.717-65.42v65.42h-28.581V433.17h28.581v89.555l45.096-48.906
	h33.662L998.8,526.535l55.258,69.231H1019.123z"/>
<path fill="#878787" d="M603.74,452.223H581.51v49.541h30.486c0.636,0,1.905,0,2.54,0c22.23-3.811,19.689-27.946,19.689-27.946
	C634.226,450.318,603.74,452.223,603.74,452.223z"/>
</svg>
