<?xml version="1.0" encoding="utf-8"?>
<!-- Generator: Adobe Illustrator 15.1.0, SVG Export Plug-In . SVG Version: 6.00 Build 0)  -->
<!DOCTYPE svg PUBLIC "-//W3C//DTD SVG 1.1//EN" "http://www.w3.org/Graphics/SVG/1.1/DTD/svg11.dtd">
<svg version="1.1" id="Ebene_1" xmlns="http://www.w3.org/2000/svg" xmlns:xlink="http://www.w3.org/1999/xlink" x="0px" y="0px"
	 width="100px" height="10.664px" viewBox="0 0 100 10.664" enable-background="new 0 0 100 10.664" xml:space="preserve">
<g>
	<path fill="#878787" d="M49.295,2.041C49,1.706,48.605,1.435,48.112,1.228c-0.493-0.207-1.055-0.311-1.686-0.311
		c-0.927,0-1.603,0.174-2.026,0.525c-0.424,0.35-0.636,0.826-0.636,1.427c0,0.315,0.056,0.574,0.17,0.776
		c0.113,0.202,0.288,0.376,0.524,0.525c0.237,0.148,0.54,0.276,0.91,0.385c0.37,0.108,0.806,0.216,1.309,0.325
		c0.562,0.118,1.067,0.251,1.516,0.399c0.449,0.148,0.831,0.332,1.146,0.555c0.315,0.222,0.557,0.49,0.725,0.806
		c0.168,0.316,0.251,0.71,0.251,1.183c0,0.484-0.094,0.903-0.281,1.258c-0.187,0.355-0.449,0.651-0.783,0.887
		c-0.336,0.237-0.735,0.411-1.198,0.524s-0.971,0.171-1.523,0.171c-1.627,0-3.032-0.508-4.215-1.524l0.518-0.842
		c0.187,0.197,0.411,0.384,0.673,0.562c0.261,0.177,0.552,0.332,0.873,0.466c0.32,0.132,0.663,0.235,1.028,0.31
		c0.365,0.074,0.749,0.111,1.153,0.111c0.838,0,1.491-0.15,1.959-0.451c0.468-0.301,0.702-0.757,0.702-1.369
		c0-0.325-0.066-0.598-0.199-0.821c-0.133-0.221-0.333-0.414-0.599-0.576c-0.266-0.163-0.596-0.303-0.991-0.421
		s-0.853-0.237-1.375-0.355c-0.553-0.127-1.035-0.261-1.449-0.399c-0.414-0.137-0.764-0.311-1.05-0.518
		c-0.287-0.207-0.5-0.457-0.644-0.747c-0.143-0.291-0.215-0.648-0.215-1.072c0-0.482,0.092-0.915,0.274-1.293
		c0.182-0.38,0.441-0.696,0.776-0.947c0.335-0.251,0.73-0.443,1.183-0.577C45.386,0.066,45.889,0,46.441,0
		c0.7,0,1.324,0.106,1.871,0.318c0.547,0.213,1.043,0.51,1.486,0.895L49.295,2.041"/>
	<path fill="#878787" d="M51.043,5.25c0-0.631,0.111-1.259,0.333-1.885c0.222-0.627,0.544-1.186,0.969-1.679
		c0.423-0.493,0.946-0.895,1.567-1.206c0.621-0.311,1.326-0.465,2.115-0.465c0.937,0,1.738,0.213,2.403,0.636
		c0.666,0.424,1.156,0.976,1.471,1.656L59.089,2.81c-0.168-0.345-0.373-0.636-0.614-0.873c-0.242-0.237-0.5-0.43-0.777-0.576
		c-0.275-0.148-0.562-0.254-0.857-0.319c-0.296-0.064-0.587-0.095-0.873-0.095c-0.631,0-1.188,0.127-1.67,0.384
		c-0.483,0.256-0.89,0.592-1.221,1.006s-0.579,0.88-0.747,1.397c-0.167,0.517-0.251,1.042-0.251,1.574
		c0,0.583,0.101,1.14,0.303,1.672c0.202,0.532,0.478,1.004,0.829,1.413c0.35,0.409,0.764,0.734,1.242,0.976
		c0.478,0.241,0.999,0.362,1.561,0.362c0.295,0,0.599-0.038,0.909-0.112c0.311-0.074,0.612-0.191,0.902-0.354
		c0.291-0.164,0.56-0.365,0.806-0.606c0.246-0.242,0.453-0.536,0.621-0.88l0.857,0.443c-0.168,0.395-0.404,0.742-0.709,1.043
		c-0.306,0.299-0.646,0.553-1.021,0.761c-0.375,0.207-0.771,0.366-1.19,0.474c-0.419,0.108-0.831,0.163-1.235,0.163
		c-0.72,0-1.38-0.158-1.981-0.473c-0.601-0.317-1.119-0.728-1.553-1.236c-0.434-0.507-0.771-1.084-1.014-1.73
		C51.164,6.579,51.043,5.921,51.043,5.25"/>
	<polyline fill="#878787" points="69.706,0.015 69.706,10.646 68.672,10.646 68.672,5.674 62.369,5.674 62.369,10.646 61.32,10.646
		61.32,0.015 62.369,0.015 62.369,4.746 68.672,4.746 68.672,0.015 69.706,0.015 	"/>
	<polyline fill="#878787" points="92.804,10.646 92.804,0 93.853,0 93.853,9.716 100,9.716 100,10.646 92.804,10.646 	"/>
	<path fill="#878787" d="M89.215,0.958c0.782,0,1.418,0.637,1.418,1.419v5.905c0,0.782-0.636,1.419-1.418,1.419H73.294
		c-0.783,0-1.419-0.637-1.419-1.419V2.377c0-0.782,0.636-1.419,1.419-1.419H89.215 M89.215,0H73.294
		c-1.308,0-2.377,1.07-2.377,2.377v5.905c0,1.308,1.07,2.377,2.377,2.377h15.921c1.307,0,2.377-1.069,2.377-2.377V2.377
		C91.592,1.07,90.522,0,89.215,0z"/>
	<path fill="#878787" d="M77.002,8.316L74.5,8.313l0.002-1.875l-1.351-0.001l2.617-2.373l2.612,2.378l-1.375-0.001L77.002,8.316
		 M74.864,7.949l1.774,0.002l0.002-1.875l0.797,0l-1.67-1.521l-1.674,1.517l0.773,0.001L74.864,7.949z"/>
	<path fill="#878787" d="M77.122,8.436l-2.743-0.003l0.002-1.875l-1.541-0.002l2.927-2.653l2.921,2.661l-1.565-0.002L77.122,8.436
		 M74.619,8.194l2.263,0.002l0.002-1.875l1.185,0.001l-2.302-2.097l-2.307,2.091l1.161,0.001L74.619,8.194z M76.758,8.071
		l-2.014-0.002l0.002-1.875l-0.963-0.001l1.984-1.798l1.98,1.803L76.76,6.197L76.758,8.071z M74.984,7.83l1.535,0.002l0.002-1.875
		l0.607,0l-1.361-1.239l-1.363,1.236l0.583,0L74.984,7.83z"/>
	<path fill="#878787" d="M7.019,3.494c-0.294-0.176-0.597-0.332-0.91-0.47C5.845,2.907,5.548,2.797,5.22,2.694
		C4.892,2.592,4.572,2.541,4.259,2.541c-0.255,0-0.458,0.038-0.609,0.117c-0.152,0.079-0.228,0.21-0.228,0.396
		c0,0.138,0.043,0.25,0.132,0.337c0.088,0.088,0.215,0.17,0.382,0.243c0.166,0.074,0.37,0.145,0.609,0.213
		c0.24,0.069,0.512,0.151,0.815,0.25c0.479,0.147,0.913,0.309,1.299,0.485c0.387,0.175,0.717,0.384,0.992,0.624
		c0.273,0.24,0.484,0.531,0.631,0.874c0.147,0.343,0.22,0.759,0.22,1.249c0,0.626-0.115,1.152-0.345,1.577
		c-0.23,0.427-0.534,0.767-0.91,1.021c-0.377,0.256-0.803,0.438-1.278,0.551c-0.475,0.112-0.952,0.169-1.432,0.169
		c-0.381,0-0.773-0.03-1.174-0.088c-0.402-0.058-0.8-0.142-1.197-0.25C1.77,10.2,1.388,10.072,1.021,9.925
		C0.654,9.779,0.314,9.612,0,9.427l1.234-2.512c0.342,0.216,0.7,0.406,1.072,0.574C2.619,7.636,2.974,7.767,3.37,7.884
		c0.396,0.118,0.8,0.177,1.211,0.177c0.313,0,0.531-0.042,0.654-0.125c0.122-0.083,0.183-0.192,0.183-0.33
		c0-0.147-0.061-0.271-0.183-0.374C5.113,7.129,4.944,7.038,4.729,6.959C4.513,6.882,4.266,6.803,3.987,6.725
		c-0.279-0.079-0.576-0.172-0.889-0.28c-0.46-0.156-0.857-0.325-1.189-0.506c-0.333-0.18-0.607-0.386-0.822-0.617
		C0.872,5.093,0.712,4.831,0.609,4.537C0.507,4.244,0.455,3.905,0.455,3.524c0-0.577,0.105-1.086,0.316-1.527
		c0.21-0.441,0.497-0.808,0.858-1.102c0.362-0.293,0.776-0.516,1.241-0.668C3.335,0.075,3.828,0,4.347,0
		C4.729,0,5.1,0.037,5.463,0.11c0.362,0.073,0.712,0.167,1.05,0.278C6.85,0.502,7.166,0.624,7.459,0.756
		C7.753,0.888,8.018,1.014,8.252,1.13L7.019,3.494"/>
	<polyline fill="#878787" points="19.13,0 19.13,10.646 16.207,10.646 16.207,6.477 12.637,6.477 12.637,10.646 9.713,10.646
		9.713,0 12.637,0 12.637,3.928 16.207,3.928 16.207,0 19.13,0 	"/>
	<rect x="20.342" fill="#878787" width="2.924" height="10.646"/>
	<polyline fill="#878787" points="24.477,10.659 24.477,0 31.79,0 31.79,2.551 27.405,2.551 27.405,4.323 30.979,4.323
		30.979,6.696 27.405,6.696 27.405,10.659 24.477,10.659 	"/>
	<polyline fill="#878787" points="41.83,2.552 38.766,2.552 38.766,10.664 35.837,10.664 35.837,2.552 32.758,2.552 32.758,0
		41.83,0 41.83,2.552 	"/>
</g>
</svg>
