<?xml version="1.0" encoding="utf-8"?>
<!DOCTYPE svg PUBLIC "-//W3C//DTD SVG 1.0//EN" "http://www.w3.org/TR/2001/REC-SVG-20010904/DTD/svg10.dtd">
<svg version="1.0" id="Ebene_1" xmlns="http://www.w3.org/2000/svg" xmlns:xlink="http://www.w3.org/1999/xlink" x="0px" y="0px"
	 width="100px" height="20.876px" viewBox="0 0 100 20.876" enable-background="new 0 0 100 20.876" xml:space="preserve">
<g>
	<g>
		<defs>
			<rect id="SVGID_1_" width="100" height="20.876"/>
		</defs>
		<clipPath id="SVGID_2_">
			<use xlink:href="#SVGID_1_"  overflow="visible"/>
		</clipPath>
		<path clip-path="url(#SVGID_2_)" fill="#00628B" d="M81.699,10.419c2.455-3.375,5.436-8.071,11.48-9.634
			c0.009-0.002,0.018-0.005,0.028-0.008c0.855-0.22,1.584-0.375,2.247-0.483c1.15-0.187,2.102-0.229,3.167-0.208
			c0.316,0.006,0.642,0.019,0.985,0.034c0.127,0.006,0.256,0.012,0.388,0.02c-0.639-0.017-1.228-0.013-1.806,0.02
			c-0.074,0.005-0.148,0.008-0.222,0.014c-1.372,0.097-2.707,0.368-4.531,0.95c-5.34,1.704-7.777,6.006-10.06,9.315h-1.691
			C81.688,10.433,81.694,10.426,81.699,10.419"/>
		<path clip-path="url(#SVGID_2_)" fill="#00628B" d="M62.944,20.582c1.196-0.081,2.438-0.193,3.599-0.336
			c1.55-0.191,2.953-0.438,3.899-0.739c5.513-1.759,8.808-5.77,11.235-9.069h1.712c-0.083,0.115-0.166,0.228-0.248,0.34
			c-2.459,3.38-6.017,7.656-12.082,9.207c-2.956,0.755-7.973,0.892-11.283,0.805C60.842,20.812,61.794,20.769,62.944,20.582"/>
		<path clip-path="url(#SVGID_2_)" fill="#00628B" d="M76.694,10.419c-2.456-3.375-5.436-8.071-11.479-9.634
			c-0.011-0.002-0.019-0.005-0.028-0.008c-0.855-0.22-1.584-0.375-2.248-0.483c-1.149-0.187-2.102-0.229-3.167-0.208
			c-0.314,0.006-0.64,0.019-0.983,0.034c-0.127,0.006-0.256,0.012-0.389,0.02c0.64-0.017,1.229-0.013,1.806,0.02
			c0.074,0.005,0.149,0.008,0.222,0.014c1.373,0.097,2.708,0.368,4.531,0.95c5.341,1.704,7.777,6.006,10.059,9.315h1.692
			C76.703,10.433,76.698,10.426,76.694,10.419"/>
		<path clip-path="url(#SVGID_2_)" fill="#00628B" d="M95.454,0.295c-1.196,0.081-2.438,0.193-3.599,0.336
			c-1.55,0.191-2.954,0.438-3.9,0.74c-5.513,1.759-8.809,5.77-11.235,9.068h-1.713c0.084-0.114,0.167-0.228,0.249-0.34
			c2.459-3.38,6.017-7.656,12.084-9.206C90.295,0.136,95.311,0,98.621,0.087C97.556,0.065,96.604,0.108,95.454,0.295"/>
		<path clip-path="url(#SVGID_2_)" fill="#00628B" d="M62.938,0.295c1.197,0.081,2.439,0.193,3.6,0.336
			c1.549,0.191,2.953,0.438,3.9,0.74c5.512,1.759,8.807,5.77,11.234,9.068h1.712c-0.083-0.114-0.166-0.228-0.248-0.34
			c-2.458-3.38-6.017-7.656-12.083-9.206C68.098,0.136,63.082,0,59.771,0.087C60.836,0.065,61.789,0.108,62.938,0.295"/>
		<path clip-path="url(#SVGID_2_)" fill="#00628B" d="M95.46,20.582c-1.196-0.081-2.438-0.193-3.598-0.336
			c-1.551-0.191-2.954-0.438-3.9-0.739c-5.512-1.759-8.808-5.77-11.235-9.069h-1.711c0.083,0.115,0.166,0.228,0.248,0.34
			c2.459,3.38,6.018,7.656,12.083,9.207c2.956,0.755,7.971,0.892,11.282,0.805C97.562,20.812,96.61,20.769,95.46,20.582"/>
		<path clip-path="url(#SVGID_2_)" fill="#00628B" d="M81.704,10.458c2.456,3.374,5.437,8.07,11.48,9.633
			c0.009,0.001,0.019,0.005,0.028,0.007c0.856,0.22,1.584,0.375,2.248,0.483c1.15,0.187,2.102,0.23,3.167,0.208
			c0.315-0.007,0.641-0.019,0.984-0.035c0.127-0.006,0.256-0.012,0.389-0.019c-0.64,0.017-1.228,0.013-1.807-0.02
			c-0.074-0.004-0.148-0.008-0.222-0.014c-1.373-0.097-2.708-0.367-4.531-0.949c-5.34-1.704-7.777-6.006-10.058-9.315H81.69
			C81.695,10.444,81.699,10.451,81.704,10.458"/>
		<path clip-path="url(#SVGID_2_)" fill="#00628B" d="M76.7,10.458c-2.457,3.374-5.436,8.07-11.481,9.633
			c-0.009,0.001-0.018,0.005-0.027,0.007c-0.856,0.22-1.584,0.375-2.248,0.483c-1.15,0.187-2.102,0.23-3.168,0.208
			c-0.315-0.007-0.641-0.019-0.983-0.035c-0.127-0.006-0.256-0.012-0.389-0.019c0.639,0.017,1.229,0.013,1.807-0.02
			c0.073-0.004,0.149-0.008,0.222-0.014c1.372-0.097,2.707-0.367,4.53-0.949c5.341-1.704,7.778-6.006,10.059-9.315h1.692
			C76.709,10.444,76.705,10.451,76.7,10.458"/>
		<path clip-path="url(#SVGID_2_)" fill="#0095D4" d="M93.212,20.098c-0.009-0.002-0.019-0.005-0.028-0.007
			c-0.65-0.144-1.286-0.312-1.902-0.508c-5.514-1.758-8.759-5.839-11.182-9.145h-0.005c2.423-3.306,5.668-7.385,11.181-9.144
			c0.618-0.196,1.253-0.365,1.903-0.508c0.009-0.002,0.018-0.005,0.028-0.008c0.856-0.22,1.584-0.374,2.247-0.482
			c-1.196,0.081-2.438,0.193-3.599,0.336c-0.384,0.078-0.766,0.164-1.141,0.261c-5.615,1.44-9.083,5.209-11.517,8.444
			c-2.436-3.235-5.904-7.004-11.52-8.444c-0.375-0.097-0.756-0.183-1.141-0.261c-1.16-0.143-2.402-0.255-3.599-0.336
			c0.664,0.108,1.393,0.263,2.248,0.482c0.01,0.003,0.018,0.006,0.028,0.008c0.649,0.144,1.286,0.312,1.903,0.508
			c5.512,1.759,8.759,5.839,11.181,9.145h0.005c-2.423,3.305-5.668,7.385-11.18,9.144c-0.617,0.197-1.254,0.365-1.904,0.508
			c-0.008,0.002-0.018,0.005-0.027,0.007c-0.856,0.22-1.584,0.375-2.248,0.483c1.196-0.081,2.438-0.193,3.598-0.336
			c0.385-0.078,0.766-0.164,1.141-0.26c5.616-1.441,9.084-5.21,11.519-8.444c2.436,3.233,5.903,7.002,11.519,8.444
			c0.376,0.096,0.756,0.182,1.141,0.26c1.16,0.143,2.402,0.255,3.599,0.336C94.797,20.474,94.068,20.318,93.212,20.098"/>
		<path clip-path="url(#SVGID_2_)" fill="#878787" d="M8.347,11.91c0,0.702-0.117,1.334-0.352,1.897
			c-0.234,0.563-0.565,1.042-0.993,1.436c-0.428,0.396-0.94,0.7-1.535,0.912c-0.595,0.211-1.254,0.318-1.976,0.318
			c-0.683,0-1.332-0.077-1.946-0.23C0.929,16.089,0.414,15.888,0,15.64l0.602-1.646c0.334,0.205,0.752,0.384,1.254,0.538
			c0.501,0.153,1.026,0.23,1.575,0.23c0.923,0,1.678-0.241,2.268-0.725c0.588-0.482,0.883-1.162,0.883-2.04
			c0-0.395-0.074-0.747-0.221-1.053c-0.147-0.307-0.345-0.578-0.592-0.812C5.521,9.899,5.236,9.69,4.916,9.507
			C4.594,9.325,4.267,9.153,3.933,8.992c-0.455-0.22-0.907-0.461-1.354-0.725C2.13,8.004,1.726,7.697,1.364,7.346
			c-0.361-0.352-0.656-0.764-0.883-1.24C0.254,5.631,0.14,5.064,0.14,4.406s0.11-1.254,0.331-1.788
			c0.221-0.534,0.525-0.987,0.913-1.36C1.772,0.885,2.24,0.6,2.789,0.402c0.548-0.198,1.157-0.296,1.826-0.296
			c0.668,0,1.277,0.08,1.826,0.241C6.989,0.509,7.437,0.706,7.785,0.94L7.203,2.498C6.922,2.322,6.554,2.154,6.099,1.993
			c-0.455-0.161-0.93-0.242-1.424-0.242c-0.816,0-1.485,0.224-2.006,0.669C2.146,2.867,1.886,3.5,1.886,4.319
			c0,0.395,0.081,0.742,0.241,1.042c0.16,0.3,0.374,0.57,0.642,0.812S3.337,6.63,3.671,6.819C4.005,7.01,4.347,7.192,4.695,7.369
			c0.428,0.205,0.859,0.431,1.294,0.68c0.435,0.249,0.826,0.548,1.174,0.899c0.348,0.352,0.632,0.769,0.853,1.251
			C8.236,10.681,8.347,11.251,8.347,11.91"/>
		<path clip-path="url(#SVGID_2_)" fill="#878787" d="M12.408,2.125c0,0.283-0.104,0.526-0.311,0.728
			c-0.208,0.203-0.458,0.304-0.752,0.304c-0.294,0-0.545-0.101-0.752-0.304c-0.208-0.202-0.311-0.445-0.311-0.728
			s0.104-0.529,0.311-0.739c0.207-0.208,0.458-0.313,0.752-0.313c0.294,0,0.545,0.104,0.752,0.313
			C12.304,1.595,12.408,1.841,12.408,2.125 M10.524,5.346h1.665V16.25h-1.665V5.346z"/>
		<rect x="14.632" y="0.368" clip-path="url(#SVGID_2_)" fill="#878787" width="1.665" height="15.882"/>
		<path clip-path="url(#SVGID_2_)" fill="#878787" d="M27.367,10.585c0,1.025-0.127,1.909-0.381,2.65
			c-0.254,0.741-0.612,1.353-1.074,1.832c-0.461,0.479-1.01,0.832-1.645,1.062c-0.635,0.229-1.334,0.344-2.097,0.344
			c-0.669,0-1.304-0.075-1.906-0.223c-0.602-0.147-1.11-0.33-1.524-0.546V0.368h1.685v5.301c0.281-0.135,0.622-0.25,1.023-0.344
			s0.809-0.142,1.224-0.142c0.695,0,1.33,0.125,1.906,0.375c0.575,0.25,1.069,0.606,1.484,1.072c0.415,0.466,0.736,1.032,0.963,1.7
			C27.252,8.997,27.367,9.75,27.367,10.585 M25.683,10.687c0-1.308-0.294-2.33-0.883-3.065c-0.588-0.735-1.371-1.103-2.347-1.103
			c-0.361,0-0.726,0.04-1.093,0.121c-0.368,0.081-0.679,0.189-0.933,0.324v7.789c0.187,0.095,0.444,0.176,0.772,0.243
			c0.328,0.067,0.679,0.102,1.054,0.102c0.481,0,0.929-0.084,1.344-0.253c0.415-0.168,0.779-0.427,1.093-0.778
			c0.314-0.351,0.558-0.807,0.732-1.367C25.596,12.14,25.683,11.469,25.683,10.687"/>
		<path clip-path="url(#SVGID_2_)" fill="#878787" d="M37.675,15.704c-0.415,0.216-0.977,0.398-1.686,0.546
			c-0.709,0.148-1.464,0.223-2.267,0.223c-1.351,0-2.384-0.307-3.1-0.92c-0.716-0.614-1.073-1.582-1.073-2.904V5.345h1.685v7.324
			c0,1.591,0.829,2.388,2.488,2.388c0.495,0,0.946-0.037,1.354-0.112c0.408-0.074,0.719-0.158,0.933-0.253V5.345h1.665V15.704z"/>
		<path clip-path="url(#SVGID_2_)" fill="#878787" d="M44.795,6.62c-0.147-0.027-0.301-0.047-0.461-0.061
			c-0.161-0.013-0.328-0.02-0.501-0.02c-0.375,0-0.746,0.03-1.114,0.091c-0.368,0.061-0.679,0.145-0.933,0.253v9.367h-1.685V5.892
			c0.495-0.229,1.09-0.415,1.786-0.556c0.695-0.142,1.417-0.212,2.167-0.212c0.201,0,0.391,0.007,0.571,0.02
			c0.181,0.014,0.344,0.033,0.492,0.061L44.795,6.62z"/>
		<path clip-path="url(#SVGID_2_)" fill="#878787" d="M50.824,20.6h-1.746l1.625-4.35L46.65,5.345h1.826l2.688,7.931
			c0.121,0.364,0.213,0.715,0.281,1.052l0.1,0.506h0.041l0.1-0.506c0.067-0.336,0.161-0.688,0.281-1.052l2.668-7.931h1.846
			L50.824,20.6z"/>
	</g>
</g>
</svg>
