<?xml version="1.0" encoding="utf-8"?>
<!-- Generator: Adobe Illustrator 15.1.0, SVG Export Plug-In . SVG Version: 6.00 Build 0)  -->
<!DOCTYPE svg PUBLIC "-//W3C//DTD SVG 1.1//EN" "http://www.w3.org/Graphics/SVG/1.1/DTD/svg11.dtd">
<svg version="1.1" id="Twitter" xmlns="http://www.w3.org/2000/svg" xmlns:xlink="http://www.w3.org/1999/xlink" x="0px" y="0px"
	 width="32px" height="32px" viewBox="0 0 32 32" enable-background="new 0 0 32 32" xml:space="preserve">
<path fill="#33AADD" d="M0,0v32h32V0H0z M24.549,11.616c0.006,0.19,0.012,0.38,0.012,0.571c0,5.828-4.436,12.549-12.549,12.549
	c-2.492,0-4.811-0.729-6.763-1.982c0.345,0.041,0.696,0.061,1.053,0.061c2.067,0,3.97-0.701,5.478-1.887
	c-1.93-0.035-3.559-1.309-4.12-3.063c0.271,0.053,0.546,0.078,0.829,0.078c0.404,0,0.794-0.053,1.164-0.152
	c-2.018-0.407-3.539-2.189-3.539-4.326c0-0.018,0-0.037,0-0.058c0.595,0.333,1.275,0.53,1.998,0.553
	c-1.184-0.79-1.963-2.142-1.963-3.671c0-0.809,0.219-1.566,0.598-2.219c2.176,2.67,5.428,4.426,9.092,4.609
	c-0.074-0.322-0.113-0.658-0.113-1.006c0-2.435,1.975-4.41,4.412-4.41c1.27,0,2.414,0.536,3.219,1.394
	c1.006-0.198,1.949-0.565,2.801-1.071c-0.329,1.03-1.029,1.895-1.938,2.441c0.89-0.107,1.742-0.344,2.532-0.695
	C26.158,10.217,25.412,10.993,24.549,11.616z"/>
</svg>
