<?xml version="1.0" encoding="utf-8"?>
<!DOCTYPE svg PUBLIC "-//W3C//DTD SVG 1.1//EN" "http://www.w3.org/Graphics/SVG/1.1/DTD/svg11.dtd">
<svg version="1.1" id="Ebene_1" xmlns="http://www.w3.org/2000/svg" xmlns:xlink="http://www.w3.org/1999/xlink" x="0px" y="0px"
	 width="134.786px" height="54.919px" viewBox="0 0 134.786 54.919" enable-background="new 0 0 134.786 54.919"
	 xml:space="preserve">
<polygon fill="#EC6608" points="3.625,36.333 5.252,36.333 5.252,26.992 5.285,26.992 10.427,36.333 12.511,36.333 12.511,24.974
	10.883,24.974 10.883,34.12 10.851,34.12 5.837,24.974 3.625,24.974 "/>
<g>
	<defs>
		<rect id="SVGID_1_" width="113.387" height="36.801"/>
	</defs>
	<clipPath id="SVGID_2_">
		<use xlink:href="#SVGID_1_"  overflow="visible"/>
	</clipPath>
	<path clip-path="url(#SVGID_2_)" fill-rule="evenodd" clip-rule="evenodd" fill="#EC6608" d="M29.493,26.406h1.563
		c1.497,0,2.278,0.65,2.278,1.676c0,1.091-0.911,1.773-2.457,1.773h-1.384V26.406z M27.866,36.333h1.627v-5.045h0.977
		c0.862,0,1.399,0,1.904,1.106l1.741,3.938h1.855l-2.148-4.524c-0.358-0.699-0.602-0.943-1.107-1.139v-0.033
		c1.319-0.228,2.344-1.204,2.344-2.587c0-2.718-2.164-3.076-4.41-3.076h-2.783V36.333z"/>
	<polygon clip-path="url(#SVGID_2_)" fill="#EC6608" points="38.717,36.333 40.344,36.333 40.344,26.992 40.376,26.992
		45.519,36.333 47.603,36.333 47.603,24.974 45.975,24.974 45.975,34.12 45.943,34.12 40.93,24.974 38.717,24.974 	"/>
	<path clip-path="url(#SVGID_2_)" fill-rule="evenodd" clip-rule="evenodd" fill="#EC6608" d="M52.667,26.308h1.708
		c0.944,0,2.1,0.342,2.1,1.693c0,1.676-1.335,1.823-2.913,1.823h-0.895V26.308z M52.667,31.158h1.057c1.4,0,2.946,0.244,2.946,2.002
		c0,1.528-1.318,1.839-2.783,1.839h-1.22V31.158z M51.039,36.333h3.027c2.311,0,4.329-0.586,4.329-3.027
		c0-1.595-1.091-2.604-2.636-2.733v-0.033c1.432-0.358,2.343-1.14,2.343-2.701c0-2.099-1.627-2.864-3.987-2.864h-3.076V36.333z"/>
	<polygon clip-path="url(#SVGID_2_)" fill="#EC6608" points="61.312,36.333 67.675,36.333 67.675,34.901 62.939,34.901
		62.939,31.158 67.252,31.158 67.252,29.726 62.939,29.726 62.939,26.406 67.675,26.406 67.675,24.974 61.312,24.974 	"/>
	<path clip-path="url(#SVGID_2_)" fill-rule="evenodd" clip-rule="evenodd" fill="#EC6608" d="M72.489,26.406h1.562
		c1.498,0,2.279,0.65,2.279,1.676c0,1.091-0.912,1.773-2.457,1.773h-1.384V26.406z M70.951,36.333h1.627v-5.045h0.977
		c0.861,0,1.398,0,1.904,1.106l1.74,3.938h1.855l-2.148-4.524c-0.357-0.699-0.602-0.943-1.105-1.139v-0.033
		c1.318-0.228,2.343-1.204,2.343-2.587c0-2.718-2.164-3.076-4.41-3.076h-2.782V36.333z"/>
	<path clip-path="url(#SVGID_2_)" fill="#EC6608" d="M89.925,25.348c-0.944-0.325-1.677-0.569-3.336-0.569
		c-3.466,0-6.005,2.328-6.005,5.826c0,3.612,2.392,5.924,5.988,5.924c1.774,0,2.848-0.293,3.467-0.504v-5.908h-4.021v1.335h2.392
		v3.45c-0.405,0.081-0.698,0.194-1.821,0.194c-2.36,0-4.28-1.773-4.28-4.442c0-2.539,1.741-4.442,4.361-4.442
		c1.465,0,2.328,0.26,3.125,0.781L89.925,25.348z"/>
	<path clip-path="url(#SVGID_2_)" fill="#EC6608" d="M24.5,24.974v6.656c0,3.189-1.611,4.897-4.41,4.897s-4.41-1.708-4.41-4.897
		v-6.656l1.174-0.003h2.431v1.695h-1.978v4.753c0,2.18,0.683,3.677,2.783,3.677c2.099,0,2.782-1.497,2.782-3.677v-4.753h-1.977
		v-1.695h2.004L24.5,24.974z"/>
	<path clip-path="url(#SVGID_2_)" fill="#EC6608" d="M112.545,36.333v-1.998h-6.415c-0.175,0.917-0.322,1.695-0.38,1.998H112.545z"
		/>
	<polygon clip-path="url(#SVGID_2_)" fill="#EC6608" points="95.717,34.335 95.717,36.333 102.463,36.333 102.014,34.335 	"/>
	<path clip-path="url(#SVGID_2_)" fill="#005CA9" d="M99.031,29.627l-0.49-2.067h4.189l1.357,5.935h0.057L105,29.691
		c0.431-1.725,0.593-2.132,3.021-2.132h1.745c0,0-0.352,1.592-0.791,3.317c-0.167,0.659-1.625,0.58-1.552-0.034
		c0.008-0.063,0.077-0.527,0.131-0.856c0.08-0.475-0.474-0.532-0.573-0.064c-0.07,0.336-0.391,2.004-0.689,3.572h6.254v-8.521
		H95.717v8.521h6.107l-0.871-3.864L99.031,29.627z"/>
	<path clip-path="url(#SVGID_2_)" fill-rule="evenodd" clip-rule="evenodd" fill="#005CA9" d="M47.179,2.304
		c0.244-0.163,0.737-0.213,1.772-0.227c1.869-0.025,3.906,0.695,3.906,3.305c0,2.487-1.578,3.487-4.274,3.487H46.93V3.285
		C46.93,2.705,46.958,2.45,47.179,2.304 M48.714,9.991c3.205,0,4.929,1.59,4.929,4.3c0,3.062-2.072,3.881-4.3,3.881
		c-2.06,0-2.413-0.364-2.413-1.916V9.991H48.714z M52.213,9.272c2.402,0.43,4.439,1.834,4.439,4.836
		c0,3.728-2.648,5.186-6.654,5.186h-8.227v-0.958l0.096-0.007c1.171-0.08,1.72-0.133,1.991-0.328
		c0.249-0.179,0.272-0.49,0.272-1.247V3.495c0-0.756-0.023-1.067-0.272-1.247C43.587,2.055,43.038,2,41.867,1.92l-0.096-0.006V0.955
		h7.676c2.05-0.025,3.648,0.263,4.697,0.961c1.078,0.729,1.67,1.835,1.67,3.309C55.814,7.195,54.476,8.691,52.213,9.272"/>
	<path clip-path="url(#SVGID_2_)" fill-rule="evenodd" clip-rule="evenodd" fill="#005CA9" d="M65.29,3.813
		c0.025,0.254,2.458,7.284,2.458,7.284h-4.931C63.634,8.553,64.523,6.061,65.29,3.813 M67.973,19.296V18.34l1.273-0.114
		c0.764-0.071,0.863-0.285,0.62-0.991l-1.732-4.936h-5.723c-0.594,1.83-1.135,3.432-1.575,4.982
		c-0.196,0.664-0.139,0.849,0.567,0.918l1.455,0.141v0.956h-5.971v-0.96l0.098-0.005c1.603-0.076,1.808-0.358,2.347-1.743
		c0.917-2.384,2.017-5.528,2.829-7.808l2.776-7.824h2.084l5.58,15.871c0.454,1.312,0.696,1.375,2.192,1.504l0.094,0.008v0.957
		H67.973z"/>
	<path clip-path="url(#SVGID_2_)" fill="#005CA9" d="M79.465,3.664v10.209c0,1.383,0.053,2.374,0.184,3.234
		c0.144,1.009,0.671,1.092,2.395,1.224l0.096,0.007v0.958h-6.416v-0.958l0.095-0.007c1.372-0.106,1.909-0.21,2.055-1.224
		c0.13-0.86,0.183-1.852,0.183-3.234V3.495c0-0.756-0.022-1.068-0.271-1.246C77.512,2.054,76.963,2,75.791,1.92l-0.095-0.006V0.955
		h5.188l0.029,0.044c3.337,4.76,6.699,9.519,10.087,14.278V6.378c0-1.383-0.052-2.374-0.183-3.235
		c-0.145-1.008-0.672-1.09-2.395-1.223l-0.096-0.007V0.955h6.416v0.958L94.649,1.92c-1.372,0.106-1.91,0.21-2.056,1.223
		c-0.131,0.861-0.183,1.853-0.183,3.235v12.918h-1.885l-0.031-0.044C86.844,14.047,83.167,8.868,79.465,3.664"/>
	<path clip-path="url(#SVGID_2_)" fill="#005CA9" d="M101.312,10.165v6.591c0,0.754,0.028,1.066,0.28,1.246
		c0.275,0.194,0.824,0.249,1.982,0.329l0.096,0.006v0.958h-7.517v-0.958l0.095-0.006c1.172-0.08,1.721-0.135,1.992-0.329
		c0.249-0.179,0.271-0.49,0.271-1.246V3.494c0-0.756-0.022-1.066-0.271-1.245C97.969,2.054,97.42,2,96.248,1.921l-0.095-0.007V0.956
		h7.517v0.958l-0.096,0.007c-1.158,0.079-1.707,0.133-1.982,0.328c-0.252,0.179-0.28,0.491-0.28,1.245v5.933
		c1.89-1.944,4.715-4.899,6.188-6.549c0.59-0.697,0.422-0.844,0.041-0.879l-1.089-0.087V0.956h6.573v0.959l-0.096,0.006
		c-2.205,0.129-2.709,0.409-4.053,1.599c-1.58,1.372-3.57,3.334-5.285,5.226c1.771,2.646,3.951,5.265,6.261,7.73
		c1.128,1.18,1.946,1.89,2.987,2.119l0.08,0.018v0.819l-1.757-0.084c-1.651-0.053-3.067-0.537-4.606-2.288
		C104.559,14.805,102.785,12.4,101.312,10.165"/>
	<path clip-path="url(#SVGID_2_)" fill="#005CA9" d="M10.034,16.106l2.646-7.301c0.942-2.617,1.753-4.921,2.041-6.071
		c0.121-0.459,0.11-0.64-0.486-0.686L12.7,1.91V0.953h5.997v0.96L18.6,1.919c-1.395,0.077-1.664,0.119-2.192,1.303
		c-0.629,1.388-1.676,4.059-2.75,6.964l-3.379,9.108H8.274l-2.986-8.455C4.372,8.219,3.403,5.6,2.563,3.399
		C2.058,2.058,1.787,1.97,0.35,1.919L0.25,1.915V0.953h6.967v0.956l-1.456,0.14c-0.536,0.045-0.609,0.188-0.41,0.811
		c0.682,2.096,1.493,4.4,2.305,6.68L10.034,16.106z"/>
	<path clip-path="url(#SVGID_2_)" fill-rule="evenodd" clip-rule="evenodd" fill="#005CA9" d="M25.241,3.284
		c0-1.017,0.105-1.208,1.81-1.208c1.918,0,4.039,0.691,4.039,3.697c0,2.69-1.391,3.854-3.881,3.854h-1.968V3.284z M30.054,10.185
		c2.574,0.751,3.032,2.519,3.337,4.774c0.235,1.781,0.645,3.169,2.608,3.37l0.092,0.01v0.955h-2.226
		c-1.585,0-2.629-0.602-3.034-2.333c-0.289-1.205-0.577-3.274-0.76-4.008c-0.43-1.721-1.58-2.203-3.124-2.203h-1.706v6.004
		c0,0.754,0.029,1.067,0.281,1.246c0.275,0.195,0.825,0.249,1.982,0.329l0.095,0.006v0.959h-7.516v-0.959l0.095-0.006
		c1.171-0.08,1.721-0.134,1.992-0.328c0.249-0.179,0.271-0.49,0.271-1.247V3.493c0-0.756-0.022-1.067-0.271-1.247
		c-0.271-0.193-0.821-0.248-1.992-0.328l-0.095-0.006V0.953h7.755c4.624,0,6.261,1.995,6.261,4.584
		C34.099,7.983,32.393,9.63,30.054,10.185"/>
</g>
<g>
	<path fill="#005CA9" d="M55.315,49.196c-0.009-0.113-0.08-0.183-0.215-0.207c-0.244-0.04-0.372-0.131-0.383-0.274
		c-0.008-0.107,0.03-0.217,0.118-0.328c0.086-0.111,0.184-0.172,0.292-0.181l0.615-0.03c0.286-0.023,0.662-0.07,1.126-0.145
		c0.461-0.075,0.807-0.122,1.038-0.141c0.806-0.063,1.472,0.113,1.997,0.529c0.524,0.416,0.816,0.994,0.875,1.736
		c0.064,0.814-0.228,1.585-0.874,2.31c-0.647,0.726-1.605,1.294-2.875,1.705c-0.501,0.163-0.838,0.313-1.009,0.455
		c-0.226,0.182-0.418,0.279-0.576,0.292c-0.111,0.009-0.215-0.042-0.31-0.154c-0.096-0.111-0.146-0.202-0.151-0.272
		c-0.002-0.029,0.021-0.107,0.069-0.235c0.051-0.136,0.083-0.271,0.098-0.408c0.014-0.137,0.016-0.379,0.006-0.729
		c-0.012-0.346-0.002-0.906,0.029-1.684c0.031-0.776,0.063-1.328,0.097-1.654C55.312,49.496,55.323,49.302,55.315,49.196z
		 M56.085,48.841c-0.184,2.116-0.241,3.603-0.174,4.461c0.015,0.191,0.045,0.331,0.091,0.425c0.025,0.02,0.071,0.026,0.138,0.021
		c0.187-0.016,0.667-0.177,1.439-0.484c0.772-0.307,1.385-0.735,1.838-1.286c0.454-0.55,0.654-1.149,0.603-1.802
		c-0.042-0.539-0.267-0.957-0.673-1.25c-0.407-0.293-0.923-0.414-1.548-0.365c-0.379,0.029-0.834,0.102-1.363,0.213
		C56.318,48.8,56.201,48.823,56.085,48.841z"/>
	<path fill="#005CA9" d="M62.756,52.954c0.018,0.222,0.068,0.469,0.151,0.741c0.016,0.051,0.025,0.095,0.027,0.13
		c0.004,0.053-0.038,0.125-0.128,0.216c-0.089,0.09-0.188,0.141-0.297,0.148c-0.283,0.022-0.445-0.227-0.486-0.746
		c-0.042-0.537,0.001-1.396,0.132-2.576c0.043-0.412,0.062-0.664,0.055-0.758c-0.015-0.186,0.007-0.344,0.064-0.479
		c0.057-0.136,0.147-0.209,0.269-0.219c0.149-0.012,0.269,0.016,0.362,0.081c0.091,0.063,0.141,0.14,0.147,0.228
		c0.007,0.088-0.004,0.205-0.034,0.352c-0.158,0.787-0.251,1.35-0.277,1.688C62.715,52.096,62.72,52.495,62.756,52.954z
		 M62.945,48.014c-0.062,0.006-0.114-0.057-0.156-0.185c-0.015-0.04-0.034-0.084-0.059-0.134c-0.094-0.183-0.146-0.345-0.157-0.484
		c-0.009-0.117,0.05-0.24,0.18-0.373c0.128-0.133,0.278-0.206,0.447-0.22c0.085-0.007,0.183,0.019,0.292,0.077
		c0.111,0.058,0.168,0.117,0.173,0.178c0.007,0.096-0.015,0.264-0.068,0.499c-0.054,0.236-0.156,0.401-0.305,0.495
		C63.142,47.959,63.027,48.008,62.945,48.014z"/>
	<path fill="#005CA9" d="M68.223,52.007c0.023,0.298-0.212,0.678-0.706,1.14c-0.494,0.464-1.021,0.717-1.582,0.761
		c-0.47,0.037-0.844-0.073-1.121-0.331c-0.278-0.258-0.436-0.634-0.475-1.131c-0.066-0.834,0.153-1.652,0.658-2.451
		c0.504-0.797,1.091-1.223,1.76-1.275c0.219-0.017,0.403,0.041,0.554,0.174c0.149,0.132,0.232,0.299,0.249,0.5
		c0.035,0.449-0.151,0.898-0.56,1.345c-0.409,0.446-0.967,0.897-1.674,1.353c-0.146,0.092-0.214,0.199-0.204,0.325
		c0.019,0.242,0.104,0.431,0.256,0.565s0.365,0.191,0.639,0.17c0.628-0.05,1.242-0.447,1.841-1.193
		c0.088-0.104,0.158-0.158,0.208-0.162C68.159,51.787,68.211,51.858,68.223,52.007z M65.125,51.563
		c1.18-0.832,1.753-1.473,1.718-1.92c-0.014-0.174-0.1-0.256-0.258-0.244c-0.269,0.021-0.556,0.242-0.862,0.663
		C65.416,50.482,65.217,50.982,65.125,51.563z"/>
	<path fill="#005CA9" d="M72.016,47.843c-0.035-0.056-0.058-0.128-0.064-0.216c-0.01-0.131,0.029-0.224,0.121-0.278
		c0.092-0.054,0.373-0.103,0.846-0.146c0.582-0.049,1.102-0.111,1.563-0.188c0.459-0.074,1.166-0.217,2.119-0.424
		c0.361-0.078,0.707-0.131,1.037-0.157c0.166-0.013,0.324-0.015,0.478-0.007c0.151,0.01,0.26,0.021,0.324,0.035
		c0.064,0.014,0.119,0.063,0.163,0.146c0.045,0.082,0.07,0.147,0.073,0.193c0.017,0.208-0.048,0.317-0.194,0.328
		c-0.097,0.008-0.229,0.01-0.396,0.006c-0.17-0.002-0.4,0.008-0.689,0.031c-0.299,0.023-0.658,0.073-1.08,0.149
		c-0.421,0.075-0.652,0.163-0.69,0.263c-0.04,0.101-0.071,0.676-0.096,1.728s-0.017,1.833,0.023,2.343
		c0.019,0.236,0.077,0.508,0.174,0.812c0.017,0.058,0.024,0.093,0.026,0.104c0.01,0.127-0.016,0.246-0.078,0.356
		c-0.063,0.108-0.143,0.167-0.242,0.175c-0.151,0.012-0.283-0.052-0.396-0.189s-0.194-0.542-0.248-1.215
		c-0.05-0.636-0.026-1.889,0.07-3.757c0.004-0.1,0.005-0.151,0.005-0.155c-0.008-0.098-0.064-0.145-0.174-0.137
		c-0.174,0.014-0.508,0.063-0.998,0.146c-0.489,0.085-0.84,0.137-1.049,0.152C72.326,47.969,72.117,47.935,72.016,47.843z"/>
	<path fill="#005CA9" d="M81.993,50.923c0.023,0.298-0.212,0.679-0.706,1.141c-0.494,0.464-1.021,0.716-1.582,0.761
		c-0.471,0.037-0.844-0.074-1.121-0.332c-0.278-0.257-0.436-0.634-0.475-1.131c-0.066-0.834,0.152-1.652,0.658-2.45
		c0.504-0.798,1.09-1.223,1.76-1.275c0.219-0.018,0.402,0.041,0.553,0.173c0.15,0.133,0.232,0.299,0.249,0.501
		c0.035,0.449-0.151,0.897-0.56,1.344c-0.409,0.446-0.967,0.897-1.676,1.354c-0.145,0.091-0.213,0.198-0.203,0.324
		c0.02,0.242,0.104,0.431,0.257,0.565c0.151,0.136,0.364,0.191,0.64,0.17c0.627-0.049,1.241-0.446,1.84-1.193
		c0.09-0.104,0.158-0.158,0.209-0.162C81.93,50.704,81.981,50.774,81.993,50.923z M78.895,50.479
		c1.181-0.832,1.754-1.472,1.719-1.919c-0.015-0.175-0.101-0.257-0.258-0.244c-0.27,0.021-0.557,0.241-0.863,0.662
		C79.187,49.398,78.987,49.898,78.895,50.479z"/>
	<path fill="#005CA9" d="M83.785,51.299c0.018,0.222,0.068,0.469,0.152,0.74c0.016,0.053,0.024,0.096,0.027,0.131
		c0.004,0.053-0.039,0.125-0.129,0.216s-0.188,0.141-0.297,0.149c-0.283,0.021-0.445-0.227-0.486-0.748
		c-0.042-0.537,0.002-1.395,0.133-2.575c0.043-0.411,0.063-0.665,0.055-0.759c-0.015-0.184,0.007-0.343,0.064-0.479
		c0.057-0.135,0.146-0.207,0.27-0.217c0.148-0.012,0.268,0.015,0.36,0.08c0.091,0.064,0.142,0.141,0.147,0.229
		c0.008,0.087-0.004,0.205-0.033,0.351c-0.159,0.788-0.252,1.351-0.277,1.687C83.745,50.441,83.75,50.84,83.785,51.299z
		 M83.975,46.359c-0.061,0.004-0.113-0.057-0.156-0.186c-0.015-0.04-0.033-0.084-0.059-0.133c-0.094-0.184-0.146-0.346-0.157-0.484
		c-0.009-0.117,0.051-0.241,0.181-0.375c0.129-0.131,0.277-0.205,0.447-0.219c0.085-0.006,0.183,0.02,0.293,0.078
		c0.11,0.057,0.168,0.115,0.172,0.178c0.008,0.096-0.015,0.264-0.068,0.498c-0.053,0.236-0.155,0.402-0.305,0.495
		C84.172,46.303,84.057,46.353,83.975,46.359z"/>
	<path fill="#005CA9" d="M86.568,44.595c0.211-0.017,0.326,0.11,0.348,0.378c0.019,0.24-0.063,0.818-0.246,1.738
		c-0.117,0.581-0.191,1.215-0.226,1.904c-0.034,0.69-0.035,1.23-0.005,1.619c0.038,0.482,0.106,0.958,0.205,1.43
		c0.02,0.09,0.029,0.155,0.033,0.195c0.012,0.147-0.027,0.276-0.119,0.39c-0.091,0.113-0.192,0.175-0.303,0.183
		c-0.155,0.013-0.27-0.076-0.346-0.265c-0.074-0.188-0.129-0.497-0.162-0.927c-0.078-0.979-0.056-2.199,0.066-3.663
		c0.121-1.465,0.24-2.325,0.361-2.581C86.294,44.74,86.426,44.605,86.568,44.595z"/>
	<path fill="#005CA9" d="M88.801,50.561c0.93-2.093,1.746-3.167,2.449-3.223c0.188-0.015,0.348,0.081,0.48,0.285
		c0.135,0.204,0.266,0.67,0.397,1.396c0.134,0.773,0.343,1.325,0.628,1.652c0.146,0.168,0.221,0.293,0.229,0.379
		c0.006,0.076-0.033,0.149-0.115,0.221c-0.082,0.07-0.174,0.11-0.273,0.118c-0.228,0.018-0.439-0.093-0.635-0.337
		c-0.195-0.24-0.343-0.68-0.443-1.319c-0.098-0.603-0.182-0.996-0.251-1.181c-0.07-0.181-0.169-0.268-0.298-0.258
		c-0.307,0.023-0.861,0.875-1.664,2.552c-0.24,0.501-0.42,0.83-0.539,0.987c-0.12,0.158-0.234,0.242-0.342,0.25
		c-0.129,0.011-0.24-0.02-0.334-0.088s-0.145-0.159-0.153-0.271c-0.007-0.08,0.005-0.24,0.033-0.479
		c0.214-1.881,0.353-3.739,0.417-5.569c0.014-0.426,0.066-0.715,0.159-0.862c0.092-0.148,0.174-0.225,0.243-0.23
		c0.127-0.01,0.244,0.031,0.354,0.125c0.111,0.096,0.174,0.232,0.188,0.414c0.043,0.537-0.031,1.285-0.221,2.242
		c-0.092,0.475-0.181,1.076-0.268,1.803c-0.087,0.728-0.123,1.175-0.109,1.345c0.002,0.035,0.02,0.052,0.051,0.049L88.801,50.561z"
		/>
	<path fill="#005CA9" d="M96.631,49.662c-0.366,0.581-0.738,1.025-1.117,1.33c-0.379,0.307-0.734,0.473-1.066,0.498
		c-0.225,0.018-0.428-0.061-0.605-0.239c-0.179-0.175-0.279-0.413-0.303-0.711c-0.061-0.769,0.217-1.622,0.834-2.563
		c0.617-0.942,1.264-1.438,1.941-1.491c0.244-0.02,0.438,0.105,0.58,0.377c0.045,0.091,0.109,0.133,0.191,0.127
		c0.233-0.02,0.357,0.063,0.371,0.243c0.008,0.091,0.002,0.216-0.014,0.376c-0.09,0.875-0.121,1.488-0.094,1.841
		c0.057,0.708,0.223,1.12,0.503,1.239c0.134,0.06,0.205,0.142,0.214,0.243c0.006,0.091-0.049,0.188-0.168,0.288
		c-0.117,0.103-0.235,0.158-0.352,0.168c-0.226,0.018-0.424-0.123-0.594-0.422C96.783,50.669,96.676,50.234,96.631,49.662z
		 M96.168,47.215c-0.385,0.031-0.805,0.428-1.259,1.191s-0.662,1.383-0.625,1.857c0.026,0.338,0.151,0.496,0.372,0.479
		c0.322-0.025,0.742-0.385,1.26-1.078c0.519-0.693,0.757-1.312,0.715-1.855C96.598,47.393,96.443,47.193,96.168,47.215z"/>
	<path fill="#005CA9" d="M99.674,48.518c0.32-0.709,0.725-1.297,1.211-1.758c0.486-0.464,0.939-0.712,1.356-0.744
		c0.231-0.019,0.435,0.072,0.612,0.273c0.178,0.2,0.278,0.453,0.303,0.76c0.07,0.908-0.205,1.789-0.826,2.639
		c-0.623,0.85-1.314,1.304-2.078,1.363c-0.207,0.017-0.402-0.023-0.584-0.123c-0.184-0.1-0.291-0.23-0.324-0.4
		c-0.023-0.135-0.07-0.234-0.143-0.297c-0.137-0.115-0.209-0.244-0.221-0.389c-0.021-0.266,0.008-0.839,0.085-1.721l0.245-2.656
		c0.086-0.891,0.156-1.442,0.211-1.656c0.056-0.213,0.125-0.358,0.207-0.435c0.082-0.077,0.188-0.12,0.315-0.131
		c0.204-0.017,0.321,0.152,0.349,0.506c0.026,0.336-0.049,0.815-0.227,1.438C99.996,45.785,99.832,46.896,99.674,48.518z
		 M99.684,49.985c0.175,0.271,0.369,0.398,0.586,0.382c0.333-0.026,0.674-0.191,1.023-0.498c0.35-0.304,0.639-0.718,0.869-1.24
		c0.231-0.521,0.334-0.955,0.307-1.301c-0.013-0.154-0.051-0.285-0.115-0.392s-0.139-0.157-0.223-0.15
		c-0.406,0.032-0.877,0.403-1.409,1.114C100.188,48.611,99.842,49.307,99.684,49.985z"/>
	<path fill="#005CA9" d="M107.924,48.883c0.023,0.297-0.211,0.678-0.705,1.14c-0.495,0.464-1.021,0.716-1.583,0.761
		c-0.47,0.037-0.844-0.074-1.121-0.332c-0.278-0.257-0.436-0.634-0.475-1.131c-0.065-0.834,0.153-1.652,0.657-2.45
		c0.505-0.798,1.092-1.223,1.761-1.275c0.219-0.017,0.403,0.041,0.554,0.173c0.148,0.133,0.232,0.299,0.248,0.501
		c0.035,0.449-0.15,0.897-0.56,1.345c-0.409,0.445-0.966,0.896-1.675,1.353c-0.146,0.091-0.213,0.198-0.203,0.325
		c0.02,0.242,0.104,0.43,0.256,0.564c0.152,0.136,0.365,0.191,0.64,0.17c0.628-0.049,1.241-0.446,1.841-1.193
		c0.09-0.104,0.158-0.158,0.208-0.162C107.859,48.663,107.912,48.734,107.924,48.883z M104.826,48.438
		c1.18-0.832,1.753-1.472,1.718-1.919c-0.015-0.175-0.101-0.257-0.258-0.244c-0.269,0.021-0.556,0.241-0.862,0.663
		C105.117,47.357,104.918,47.857,104.826,48.438z"/>
	<path fill="#005CA9" d="M109.705,48.486c0.025-0.055,0.055-0.129,0.088-0.227c0.162-0.472,0.317-0.843,0.463-1.115
		c0.146-0.271,0.31-0.533,0.492-0.785c0.181-0.253,0.35-0.445,0.505-0.582c0.155-0.135,0.298-0.232,0.429-0.291
		c0.131-0.06,0.258-0.094,0.384-0.104c0.255-0.021,0.468,0.041,0.64,0.182c0.174,0.141,0.268,0.313,0.284,0.518
		c0.007,0.091-0.015,0.174-0.065,0.252c-0.052,0.078-0.137,0.121-0.253,0.13c-0.122,0.01-0.239-0.035-0.351-0.136
		c-0.113-0.1-0.227-0.145-0.341-0.137c-0.304,0.024-0.695,0.426-1.175,1.203c-0.479,0.779-0.742,1.615-0.789,2.51
		c-0.012,0.23-0.056,0.384-0.131,0.465c-0.077,0.078-0.189,0.125-0.338,0.137c-0.144,0.011-0.256-0.088-0.336-0.297
		c-0.082-0.207-0.143-0.563-0.182-1.07c-0.012-0.135-0.027-0.438-0.05-0.908c-0.026-0.553-0.026-1,0-1.345
		c0.005-0.056,0.009-0.187,0.013-0.392c0.003-0.228,0.017-0.386,0.041-0.477c0.023-0.09,0.079-0.175,0.168-0.26
		c0.089-0.082,0.189-0.129,0.301-0.139c0.107-0.008,0.191,0.021,0.251,0.085c0.06,0.065,0.093,0.136,0.099,0.214
		c0.009,0.115-0.008,0.277-0.051,0.49c-0.049,0.236-0.075,0.397-0.08,0.486c-0.001,0.1-0.009,0.205-0.023,0.314
		c-0.02,0.129-0.023,0.461-0.01,0.997l0.008,0.162L109.705,48.486z"/>
	<path fill="#005CA9" d="M114.393,47.359c0.32-0.709,0.724-1.297,1.21-1.758c0.487-0.464,0.938-0.712,1.356-0.744
		c0.23-0.02,0.436,0.072,0.612,0.273c0.178,0.2,0.278,0.453,0.302,0.76c0.072,0.908-0.203,1.788-0.825,2.639
		c-0.623,0.85-1.315,1.304-2.077,1.363c-0.207,0.017-0.402-0.023-0.585-0.123s-0.29-0.231-0.325-0.4
		c-0.021-0.135-0.069-0.234-0.142-0.297c-0.136-0.115-0.209-0.244-0.22-0.389c-0.021-0.266,0.006-0.84,0.084-1.721l0.245-2.656
		c0.086-0.891,0.155-1.442,0.212-1.656c0.055-0.213,0.123-0.358,0.205-0.435c0.082-0.077,0.188-0.121,0.316-0.131
		c0.204-0.017,0.32,0.152,0.348,0.506c0.027,0.336-0.049,0.815-0.226,1.438C114.713,44.627,114.549,45.738,114.393,47.359z
		 M114.402,48.827c0.174,0.271,0.369,0.398,0.585,0.382c0.333-0.026,0.675-0.191,1.022-0.498c0.35-0.305,0.64-0.718,0.871-1.24
		c0.23-0.521,0.332-0.955,0.305-1.301c-0.012-0.154-0.05-0.285-0.114-0.392s-0.139-0.157-0.224-0.15
		c-0.406,0.032-0.875,0.403-1.408,1.114C114.906,47.452,114.561,48.147,114.402,48.827z"/>
	<path fill="#005CA9" d="M121.836,47.678c-0.365,0.582-0.738,1.025-1.116,1.331s-0.733,0.472-1.067,0.498
		c-0.225,0.018-0.426-0.062-0.605-0.239c-0.178-0.176-0.279-0.414-0.303-0.711c-0.061-0.77,0.219-1.623,0.834-2.563
		c0.617-0.941,1.264-1.438,1.941-1.491c0.246-0.02,0.439,0.106,0.581,0.376c0.046,0.092,0.108,0.134,0.19,0.127
		c0.234-0.018,0.357,0.063,0.373,0.244c0.006,0.091,0.002,0.215-0.016,0.375c-0.09,0.875-0.121,1.488-0.094,1.842
		c0.057,0.707,0.225,1.119,0.504,1.238c0.134,0.061,0.205,0.143,0.213,0.244c0.008,0.09-0.049,0.188-0.166,0.287
		c-0.119,0.104-0.236,0.158-0.354,0.168c-0.225,0.018-0.422-0.123-0.593-0.421S121.881,48.25,121.836,47.678z M121.375,45.231
		c-0.387,0.03-0.806,0.428-1.26,1.19c-0.455,0.764-0.662,1.384-0.625,1.858c0.025,0.337,0.15,0.496,0.373,0.479
		c0.32-0.025,0.74-0.385,1.26-1.078c0.518-0.693,0.756-1.312,0.713-1.855C121.803,45.409,121.648,45.21,121.375,45.231z"/>
	<path fill="#005CA9" d="M126.993,45.486c-0.151,0.012-0.31,0.125-0.474,0.336c-0.164,0.215-0.402,0.681-0.717,1.402
		c-0.412,0.967-0.684,1.52-0.814,1.66c-0.132,0.14-0.244,0.213-0.338,0.22c-0.345,0.027-0.53-0.126-0.557-0.458
		c-0.011-0.141-0.003-0.341,0.023-0.602c0.092-0.895,0.099-1.83,0.021-2.811c-0.009-0.109,0.029-0.236,0.113-0.381
		c0.084-0.143,0.168-0.218,0.254-0.225c0.151-0.012,0.264,0.025,0.335,0.115c0.071,0.088,0.118,0.273,0.141,0.557
		c0.023,0.295-0.017,0.908-0.119,1.844c-0.034,0.309-0.049,0.504-0.042,0.585c0.004,0.048,0.017,0.069,0.04,0.067
		c0.044-0.004,0.22-0.368,0.526-1.095c0.31-0.739,0.59-1.263,0.842-1.573c0.252-0.313,0.543-0.48,0.873-0.506
		c0.263-0.021,0.486,0.083,0.67,0.309c0.184,0.227,0.339,0.654,0.465,1.281c0.139,0.715,0.248,1.158,0.327,1.33
		s0.19,0.252,0.334,0.24c0.091-0.007,0.202-0.048,0.335-0.123c0.021-0.014,0.039-0.021,0.051-0.021
		c0.125-0.01,0.193,0.059,0.205,0.203c0.01,0.129-0.064,0.271-0.227,0.432c-0.16,0.156-0.362,0.245-0.604,0.264
		c-0.249,0.02-0.448-0.063-0.6-0.249s-0.3-0.704-0.446-1.555C127.462,45.881,127.256,45.465,126.993,45.486z"/>
	<path fill="#005CA9" d="M130.912,46.509c0.035-0.052,0.277-0.308,0.729-0.767c0.427-0.436,0.724-0.752,0.891-0.947
		c0.622-0.729,1.08-1.104,1.375-1.127c0.228-0.018,0.351,0.083,0.368,0.302c0.02,0.249-0.078,0.44-0.295,0.574
		c-0.28,0.173-0.65,0.45-1.111,0.835c-0.46,0.385-0.686,0.648-0.674,0.791c0.005,0.06,0.194,0.264,0.568,0.615
		c0.375,0.352,0.695,0.606,0.96,0.766c0.266,0.16,0.517,0.23,0.753,0.211l0.145-0.015c0.102-0.015,0.156,0.026,0.164,0.124
		c0.01,0.129-0.061,0.266-0.211,0.411s-0.355,0.229-0.619,0.249c-0.17,0.014-0.346-0.033-0.528-0.137
		c-0.184-0.105-0.517-0.398-1.003-0.885c-0.387-0.401-0.627-0.641-0.721-0.717c-0.096-0.076-0.171-0.113-0.229-0.107
		c-0.032,0.002-0.128,0.087-0.289,0.252c-0.16,0.166-0.245,0.289-0.255,0.369c-0.01,0.079,0.006,0.381,0.047,0.904l0.016,0.205
		c0.009,0.109-0.035,0.208-0.13,0.302c-0.097,0.093-0.204,0.144-0.323,0.153c-0.123,0.01-0.223-0.02-0.297-0.085
		c-0.076-0.066-0.117-0.138-0.123-0.214c-0.009-0.105,0.012-0.355,0.06-0.754c0.066-0.571,0.108-1.335,0.128-2.289
		c0.041-2.251,0.107-3.527,0.201-3.831c0.094-0.302,0.249-0.462,0.465-0.479c0.076-0.006,0.143,0.03,0.201,0.106
		c0.057,0.078,0.091,0.182,0.101,0.311c0.019,0.234-0.034,0.861-0.155,1.885C130.996,44.549,130.928,45.545,130.912,46.509z"/>
</g>
</svg>
