<?xml version="1.0" encoding="utf-8"?>
<!DOCTYPE svg PUBLIC "-//W3C//DTD SVG 1.1//EN" "http://www.w3.org/Graphics/SVG/1.1/DTD/svg11.dtd">
<svg version="1.1" id="Ebene_1" xmlns="http://www.w3.org/2000/svg" xmlns:xlink="http://www.w3.org/1999/xlink" x="0px" y="0px"
	 width="110.443px" height="71.942px" viewBox="0 0 110.443 71.942" enable-background="new 0 0 110.443 71.942"
	 xml:space="preserve">
<path fill="#878787" d="M51.185,29.817c-0.064-0.237-0.172-0.625-0.238-0.861l-2.729-9.829c-0.066-0.237-0.166-0.626-0.224-0.865
	l-0.274-1.154c-0.057-0.239-0.117-0.437-0.132-0.439c-0.017-0.003-0.078,0.19-0.139,0.428l-0.291,1.166
	c-0.06,0.238-0.159,0.628-0.223,0.865l-2.621,9.917c-0.063,0.238-0.165,0.627-0.228,0.864l-0.199,0.751
	c-0.063,0.237-0.316,0.432-0.562,0.432h-5.523c-0.246,0-0.513-0.19-0.594-0.423c0,0-0.284-0.819-0.454-1.325
	c-2.132-6.337-5.941-19.132-5.941-19.132c-0.071-0.236,0.073-0.428,0.319-0.428h4.69c0.246,0,0.504,0.192,0.572,0.428
	c0,0,0.156,0.528,0.296,1.02c0.762,2.669,3.078,10.972,3.078,10.972c0.066,0.236,0.176,0.623,0.245,0.859l0.01,0.035
	c0.266,0.907,0.656,2.298,0.656,2.298c0.066,0.237,0.13,0.43,0.139,0.43c0.011,0,0.023-0.01,0.029-0.022
	c0.006-0.013,0.058-0.218,0.118-0.457l0.557-2.238c0.06-0.238,0.158-0.628,0.222-0.865l2.684-10.181
	c0.063-0.238,0.164-0.627,0.227-0.865l0.255-0.982c0.062-0.238,0.313-0.432,0.559-0.432h4.502c0.246,0,0.501,0.193,0.567,0.43
	l0.216,0.78c0.064,0.237,0.173,0.624,0.237,0.861l2.875,10.432c0.065,0.237,0.169,0.626,0.229,0.864l0.568,2.242
	c0.06,0.239,0.117,0.433,0.128,0.433c0.01,0,0.028-0.021,0.041-0.047c0.172-0.594,0.335-1.231,0.49-1.849
	c0.12-0.47,0.237-0.932,0.363-1.378c0.852-3.102,2.069-8.574,2.65-11.229c0.111-0.51,0.238-1.103,0.238-1.103
	c0.053-0.24,0.297-0.436,0.542-0.436h4.89c0.246,0,0.396,0.194,0.333,0.432l-0.205,0.779c-0.063,0.238-0.166,0.626-0.229,0.864
	l-4.552,17.046c-0.063,0.238-0.168,0.626-0.23,0.863l-0.239,0.892c-0.064,0.237-0.317,0.432-0.563,0.432h-6.338
	c-0.246,0-0.5-0.194-0.564-0.431L51.185,29.817"/>
<path fill="#878787" d="M72.306,26.449c0.451,0.191,1.045,0.405,1.719,0.564c0.661,0.156,1.411,0.265,2.215,0.265
	c3.61,0,5.599-2.518,5.599-7.089c0-4.366-1.42-6.674-4.105-6.674c-1.912,0-3.588,0.971-5.43,3.15
	C72.303,16.665,72.3,26.447,72.306,26.449 M75.867,31.465c-2.557,0-5.51-0.445-8.35-1.256c-0.097-0.027-0.097-0.027-0.097-0.027
	c-0.234-0.065-0.425-0.319-0.425-0.565l0.001-29.17c0-0.246,0.2-0.447,0.446-0.447h4.411c0.246,0,0.447,0.201,0.447,0.447
	l0.001,11.492c1.989-1.893,4.008-2.736,6.549-2.736c5.348,0,8.541,3.875,8.541,10.364C87.393,27.239,83.299,31.465,75.867,31.465"/>
<rect x="44.467" y="62.785" fill="#878787" width="1.231" height="9.037"/>
<path fill="#878787" d="M56.234,71.822v-4.271c0-0.924-0.214-1.513-1.085-1.513c-0.95,0-1.859,1.005-1.859,2.61v3.174h-1.191v-4.284
	c0-0.83-0.175-1.5-1.085-1.5c-1.017,0-1.861,1.085-1.861,2.61v3.174h-1.205v-6.654h1.165c0,0.389-0.026,0.991-0.106,1.393
	l0.025,0.014c0.39-0.938,1.246-1.54,2.317-1.54c1.405,0,1.78,0.978,1.834,1.513c0.281-0.629,0.991-1.513,2.276-1.513
	c1.258,0,1.98,0.683,1.98,2.183v4.605H56.234"/>
<path fill="#878787" d="M67.979,71.822v-4.271c0-0.924-0.214-1.513-1.085-1.513c-0.95,0-1.86,1.005-1.86,2.61v3.174h-1.191v-4.284
	c0-0.83-0.174-1.5-1.084-1.5c-1.018,0-1.861,1.085-1.861,2.61v3.174h-1.205v-6.654h1.164c0,0.389-0.025,0.991-0.105,1.393
	l0.025,0.014c0.389-0.938,1.246-1.54,2.317-1.54c1.405,0,1.78,0.978,1.834,1.513c0.281-0.629,0.99-1.513,2.276-1.513
	c1.258,0,1.979,0.683,1.979,2.183v4.605H67.979"/>
<path fill="#878787" d="M73.805,71.941c-1.807,0-2.986-1.043-2.986-3.385c0-1.955,1.232-3.509,3.24-3.509
	c1.701,0,2.999,0.938,2.999,3.333C77.058,70.391,75.772,71.941,73.805,71.941 M73.952,66.053c-0.964,0-1.874,0.735-1.874,2.383
	c0,1.605,0.656,2.49,1.874,2.49c0.99,0,1.848-0.777,1.848-2.478C75.8,66.936,75.184,66.053,73.952,66.053z"/>
<path fill="#878787" d="M80.996,71.916c-0.925,0-1.58-0.081-2.289-0.268v-9.601h1.205v3.228c0,0.388-0.041,0.91-0.121,1.244
	l0.026,0.014c0.361-0.938,1.191-1.486,2.195-1.486c1.566,0,2.45,1.098,2.45,3.133C84.463,70.51,83.138,71.916,80.996,71.916
	 M81.731,66.038c-1.204,0-1.819,1.406-1.819,2.558v2.209c0.347,0.106,0.709,0.16,1.178,0.16c1.271,0,2.114-0.763,2.114-2.678
	C83.204,66.855,82.735,66.038,81.731,66.038z"/>
<path fill="#878787" d="M86.755,64.071c-0.443,0-0.803-0.349-0.803-0.79c0-0.43,0.359-0.777,0.803-0.777
	c0.44,0,0.803,0.335,0.803,0.777C87.558,63.709,87.195,64.071,86.755,64.071 M87.356,71.822h-1.205v-6.654h1.205V71.822z"/>
<rect x="89.606" y="62.049" fill="#878787" width="1.205" height="9.773"/>
<path fill="#878787" d="M93.665,64.071c-0.443,0-0.805-0.349-0.805-0.79c0-0.43,0.361-0.777,0.805-0.777
	c0.44,0,0.803,0.335,0.803,0.777C94.468,63.709,94.105,64.071,93.665,64.071 M94.267,71.822h-1.205v-6.654h1.205V71.822z"/>
<path fill="#878787" d="M101.523,68.421h-4.351c-0.054,1.781,0.682,2.544,2.101,2.544c0.684,0,1.406-0.16,1.942-0.414l0.105,0.977
	c-0.642,0.268-1.419,0.415-2.249,0.415c-2.048,0-3.146-1.071-3.146-3.414c0-1.994,1.085-3.481,2.973-3.481
	c1.873,0,2.663,1.272,2.663,2.799C101.563,68.006,101.55,68.194,101.523,68.421 M98.846,65.932c-0.87,0-1.486,0.655-1.621,1.633
	h3.106C100.358,66.587,99.782,65.932,98.846,65.932z"/>
<path fill="#878787" d="M107.521,71.822v-4.297c0-0.938-0.254-1.487-1.137-1.487c-1.098,0-1.888,1.112-1.888,2.584v3.2h-1.205
	v-6.654h1.165c0,0.389-0.027,1.005-0.107,1.393l0.026,0.014c0.388-0.924,1.206-1.54,2.343-1.54c1.526,0,2.008,0.951,2.008,2.129
	v4.659H107.521"/>
<path fill="#878787" d="M58.738,56.65l-2.65-4.565c-0.401-0.683-0.709-1.353-0.978-1.94c0.055,0.775,0.081,2.194,0.081,3.279v3.227
	h-1.688v-9.036h2.263l2.517,4.31c0.415,0.697,0.777,1.446,1.111,2.129c-0.066-0.91-0.093-2.517-0.093-3.627v-2.812h1.686v9.036
	H58.738"/>
<path fill="#878787" d="M67.108,56.648c0-0.307,0.014-0.828,0.08-1.176l-0.013-0.015c-0.402,0.79-1.165,1.339-2.263,1.339
	c-1.499,0-1.981-0.964-1.981-2.128v-4.673h1.7v4.257c0,0.697,0.188,1.111,0.83,1.111c0.87,0,1.539-0.99,1.539-2.155v-3.213h1.714
	v6.652H67.108 M64.391,48.898c-0.509,0-0.924-0.416-0.924-0.924c0-0.522,0.415-0.924,0.924-0.924c0.508,0,0.924,0.401,0.924,0.924
	C65.314,48.482,64.898,48.898,64.391,48.898z M67.095,48.898c-0.508,0-0.923-0.416-0.923-0.924c0-0.522,0.415-0.924,0.923-0.924
	c0.509,0,0.924,0.401,0.924,0.924C68.019,48.482,67.604,48.898,67.095,48.898z"/>
<path fill="#878787" d="M74.15,51.536c-1.23-0.254-1.847,0.549-1.847,2.396v2.719H70.59v-6.653h1.62c0,0.334-0.04,0.87-0.12,1.338
	h0.026c0.321-0.843,0.964-1.58,2.115-1.485L74.15,51.536"/>
<path fill="#878787" d="M79.495,56.65v-4.258c0-0.695-0.188-1.11-0.817-1.11c-0.87,0-1.553,0.991-1.553,2.155v3.213H75.41v-6.653
	h1.62c0,0.308-0.026,0.829-0.093,1.177l0.014,0.014c0.401-0.789,1.178-1.338,2.263-1.338c1.499,0,1.98,0.963,1.98,2.129v4.672
	H79.495"/>
<path fill="#878787" d="M85.535,56.784c-0.965,0-1.715-0.108-2.478-0.322v-9.585h1.714v2.865c0,0.4-0.04,0.949-0.107,1.298h0.014
	c0.335-0.724,1.084-1.178,2.008-1.178c1.594,0,2.45,1.151,2.45,3.118C89.136,55.23,87.823,56.784,85.535,56.784 M86.204,51.281
	c-0.897,0-1.433,1.031-1.433,2.142v1.875c0.241,0.08,0.522,0.12,0.897,0.12c0.963,0,1.673-0.615,1.673-2.262
	C87.342,51.91,86.979,51.281,86.204,51.281z"/>
<path fill="#878787" d="M96.126,53.598h-4.124c-0.014,1.244,0.603,1.847,1.834,1.847c0.656,0,1.365-0.147,1.941-0.414l0.16,1.325
	c-0.709,0.281-1.553,0.428-2.383,0.428c-2.115,0-3.293-1.057-3.293-3.4c0-2.035,1.124-3.535,3.119-3.535
	c1.94,0,2.798,1.326,2.798,2.973C96.179,53.048,96.166,53.316,96.126,53.598 M93.328,51.107c-0.711,0-1.205,0.521-1.3,1.324h2.45
	C94.506,51.602,94.05,51.107,93.328,51.107z"/>
<path fill="#878787" d="M101.281,51.536c-1.231-0.254-1.848,0.549-1.848,2.396v2.719h-1.713v-6.653h1.619
	c0,0.334-0.04,0.87-0.12,1.338h0.027c0.32-0.843,0.964-1.58,2.114-1.485L101.281,51.536"/>
<path fill="#878787" d="M105.004,60.037c-1.767,0-2.852-0.669-2.852-1.968c0-0.696,0.469-1.326,1.018-1.607
	c-0.401-0.2-0.656-0.548-0.656-1.017c0-0.482,0.322-0.979,0.79-1.151c-0.656-0.335-0.99-1.044-0.99-1.86
	c0-1.406,1.058-2.584,3.013-2.584c0.44,0,0.789,0.066,1.163,0.146h2.25v1.339h-0.897c0.201,0.187,0.335,0.509,0.335,0.884
	c0,1.473-1.031,2.437-2.878,2.437c-0.228,0-0.482-0.013-0.656-0.054c-0.214,0.094-0.321,0.268-0.321,0.429
	c0,0.308,0.255,0.415,1.031,0.415h1.031c1.445,0,2.276,0.67,2.276,1.955C108.66,58.846,107.227,60.037,105.004,60.037
	 M105.915,56.797h-1.165c-0.095,0-0.228,0-0.309,0c-0.388,0.215-0.603,0.576-0.603,0.951c0,0.615,0.563,0.977,1.42,0.977
	c1.125,0,1.714-0.469,1.714-1.098C106.973,57.145,106.65,56.797,105.915,56.797z M105.259,51.094c-0.817,0-1.313,0.495-1.313,1.205
	c0,0.736,0.482,1.191,1.313,1.191c0.776,0,1.285-0.441,1.285-1.178C106.544,51.549,106.062,51.094,105.259,51.094z"/>
<path fill="#878787" d="M8.415,30.652c-0.074,0.234,0.066,0.426,0.313,0.426h10.867c0.246,0,0.507-0.192,0.581-0.426l6.41-20.456
	c0.074-0.235-0.067-0.427-0.313-0.427H15.405c-0.245,0-0.507,0.192-0.581,0.427L8.415,30.652"/>
<path fill="#878787" d="M0.02,30.652c-0.074,0.234,0.067,0.426,0.313,0.426h4.286c0.244,0,0.506-0.192,0.579-0.426l6.41-20.456
	c0.074-0.235-0.066-0.427-0.313-0.427H7.011c-0.246,0-0.507,0.192-0.581,0.427L0.02,30.652"/>
<path fill="#878787" d="M100.965,13.386c-3.578,0-5.63,2.559-5.63,7.026c0,4.408,1.48,6.643,4.401,6.643
	c1.239,0,2.384-0.386,3.499-1.196c0.024-0.018,0.051-0.036,0.076-0.055c0.564-0.419,1.154-0.967,1.712-1.608
	c0.013-0.012,0.002-10.007,0.002-10.007C103.848,13.671,102.405,13.386,100.965,13.386 M99.355,40.471
	c-1.96,0-4.185-0.188-6.045-0.509c-0.136-0.022-0.247-0.045-0.247-0.045c-0.241-0.048-0.43-0.288-0.419-0.532l0.134-3.124
	c0.012-0.246,0.22-0.423,0.464-0.393c0,0,0.217,0.027,0.247,0.03c1.732,0.192,3.725,0.298,5.654,0.298
	c2.72,0,4.604-0.424,5.422-2.237c0.183-0.403,0.312-0.874,0.386-1.425c0.05-0.366,0.062-0.758,0.062-0.758
	c0.007-0.246,0.013-0.648,0.013-0.894V28.79c-1.904,1.819-3.947,2.667-6.432,2.667c-5.617,0-8.971-3.925-8.971-10.496
	c0-7.503,4.304-11.807,11.806-11.807c2.699,0,5.76,0.459,8.457,1.265c0.109,0.033,0.132,0.041,0.132,0.041
	c0.234,0.076,0.426,0.339,0.426,0.585v19.523C110.443,37.416,107.023,40.471,99.355,40.471"/>
</svg>
