<svg version="1.1" style="display: none;"
	 viewBox="2.424 3.699 155.152 155.152">
	<symbol id="star" viewBox="2.424 3.699 155.152 155.152">
		<polygon points="80,151.697 69.789,158.852 61.775,149.297 50.059,153.564 44.789,142.262 32.369,143.352
    		30.207,131.072 17.92,128.908 19.016,116.484 7.709,111.221 11.977,99.502 2.424,91.49 9.58,81.275 2.424,71.064 11.977,63.049
    		7.709,51.332 19.016,46.064 17.92,33.645 30.207,31.482 32.369,19.195 44.789,20.291 50.059,8.984 61.775,13.252 69.789,3.699
    		80,10.855 90.215,3.699 98.227,13.252 109.945,8.984 115.211,20.291 127.633,19.195 129.797,31.482 142.078,33.645 140.986,46.064
    		152.291,51.332 148.021,63.049 157.576,71.064 150.422,81.275 157.576,91.49 148.021,99.502 152.291,111.221 140.986,116.484
    		142.078,128.908 129.797,131.072 127.633,143.352 115.211,142.262 109.945,153.564 98.227,149.297 90.215,158.852 	"/>
    </symbol>
</svg>
