<?xml version="1.0" encoding="utf-8"?>
<!-- Generator: Adobe Illustrator 15.1.0, SVG Export Plug-In . SVG Version: 6.00 Build 0)  -->
<!DOCTYPE svg PUBLIC "-//W3C//DTD SVG 1.1//EN" "http://www.w3.org/Graphics/SVG/1.1/DTD/svg11.dtd">
<svg version="1.1"
	 id="svg2" inkscape:output_extension="org.inkscape.output.svg.inkscape" inkscape:version="0.45pre1" sodipodi:docbase="C:\Documents and Settings\ryan\Desktop\ryan" sodipodi:docname="ClayOgre_BASIC_YIN-YANG.svg" sodipodi:modified="true" sodipodi:version="0.32" xmlns:rdf="http://www.w3.org/1999/02/22-rdf-syntax-ns#" xmlns:svg="http://www.w3.org/2000/svg" xmlns:sodipodi="http://sodipodi.sourceforge.net/DTD/sodipodi-0.dtd" xmlns:inkscape="http://www.inkscape.org/namespaces/inkscape" xmlns:dc="http://purl.org/dc/elements/1.1/" xmlns:cc="http://web.resource.org/cc/"
	 xmlns="http://www.w3.org/2000/svg" xmlns:xlink="http://www.w3.org/1999/xlink" x="0px" y="0px" width="255px" height="255px"
	 viewBox="0 0 255 255" enable-background="new 0 0 255 255" xml:space="preserve">
<circle fill="#FFFFFF" cx="127.5" cy="127.514" r="127.5"/>
<sodipodi:namedview  height="990px" width="765px" id="base" inkscape:pageopacity="0.0" inkscape:pageshadow="2" inkscape:document-units="px" inkscape:current-layer="layer1" inkscape:guide-bbox="true" inkscape:window-width="1280" inkscape:window-height="964" inkscape:window-x="0" inkscape:window-y="22" bordercolor="#666666" borderopacity="1.0" gridtolerance="10000" objecttolerance="10" showguides="true" inkscape:zoom="0.77575758" guidetolerance="23.8" inkscape:cx="382.5" pagecolor="#ffffff" inkscape:cy="288.75">
	</sodipodi:namedview>
<g id="layer2" transform="translate(-73.218748,-183.9403)" inkscape:groupmode="layer">
</g>
<g>
	<g>
		<path d="M104.743,78.106V32.378c0-2.002,0.728-3.731,2.184-5.188c1.456-1.456,3.185-2.183,5.187-2.183h23.842
			c1.972,0,3.678,0.728,5.119,2.183c1.44,1.457,2.162,3.186,2.162,5.188v45.728c0,2.033-0.721,3.77-2.162,5.21
			c-1.441,1.441-3.178,2.161-5.209,2.161h-23.751c-2.063,0-3.807-0.72-5.232-2.161C105.455,81.875,104.743,80.138,104.743,78.106z
			 M135.683,77.833V32.742h-23.296v45.091H135.683z"/>
	</g>
	<path d="M218.181,37.896c-23.721-24.001-55.341-37.455-89.035-37.882c-0.06,0.001-0.115,0.026-0.173,0.037
		c-0.492-0.011-0.979-0.037-1.474-0.037c-0.635,0-1.269,0.009-1.886,0.026C91.971,0.529,60.408,14.01,36.74,37.999
		C13.048,62.013,0,93.803,0,127.514c0,33.751,13.076,65.569,36.819,89.591c23.721,24.002,55.34,37.454,89.035,37.882
		c0.004,0,0.009,0,0.013,0c0.065,0,0.123-0.025,0.185-0.036c0.483,0.01,0.963,0.036,1.449,0.036c0.635,0,1.269-0.008,1.886-0.025
		c33.643-0.488,65.206-13.969,88.874-37.959c23.692-24.015,36.74-55.805,36.74-89.515C255,93.736,241.925,61.919,218.181,37.896z
		 M148.115,220.189c0,1.062-0.372,1.964-1.114,2.707c-0.744,0.743-1.647,1.114-2.708,1.114h-30.849c-1.063,0-1.965-0.387-2.708-1.16
		c-0.744-0.773-1.115-1.69-1.115-2.753c0-1.03,0.371-1.91,1.115-2.638c0.743-0.729,1.645-1.093,2.708-1.093h11.739v-45.091h-11.557
		c-1.062,0-1.964-0.371-2.708-1.114c-0.744-0.743-1.114-1.646-1.114-2.708c0-1.061,0.371-1.964,1.114-2.708
		c0.743-0.743,1.646-1.114,2.708-1.114h19.201v52.734h7.644v-15.925c0-1.031,0.371-1.926,1.115-2.685
		c0.743-0.758,1.645-1.138,2.707-1.138c1.061,0,1.964,0.372,2.708,1.115c0.742,0.744,1.114,1.646,1.114,2.707V220.189z
		 M127.5,126.495c-35.425,0-64.246,28.821-64.246,64.247c0,0.004,0,0.009,0,0.013c0,0.004,0,0.009,0,0.013
		c0,1.088,0.029,2.172,0.083,3.251c0.005,0.105,0.017,0.208,0.022,0.314c0.054,0.985,0.126,1.967,0.225,2.943
		c0.007,0.068,0.017,0.136,0.024,0.204c1.487,14.346,7.715,27.703,17.926,38.159c6.726,6.887,14.747,12.082,23.522,15.349
		C46.618,240.317,1.984,188.748,1.984,127.514c0-68.205,55.473-124.5,123.672-125.49c0.612-0.017,1.227-0.026,1.843-0.026
		c2.125,0,4.225,0.108,6.295,0.317c0.041,0.004,0.082,0.008,0.122,0.013c0.935,0.096,1.863,0.217,2.784,0.354
		c0.176,0.027,0.353,0.053,0.528,0.081c0.75,0.118,1.494,0.255,2.235,0.4c0.37,0.073,0.74,0.146,1.107,0.227
		c0.512,0.11,1.021,0.231,1.527,0.354c0.606,0.148,1.211,0.299,1.81,0.465c0.237,0.064,0.472,0.133,0.708,0.201
		c24.984,7.252,43.701,29.933,45.065,56.689c0.052,1.043,0.08,2.092,0.08,3.147C189.755,98.572,161.827,126.495,127.5,126.495z"/>
</g>
</svg>
