<svg xmlns="http://www.w3.org/2000/svg" viewBox=".5 64.5 100 100"><circle fill="#FFF" cx="50.5" cy="114.5" r="50"/><path d="M42.953 95.127V77.194c0-.786.285-1.465.855-2.035.57-.58 1.25-.86 2.033-.86h9.35c.78 0 1.45.28 2.01.85.57.57.85 1.25.85 2.03v17.94c0 .795-.28 1.477-.84 2.04-.56.565-1.24.85-2.04.85h-9.32c-.81 0-1.49-.283-2.05-.85-.56-.565-.84-1.246-.84-2.044zm12.133-.106V77.34h-9.14v17.68h9.14z"/><path d="M86.06 79.357c-9.3-9.413-21.7-14.69-34.914-14.857-.023 0-.045.01-.067.014-.2-.004-.39-.014-.58-.014-.25 0-.5.003-.74.01-13.19.192-25.57 5.48-34.85 14.888C5.61 88.818.5 101.283.5 114.506c0 13.237 5.128 25.716 14.438 35.136 9.303 9.416 21.702 14.69 34.916 14.858h.006c.02 0 .04-.01.07-.015.19.004.37.015.57.015.25 0 .49-.004.74-.01 13.187-.19 25.57-5.48 34.85-14.89 9.29-9.416 14.41-21.885 14.41-35.106 0-13.236-5.127-25.714-14.44-35.137zm-27.476 71.497c0 .416-.145.77-.437 1.062-.29.29-.646.432-1.062.432H44.987c-.416 0-.77-.15-1.062-.462-.29-.31-.438-.67-.438-1.08 0-.41.146-.75.438-1.04.292-.29.646-.43 1.062-.43h4.604v-17.67h-4.53c-.41 0-.77-.148-1.06-.44-.29-.29-.43-.645-.43-1.062 0-.415.15-.77.44-1.062.29-.292.65-.436 1.06-.436h7.53v20.683h3v-6.25c0-.41.15-.76.44-1.05.29-.3.65-.45 1.06-.45.42 0 .77.14 1.06.44.29.29.44.64.44 1.06v7.74l-.002.01zM50.5 114.106c-13.893 0-25.195 11.305-25.195 25.198 0 .42.012.848.034 1.27 0 .04 0 .08.01.118.02.382.04.77.08 1.15l.01.08c.58 5.625 3.02 10.866 7.03 14.966 2.63 2.7 5.78 4.74 9.22 6.02-22.92-4.162-40.43-24.39-40.43-48.403 0-26.748 21.76-48.83 48.5-49.22.24-.006.48-.01.73-.01.83 0 1.65.043 2.46.125l.05.006c.36.037.73.085 1.09.14l.2.03c.29.047.58.1.87.158.142.027.29.057.432.09.2.04.4.09.6.138.237.058.475.117.71.183.092.023.184.05.28.08 9.8 2.845 17.14 11.74 17.67 22.233.02.408.033.82.033 1.234 0 13.462-10.957 24.412-24.416 24.412l.02.002z"/></svg>