<svg version="1.0" xmlns="http://www.w3.org/2000/svg" xmlns:xlink="http://www.w3.org/1999/xlink" viewBox="0 0 100 100.001"><title>Take A Seat — Stühle für das CoderDojo Nürnberg und die tollwerkstatt — Crowdfunding-Ralley vom 1. bis 30. November 2016</title><defs><path id="a" d="M0 0h100v100H0z"/></defs><clipPath id="b"><use xlink:href="#a" overflow="visible"/></clipPath><path clip-path="url(#b)" fill="#6EB645" d="M62.447 1.287S60.077-.653 57.14.232l-4.207 1.27s-2.934.884-5.868 0L42.858.23s-2.935-.885-5.306 1.055l-3.4 2.783s-2.373 1.94-5.424 2.246l-4.372.438s-3.05.305-4.5 3.006L17.78 13.63s-1.45 2.7-4.15 4.15l-3.872 2.08s-2.7 1.45-3.006 4.498l-.438 4.373s-.305 3.05-2.246 5.43l-2.782 3.4S-.654 39.93.23 42.87l1.27 4.2s.885 2.933 0 5.866L.23 57.14s-.884 2.936 1.057 5.307L4.07 65.85s1.94 2.37 2.245 5.42l.438 4.373s.305 3.05 3.006 4.498l3.87 2.08s2.7 1.45 4.15 4.15l2.07 3.88s1.45 2.7 4.5 3.01l4.37.44s3.05.31 5.42 2.25l3.4 2.78s2.37 1.94 5.3 1.06l4.2-1.27s2.93-.88 5.87 0l4.21 1.27s2.93.89 5.3-1.05l3.4-2.78s2.37-1.94 5.42-2.24l4.37-.44s3.05-.3 4.5-3l2.08-3.87s1.45-2.7 4.15-4.15l3.87-2.07s2.7-1.45 3.01-4.5l.44-4.37s.3-3.05 2.24-5.42l2.78-3.4s1.94-2.37 1.05-5.3l-1.24-4.24s-.89-2.93 0-5.86l1.27-4.2s.88-2.93-1.06-5.31l-2.78-3.4s-1.94-2.37-2.24-5.42l-.49-4.88s-.25-2.55-2.5-3.75l-3.87-2.08s-3.15-1.69-4.84-4.85l-2.32-4.32s-.96-1.8-3-2l-3.86-.4s-4.56-.49-8.12-3.4l-2.227-1.8z"/><path clip-path="url(#b)" fill="#FFF" d="M50 91.873c23.125 0 41.873-18.747 41.873-41.873C91.873 26.875 73.125 8.128 50 8.128 26.875 8.128 8.127 26.875 8.127 50c0 23.126 18.748 41.873 41.873 41.873"/><path d="M15.36 38.3l-1.87-.785 2.208-5.255 1.87.786-.723 1.72 10.512 4.413-.765 1.81-10.51-4.42-.722 1.72zm12.517-.468l-9.71-9.496 1.41-1.957 12.083 6.2-1.125 1.55-2.438-1.31-1.11 1.54L29 36.27l-1.123 1.557zm-5.397-8.01l-.313-.16-.065.09.25.248 3.108 2.938.79-1.097-3.77-2.01zm3-9.51l2.914 3.682.057-.045-.06-.23-1.49-4.53L28.41 18l1.325 4.59 7.194 5.792-1.51 1.19-4.7-3.734-.22-.18-.04.033.08.29.32 1.15 2.94 3.73-1.55 1.23-8.34-10.53 1.55-1.22zm6.645-4.48l4.113-1.855.834 1.848-2.314 1.045 1.45 3.214 1.666-.752.888 1.965-1.666.75 1.518 3.365 2.315-1.045.83 1.85-4.12 1.855-5.53-12.24zm12.535 9.482l.832-13.556 2.4-.213 3.21 13.196-1.91.17-.606-2.69-1.893.17-.12 2.76-1.912.17zm2.528-9.322l-.085-.34-.11.01-.022.35-.18 4.272 1.35-.12-.94-4.172zm13.096.648c.118-.42.233-.9.215-1.305-.03-.387-.15-.687-.45-.77-.5-.122-.8.344-1.01 1.1-.13.44-.06.952.08 1.524.14.57.37 1.18.58 1.83.25.77.51 1.56.66 2.31.15.74.19 1.48-.01 2.18-.24.86-.61 1.63-1.18 2.11-.58.48-1.34.69-2.37.39-1.22-.34-1.78-.99-1.96-1.81-.19-.82-.02-1.77.25-2.74l1.91.35c-.16.54-.29 1.09-.27 1.54 0 .46.14.8.54.91.56.16.94-.38 1.17-1.21.12-.43.04-.98-.1-1.57-.09-.29-.17-.6-.28-.91-.22-.63-.46-1.34-.7-2.11-.24-.77-.37-1.53-.37-2.27-.02-.36.03-.73.13-1.08.19-.71.57-1.42 1.13-1.89.56-.45 1.29-.69 2.19-.45 1.15.3 1.68.96 1.86 1.75.17.8.03 1.7-.17 2.42l-1.92-.35zm6.368-1.4l3.964 2.155-.97 1.782-2.23-1.213-1.684 3.098 1.605.873-1.03 1.895-1.605-.873L62.94 26.2l2.23 1.212-.97 1.782-3.964-2.156 6.416-11.8zm-1.954 14.296l10.43-8.7 1.803 1.6-7.39 11.394-1.43-1.275 1.55-2.293L68.23 29l-2.094 1.808-1.435-1.272zm8.515-4.56l.19-.297-.083-.08-.27.22-3.237 2.79 1.012.89 2.388-3.55zm5.397 2.232l1.68-1.138 3.194 4.72-1.68 1.137-1.044-1.542-9.44 6.39-1.106-1.634 9.44-6.39-1.045-1.54zm-4.148 11.076l.747 1.767-1.87.79-.75-1.76 1.87-.79zm10.46-4.54l.832 1.97-9.23 3.365-.447-1.07 8.845-4.28z"/><defs><path id="c" d="M0 0h100v100H0z"/></defs><clipPath id="d"><use xlink:href="#c" overflow="visible"/></clipPath><path clip-path="url(#d)" d="M41.154 38.7s-.62.024-2.65.48c0 0-.188.035-.188-.15l-.373-2.126s-.257-1.366-.245-1.833c0 0 0-.4.374-.67 0 0 .805-.78 3.117-1.19 0 0 2.85-.51 5.64-.51 0 0 2.92.01 4.99.18 0 0 1.1-.06 1.22.68l-.01 3.49s-.02.2-.21.25l-6.74.72s-.05.17.06.53c0 0 .7 2.12.81 2.96 0 0 .42 2.04.46 2.36 0 0 .42 1.96.49 1.96 0 0 .39 1.64 1.73 2.06 0 0 2.31.63 3.48.84 0 0 3.78.71 3.97.68 0 0 3.99.52 5.37.84 0 0 .04 0 .04.12v.15s.02.11-.09.11l-.57-.05s.77.41 1.04 1.07c0 0 .31.52.41 1.28L64.34 59l1.12 6.26.64 3.784-.733.037-3.03-16.6s-.25-1.01-1.12-1.19c0 0-.55-.11-1.71-.18 0 0-1.51-.14-2.78.01 0 0-3.56.32-5.14.9l-1.38 15-.72.02 1.25-14.82-1.84.66s-.87.2-1.02 1.45l.04 17.14-.688.03-.12-17.37s.06-1.18 1.17-1.69c0 0-3.32-.65-4.46-1.05 0 0-1.51-.55-2.01-.85 0 0-1.02-.17-1.4.11 0 0-.86.26-1.32 1.47l-4.47 16.97-.77-.02 4.48-17.16s.36-1.54 2.31-2.17c0 0-1.02-.71-.5-2.15 0 0 .78-2.19.81-4.39l.16-4.45z"/><path fill="#6EB645" d="M15.736 61.885l6.32-2.402.277.73c.327.86.332 1.39-.055 1.822-.39.424-1.168.76-2.406 1.23s-2.034.732-2.606.676c-.576-.06-.925-.46-1.25-1.32l-.28-.73zm1.282.576c.12.32.224.49.57.47.162-.01.398-.06.703-.17.31-.1.71-.26 1.23-.45s.92-.35 1.22-.47c.29-.12.5-.24.64-.34.27-.21.23-.4.11-.72l-4.46 1.7zm2.638 3.89l-.52.26c-.448.19-.818.21-1.205.03-.19-.09-.35-.26-.49-.53-.26-.53-.1-.95.13-1.23.14-.16.31-.31.53-.43l2.27-1.12c.45-.19.84-.21 1.24-.03.2.08.36.26.49.53.27.54.11.96-.11 1.23-.13.16-.3.31-.51.42l-1.31.65-.68-1.37-.98.49c-.17.09-.26.2-.32.32-.02.07-.02.13.02.21.08.16.21.18.35.16.08 0 .16-.03.25-.08l.5-.24.39.78zm.453-1.94l.29.6.63-.31c.17-.08.28-.18.34-.31.02-.06.01-.14-.03-.21-.08-.15-.22-.17-.36-.15-.08.01-.16.04-.25.08l-.64.32zm-1.77 3.28l4.33-2.56.47.8-4.34 2.56-.48-.8zm5.82-3.44l.47.8-.8.48-.48-.8.8-.47zM19.7 69.9l-.51-.777 4.2-2.766.51.777-.356.233c.017.01.07.02.145.035.14.03.33.07.5.157.08.04.14.09.18.16.14.2.11.43.02.62-.1.2-.28.38-.46.5l-3.45 2.26-.51-.78 3.32-2.19c.16-.11.12-.22.06-.31s-.14-.1-.23-.12c-.05 0-.1-.01-.15 0l-3.31 2.18zm4.09 2.47l-.45.364c-.4.284-.76.383-1.17.29-.21-.044-.41-.183-.6-.42-.377-.464-.31-.91-.14-1.23.1-.185.233-.366.42-.53l1.97-1.586c.398-.285.775-.388 1.198-.303.206.034.4.173.59.41.376.465.31.91.15 1.226-.1.19-.23.36-.41.52l-1.138.92-.963-1.19-.85.69c-.15.13-.22.26-.25.39-.008.07.01.13.063.2.11.14.247.14.377.08.078-.02.148-.07.227-.13l.43-.35.54.67zm.02-1.99l.42.524.553-.444c.15-.12.23-.237.26-.378.005-.064-.02-.14-.07-.203-.11-.14-.25-.12-.387-.07-.075.02-.145.07-.23.12l-.55.44zm4.572 2.264c.154-.16.32-.343.41-.526.082-.18.1-.34-.012-.45-.19-.174-.436-.04-.71.242-.16.164-.255.405-.33.692-.075.287-.124.613-.185.95-.078.404-.158.815-.27 1.18-.11.366-.27.7-.53.964-.314.324-.662.575-1.032.65-.37.076-.755-.016-1.143-.396-.453-.444-.543-.864-.43-1.27.113-.404.42-.786.774-1.147l.76.613c-.2.204-.39.415-.486.618-.108.204-.132.387.02.534.21.205.508.06.81-.25.154-.158.255-.42.336-.713.03-.15.07-.31.1-.47.054-.333.12-.704.2-1.102.08-.397.207-.765.385-1.09.08-.165.19-.315.32-.448.25-.268.59-.49.95-.56.36-.065.73.01 1.08.33.43.41.51.833.39 1.225-.12.396-.4.757-.66 1.026l-.77-.61z"/><path fill="#6EB645" d="M30.943 73.133l-.802.95.49.408-.54.64-.48-.41L28 76.63c-.1.12-.23.28-.31.43-.08.15-.112.31 0 .4.056.05.13.1.188.14.035.018.063.04.097.057l-.59.695c-.04-.02-.087-.035-.13-.06-.08-.044-.18-.114-.29-.21-.415-.35-.434-.727-.306-1.076.12-.35.39-.68.58-.904l1.66-1.97-.36-.3.54-.64.36.302.8-.95.71.6zm.947 2.29l.75.55-2.964 4.064-.75-.55.25-.34c-.022-.004-.073.004-.137.015-.16.024-.34.053-.53.03-.1-.013-.18-.04-.25-.09-.2-.145-.26-.367-.23-.587.02-.215.12-.447.24-.62l2.43-3.327.75.547-2.35 3.218c-.12.156-.05.243.04.308.08.07.16.05.25.04.04 0 .08-.02.13-.05l2.33-3.2zm-.807 5.5l-.8-.472 3.44-5.81.8.48-1.095 1.85c.02 0 .07-.01.146-.03.14-.03.328-.08.518-.08.095.01.168.03.24.07.213.13.288.35.29.56-.004.23-.083.47-.19.65l-2.097 3.55-.8-.47 2.027-3.43c.1-.16.017-.24-.077-.3-.088-.05-.163-.03-.252-.01l-.13.06-2.02 3.41zM32.97 82l3.153-5.98.822.435-3.154 5.98-.82-.435zm3.493-3.844l.852.373-.132.3c.202-.07.372-.12.574-.12.095-.01.187.01.262.04.23.1.33.31.37.52.02.22-.03.47-.11.66l-1.29 2.94c-.09.19-.24.4-.41.52-.19.13-.41.19-.64.09-.16-.07-.29-.24-.38-.39-.05-.09-.09-.18-.14-.28l-.83 1.89-.85-.38 2.71-6.2zm-.722 3.97c-.06.136.01.335.14.39.13.056.28-.018.35-.178l1.13-2.588c.07-.16.02-.322-.1-.377-.12-.054-.3.01-.37.17l-1.14 2.587zm4.1-1.336c.03-.078.07-.2.08-.296 0-.1-.05-.184-.16-.224-.14-.052-.25.04-.32.17-.03.065-.07.14-.09.22l-.08.225-.87-.31.07-.198c.13-.348.37-.613.66-.775.29-.16.64-.195.98-.076.29.102.51.306.64.566.13.262.16.572.05.886l-1.03 2.915c-.15.427-.19.627-.23.848l-.86-.3c-.04-.12.04-.35.06-.41l-.06-.02c-.07.06-.19.15-.34.2s-.34.07-.51.01c-.11-.04-.28-.14-.36-.37-.09-.21-.11-.55.07-1.05.19-.52.48-.85.78-1.04.3-.19.62-.26.88-.29.26-.03.45-.05.52-.14l.18-.52zm-.46 1.327c-.49.033-.82.394-.98.845-.02.06-.05.167-.05.275 0 .116.03.216.14.253.2.07.41.006.47-.158l.43-1.215zm3.35-3.033l-.32 1.2.61.165-.22.8-.61-.17-.65 2.41c-.04.15-.09.34-.1.51-.01.17.03.32.17.36.07.02.16.03.23.04.04 0 .07.01.11.01l-.24.88c-.04-.01-.09 0-.14 0-.09-.01-.21-.03-.35-.07-.52-.14-.7-.48-.73-.85-.03-.37.07-.78.15-1.07l.68-2.49-.45-.12.22-.81.46.12.32-1.2.9.24zm2.09 4.99l-.1.57c-.12.473-.32.78-.7.98-.19.103-.43.124-.73.066-.59-.113-.82-.494-.9-.848-.05-.205-.06-.433-.02-.678l.47-2.484c.12-.474.34-.797.72-1.006.18-.105.42-.126.72-.068.59.112.82.494.91.838.05.206.06.424.03.66l-.28 1.436-1.51-.286-.2 1.074c-.02.19 0 .338.07.453.04.06.1.1.18.11.17.03.27-.06.337-.19.04-.06.063-.14.083-.24l.105-.54.85.17zm-1.27-1.534l.66.126.14-.695c.04-.18.03-.33-.04-.45-.03-.05-.1-.09-.18-.11-.17-.03-.27.07-.34.2-.04.07-.06.15-.09.25l-.13.7zM46 86.023l-.923-.105.57-5 .924.107-.05.42c.02-.008.06-.04.12-.088.12-.09.27-.21.44-.283.09-.037.17-.047.25-.037.25.028.41.194.49.39.09.204.12.458.09.667l-.46 4.094-.92-.105.45-3.956c.02-.192-.09-.23-.2-.245-.1-.012-.16.038-.23.094-.03.033-.06.067-.09.11L46 86.023zm3.57-3.528c0-.12.003-.267-.03-.387-.047-.11-.12-.204-.266-.206-.12 0-.19.09-.23.2-.05.108-.06.265-.06.385 0 .156.08.323.198.472.108.14.254.29.4.43.19.19.417.42.57.67.152.26.27.54.265.87-.004.32-.082.66-.27.91-.196.26-.492.45-.934.44-.563-.01-.89-.27-1.07-.59-.18-.32-.21-.71-.21-.97l.866.01c0 .14 0 .33.07.48.06.16.16.29.35.29.26 0 .32-.31.33-.61 0-.3-.29-.61-.57-.9-.22-.22-.43-.41-.59-.66-.16-.25-.28-.53-.28-.9 0-.29.06-.63.24-.9.17-.26.46-.45.9-.45.54-.01.84.2 1 .47.15.27.17.62.17.9l-.87-.01zm2.158 2.55c.012.184.035.402.283.387.21-.013.26-.117.24-.42l-.04-.697.93-.06.04.487c.04.56-.04.924-.23 1.156-.19.233-.47.336-.87.36-.33.02-.64-.052-.86-.27-.22-.214-.38-.583-.41-1.143l-.14-2.194c-.03-.56.07-.94.27-1.18s.5-.35.83-.37c.4-.02.69.04.91.25.22.21.34.56.38 1.12l.03.4-.93.06-.04-.61c-.02-.3-.08-.4-.29-.38-.25.02-.24.24-.23.42l.17 2.71zm3.03.89l-.92.13-.937-6.697.92-.13.3 2.133c.02-.01.05-.05.1-.11.09-.11.21-.27.36-.38.08-.05.15-.08.23-.09.25-.03.44.09.57.26.14.18.23.42.26.63l.57 4.08-.92.13-.55-3.94c-.02-.19-.14-.2-.25-.18-.1.02-.14.08-.2.15-.02.04-.04.08-.06.13l.55 3.93zm2.65-4.375c-.02-.08-.046-.206-.093-.29-.055-.08-.14-.13-.258-.104-.152.033-.19.164-.186.314l.03.236c.02.08.04.162.05.234l-.9.197-.05-.207c-.07-.358-.01-.71.15-1 .17-.29.44-.5.79-.577.3-.064.59-.006.84.146s.44.4.51.72l.66 3.02c.1.44.17.63.25.84l-.89.19c-.1-.08-.15-.32-.16-.38l-.06.01c-.02.09-.08.22-.18.35-.1.13-.26.23-.44.27-.11.02-.31.02-.49-.13-.19-.14-.38-.42-.49-.93-.12-.55-.04-.98.11-1.3.16-.32.39-.55.59-.72s.36-.29.37-.39l-.11-.54zm.3 1.376c-.4.285-.493.766-.39 1.234.012.063.044.168.1.26.06.1.14.166.25.143.206-.045.35-.207.312-.378l-.274-1.26zm2.172 1.947l-1.197-4.02-.45.133-.236-.803.45-.133-.04-.133c-.073-.246-.184-.646-.156-1.01.03-.36.2-.7.72-.854.14-.042.24-.062.32-.057L59.4 78l.227.77c-.028 0-.055.01-.084.01-.065.01-.13.02-.19.038-.15.045-.18.197-.168.375.01.094.03.186.058.273l.063.21.037.125.45-.13.237.81-.448.14 1.195 4.02-.89.27z"/><path fill="#6EB645" d="M60.702 78.014l.412 1.172.6-.21.277.788-.59.21.83 2.36c.06.147.12.34.21.482.09.145.21.25.35.2.07-.023.16-.063.21-.093.04-.02.07-.033.1-.055l.3.86c-.04.022-.07.056-.12.08-.08.048-.19.096-.33.145-.51.18-.84.005-1.08-.28s-.38-.684-.48-.96l-.85-2.43-.44.155-.27-.79.44-.155-.41-1.17.87-.31zm1.568-1.198l.843-.394.394.842-.843.394-.393-.842zm2.862 6.125l-2.128-4.55.842-.39 2.13 4.56-.844.4zm3.59-1.9l-.75.45-2.027-3.43c-.098-.16-.238-.11-.326-.06-.09.05-.13.14-.16.23-.02.05-.03.1-.03.16l2.01 3.41-.8.48-2.56-4.33.8-.47.21.37c.01-.01.02-.06.04-.14.03-.14.1-.34.19-.5.05-.08.1-.13.17-.18.28-.17.58-.03.82.17.01-.04.03-.11.05-.19.04-.17.11-.35.21-.53.05-.08.1-.14.17-.18.21-.12.44-.09.63.02s.36.3.47.48l2.1 3.55-.75.45-2.03-3.43c-.1-.16-.24-.11-.33-.06-.09.06-.13.15-.16.23-.01.05-.03.1-.03.16l2.02 3.41zm3.558-5.42l.583.73c.166.22.28.45.332.68.052.2.06.42.004.64-.06.23-.2.45-.45.66-.26.21-.52.31-.75.31-.23.01-.44-.05-.62-.14-.21-.1-.41-.26-.59-.47L68.3 74.9c-.16-.214-.273-.44-.328-.67-.05-.195-.072-.414-.016-.637s.197-.454.455-.662c.26-.2.51-.29.74-.3s.45.06.63.15c.21.1.41.26.59.46l.59.73-.72.58-.58-.72c-.11-.14-.23-.21-.38-.23-.06 0-.14.03-.22.09-.14.11-.12.26-.08.38.03.08.07.15.12.23l2.5 3.1c.13.15.25.21.39.23.07.01.14-.01.2-.06.17-.13.16-.27.11-.4-.02-.06-.06-.13-.12-.21l-.58-.72.73-.58zm2.74-1.06c.314.38.438.73.383 1.14-.026.22-.15.42-.374.63-.44.41-.88.37-1.22.23-.19-.08-.39-.21-.56-.38l-1.73-1.85c-.31-.37-.45-.74-.4-1.16.02-.21.14-.41.36-.62.44-.4.88-.37 1.21-.23.19.09.37.2.54.37l1.76 1.89zm-2.38-1.27c-.124-.14-.245-.22-.388-.24-.066 0-.14.03-.2.09-.126.12-.1.26-.032.39.03.08.08.14.155.21l1.725 1.85c.124.15.252.22.382.24.064.01.13-.02.19-.07.128-.12.114-.26.047-.38-.03-.07-.08-.14-.16-.21l-1.73-1.86zm5.215-.06l-.616.7-.25-.22c0 .22-.01.39-.06.58-.03.1-.08.18-.13.24-.17.19-.4.23-.62.18-.22-.03-.44-.15-.6-.29l-2.4-2.13c-.16-.14-.31-.34-.38-.56-.07-.2-.06-.43.11-.62.11-.13.31-.2.48-.23.1-.02.2-.03.31-.04l-1.54-1.36.61-.69 5.05 4.49zM74.3 71.3c-.108-.098-.317-.1-.408.005-.092.104-.068.27.062.388l2.113 1.874c.13.116.3.12.39.016s.09-.29-.042-.408L74.3 71.3zm4-1.607l.46.353c.37.318.55.642.56 1.067.01.215-.08.438-.265.678-.363.48-.81.52-1.164.43-.2-.05-.41-.14-.61-.28l-2.01-1.54c-.37-.31-.56-.66-.57-1.09-.01-.21.08-.43.26-.67.36-.47.81-.51 1.16-.43.21.05.41.14.6.28l1.16.89-.93 1.22.87.67c.16.11.3.15.43.15.07-.01.13-.04.18-.11.11-.14.07-.27-.02-.38-.04-.06-.1-.12-.18-.18l-.44-.33.53-.68zm-1.943.447l.408-.532-.563-.432c-.152-.117-.284-.172-.428-.166-.064.01-.132.05-.182.115-.107.14-.057.27.025.39.04.067.102.126.176.194l.564.43zm1.315-3.667c-.068.053-.127.125-.172.194-.08.123-.162.28-.127.478.026.228.143.336.272.422l2.92 1.922-.51.77-4.204-2.77.52-.78.47.31c-.04-.05-.14-.19-.18-.39-.03-.2-.02-.46.17-.74l.86.56z"/><path fill="#6EB645" d="M81.293 68.37l-5.98-3.155.365-.69c.43-.814.824-1.168 1.404-1.163.576.012 1.342.374 2.513.992s1.895 1.04 2.23 1.51c.33.477.26 1.002-.167 1.814l-.365.69zm-.415-1.343c.16-.3.216-.488-.03-.732-.116-.114-.31-.26-.592-.416-.28-.16-.662-.36-1.15-.62-.488-.26-.87-.46-1.158-.6-.282-.14-.51-.22-.678-.26-.332-.06-.455.09-.613.39l4.22 2.22zm1.784-4.295c.436.22.688.492.804.895.06.207.026.443-.095.72-.24.55-.66.687-1.02.69-.21-.003-.43-.04-.66-.132l-2.32-1.015c-.43-.22-.7-.5-.83-.9-.06-.2-.03-.435.1-.712.24-.55.67-.693 1.02-.7.21.002.43.036.65.124l2.37 1.034zm-2.693-.223c-.18-.09-.32-.11-.46-.07-.06.02-.12.08-.15.15-.07.16.01.27.12.36.06.05.13.09.22.12l2.32 1.01c.17.08.31.1.44.06.06-.03.11-.07.14-.15.07-.16 0-.28-.11-.37-.06-.06-.13-.1-.23-.13l-2.31-1zm-2.36-2.13l.3-.88.87.31-.31.87-.88-.31zm1.93-.3l4.86 1.71c.24.08.62.22.89.45s.43.59.26 1.09c-.05.14-.09.23-.13.28-.02.03-.04.05-.06.08l-.81-.29c.02-.02.02-.05.04-.07.03-.06.06-.11.07-.16.05-.15-.05-.26-.18-.35-.07-.04-.14-.07-.22-.1l-.2-.07-4.86-1.71.31-.88zM84 58.5c.46.16.744.4.91.79.083.19.08.43-.007.72-.17.573-.57.76-.93.81-.21.022-.438.013-.678-.05l-2.425-.72c-.46-.167-.76-.41-.936-.798-.09-.19-.087-.43 0-.72.17-.57.574-.77.925-.818.21-.025.43-.018.66.042l2.48.734zm-2.7.11c-.183-.07-.325-.07-.457-.02-.058.032-.105.095-.13.173-.05.17.045.273.167.35.065.046.14.08.24.1l2.426.72c.183.064.327.06.45.01.056-.03.1-.086.125-.164.05-.17-.03-.28-.15-.36-.06-.05-.14-.08-.24-.1l-2.42-.72z"/></svg>
