<?xml version="1.0" encoding="utf-8"?><!DOCTYPE svg PUBLIC "-//W3C//DTD SVG 1.1//EN" "http://www.w3.org/Graphics/SVG/1.1/DTD/svg11.dtd"><svg width="501.965" height="2362" viewBox="0 0 501.965 2362" xmlns="http://www.w3.org/2000/svg" xmlns:xlink="http://www.w3.org/1999/xlink"><view id="coderdojo-button" viewBox="0 0 255 255"/><svg width="255" height="255" viewBox="0 0 255 255" id="coderdojo-button-"><circle fill="#FFF" cx="127.5" cy="127.514" r="127.5"/><path d="M104.743,78.106V32.378c0-2.002,0.728-3.731,2.184-5.188c1.456-1.456,3.185-2.183,5.187-2.183h23.842 c1.972,0,3.678,0.728,5.119,2.183c1.44,1.457,2.162,3.186,2.162,5.188v45.728c0,2.033-0.721,3.77-2.162,5.21 c-1.441,1.441-3.178,2.161-5.209,2.161h-23.751c-2.063,0-3.807-0.72-5.232-2.161C105.455,81.875,104.743,80.138,104.743,78.106z M135.683,77.833V32.742h-23.296v45.091H135.683z"/><path d="M218.181,37.896c-23.721-24.001-55.341-37.455-89.035-37.882c-0.06,0.001-0.115,0.026-0.173,0.037 c-0.492-0.011-0.979-0.037-1.474-0.037c-0.635,0-1.269,0.009-1.886,0.026C91.971,0.529,60.408,14.01,36.74,37.999 C13.048,62.013,0,93.803,0,127.514c0,33.751,13.076,65.569,36.819,89.591c23.721,24.002,55.34,37.454,89.035,37.882 c0.004,0,0.009,0,0.013,0c0.065,0,0.123-0.025,0.185-0.036c0.483,0.01,0.963,0.036,1.449,0.036c0.635,0,1.269-0.008,1.886-0.025 c33.643-0.488,65.206-13.969,88.874-37.959c23.692-24.015,36.74-55.805,36.74-89.515C255,93.736,241.925,61.919,218.181,37.896z M148.115,220.189c0,1.062-0.372,1.964-1.114,2.707c-0.744,0.743-1.647,1.114-2.708,1.114h-30.849c-1.063,0-1.965-0.387-2.708-1.16 c-0.744-0.773-1.115-1.69-1.115-2.753c0-1.03,0.371-1.91,1.115-2.638c0.743-0.729,1.645-1.093,2.708-1.093h11.739v-45.091h-11.557 c-1.062,0-1.964-0.371-2.708-1.114c-0.744-0.743-1.114-1.646-1.114-2.708c0-1.061,0.371-1.964,1.114-2.708 c0.743-0.743,1.646-1.114,2.708-1.114h19.201v52.734h7.644v-15.925c0-1.031,0.371-1.926,1.115-2.685 c0.743-0.758,1.645-1.138,2.707-1.138c1.061,0,1.964,0.372,2.708,1.115c0.742,0.744,1.114,1.646,1.114,2.707V220.189z M127.5,126.495c-35.425,0-64.246,28.821-64.246,64.247c0,0.004,0,0.009,0,0.013c0,0.004,0,0.009,0,0.013 c0,1.088,0.029,2.172,0.083,3.251c0.005,0.105,0.017,0.208,0.022,0.314c0.054,0.985,0.126,1.967,0.225,2.943 c0.007,0.068,0.017,0.136,0.024,0.204c1.487,14.346,7.715,27.703,17.926,38.159c6.726,6.887,14.747,12.082,23.522,15.349 C46.618,240.317,1.984,188.748,1.984,127.514c0-68.205,55.473-124.5,123.672-125.49c0.612-0.017,1.227-0.026,1.843-0.026 c2.125,0,4.225,0.108,6.295,0.317c0.041,0.004,0.082,0.008,0.122,0.013c0.935,0.096,1.863,0.217,2.784,0.354 c0.176,0.027,0.353,0.053,0.528,0.081c0.75,0.118,1.494,0.255,2.235,0.4c0.37,0.073,0.74,0.146,1.107,0.227 c0.512,0.11,1.021,0.231,1.527,0.354c0.606,0.148,1.211,0.299,1.81,0.465c0.237,0.064,0.472,0.133,0.708,0.201 c24.984,7.252,43.701,29.933,45.065,56.689c0.052,1.043,0.08,2.092,0.08,3.147C189.755,98.572,161.827,126.495,127.5,126.495z"/></svg><view id="coderdojo-dark-horizontal" viewBox="0 255 400 119.259"/><svg width="400" height="119.259" viewBox="0 0 400 119.259" id="coderdojo-dark-horizontal-" y="255"><path fill-rule="evenodd" clip-rule="evenodd" d="M156.4,49.72v10.214c-0.104,3.037-0.695,5.768-1.817,8.089	c-0.917,2.025-2.332,3.95-4.358,5.478c-2.028,1.608-4.747,2.51-8.399,2.51c-3.64,0-6.473-0.901-8.501-2.51	c-2.026-1.527-3.337-3.452-4.246-5.478c-1.11-2.321-1.715-5.053-1.825-8.089V16.106c0.11-2.945,0.715-5.679,1.825-8.007	c0.909-2.016,2.219-4.044,4.246-5.569c2.028-1.499,4.861-2.53,8.501-2.53c3.653,0,6.371,1.031,8.399,2.53	c2.026,1.525,3.441,3.553,4.358,5.569c1.123,2.329,1.713,5.063,1.817,8.007v10.214h-10.217V16.106c0-2.029-0.504-3.449-1.624-4.658	c-0.506-0.507-1.41-0.82-2.533-0.82c-1.914,0-2.833,1.423-3.337,2.744c-0.303,0.796-0.405,1.713-0.504,2.733v43.827	c0.099,2.118,0.705,3.553,1.723,4.658c0.507,0.51,1.222,0.8,2.118,0.8c2.329,0,3.238-1.212,3.752-2.733	c0.292-0.695,0.405-1.614,0.405-2.724V49.72H156.4L156.4,49.72z M188.265,61.739c-0.303,5.388-1.927,9.13-5.478,12.052	c-1.814,1.527-4.347,2.22-7.684,2.22c-6.584,0-9.825-3.641-11.446-7.295c-0.909-2.093-1.514-4.536-1.604-7.257V33.613	c0.293-5.365,1.917-9.318,5.457-12.342c1.723-1.525,4.243-2.24,7.593-2.24c6.577,0,9.924,3.64,11.535,7.19	c0.909,2.128,1.525,4.447,1.626,7.079V61.739L188.265,61.739z M178.644,33.613c0.099-2.125-0.303-3.65-1.321-4.849	c-0.506-0.517-1.311-0.83-2.219-0.83c-1.939,0-2.734,1.333-3.136,2.858c-0.303,0.794-0.402,1.713-0.303,2.82v27.846	c-0.1,2.115,0.402,3.643,1.311,4.747c0.501,0.52,1.211,0.794,2.128,0.794c1.917,0,2.835-1.196,3.238-2.719	c0.303-0.794,0.402-1.713,0.303-2.822V33.613L178.644,33.613z M221.188,75.226h-10.232v-3.65c-1.711,1.609-3.237,2.82-5.151,3.742	c-1.019,0.509-2.026,0.692-2.936,0.692c-2.833,0-4.759-1.614-5.979-3.742c-1.311-2.031-1.917-4.749-1.917-7.065V29.874	c0-2.342,0.606-5.075,1.917-7.203c1.219-2.026,3.146-3.64,5.979-3.64c1.917,0,3.943,1.107,5.465,2.24	c0.911,0.705,1.716,1.4,2.622,2.227V0.817h10.232V75.226L221.188,75.226z M210.956,31.989c0-1.614-1.522-3.327-3.021-3.327	c-1.524,0-2.736,1.4-2.736,3.327V63.07c0,1.903,1.212,3.339,2.736,3.339c1.499,0,3.021-1.436,3.021-3.339V31.989L210.956,31.989z M254.975,55.365v6.374c-0.285,5.388-1.93,9.13-5.56,12.052c-1.812,1.527-4.357,2.22-7.691,2.22c-6.567,0-9.917-3.641-11.546-7.295	c-0.896-2.093-1.517-4.536-1.613-7.257V33.613c0.315-5.365,2.021-9.318,5.666-12.342c1.735-1.525,4.261-2.24,7.595-2.24	c6.593,0,9.927,3.64,11.535,7.19c0.916,2.128,1.527,4.447,1.614,7.079v16.106h-16.896v12.052c0.107,2.115,0.718,3.643,1.635,4.747	c0.504,0.52,1.196,0.794,2.112,0.794c1.93,0,2.841-1.196,3.232-2.719c0.306-0.794,0.423-1.713,0.423-2.822v-6.093H254.975	L254.975,55.365z M238.078,41.409h7.402v-7.796c0-2.125-0.423-3.65-1.421-4.849c-0.519-0.517-1.328-0.83-2.234-0.83	c-1.914,0-2.733,1.333-3.237,2.858c-0.306,0.794-0.402,1.713-0.51,2.82V41.409L238.078,41.409z M282.239,30.375	c-0.891-0.313-1.903-0.413-2.82-0.413c-1.639,0-3.568,0.224-5.177,1.713c-1.925,1.624-2.22,3.36-2.22,5.073v38.478H261.78v-55.38	h10.242v6.185c0.092-0.728,0.81-2.444,2.418-4.055c1.634-1.525,4.053-2.945,7.799-2.945V30.375L282.239,30.375z M286.693,75.226	V0.817h8.608c10.146,0,15.607,2.016,18.545,7.684c2.8,5.668,3.232,14.997,3.232,29.559c0,14.584-0.433,23.781-3.232,29.459	c-2.938,5.666-8.399,7.707-18.545,7.707H286.693L286.693,75.226z M297.648,64.281c3.747,0,5.875-0.417,6.969-4.054	c0.515-1.713,0.917-4.347,1.028-7.896c0.097-3.528,0.097-8.288,0.097-14.371c0-6.061,0-10.82-0.097-14.374	c-0.111-3.449-0.514-6.081-1.028-7.896c-1.094-3.548-3.222-3.93-6.969-3.93V64.281L297.648,64.281z M349.577,61.739	c-0.336,5.388-1.929,9.13-5.462,12.052c-1.822,1.527-4.348,2.22-7.717,2.22c-6.557,0-9.805-3.641-11.438-7.295	c-0.896-2.093-1.507-4.536-1.589-7.257V33.613c0.285-5.365,1.925-9.318,5.442-12.342c1.746-1.525,4.25-2.24,7.585-2.24	c6.592,0,9.946,3.64,11.545,7.19c0.916,2.128,1.537,4.447,1.634,7.079V61.739L349.577,61.739z M339.967,33.613	c0.117-2.125-0.336-3.65-1.344-4.849c-0.499-0.517-1.299-0.83-2.225-0.83c-1.895,0-2.703,1.333-3.136,2.858	c-0.285,0.794-0.397,1.713-0.285,2.82v27.846c-0.112,2.115,0.401,3.643,1.298,4.747c0.534,0.52,1.212,0.794,2.123,0.794	c1.929,0,2.855-1.196,3.232-2.719c0.336-0.794,0.453-1.713,0.336-2.822V33.613L339.967,33.613z M356.384,0.817h10.201v10.214	h-10.201V0.817L356.384,0.817z M366.585,19.846v56.765c0,2.846,0,7.305-1.39,10.955c-1.42,3.741-4.556,6.679-10.354,6.679	c-1.593,0-2.688-0.092-3.421-0.316c-0.392-0.091-0.728-0.198-1.013-0.29v-9.407c0.285,0.087,0.621,0.087,0.916,0.179	c0.718,0.111,1.293,0.219,1.925,0.219c1.705,0,2.504-1.431,2.957-3.131c0.097-0.83,0.179-1.751,0.179-2.647c0-0.916,0-1.726,0-2.331	V19.846H366.585L366.585,19.846z M400,61.739c-0.336,5.388-1.925,9.13-5.503,12.052c-1.782,1.527-4.348,2.22-7.661,2.22	c-6.593,0-9.82-3.641-11.454-7.295c-0.916-2.093-1.502-4.536-1.608-7.257V33.613c0.285-5.365,1.903-9.318,5.462-12.342	c1.746-1.525,4.261-2.24,7.601-2.24c6.557,0,9.87,3.64,11.535,7.19c0.911,2.128,1.491,4.447,1.629,7.079V61.739L400,61.739z M390.348,33.613c0.138-2.125-0.295-3.65-1.303-4.849c-0.483-0.517-1.318-0.83-2.209-0.83c-1.95,0-2.719,1.333-3.162,2.858	c-0.295,0.794-0.387,1.713-0.295,2.82v27.846c-0.092,2.115,0.402,3.643,1.318,4.747c0.515,0.52,1.212,0.794,2.139,0.794	c1.924,0,2.84-1.196,3.217-2.719c0.295-0.794,0.433-1.713,0.295-2.822V33.613L390.348,33.613z"/><path fill="#FEFEFE" d="M50.786,94.463c-0.469,0-0.848,0.152-1.171,0.474c-0.326,0.305-0.489,0.697-0.489,1.13 c0,0.453,0.163,0.865,0.489,1.191c0.323,0.325,0.702,0.498,1.171,0.498h13.337c0.466,0,0.845-0.152,1.181-0.479 c0.326-0.325,0.476-0.712,0.476-1.17v-8.537c0-0.479-0.15-0.865-0.476-1.191c-0.336-0.326-0.715-0.479-1.181-0.479 s-0.845,0.173-1.17,0.499c-0.326,0.325-0.486,0.718-0.486,1.171v6.893H59.16V71.642h-8.3c-0.466,0-0.845,0.152-1.168,0.479 c-0.336,0.326-0.489,0.713-0.489,1.171c0,0.474,0.153,0.845,0.489,1.171c0.323,0.346,0.703,0.499,1.168,0.499h5.006v19.502H50.786z"/><path d="M55.963,0C25.05,0,0,25.074,0,55.976s25.061,55.953,55.963,55.953c30.915,0,55.966-25.051,55.966-55.953 C111.929,25.051,86.865,0,55.963,0z M65.78,96.108c0,0.458-0.15,0.845-0.476,1.17c-0.336,0.326-0.715,0.479-1.181,0.479H50.786 c-0.469,0-0.848-0.173-1.171-0.498c-0.326-0.326-0.489-0.738-0.489-1.191c0-0.433,0.163-0.825,0.489-1.13 c0.323-0.321,0.702-0.474,1.171-0.474h5.08V74.961H50.86c-0.466,0-0.845-0.153-1.168-0.499c-0.336-0.326-0.489-0.697-0.489-1.171 c0-0.458,0.153-0.845,0.489-1.171c0.323-0.326,0.703-0.479,1.168-0.479h8.3v22.821h3.306v-6.893c0-0.453,0.16-0.846,0.486-1.171 c0.326-0.326,0.705-0.499,1.17-0.499s0.845,0.152,1.181,0.479c0.326,0.326,0.476,0.713,0.476,1.191V96.108z M55.39,55.976 c-14.638,0-26.537,11.874-26.537,26.524c0,14.411,11.541,26.155,25.865,26.527c-28.973-0.372-52.39-23.992-52.39-53.052 c0-29.04,23.351-52.639,52.293-53.062c0.26-0.02,0.509-0.02,0.779-0.02l-0.01,0.02c14.628,0,26.525,11.866,26.525,26.537 C81.915,44.079,70.039,55.976,55.39,55.976z"/><path fill="#FEFEFE" d="M50.34 15.04H60.407000000000004V34.542H50.34z"/><path fill="#FEFEFE" d="M55.39,2.914l0.01-0.02c-0.27,0-0.519,0-0.779,0.02C25.679,3.337,2.329,26.937,2.329,55.976 c0,29.06,23.417,52.68,52.39,53.052C40.394,108.656,28.853,96.912,28.853,82.5c0-14.65,11.899-26.524,26.537-26.524 c14.648,0,26.525-11.897,26.525-26.525C81.915,14.78,70.018,2.914,55.39,2.914z M63.701,34.651c0,0.888-0.303,1.647-0.942,2.252 c-0.608,0.629-1.367,0.955-2.245,0.955H50.244c-0.888,0-1.659-0.326-2.265-0.955c-0.619-0.605-0.932-1.364-0.932-2.252h-0.01 V14.887c0-0.865,0.303-1.624,0.942-2.232c0.629-0.629,1.377-0.952,2.242-0.952h10.327c0.845,0,1.604,0.323,2.211,0.952 c0.616,0.628,0.942,1.387,0.942,2.232V34.651z"/><path d="M60.547,11.703H50.221c-0.865,0-1.613,0.323-2.242,0.952c-0.639,0.608-0.942,1.367-0.942,2.232v19.764h0.01 c0,0.888,0.313,1.647,0.932,2.252c0.606,0.629,1.377,0.955,2.265,0.955h10.271c0.878,0,1.637-0.326,2.245-0.955 c0.639-0.605,0.942-1.364,0.942-2.252V14.887c0-0.845-0.326-1.604-0.942-2.232C62.151,12.026,61.392,11.703,60.547,11.703z M60.407,34.542H50.34V15.04h10.067V34.542z"/><g><path d="M133.197 97.243l-.336-1.277h-.239v15.842h-3.759V83.875h3.652l3.986 14.56.346 1.282h.229V83.875h3.76v27.933h-3.64L133.197 97.243zM149.808 91.027h3.846v20.78h-3.846v-1.736c-.077.025-.229.179-.413.372-.456.453-.985.997-1.68 1.364-.336.193-.682.305-1.028.305-1.018 0-1.746-.61-2.199-1.409-.456-.759-.685-1.777-.685-2.643V91.027h3.835v16.448c0 .799.456.905.921.905.413 0 .639-.213.912-.473.106-.133.226-.306.336-.499V91.027zM144.335 83.875h3.543v3.727h-3.543V83.875zM149.698 83.875h3.533v3.727h-3.533V83.875zM164.37 94.967c-.346-.107-.715-.147-1.062-.147-.606 0-1.333.086-1.939.646-.726.605-.835 1.257-.835 1.909v14.432h-3.846v-20.78h3.846v2.316c.033-.28.303-.911.911-1.537.606-.565 1.517-1.085 2.925-1.085V94.967zM169.885 111.807h-3.846v-20.78h3.846v1.731c.076-.021.227-.174.456-.413.422-.412.985-.997 1.667-1.364.349-.193.652-.26.998-.26 1.018 0 1.743.606 2.199 1.364.456.805.682 1.823.682 2.688v17.033h-3.835V95.359c0-.804-.453-.911-.909-.911-.422 0-.652.219-.911.479-.12.153-.227.301-.346.499V111.807zM178.857 83.875h3.835v8.517c.649-.605 1.225-1.063 1.983-1.41.336-.193.726-.26 1.062-.26 1.062 0 1.787.606 2.286 1.364.456.805.682 1.823.682 2.688v13.286c0 .865-.227 1.884-.682 2.643-.499.799-1.224 1.409-2.286 1.409-.726 0-1.484-.412-2.049-.824-.346-.26-.649-.545-.996-.845v1.364h-3.835V83.875zM182.693 107.255c0 .718.573 1.258 1.148 1.258.563 0 1.018-.54 1.018-1.258V95.578c0-.718-.456-1.257-1.018-1.257-.575 0-1.148.646-1.148 1.257V107.255zM201.21 104.354v2.403c-.109 2.016-.715 3.426-2.103 4.53-.672.565-1.624.824-2.871.824-2.481 0-3.726-1.369-4.345-2.733-.336-.799-.563-1.71-.605-2.729V96.184c.117-2.017.769-3.492 2.133-4.638.651-.565 1.593-.825 2.851-.825 2.469 0 3.727 1.364 4.335 2.688.323.799.583 1.67.605 2.662v6.048h-6.351v4.53c.043.8.262 1.364.608 1.776.193.193.456.306.802.306.726 0 1.062-.458 1.214-1.023.117-.3.16-.646.16-1.059v-2.296H201.21zM194.859 99.106h2.785v-2.922c0-.805-.16-1.364-.54-1.822-.186-.194-.489-.301-.835-.301-.725 0-1.031.494-1.214 1.059-.12.306-.153.652-.196 1.064V99.106zM211.435 94.967c-.347-.107-.713-.147-1.059-.147-.611 0-1.345.086-1.95.646-.713.605-.824 1.257-.824 1.909v14.432h-3.854v-20.78h3.854v2.316c.046-.28.305-.911.911-1.537.605-.565 1.517-1.085 2.922-1.085V94.967zM222.512 101.773c-.133 1.95-.825 3.314-2.128 4.332-.692.545-1.649.805-2.811.805-.132 0-.244 0-.355 0-.123 0-.255 0-.388-.046-.346.306-.519.611-.519.957 0 .453.366.713.937.886.58.173 1.272.285 1.965.412 1.212.153 2.515.458 3.604 1.171 1.018.738 1.73 1.822 1.73 3.66 0 2.017-.865 3.386-2.077 4.185-1.263.805-2.952 1.125-4.51 1.125-1.823-.041-3.381-.3-4.419-.906-1.13-.61-1.741-1.604-1.741-3.12 0-.718.397-1.323.957-1.863.561-.524 1.344-.957 2.057-1.283-1.231-.346-2.321-1.145-2.321-2.774 0-.605.356-1.231.805-1.797.458-.564 1.018-1.018 1.588-1.323-1.089-.733-1.629-1.863-1.894-2.815-.143-.564-.274-1.15-.295-1.71v-5.682c.152-1.924.753-3.334 2.097-4.438.652-.565 1.578-.825 2.779-.825 1.925 0 3.116.866 3.809 1.884.285-.26.732-.713 1.344-1.125.56-.433 1.211-.759 1.822-.759v3.427c-1.019 0-1.782.173-2.25.453.041.173.081.366.122.479 0 .147 0 .3.051.433.041.106.041.26.041.366V101.773zM216.963 112.758c-.825.459-1.436 1.044-1.436 1.823 0 .799.743 1.45 2.515 1.45.651 0 1.395-.106 1.955-.346.56-.219.997-.565.997-1.064 0-.346-.04-.605-.305-.865-.306-.26-.825-.453-1.782-.605L216.963 112.758zM218.734 96.138c0-.713-.173-1.171-.448-1.583-.152-.193-.366-.301-.713-.301-.61 0-.916.499-1.048.952-.082.26-.122.605-.082.932v5.722c-.04.718.082 1.171.428 1.563.153.174.377.301.702.301.642 0 .906-.453 1.039-.911.081-.28.122-.626.122-.952V96.138z"/></g></svg><view id="coderdojo-dark-vertical" viewBox="0 375 420.055 500"/><svg width="420.055" height="500" viewBox="0 0 420.055 500" id="coderdojo-dark-vertical-" y="375"><path d="M44.883,351.186v15.761c-0.131,4.674-1.091,8.861-2.796,12.486c-1.396,3.1-3.578,6.071-6.721,8.426 c-3.101,2.49-7.338,3.889-12.925,3.889c-5.634,0-9.999-1.398-13.1-3.889c-3.1-2.354-5.151-5.282-6.55-8.426 c-1.701-3.578-2.661-7.77-2.792-12.486v-67.497c0.175-4.542,1.091-8.733,2.792-12.314c1.398-3.101,3.406-6.243,6.55-8.559 c3.101-2.354,7.466-3.885,13.1-3.885c5.632,0,9.824,1.573,12.925,3.885c3.096,2.358,5.279,5.458,6.721,8.559 c1.705,3.581,2.665,7.772,2.796,12.314v15.76H29.119v-15.76c0-3.101-0.784-5.284-2.486-7.163c-0.788-0.785-2.184-1.265-3.888-1.265 c-2.969,0-4.364,2.181-5.151,4.189c-0.478,1.266-0.61,2.665-0.786,4.238v67.497c0.176,3.274,1.093,5.458,2.666,7.16 c0.784,0.785,1.875,1.267,3.271,1.267c3.581,0,4.979-1.877,5.765-4.192c0.48-1.091,0.609-2.486,0.609-4.19v-15.761h15.764V351.186z M93.956,369.74c-0.481,8.251-2.969,14.016-8.426,18.557c-2.794,2.357-6.725,3.404-11.833,3.404 c-10.128,0-15.105-5.63-17.638-11.22c-1.398-3.274-2.357-7.028-2.489-11.22v-42.875c0.48-8.252,2.968-14.321,8.426-18.993 c2.665-2.358,6.55-3.45,11.701-3.45c10.131,0,15.282,5.633,17.769,11.092c1.398,3.274,2.358,6.853,2.49,10.915V369.74z M79.155,326.387c0.175-3.275-0.482-5.59-2.009-7.467c-0.785-0.785-2.008-1.267-3.406-1.267c-2.969,0-4.235,2.009-4.846,4.366 c-0.48,1.267-0.608,2.664-0.48,4.367v42.875c-0.128,3.274,0.613,5.63,2.009,7.335c0.787,0.784,1.88,1.267,3.274,1.267 c2.971,0,4.367-1.881,4.976-4.192c0.482-1.267,0.614-2.664,0.482-4.366V326.387z M144.691,390.48h-15.765v-5.633 c-2.661,2.49-4.976,4.366-7.944,5.762c-1.572,0.788-3.143,1.092-4.542,1.092c-4.365,0-7.333-2.487-9.21-5.762 c-2.009-3.101-2.972-7.335-2.972-10.916v-54.398c0-3.582,0.92-7.773,2.972-11.049c1.877-3.1,4.845-5.633,9.21-5.633 c2.97,0,6.069,1.705,8.428,3.45c1.397,1.091,2.664,2.183,4.059,3.406v-34.929h15.765V390.48z M128.927,323.896 c0-2.487-2.354-5.151-4.669-5.151c-2.358,0-4.192,2.183-4.192,5.151v47.853c0,2.968,1.877,5.151,4.192,5.151 c2.357,0,4.669-2.184,4.669-5.151V323.896z M196.732,359.918v9.822c-0.479,8.251-2.969,14.016-8.556,18.557 c-2.796,2.357-6.725,3.404-11.832,3.404c-10.131,0-15.282-5.63-17.77-11.22c-1.397-3.274-2.358-7.028-2.49-11.22v-42.875 c0.482-8.252,3.101-14.321,8.732-18.993c2.663-2.358,6.55-3.45,11.701-3.45c10.129,0,15.28,5.633,17.77,11.092 c1.398,3.274,2.358,6.853,2.49,10.915v24.797h-26.023v18.558c0.174,3.275,1.091,5.633,2.489,7.334 c0.785,0.786,1.876,1.267,3.274,1.267c2.969,0,4.367-1.877,4.978-4.19c0.48-1.268,0.61-2.666,0.61-4.367v-9.343h14.672 L196.732,359.918z M170.711,338.394h11.396v-12.007c0-3.275-0.61-5.59-2.184-7.467c-0.786-0.785-2.005-1.267-3.404-1.267 c-2.968,0-4.234,2.009-4.977,4.366c-0.48,1.267-0.613,2.664-0.787,4.367v12.007H170.711z M238.734,321.409 c-1.396-0.481-2.969-0.612-4.367-0.612c-2.486,0-5.455,0.306-7.944,2.664c-2.968,2.489-3.45,5.151-3.45,7.773v59.246h-15.761 V305.21h15.761v9.519c0.176-1.093,1.267-3.754,3.757-6.244c2.486-2.357,6.243-4.541,12.005-4.541V321.409z M245.59,390.48V275.915 h13.271c15.589,0,24.016,3.1,28.511,11.832c4.367,8.729,4.979,23.096,4.979,45.538c0,22.441-0.612,36.629-4.979,45.362 c-4.495,8.732-12.922,11.833-28.511,11.833H245.59z M262.442,373.629c5.765,0,9.036-0.614,10.741-6.247 c0.785-2.661,1.396-6.722,1.569-12.136c0.176-5.458,0.176-12.793,0.176-22.136s0-16.678-0.176-22.136 c-0.128-5.283-0.784-9.343-1.569-12.139c-1.705-5.459-4.977-6.069-10.741-6.069v80.904V373.629z M342.429,369.74 c-0.48,8.251-2.971,14.016-8.426,18.557c-2.796,2.357-6.725,3.404-11.832,3.404c-10.131,0-15.108-5.63-17.641-11.22 c-1.396-3.274-2.358-7.028-2.486-11.22v-42.875c0.478-8.252,2.968-14.321,8.426-18.993c2.661-2.358,6.55-3.45,11.701-3.45 c10.127,0,15.278,5.633,17.769,11.092c1.398,3.274,2.358,6.853,2.489,10.915V369.74z M327.629,326.387 c0.174-3.275-0.482-5.59-2.009-7.467c-0.788-0.785-2.008-1.267-3.407-1.267c-2.968,0-4.234,2.009-4.845,4.366 c-0.48,1.267-0.613,2.664-0.48,4.367v42.875c-0.133,3.274,0.61,5.63,2.009,7.335c0.784,0.784,1.876,1.267,3.274,1.267 c2.968,0,4.365-1.881,4.976-4.192c0.482-1.267,0.61-2.664,0.482-4.366V326.387z M352.907,275.871h15.761v15.762h-15.761V275.871z M368.668,305.167v87.45c0,4.367,0,11.224-2.184,16.855c-2.184,5.762-7.028,10.303-15.893,10.303c-2.487,0-4.191-0.174-5.283-0.48 c-0.61-0.176-1.091-0.304-1.569-0.479v-14.497c0.479,0.133,0.917,0.133,1.395,0.307c1.092,0.175,2.008,0.307,2.971,0.307 c2.662,0,3.886-2.184,4.496-4.848c0.175-1.267,0.307-2.661,0.307-4.06v-90.857H368.668z M420.055,369.697 c-0.478,8.252-2.968,14.017-8.426,18.558c-2.793,2.354-6.721,3.403-11.829,3.403c-10.131,0-15.108-5.633-17.641-11.221 c-1.397-3.274-2.357-7.029-2.489-11.222v-42.873c0.48-8.251,2.971-14.322,8.43-18.992c2.661-2.358,6.546-3.449,11.7-3.449 c10.128,0,15.279,5.632,17.77,11.09c1.395,3.274,2.357,6.854,2.485,10.913V369.697z M405.255,326.343 c0.174-3.274-0.479-5.59-2.009-7.467c-0.785-0.784-2.008-1.266-3.403-1.266c-2.968,0-4.234,2.008-4.849,4.366 c-0.478,1.267-0.609,2.661-0.478,4.366v42.873c-0.132,3.274,0.609,5.633,2.009,7.337c0.784,0.786,1.877,1.265,3.274,1.265 c2.968,0,4.363-1.877,4.977-4.188c0.479-1.267,0.61-2.666,0.479-4.367V326.343z"/><path fill="#FEFEFE" d="M198.289,214.086c-1.048,0-1.924,0.387-2.658,1.092c-0.74,0.696-1.092,1.557-1.092,2.569 c0,1.047,0.352,1.959,1.092,2.703c0.734,0.743,1.61,1.13,2.658,1.13h30.242c1.054,0,1.912-0.34,2.664-1.092 c0.735-0.735,1.091-1.609,1.091-2.663v-19.363c0-1.053-0.355-1.929-1.091-2.663c-0.752-0.735-1.61-1.093-2.664-1.093 c-1.052,0-1.919,0.396-2.662,1.131c-0.737,0.75-1.093,1.617-1.093,2.625v15.624h-7.502v-51.712h-18.807 c-1.053,0-1.924,0.356-2.663,1.092c-0.747,0.743-1.093,1.61-1.093,2.663c0,1.046,0.346,1.912,1.093,2.656 c0.739,0.743,1.61,1.091,2.663,1.091h11.343v44.21H198.289z"/><path d="M210.027,0C139.947,0,83.176,56.813,83.176,126.852c0,70.077,56.814,126.853,126.852,126.853 c70.077,0,126.852-56.814,126.852-126.853C336.879,56.772,280.064,0,210.027,0z M232.286,217.825c0,1.054-0.355,1.928-1.091,2.663 c-0.752,0.752-1.61,1.092-2.664,1.092h-30.242c-1.048,0-1.924-0.387-2.658-1.13c-0.74-0.744-1.092-1.656-1.092-2.703 c0-1.013,0.352-1.873,1.092-2.569c0.734-0.705,1.61-1.092,2.658-1.092h11.521v-44.21h-11.343c-1.053,0-1.924-0.348-2.663-1.091 c-0.747-0.744-1.093-1.61-1.093-2.656c0-1.053,0.346-1.92,1.093-2.663c0.739-0.735,1.61-1.092,2.663-1.092h18.807v51.712h7.502 v-15.624c0-1.008,0.355-1.875,1.093-2.625c0.743-0.735,1.61-1.131,2.662-1.131c1.054,0,1.912,0.357,2.664,1.093 c0.735,0.734,1.091,1.61,1.091,2.663V217.825z M208.72,126.852c-33.165,0-60.132,26.929-60.132,60.128 c0,32.688,26.138,59.3,58.606,60.136c-65.675-0.836-118.737-54.367-118.737-120.264c0-65.807,52.93-119.298,118.52-120.259 c0.608-0.05,1.173-0.05,1.781-0.05l-0.038,0.05c33.16,0,60.134,26.917,60.134,60.128 C268.854,99.886,241.926,126.852,208.72,126.852z"/><path fill="#FEFEFE" d="M197.284 34.082H220.099V78.283H197.284z"/><path fill="#FEFEFE" d="M208.72,6.593l0.038-0.05c-0.608,0-1.173,0-1.781,0.05c-65.59,0.961-118.52,54.452-118.52,120.259 c0,65.896,53.063,119.428,118.737,120.264c-32.469-0.836-58.606-27.447-58.606-60.136c0-33.199,26.967-60.128,60.132-60.128 c33.206,0,60.134-26.966,60.134-60.131C268.854,33.51,241.88,6.593,208.72,6.593z M227.564,78.548 c0,2.005-0.696,3.703-2.13,5.105c-1.394,1.396-3.098,2.141-5.103,2.141h-23.266c-2.009,0-3.75-0.7-5.144-2.141 c-1.399-1.402-2.1-3.101-2.1-5.105h-0.043V33.73c0-1.968,0.698-3.666,2.143-5.06c1.435-1.44,3.135-2.143,5.102-2.143h23.386 c1.927,0,3.631,0.702,5.024,2.143c1.394,1.436,2.13,3.136,2.13,5.06V78.548z"/><path d="M220.41,26.528h-23.386c-1.967,0-3.667,0.702-5.102,2.143c-1.444,1.394-2.143,3.092-2.143,5.06v44.817h0.043 c0,2.005,0.7,3.703,2.1,5.105c1.394,1.44,3.135,2.141,5.144,2.141h23.266c2.005,0,3.709-0.744,5.103-2.141 c1.434-1.402,2.13-3.101,2.13-5.105V33.73c0-1.924-0.736-3.624-2.13-5.06C224.041,27.23,222.337,26.528,220.41,26.528z M220.1,78.283h-22.815V34.082H220.1V78.283z"/><g><path d="M94.713 441.658l-.907-3.427h-.604v42.019h-9.977v-74.061H92.9l10.58 38.592.906 3.425h.604v-42.017h9.976v74.061h-9.673L94.713 441.658zM138.743 425.133h10.178v55.117h-10.178v-4.635c-.201.101-.604.504-1.108 1.008-1.209 1.209-2.619 2.62-4.435 3.627-.906.505-1.813.807-2.721.807-2.72 0-4.634-1.612-5.844-3.728-1.209-2.015-1.813-4.736-1.813-7.055v-45.142H133v43.63c0 2.118 1.209 2.419 2.418 2.419 1.107 0 1.713-.604 2.418-1.311.303-.302.605-.806.907-1.309V425.133zM124.233 406.189h9.371v9.875h-9.371V406.189zM138.441 406.189h9.371v9.875h-9.371V406.189zM177.333 435.612c-.907-.304-1.914-.404-2.82-.404-1.614 0-3.527.203-5.14 1.714-1.915 1.612-2.218 3.326-2.218 5.038v38.29h-10.177v-55.117h10.177v6.146c.101-.704.806-2.418 2.42-4.029 1.611-1.513 4.029-2.923 7.758-2.923V435.612zM191.94 480.25h-10.177v-55.117h10.177v4.635c.201-.101.604-.504 1.208-1.108 1.108-1.108 2.622-2.62 4.435-3.627.907-.505 1.714-.706 2.62-.706 2.721 0 4.636 1.612 5.844 3.627 1.21 2.116 1.813 4.837 1.813 7.155v45.142h-10.175v-43.63c0-2.116-1.209-2.419-2.419-2.419-1.107 0-1.714.604-2.418 1.311-.303.402-.604.805-.907 1.31V480.25zM215.72 406.189h10.176v22.57c1.712-1.612 3.224-2.821 5.238-3.728.91-.505 1.917-.706 2.822-.706 2.821 0 4.737 1.612 6.045 3.627 1.211 2.116 1.815 4.837 1.815 7.155v35.166c0 2.318-.604 5.04-1.815 7.055-1.308 2.115-3.224 3.728-6.045 3.728-1.912 0-3.93-1.109-5.438-2.216-.91-.706-1.715-1.412-2.622-2.218v3.627H215.72V406.189zM225.896 468.159c0 1.914 1.512 3.325 3.023 3.325 1.511 0 2.722-1.411 2.722-3.325v-30.936c0-1.915-1.211-3.324-2.722-3.324-1.512 0-3.023 1.713-3.023 3.324V468.159zM274.964 460.5v6.349c-.301 5.341-1.913 9.069-5.541 11.992-1.815 1.51-4.331 2.216-7.658 2.216-6.549 0-9.875-3.628-11.489-7.254-.904-2.118-1.511-4.536-1.61-7.255v-27.713c.303-5.339 2.015-9.269 5.643-12.292 1.713-1.511 4.231-2.217 7.558-2.217 6.549 0 9.874 3.627 11.487 7.154.906 2.115 1.51 4.434 1.611 7.054v16.021h-16.827v11.993c.1 2.114.706 3.627 1.612 4.734.505.504 1.209.806 2.116.806 1.914 0 2.82-1.207 3.227-2.719.299-.807.401-1.715.401-2.821V460.5H274.964zM258.137 446.596h7.356v-7.761c0-2.115-.401-3.627-1.41-4.836-.505-.503-1.311-.806-2.218-.806-1.914 0-2.721 1.311-3.226 2.822-.301.806-.403 1.712-.503 2.819V446.596zM302.068 435.612c-.91-.304-1.917-.404-2.822-.404-1.613 0-3.526.203-5.14 1.714-1.915 1.612-2.216 3.326-2.216 5.038v38.29h-10.179v-55.117h10.179v6.146c.1-.704.807-2.418 2.416-4.029 1.613-1.513 4.033-2.923 7.762-2.923V435.612zM331.387 453.649c-.301 5.138-2.115 8.766-5.642 11.486-1.814 1.412-4.333 2.116-7.456 2.116-.304 0-.606 0-.908 0-.303 0-.705 0-1.007-.101-.907.806-1.412 1.611-1.412 2.519 0 1.211 1.008 1.914 2.52 2.317 1.511.505 3.324.806 5.239 1.109 3.225.402 6.651 1.208 9.473 3.123 2.721 1.915 4.636 4.837 4.636 9.674 0 5.341-2.318 8.968-5.544 11.083-3.325 2.116-7.758 3.023-11.888 3.023-4.838-.1-8.969-.806-11.791-2.417-2.922-1.613-4.534-4.233-4.534-8.264 0-1.915 1.009-3.527 2.52-4.938 1.511-1.409 3.525-2.518 5.44-3.425-3.324-.906-6.146-3.023-6.146-7.356 0-1.612.906-3.225 2.117-4.736 1.208-1.512 2.72-2.721 4.231-3.526-2.923-1.914-4.334-4.938-5.038-7.456-.404-1.512-.705-3.022-.808-4.534v-15.016c.403-5.138 2.016-8.866 5.542-11.788 1.714-1.511 4.233-2.217 7.358-2.217 5.138 0 8.26 2.318 10.176 5.037.704-.704 1.915-1.913 3.525-3.021 1.513-1.108 3.224-2.016 4.839-2.016v9.068c-2.72 0-4.735.505-5.946 1.21.102.504.203 1.008.303 1.31 0 .402 0 .806.1 1.108.102.304.102.705.102 1.007V453.649zM316.676 482.77c-2.116 1.208-3.729 2.721-3.729 4.837s1.913 3.829 6.65 3.829c1.713 0 3.628-.302 5.14-.907 1.512-.604 2.619-1.512 2.619-2.821 0-.906-.103-1.612-.808-2.317-.804-.705-2.115-1.209-4.634-1.613L316.676 482.77zM321.412 438.735c0-1.914-.403-3.123-1.211-4.231-.4-.505-1.007-.807-1.912-.807-1.613 0-2.419 1.311-2.723 2.521-.2.704-.301 1.611-.2 2.518v15.114c-.101 1.915.2 3.124 1.107 4.132.404.504 1.008.806 1.815.806 1.712 0 2.418-1.208 2.82-2.418.201-.705.303-1.611.303-2.52V438.735z"/></g></svg><view id="coderdojo-light-horizontal" viewBox="0 875 400 119.259"/><svg width="400" height="119.259" viewBox="0 0 400 119.259" id="coderdojo-light-horizontal-" y="875"><path fill-rule="evenodd" clip-rule="evenodd" fill="#FFF" d="M156.4,49.72v10.214c-0.104,3.037-0.695,5.768-1.817,8.089	c-0.917,2.025-2.332,3.95-4.358,5.478c-2.028,1.608-4.747,2.51-8.399,2.51c-3.64,0-6.473-0.901-8.501-2.51	c-2.026-1.527-3.337-3.452-4.246-5.478c-1.11-2.321-1.715-5.053-1.825-8.089V16.106c0.11-2.945,0.715-5.679,1.825-8.007	c0.909-2.016,2.219-4.044,4.246-5.569c2.028-1.499,4.861-2.53,8.501-2.53c3.653,0,6.371,1.031,8.399,2.53	c2.026,1.525,3.441,3.553,4.358,5.569c1.123,2.329,1.713,5.063,1.817,8.007v10.214h-10.217V16.106c0-2.029-0.504-3.449-1.624-4.658	c-0.506-0.507-1.41-0.82-2.533-0.82c-1.914,0-2.833,1.423-3.337,2.744c-0.303,0.796-0.405,1.713-0.504,2.733v43.827	c0.099,2.118,0.705,3.553,1.723,4.658c0.507,0.51,1.222,0.8,2.118,0.8c2.329,0,3.238-1.212,3.752-2.733	c0.292-0.695,0.405-1.614,0.405-2.724V49.72H156.4L156.4,49.72z M188.265,61.739c-0.303,5.388-1.927,9.13-5.478,12.052	c-1.814,1.527-4.347,2.22-7.684,2.22c-6.584,0-9.825-3.641-11.446-7.295c-0.909-2.093-1.514-4.536-1.604-7.257V33.613	c0.293-5.365,1.917-9.318,5.457-12.342c1.723-1.525,4.243-2.24,7.593-2.24c6.577,0,9.924,3.64,11.535,7.19	c0.909,2.128,1.525,4.447,1.626,7.079V61.739L188.265,61.739z M178.644,33.613c0.099-2.125-0.303-3.65-1.321-4.849	c-0.506-0.517-1.311-0.83-2.219-0.83c-1.939,0-2.734,1.333-3.136,2.858c-0.303,0.794-0.402,1.713-0.303,2.82v27.846	c-0.1,2.115,0.402,3.643,1.311,4.747c0.501,0.52,1.211,0.794,2.128,0.794c1.917,0,2.835-1.196,3.238-2.719	c0.303-0.794,0.402-1.713,0.303-2.822V33.613L178.644,33.613z M221.188,75.226h-10.232v-3.65c-1.711,1.609-3.237,2.82-5.151,3.742	c-1.019,0.509-2.026,0.692-2.936,0.692c-2.833,0-4.759-1.614-5.979-3.742c-1.311-2.031-1.917-4.749-1.917-7.065V29.874	c0-2.342,0.606-5.075,1.917-7.203c1.219-2.026,3.146-3.64,5.979-3.64c1.917,0,3.943,1.107,5.465,2.24	c0.911,0.705,1.716,1.4,2.622,2.227V0.817h10.232V75.226L221.188,75.226z M210.956,31.989c0-1.614-1.522-3.327-3.021-3.327	c-1.524,0-2.736,1.4-2.736,3.327V63.07c0,1.903,1.212,3.339,2.736,3.339c1.499,0,3.021-1.436,3.021-3.339V31.989L210.956,31.989z M254.975,55.365v6.374c-0.285,5.388-1.93,9.13-5.56,12.052c-1.812,1.527-4.357,2.22-7.691,2.22c-6.567,0-9.917-3.641-11.546-7.295	c-0.896-2.093-1.517-4.536-1.613-7.257V33.613c0.315-5.365,2.021-9.318,5.666-12.342c1.735-1.525,4.261-2.24,7.595-2.24	c6.593,0,9.927,3.64,11.535,7.19c0.916,2.128,1.527,4.447,1.614,7.079v16.106h-16.896v12.052c0.107,2.115,0.718,3.643,1.635,4.747	c0.504,0.52,1.196,0.794,2.112,0.794c1.93,0,2.841-1.196,3.232-2.719c0.306-0.794,0.423-1.713,0.423-2.822v-6.093H254.975	L254.975,55.365z M238.078,41.409h7.402v-7.796c0-2.125-0.423-3.65-1.421-4.849c-0.519-0.517-1.328-0.83-2.234-0.83	c-1.914,0-2.733,1.333-3.237,2.858c-0.306,0.794-0.402,1.713-0.51,2.82V41.409L238.078,41.409z M282.239,30.375	c-0.891-0.313-1.903-0.413-2.82-0.413c-1.639,0-3.568,0.224-5.177,1.713c-1.925,1.624-2.22,3.36-2.22,5.073v38.478H261.78v-55.38	h10.242v6.185c0.092-0.728,0.81-2.444,2.418-4.055c1.634-1.525,4.053-2.945,7.799-2.945V30.375L282.239,30.375z M286.693,75.226	V0.817h8.608c10.146,0,15.607,2.016,18.545,7.684c2.8,5.668,3.232,14.997,3.232,29.559c0,14.584-0.433,23.781-3.232,29.459	c-2.938,5.666-8.399,7.707-18.545,7.707H286.693L286.693,75.226z M297.648,64.281c3.747,0,5.875-0.417,6.969-4.054	c0.515-1.713,0.917-4.347,1.028-7.896c0.097-3.528,0.097-8.288,0.097-14.371c0-6.061,0-10.82-0.097-14.374	c-0.111-3.449-0.514-6.081-1.028-7.896c-1.094-3.548-3.222-3.93-6.969-3.93V64.281L297.648,64.281z M349.577,61.739	c-0.336,5.388-1.929,9.13-5.462,12.052c-1.822,1.527-4.348,2.22-7.717,2.22c-6.557,0-9.805-3.641-11.438-7.295	c-0.896-2.093-1.507-4.536-1.589-7.257V33.613c0.285-5.365,1.925-9.318,5.442-12.342c1.746-1.525,4.25-2.24,7.585-2.24	c6.592,0,9.946,3.64,11.545,7.19c0.916,2.128,1.537,4.447,1.634,7.079V61.739L349.577,61.739z M339.967,33.613	c0.117-2.125-0.336-3.65-1.344-4.849c-0.499-0.517-1.299-0.83-2.225-0.83c-1.895,0-2.703,1.333-3.136,2.858	c-0.285,0.794-0.397,1.713-0.285,2.82v27.846c-0.112,2.115,0.401,3.643,1.298,4.747c0.534,0.52,1.212,0.794,2.123,0.794	c1.929,0,2.855-1.196,3.232-2.719c0.336-0.794,0.453-1.713,0.336-2.822V33.613L339.967,33.613z M356.384,0.817h10.201v10.214	h-10.201V0.817L356.384,0.817z M366.585,19.846v56.765c0,2.846,0,7.305-1.39,10.955c-1.42,3.741-4.556,6.679-10.354,6.679	c-1.593,0-2.688-0.092-3.421-0.316c-0.392-0.091-0.728-0.198-1.013-0.29v-9.407c0.285,0.087,0.621,0.087,0.916,0.179	c0.718,0.111,1.293,0.219,1.925,0.219c1.705,0,2.504-1.431,2.957-3.131c0.097-0.83,0.179-1.751,0.179-2.647c0-0.916,0-1.726,0-2.331	V19.846H366.585L366.585,19.846z M400,61.739c-0.336,5.388-1.925,9.13-5.503,12.052c-1.782,1.527-4.348,2.22-7.661,2.22	c-6.593,0-9.82-3.641-11.454-7.295c-0.916-2.093-1.502-4.536-1.608-7.257V33.613c0.285-5.365,1.903-9.318,5.462-12.342	c1.746-1.525,4.261-2.24,7.601-2.24c6.557,0,9.87,3.64,11.535,7.19c0.911,2.128,1.491,4.447,1.629,7.079V61.739L400,61.739z M390.348,33.613c0.138-2.125-0.295-3.65-1.303-4.849c-0.483-0.517-1.318-0.83-2.209-0.83c-1.95,0-2.719,1.333-3.162,2.858	c-0.295,0.794-0.387,1.713-0.295,2.82v27.846c-0.092,2.115,0.402,3.643,1.318,4.747c0.515,0.52,1.212,0.794,2.139,0.794	c1.924,0,2.84-1.196,3.217-2.719c0.295-0.794,0.433-1.713,0.295-2.822V33.613L390.348,33.613z"/><path fill="#FEFEFE" d="M50.786,94.463c-0.469,0-0.848,0.152-1.171,0.474c-0.326,0.305-0.489,0.697-0.489,1.13 c0,0.453,0.163,0.865,0.489,1.191c0.323,0.325,0.702,0.498,1.171,0.498h13.337c0.466,0,0.845-0.152,1.181-0.479 c0.326-0.325,0.476-0.712,0.476-1.17v-8.537c0-0.479-0.15-0.865-0.476-1.191c-0.336-0.326-0.715-0.479-1.181-0.479 s-0.845,0.173-1.17,0.499c-0.326,0.325-0.486,0.718-0.486,1.171v6.893H59.16V71.642h-8.3c-0.466,0-0.845,0.152-1.168,0.479 c-0.336,0.326-0.489,0.713-0.489,1.171c0,0.474,0.153,0.845,0.489,1.171c0.323,0.346,0.703,0.499,1.168,0.499h5.006v19.502H50.786z"/><path d="M55.963,0C25.05,0,0,25.074,0,55.976s25.061,55.953,55.963,55.953c30.915,0,55.966-25.051,55.966-55.953 C111.929,25.051,86.865,0,55.963,0z M65.78,96.108c0,0.458-0.15,0.845-0.476,1.17c-0.336,0.326-0.715,0.479-1.181,0.479H50.786 c-0.469,0-0.848-0.173-1.171-0.498c-0.326-0.326-0.489-0.738-0.489-1.191c0-0.433,0.163-0.825,0.489-1.13 c0.323-0.321,0.702-0.474,1.171-0.474h5.08V74.961H50.86c-0.466,0-0.845-0.153-1.168-0.499c-0.336-0.326-0.489-0.697-0.489-1.171 c0-0.458,0.153-0.845,0.489-1.171c0.323-0.326,0.703-0.479,1.168-0.479h8.3v22.821h3.306v-6.893c0-0.453,0.16-0.846,0.486-1.171 c0.326-0.326,0.705-0.499,1.17-0.499s0.845,0.152,1.181,0.479c0.326,0.326,0.476,0.713,0.476,1.191V96.108z M55.39,55.976 c-14.638,0-26.537,11.874-26.537,26.524c0,14.411,11.541,26.155,25.865,26.527c-28.973-0.372-52.39-23.992-52.39-53.052 c0-29.04,23.351-52.639,52.293-53.062c0.26-0.02,0.509-0.02,0.779-0.02l-0.01,0.02c14.628,0,26.525,11.866,26.525,26.537 C81.915,44.079,70.039,55.976,55.39,55.976z"/><path fill="#FEFEFE" d="M50.34 15.04H60.407000000000004V34.542H50.34z"/><path fill="#FEFEFE" d="M55.39,2.914l0.01-0.02c-0.27,0-0.519,0-0.779,0.02C25.679,3.337,2.329,26.937,2.329,55.976 c0,29.06,23.417,52.68,52.39,53.052C40.394,108.656,28.853,96.912,28.853,82.5c0-14.65,11.899-26.524,26.537-26.524 c14.648,0,26.525-11.897,26.525-26.525C81.915,14.78,70.018,2.914,55.39,2.914z M63.701,34.651c0,0.888-0.303,1.647-0.942,2.252 c-0.608,0.629-1.367,0.955-2.245,0.955H50.244c-0.888,0-1.659-0.326-2.265-0.955c-0.619-0.605-0.932-1.364-0.932-2.252h-0.01 V14.887c0-0.865,0.303-1.624,0.942-2.232c0.629-0.629,1.377-0.952,2.242-0.952h10.327c0.845,0,1.604,0.323,2.211,0.952 c0.616,0.628,0.942,1.387,0.942,2.232V34.651z"/><path d="M60.547,11.703H50.221c-0.865,0-1.613,0.323-2.242,0.952c-0.639,0.608-0.942,1.367-0.942,2.232v19.764h0.01 c0,0.888,0.313,1.647,0.932,2.252c0.606,0.629,1.377,0.955,2.265,0.955h10.271c0.878,0,1.637-0.326,2.245-0.955 c0.639-0.605,0.942-1.364,0.942-2.252V14.887c0-0.845-0.326-1.604-0.942-2.232C62.151,12.026,61.392,11.703,60.547,11.703z M60.407,34.542H50.34V15.04h10.067V34.542z"/><g fill="#FFF"><path d="M133.197 97.243l-.336-1.277h-.239v15.842h-3.759V83.875h3.652l3.986 14.56.346 1.282h.229V83.875h3.76v27.933h-3.64L133.197 97.243zM149.808 91.027h3.846v20.78h-3.846v-1.736c-.077.025-.229.179-.413.372-.456.453-.985.997-1.68 1.364-.336.193-.682.305-1.028.305-1.018 0-1.746-.61-2.199-1.409-.456-.759-.685-1.777-.685-2.643V91.027h3.835v16.448c0 .799.456.905.921.905.413 0 .639-.213.912-.473.106-.133.226-.306.336-.499V91.027zM144.335 83.875h3.543v3.727h-3.543V83.875zM149.698 83.875h3.533v3.727h-3.533V83.875zM164.37 94.967c-.346-.107-.715-.147-1.062-.147-.606 0-1.333.086-1.939.646-.726.605-.835 1.257-.835 1.909v14.432h-3.846v-20.78h3.846v2.316c.033-.28.303-.911.911-1.537.606-.565 1.517-1.085 2.925-1.085V94.967zM169.885 111.807h-3.846v-20.78h3.846v1.731c.076-.021.227-.174.456-.413.422-.412.985-.997 1.667-1.364.349-.193.652-.26.998-.26 1.018 0 1.743.606 2.199 1.364.456.805.682 1.823.682 2.688v17.033h-3.835V95.359c0-.804-.453-.911-.909-.911-.422 0-.652.219-.911.479-.12.153-.227.301-.346.499V111.807zM178.857 83.875h3.835v8.517c.649-.605 1.225-1.063 1.983-1.41.336-.193.726-.26 1.062-.26 1.062 0 1.787.606 2.286 1.364.456.805.682 1.823.682 2.688v13.286c0 .865-.227 1.884-.682 2.643-.499.799-1.224 1.409-2.286 1.409-.726 0-1.484-.412-2.049-.824-.346-.26-.649-.545-.996-.845v1.364h-3.835V83.875zM182.693 107.255c0 .718.573 1.258 1.148 1.258.563 0 1.018-.54 1.018-1.258V95.578c0-.718-.456-1.257-1.018-1.257-.575 0-1.148.646-1.148 1.257V107.255zM201.21 104.354v2.403c-.109 2.016-.715 3.426-2.103 4.53-.672.565-1.624.824-2.871.824-2.481 0-3.726-1.369-4.345-2.733-.336-.799-.563-1.71-.605-2.729V96.184c.117-2.017.769-3.492 2.133-4.638.651-.565 1.593-.825 2.851-.825 2.469 0 3.727 1.364 4.335 2.688.323.799.583 1.67.605 2.662v6.048h-6.351v4.53c.043.8.262 1.364.608 1.776.193.193.456.306.802.306.726 0 1.062-.458 1.214-1.023.117-.3.16-.646.16-1.059v-2.296H201.21zM194.859 99.106h2.785v-2.922c0-.805-.16-1.364-.54-1.822-.186-.194-.489-.301-.835-.301-.725 0-1.031.494-1.214 1.059-.12.306-.153.652-.196 1.064V99.106zM211.435 94.967c-.347-.107-.713-.147-1.059-.147-.611 0-1.345.086-1.95.646-.713.605-.824 1.257-.824 1.909v14.432h-3.854v-20.78h3.854v2.316c.046-.28.305-.911.911-1.537.605-.565 1.517-1.085 2.922-1.085V94.967zM222.512 101.773c-.133 1.95-.825 3.314-2.128 4.332-.692.545-1.649.805-2.811.805-.132 0-.244 0-.355 0-.123 0-.255 0-.388-.046-.346.306-.519.611-.519.957 0 .453.366.713.937.886.58.173 1.272.285 1.965.412 1.212.153 2.515.458 3.604 1.171 1.018.738 1.73 1.822 1.73 3.66 0 2.017-.865 3.386-2.077 4.185-1.263.805-2.952 1.125-4.51 1.125-1.823-.041-3.381-.3-4.419-.906-1.13-.61-1.741-1.604-1.741-3.12 0-.718.397-1.323.957-1.863.561-.524 1.344-.957 2.057-1.283-1.231-.346-2.321-1.145-2.321-2.774 0-.605.356-1.231.805-1.797.458-.564 1.018-1.018 1.588-1.323-1.089-.733-1.629-1.863-1.894-2.815-.143-.564-.274-1.15-.295-1.71v-5.682c.152-1.924.753-3.334 2.097-4.438.652-.565 1.578-.825 2.779-.825 1.925 0 3.116.866 3.809 1.884.285-.26.732-.713 1.344-1.125.56-.433 1.211-.759 1.822-.759v3.427c-1.019 0-1.782.173-2.25.453.041.173.081.366.122.479 0 .147 0 .3.051.433.041.106.041.26.041.366V101.773zM216.963 112.758c-.825.459-1.436 1.044-1.436 1.823 0 .799.743 1.45 2.515 1.45.651 0 1.395-.106 1.955-.346.56-.219.997-.565.997-1.064 0-.346-.04-.605-.305-.865-.306-.26-.825-.453-1.782-.605L216.963 112.758zM218.734 96.138c0-.713-.173-1.171-.448-1.583-.152-.193-.366-.301-.713-.301-.61 0-.916.499-1.048.952-.082.26-.122.605-.082.932v5.722c-.04.718.082 1.171.428 1.563.153.174.377.301.702.301.642 0 .906-.453 1.039-.911.081-.28.122-.626.122-.952V96.138z"/></g></svg><view id="curt" viewBox="0 995 133.229 133.228"/><svg width="133.229" height="133.228" viewBox="0 0 133.229 133.228" id="curt-" y="995"><defs><path id="ea" d="M0 0H133.229V133.228H0z"/></defs><clipPath id="eb"><use xlink:href="#ea" overflow="visible"/></clipPath><path clip-path="url(#eb)" fill="#009FE3" d="M66.614,133.228c36.79,0,66.614-29.824,66.614-66.614S103.404,0,66.614,0 S0,29.823,0,66.613S29.824,133.228,66.614,133.228"/><path clip-path="url(#eb)" fill="#FFF" d="M72.783 96.104v-.806h-2.887v-1.782h2.462V92.72h-2.462v-1.731h2.887v-.807h-3.785v5.923H72.783zM66.686 93.102c0 .815-.008 1.456-.316 1.798-.25.274-.583.399-1.007.399h-1.09v-4.311h1.09c.424 0 .757.125 1.007.398C66.678 91.729 66.686 92.286 66.686 93.102M67.584 93.102c0-.856.041-1.723-.599-2.362-.374-.374-.916-.558-1.531-.558h-2.08v5.923h2.08c.615 0 1.157-.183 1.531-.557C67.625 94.908 67.584 93.959 67.584 93.102M61.494 95.091h-1.014v1.014h1.014V95.091zM59.996 90.988v-.807h-4.159v.807h1.631v5.116h.897v-5.116H59.996zM53.648 91.92c0 .583-.408.924-1.007.924H51.31v-1.855h1.332C53.241 90.988 53.648 91.338 53.648 91.92M54.729 96.104l-1.364-2.62c.665-.184 1.181-.724 1.181-1.572 0-1.007-.715-1.73-1.839-1.73h-2.295v5.923h.897v-2.495h1.124l1.248 2.495H54.729zM48.456 94.109v-3.928h-.897v3.886c0 .791-.491 1.281-1.232 1.281-.741 0-1.224-.49-1.224-1.281v-3.886h-.897v3.928c0 1.223.914 2.046 2.121 2.046S48.456 95.332 48.456 94.109M42.599 94.333h-.907c-.141.6-.549 1.016-1.206 1.016-.349 0-.666-.133-.874-.357-.291-.316-.357-.658-.357-1.849 0-1.189.066-1.53.357-1.847.208-.225.525-.358.874-.358.657 0 1.057.416 1.198 1.016h.915c-.208-1.182-1.023-1.821-2.113-1.821-.616 0-1.148.224-1.555.632-.582.582-.574 1.239-.574 2.379 0 1.142-.008 1.799.574 2.38.407.407.939.633 1.555.633C41.559 96.155 42.399 95.515 42.599 94.333M36.691 95.091h-1.014v1.014h1.014V95.091zM35.312 90.182h-.949l-1.032 4.234-1.189-4.234h-.724l-1.19 4.234-1.032-4.234h-.948l1.547 5.923h.782l1.199-4.15 1.206 4.15h.782L35.312 90.182zM27.565 90.182h-.949l-1.031 4.234-1.19-4.234h-.724l-1.19 4.234-1.031-4.234h-.949l1.548 5.923h.782l1.198-4.15 1.206 4.15h.782L27.565 90.182zM19.82 90.182h-.948l-1.032 4.234-1.19-4.234h-.724l-1.19 4.234-1.031-4.234h-.949l1.548 5.923h.782l1.198-4.15 1.206 4.15h.782L19.82 90.182zM122.354 83.713v-17.8h-2.699v12.5l-8.226-12.5h-2.475v17.8h2.7V71.188l8.225 12.525H122.354zM103.43 65.913h-2.699v17.8h2.699V65.913zM96.33 83.713v-2.425h-8.275l8.275-13.175v-2.2H85.279v2.425h7.875l-8.225 13.05v2.325H96.33zM77.18 77.838h-5.475l2.775-7.9L77.18 77.838zM82.029 83.713l-6.524-17.8H73.33l-6.525 17.8h2.875l1.225-3.575h7.025l1.225 3.575H82.029zM63.706 76.813v-2.725h-6.5v2.3h3.8v1c0 1.15-.25 2.05-.9 2.8-.7.801-1.725 1.25-2.9 1.25-1.05 0-2-.399-2.625-1.074-.875-.95-1.075-1.976-1.075-5.551 0-3.574.2-4.574 1.075-5.524.625-.675 1.575-1.101 2.625-1.101 2 0 3.3 1.15 3.75 3.101h2.725c-.5-3.05-2.7-5.525-6.475-5.525-1.9 0-3.45.675-4.675 1.9-1.75 1.75-1.725 3.725-1.725 7.149 0 3.426-.025 5.4 1.725 7.15 1.225 1.225 2.825 1.9 4.675 1.9 1.875 0 3.55-.601 4.9-2.025C63.281 80.588 63.706 79.113 63.706 76.813M42.831 77.838h-5.475l2.775-7.9L42.831 77.838zM47.681 83.713l-6.525-17.8h-2.175l-6.525 17.8h2.875l1.225-3.575h7.025l1.225 3.575H47.681zM28.456 83.713v-17.8h-2.7l-5.1 11.075-5.2-11.075h-2.7v17.8h2.7v-11.9l4.2 8.676h2l4.1-8.676v11.9H28.456zM77.779 45.136v-2.425h-12.5v2.425h4.9v15.375h2.7V45.136H77.779zM58.705 47.936c0 1.75-1.225 2.775-3.025 2.775h-4v-5.575h4C57.48 45.136 58.705 46.186 58.705 47.936M61.955 60.511l-4.1-7.875c2-.55 3.55-2.175 3.55-4.725 0-3.025-2.15-5.2-5.525-5.2h-6.9v17.8h2.7v-7.5h3.375l3.75 7.5H61.955zM43.106 54.511v-11.8h-2.7v11.675c0 2.375-1.475 3.85-3.7 3.85-2.225 0-3.675-1.475-3.675-3.85V42.711h-2.7v11.8c0 3.675 2.75 6.15 6.375 6.15S43.106 58.186 43.106 54.511M25.506 55.186h-2.725c-.425 1.8-1.65 3.05-3.625 3.05-1.05 0-2-.399-2.625-1.074-.875-.95-1.075-1.976-1.075-5.551 0-3.574.2-4.6 1.075-5.55.625-.675 1.575-1.075 2.625-1.075 1.975 0 3.175 1.25 3.6 3.051h2.75c-.625-3.551-3.075-5.476-6.35-5.476-1.85 0-3.45.675-4.675 1.9-1.75 1.75-1.725 3.725-1.725 7.149 0 3.426-.025 5.4 1.725 7.15 1.225 1.225 2.825 1.9 4.675 1.9C22.381 60.661 24.906 58.735 25.506 55.186"/></svg><view id="curtkids" viewBox="0 1129 501.965 501.891"/><svg width="501.965" height="501.891" viewBox="0 0 501.965 501.891" id="curtkids-" y="1129"><path fill="#4CC2F1" d="M118.325 74.631L118.325 301.166 359.269 301.166 359.269 74.631 118.325 74.631z"/><path fill="#E85E0C" d="M499.181,213.498l-9.393-8.883l5.381-11.755l-10.104-8.066l4.379-12.165l-10.742-7.192l3.345-12.489 l-11.307-6.268l2.289-12.724l-11.792-5.301l1.216-12.87l-12.194-4.296l0.134-12.926l-12.51-3.261l-0.948-12.893l-12.738-2.201 l-2.024-12.769l-12.878-1.128l-3.085-12.554l-12.928-0.047l-4.125-12.252l-12.887,1.036l-5.135-11.864l-12.755,2.11l-6.11-11.393 l-12.532,3.17l-7.042-10.841l-12.225,4.208l-7.925-10.214l-11.829,5.216l-8.752-9.515l-11.351,6.188l-9.518-8.75l-10.793,7.115 L250.088,0l-10.16,7.994l-10.843-7.04l-9.456,8.816l-11.394-6.108l-8.685,9.576l-11.865-5.133l-7.853,10.269l-12.253-4.122 l-6.966,10.891l-12.555-3.083l-6.031,11.435l-12.769-2.021l-5.052,11.899l-12.894-0.945l-4.039,12.281l-12.927,0.136l-2.997,12.576 l-12.871,1.218l-1.934,12.782l-12.723,2.291l-0.858,12.9l-12.487,3.347l0.224,12.925l-12.163,4.381l1.305,12.862l-11.754,5.382 l2.377,12.708l-11.263,6.347l3.432,12.465l-10.691,7.267l4.462,12.133l-10.046,8.137l5.463,11.717l-9.33,8.949l6.424,11.219 l-8.549,9.698l7.34,10.643L0,257.171l8.205,9.991l-6.812,10.986l9.012,9.27l-5.868,11.52l9.756,8.483L9.41,319.39l10.431,7.637 l-3.864,12.336l11.034,6.737l-2.819,12.617l11.559,5.79l-1.753,12.808L46,382.117l-0.675,12.91l12.363,3.78l0.407,12.922 l12.636,2.733l1.487,12.842l12.82,1.667l2.556,12.672l12.915,0.588l3.608,12.414l12.918-0.495l4.635,12.068l12.831-1.573 l5.628,11.639l12.655-2.644l6.582,11.128l12.389-3.692l7.49,10.536l12.037-4.715l8.346,9.873l11.6-5.706l9.142,9.141l11.082-6.657 l9.875,8.343l10.485-7.561l10.539,7.487l9.817-8.411l11.128,6.579l9.078-9.204l11.64,5.625l8.276-9.932l12.07,4.632l7.416-10.589 l12.415,3.606l6.504-11.173l12.673,2.554l5.547-11.678l12.842,1.484l4.55-12.101l12.921,0.404l3.521-12.438l12.911-0.678 l2.468-12.69l12.808-1.756l1.397-12.852l12.616-2.821l0.317-12.924l12.336-3.867l-0.766-12.906l11.969-4.886l-1.842-12.796 l11.518-5.87l-2.906-12.597l10.986-6.814l-3.95-12.309l10.378-7.709l-4.968-11.936l9.696-8.551l-5.948-11.479l8.947-9.332 l-6.888-10.938l8.135-10.048l-7.779-10.326l7.266-10.693l-8.616-9.638L499.181,213.498L499.181,213.498z M318.493,119.006 c1.326,15.152-5.818,29.245-17.783,38.296c1.605,4.115,2.672,8.519,3.076,13.142c2.286,26.123-17.038,49.153-43.161,51.438 c-17.104,1.497-32.879-6.272-42.377-19.146c0.281,24.586-18.427,45.615-43.326,47.792c-26.123,2.286-49.153-17.039-51.438-43.162 c-2.286-26.122,17.038-49.151,43.161-51.437c17.104-1.496,32.88,6.272,42.377,19.146c-0.163-14.255,6.066-27.305,16.176-36.188 c-1.424-3.61-2.364-7.455-2.716-11.482c-2.132-24.368,17.633-46.003,44.145-48.323C293.14,76.764,316.361,94.638,318.493,119.006 L318.493,119.006z"/><path fill="#FFF" d="M412.143,182.152c-4.786-7.096-12.36-11.167-20.279-11.779c2.398-7.572,1.462-16.12-3.324-23.216 c-8.322-12.337-25.068-15.592-37.405-7.271c-12.336,8.321-15.592,25.068-7.27,37.404c1.169,1.733,2.509,3.279,3.975,4.645 l-21.824,14.72c-0.336-6.898-1.31-13.86-3.045-20.816c-1.988-7.975-4.849-15.498-8.407-22.535 c7.774-11.688,10.794-26.481,7.13-41.175c-1.504-6.033-4.013-11.551-7.3-16.424l9.854-11.749l-14.027,6.388 c-0.311-0.35-0.645-0.675-0.964-1.015l7.467-13.606l-12.651,8.781c-0.229-0.185-0.47-0.354-0.7-0.535l4.365-17.827l-11.229,13.267 c-0.697-0.387-1.411-0.741-2.127-1.095l5.233-19.89L286.46,75.193c-0.493-0.15-0.98-0.314-1.479-0.449l-0.686-16.952l-6.338,15.55 c-1.127-0.144-2.259-0.262-3.401-0.33l-4.174-12.516l-1.81,12.499c-3.179,0.181-6.387,0.655-9.592,1.454 c-12.618,3.145-22.975,10.684-29.876,20.57c-11.799-1.127-23.983-0.325-36.138,2.706c-12.912,3.219-24.674,8.668-35.011,15.81 c-11.829-8.247-27.018-11.544-42.109-7.781c-4.478,1.116-8.668,2.792-12.524,4.922l-9.153-8.172l4.437,11.116 c-1.305,0.918-2.554,1.899-3.76,2.926L83.651,110.9l7.112,9.522c-0.825,0.876-1.615,1.78-2.376,2.708l-13.999-2.914l10.267,8.091 c-0.633,1.002-1.245,2.017-1.809,3.06l-13.503-3.306l10.811,9.15c-0.466,1.197-0.898,2.409-1.275,3.642l-11.175,0.242l9.93,4.681 c-0.402,2-0.679,4.033-0.841,6.089l-9.229,2.688l9.067,1.638c0.022,4.053,0.511,8.166,1.535,12.274 c4.416,17.708,17.472,30.974,33.549,36.456c0.228,7.547,1.237,15.182,3.138,22.807c1.253,5.023,2.859,9.862,4.752,14.524 l-20.523-2.157c0.28-1.155,0.507-2.332,0.634-3.546c1.556-14.799-9.18-28.057-23.979-29.612 c-14.799-1.556-28.057,9.18-29.613,23.979c-0.894,8.512,2.292,16.501,7.964,22.06c-6.704,4.257-11.482,11.409-12.376,19.921 c-1.556,14.799,9.181,28.058,23.98,29.612s28.057-9.181,29.612-23.98c0.128-1.214,0.151-2.411,0.117-3.6l50.383,5.296 c8.36,7.776,17.909,14.16,28.242,18.935l-35.17,23.723c-0.528-1.064-1.111-2.112-1.794-3.124 c-8.321-12.337-25.067-15.592-37.404-7.271c-12.337,8.322-15.591,25.068-7.27,37.405c4.786,7.095,12.361,11.167,20.28,11.779 c-2.399,7.571-1.462,16.12,3.324,23.216c8.321,12.336,25.068,15.592,37.404,7.271c12.337-8.321,15.592-25.067,7.271-37.404 c-0.683-1.013-1.436-1.945-2.225-2.833l63.652-42.934c7.524-0.229,15.139-1.25,22.742-3.145 c10.593-2.642,20.414-6.783,29.31-12.126l91.982,9.668c-0.279,1.154-0.507,2.331-0.635,3.545 c-1.555,14.8,9.182,28.057,23.98,29.613c14.799,1.555,28.057-9.181,29.612-23.98c0.895-8.512-2.292-16.5-7.964-22.059 c6.704-4.258,11.481-11.409,12.376-19.921c1.556-14.8-9.181-28.058-23.979-29.613s-28.058,9.181-29.612,23.979 c-0.128,1.215-0.15,2.413-0.117,3.601l-62.183-6.536c3.649-5.378,6.777-11.095,9.403-17.047l49.869-33.638 c0.196,0.317,0.358,0.646,0.568,0.957c8.322,12.337,25.068,15.592,37.405,7.271C417.209,211.235,420.464,194.489,412.143,182.152 L412.143,182.152z M180.686,243.183c-21.962,5.476-44.261-8.115-49.806-30.355c-5.545-22.24,7.764-44.708,29.726-50.184 c21.962-5.476,44.261,8.114,49.806,30.355C215.957,215.239,202.649,237.707,180.686,243.183L180.686,243.183z M244.213,131.707 c23.763-5.925,47.89,8.779,53.889,32.843c6,24.063-8.399,48.373-32.162,54.298c-23.763,5.924-47.89-8.78-53.889-32.843 C206.051,161.942,220.451,137.632,244.213,131.707L244.213,131.707z M306.671,146.633c-10.653-22.262-36.158-39.212-68.628-46.529 c5.53-7.547,13.628-13.279,23.416-15.72c22.235-5.544,44.754,7.987,50.298,30.222C314.593,125.979,312.428,137.421,306.671,146.633 L306.671,146.633z"/><path fill="#FFF" d="M256.323,193.145c7.783-1.941,12.521-9.825,10.58-17.609c-1.94-7.784-9.824-12.521-17.608-10.58 s-12.521,9.824-10.58,17.609C240.656,190.349,248.539,195.085,256.323,193.145L256.323,193.145z"/><path d="M258.844,165.848c-2.889-1.323-6.226-1.72-9.549-0.892c-7.784,1.941-12.521,9.825-10.58,17.609 c1.941,7.784,9.824,12.52,17.608,10.58c5.554-1.385,9.54-5.799,10.673-11.039c-4.941,1.034-9.857-1.988-11.089-6.929 C255.026,171.642,256.293,168.106,258.844,165.848L258.844,165.848z"/><path fill="#FFF" d="M184.664,217.913c7.784-1.94,12.521-9.824,10.58-17.608c-1.94-7.784-9.824-12.521-17.608-10.58 c-7.784,1.941-12.521,9.824-10.58,17.608C168.997,215.117,176.88,219.854,184.664,217.913L184.664,217.913z"/><path d="M187.185 190.616c-2.889-1.323-6.226-1.72-9.549-.891-7.784 1.941-12.521 9.824-10.58 17.608 1.941 7.784 9.824 12.521 17.608 10.58 5.554-1.384 9.54-5.798 10.673-11.038-4.941 1.033-9.857-1.989-11.089-6.929C183.366 196.411 184.634 192.875 187.185 190.616L187.185 190.616zM238.886 255.118l-6.632-11.964c3.426-3.013 4.424-8.098 2.121-12.252-2.656-4.792-8.695-6.524-13.487-3.867-4.792 2.656-6.524 8.695-3.867 13.487 2.302 4.153 7.144 6.002 11.514 4.693l6.632 11.964-21.034 6.172 1.523 3.944 23.659-6.942.01.012.026-.022.033-.01-.006-.016 18.425-16.385-2.538-3.381L238.886 255.118 238.886 255.118z"/><path fill="#FFF" d="M180.342 367.03L193.184 418.539 357.264 377.629 344.422 326.121 180.342 367.03z"/><path fill="#FFF" d="M191.696 411.093L203.388 457.988 416.424 404.873 404.731 357.977 191.696 411.093z"/><path d="M224.016 387.987l-8.89 2.217c-.051 2.135-.701 4.207-3.598 4.929-1.598.397-2.958.048-3.819-.639-1.061-.851-1.921-1.961-3.54-8.453-1.619-6.493-1.381-7.878-.843-9.126.437-1.012 1.474-1.959 3.072-2.357 2.897-.723 4.444.801 5.491 2.662l8.889-2.216c-3.253-7.518-9.63-9.906-16.372-8.226-4.145 1.034-6.943 3.218-8.892 6.461-2.812 4.68-1.417 9.637-.085 14.98 1.333 5.343 2.428 10.374 7.107 13.186 3.245 1.949 6.74 2.563 10.885 1.53C220.163 401.255 224.672 396.151 224.016 387.987L224.016 387.987zM257.176 378.446l-5.752-23.071-8.74 2.179 5.703 22.872c.822 3.296-.603 5.667-3.499 6.389-2.897.724-5.168-.727-5.99-4.022l-5.702-22.872-8.74 2.179 5.753 23.072c1.942 7.79 9.23 11.277 16.621 9.435C254.221 392.763 259.119 386.237 257.176 378.446L257.176 378.446zM297.494 381.655l-11.39-12.915c2.448-2.095 4.686-5.889 3.478-10.732-1.457-5.843-7.096-10.378-14.987-8.411l-14.083 3.512 8.866 35.558 8.739-2.18-3.3-13.233 2.946-.735 9.592 11.665L297.494 381.655 297.494 381.655zM280.843 360.187c.46 1.849-.502 3.944-2.898 4.542L273 365.962l-1.793-7.192 4.944-1.231C278.548 356.939 280.382 358.339 280.843 360.187L280.843 360.187zM320.385 346.456l-1.943-7.791-26.218 6.537 1.942 7.791 8.74-2.18 6.923 27.767 8.738-2.18-6.923-27.766L320.385 346.456 320.385 346.456zM342.401 358.895l-1.918-7.689-13.104 3.267 1.917 7.691L342.401 358.895 342.401 358.895zM241.027 441.776l-17.814-18.05 8.549-17.408-10.687 2.664-7.15 15.15-3.138-12.585-8.639 2.155 8.865 35.557 8.64-2.154-2.777-11.137 2.137-4.193 11.826 12.541L241.027 441.776 241.027 441.776zM256.059 438.028l-6.438-25.818-8.19 2.042 6.437 25.818L256.059 438.028 256.059 438.028zM248.675 408.414l-1.557-6.242-8.19 2.042 1.557 6.242L248.675 408.414 248.675 408.414zM287.283 411.359c-1.396-5.593-2.078-10.25-7.257-13.361-3.058-1.836-6.765-2.026-10.461-1.105l-13.184 3.288 8.865 35.557 13.184-3.286c3.696-.923 6.88-2.83 8.717-5.888C290.26 421.386 288.677 416.953 287.283 411.359L287.283 411.359zM278.543 413.539c1.507 6.043 1.494 7.054 1.044 8.227-.501 1.398-1.5 2.496-3.697 3.043l-3.846.959-4.98-19.976 3.846-.959c2.196-.547 3.595-.047 4.692.952C276.55 406.609 277.049 407.546 278.543 413.539L278.543 413.539zM321.411 410.171c-.821-3.296-2.23-5.756-4.589-7.131-1.872-1.125-4.418-1.552-7.727-1.203l-4.443.471c-1.286.162-2.147-.101-2.71-.438-.686-.413-.997-1.024-1.109-1.475-.386-1.548.427-3.606 3.473-4.367 1.548-.386 4.457-1.27 7.266.417l4.124-6.862c-3.807-2.287-7.95-2.527-13.044-1.257-8.092 2.017-11.803 7.981-10.184 14.474.759 3.046 2.156 5.244 4.229 6.531 2.008 1.25 4.667 1.7 7.925 1.365l4.444-.472c1.187-.136 2.022.027 2.583.364.638.425 1.012 1.074 1.223 1.923.511 2.048-.852 3.607-4.297 4.466-2.847.71-6.254.87-8.563-.517l-4.198 6.987c4.518 2.8 9.211 2.69 14.654 1.332C317.958 422.914 323.217 417.412 321.411 410.171L321.411 410.171zM339.356 417.26l-2.24-8.989-8.99 2.241 2.242 8.989L339.356 417.26 339.356 417.26zM370.331 390.653c-1.396-5.594-2.078-10.25-7.257-13.361-3.058-1.837-6.765-2.026-10.46-1.105l-13.185 3.287 8.866 35.559 13.184-3.288c3.695-.922 6.881-2.829 8.718-5.887C373.308 400.679 371.726 396.247 370.331 390.653L370.331 390.653zM361.592 392.833c1.506 6.042 1.493 7.053 1.043 8.227-.5 1.397-1.5 2.495-3.697 3.043l-3.845.959-4.98-19.976 3.845-.959c2.198-.548 3.596-.048 4.692.952C359.599 385.902 360.097 386.84 361.592 392.833L361.592 392.833zM406.225 400.588l-1.941-7.791-15.433 3.848-1.556-6.243 13.184-3.287-1.941-7.789-13.186 3.286-1.48-5.942 15.431-3.849-1.941-7.79-24.172 6.026 8.865 35.558L406.225 400.588 406.225 400.588z"/></svg><view id="facebook" viewBox="0 1631 32 32"/><svg width="32" height="32" viewBox="0 0 32 32" id="facebook-" y="1631"><path fill="#DDD" d="M23,7.984h-2.266c-1.776,0-2.121,0.842-2.121,2.076v2.725h4.238l-0.555,4.267h-3.688V28h-4.417V17.053H10.5	v-4.267h3.695V9.641C14.195,5.988,16.43,4,19.698,4C21.264,4,22.607,4.116,23,4.168V7.984z"/></svg><view id="facebook~hover" viewBox="0 1663 32 32"/><svg width="32" height="32" viewBox="0 0 32 32" id="facebook~hover-" y="1663"><path fill="#359" d="M0,0v32h32V0H0z M23,7.984h-2.266c-1.777,0-2.121,0.842-2.121,2.076v2.725h4.238l-0.554,4.267h-3.687V28	h-4.417V17.053H10.5v-4.267h3.695V9.641C14.195,5.988,16.43,4,19.699,4C21.264,4,22.607,4.116,23,4.168V7.984z"/></svg><view id="github" viewBox="0 1695 32 32"/><svg width="32" height="32" viewBox="0 0 32 32" id="github-" y="1695"><path fill="#DDD" d="M19.906,27.979c-0.627,0.119-0.85-0.265-0.85-0.595c0-0.403,0.017-1.735,0.017-3.384	c0-1.15-0.396-1.904-0.839-2.285c2.748-0.306,5.634-1.348,5.634-6.087c0-1.346-0.479-2.447-1.269-3.31	c0.127-0.313,0.551-1.566-0.123-3.265c0,0-1.033-0.332-3.389,1.265c-0.984-0.274-2.04-0.411-3.088-0.416	c-1.048,0.005-2.104,0.142-3.088,0.416c-2.357-1.597-3.393-1.265-3.393-1.265c-0.67,1.699-0.247,2.952-0.12,3.265	c-0.79,0.863-1.271,1.964-1.271,3.31c0,4.728,2.88,5.786,5.619,6.097c-0.353,0.31-0.67,0.854-0.782,1.649	c-0.704,0.313-2.491,0.86-3.591-1.024c0,0-0.651-1.184-1.889-1.271c0,0-1.206-0.016-0.085,0.751c0,0,0.809,0.379,1.37,1.803	c0,0,0.724,2.399,4.155,1.654c0.006,1.028,0.016,1.806,0.016,2.099c0,0.327-0.225,0.708-0.841,0.596	c-4.903-1.633-8.437-6.256-8.437-11.706c0-6.814,5.523-12.337,12.336-12.337c6.813,0,12.337,5.523,12.337,12.337	C28.336,21.723,24.805,26.342,19.906,27.979z"/></svg><view id="github~hover" viewBox="0 1727 32 32"/><svg width="32" height="32" viewBox="0 0 32 32" id="github~hover-" y="1727"><path d="M0,0v32h32V0H0z M19.906,27.978c-0.627,0.12-0.85-0.264-0.85-0.594c0-0.404,0.017-1.735,0.017-3.384	c0-1.15-0.395-1.904-0.838-2.285c2.748-0.306,5.633-1.348,5.633-6.087c0-1.346-0.479-2.447-1.269-3.31	c0.128-0.313,0.551-1.566-0.123-3.265c0,0-1.033-0.332-3.388,1.265C18.103,10.044,17.048,9.907,16,9.902	c-1.048,0.005-2.104,0.142-3.088,0.416c-2.357-1.597-3.393-1.265-3.393-1.265c-0.67,1.699-0.247,2.952-0.12,3.265	c-0.79,0.863-1.271,1.964-1.271,3.31c0,4.728,2.88,5.786,5.619,6.097c-0.353,0.309-0.67,0.853-0.782,1.649	c-0.704,0.314-2.491,0.86-3.591-1.024c0,0-0.651-1.184-1.889-1.272c0,0-1.206-0.015-0.085,0.751c0,0,0.809,0.379,1.37,1.803	c0,0,0.724,2.399,4.155,1.654c0.006,1.029,0.016,1.806,0.016,2.099c0,0.327-0.225,0.708-0.841,0.595	c-4.903-1.632-8.437-6.256-8.437-11.705c0-6.814,5.523-12.337,12.336-12.337c6.813,0,12.337,5.523,12.337,12.337	C28.336,21.722,24.804,26.342,19.906,27.978z"/></svg><view id="googleplus" viewBox="0 1759 32 32"/><svg width="32" height="32" viewBox="0 0 32 32" id="googleplus-" y="1759"><g fill="#DDD"><path d="M12 15v2.4h3.97c-.16 1.029-1.199 3.02-3.97 3.02-2.39 0-4.34-1.98-4.34-4.42s1.95-4.42 4.34-4.42c1.36 0 2.271.58 2.79 1.08l1.9-1.83C15.47 9.689 13.89 9 12 9c-3.87 0-7 3.13-7 7s3.13 7 7 7c4.04 0 6.72-2.84 6.72-6.84 0-.46-.05-.811-.109-1.16H12L12 15zM27 15h-2v-2h-2v2h-2v2h2v2h2v-2h2"/></g></svg><view id="googleplus~hover" viewBox="0 1791 32 32"/><svg width="32" height="32" viewBox="0 0 32 32" id="googleplus~hover-" y="1791"><path fill="#D43" d="M0,0v32h32V0H0z M12,23c-3.87,0-7-3.13-7-7s3.13-7,7-7c1.89,0,3.47,0.689,4.69,1.83l-1.9,1.83	c-0.52-0.5-1.43-1.08-2.79-1.08c-2.39,0-4.34,1.98-4.34,4.42s1.95,4.42,4.34,4.42c2.771,0,3.81-1.99,3.97-3.02H12V15h6.61	c0.06,0.35,0.109,0.7,0.109,1.16C18.72,20.16,16.04,23,12,23z M27,17h-2v2h-2v-2h-2v-2h2v-2h2v2h2V17z"/></svg><view id="immowelt" viewBox="0 1823 100.049 18.069"/><svg width="100.049" height="18.069" viewBox="-0.047 0 100.049 18.069" id="immowelt-" y="1823"><path fill="#383738" d="M97.357,2.577c-1.705-1.658-4.063-2.573-6.641-2.576V0H9.213C6.64,0.001,4.286,0.917,2.586,2.577 C0.888,4.237-0.047,6.53-0.047,9.035c0,2.504,0.935,4.798,2.633,6.457c1.7,1.661,4.055,2.577,6.63,2.577 c0.002,0,0.004-0.002,0.007-0.002h81.472c0.004,0,0.006,0.002,0.006,0.002c0.005,0,0.007-0.002,0.007-0.002h0.01 c2.578-0.002,4.937-0.916,6.64-2.575c1.705-1.66,2.645-3.953,2.645-6.457C100.002,6.531,99.063,4.237,97.357,2.577"/><path fill="#FDB813" d="M96.793,3.096c-1.564-1.523-3.729-2.363-6.094-2.369h-0.018c-0.002,0-0.006-0.001-0.009-0.001	c0,0-0.006,0.001-0.009,0.001h-50.32v0.004c3.305,1.354,5.479,4.469,5.479,8.307c0,3.836-2.172,6.949-5.477,8.303H90.66	c0.004,0,0.01,0,0.015,0s0.011,0,0.017,0h0.01c2.365-0.006,4.527-0.846,6.094-2.367c1.566-1.528,2.432-3.637,2.432-5.938	C99.225,6.731,98.361,4.622,96.793,3.096"/><path fill="#383738" d="M55.061 11.013L56.552 6.138 58.509 6.138 56.157 13.084 54.02 13.084 52.479 8.389 50.953 13.084 48.831 13.084 46.479 6.138 48.473 6.138 49.956 10.991 51.512 6.138 53.482 6.138 55.061 11.013M65.961 9.6c0 .216-.016.474-.035.632H61c.201 1.003.904 1.44 1.786 1.44.603 0 1.254-.244 1.756-.667l1.097 1.205c-.789.724-1.791 1.053-2.961 1.053-2.129 0-3.604-1.448-3.604-3.634s1.434-3.678 3.513-3.678C64.586 5.952 65.956 7.436 65.961 9.6M61.008 8.956h3.075c-.172-.889-.709-1.392-1.513-1.392C61.689 7.564 61.173 8.095 61.008 8.956zM67.102 3.513H68.973V13.084H67.102zM75.6 7.801h-2.517v2.537c0 .867.459 1.184 1.039 1.184.444 0 .926-.223 1.304-.452l.69 1.461c-.61.417-1.313.731-2.304.731-1.721 0-2.603-.974-2.603-2.774V7.801h-1.339V6.138h1.339V4.073h1.872v2.064h2.516v1.664M85.695 6.862v-3.35h1.865v9.573h-1.828v-.767c-.453.56-1.127.946-2.08.946-1.914 0-3.361-1.57-3.361-3.656s1.447-3.656 3.361-3.656C84.584 5.952 85.245 6.317 85.695 6.862M82.205 9.608c0 1.061.695 1.914 1.793 1.914 1.066 0 1.792-.817 1.792-1.914 0-1.096-.726-1.915-1.792-1.915C82.9 7.693 82.205 8.547 82.205 9.608zM96.003 9.6c0 .216-.015.474-.035.632h-4.926c.2 1.003.903 1.44 1.785 1.44.603 0 1.255-.244 1.757-.667l1.096 1.205c-.787.724-1.791 1.053-2.959 1.053-2.131 0-3.605-1.448-3.605-3.634s1.433-3.678 3.513-3.678C94.626 5.952 95.997 7.436 96.003 9.6M91.05 8.956h3.075c-.174-.889-.71-1.392-1.514-1.392C91.73 7.564 91.214 8.095 91.05 8.956zM79.52 11.995c.045.735-.531 1.304-1.264 1.267-.589-.031-1.084-.521-1.119-1.11-.044-.732.521-1.318 1.254-1.281C78.986 10.902 79.484 11.4 79.52 11.995"/><path fill="#FFF" d="M9.058 3.865c0 .674-.524 1.19-1.197 1.19-.674 0-1.191-.516-1.191-1.19 0-.673.517-1.205 1.191-1.205C8.534 2.661 9.058 3.192 9.058 3.865M8.807 13.084h-1.87V6.138h1.871L8.807 13.084 8.807 13.084zM21.99 8.661v4.423h-1.864V9.263c0-1.003-.509-1.555-1.355-1.555-.803 0-1.47.523-1.47 1.57v3.806H15.43V9.263c0-1.003-.502-1.555-1.354-1.555-.803 0-1.47.523-1.47 1.57v3.806h-1.871V6.138h1.82v.817c.494-.738 1.254-1.003 2.043-1.003 1.003 0 1.829.451 2.293 1.19.538-.882 1.449-1.19 2.359-1.19C20.886 5.951 21.99 7.048 21.99 8.661M35.129 8.661v4.423h-1.863V9.263c0-1.003-.509-1.555-1.355-1.555-.803 0-1.47.523-1.47 1.57v3.806H28.57V9.263c0-1.003-.501-1.555-1.354-1.555-.803 0-1.47.523-1.47 1.57v3.806h-1.871V6.138h1.82v.817c.495-.738 1.254-1.003 2.043-1.003 1.004 0 1.828.451 2.293 1.19.538-.882 1.448-1.19 2.359-1.19C34.025 5.951 35.129 7.048 35.129 8.661M44.104 9.608c0 2.094-1.599 3.656-3.764 3.656-2.158 0-3.75-1.562-3.75-3.656 0-2.094 1.592-3.656 3.75-3.656C42.505 5.952 44.104 7.514 44.104 9.608M38.498 9.608c0 1.125.788 1.914 1.843 1.914 1.054 0 1.849-.789 1.849-1.914 0-1.126-.795-1.915-1.849-1.915C39.286 7.693 38.498 8.482 38.498 9.608z"/></svg><view id="location" viewBox="0 1842 54 96"/><svg width="54" height="96" viewBox="0 0 54 96" id="location-" y="1842"><path fill="#bbb" d="M27,5C12.157,5,0.125,17.032,0.125,31.875C0.125,58.75,27,91,27,91s26.875-32.25,26.875-59.125 C53.875,17.032,41.846,5,27,5 M27,48.001c-8.905,0-16.124-7.22-16.124-16.125c0-8.906,7.219-16.125,16.124-16.125 c8.908,0,16.126,7.219,16.126,16.125C43.126,40.782,35.908,48.001,27,48.001"/></svg><view id="location~hover" viewBox="0 1938 54 96"/><svg width="54" height="96" viewBox="0 0 54 96" id="location~hover-" y="1938"><path fill="#fb7064" d="M27,5C12.157,5,0.125,17.032,0.125,31.875C0.125,58.75,27,91,27,91s26.875-32.25,26.875-59.125 C53.875,17.032,41.846,5,27,5 M27,48.001c-8.905,0-16.124-7.22-16.124-16.125c0-8.906,7.219-16.125,16.124-16.125 c8.908,0,16.126,7.219,16.126,16.125C43.126,40.782,35.908,48.001,27,48.001"/></svg><view id="netatmo" viewBox="0 2034 100 24.842"/><svg version="1" width="100" height="24.842" viewBox="0 0 100 24.842" id="netatmo-" y="2034"><g fill="#010202"><path d="M15.341 15.061c0 2.954.035 8.515 4.329 8.515 3.87 0 4.504-3.873 4.504-5.243h1.337c0 2.816-1.549 6.439-5.701 6.439-4.75 0-5.948-3.87-5.948-10.135 0-5.63 2.005-9.113 6.158-9.113 4.329 0 5.736 3.589 5.736 9.537H15.341zM24.278 13.864c0-3.345-.528-7.145-4.328-7.145-4.083 0-4.609 4.752-4.609 7.145H24.278zM53.694 0h2.955v5.487h3.273V7.81h-3.273v12.106c0 1.514.388 2.108 1.937 2.108.632 0 .984-.07 1.3-.104v2.426c-.387.073-1.159.214-2.391.214-3.063 0-3.801-1.267-3.801-3.732V7.81h-2.745V5.487h2.745V0zM0 5.948h1.337v2.777h.07c.633-1.618 2.182-3.202 4.68-3.202 2.604 0 4.645 1.478 4.645 4.962v13.861H9.395V11.118c0-3.271-1.374-4.398-3.661-4.398-2.814 0-4.397 2.64-4.397 5.841v11.786H0V5.948zM27.128 5.948h2.5V.491h1.337v5.457h3.061v1.193h-3.061v14.181c0 1.758.845 2.042 1.617 2.042.564 0 1.056-.036 1.654-.211v1.193c-.669.144-1.372.211-1.9.211-1.9 0-2.708-1.09-2.708-3.095V7.141h-2.5V5.948zM36.383 11.188c0-4.291 1.83-6.192 6.333-6.192 5.735 0 5.735 3.449 5.735 5.42v10.522c0 .772 0 1.511.916 1.511.387 0 .563-.07.703-.178v2.112c-.211.036-.986.177-1.725.177-1.126 0-2.533 0-2.673-2.43h-.07c-.951 1.691-2.78 2.711-4.54 2.711-3.519 0-5.137-2.112-5.137-5.491 0-2.64 1.126-4.468 3.554-5.206l3.976-1.2c2.147-.665 2.147-1.263 2.147-2.847 0-1.761-1.058-2.78-3.027-2.78-3.236 0-3.236 3.027-3.236 3.695v.174H36.383zM45.496 14.075c-1.092 1.163-3.694 1.407-5.031 2.215-.952.599-1.442 1.337-1.442 2.991 0 1.901.667 3.237 2.672 3.237 1.937 0 3.802-1.654 3.802-3.588V14.075zM62.209 5.487h2.814v2.218h.07c.775-1.724 2.745-2.71 4.575-2.71 2.18 0 3.483.845 4.08 2.991.845-1.651 2.534-2.991 4.471-2.991 4.961 0 4.961 3.766 4.961 5.981v13.37h-2.956V11.331c0-1.443-.106-3.802-2.534-3.802-1.372 0-3.519.845-3.519 3.802v13.016h-2.956V11.331c0-1.443-.105-3.802-2.533-3.802-1.371 0-3.517.845-3.517 3.802v13.016h-2.957V5.487zM93.208 4.996c5.454 0 6.792 4.608 6.792 9.924 0 5.313-1.375 9.922-6.792 9.922-5.453 0-6.79-4.608-6.79-9.922C86.418 9.604 87.79 4.996 93.208 4.996M96.902 14.92c0-4.083-.598-7.602-3.765-7.602-2.992 0-3.624 3.519-3.624 7.602 0 4.08.599 7.599 3.624 7.599C96.27 22.519 96.902 19 96.902 14.92"/></g></svg><view id="netatmo-grey" viewBox="0 2059 100 24.842"/><svg version="1" width="100" height="24.842" viewBox="0 0 100 24.842" id="netatmo-grey-" y="2059"><g fill="#878787"><path d="M15.341 15.061c0 2.954.035 8.515 4.329 8.515 3.87 0 4.504-3.873 4.504-5.243h1.337c0 2.816-1.549 6.439-5.701 6.439-4.75 0-5.948-3.87-5.948-10.135 0-5.63 2.005-9.113 6.158-9.113 4.329 0 5.736 3.589 5.736 9.537H15.341zM24.278 13.864c0-3.345-.528-7.145-4.328-7.145-4.083 0-4.609 4.752-4.609 7.145H24.278zM53.694 0h2.955v5.487h3.273V7.81h-3.273v12.106c0 1.514.388 2.108 1.937 2.108.632 0 .984-.07 1.3-.104v2.426c-.387.073-1.159.214-2.391.214-3.063 0-3.801-1.267-3.801-3.732V7.81h-2.745V5.487h2.745V0zM0 5.948h1.337v2.777h.07c.633-1.618 2.182-3.202 4.68-3.202 2.604 0 4.645 1.478 4.645 4.962v13.861H9.395V11.118c0-3.271-1.374-4.398-3.661-4.398-2.814 0-4.397 2.64-4.397 5.841v11.786H0V5.948zM27.128 5.948h2.5V.491h1.337v5.457h3.061v1.193h-3.061v14.181c0 1.758.845 2.042 1.617 2.042.564 0 1.056-.036 1.654-.211v1.193c-.669.144-1.372.211-1.9.211-1.9 0-2.708-1.09-2.708-3.095V7.141h-2.5V5.948zM36.383 11.188c0-4.291 1.83-6.192 6.333-6.192 5.735 0 5.735 3.449 5.735 5.42v10.522c0 .772 0 1.511.916 1.511.387 0 .563-.07.703-.178v2.112c-.211.036-.986.177-1.725.177-1.126 0-2.533 0-2.673-2.43h-.07c-.951 1.691-2.78 2.711-4.54 2.711-3.519 0-5.137-2.112-5.137-5.491 0-2.64 1.126-4.468 3.554-5.206l3.976-1.2c2.147-.665 2.147-1.263 2.147-2.847 0-1.761-1.058-2.78-3.027-2.78-3.236 0-3.236 3.027-3.236 3.695v.174H36.383zM45.496 14.075c-1.092 1.163-3.694 1.407-5.031 2.215-.952.599-1.442 1.337-1.442 2.991 0 1.901.667 3.237 2.672 3.237 1.937 0 3.802-1.654 3.802-3.588V14.075zM62.209 5.487h2.814v2.218h.07c.775-1.724 2.745-2.71 4.575-2.71 2.18 0 3.483.845 4.08 2.991.845-1.651 2.534-2.991 4.471-2.991 4.961 0 4.961 3.766 4.961 5.981v13.37h-2.956V11.331c0-1.443-.106-3.802-2.534-3.802-1.372 0-3.519.845-3.519 3.802v13.016h-2.956V11.331c0-1.443-.105-3.802-2.533-3.802-1.371 0-3.517.845-3.517 3.802v13.016h-2.957V5.487zM93.208 4.996c5.454 0 6.792 4.608 6.792 9.924 0 5.313-1.375 9.922-6.792 9.922-5.453 0-6.79-4.608-6.79-9.922C86.418 9.604 87.79 4.996 93.208 4.996M96.902 14.92c0-4.083-.598-7.602-3.765-7.602-2.992 0-3.624 3.519-3.624 7.602 0 4.08.599 7.599 3.624 7.599C96.27 22.519 96.902 19 96.902 14.92"/></g></svg><view id="silbury" viewBox="0 2084 100 20.876"/><svg version="1" width="100" height="20.876" viewBox="0 0 100 20.876" id="silbury-" y="2084"><defs><path id="ra" d="M0 0H100V20.876H0z"/></defs><clipPath id="rb"><use xlink:href="#ra" overflow="visible"/></clipPath><path clip-path="url(#rb)" fill="#00628B" d="M81.699,10.419c2.455-3.375,5.436-8.071,11.48-9.634 c0.009-0.002,0.018-0.005,0.028-0.008c0.855-0.22,1.584-0.375,2.247-0.483c1.15-0.187,2.102-0.229,3.167-0.208 c0.316,0.006,0.642,0.019,0.985,0.034c0.127,0.006,0.256,0.012,0.388,0.02c-0.639-0.017-1.228-0.013-1.806,0.02 c-0.074,0.005-0.148,0.008-0.222,0.014c-1.372,0.097-2.707,0.368-4.531,0.95c-5.34,1.704-7.777,6.006-10.06,9.315h-1.691 C81.688,10.433,81.694,10.426,81.699,10.419"/><path clip-path="url(#rb)" fill="#00628B" d="M62.944 20.582c1.196-.081 2.438-.193 3.599-.336 1.55-.191 2.953-.438 3.899-.739 5.513-1.759 8.808-5.77 11.235-9.069h1.712c-.083.115-.166.228-.248.34-2.459 3.38-6.017 7.656-12.082 9.207-2.956.755-7.973.892-11.283.805C60.842 20.812 61.794 20.769 62.944 20.582M76.694 10.419c-2.456-3.375-5.436-8.071-11.479-9.634-.011-.002-.019-.005-.028-.008-.855-.22-1.584-.375-2.248-.483-1.149-.187-2.102-.229-3.167-.208-.314.006-.64.019-.983.034-.127.006-.256.012-.389.02.64-.017 1.229-.013 1.806.02.074.005.149.008.222.014 1.373.097 2.708.368 4.531.95 5.341 1.704 7.777 6.006 10.059 9.315h1.692C76.703 10.433 76.698 10.426 76.694 10.419"/><path clip-path="url(#rb)" fill="#00628B" d="M95.454,0.295c-1.196,0.081-2.438,0.193-3.599,0.336 c-1.55,0.191-2.954,0.438-3.9,0.74c-5.513,1.759-8.809,5.77-11.235,9.068h-1.713c0.084-0.114,0.167-0.228,0.249-0.34 c2.459-3.38,6.017-7.656,12.084-9.206C90.295,0.136,95.311,0,98.621,0.087C97.556,0.065,96.604,0.108,95.454,0.295"/><path clip-path="url(#rb)" fill="#00628B" d="M62.938.295c1.197.081 2.439.193 3.6.336 1.549.191 2.953.438 3.9.74 5.512 1.759 8.807 5.77 11.234 9.068h1.712c-.083-.114-.166-.228-.248-.34-2.458-3.38-6.017-7.656-12.083-9.206C68.098.136 63.082 0 59.771.087 60.836.065 61.789.108 62.938.295M95.46 20.582c-1.196-.081-2.438-.193-3.598-.336-1.551-.191-2.954-.438-3.9-.739-5.512-1.759-8.808-5.77-11.235-9.069h-1.711c.083.115.166.228.248.34 2.459 3.38 6.018 7.656 12.083 9.207 2.956.755 7.971.892 11.282.805C97.562 20.812 96.61 20.769 95.46 20.582"/><path clip-path="url(#rb)" fill="#00628B" d="M81.704 10.458c2.456 3.374 5.437 8.07 11.48 9.633.009.001.019.005.028.007.856.22 1.584.375 2.248.483 1.15.187 2.102.23 3.167.208.315-.007.641-.019.984-.035.127-.006.256-.012.389-.019-.64.017-1.228.013-1.807-.02-.074-.004-.148-.008-.222-.014-1.373-.097-2.708-.367-4.531-.949-5.34-1.704-7.777-6.006-10.058-9.315H81.69C81.695 10.444 81.699 10.451 81.704 10.458M76.7 10.458c-2.457 3.374-5.436 8.07-11.481 9.633-.009.001-.018.005-.027.007-.856.22-1.584.375-2.248.483-1.15.187-2.102.23-3.168.208-.315-.007-.641-.019-.983-.035-.127-.006-.256-.012-.389-.019.639.017 1.229.013 1.807-.02.073-.004.149-.008.222-.014 1.372-.097 2.707-.367 4.53-.949 5.341-1.704 7.778-6.006 10.059-9.315h1.692C76.709 10.444 76.705 10.451 76.7 10.458"/><path clip-path="url(#rb)" fill="#0095D4" d="M93.212,20.098c-0.009-0.002-0.019-0.005-0.028-0.007 c-0.65-0.144-1.286-0.312-1.902-0.508c-5.514-1.758-8.759-5.839-11.182-9.145h-0.005c2.423-3.306,5.668-7.385,11.181-9.144 c0.618-0.196,1.253-0.365,1.903-0.508c0.009-0.002,0.018-0.005,0.028-0.008c0.856-0.22,1.584-0.374,2.247-0.482 c-1.196,0.081-2.438,0.193-3.599,0.336c-0.384,0.078-0.766,0.164-1.141,0.261c-5.615,1.44-9.083,5.209-11.517,8.444 c-2.436-3.235-5.904-7.004-11.52-8.444c-0.375-0.097-0.756-0.183-1.141-0.261c-1.16-0.143-2.402-0.255-3.599-0.336 c0.664,0.108,1.393,0.263,2.248,0.482c0.01,0.003,0.018,0.006,0.028,0.008c0.649,0.144,1.286,0.312,1.903,0.508 c5.512,1.759,8.759,5.839,11.181,9.145h0.005c-2.423,3.305-5.668,7.385-11.18,9.144c-0.617,0.197-1.254,0.365-1.904,0.508 c-0.008,0.002-0.018,0.005-0.027,0.007c-0.856,0.22-1.584,0.375-2.248,0.483c1.196-0.081,2.438-0.193,3.598-0.336 c0.385-0.078,0.766-0.164,1.141-0.26c5.616-1.441,9.084-5.21,11.519-8.444c2.436,3.233,5.903,7.002,11.519,8.444 c0.376,0.096,0.756,0.182,1.141,0.26c1.16,0.143,2.402,0.255,3.599,0.336C94.797,20.474,94.068,20.318,93.212,20.098"/><path clip-path="url(#rb)" fill="#878787" d="M8.347 11.91c0 .702-.117 1.334-.352 1.897-.234.563-.565 1.042-.993 1.436-.428.396-.94.7-1.535.912-.595.211-1.254.318-1.976.318-.683 0-1.332-.077-1.946-.23C.929 16.089.414 15.888 0 15.64l.602-1.646c.334.205.752.384 1.254.538.501.153 1.026.23 1.575.23.923 0 1.678-.241 2.268-.725.588-.482.883-1.162.883-2.04 0-.395-.074-.747-.221-1.053-.147-.307-.345-.578-.592-.812C5.521 9.899 5.236 9.69 4.916 9.507 4.594 9.325 4.267 9.153 3.933 8.992c-.455-.22-.907-.461-1.354-.725C2.13 8.004 1.726 7.697 1.364 7.346c-.361-.352-.656-.764-.883-1.24C.254 5.631.14 5.064.14 4.406s.11-1.254.331-1.788c.221-.534.525-.987.913-1.36C1.772.885 2.24.6 2.789.402c.548-.198 1.157-.296 1.826-.296.668 0 1.277.08 1.826.241C6.989.509 7.437.706 7.785.94L7.203 2.498C6.922 2.322 6.554 2.154 6.099 1.993c-.455-.161-.93-.242-1.424-.242-.816 0-1.485.224-2.006.669C2.146 2.867 1.886 3.5 1.886 4.319c0 .395.081.742.241 1.042.16.3.374.57.642.812S3.337 6.63 3.671 6.819C4.005 7.01 4.347 7.192 4.695 7.369c.428.205.859.431 1.294.68.435.249.826.548 1.174.899.348.352.632.769.853 1.251C8.236 10.681 8.347 11.251 8.347 11.91M12.408 2.125c0 .283-.104.526-.311.728-.208.203-.458.304-.752.304-.294 0-.545-.101-.752-.304-.208-.202-.311-.445-.311-.728s.104-.529.311-.739c.207-.208.458-.313.752-.313.294 0 .545.104.752.313C12.304 1.595 12.408 1.841 12.408 2.125M10.524 5.346h1.665V16.25h-1.665V5.346zM14.632.368H16.297V16.25H14.632zM27.367 10.585c0 1.025-.127 1.909-.381 2.65-.254.741-.612 1.353-1.074 1.832-.461.479-1.01.832-1.645 1.062-.635.229-1.334.344-2.097.344-.669 0-1.304-.075-1.906-.223-.602-.147-1.11-.33-1.524-.546V.368h1.685v5.301c.281-.135.622-.25 1.023-.344s.809-.142 1.224-.142c.695 0 1.33.125 1.906.375.575.25 1.069.606 1.484 1.072.415.466.736 1.032.963 1.7C27.252 8.997 27.367 9.75 27.367 10.585M25.683 10.687c0-1.308-.294-2.33-.883-3.065-.588-.735-1.371-1.103-2.347-1.103-.361 0-.726.04-1.093.121-.368.081-.679.189-.933.324v7.789c.187.095.444.176.772.243.328.067.679.102 1.054.102.481 0 .929-.084 1.344-.253.415-.168.779-.427 1.093-.778.314-.351.558-.807.732-1.367C25.596 12.14 25.683 11.469 25.683 10.687M37.675 15.704c-.415.216-.977.398-1.686.546-.709.148-1.464.223-2.267.223-1.351 0-2.384-.307-3.1-.92-.716-.614-1.073-1.582-1.073-2.904V5.345h1.685v7.324c0 1.591.829 2.388 2.488 2.388.495 0 .946-.037 1.354-.112.408-.074.719-.158.933-.253V5.345h1.665V15.704zM44.795 6.62c-.147-.027-.301-.047-.461-.061-.161-.013-.328-.02-.501-.02-.375 0-.746.03-1.114.091-.368.061-.679.145-.933.253v9.367h-1.685V5.892c.495-.229 1.09-.415 1.786-.556.695-.142 1.417-.212 2.167-.212.201 0 .391.007.571.02.181.014.344.033.492.061L44.795 6.62zM50.824 20.6h-1.746l1.625-4.35L46.65 5.345h1.826l2.688 7.931c.121.364.213.715.281 1.052l.1.506h.041l.1-.506c.067-.336.161-.688.281-1.052l2.668-7.931h1.846L50.824 20.6z"/></svg><view id="silbury-grey" viewBox="0 2105 100 20.876"/><svg version="1" width="100" height="20.876" viewBox="0 0 100 20.876" id="silbury-grey-" y="2105"><defs><path id="sa" d="M0 0H100V20.876H0z"/></defs><clipPath id="sb"><use xlink:href="#sa" overflow="visible"/></clipPath><path clip-path="url(#sb)" fill="#878787" d="M81.699,10.419c2.455-3.375,5.436-8.071,11.48-9.634 c0.009-0.002,0.018-0.005,0.028-0.008c0.855-0.22,1.584-0.375,2.247-0.483c1.15-0.187,2.102-0.229,3.167-0.208 c0.316,0.006,0.642,0.019,0.985,0.034c0.127,0.006,0.256,0.012,0.388,0.02c-0.639-0.017-1.228-0.013-1.806,0.02 c-0.074,0.005-0.148,0.008-0.222,0.014c-1.372,0.097-2.707,0.368-4.531,0.95c-5.34,1.704-7.777,6.006-10.06,9.315h-1.691 C81.688,10.433,81.694,10.426,81.699,10.419"/><path clip-path="url(#sb)" fill="#878787" d="M62.944 20.582c1.196-.081 2.438-.193 3.599-.336 1.55-.191 2.953-.438 3.899-.739 5.513-1.759 8.808-5.77 11.235-9.069h1.712c-.083.115-.166.228-.248.34-2.459 3.38-6.017 7.656-12.082 9.207-2.956.755-7.973.892-11.283.805C60.842 20.812 61.794 20.769 62.944 20.582M76.694 10.419c-2.456-3.375-5.436-8.071-11.479-9.634-.011-.002-.019-.005-.028-.008-.855-.22-1.584-.375-2.248-.483-1.149-.187-2.102-.229-3.167-.208-.314.006-.64.019-.983.034-.127.006-.256.012-.389.02.64-.017 1.229-.013 1.806.02.074.005.149.008.222.014 1.373.097 2.708.368 4.531.95 5.341 1.704 7.777 6.006 10.059 9.315h1.692C76.703 10.433 76.698 10.426 76.694 10.419"/><path clip-path="url(#sb)" fill="#878787" d="M95.454,0.295c-1.196,0.081-2.438,0.193-3.599,0.336 c-1.55,0.191-2.954,0.438-3.9,0.74c-5.513,1.759-8.809,5.77-11.235,9.068h-1.713c0.084-0.114,0.167-0.228,0.249-0.34 c2.459-3.38,6.017-7.656,12.084-9.206C90.295,0.136,95.311,0,98.621,0.087C97.556,0.065,96.604,0.108,95.454,0.295"/><path clip-path="url(#sb)" fill="#878787" d="M62.938.295c1.197.081 2.439.193 3.6.336 1.549.191 2.953.438 3.9.74 5.512 1.759 8.807 5.77 11.234 9.068h1.712c-.083-.114-.166-.228-.248-.34-2.458-3.38-6.017-7.656-12.083-9.206C68.098.136 63.082 0 59.771.087 60.836.065 61.789.108 62.938.295M95.46 20.582c-1.196-.081-2.438-.193-3.598-.336-1.551-.191-2.954-.438-3.9-.739-5.512-1.759-8.808-5.77-11.235-9.069h-1.711c.083.115.166.228.248.34 2.459 3.38 6.018 7.656 12.083 9.207 2.956.755 7.971.892 11.282.805C97.562 20.812 96.61 20.769 95.46 20.582"/><path clip-path="url(#sb)" fill="#878787" d="M81.704 10.458c2.456 3.374 5.437 8.07 11.48 9.633.009.001.019.005.028.007.856.22 1.584.375 2.248.483 1.15.187 2.102.23 3.167.208.315-.007.641-.019.984-.035.127-.006.256-.012.389-.019-.64.017-1.228.013-1.807-.02-.074-.004-.148-.008-.222-.014-1.373-.097-2.708-.367-4.531-.949-5.34-1.704-7.777-6.006-10.058-9.315H81.69C81.695 10.444 81.699 10.451 81.704 10.458M76.7 10.458c-2.457 3.374-5.436 8.07-11.481 9.633-.009.001-.018.005-.027.007-.856.22-1.584.375-2.248.483-1.15.187-2.102.23-3.168.208-.315-.007-.641-.019-.983-.035-.127-.006-.256-.012-.389-.019.639.017 1.229.013 1.807-.02.073-.004.149-.008.222-.014 1.372-.097 2.707-.367 4.53-.949 5.341-1.704 7.778-6.006 10.059-9.315h1.692C76.709 10.444 76.705 10.451 76.7 10.458"/><path clip-path="url(#sb)" fill="#878787" d="M93.212 20.098c-.009-.002-.019-.005-.028-.007-.65-.144-1.286-.312-1.902-.508-5.514-1.758-8.759-5.839-11.182-9.145h-.005c2.423-3.306 5.668-7.385 11.181-9.144.618-.196 1.253-.365 1.903-.508.009-.002.018-.005.028-.008.856-.22 1.584-.374 2.247-.482-1.196.081-2.438.193-3.599.336-.384.078-.766.164-1.141.261-5.615 1.44-9.083 5.209-11.517 8.444-2.436-3.235-5.904-7.004-11.52-8.444-.375-.097-.756-.183-1.141-.261-1.16-.143-2.402-.255-3.599-.336.664.108 1.393.263 2.248.482.01.003.018.006.028.008.649.144 1.286.312 1.903.508 5.512 1.759 8.759 5.839 11.181 9.145h.005c-2.423 3.305-5.668 7.385-11.18 9.144-.617.197-1.254.365-1.904.508-.008.002-.018.005-.027.007-.856.22-1.584.375-2.248.483 1.196-.081 2.438-.193 3.598-.336.385-.078.766-.164 1.141-.26 5.616-1.441 9.084-5.21 11.519-8.444 2.436 3.233 5.903 7.002 11.519 8.444.376.096.756.182 1.141.26 1.16.143 2.402.255 3.599.336C94.797 20.474 94.068 20.318 93.212 20.098M8.347 11.91c0 .702-.117 1.334-.352 1.897-.234.563-.565 1.042-.993 1.436-.428.396-.94.7-1.535.912-.595.211-1.254.318-1.976.318-.683 0-1.332-.077-1.946-.23C.929 16.089.414 15.888 0 15.64l.602-1.646c.334.205.752.384 1.254.538.501.153 1.026.23 1.575.23.923 0 1.678-.241 2.268-.725.588-.482.883-1.162.883-2.04 0-.395-.074-.747-.221-1.053-.147-.307-.345-.578-.592-.812C5.521 9.899 5.236 9.69 4.916 9.507 4.594 9.325 4.267 9.153 3.933 8.992c-.455-.22-.907-.461-1.354-.725C2.13 8.004 1.726 7.697 1.364 7.346c-.361-.352-.656-.764-.883-1.24C.254 5.631.14 5.064.14 4.406s.11-1.254.331-1.788c.221-.534.525-.987.913-1.36C1.772.885 2.24.6 2.789.402c.548-.198 1.157-.296 1.826-.296.668 0 1.277.08 1.826.241C6.989.509 7.437.706 7.785.94L7.203 2.498C6.922 2.322 6.554 2.154 6.099 1.993c-.455-.161-.93-.242-1.424-.242-.816 0-1.485.224-2.006.669C2.146 2.867 1.886 3.5 1.886 4.319c0 .395.081.742.241 1.042.16.3.374.57.642.812S3.337 6.63 3.671 6.819C4.005 7.01 4.347 7.192 4.695 7.369c.428.205.859.431 1.294.68.435.249.826.548 1.174.899.348.352.632.769.853 1.251C8.236 10.681 8.347 11.251 8.347 11.91M12.408 2.125c0 .283-.104.526-.311.728-.208.203-.458.304-.752.304-.294 0-.545-.101-.752-.304-.208-.202-.311-.445-.311-.728s.104-.529.311-.739c.207-.208.458-.313.752-.313.294 0 .545.104.752.313C12.304 1.595 12.408 1.841 12.408 2.125M10.524 5.346h1.665V16.25h-1.665V5.346zM14.632.368H16.297V16.25H14.632zM27.367 10.585c0 1.025-.127 1.909-.381 2.65-.254.741-.612 1.353-1.074 1.832-.461.479-1.01.832-1.645 1.062-.635.229-1.334.344-2.097.344-.669 0-1.304-.075-1.906-.223-.602-.147-1.11-.33-1.524-.546V.368h1.685v5.301c.281-.135.622-.25 1.023-.344s.809-.142 1.224-.142c.695 0 1.33.125 1.906.375.575.25 1.069.606 1.484 1.072.415.466.736 1.032.963 1.7C27.252 8.997 27.367 9.75 27.367 10.585M25.683 10.687c0-1.308-.294-2.33-.883-3.065-.588-.735-1.371-1.103-2.347-1.103-.361 0-.726.04-1.093.121-.368.081-.679.189-.933.324v7.789c.187.095.444.176.772.243.328.067.679.102 1.054.102.481 0 .929-.084 1.344-.253.415-.168.779-.427 1.093-.778.314-.351.558-.807.732-1.367C25.596 12.14 25.683 11.469 25.683 10.687M37.675 15.704c-.415.216-.977.398-1.686.546-.709.148-1.464.223-2.267.223-1.351 0-2.384-.307-3.1-.92-.716-.614-1.073-1.582-1.073-2.904V5.345h1.685v7.324c0 1.591.829 2.388 2.488 2.388.495 0 .946-.037 1.354-.112.408-.074.719-.158.933-.253V5.345h1.665V15.704zM44.795 6.62c-.147-.027-.301-.047-.461-.061-.161-.013-.328-.02-.501-.02-.375 0-.746.03-1.114.091-.368.061-.679.145-.933.253v9.367h-1.685V5.892c.495-.229 1.09-.415 1.786-.556.695-.142 1.417-.212 2.167-.212.201 0 .391.007.571.02.181.014.344.033.492.061L44.795 6.62zM50.824 20.6h-1.746l1.625-4.35L46.65 5.345h1.826l2.688 7.931c.121.364.213.715.281 1.052l.1.506h.041l.1-.506c.067-.336.161-.688.281-1.052l2.668-7.931h1.846L50.824 20.6z"/></svg><view id="tollwerk" viewBox="0 2126 324 86"/><svg width="324" height="86" viewBox="0 0 324 86" id="tollwerk-" y="2126"><path fill="#00285A" d="M323.535,70.678h-12.145l-8.15-13.262l-4.419,5.01v8.252h-10.537V17.931h10.537v31.788l11.522-14.384 h12.465l-13.116,14.812L323.535,70.678z M235.523,64c-5.229,0-7.962-2.629-8.595-8.252h17.389v-7.375h-4.356h-12.846 c0.791-3.945,2.842-5.65,6.833-5.65l10.369,0.003v-0.004v-7.388h-10.095l-1.04,0.041c-10.388,0.426-15.882,6.57-15.882,17.867 c0,11.854,6.053,18.381,17.041,18.381c4.655,0,9.065-0.945,13.477-2.887l-2.351-6.834C241.8,63.289,238.456,64,235.523,64z M273.33,44.785c0.543-0.047,1.063-0.037,1.566,0.014c1.178,0.119,2.244,0.482,3.178,1.006l3.189-9.273 c-1.076-0.666-2.139-1.15-3.179-1.473c-0.038-0.012-0.077-0.025-0.115-0.037c-3.798-1.135-7.288-0.113-9.964,2.02 c-1.402,1.004-2.827,2.354-4.357,4.102l-0.497,0.568v-6.377h-10.458v35.343h10.537V52.057l0.046-0.07 c1.083-1.656,2.159-2.996,3.267-4.057C269.002,45.893,271.295,44.963,273.33,44.785z M201.435,56.951l-8.32-21.617h-7.245 l-7.904,21.675l-4.807-21.675h-10.894l10.153,35.343h7.863l8.934-21.889l8.853,21.889h7.783l9.766-35.343h-10.103L201.435,56.951z M268.408,58.547l7.656,12.137h12.149l-11.42-15.939L268.408,58.547z M85.605,43c0,23.512-19.06,42.571-42.571,42.571 C19.523,85.57,0.464,66.512,0.464,43c0-1.247,0.065-2.479,0.17-3.7l16.484-18.338l-5.721-6.44c1.519-1.686,3.172-3.245,4.939-4.671 l8.021,11.437L12.727,37.548l6.162,4.827l19.389-21.413L23.882,4.983c5.759-2.906,12.261-4.554,19.152-4.554 C66.546,0.429,85.605,19.489,85.605,43z M71.923,33.543H55.495H44.294h-9.485v9.914h9.485v6.408c0,14.307,2.837,22.059,17.8,22.059 c2.36,0,4.598-0.154,6.652-0.459l-0.627-8.904c-0.841,0.127-2.077,0.127-3.73,0.127c-6.566,0-8.894-3.355-8.894-12.822v-6.408 h16.428V33.543z M124.383,52.297c0,12.102-6.9,19.326-18.459,19.326c-11.065,0-17.671-6.93-17.671-18.537 c0-11.659,6.93-18.619,18.537-18.619C117.806,34.467,124.383,41.133,124.383,52.297z M113.61,52.85 c0-6.93-2.48-10.443-7.372-10.443c-4.734,0-7.135,3.46-7.135,10.285c0,7.242,2.507,10.914,7.45,10.914 C111.236,63.605,113.61,59.986,113.61,52.85z M147.511,56.031h10.537v-38.1h-10.537V56.031z M129.49,70.678h10.536V17.931H129.49 V70.678z"/></svg><view id="tollwerk-grey" viewBox="0 2212 324 86"/><svg width="324" height="86" viewBox="0 0 324 86" id="tollwerk-grey-" y="2212"><path fill="#878787" d="M323.535,70.678h-12.145l-8.15-13.262l-4.419,5.01v8.252h-10.537V17.931h10.537v31.788l11.522-14.384 h12.465l-13.116,14.812L323.535,70.678z M235.523,64c-5.229,0-7.962-2.629-8.595-8.252h17.389v-7.375h-4.356h-12.846 c0.791-3.945,2.842-5.65,6.833-5.65l10.369,0.003v-0.004v-7.388h-10.095l-1.04,0.041c-10.388,0.426-15.882,6.57-15.882,17.867 c0,11.854,6.053,18.381,17.041,18.381c4.655,0,9.065-0.945,13.477-2.887l-2.351-6.834C241.8,63.289,238.456,64,235.523,64z M273.33,44.785c0.543-0.047,1.063-0.037,1.566,0.014c1.178,0.119,2.244,0.482,3.178,1.006l3.189-9.273 c-1.076-0.666-2.139-1.15-3.179-1.473c-0.038-0.012-0.077-0.025-0.115-0.037c-3.798-1.135-7.288-0.113-9.964,2.02 c-1.402,1.004-2.827,2.354-4.357,4.102l-0.497,0.568v-6.377h-10.458v35.343h10.537V52.057l0.046-0.07 c1.083-1.656,2.159-2.996,3.267-4.057C269.002,45.893,271.295,44.963,273.33,44.785z M201.435,56.951l-8.32-21.617h-7.245 l-7.904,21.675l-4.807-21.675h-10.894l10.153,35.343h7.863l8.934-21.889l8.853,21.889h7.783l9.766-35.343h-10.103L201.435,56.951z M268.408,58.547l7.656,12.137h12.149l-11.42-15.939L268.408,58.547z M85.605,43c0,23.512-19.06,42.571-42.571,42.571 C19.523,85.57,0.464,66.512,0.464,43c0-1.247,0.065-2.479,0.17-3.7l16.484-18.338l-5.721-6.44c1.519-1.686,3.172-3.245,4.939-4.671 l8.021,11.437L12.727,37.548l6.162,4.827l19.389-21.413L23.882,4.983c5.759-2.906,12.261-4.554,19.152-4.554 C66.546,0.429,85.605,19.489,85.605,43z M71.923,33.543H55.495H44.294h-9.485v9.914h9.485v6.408c0,14.307,2.837,22.059,17.8,22.059 c2.36,0,4.598-0.154,6.652-0.459l-0.627-8.904c-0.841,0.127-2.077,0.127-3.73,0.127c-6.566,0-8.894-3.355-8.894-12.822v-6.408 h16.428V33.543z M124.383,52.297c0,12.102-6.9,19.326-18.459,19.326c-11.065,0-17.671-6.93-17.671-18.537 c0-11.659,6.93-18.619,18.537-18.619C117.806,34.467,124.383,41.133,124.383,52.297z M113.61,52.85 c0-6.93-2.48-10.443-7.372-10.443c-4.734,0-7.135,3.46-7.135,10.285c0,7.242,2.507,10.914,7.45,10.914 C111.236,63.605,113.61,59.986,113.61,52.85z M147.511,56.031h10.537v-38.1h-10.537V56.031z M129.49,70.678h10.536V17.931H129.49 V70.678z"/></svg><view id="twitter" viewBox="0 2298 32 32"/><svg width="32" height="32" viewBox="0 0 32 32" id="twitter-" y="2298"><path fill="#DDD" d="M24.551,11.616c0.006,0.19,0.012,0.38,0.012,0.571c0,5.829-4.436,12.549-12.55,12.549	c-2.49,0-4.809-0.729-6.761-1.982c0.345,0.041,0.696,0.061,1.052,0.061c2.067,0,3.969-0.7,5.479-1.887	c-1.931-0.033-3.56-1.309-4.122-3.063c0.27,0.053,0.546,0.078,0.83,0.078c0.402,0,0.793-0.053,1.164-0.152	c-2.018-0.407-3.539-2.189-3.539-4.326c0-0.018,0-0.037,0.001-0.058c0.594,0.333,1.272,0.53,1.995,0.553	C6.93,13.17,6.15,11.818,6.15,10.289c0-0.809,0.219-1.566,0.597-2.219c2.176,2.67,5.427,4.426,9.092,4.609	c-0.073-0.322-0.114-0.658-0.114-1.006c0-2.435,1.975-4.41,4.412-4.41c1.271,0,2.414,0.536,3.219,1.394	c1.006-0.198,1.949-0.565,2.802-1.071c-0.329,1.03-1.029,1.895-1.938,2.441c0.891-0.107,1.742-0.344,2.532-0.695	C26.158,10.217,25.412,10.993,24.551,11.616z"/></svg><view id="twitter~hover" viewBox="0 2330 32 32"/><svg width="32" height="32" viewBox="0 0 32 32" id="twitter~hover-" y="2330"><path fill="#3AD" d="M0,0v32h32V0H0z M24.549,11.616c0.006,0.19,0.012,0.38,0.012,0.571c0,5.828-4.436,12.549-12.549,12.549	c-2.492,0-4.811-0.729-6.763-1.982c0.345,0.041,0.696,0.061,1.053,0.061c2.067,0,3.97-0.701,5.478-1.887	c-1.93-0.035-3.559-1.309-4.12-3.063c0.271,0.053,0.546,0.078,0.829,0.078c0.404,0,0.794-0.053,1.164-0.152	c-2.018-0.407-3.539-2.189-3.539-4.326c0-0.018,0-0.037,0-0.058c0.595,0.333,1.275,0.53,1.998,0.553	c-1.184-0.79-1.963-2.142-1.963-3.671c0-0.809,0.219-1.566,0.598-2.219c2.176,2.67,5.428,4.426,9.092,4.609	c-0.074-0.322-0.113-0.658-0.113-1.006c0-2.435,1.975-4.41,4.412-4.41c1.27,0,2.414,0.536,3.219,1.394	c1.006-0.198,1.949-0.565,2.801-1.071c-0.329,1.03-1.029,1.895-1.938,2.441c0.89-0.107,1.742-0.344,2.532-0.695	C26.158,10.217,25.412,10.993,24.549,11.616z"/></svg></svg>