<?xml version="1.0" encoding="utf-8"?><!DOCTYPE svg PUBLIC "-//W3C//DTD SVG 1.1//EN" "http://www.w3.org/Graphics/SVG/1.1/DTD/svg11.dtd"><svg width="400" height="1015" viewBox="0 0 400 1015" xmlns="http://www.w3.org/2000/svg" xmlns:xlink="http://www.w3.org/1999/xlink"><view id="coderdojo-button" viewBox="0 0 255 255"/><svg width="255" height="255" viewBox="0 0 255 255" id="coderdojo-button-"><circle fill="#FFF" cx="127.5" cy="127.514" r="127.5"/><path d="M104.743,78.106V32.378c0-2.002,0.728-3.731,2.184-5.188c1.456-1.456,3.185-2.183,5.187-2.183h23.842 c1.972,0,3.678,0.728,5.119,2.183c1.44,1.457,2.162,3.186,2.162,5.188v45.728c0,2.033-0.721,3.77-2.162,5.21 c-1.441,1.441-3.178,2.161-5.209,2.161h-23.751c-2.063,0-3.807-0.72-5.232-2.161C105.455,81.875,104.743,80.138,104.743,78.106z M135.683,77.833V32.742h-23.296v45.091H135.683z"/><path d="M218.181,37.896c-23.721-24.001-55.341-37.455-89.035-37.882c-0.06,0.001-0.115,0.026-0.173,0.037 c-0.492-0.011-0.979-0.037-1.474-0.037c-0.635,0-1.269,0.009-1.886,0.026C91.971,0.529,60.408,14.01,36.74,37.999 C13.048,62.013,0,93.803,0,127.514c0,33.751,13.076,65.569,36.819,89.591c23.721,24.002,55.34,37.454,89.035,37.882 c0.004,0,0.009,0,0.013,0c0.065,0,0.123-0.025,0.185-0.036c0.483,0.01,0.963,0.036,1.449,0.036c0.635,0,1.269-0.008,1.886-0.025 c33.643-0.488,65.206-13.969,88.874-37.959c23.692-24.015,36.74-55.805,36.74-89.515C255,93.736,241.925,61.919,218.181,37.896z M148.115,220.189c0,1.062-0.372,1.964-1.114,2.707c-0.744,0.743-1.647,1.114-2.708,1.114h-30.849c-1.063,0-1.965-0.387-2.708-1.16 c-0.744-0.773-1.115-1.69-1.115-2.753c0-1.03,0.371-1.91,1.115-2.638c0.743-0.729,1.645-1.093,2.708-1.093h11.739v-45.091h-11.557 c-1.062,0-1.964-0.371-2.708-1.114c-0.744-0.743-1.114-1.646-1.114-2.708c0-1.061,0.371-1.964,1.114-2.708 c0.743-0.743,1.646-1.114,2.708-1.114h19.201v52.734h7.644v-15.925c0-1.031,0.371-1.926,1.115-2.685 c0.743-0.758,1.645-1.138,2.707-1.138c1.061,0,1.964,0.372,2.708,1.115c0.742,0.744,1.114,1.646,1.114,2.707V220.189z M127.5,126.495c-35.425,0-64.246,28.821-64.246,64.247c0,0.004,0,0.009,0,0.013c0,0.004,0,0.009,0,0.013 c0,1.088,0.029,2.172,0.083,3.251c0.005,0.105,0.017,0.208,0.022,0.314c0.054,0.985,0.126,1.967,0.225,2.943 c0.007,0.068,0.017,0.136,0.024,0.204c1.487,14.346,7.715,27.703,17.926,38.159c6.726,6.887,14.747,12.082,23.522,15.349 C46.618,240.317,1.984,188.748,1.984,127.514c0-68.205,55.473-124.5,123.672-125.49c0.612-0.017,1.227-0.026,1.843-0.026 c2.125,0,4.225,0.108,6.295,0.317c0.041,0.004,0.082,0.008,0.122,0.013c0.935,0.096,1.863,0.217,2.784,0.354 c0.176,0.027,0.353,0.053,0.528,0.081c0.75,0.118,1.494,0.255,2.235,0.4c0.37,0.073,0.74,0.146,1.107,0.227 c0.512,0.11,1.021,0.231,1.527,0.354c0.606,0.148,1.211,0.299,1.81,0.465c0.237,0.064,0.472,0.133,0.708,0.201 c24.984,7.252,43.701,29.933,45.065,56.689c0.052,1.043,0.08,2.092,0.08,3.147C189.755,98.572,161.827,126.495,127.5,126.495z"/></svg><view id="coderdojo-dark" viewBox="0 255 400 112.975"/><svg width="400" height="112.975" viewBox="0.003 0 400 112.975" id="coderdojo-dark-" y="255"><path d="M153.955,67.994v10.325c-0.101,3.066-0.713,5.828-1.843,8.177c-0.918,2.043-2.354,3.991-4.397,5.521 c-2.042,1.632-4.803,2.556-8.482,2.556c-3.685,0-6.546-0.924-8.589-2.556c-2.042-1.53-3.372-3.479-4.291-5.521 c-1.124-2.349-1.736-5.11-1.842-8.177V34.048c0.105-2.967,0.712-5.727,1.842-8.076c0.919-2.044,2.249-4.091,4.291-5.622 c2.043-1.531,4.909-2.56,8.589-2.56c3.685,0,6.44,1.029,8.482,2.56c2.043,1.536,3.479,3.578,4.397,5.622 c1.125,2.354,1.742,5.109,1.843,8.076v10.325H143.63V34.048c0-2.043-0.513-3.479-1.637-4.703c-0.512-0.513-1.43-0.818-2.556-0.818 c-1.942,0-2.86,1.43-3.372,2.76c-0.301,0.818-0.406,1.742-0.513,2.767v44.271c0.106,2.145,0.718,3.58,1.742,4.698 c0.513,0.518,1.225,0.818,2.143,0.818c2.355,0,3.273-1.225,3.785-2.76c0.302-0.713,0.407-1.637,0.407-2.762V67.994H153.955z M186.134,80.162c-0.302,5.421-1.938,9.2-5.517,12.168c-1.843,1.535-4.397,2.248-7.771,2.248c-6.65,0-9.918-3.686-11.555-7.364 c-0.918-2.143-1.531-4.598-1.632-7.358v-28.12c0.307-5.421,1.938-9.401,5.517-12.468c1.742-1.541,4.297-2.253,7.67-2.253 c6.646,0,10.019,3.684,11.655,7.258c0.919,2.148,1.531,4.502,1.632,7.163v28.731V80.162z M176.421,51.73 c0.105-2.143-0.307-3.679-1.331-4.909c-0.511-0.512-1.329-0.818-2.248-0.818c-1.947,0-2.766,1.331-3.173,2.862 c-0.306,0.818-0.406,1.742-0.306,2.86v28.119c-0.101,2.144,0.412,3.686,1.33,4.804c0.512,0.512,1.225,0.818,2.148,0.818 c1.938,0,2.861-1.224,3.268-2.762c0.306-0.817,0.412-1.741,0.306-2.86V51.725L176.421,51.73z M219.395,93.755h-10.325v-3.686 c-1.736,1.637-3.268,2.862-5.211,3.786c-1.029,0.512-2.049,0.713-2.966,0.713c-2.861,0-4.804-1.637-6.033-3.786 c-1.331-2.042-1.938-4.804-1.938-7.153V47.946c0-2.349,0.611-5.108,1.938-7.259c1.229-2.042,3.172-3.684,6.033-3.684 c1.937,0,3.99,1.124,5.521,2.254c0.919,0.713,1.736,1.43,2.655,2.248V18.602h10.325V93.755z M209.069,50.094 c0-1.636-1.535-3.371-3.068-3.371c-1.535,0-2.76,1.43-2.76,3.371v31.388c0,1.948,1.225,3.374,2.76,3.374 c1.533,0,3.068-1.431,3.068-3.374V50.094z M253.542,73.712v6.445c-0.307,5.42-1.938,9.199-5.622,12.167 c-1.843,1.536-4.398,2.249-7.771,2.249c-6.645,0-10.019-3.686-11.654-7.364c-0.917-2.143-1.531-4.598-1.635-7.358V51.73 c0.305-5.421,2.042-9.401,5.726-12.468c1.742-1.541,4.297-2.253,7.671-2.253c6.646,0,10.018,3.684,11.654,7.258 c0.919,2.147,1.531,4.502,1.632,7.163v16.259h-17.077v12.166c0.105,2.145,0.713,3.685,1.637,4.804 c0.511,0.513,1.226,0.817,2.147,0.817c1.943,0,2.862-1.224,3.268-2.76c0.308-0.817,0.408-1.741,0.408-2.861v-6.139h9.61 L253.542,73.712z M236.465,59.6h7.465v-7.875c0-2.143-0.408-3.679-1.431-4.909c-0.513-0.512-1.331-0.818-2.25-0.818 c-1.948,0-2.767,1.331-3.272,2.862c-0.306,0.818-0.406,1.742-0.512,2.86v7.875V59.6z M281.074,48.458 c-0.917-0.306-1.937-0.406-2.86-0.406c-1.631,0-3.579,0.206-5.209,1.737c-1.948,1.637-2.255,3.373-2.255,5.108v38.857h-10.325 V37.822h10.325v6.239c0.105-0.713,0.817-2.455,2.454-4.091c1.637-1.536,4.091-2.967,7.87-2.967V48.458z M285.583,93.755V18.602 h8.693c10.22,0,15.746,2.042,18.707,7.77c2.862,5.728,3.272,15.133,3.272,29.857c0,14.721-0.41,24.028-3.272,29.754 c-2.961,5.728-8.487,7.771-18.707,7.771H285.583z M296.631,82.712c3.781,0,5.927-0.412,7.054-4.096 c0.51-1.737,0.922-4.398,1.022-7.978c0.105-3.578,0.105-8.382,0.105-14.521c0-6.135,0-10.938-0.105-14.521 c-0.101-3.474-0.513-6.135-1.022-7.976c-1.12-3.58-3.27-3.986-7.054-3.986V82.7V82.712z M349.086,80.157 c-0.302,5.42-1.938,9.199-5.517,12.167c-1.843,1.536-4.397,2.249-7.77,2.249c-6.653,0-9.919-3.686-11.556-7.364 c-0.919-2.143-1.536-4.598-1.632-7.358V51.73c0.307-5.421,1.943-9.401,5.517-12.468c1.742-1.541,4.297-2.253,7.671-2.253 c6.645,0,10.018,3.684,11.652,7.258c0.919,2.147,1.533,4.502,1.634,7.163v28.731V80.157z M339.371,51.725 c0.107-2.143-0.306-3.679-1.328-4.909c-0.513-0.512-1.331-0.818-2.25-0.818c-1.948,0-2.767,1.331-3.172,2.862 c-0.306,0.818-0.406,1.742-0.306,2.86V79.84c-0.101,2.143,0.411,3.684,1.33,4.804c0.511,0.512,1.226,0.818,2.147,0.818 c1.943,0,2.86-1.226,3.268-2.762c0.307-0.818,0.411-1.742,0.307-2.86V51.72L339.371,51.725z M355.963,18.597h10.325v10.325h-10.325 V18.597z M366.288,37.822v57.357c0,2.86,0,7.364-1.432,11.048c-1.429,3.779-4.598,6.747-10.429,6.747 c-1.632,0-2.762-0.105-3.475-0.307c-0.412-0.105-0.712-0.206-1.022-0.307v-9.507c0.305,0.101,0.61,0.101,0.917,0.201 c0.713,0.105,1.33,0.206,1.948,0.206c1.735,0,2.554-1.431,2.961-3.167c0.105-0.818,0.206-1.742,0.206-2.661 c0-0.924,0-1.742,0-2.354V37.822H366.288z M400.003,80.157c-0.302,5.42-1.943,9.199-5.517,12.167 c-1.843,1.536-4.396,2.249-7.77,2.249c-6.651,0-9.919-3.686-11.556-7.364c-0.919-2.143-1.53-4.598-1.631-7.358V51.73 c0.307-5.421,1.937-9.401,5.516-12.468c1.742-1.541,4.298-2.253,7.671-2.253c6.646,0,10.019,3.684,11.654,7.258 c0.919,2.147,1.531,4.502,1.632,7.163v28.731V80.157z M390.29,51.725c0.105-2.143-0.307-3.679-1.33-4.909 c-0.513-0.512-1.331-0.818-2.25-0.818c-1.941,0-2.767,1.331-3.172,2.862c-0.306,0.818-0.406,1.742-0.306,2.86V79.84 c-0.101,2.143,0.413,3.684,1.33,4.804c0.512,0.512,1.226,0.818,2.147,0.818c1.943,0,2.862-1.226,3.273-2.762 c0.307-0.818,0.412-1.742,0.307-2.86V51.72V51.725z"/><circle fill="#FEFEFE" cx="56.199" cy="56.429" r="55.336"/><path d="M56.432,0c31.165,0,56.429,25.264,56.429,56.429c0,31.166-25.264,56.429-56.429,56.429 c-31.166,0-56.429-25.263-56.429-56.429C0.003,25.264,25.266,0,56.432,0z M55.861,2.919c-0.264,0-0.527,0.005-0.792,0.012 C25.889,3.351,2.341,27.158,2.341,56.433c0,29.313,23.601,53.136,52.829,53.505c-14.453-0.364-26.066-12.21-26.066-26.747 c0-14.77,11.988-26.758,26.757-26.758c14.77,0,26.757-11.986,26.757-26.756S70.631,2.919,55.861,2.919z"/><path d="M47.416,34.94V14.991c0-0.87,0.316-1.625,0.955-2.258c0.634-0.634,1.388-0.956,2.265-0.956h10.398 c0.86,0,1.605,0.317,2.233,0.956c0.628,0.634,0.939,1.388,0.939,2.258V34.94c0,0.887-0.317,1.642-0.939,2.269 c-0.628,0.629-1.389,0.94-2.275,0.94H50.636c-0.898,0-1.664-0.312-2.286-0.94c-0.623-0.627-0.929-1.382-0.929-2.269H47.416z M60.913,34.818V15.155H50.752v19.663H60.913z"/><path fill="#FFF" d="M51.216,95.244h5.121V75.58h-5.036c-0.464,0-0.855-0.163-1.182-0.485 c-0.328-0.321-0.486-0.719-0.486-1.184c0-0.459,0.163-0.854,0.486-1.177c0.322-0.322,0.718-0.484,1.182-0.484h8.372v22.999h3.337 v-6.941c0-0.449,0.164-0.841,0.485-1.172c0.322-0.334,0.717-0.497,1.177-0.497c0.465,0,0.86,0.163,1.183,0.486 c0.322,0.327,0.485,0.718,0.485,1.183v8.609c0,0.465-0.164,0.86-0.485,1.188c-0.323,0.321-0.712,0.479-1.183,0.479H51.216 c-0.464,0-0.855-0.168-1.177-0.502c-0.327-0.337-0.485-0.737-0.485-1.202c0-0.449,0.164-0.835,0.485-1.156 c0.322-0.317,0.718-0.475,1.177-0.475V95.244z"/></svg><view id="coderdojo-light" viewBox="0 368 400 112.975"/><svg width="400" height="112.975" viewBox="0.003 0 400 112.975" id="coderdojo-light-" y="368"><path fill="#FFF" d="M153.955,67.994v10.325c-0.101,3.066-0.713,5.828-1.843,8.177c-0.918,2.043-2.354,3.991-4.397,5.521 c-2.042,1.632-4.803,2.556-8.482,2.556c-3.685,0-6.546-0.924-8.589-2.556c-2.042-1.53-3.372-3.479-4.291-5.521 c-1.124-2.349-1.736-5.11-1.842-8.177V34.048c0.105-2.967,0.712-5.727,1.842-8.076c0.919-2.044,2.249-4.091,4.291-5.622 c2.043-1.531,4.909-2.56,8.589-2.56c3.685,0,6.44,1.029,8.482,2.56c2.043,1.536,3.479,3.578,4.397,5.622 c1.125,2.354,1.742,5.109,1.843,8.076v10.325H143.63V34.048c0-2.043-0.513-3.479-1.637-4.703c-0.512-0.513-1.43-0.818-2.556-0.818 c-1.942,0-2.86,1.43-3.372,2.76c-0.301,0.818-0.406,1.742-0.513,2.767v44.271c0.106,2.145,0.718,3.58,1.742,4.698 c0.513,0.518,1.225,0.818,2.143,0.818c2.355,0,3.273-1.225,3.785-2.76c0.302-0.713,0.407-1.637,0.407-2.762V67.994H153.955z M186.134,80.162c-0.302,5.421-1.938,9.2-5.517,12.168c-1.843,1.535-4.397,2.248-7.771,2.248c-6.65,0-9.918-3.686-11.555-7.364 c-0.918-2.143-1.531-4.598-1.632-7.358v-28.12c0.307-5.421,1.938-9.401,5.517-12.468c1.742-1.541,4.297-2.253,7.67-2.253 c6.646,0,10.019,3.684,11.655,7.258c0.919,2.148,1.531,4.502,1.632,7.163v28.731V80.162z M176.421,51.73 c0.105-2.143-0.307-3.679-1.331-4.909c-0.511-0.512-1.329-0.818-2.248-0.818c-1.947,0-2.766,1.331-3.173,2.862 c-0.306,0.818-0.406,1.742-0.306,2.86v28.119c-0.101,2.144,0.412,3.686,1.33,4.804c0.512,0.512,1.225,0.818,2.148,0.818 c1.938,0,2.861-1.224,3.268-2.762c0.306-0.817,0.412-1.741,0.306-2.86V51.725L176.421,51.73z M219.395,93.755h-10.325v-3.686 c-1.736,1.637-3.268,2.862-5.211,3.786c-1.029,0.512-2.049,0.713-2.966,0.713c-2.861,0-4.804-1.637-6.033-3.786 c-1.331-2.042-1.938-4.804-1.938-7.153V47.946c0-2.349,0.611-5.108,1.938-7.259c1.229-2.042,3.172-3.684,6.033-3.684 c1.937,0,3.99,1.124,5.521,2.254c0.919,0.713,1.736,1.43,2.655,2.248V18.602h10.325V93.755z M209.069,50.094 c0-1.636-1.535-3.371-3.068-3.371c-1.535,0-2.76,1.43-2.76,3.371v31.388c0,1.948,1.225,3.374,2.76,3.374 c1.533,0,3.068-1.431,3.068-3.374V50.094z M253.542,73.712v6.445c-0.307,5.42-1.938,9.199-5.622,12.167 c-1.843,1.536-4.398,2.249-7.771,2.249c-6.645,0-10.019-3.686-11.654-7.364c-0.917-2.143-1.531-4.598-1.635-7.358V51.73 c0.305-5.421,2.042-9.401,5.726-12.468c1.742-1.541,4.297-2.253,7.671-2.253c6.646,0,10.018,3.684,11.654,7.258 c0.919,2.147,1.531,4.502,1.632,7.163v16.259h-17.077v12.166c0.105,2.145,0.713,3.685,1.637,4.804 c0.511,0.513,1.226,0.817,2.147,0.817c1.943,0,2.862-1.224,3.268-2.76c0.308-0.817,0.408-1.741,0.408-2.861v-6.139h9.61 L253.542,73.712z M236.465,59.6h7.465v-7.875c0-2.143-0.408-3.679-1.431-4.909c-0.513-0.512-1.331-0.818-2.25-0.818 c-1.948,0-2.767,1.331-3.272,2.862c-0.306,0.818-0.406,1.742-0.512,2.86v7.875V59.6z M281.074,48.458 c-0.917-0.306-1.937-0.406-2.86-0.406c-1.631,0-3.579,0.206-5.209,1.737c-1.948,1.637-2.255,3.373-2.255,5.108v38.857h-10.325 V37.822h10.325v6.239c0.105-0.713,0.817-2.455,2.454-4.091c1.637-1.536,4.091-2.967,7.87-2.967V48.458z M285.583,93.755V18.602 h8.693c10.22,0,15.746,2.042,18.707,7.77c2.862,5.728,3.272,15.133,3.272,29.857c0,14.721-0.41,24.028-3.272,29.754 c-2.961,5.728-8.487,7.771-18.707,7.771H285.583z M296.631,82.712c3.781,0,5.927-0.412,7.054-4.096 c0.51-1.737,0.922-4.398,1.022-7.978c0.105-3.578,0.105-8.382,0.105-14.521c0-6.135,0-10.938-0.105-14.521 c-0.101-3.474-0.513-6.135-1.022-7.976c-1.12-3.58-3.27-3.986-7.054-3.986V82.7V82.712z M349.086,80.157 c-0.302,5.42-1.938,9.199-5.517,12.167c-1.843,1.536-4.397,2.249-7.77,2.249c-6.653,0-9.919-3.686-11.556-7.364 c-0.919-2.143-1.536-4.598-1.632-7.358V51.73c0.307-5.421,1.943-9.401,5.517-12.468c1.742-1.541,4.297-2.253,7.671-2.253 c6.645,0,10.018,3.684,11.652,7.258c0.919,2.147,1.533,4.502,1.634,7.163v28.731V80.157z M339.371,51.725 c0.107-2.143-0.306-3.679-1.328-4.909c-0.513-0.512-1.331-0.818-2.25-0.818c-1.948,0-2.767,1.331-3.172,2.862 c-0.306,0.818-0.406,1.742-0.306,2.86V79.84c-0.101,2.143,0.411,3.684,1.33,4.804c0.511,0.512,1.226,0.818,2.147,0.818 c1.943,0,2.86-1.226,3.268-2.762c0.307-0.818,0.411-1.742,0.307-2.86V51.72L339.371,51.725z M355.963,18.597h10.325v10.325h-10.325 V18.597z M366.288,37.822v57.357c0,2.86,0,7.364-1.432,11.048c-1.429,3.779-4.598,6.747-10.429,6.747 c-1.632,0-2.762-0.105-3.475-0.307c-0.412-0.105-0.712-0.206-1.022-0.307v-9.507c0.305,0.101,0.61,0.101,0.917,0.201 c0.713,0.105,1.33,0.206,1.948,0.206c1.735,0,2.554-1.431,2.961-3.167c0.105-0.818,0.206-1.742,0.206-2.661 c0-0.924,0-1.742,0-2.354V37.822H366.288z M400.003,80.157c-0.302,5.42-1.943,9.199-5.517,12.167 c-1.843,1.536-4.396,2.249-7.77,2.249c-6.651,0-9.919-3.686-11.556-7.364c-0.919-2.143-1.53-4.598-1.631-7.358V51.73 c0.307-5.421,1.937-9.401,5.516-12.468c1.742-1.541,4.298-2.253,7.671-2.253c6.646,0,10.019,3.684,11.654,7.258 c0.919,2.147,1.531,4.502,1.632,7.163v28.731V80.157z M390.29,51.725c0.105-2.143-0.307-3.679-1.33-4.909 c-0.513-0.512-1.331-0.818-2.25-0.818c-1.941,0-2.767,1.331-3.172,2.862c-0.306,0.818-0.406,1.742-0.306,2.86V79.84 c-0.101,2.143,0.413,3.684,1.33,4.804c0.512,0.512,1.226,0.818,2.147,0.818c1.943,0,2.862-1.226,3.273-2.762 c0.307-0.818,0.412-1.742,0.307-2.86V51.72V51.725z"/><circle fill="#FEFEFE" cx="56.199" cy="56.429" r="55.336"/><path d="M56.432,0c31.165,0,56.429,25.264,56.429,56.429c0,31.166-25.264,56.429-56.429,56.429 c-31.166,0-56.429-25.263-56.429-56.429C0.003,25.264,25.266,0,56.432,0z M55.861,2.919c-0.264,0-0.527,0.005-0.792,0.012 C25.889,3.351,2.341,27.158,2.341,56.433c0,29.313,23.601,53.136,52.829,53.505c-14.453-0.364-26.066-12.21-26.066-26.747 c0-14.77,11.988-26.758,26.757-26.758c14.77,0,26.757-11.986,26.757-26.756S70.631,2.919,55.861,2.919z"/><path d="M47.416,34.94V14.991c0-0.87,0.316-1.625,0.955-2.258c0.634-0.634,1.388-0.956,2.265-0.956h10.398 c0.86,0,1.605,0.317,2.233,0.956c0.628,0.634,0.939,1.388,0.939,2.258V34.94c0,0.887-0.317,1.642-0.939,2.269 c-0.628,0.629-1.389,0.94-2.275,0.94H50.636c-0.898,0-1.664-0.312-2.286-0.94c-0.623-0.627-0.929-1.382-0.929-2.269H47.416z M60.913,34.818V15.155H50.752v19.663H60.913z"/><path fill="#FFF" d="M51.216,95.244h5.121V75.58h-5.036c-0.464,0-0.855-0.163-1.182-0.485 c-0.328-0.321-0.486-0.719-0.486-1.184c0-0.459,0.163-0.854,0.486-1.177c0.322-0.322,0.718-0.484,1.182-0.484h8.372v22.999h3.337 v-6.941c0-0.449,0.164-0.841,0.485-1.172c0.322-0.334,0.717-0.497,1.177-0.497c0.465,0,0.86,0.163,1.183,0.486 c0.322,0.327,0.485,0.718,0.485,1.183v8.609c0,0.465-0.164,0.86-0.485,1.188c-0.323,0.321-0.712,0.479-1.183,0.479H51.216 c-0.464,0-0.855-0.168-1.177-0.502c-0.327-0.337-0.485-0.737-0.485-1.202c0-0.449,0.164-0.835,0.485-1.156 c0.322-0.317,0.718-0.475,1.177-0.475V95.244z"/></svg><view id="facebook" viewBox="0 481 32 32"/><svg width="32" height="32" viewBox="0 0 32 32" id="facebook-" y="481"><path fill="#DDD" d="M23,7.984h-2.266c-1.776,0-2.121,0.842-2.121,2.076v2.725h4.238l-0.555,4.267h-3.688V28h-4.417V17.053H10.5 v-4.267h3.695V9.641C14.195,5.988,16.43,4,19.698,4C21.264,4,22.607,4.116,23,4.168V7.984z"/></svg><view id="facebook~hover" viewBox="0 513 32 32"/><svg width="32" height="32" viewBox="0 0 32 32" id="facebook~hover-" y="513"><path fill="#359" d="M0,0v32h32V0H0z M23,7.984h-2.266c-1.777,0-2.121,0.842-2.121,2.076v2.725h4.238l-0.554,4.267h-3.687V28 h-4.417V17.053H10.5v-4.267h3.695V9.641C14.195,5.988,16.43,4,19.699,4C21.264,4,22.607,4.116,23,4.168V7.984z"/></svg><view id="github" viewBox="0 545 32 32"/><svg width="32" height="32" viewBox="0 0 32 32" id="github-" y="545"><path fill="#DDD" d="M19.906,27.979c-0.627,0.119-0.85-0.265-0.85-0.595c0-0.403,0.017-1.735,0.017-3.384 c0-1.15-0.396-1.904-0.839-2.285c2.748-0.306,5.634-1.348,5.634-6.087c0-1.346-0.479-2.447-1.269-3.31 c0.127-0.313,0.551-1.566-0.123-3.265c0,0-1.033-0.332-3.389,1.265c-0.984-0.274-2.04-0.411-3.088-0.416 c-1.048,0.005-2.104,0.142-3.088,0.416c-2.357-1.597-3.393-1.265-3.393-1.265c-0.67,1.699-0.247,2.952-0.12,3.265 c-0.79,0.863-1.271,1.964-1.271,3.31c0,4.728,2.88,5.786,5.619,6.097c-0.353,0.31-0.67,0.854-0.782,1.649 c-0.704,0.313-2.491,0.86-3.591-1.024c0,0-0.651-1.184-1.889-1.271c0,0-1.206-0.016-0.085,0.751c0,0,0.809,0.379,1.37,1.803 c0,0,0.724,2.399,4.155,1.654c0.006,1.028,0.016,1.806,0.016,2.099c0,0.327-0.225,0.708-0.841,0.596 c-4.903-1.633-8.437-6.256-8.437-11.706c0-6.814,5.523-12.337,12.336-12.337c6.813,0,12.337,5.523,12.337,12.337 C28.336,21.723,24.805,26.342,19.906,27.979z"/></svg><view id="github~hover" viewBox="0 577 32 32"/><svg width="32" height="32" viewBox="0 0 32 32" id="github~hover-" y="577"><path d="M0,0v32h32V0H0z M19.906,27.978c-0.627,0.12-0.85-0.264-0.85-0.594c0-0.404,0.017-1.735,0.017-3.384 c0-1.15-0.395-1.904-0.838-2.285c2.748-0.306,5.633-1.348,5.633-6.087c0-1.346-0.479-2.447-1.269-3.31 c0.128-0.313,0.551-1.566-0.123-3.265c0,0-1.033-0.332-3.388,1.265C18.103,10.044,17.048,9.907,16,9.902 c-1.048,0.005-2.104,0.142-3.088,0.416c-2.357-1.597-3.393-1.265-3.393-1.265c-0.67,1.699-0.247,2.952-0.12,3.265 c-0.79,0.863-1.271,1.964-1.271,3.31c0,4.728,2.88,5.786,5.619,6.097c-0.353,0.309-0.67,0.853-0.782,1.649 c-0.704,0.314-2.491,0.86-3.591-1.024c0,0-0.651-1.184-1.889-1.272c0,0-1.206-0.015-0.085,0.751c0,0,0.809,0.379,1.37,1.803 c0,0,0.724,2.399,4.155,1.654c0.006,1.029,0.016,1.806,0.016,2.099c0,0.327-0.225,0.708-0.841,0.595 c-4.903-1.632-8.437-6.256-8.437-11.705c0-6.814,5.523-12.337,12.336-12.337c6.813,0,12.337,5.523,12.337,12.337 C28.336,21.722,24.804,26.342,19.906,27.978z"/></svg><view id="googleplus" viewBox="0 609 32 32"/><svg width="32" height="32" viewBox="0 0 32 32" id="googleplus-" y="609"><g fill="#DDD"><path d="M12 15v2.4h3.97c-.16 1.029-1.199 3.02-3.97 3.02-2.39 0-4.34-1.98-4.34-4.42s1.95-4.42 4.34-4.42c1.36 0 2.271.58 2.79 1.08l1.9-1.83C15.47 9.689 13.89 9 12 9c-3.87 0-7 3.13-7 7s3.13 7 7 7c4.04 0 6.72-2.84 6.72-6.84 0-.46-.05-.811-.109-1.16H12L12 15zM27 15h-2v-2h-2v2h-2v2h2v2h2v-2h2"/></g></svg><view id="googleplus~hover" viewBox="0 641 32 32"/><svg width="32" height="32" viewBox="0 0 32 32" id="googleplus~hover-" y="641"><path fill="#D43" d="M0,0v32h32V0H0z M12,23c-3.87,0-7-3.13-7-7s3.13-7,7-7c1.89,0,3.47,0.689,4.69,1.83l-1.9,1.83 c-0.52-0.5-1.43-1.08-2.79-1.08c-2.39,0-4.34,1.98-4.34,4.42s1.95,4.42,4.34,4.42c2.771,0,3.81-1.99,3.97-3.02H12V15h6.61 c0.06,0.35,0.109,0.7,0.109,1.16C18.72,20.16,16.04,23,12,23z M27,17h-2v2h-2v-2h-2v-2h2v-2h2v2h2V17z"/></svg><view id="location" viewBox="0 673 54 96"/><svg width="54" height="96" viewBox="0 0 54 96" id="location-" y="673"><path fill="#bbb" d="M27,5C12.157,5,0.125,17.032,0.125,31.875C0.125,58.75,27,91,27,91s26.875-32.25,26.875-59.125 C53.875,17.032,41.846,5,27,5 M27,48.001c-8.905,0-16.124-7.22-16.124-16.125c0-8.906,7.219-16.125,16.124-16.125 c8.908,0,16.126,7.219,16.126,16.125C43.126,40.782,35.908,48.001,27,48.001"/></svg><view id="location~hover" viewBox="0 769 54 96"/><svg width="54" height="96" viewBox="0 0 54 96" id="location~hover-" y="769"><path fill="#fb7064" d="M27,5C12.157,5,0.125,17.032,0.125,31.875C0.125,58.75,27,91,27,91s26.875-32.25,26.875-59.125 C53.875,17.032,41.846,5,27,5 M27,48.001c-8.905,0-16.124-7.22-16.124-16.125c0-8.906,7.219-16.125,16.124-16.125 c8.908,0,16.126,7.219,16.126,16.125C43.126,40.782,35.908,48.001,27,48.001"/></svg><view id="tollwerk" viewBox="0 865 324 86"/><svg width="324" height="86" viewBox="0 0 324 86" id="tollwerk-" y="865"><path fill="#00285A" d="M323.535,70.678h-12.145l-8.15-13.262l-4.419,5.01v8.252h-10.537V17.931h10.537v31.788l11.522-14.384 h12.465l-13.116,14.812L323.535,70.678z M235.523,64c-5.229,0-7.962-2.629-8.595-8.252h17.389v-7.375h-4.356h-12.846 c0.791-3.945,2.842-5.65,6.833-5.65l10.369,0.003v-0.004v-7.388h-10.095l-1.04,0.041c-10.388,0.426-15.882,6.57-15.882,17.867 c0,11.854,6.053,18.381,17.041,18.381c4.655,0,9.065-0.945,13.477-2.887l-2.351-6.834C241.8,63.289,238.456,64,235.523,64z M273.33,44.785c0.543-0.047,1.063-0.037,1.566,0.014c1.178,0.119,2.244,0.482,3.178,1.006l3.189-9.273 c-1.076-0.666-2.139-1.15-3.179-1.473c-0.038-0.012-0.077-0.025-0.115-0.037c-3.798-1.135-7.288-0.113-9.964,2.02 c-1.402,1.004-2.827,2.354-4.357,4.102l-0.497,0.568v-6.377h-10.458v35.343h10.537V52.057l0.046-0.07 c1.083-1.656,2.159-2.996,3.267-4.057C269.002,45.893,271.295,44.963,273.33,44.785z M201.435,56.951l-8.32-21.617h-7.245 l-7.904,21.675l-4.807-21.675h-10.894l10.153,35.343h7.863l8.934-21.889l8.853,21.889h7.783l9.766-35.343h-10.103L201.435,56.951z M268.408,58.547l7.656,12.137h12.149l-11.42-15.939L268.408,58.547z M85.605,43c0,23.512-19.06,42.571-42.571,42.571 C19.523,85.57,0.464,66.512,0.464,43c0-1.247,0.065-2.479,0.17-3.7l16.484-18.338l-5.721-6.44c1.519-1.686,3.172-3.245,4.939-4.671 l8.021,11.437L12.727,37.548l6.162,4.827l19.389-21.413L23.882,4.983c5.759-2.906,12.261-4.554,19.152-4.554 C66.546,0.429,85.605,19.489,85.605,43z M71.923,33.543H55.495H44.294h-9.485v9.914h9.485v6.408c0,14.307,2.837,22.059,17.8,22.059 c2.36,0,4.598-0.154,6.652-0.459l-0.627-8.904c-0.841,0.127-2.077,0.127-3.73,0.127c-6.566,0-8.894-3.355-8.894-12.822v-6.408 h16.428V33.543z M124.383,52.297c0,12.102-6.9,19.326-18.459,19.326c-11.065,0-17.671-6.93-17.671-18.537 c0-11.659,6.93-18.619,18.537-18.619C117.806,34.467,124.383,41.133,124.383,52.297z M113.61,52.85 c0-6.93-2.48-10.443-7.372-10.443c-4.734,0-7.135,3.46-7.135,10.285c0,7.242,2.507,10.914,7.45,10.914 C111.236,63.605,113.61,59.986,113.61,52.85z M147.511,56.031h10.537v-38.1h-10.537V56.031z M129.49,70.678h10.536V17.931H129.49 V70.678z"/></svg><view id="twitter" viewBox="0 951 32 32"/><svg width="32" height="32" viewBox="0 0 32 32" id="twitter-" y="951"><path fill="#DDD" d="M24.551,11.616c0.006,0.19,0.012,0.38,0.012,0.571c0,5.829-4.436,12.549-12.55,12.549 c-2.49,0-4.809-0.729-6.761-1.982c0.345,0.041,0.696,0.061,1.052,0.061c2.067,0,3.969-0.7,5.479-1.887 c-1.931-0.033-3.56-1.309-4.122-3.063c0.27,0.053,0.546,0.078,0.83,0.078c0.402,0,0.793-0.053,1.164-0.152 c-2.018-0.407-3.539-2.189-3.539-4.326c0-0.018,0-0.037,0.001-0.058c0.594,0.333,1.272,0.53,1.995,0.553 C6.93,13.17,6.15,11.818,6.15,10.289c0-0.809,0.219-1.566,0.597-2.219c2.176,2.67,5.427,4.426,9.092,4.609 c-0.073-0.322-0.114-0.658-0.114-1.006c0-2.435,1.975-4.41,4.412-4.41c1.271,0,2.414,0.536,3.219,1.394 c1.006-0.198,1.949-0.565,2.802-1.071c-0.329,1.03-1.029,1.895-1.938,2.441c0.891-0.107,1.742-0.344,2.532-0.695 C26.158,10.217,25.412,10.993,24.551,11.616z"/></svg><view id="twitter~hover" viewBox="0 983 32 32"/><svg width="32" height="32" viewBox="0 0 32 32" id="twitter~hover-" y="983"><path fill="#3AD" d="M0,0v32h32V0H0z M24.549,11.616c0.006,0.19,0.012,0.38,0.012,0.571c0,5.828-4.436,12.549-12.549,12.549 c-2.492,0-4.811-0.729-6.763-1.982c0.345,0.041,0.696,0.061,1.053,0.061c2.067,0,3.97-0.701,5.478-1.887 c-1.93-0.035-3.559-1.309-4.12-3.063c0.271,0.053,0.546,0.078,0.829,0.078c0.404,0,0.794-0.053,1.164-0.152 c-2.018-0.407-3.539-2.189-3.539-4.326c0-0.018,0-0.037,0-0.058c0.595,0.333,1.275,0.53,1.998,0.553 c-1.184-0.79-1.963-2.142-1.963-3.671c0-0.809,0.219-1.566,0.598-2.219c2.176,2.67,5.428,4.426,9.092,4.609 c-0.074-0.322-0.113-0.658-0.113-1.006c0-2.435,1.975-4.41,4.412-4.41c1.27,0,2.414,0.536,3.219,1.394 c1.006-0.198,1.949-0.565,2.801-1.071c-0.329,1.03-1.029,1.895-1.938,2.441c0.89-0.107,1.742-0.344,2.532-0.695 C26.158,10.217,25.412,10.993,24.549,11.616z"/></svg></svg>