<?xml version="1.0" encoding="utf-8"?><!DOCTYPE svg PUBLIC "-//W3C//DTD SVG 1.1//EN" "http://www.w3.org/Graphics/SVG/1.1/DTD/svg11.dtd"><svg width="420.055" height="1432" viewBox="0 0 420.055 1432" xmlns="http://www.w3.org/2000/svg" xmlns:xlink="http://www.w3.org/1999/xlink"><view id="coderdojo-button" viewBox="0 0 255 255"/><svg width="255" height="255" viewBox="0 0 255 255" id="coderdojo-button-"><circle fill="#FFF" cx="127.5" cy="127.514" r="127.5"/><path d="M104.743,78.106V32.378c0-2.002,0.728-3.731,2.184-5.188c1.456-1.456,3.185-2.183,5.187-2.183h23.842 c1.972,0,3.678,0.728,5.119,2.183c1.44,1.457,2.162,3.186,2.162,5.188v45.728c0,2.033-0.721,3.77-2.162,5.21 c-1.441,1.441-3.178,2.161-5.209,2.161h-23.751c-2.063,0-3.807-0.72-5.232-2.161C105.455,81.875,104.743,80.138,104.743,78.106z M135.683,77.833V32.742h-23.296v45.091H135.683z"/><path d="M218.181,37.896c-23.721-24.001-55.341-37.455-89.035-37.882c-0.06,0.001-0.115,0.026-0.173,0.037 c-0.492-0.011-0.979-0.037-1.474-0.037c-0.635,0-1.269,0.009-1.886,0.026C91.971,0.529,60.408,14.01,36.74,37.999 C13.048,62.013,0,93.803,0,127.514c0,33.751,13.076,65.569,36.819,89.591c23.721,24.002,55.34,37.454,89.035,37.882 c0.004,0,0.009,0,0.013,0c0.065,0,0.123-0.025,0.185-0.036c0.483,0.01,0.963,0.036,1.449,0.036c0.635,0,1.269-0.008,1.886-0.025 c33.643-0.488,65.206-13.969,88.874-37.959c23.692-24.015,36.74-55.805,36.74-89.515C255,93.736,241.925,61.919,218.181,37.896z M148.115,220.189c0,1.062-0.372,1.964-1.114,2.707c-0.744,0.743-1.647,1.114-2.708,1.114h-30.849c-1.063,0-1.965-0.387-2.708-1.16 c-0.744-0.773-1.115-1.69-1.115-2.753c0-1.03,0.371-1.91,1.115-2.638c0.743-0.729,1.645-1.093,2.708-1.093h11.739v-45.091h-11.557 c-1.062,0-1.964-0.371-2.708-1.114c-0.744-0.743-1.114-1.646-1.114-2.708c0-1.061,0.371-1.964,1.114-2.708 c0.743-0.743,1.646-1.114,2.708-1.114h19.201v52.734h7.644v-15.925c0-1.031,0.371-1.926,1.115-2.685 c0.743-0.758,1.645-1.138,2.707-1.138c1.061,0,1.964,0.372,2.708,1.115c0.742,0.744,1.114,1.646,1.114,2.707V220.189z M127.5,126.495c-35.425,0-64.246,28.821-64.246,64.247c0,0.004,0,0.009,0,0.013c0,0.004,0,0.009,0,0.013 c0,1.088,0.029,2.172,0.083,3.251c0.005,0.105,0.017,0.208,0.022,0.314c0.054,0.985,0.126,1.967,0.225,2.943 c0.007,0.068,0.017,0.136,0.024,0.204c1.487,14.346,7.715,27.703,17.926,38.159c6.726,6.887,14.747,12.082,23.522,15.349 C46.618,240.317,1.984,188.748,1.984,127.514c0-68.205,55.473-124.5,123.672-125.49c0.612-0.017,1.227-0.026,1.843-0.026 c2.125,0,4.225,0.108,6.295,0.317c0.041,0.004,0.082,0.008,0.122,0.013c0.935,0.096,1.863,0.217,2.784,0.354 c0.176,0.027,0.353,0.053,0.528,0.081c0.75,0.118,1.494,0.255,2.235,0.4c0.37,0.073,0.74,0.146,1.107,0.227 c0.512,0.11,1.021,0.231,1.527,0.354c0.606,0.148,1.211,0.299,1.81,0.465c0.237,0.064,0.472,0.133,0.708,0.201 c24.984,7.252,43.701,29.933,45.065,56.689c0.052,1.043,0.08,2.092,0.08,3.147C189.755,98.572,161.827,126.495,127.5,126.495z"/></svg><view id="coderdojo-dark-horizontal" viewBox="0 255 400 119.259"/><svg width="400" height="119.259" viewBox="0 0 400 119.259" id="coderdojo-dark-horizontal-" y="255"><path fill-rule="evenodd" clip-rule="evenodd" d="M156.4,49.72v10.214c-0.104,3.037-0.695,5.768-1.817,8.089 c-0.917,2.025-2.332,3.95-4.358,5.478c-2.028,1.608-4.747,2.51-8.399,2.51c-3.64,0-6.473-0.901-8.501-2.51 c-2.026-1.527-3.337-3.452-4.246-5.478c-1.11-2.321-1.715-5.053-1.825-8.089V16.106c0.11-2.945,0.715-5.679,1.825-8.007 c0.909-2.016,2.219-4.044,4.246-5.569c2.028-1.499,4.861-2.53,8.501-2.53c3.653,0,6.371,1.031,8.399,2.53 c2.026,1.525,3.441,3.553,4.358,5.569c1.123,2.329,1.713,5.063,1.817,8.007v10.214h-10.217V16.106c0-2.029-0.504-3.449-1.624-4.658 c-0.506-0.507-1.41-0.82-2.533-0.82c-1.914,0-2.833,1.423-3.337,2.744c-0.303,0.796-0.405,1.713-0.504,2.733v43.827 c0.099,2.118,0.705,3.553,1.723,4.658c0.507,0.51,1.222,0.8,2.118,0.8c2.329,0,3.238-1.212,3.752-2.733 c0.292-0.695,0.405-1.614,0.405-2.724V49.72H156.4L156.4,49.72z M188.265,61.739c-0.303,5.388-1.927,9.13-5.478,12.052 c-1.814,1.527-4.347,2.22-7.684,2.22c-6.584,0-9.825-3.641-11.446-7.295c-0.909-2.093-1.514-4.536-1.604-7.257V33.613 c0.293-5.365,1.917-9.318,5.457-12.342c1.723-1.525,4.243-2.24,7.593-2.24c6.577,0,9.924,3.64,11.535,7.19 c0.909,2.128,1.525,4.447,1.626,7.079V61.739L188.265,61.739z M178.644,33.613c0.099-2.125-0.303-3.65-1.321-4.849 c-0.506-0.517-1.311-0.83-2.219-0.83c-1.939,0-2.734,1.333-3.136,2.858c-0.303,0.794-0.402,1.713-0.303,2.82v27.846 c-0.1,2.115,0.402,3.643,1.311,4.747c0.501,0.52,1.211,0.794,2.128,0.794c1.917,0,2.835-1.196,3.238-2.719 c0.303-0.794,0.402-1.713,0.303-2.822V33.613L178.644,33.613z M221.188,75.226h-10.232v-3.65c-1.711,1.609-3.237,2.82-5.151,3.742 c-1.019,0.509-2.026,0.692-2.936,0.692c-2.833,0-4.759-1.614-5.979-3.742c-1.311-2.031-1.917-4.749-1.917-7.065V29.874 c0-2.342,0.606-5.075,1.917-7.203c1.219-2.026,3.146-3.64,5.979-3.64c1.917,0,3.943,1.107,5.465,2.24 c0.911,0.705,1.716,1.4,2.622,2.227V0.817h10.232V75.226L221.188,75.226z M210.956,31.989c0-1.614-1.522-3.327-3.021-3.327 c-1.524,0-2.736,1.4-2.736,3.327V63.07c0,1.903,1.212,3.339,2.736,3.339c1.499,0,3.021-1.436,3.021-3.339V31.989L210.956,31.989z M254.975,55.365v6.374c-0.285,5.388-1.93,9.13-5.56,12.052c-1.812,1.527-4.357,2.22-7.691,2.22c-6.567,0-9.917-3.641-11.546-7.295 c-0.896-2.093-1.517-4.536-1.613-7.257V33.613c0.315-5.365,2.021-9.318,5.666-12.342c1.735-1.525,4.261-2.24,7.595-2.24 c6.593,0,9.927,3.64,11.535,7.19c0.916,2.128,1.527,4.447,1.614,7.079v16.106h-16.896v12.052c0.107,2.115,0.718,3.643,1.635,4.747 c0.504,0.52,1.196,0.794,2.112,0.794c1.93,0,2.841-1.196,3.232-2.719c0.306-0.794,0.423-1.713,0.423-2.822v-6.093H254.975 L254.975,55.365z M238.078,41.409h7.402v-7.796c0-2.125-0.423-3.65-1.421-4.849c-0.519-0.517-1.328-0.83-2.234-0.83 c-1.914,0-2.733,1.333-3.237,2.858c-0.306,0.794-0.402,1.713-0.51,2.82V41.409L238.078,41.409z M282.239,30.375 c-0.891-0.313-1.903-0.413-2.82-0.413c-1.639,0-3.568,0.224-5.177,1.713c-1.925,1.624-2.22,3.36-2.22,5.073v38.478H261.78v-55.38 h10.242v6.185c0.092-0.728,0.81-2.444,2.418-4.055c1.634-1.525,4.053-2.945,7.799-2.945V30.375L282.239,30.375z M286.693,75.226 V0.817h8.608c10.146,0,15.607,2.016,18.545,7.684c2.8,5.668,3.232,14.997,3.232,29.559c0,14.584-0.433,23.781-3.232,29.459 c-2.938,5.666-8.399,7.707-18.545,7.707H286.693L286.693,75.226z M297.648,64.281c3.747,0,5.875-0.417,6.969-4.054 c0.515-1.713,0.917-4.347,1.028-7.896c0.097-3.528,0.097-8.288,0.097-14.371c0-6.061,0-10.82-0.097-14.374 c-0.111-3.449-0.514-6.081-1.028-7.896c-1.094-3.548-3.222-3.93-6.969-3.93V64.281L297.648,64.281z M349.577,61.739 c-0.336,5.388-1.929,9.13-5.462,12.052c-1.822,1.527-4.348,2.22-7.717,2.22c-6.557,0-9.805-3.641-11.438-7.295 c-0.896-2.093-1.507-4.536-1.589-7.257V33.613c0.285-5.365,1.925-9.318,5.442-12.342c1.746-1.525,4.25-2.24,7.585-2.24 c6.592,0,9.946,3.64,11.545,7.19c0.916,2.128,1.537,4.447,1.634,7.079V61.739L349.577,61.739z M339.967,33.613 c0.117-2.125-0.336-3.65-1.344-4.849c-0.499-0.517-1.299-0.83-2.225-0.83c-1.895,0-2.703,1.333-3.136,2.858 c-0.285,0.794-0.397,1.713-0.285,2.82v27.846c-0.112,2.115,0.401,3.643,1.298,4.747c0.534,0.52,1.212,0.794,2.123,0.794 c1.929,0,2.855-1.196,3.232-2.719c0.336-0.794,0.453-1.713,0.336-2.822V33.613L339.967,33.613z M356.384,0.817h10.201v10.214 h-10.201V0.817L356.384,0.817z M366.585,19.846v56.765c0,2.846,0,7.305-1.39,10.955c-1.42,3.741-4.556,6.679-10.354,6.679 c-1.593,0-2.688-0.092-3.421-0.316c-0.392-0.091-0.728-0.198-1.013-0.29v-9.407c0.285,0.087,0.621,0.087,0.916,0.179 c0.718,0.111,1.293,0.219,1.925,0.219c1.705,0,2.504-1.431,2.957-3.131c0.097-0.83,0.179-1.751,0.179-2.647c0-0.916,0-1.726,0-2.331 V19.846H366.585L366.585,19.846z M400,61.739c-0.336,5.388-1.925,9.13-5.503,12.052c-1.782,1.527-4.348,2.22-7.661,2.22 c-6.593,0-9.82-3.641-11.454-7.295c-0.916-2.093-1.502-4.536-1.608-7.257V33.613c0.285-5.365,1.903-9.318,5.462-12.342 c1.746-1.525,4.261-2.24,7.601-2.24c6.557,0,9.87,3.64,11.535,7.19c0.911,2.128,1.491,4.447,1.629,7.079V61.739L400,61.739z M390.348,33.613c0.138-2.125-0.295-3.65-1.303-4.849c-0.483-0.517-1.318-0.83-2.209-0.83c-1.95,0-2.719,1.333-3.162,2.858 c-0.295,0.794-0.387,1.713-0.295,2.82v27.846c-0.092,2.115,0.402,3.643,1.318,4.747c0.515,0.52,1.212,0.794,2.139,0.794 c1.924,0,2.84-1.196,3.217-2.719c0.295-0.794,0.433-1.713,0.295-2.822V33.613L390.348,33.613z"/><path fill="#FEFEFE" d="M50.786,94.463c-0.469,0-0.848,0.152-1.171,0.474c-0.326,0.305-0.489,0.697-0.489,1.13 c0,0.453,0.163,0.865,0.489,1.191c0.323,0.325,0.702,0.498,1.171,0.498h13.337c0.466,0,0.845-0.152,1.181-0.479 c0.326-0.325,0.476-0.712,0.476-1.17v-8.537c0-0.479-0.15-0.865-0.476-1.191c-0.336-0.326-0.715-0.479-1.181-0.479 s-0.845,0.173-1.17,0.499c-0.326,0.325-0.486,0.718-0.486,1.171v6.893H59.16V71.642h-8.3c-0.466,0-0.845,0.152-1.168,0.479 c-0.336,0.326-0.489,0.713-0.489,1.171c0,0.474,0.153,0.845,0.489,1.171c0.323,0.346,0.703,0.499,1.168,0.499h5.006v19.502H50.786z"/><path d="M55.963,0C25.05,0,0,25.074,0,55.976s25.061,55.953,55.963,55.953c30.915,0,55.966-25.051,55.966-55.953 C111.929,25.051,86.865,0,55.963,0z M65.78,96.108c0,0.458-0.15,0.845-0.476,1.17c-0.336,0.326-0.715,0.479-1.181,0.479H50.786 c-0.469,0-0.848-0.173-1.171-0.498c-0.326-0.326-0.489-0.738-0.489-1.191c0-0.433,0.163-0.825,0.489-1.13 c0.323-0.321,0.702-0.474,1.171-0.474h5.08V74.961H50.86c-0.466,0-0.845-0.153-1.168-0.499c-0.336-0.326-0.489-0.697-0.489-1.171 c0-0.458,0.153-0.845,0.489-1.171c0.323-0.326,0.703-0.479,1.168-0.479h8.3v22.821h3.306v-6.893c0-0.453,0.16-0.846,0.486-1.171 c0.326-0.326,0.705-0.499,1.17-0.499s0.845,0.152,1.181,0.479c0.326,0.326,0.476,0.713,0.476,1.191V96.108z M55.39,55.976 c-14.638,0-26.537,11.874-26.537,26.524c0,14.411,11.541,26.155,25.865,26.527c-28.973-0.372-52.39-23.992-52.39-53.052 c0-29.04,23.351-52.639,52.293-53.062c0.26-0.02,0.509-0.02,0.779-0.02l-0.01,0.02c14.628,0,26.525,11.866,26.525,26.537 C81.915,44.079,70.039,55.976,55.39,55.976z"/><path fill="#FEFEFE" d="M50.34 15.04H60.407000000000004V34.542H50.34z"/><path fill="#FEFEFE" d="M55.39,2.914l0.01-0.02c-0.27,0-0.519,0-0.779,0.02C25.679,3.337,2.329,26.937,2.329,55.976 c0,29.06,23.417,52.68,52.39,53.052C40.394,108.656,28.853,96.912,28.853,82.5c0-14.65,11.899-26.524,26.537-26.524 c14.648,0,26.525-11.897,26.525-26.525C81.915,14.78,70.018,2.914,55.39,2.914z M63.701,34.651c0,0.888-0.303,1.647-0.942,2.252 c-0.608,0.629-1.367,0.955-2.245,0.955H50.244c-0.888,0-1.659-0.326-2.265-0.955c-0.619-0.605-0.932-1.364-0.932-2.252h-0.01 V14.887c0-0.865,0.303-1.624,0.942-2.232c0.629-0.629,1.377-0.952,2.242-0.952h10.327c0.845,0,1.604,0.323,2.211,0.952 c0.616,0.628,0.942,1.387,0.942,2.232V34.651z"/><path d="M60.547,11.703H50.221c-0.865,0-1.613,0.323-2.242,0.952c-0.639,0.608-0.942,1.367-0.942,2.232v19.764h0.01 c0,0.888,0.313,1.647,0.932,2.252c0.606,0.629,1.377,0.955,2.265,0.955h10.271c0.878,0,1.637-0.326,2.245-0.955 c0.639-0.605,0.942-1.364,0.942-2.252V14.887c0-0.845-0.326-1.604-0.942-2.232C62.151,12.026,61.392,11.703,60.547,11.703z M60.407,34.542H50.34V15.04h10.067V34.542z"/><g><path d="M133.197 97.243l-.336-1.277h-.239v15.842h-3.759V83.875h3.652l3.986 14.56.346 1.282h.229V83.875h3.76v27.933h-3.64L133.197 97.243zM149.808 91.027h3.846v20.78h-3.846v-1.736c-.077.025-.229.179-.413.372-.456.453-.985.997-1.68 1.364-.336.193-.682.305-1.028.305-1.018 0-1.746-.61-2.199-1.409-.456-.759-.685-1.777-.685-2.643V91.027h3.835v16.448c0 .799.456.905.921.905.413 0 .639-.213.912-.473.106-.133.226-.306.336-.499V91.027zM144.335 83.875h3.543v3.727h-3.543V83.875zM149.698 83.875h3.533v3.727h-3.533V83.875zM164.37 94.967c-.346-.107-.715-.147-1.062-.147-.606 0-1.333.086-1.939.646-.726.605-.835 1.257-.835 1.909v14.432h-3.846v-20.78h3.846v2.316c.033-.28.303-.911.911-1.537.606-.565 1.517-1.085 2.925-1.085V94.967zM169.885 111.807h-3.846v-20.78h3.846v1.731c.076-.021.227-.174.456-.413.422-.412.985-.997 1.667-1.364.349-.193.652-.26.998-.26 1.018 0 1.743.606 2.199 1.364.456.805.682 1.823.682 2.688v17.033h-3.835V95.359c0-.804-.453-.911-.909-.911-.422 0-.652.219-.911.479-.12.153-.227.301-.346.499V111.807zM178.857 83.875h3.835v8.517c.649-.605 1.225-1.063 1.983-1.41.336-.193.726-.26 1.062-.26 1.062 0 1.787.606 2.286 1.364.456.805.682 1.823.682 2.688v13.286c0 .865-.227 1.884-.682 2.643-.499.799-1.224 1.409-2.286 1.409-.726 0-1.484-.412-2.049-.824-.346-.26-.649-.545-.996-.845v1.364h-3.835V83.875zM182.693 107.255c0 .718.573 1.258 1.148 1.258.563 0 1.018-.54 1.018-1.258V95.578c0-.718-.456-1.257-1.018-1.257-.575 0-1.148.646-1.148 1.257V107.255zM201.21 104.354v2.403c-.109 2.016-.715 3.426-2.103 4.53-.672.565-1.624.824-2.871.824-2.481 0-3.726-1.369-4.345-2.733-.336-.799-.563-1.71-.605-2.729V96.184c.117-2.017.769-3.492 2.133-4.638.651-.565 1.593-.825 2.851-.825 2.469 0 3.727 1.364 4.335 2.688.323.799.583 1.67.605 2.662v6.048h-6.351v4.53c.043.8.262 1.364.608 1.776.193.193.456.306.802.306.726 0 1.062-.458 1.214-1.023.117-.3.16-.646.16-1.059v-2.296H201.21zM194.859 99.106h2.785v-2.922c0-.805-.16-1.364-.54-1.822-.186-.194-.489-.301-.835-.301-.725 0-1.031.494-1.214 1.059-.12.306-.153.652-.196 1.064V99.106zM211.435 94.967c-.347-.107-.713-.147-1.059-.147-.611 0-1.345.086-1.95.646-.713.605-.824 1.257-.824 1.909v14.432h-3.854v-20.78h3.854v2.316c.046-.28.305-.911.911-1.537.605-.565 1.517-1.085 2.922-1.085V94.967zM222.512 101.773c-.133 1.95-.825 3.314-2.128 4.332-.692.545-1.649.805-2.811.805-.132 0-.244 0-.355 0-.123 0-.255 0-.388-.046-.346.306-.519.611-.519.957 0 .453.366.713.937.886.58.173 1.272.285 1.965.412 1.212.153 2.515.458 3.604 1.171 1.018.738 1.73 1.822 1.73 3.66 0 2.017-.865 3.386-2.077 4.185-1.263.805-2.952 1.125-4.51 1.125-1.823-.041-3.381-.3-4.419-.906-1.13-.61-1.741-1.604-1.741-3.12 0-.718.397-1.323.957-1.863.561-.524 1.344-.957 2.057-1.283-1.231-.346-2.321-1.145-2.321-2.774 0-.605.356-1.231.805-1.797.458-.564 1.018-1.018 1.588-1.323-1.089-.733-1.629-1.863-1.894-2.815-.143-.564-.274-1.15-.295-1.71v-5.682c.152-1.924.753-3.334 2.097-4.438.652-.565 1.578-.825 2.779-.825 1.925 0 3.116.866 3.809 1.884.285-.26.732-.713 1.344-1.125.56-.433 1.211-.759 1.822-.759v3.427c-1.019 0-1.782.173-2.25.453.041.173.081.366.122.479 0 .147 0 .3.051.433.041.106.041.26.041.366V101.773zM216.963 112.758c-.825.459-1.436 1.044-1.436 1.823 0 .799.743 1.45 2.515 1.45.651 0 1.395-.106 1.955-.346.56-.219.997-.565.997-1.064 0-.346-.04-.605-.305-.865-.306-.26-.825-.453-1.782-.605L216.963 112.758zM218.734 96.138c0-.713-.173-1.171-.448-1.583-.152-.193-.366-.301-.713-.301-.61 0-.916.499-1.048.952-.082.26-.122.605-.082.932v5.722c-.04.718.082 1.171.428 1.563.153.174.377.301.702.301.642 0 .906-.453 1.039-.911.081-.28.122-.626.122-.952V96.138z"/></g></svg><view id="coderdojo-dark-vertical" viewBox="0 375 420.055 500"/><svg width="420.055" height="500" viewBox="0 0 420.055 500" id="coderdojo-dark-vertical-" y="375"><path d="M44.883,351.186v15.761c-0.131,4.674-1.091,8.861-2.796,12.486c-1.396,3.1-3.578,6.071-6.721,8.426 c-3.101,2.49-7.338,3.889-12.925,3.889c-5.634,0-9.999-1.398-13.1-3.889c-3.1-2.354-5.151-5.282-6.55-8.426 c-1.701-3.578-2.661-7.77-2.792-12.486v-67.497c0.175-4.542,1.091-8.733,2.792-12.314c1.398-3.101,3.406-6.243,6.55-8.559 c3.101-2.354,7.466-3.885,13.1-3.885c5.632,0,9.824,1.573,12.925,3.885c3.096,2.358,5.279,5.458,6.721,8.559 c1.705,3.581,2.665,7.772,2.796,12.314v15.76H29.119v-15.76c0-3.101-0.784-5.284-2.486-7.163c-0.788-0.785-2.184-1.265-3.888-1.265 c-2.969,0-4.364,2.181-5.151,4.189c-0.478,1.266-0.61,2.665-0.786,4.238v67.497c0.176,3.274,1.093,5.458,2.666,7.16 c0.784,0.785,1.875,1.267,3.271,1.267c3.581,0,4.979-1.877,5.765-4.192c0.48-1.091,0.609-2.486,0.609-4.19v-15.761h15.764V351.186z M93.956,369.74c-0.481,8.251-2.969,14.016-8.426,18.557c-2.794,2.357-6.725,3.404-11.833,3.404 c-10.128,0-15.105-5.63-17.638-11.22c-1.398-3.274-2.357-7.028-2.489-11.22v-42.875c0.48-8.252,2.968-14.321,8.426-18.993 c2.665-2.358,6.55-3.45,11.701-3.45c10.131,0,15.282,5.633,17.769,11.092c1.398,3.274,2.358,6.853,2.49,10.915V369.74z M79.155,326.387c0.175-3.275-0.482-5.59-2.009-7.467c-0.785-0.785-2.008-1.267-3.406-1.267c-2.969,0-4.235,2.009-4.846,4.366 c-0.48,1.267-0.608,2.664-0.48,4.367v42.875c-0.128,3.274,0.613,5.63,2.009,7.335c0.787,0.784,1.88,1.267,3.274,1.267 c2.971,0,4.367-1.881,4.976-4.192c0.482-1.267,0.614-2.664,0.482-4.366V326.387z M144.691,390.48h-15.765v-5.633 c-2.661,2.49-4.976,4.366-7.944,5.762c-1.572,0.788-3.143,1.092-4.542,1.092c-4.365,0-7.333-2.487-9.21-5.762 c-2.009-3.101-2.972-7.335-2.972-10.916v-54.398c0-3.582,0.92-7.773,2.972-11.049c1.877-3.1,4.845-5.633,9.21-5.633 c2.97,0,6.069,1.705,8.428,3.45c1.397,1.091,2.664,2.183,4.059,3.406v-34.929h15.765V390.48z M128.927,323.896 c0-2.487-2.354-5.151-4.669-5.151c-2.358,0-4.192,2.183-4.192,5.151v47.853c0,2.968,1.877,5.151,4.192,5.151 c2.357,0,4.669-2.184,4.669-5.151V323.896z M196.732,359.918v9.822c-0.479,8.251-2.969,14.016-8.556,18.557 c-2.796,2.357-6.725,3.404-11.832,3.404c-10.131,0-15.282-5.63-17.77-11.22c-1.397-3.274-2.358-7.028-2.49-11.22v-42.875 c0.482-8.252,3.101-14.321,8.732-18.993c2.663-2.358,6.55-3.45,11.701-3.45c10.129,0,15.28,5.633,17.77,11.092 c1.398,3.274,2.358,6.853,2.49,10.915v24.797h-26.023v18.558c0.174,3.275,1.091,5.633,2.489,7.334 c0.785,0.786,1.876,1.267,3.274,1.267c2.969,0,4.367-1.877,4.978-4.19c0.48-1.268,0.61-2.666,0.61-4.367v-9.343h14.672 L196.732,359.918z M170.711,338.394h11.396v-12.007c0-3.275-0.61-5.59-2.184-7.467c-0.786-0.785-2.005-1.267-3.404-1.267 c-2.968,0-4.234,2.009-4.977,4.366c-0.48,1.267-0.613,2.664-0.787,4.367v12.007H170.711z M238.734,321.409 c-1.396-0.481-2.969-0.612-4.367-0.612c-2.486,0-5.455,0.306-7.944,2.664c-2.968,2.489-3.45,5.151-3.45,7.773v59.246h-15.761 V305.21h15.761v9.519c0.176-1.093,1.267-3.754,3.757-6.244c2.486-2.357,6.243-4.541,12.005-4.541V321.409z M245.59,390.48V275.915 h13.271c15.589,0,24.016,3.1,28.511,11.832c4.367,8.729,4.979,23.096,4.979,45.538c0,22.441-0.612,36.629-4.979,45.362 c-4.495,8.732-12.922,11.833-28.511,11.833H245.59z M262.442,373.629c5.765,0,9.036-0.614,10.741-6.247 c0.785-2.661,1.396-6.722,1.569-12.136c0.176-5.458,0.176-12.793,0.176-22.136s0-16.678-0.176-22.136 c-0.128-5.283-0.784-9.343-1.569-12.139c-1.705-5.459-4.977-6.069-10.741-6.069v80.904V373.629z M342.429,369.74 c-0.48,8.251-2.971,14.016-8.426,18.557c-2.796,2.357-6.725,3.404-11.832,3.404c-10.131,0-15.108-5.63-17.641-11.22 c-1.396-3.274-2.358-7.028-2.486-11.22v-42.875c0.478-8.252,2.968-14.321,8.426-18.993c2.661-2.358,6.55-3.45,11.701-3.45 c10.127,0,15.278,5.633,17.769,11.092c1.398,3.274,2.358,6.853,2.489,10.915V369.74z M327.629,326.387 c0.174-3.275-0.482-5.59-2.009-7.467c-0.788-0.785-2.008-1.267-3.407-1.267c-2.968,0-4.234,2.009-4.845,4.366 c-0.48,1.267-0.613,2.664-0.48,4.367v42.875c-0.133,3.274,0.61,5.63,2.009,7.335c0.784,0.784,1.876,1.267,3.274,1.267 c2.968,0,4.365-1.881,4.976-4.192c0.482-1.267,0.61-2.664,0.482-4.366V326.387z M352.907,275.871h15.761v15.762h-15.761V275.871z M368.668,305.167v87.45c0,4.367,0,11.224-2.184,16.855c-2.184,5.762-7.028,10.303-15.893,10.303c-2.487,0-4.191-0.174-5.283-0.48 c-0.61-0.176-1.091-0.304-1.569-0.479v-14.497c0.479,0.133,0.917,0.133,1.395,0.307c1.092,0.175,2.008,0.307,2.971,0.307 c2.662,0,3.886-2.184,4.496-4.848c0.175-1.267,0.307-2.661,0.307-4.06v-90.857H368.668z M420.055,369.697 c-0.478,8.252-2.968,14.017-8.426,18.558c-2.793,2.354-6.721,3.403-11.829,3.403c-10.131,0-15.108-5.633-17.641-11.221 c-1.397-3.274-2.357-7.029-2.489-11.222v-42.873c0.48-8.251,2.971-14.322,8.43-18.992c2.661-2.358,6.546-3.449,11.7-3.449 c10.128,0,15.279,5.632,17.77,11.09c1.395,3.274,2.357,6.854,2.485,10.913V369.697z M405.255,326.343 c0.174-3.274-0.479-5.59-2.009-7.467c-0.785-0.784-2.008-1.266-3.403-1.266c-2.968,0-4.234,2.008-4.849,4.366 c-0.478,1.267-0.609,2.661-0.478,4.366v42.873c-0.132,3.274,0.609,5.633,2.009,7.337c0.784,0.786,1.877,1.265,3.274,1.265 c2.968,0,4.363-1.877,4.977-4.188c0.479-1.267,0.61-2.666,0.479-4.367V326.343z"/><path fill="#FEFEFE" d="M198.289,214.086c-1.048,0-1.924,0.387-2.658,1.092c-0.74,0.696-1.092,1.557-1.092,2.569 c0,1.047,0.352,1.959,1.092,2.703c0.734,0.743,1.61,1.13,2.658,1.13h30.242c1.054,0,1.912-0.34,2.664-1.092 c0.735-0.735,1.091-1.609,1.091-2.663v-19.363c0-1.053-0.355-1.929-1.091-2.663c-0.752-0.735-1.61-1.093-2.664-1.093 c-1.052,0-1.919,0.396-2.662,1.131c-0.737,0.75-1.093,1.617-1.093,2.625v15.624h-7.502v-51.712h-18.807 c-1.053,0-1.924,0.356-2.663,1.092c-0.747,0.743-1.093,1.61-1.093,2.663c0,1.046,0.346,1.912,1.093,2.656 c0.739,0.743,1.61,1.091,2.663,1.091h11.343v44.21H198.289z"/><path d="M210.027,0C139.947,0,83.176,56.813,83.176,126.852c0,70.077,56.814,126.853,126.852,126.853 c70.077,0,126.852-56.814,126.852-126.853C336.879,56.772,280.064,0,210.027,0z M232.286,217.825c0,1.054-0.355,1.928-1.091,2.663 c-0.752,0.752-1.61,1.092-2.664,1.092h-30.242c-1.048,0-1.924-0.387-2.658-1.13c-0.74-0.744-1.092-1.656-1.092-2.703 c0-1.013,0.352-1.873,1.092-2.569c0.734-0.705,1.61-1.092,2.658-1.092h11.521v-44.21h-11.343c-1.053,0-1.924-0.348-2.663-1.091 c-0.747-0.744-1.093-1.61-1.093-2.656c0-1.053,0.346-1.92,1.093-2.663c0.739-0.735,1.61-1.092,2.663-1.092h18.807v51.712h7.502 v-15.624c0-1.008,0.355-1.875,1.093-2.625c0.743-0.735,1.61-1.131,2.662-1.131c1.054,0,1.912,0.357,2.664,1.093 c0.735,0.734,1.091,1.61,1.091,2.663V217.825z M208.72,126.852c-33.165,0-60.132,26.929-60.132,60.128 c0,32.688,26.138,59.3,58.606,60.136c-65.675-0.836-118.737-54.367-118.737-120.264c0-65.807,52.93-119.298,118.52-120.259 c0.608-0.05,1.173-0.05,1.781-0.05l-0.038,0.05c33.16,0,60.134,26.917,60.134,60.128 C268.854,99.886,241.926,126.852,208.72,126.852z"/><path fill="#FEFEFE" d="M197.284 34.082H220.099V78.283H197.284z"/><path fill="#FEFEFE" d="M208.72,6.593l0.038-0.05c-0.608,0-1.173,0-1.781,0.05c-65.59,0.961-118.52,54.452-118.52,120.259 c0,65.896,53.063,119.428,118.737,120.264c-32.469-0.836-58.606-27.447-58.606-60.136c0-33.199,26.967-60.128,60.132-60.128 c33.206,0,60.134-26.966,60.134-60.131C268.854,33.51,241.88,6.593,208.72,6.593z M227.564,78.548 c0,2.005-0.696,3.703-2.13,5.105c-1.394,1.396-3.098,2.141-5.103,2.141h-23.266c-2.009,0-3.75-0.7-5.144-2.141 c-1.399-1.402-2.1-3.101-2.1-5.105h-0.043V33.73c0-1.968,0.698-3.666,2.143-5.06c1.435-1.44,3.135-2.143,5.102-2.143h23.386 c1.927,0,3.631,0.702,5.024,2.143c1.394,1.436,2.13,3.136,2.13,5.06V78.548z"/><path d="M220.41,26.528h-23.386c-1.967,0-3.667,0.702-5.102,2.143c-1.444,1.394-2.143,3.092-2.143,5.06v44.817h0.043 c0,2.005,0.7,3.703,2.1,5.105c1.394,1.44,3.135,2.141,5.144,2.141h23.266c2.005,0,3.709-0.744,5.103-2.141 c1.434-1.402,2.13-3.101,2.13-5.105V33.73c0-1.924-0.736-3.624-2.13-5.06C224.041,27.23,222.337,26.528,220.41,26.528z M220.1,78.283h-22.815V34.082H220.1V78.283z"/><g><path d="M94.713 441.658l-.907-3.427h-.604v42.019h-9.977v-74.061H92.9l10.58 38.592.906 3.425h.604v-42.017h9.976v74.061h-9.673L94.713 441.658zM138.743 425.133h10.178v55.117h-10.178v-4.635c-.201.101-.604.504-1.108 1.008-1.209 1.209-2.619 2.62-4.435 3.627-.906.505-1.813.807-2.721.807-2.72 0-4.634-1.612-5.844-3.728-1.209-2.015-1.813-4.736-1.813-7.055v-45.142H133v43.63c0 2.118 1.209 2.419 2.418 2.419 1.107 0 1.713-.604 2.418-1.311.303-.302.605-.806.907-1.309V425.133zM124.233 406.189h9.371v9.875h-9.371V406.189zM138.441 406.189h9.371v9.875h-9.371V406.189zM177.333 435.612c-.907-.304-1.914-.404-2.82-.404-1.614 0-3.527.203-5.14 1.714-1.915 1.612-2.218 3.326-2.218 5.038v38.29h-10.177v-55.117h10.177v6.146c.101-.704.806-2.418 2.42-4.029 1.611-1.513 4.029-2.923 7.758-2.923V435.612zM191.94 480.25h-10.177v-55.117h10.177v4.635c.201-.101.604-.504 1.208-1.108 1.108-1.108 2.622-2.62 4.435-3.627.907-.505 1.714-.706 2.62-.706 2.721 0 4.636 1.612 5.844 3.627 1.21 2.116 1.813 4.837 1.813 7.155v45.142h-10.175v-43.63c0-2.116-1.209-2.419-2.419-2.419-1.107 0-1.714.604-2.418 1.311-.303.402-.604.805-.907 1.31V480.25zM215.72 406.189h10.176v22.57c1.712-1.612 3.224-2.821 5.238-3.728.91-.505 1.917-.706 2.822-.706 2.821 0 4.737 1.612 6.045 3.627 1.211 2.116 1.815 4.837 1.815 7.155v35.166c0 2.318-.604 5.04-1.815 7.055-1.308 2.115-3.224 3.728-6.045 3.728-1.912 0-3.93-1.109-5.438-2.216-.91-.706-1.715-1.412-2.622-2.218v3.627H215.72V406.189zM225.896 468.159c0 1.914 1.512 3.325 3.023 3.325 1.511 0 2.722-1.411 2.722-3.325v-30.936c0-1.915-1.211-3.324-2.722-3.324-1.512 0-3.023 1.713-3.023 3.324V468.159zM274.964 460.5v6.349c-.301 5.341-1.913 9.069-5.541 11.992-1.815 1.51-4.331 2.216-7.658 2.216-6.549 0-9.875-3.628-11.489-7.254-.904-2.118-1.511-4.536-1.61-7.255v-27.713c.303-5.339 2.015-9.269 5.643-12.292 1.713-1.511 4.231-2.217 7.558-2.217 6.549 0 9.874 3.627 11.487 7.154.906 2.115 1.51 4.434 1.611 7.054v16.021h-16.827v11.993c.1 2.114.706 3.627 1.612 4.734.505.504 1.209.806 2.116.806 1.914 0 2.82-1.207 3.227-2.719.299-.807.401-1.715.401-2.821V460.5H274.964zM258.137 446.596h7.356v-7.761c0-2.115-.401-3.627-1.41-4.836-.505-.503-1.311-.806-2.218-.806-1.914 0-2.721 1.311-3.226 2.822-.301.806-.403 1.712-.503 2.819V446.596zM302.068 435.612c-.91-.304-1.917-.404-2.822-.404-1.613 0-3.526.203-5.14 1.714-1.915 1.612-2.216 3.326-2.216 5.038v38.29h-10.179v-55.117h10.179v6.146c.1-.704.807-2.418 2.416-4.029 1.613-1.513 4.033-2.923 7.762-2.923V435.612zM331.387 453.649c-.301 5.138-2.115 8.766-5.642 11.486-1.814 1.412-4.333 2.116-7.456 2.116-.304 0-.606 0-.908 0-.303 0-.705 0-1.007-.101-.907.806-1.412 1.611-1.412 2.519 0 1.211 1.008 1.914 2.52 2.317 1.511.505 3.324.806 5.239 1.109 3.225.402 6.651 1.208 9.473 3.123 2.721 1.915 4.636 4.837 4.636 9.674 0 5.341-2.318 8.968-5.544 11.083-3.325 2.116-7.758 3.023-11.888 3.023-4.838-.1-8.969-.806-11.791-2.417-2.922-1.613-4.534-4.233-4.534-8.264 0-1.915 1.009-3.527 2.52-4.938 1.511-1.409 3.525-2.518 5.44-3.425-3.324-.906-6.146-3.023-6.146-7.356 0-1.612.906-3.225 2.117-4.736 1.208-1.512 2.72-2.721 4.231-3.526-2.923-1.914-4.334-4.938-5.038-7.456-.404-1.512-.705-3.022-.808-4.534v-15.016c.403-5.138 2.016-8.866 5.542-11.788 1.714-1.511 4.233-2.217 7.358-2.217 5.138 0 8.26 2.318 10.176 5.037.704-.704 1.915-1.913 3.525-3.021 1.513-1.108 3.224-2.016 4.839-2.016v9.068c-2.72 0-4.735.505-5.946 1.21.102.504.203 1.008.303 1.31 0 .402 0 .806.1 1.108.102.304.102.705.102 1.007V453.649zM316.676 482.77c-2.116 1.208-3.729 2.721-3.729 4.837s1.913 3.829 6.65 3.829c1.713 0 3.628-.302 5.14-.907 1.512-.604 2.619-1.512 2.619-2.821 0-.906-.103-1.612-.808-2.317-.804-.705-2.115-1.209-4.634-1.613L316.676 482.77zM321.412 438.735c0-1.914-.403-3.123-1.211-4.231-.4-.505-1.007-.807-1.912-.807-1.613 0-2.419 1.311-2.723 2.521-.2.704-.301 1.611-.2 2.518v15.114c-.101 1.915.2 3.124 1.107 4.132.404.504 1.008.806 1.815.806 1.712 0 2.418-1.208 2.82-2.418.201-.705.303-1.611.303-2.52V438.735z"/></g></svg><view id="coderdojo-light-horizontal" viewBox="0 875 76.735 22.878"/><svg width="76.735" height="22.878" viewBox="0 0 76.735 22.878" id="coderdojo-light-horizontal-" y="875"><path fill-rule="evenodd" clip-rule="evenodd" fill="#FFF" d="M30.003,9.538v1.959c-0.02,0.583-0.133,1.106-0.349,1.552 c-0.176,0.389-0.447,0.758-0.836,1.051c-0.389,0.309-0.911,0.481-1.611,0.481c-0.698,0-1.242-0.173-1.631-0.481 c-0.389-0.293-0.64-0.662-0.814-1.051c-0.213-0.445-0.329-0.969-0.35-1.552V3.09c0.021-0.565,0.137-1.089,0.35-1.536 c0.174-0.387,0.426-0.776,0.814-1.068C25.966,0.198,26.509,0,27.208,0c0.701,0,1.222,0.198,1.611,0.485 c0.389,0.292,0.66,0.682,0.836,1.068C29.87,2,29.983,2.525,30.003,3.09v1.959h-1.96V3.09c0-0.389-0.097-0.662-0.312-0.894 c-0.097-0.097-0.271-0.157-0.486-0.157c-0.367,0-0.543,0.273-0.64,0.526c-0.058,0.153-0.078,0.329-0.097,0.524v8.408 c0.019,0.406,0.135,0.682,0.331,0.894c0.097,0.098,0.234,0.153,0.406,0.153c0.447,0,0.621-0.232,0.72-0.524 c0.056-0.133,0.078-0.31,0.078-0.522V9.538H30.003L30.003,9.538z M36.116,11.844c-0.058,1.034-0.37,1.751-1.051,2.312 c-0.348,0.293-0.834,0.426-1.474,0.426c-1.263,0-1.885-0.698-2.196-1.399c-0.174-0.401-0.291-0.87-0.308-1.392V6.448 c0.056-1.029,0.368-1.788,1.047-2.368c0.331-0.292,0.814-0.43,1.457-0.43c1.262,0,1.904,0.698,2.213,1.379 c0.174,0.408,0.292,0.853,0.312,1.358V11.844L36.116,11.844z M34.271,6.448c0.019-0.408-0.058-0.7-0.253-0.93 c-0.097-0.099-0.251-0.159-0.426-0.159c-0.372,0-0.524,0.256-0.602,0.548c-0.058,0.152-0.077,0.329-0.058,0.541v5.342 c-0.019,0.406,0.077,0.699,0.251,0.911c0.096,0.1,0.232,0.152,0.408,0.152c0.368,0,0.544-0.229,0.621-0.521 c0.058-0.152,0.077-0.329,0.058-0.542V6.448L34.271,6.448z M42.432,14.431h-1.963v-0.7c-0.328,0.309-0.621,0.541-0.988,0.718 c-0.195,0.098-0.389,0.133-0.563,0.133c-0.543,0-0.913-0.31-1.147-0.718c-0.251-0.39-0.368-0.911-0.368-1.355V5.731 c0-0.449,0.116-0.974,0.368-1.382c0.234-0.389,0.604-0.698,1.147-0.698c0.368,0,0.756,0.212,1.048,0.43 c0.175,0.135,0.329,0.269,0.503,0.427V0.157h1.963V14.431L42.432,14.431z M40.469,6.137c0-0.31-0.292-0.638-0.58-0.638 c-0.292,0-0.525,0.269-0.525,0.638v5.962c0,0.365,0.232,0.641,0.525,0.641c0.288,0,0.58-0.275,0.58-0.641V6.137L40.469,6.137z M48.914,10.621v1.223c-0.055,1.034-0.37,1.751-1.066,2.312c-0.348,0.293-0.836,0.426-1.476,0.426c-1.26,0-1.902-0.698-2.215-1.399 c-0.172-0.401-0.291-0.87-0.31-1.392V6.448c0.061-1.029,0.388-1.788,1.087-2.368c0.333-0.292,0.817-0.43,1.457-0.43 c1.265,0,1.904,0.698,2.213,1.379c0.176,0.408,0.293,0.853,0.31,1.358v3.09h-3.241v2.312c0.021,0.406,0.138,0.699,0.313,0.911 c0.097,0.1,0.229,0.152,0.405,0.152c0.37,0,0.545-0.229,0.62-0.521c0.059-0.152,0.081-0.329,0.081-0.542v-1.169H48.914 L48.914,10.621z M45.672,7.944h1.42V6.448c0-0.408-0.081-0.7-0.272-0.93c-0.1-0.099-0.255-0.159-0.429-0.159 c-0.367,0-0.524,0.256-0.621,0.548c-0.059,0.152-0.077,0.329-0.098,0.541V7.944L45.672,7.944z M54.144,5.827 c-0.171-0.06-0.365-0.079-0.541-0.079c-0.314,0-0.685,0.043-0.993,0.329c-0.369,0.312-0.426,0.645-0.426,0.973v7.381h-1.965V3.807 h1.965v1.187c0.018-0.14,0.155-0.469,0.464-0.778c0.313-0.292,0.777-0.565,1.496-0.565V5.827L54.144,5.827z M54.999,14.431V0.157 h1.651c1.946,0,2.994,0.387,3.558,1.474c0.537,1.087,0.62,2.877,0.62,5.67c0,2.798-0.083,4.562-0.62,5.651 c-0.563,1.087-1.611,1.479-3.558,1.479H54.999L54.999,14.431z M57.1,12.332c0.719,0,1.127-0.08,1.337-0.778 c0.099-0.329,0.176-0.834,0.197-1.515c0.019-0.677,0.019-1.59,0.019-2.757c0-1.163,0-2.076-0.019-2.757 c-0.021-0.662-0.099-1.167-0.197-1.515c-0.21-0.681-0.618-0.754-1.337-0.754V12.332L57.1,12.332z M67.062,11.844 c-0.064,1.034-0.37,1.751-1.048,2.312c-0.35,0.293-0.834,0.426-1.48,0.426c-1.258,0-1.881-0.698-2.194-1.399 c-0.172-0.401-0.289-0.87-0.305-1.392V6.448c0.055-1.029,0.369-1.788,1.044-2.368c0.335-0.292,0.815-0.43,1.455-0.43 c1.265,0,1.908,0.698,2.215,1.379c0.176,0.408,0.295,0.853,0.313,1.358V11.844L67.062,11.844z M65.218,6.448 c0.022-0.408-0.064-0.7-0.258-0.93c-0.096-0.099-0.249-0.159-0.427-0.159c-0.363,0-0.519,0.256-0.602,0.548 c-0.055,0.152-0.076,0.329-0.055,0.541v5.342c-0.021,0.406,0.077,0.699,0.249,0.911c0.103,0.1,0.232,0.152,0.407,0.152 c0.37,0,0.548-0.229,0.62-0.521c0.064-0.152,0.087-0.329,0.064-0.542V6.448L65.218,6.448z M68.368,0.157h1.957v1.959h-1.957V0.157 L68.368,0.157z M70.325,3.807v10.89c0,0.546,0,1.401-0.267,2.102c-0.272,0.718-0.874,1.281-1.986,1.281 c-0.306,0-0.516-0.018-0.656-0.061c-0.075-0.018-0.14-0.038-0.194-0.056v-1.805c0.055,0.017,0.119,0.017,0.176,0.034 c0.138,0.021,0.248,0.042,0.369,0.042c0.327,0,0.48-0.274,0.567-0.601c0.019-0.159,0.034-0.336,0.034-0.508c0-0.176,0-0.331,0-0.447 V3.807H70.325L70.325,3.807z M76.735,11.844c-0.064,1.034-0.369,1.751-1.056,2.312c-0.342,0.293-0.834,0.426-1.47,0.426 c-1.265,0-1.884-0.698-2.197-1.399c-0.176-0.401-0.288-0.87-0.309-1.392V6.448c0.055-1.029,0.365-1.788,1.048-2.368 c0.335-0.292,0.817-0.43,1.458-0.43c1.258,0,1.894,0.698,2.213,1.379c0.175,0.408,0.286,0.853,0.313,1.358V11.844L76.735,11.844z M74.883,6.448c0.026-0.408-0.057-0.7-0.25-0.93c-0.093-0.099-0.253-0.159-0.424-0.159c-0.374,0-0.521,0.256-0.606,0.548 c-0.057,0.152-0.074,0.329-0.057,0.541v5.342c-0.018,0.406,0.077,0.699,0.253,0.911c0.099,0.1,0.232,0.152,0.41,0.152 c0.369,0,0.545-0.229,0.617-0.521c0.057-0.152,0.083-0.329,0.057-0.542V6.448L74.883,6.448z"/><path fill="#FEFEFE" d="M9.743,18.122c-0.09,0-0.163,0.029-0.225,0.091c-0.063,0.059-0.094,0.134-0.094,0.217 c0,0.087,0.031,0.166,0.094,0.229c0.062,0.063,0.135,0.096,0.225,0.096h2.559c0.089,0,0.162-0.029,0.227-0.092 c0.063-0.063,0.091-0.137,0.091-0.225v-1.638c0-0.092-0.029-0.166-0.091-0.229c-0.064-0.063-0.137-0.092-0.227-0.092 s-0.162,0.033-0.225,0.096s-0.093,0.138-0.093,0.225v1.322h-0.634v-4.378H9.757c-0.089,0-0.162,0.029-0.224,0.092 c-0.064,0.063-0.094,0.137-0.094,0.225c0,0.091,0.029,0.162,0.094,0.225c0.062,0.066,0.135,0.096,0.224,0.096h0.96v3.741H9.743z"/><path d="M10.736,0C4.806,0,0,4.81,0,10.738s4.808,10.734,10.736,10.734c5.931,0,10.736-4.806,10.736-10.734 C21.472,4.806,16.664,0,10.736,0z M12.619,18.437c0,0.088-0.029,0.162-0.091,0.225c-0.064,0.063-0.137,0.092-0.227,0.092H9.743 c-0.09,0-0.163-0.033-0.225-0.096c-0.063-0.063-0.094-0.142-0.094-0.229c0-0.083,0.031-0.158,0.094-0.217 c0.062-0.062,0.135-0.091,0.225-0.091h0.975V14.38h-0.96c-0.089,0-0.162-0.029-0.224-0.096c-0.064-0.063-0.094-0.134-0.094-0.225 c0-0.088,0.029-0.162,0.094-0.225c0.062-0.063,0.135-0.092,0.224-0.092h1.592v4.378h0.634v-1.322c0-0.087,0.031-0.162,0.093-0.225 s0.135-0.096,0.225-0.096s0.162,0.029,0.227,0.092c0.063,0.063,0.091,0.137,0.091,0.229V18.437z M10.626,10.738 c-2.808,0-5.091,2.278-5.091,5.088c0,2.765,2.214,5.018,4.962,5.089c-5.558-0.071-10.05-4.603-10.05-10.177 c0-5.571,4.479-10.098,10.032-10.179c0.05-0.004,0.098-0.004,0.149-0.004l-0.002,0.004c2.806,0,5.088,2.276,5.088,5.091 C15.714,8.456,13.436,10.738,10.626,10.738z"/><path fill="#FEFEFE" d="M9.657 2.885H11.588000000000001V6.6259999999999994H9.657z"/><path fill="#FEFEFE" d="M10.626,0.559l0.002-0.004c-0.052,0-0.1,0-0.149,0.004C4.926,0.64,0.447,5.167,0.447,10.738 c0,5.575,4.492,10.106,10.05,10.177c-2.748-0.071-4.962-2.324-4.962-5.089c0-2.811,2.283-5.088,5.091-5.088 c2.81,0,5.088-2.282,5.088-5.088C15.714,2.835,13.432,0.559,10.626,0.559z M12.22,6.647c0,0.17-0.058,0.316-0.181,0.432 c-0.117,0.121-0.262,0.183-0.431,0.183h-1.97c-0.17,0-0.318-0.063-0.435-0.183C9.085,6.963,9.025,6.818,9.025,6.647H9.023V2.856 c0-0.166,0.058-0.312,0.181-0.428c0.121-0.121,0.264-0.183,0.43-0.183h1.981c0.162,0,0.308,0.062,0.424,0.183 c0.118,0.121,0.181,0.266,0.181,0.428V6.647z"/><path d="M11.615,2.245H9.634c-0.166,0-0.31,0.062-0.43,0.183C9.082,2.544,9.023,2.69,9.023,2.856v3.792h0.002 c0,0.17,0.06,0.316,0.179,0.432C9.32,7.2,9.468,7.263,9.639,7.263h1.97c0.168,0,0.314-0.063,0.431-0.183 c0.123-0.116,0.181-0.262,0.181-0.432V2.856c0-0.162-0.063-0.308-0.181-0.428C11.923,2.307,11.777,2.245,11.615,2.245z M11.588,6.626H9.657V2.885h1.931V6.626z"/><g fill="#FFF"><path d="M25.552 18.655l-.064-.245h-.046v3.039h-.721V16.09h.701l.765 2.793.066.246h.044V16.09h.721v5.358h-.698L25.552 18.655zM28.739 17.462h.738v3.986h-.738v-.333c-.015.005-.044.034-.079.071-.087.087-.189.191-.322.262-.064.037-.131.059-.197.059-.195 0-.335-.117-.422-.271-.087-.146-.131-.341-.131-.507v-3.268h.736v3.155c0 .153.087.174.177.174.079 0 .123-.041.175-.091.021-.025.043-.059.064-.096V17.462zM27.689 16.09h.68v.715h-.68V16.09zM28.718 16.09h.678v.715h-.678V16.09zM31.532 18.218c-.066-.021-.137-.028-.204-.028-.116 0-.256.017-.372.124-.139.116-.16.241-.16.366v2.769h-.738v-3.986h.738v.444c.006-.054.058-.175.175-.295.116-.108.291-.208.561-.208V18.218zM32.59 21.449h-.738v-3.986h.738v.332c.015-.004.043-.033.087-.079.081-.079.189-.191.32-.262.067-.037.125-.05.191-.05.195 0 .334.116.422.262.087.154.131.35.131.516v3.268h-.736v-3.155c0-.154-.087-.175-.174-.175-.081 0-.125.042-.175.092-.023.029-.043.058-.066.096V21.449zM34.312 16.09h.736v1.634c.125-.116.235-.204.38-.271.064-.037.139-.05.204-.05.204 0 .343.116.438.262.087.154.131.35.131.516v2.549c0 .166-.043.361-.131.507-.096.153-.235.271-.438.271-.139 0-.285-.079-.393-.158-.066-.05-.125-.104-.191-.162v.262h-.736V16.09zM35.047 20.576c0 .138.11.241.22.241.108 0 .195-.104.195-.241v-2.24c0-.138-.087-.241-.195-.241-.11 0-.22.124-.22.241V20.576zM38.6 20.019v.461c-.021.387-.137.657-.403.869-.129.108-.312.158-.551.158-.476 0-.715-.263-.833-.524-.064-.153-.108-.328-.116-.523v-2.008c.022-.387.147-.67.409-.89.125-.108.306-.158.547-.158.474 0 .715.262.832.516.062.153.112.32.116.511v1.16h-1.218v.869c.008.153.05.262.117.341.037.037.087.059.154.059.139 0 .204-.088.233-.196.022-.058.031-.124.031-.203v-.44H38.6zM37.381 19.012h.534v-.561c0-.154-.031-.262-.104-.35-.036-.037-.094-.058-.16-.058-.139 0-.198.095-.233.203-.023.059-.029.125-.038.204V19.012zM40.561 18.218c-.066-.021-.137-.028-.203-.028-.117 0-.258.017-.374.124-.137.116-.158.241-.158.366v2.769h-.739v-3.986h.739v.444c.009-.054.059-.175.175-.295.116-.108.291-.208.561-.208V18.218zM42.686 19.524c-.025.374-.158.636-.408.831-.133.104-.316.154-.539.154-.025 0-.047 0-.068 0-.023 0-.049 0-.074-.009-.066.059-.1.117-.1.184 0 .087.07.137.18.17.111.033.244.055.377.079.232.029.482.088.691.225.195.142.332.35.332.702 0 .387-.166.649-.398.803-.242.154-.566.216-.865.216-.35-.008-.648-.058-.848-.174-.217-.117-.334-.308-.334-.599 0-.138.076-.254.184-.357.107-.101.258-.184.395-.246-.236-.066-.445-.22-.445-.532 0-.116.068-.236.154-.345.088-.108.195-.195.305-.254-.209-.141-.313-.357-.363-.54-.027-.108-.053-.221-.057-.328v-1.09c.029-.369.145-.64.402-.852.125-.108.303-.158.533-.158.369 0 .598.166.73.361.055-.05.141-.137.258-.216.107-.083.232-.146.35-.146v.657c-.195 0-.342.033-.432.087.008.033.016.07.023.092 0 .028 0 .058.01.083.008.021.008.05.008.07V19.524zM41.622 21.631c-.158.088-.275.2-.275.35 0 .153.143.278.482.278.125 0 .268-.021.375-.066.107-.042.191-.108.191-.204 0-.066-.008-.116-.059-.166-.059-.05-.158-.087-.342-.116L41.622 21.631zM41.961 18.443c0-.137-.033-.225-.086-.304-.029-.037-.07-.058-.137-.058-.117 0-.176.096-.201.183-.016.05-.023.116-.016.179v1.098c-.008.138.016.225.082.3.029.033.072.058.135.058.123 0 .174-.087.199-.175.016-.054.023-.12.023-.183V18.443z"/></g></svg><view id="facebook" viewBox="0 898 32 32"/><svg width="32" height="32" viewBox="0 0 32 32" id="facebook-" y="898"><path fill="#DDD" d="M23,7.984h-2.266c-1.776,0-2.121,0.842-2.121,2.076v2.725h4.238l-0.555,4.267h-3.688V28h-4.417V17.053H10.5 v-4.267h3.695V9.641C14.195,5.988,16.43,4,19.698,4C21.264,4,22.607,4.116,23,4.168V7.984z"/></svg><view id="facebook~hover" viewBox="0 930 32 32"/><svg width="32" height="32" viewBox="0 0 32 32" id="facebook~hover-" y="930"><path fill="#359" d="M0,0v32h32V0H0z M23,7.984h-2.266c-1.777,0-2.121,0.842-2.121,2.076v2.725h4.238l-0.554,4.267h-3.687V28 h-4.417V17.053H10.5v-4.267h3.695V9.641C14.195,5.988,16.43,4,19.699,4C21.264,4,22.607,4.116,23,4.168V7.984z"/></svg><view id="github" viewBox="0 962 32 32"/><svg width="32" height="32" viewBox="0 0 32 32" id="github-" y="962"><path fill="#DDD" d="M19.906,27.979c-0.627,0.119-0.85-0.265-0.85-0.595c0-0.403,0.017-1.735,0.017-3.384 c0-1.15-0.396-1.904-0.839-2.285c2.748-0.306,5.634-1.348,5.634-6.087c0-1.346-0.479-2.447-1.269-3.31 c0.127-0.313,0.551-1.566-0.123-3.265c0,0-1.033-0.332-3.389,1.265c-0.984-0.274-2.04-0.411-3.088-0.416 c-1.048,0.005-2.104,0.142-3.088,0.416c-2.357-1.597-3.393-1.265-3.393-1.265c-0.67,1.699-0.247,2.952-0.12,3.265 c-0.79,0.863-1.271,1.964-1.271,3.31c0,4.728,2.88,5.786,5.619,6.097c-0.353,0.31-0.67,0.854-0.782,1.649 c-0.704,0.313-2.491,0.86-3.591-1.024c0,0-0.651-1.184-1.889-1.271c0,0-1.206-0.016-0.085,0.751c0,0,0.809,0.379,1.37,1.803 c0,0,0.724,2.399,4.155,1.654c0.006,1.028,0.016,1.806,0.016,2.099c0,0.327-0.225,0.708-0.841,0.596 c-4.903-1.633-8.437-6.256-8.437-11.706c0-6.814,5.523-12.337,12.336-12.337c6.813,0,12.337,5.523,12.337,12.337 C28.336,21.723,24.805,26.342,19.906,27.979z"/></svg><view id="github~hover" viewBox="0 994 32 32"/><svg width="32" height="32" viewBox="0 0 32 32" id="github~hover-" y="994"><path d="M0,0v32h32V0H0z M19.906,27.978c-0.627,0.12-0.85-0.264-0.85-0.594c0-0.404,0.017-1.735,0.017-3.384 c0-1.15-0.395-1.904-0.838-2.285c2.748-0.306,5.633-1.348,5.633-6.087c0-1.346-0.479-2.447-1.269-3.31 c0.128-0.313,0.551-1.566-0.123-3.265c0,0-1.033-0.332-3.388,1.265C18.103,10.044,17.048,9.907,16,9.902 c-1.048,0.005-2.104,0.142-3.088,0.416c-2.357-1.597-3.393-1.265-3.393-1.265c-0.67,1.699-0.247,2.952-0.12,3.265 c-0.79,0.863-1.271,1.964-1.271,3.31c0,4.728,2.88,5.786,5.619,6.097c-0.353,0.309-0.67,0.853-0.782,1.649 c-0.704,0.314-2.491,0.86-3.591-1.024c0,0-0.651-1.184-1.889-1.272c0,0-1.206-0.015-0.085,0.751c0,0,0.809,0.379,1.37,1.803 c0,0,0.724,2.399,4.155,1.654c0.006,1.029,0.016,1.806,0.016,2.099c0,0.327-0.225,0.708-0.841,0.595 c-4.903-1.632-8.437-6.256-8.437-11.705c0-6.814,5.523-12.337,12.336-12.337c6.813,0,12.337,5.523,12.337,12.337 C28.336,21.722,24.804,26.342,19.906,27.978z"/></svg><view id="googleplus" viewBox="0 1026 32 32"/><svg width="32" height="32" viewBox="0 0 32 32" id="googleplus-" y="1026"><g fill="#DDD"><path d="M12 15v2.4h3.97c-.16 1.029-1.199 3.02-3.97 3.02-2.39 0-4.34-1.98-4.34-4.42s1.95-4.42 4.34-4.42c1.36 0 2.271.58 2.79 1.08l1.9-1.83C15.47 9.689 13.89 9 12 9c-3.87 0-7 3.13-7 7s3.13 7 7 7c4.04 0 6.72-2.84 6.72-6.84 0-.46-.05-.811-.109-1.16H12L12 15zM27 15h-2v-2h-2v2h-2v2h2v2h2v-2h2"/></g></svg><view id="googleplus~hover" viewBox="0 1058 32 32"/><svg width="32" height="32" viewBox="0 0 32 32" id="googleplus~hover-" y="1058"><path fill="#D43" d="M0,0v32h32V0H0z M12,23c-3.87,0-7-3.13-7-7s3.13-7,7-7c1.89,0,3.47,0.689,4.69,1.83l-1.9,1.83 c-0.52-0.5-1.43-1.08-2.79-1.08c-2.39,0-4.34,1.98-4.34,4.42s1.95,4.42,4.34,4.42c2.771,0,3.81-1.99,3.97-3.02H12V15h6.61 c0.06,0.35,0.109,0.7,0.109,1.16C18.72,20.16,16.04,23,12,23z M27,17h-2v2h-2v-2h-2v-2h2v-2h2v2h2V17z"/></svg><view id="location" viewBox="0 1090 54 96"/><svg width="54" height="96" viewBox="0 0 54 96" id="location-" y="1090"><path fill="#bbb" d="M27,5C12.157,5,0.125,17.032,0.125,31.875C0.125,58.75,27,91,27,91s26.875-32.25,26.875-59.125 C53.875,17.032,41.846,5,27,5 M27,48.001c-8.905,0-16.124-7.22-16.124-16.125c0-8.906,7.219-16.125,16.124-16.125 c8.908,0,16.126,7.219,16.126,16.125C43.126,40.782,35.908,48.001,27,48.001"/></svg><view id="location~hover" viewBox="0 1186 54 96"/><svg width="54" height="96" viewBox="0 0 54 96" id="location~hover-" y="1186"><path fill="#fb7064" d="M27,5C12.157,5,0.125,17.032,0.125,31.875C0.125,58.75,27,91,27,91s26.875-32.25,26.875-59.125 C53.875,17.032,41.846,5,27,5 M27,48.001c-8.905,0-16.124-7.22-16.124-16.125c0-8.906,7.219-16.125,16.124-16.125 c8.908,0,16.126,7.219,16.126,16.125C43.126,40.782,35.908,48.001,27,48.001"/></svg><view id="tollwerk" viewBox="0 1282 324 86"/><svg width="324" height="86" viewBox="0 0 324 86" id="tollwerk-" y="1282"><path fill="#00285A" d="M323.535,70.678h-12.145l-8.15-13.262l-4.419,5.01v8.252h-10.537V17.931h10.537v31.788l11.522-14.384 h12.465l-13.116,14.812L323.535,70.678z M235.523,64c-5.229,0-7.962-2.629-8.595-8.252h17.389v-7.375h-4.356h-12.846 c0.791-3.945,2.842-5.65,6.833-5.65l10.369,0.003v-0.004v-7.388h-10.095l-1.04,0.041c-10.388,0.426-15.882,6.57-15.882,17.867 c0,11.854,6.053,18.381,17.041,18.381c4.655,0,9.065-0.945,13.477-2.887l-2.351-6.834C241.8,63.289,238.456,64,235.523,64z M273.33,44.785c0.543-0.047,1.063-0.037,1.566,0.014c1.178,0.119,2.244,0.482,3.178,1.006l3.189-9.273 c-1.076-0.666-2.139-1.15-3.179-1.473c-0.038-0.012-0.077-0.025-0.115-0.037c-3.798-1.135-7.288-0.113-9.964,2.02 c-1.402,1.004-2.827,2.354-4.357,4.102l-0.497,0.568v-6.377h-10.458v35.343h10.537V52.057l0.046-0.07 c1.083-1.656,2.159-2.996,3.267-4.057C269.002,45.893,271.295,44.963,273.33,44.785z M201.435,56.951l-8.32-21.617h-7.245 l-7.904,21.675l-4.807-21.675h-10.894l10.153,35.343h7.863l8.934-21.889l8.853,21.889h7.783l9.766-35.343h-10.103L201.435,56.951z M268.408,58.547l7.656,12.137h12.149l-11.42-15.939L268.408,58.547z M85.605,43c0,23.512-19.06,42.571-42.571,42.571 C19.523,85.57,0.464,66.512,0.464,43c0-1.247,0.065-2.479,0.17-3.7l16.484-18.338l-5.721-6.44c1.519-1.686,3.172-3.245,4.939-4.671 l8.021,11.437L12.727,37.548l6.162,4.827l19.389-21.413L23.882,4.983c5.759-2.906,12.261-4.554,19.152-4.554 C66.546,0.429,85.605,19.489,85.605,43z M71.923,33.543H55.495H44.294h-9.485v9.914h9.485v6.408c0,14.307,2.837,22.059,17.8,22.059 c2.36,0,4.598-0.154,6.652-0.459l-0.627-8.904c-0.841,0.127-2.077,0.127-3.73,0.127c-6.566,0-8.894-3.355-8.894-12.822v-6.408 h16.428V33.543z M124.383,52.297c0,12.102-6.9,19.326-18.459,19.326c-11.065,0-17.671-6.93-17.671-18.537 c0-11.659,6.93-18.619,18.537-18.619C117.806,34.467,124.383,41.133,124.383,52.297z M113.61,52.85 c0-6.93-2.48-10.443-7.372-10.443c-4.734,0-7.135,3.46-7.135,10.285c0,7.242,2.507,10.914,7.45,10.914 C111.236,63.605,113.61,59.986,113.61,52.85z M147.511,56.031h10.537v-38.1h-10.537V56.031z M129.49,70.678h10.536V17.931H129.49 V70.678z"/></svg><view id="twitter" viewBox="0 1368 32 32"/><svg width="32" height="32" viewBox="0 0 32 32" id="twitter-" y="1368"><path fill="#DDD" d="M24.551,11.616c0.006,0.19,0.012,0.38,0.012,0.571c0,5.829-4.436,12.549-12.55,12.549 c-2.49,0-4.809-0.729-6.761-1.982c0.345,0.041,0.696,0.061,1.052,0.061c2.067,0,3.969-0.7,5.479-1.887 c-1.931-0.033-3.56-1.309-4.122-3.063c0.27,0.053,0.546,0.078,0.83,0.078c0.402,0,0.793-0.053,1.164-0.152 c-2.018-0.407-3.539-2.189-3.539-4.326c0-0.018,0-0.037,0.001-0.058c0.594,0.333,1.272,0.53,1.995,0.553 C6.93,13.17,6.15,11.818,6.15,10.289c0-0.809,0.219-1.566,0.597-2.219c2.176,2.67,5.427,4.426,9.092,4.609 c-0.073-0.322-0.114-0.658-0.114-1.006c0-2.435,1.975-4.41,4.412-4.41c1.271,0,2.414,0.536,3.219,1.394 c1.006-0.198,1.949-0.565,2.802-1.071c-0.329,1.03-1.029,1.895-1.938,2.441c0.891-0.107,1.742-0.344,2.532-0.695 C26.158,10.217,25.412,10.993,24.551,11.616z"/></svg><view id="twitter~hover" viewBox="0 1400 32 32"/><svg width="32" height="32" viewBox="0 0 32 32" id="twitter~hover-" y="1400"><path fill="#3AD" d="M0,0v32h32V0H0z M24.549,11.616c0.006,0.19,0.012,0.38,0.012,0.571c0,5.828-4.436,12.549-12.549,12.549 c-2.492,0-4.811-0.729-6.763-1.982c0.345,0.041,0.696,0.061,1.053,0.061c2.067,0,3.97-0.701,5.478-1.887 c-1.93-0.035-3.559-1.309-4.12-3.063c0.271,0.053,0.546,0.078,0.829,0.078c0.404,0,0.794-0.053,1.164-0.152 c-2.018-0.407-3.539-2.189-3.539-4.326c0-0.018,0-0.037,0-0.058c0.595,0.333,1.275,0.53,1.998,0.553 c-1.184-0.79-1.963-2.142-1.963-3.671c0-0.809,0.219-1.566,0.598-2.219c2.176,2.67,5.428,4.426,9.092,4.609 c-0.074-0.322-0.113-0.658-0.113-1.006c0-2.435,1.975-4.41,4.412-4.41c1.27,0,2.414,0.536,3.219,1.394 c1.006-0.198,1.949-0.565,2.801-1.071c-0.329,1.03-1.029,1.895-1.938,2.441c0.89-0.107,1.742-0.344,2.532-0.695 C26.158,10.217,25.412,10.993,24.549,11.616z"/></svg></svg>