<?xml version="1.0" encoding="UTF-8" standalone="no"?>
<!-- Created with Inkscape (http://www.inkscape.org/) -->

<svg
   xmlns:dc="http://purl.org/dc/elements/1.1/"
   xmlns:cc="http://creativecommons.org/ns#"
   xmlns:rdf="http://www.w3.org/1999/02/22-rdf-syntax-ns#"
   xmlns:svg="http://www.w3.org/2000/svg"
   xmlns="http://www.w3.org/2000/svg"
   xmlns:sodipodi="http://sodipodi.sourceforge.net/DTD/sodipodi-0.dtd"
   xmlns:inkscape="http://www.inkscape.org/namespaces/inkscape"
   width="102.66779mm"
   height="35.681282mm"
   viewBox="0 0 363.78352 126.42974"
   id="svg2"
   version="1.1"
   inkscape:version="0.91 r13725"
   sodipodi:docname="01_04-strings-slice1.svg"
   inkscape:export-filename="/home/tina/coderdojo/repo/coderdojo-nbg.org/JavaScript-Sushi/01-beginner/01_04-strings-slice1.png"
   inkscape:export-xdpi="299"
   inkscape:export-ydpi="299">
  <defs
     id="defs4">
    <marker
       inkscape:stockid="Arrow1Mend"
       orient="auto"
       refY="0"
       refX="0"
       id="Arrow1Mend"
       style="overflow:visible"
       inkscape:isstock="true">
      <path
         id="path4313"
         d="M 0,0 5,-5 -12.5,0 5,5 0,0 Z"
         style="fill:#000000;fill-opacity:1;fill-rule:evenodd;stroke:#000000;stroke-width:1pt;stroke-opacity:1"
         transform="matrix(-0.4,0,0,-0.4,-4,0)"
         inkscape:connector-curvature="0" />
    </marker>
  </defs>
  <sodipodi:namedview
     id="base"
     pagecolor="#ffffff"
     bordercolor="#666666"
     borderopacity="1.0"
     inkscape:pageopacity="0.0"
     inkscape:pageshadow="2"
     inkscape:zoom="2.2941406"
     inkscape:cx="268.04763"
     inkscape:cy="59.182862"
     inkscape:document-units="px"
     inkscape:current-layer="layer1"
     showgrid="false"
     fit-margin-top="0"
     fit-margin-left="0"
     fit-margin-right="0"
     fit-margin-bottom="0" />
  <metadata
     id="metadata7">
    <rdf:RDF>
      <cc:Work
         rdf:about="">
        <dc:format>image/svg+xml</dc:format>
        <dc:type
           rdf:resource="http://purl.org/dc/dcmitype/StillImage" />
        <dc:title></dc:title>
      </cc:Work>
    </rdf:RDF>
  </metadata>
  <g
     inkscape:label="Ebene 1"
     inkscape:groupmode="layer"
     id="layer1"
     transform="translate(-76.006126,-294.71677)">
    <g
       id="g4618">
      <g
         id="text4136"
         style="font-style:normal;font-variant:normal;font-weight:bold;font-stretch:normal;font-size:20px;line-height:125%;font-family:'Bitstream Vera Sans';-inkscape-font-specification:'Bitstream Vera Sans, Bold';text-align:start;letter-spacing:1.28999996px;word-spacing:0px;writing-mode:lr-tb;text-anchor:start;fill:#000000;fill-opacity:1;stroke:none;stroke-width:1px;stroke-linecap:butt;stroke-linejoin:miter;stroke-opacity:1">
        <path
           id="path4252"
           d="m 82.617455,402.25003 0,5.41992 -2.314454,0 0,-5.41992 2.314454,0 z m -4.296875,0 0,5.41992 -2.314454,0 0,-5.41992 2.314454,0 z"
           inkscape:connector-curvature="0" />
        <path
           id="path4254"
           d="m 98.419173,411.33206 0,0.9961 -8.173828,0 q 0.126953,1.23046 0.888672,1.8457 0.761719,0.61523 2.128906,0.61523 1.103516,0 2.25586,-0.32226 1.162109,-0.33203 2.382812,-0.9961 l 0,2.69532 q -1.240234,0.46875 -2.480469,0.70312 -1.240234,0.24414 -2.480468,0.24414 -2.96875,0 -4.619141,-1.5039 -1.640625,-1.51368 -1.640625,-4.23829 0,-2.67578 1.611328,-4.20898 1.621094,-1.5332 4.453125,-1.5332 2.578125,0 4.121094,1.55273 1.552734,1.55274 1.552734,4.15039 z m -3.59375,-1.16211 q 0,-0.99609 -0.585937,-1.60156 -0.576172,-0.61523 -1.513672,-0.61523 -1.015625,0 -1.650391,0.57617 -0.634765,0.5664 -0.791015,1.64062 l 4.541015,0 z"
           inkscape:connector-curvature="0" />
        <path
           id="path4256"
           d="m 102.34589,405.89261 3.4961,0 0,10.9375 -3.4961,0 0,-10.9375 z m 0,-4.25781 3.4961,0 0,2.85156 -3.4961,0 0,-2.85156 z"
           inkscape:connector-curvature="0" />
        <path
           id="path4258"
           d="m 121.50698,410.16995 0,6.66016 -3.51562,0 0,-1.08399 0,-4.01367 q 0,-1.41601 -0.0684,-1.95312 -0.0586,-0.53711 -0.21484,-0.79102 -0.20508,-0.3418 -0.55664,-0.52734 -0.35157,-0.19531 -0.80079,-0.19531 -1.09375,0 -1.71875,0.8496 -0.625,0.83985 -0.625,2.33399 l 0,5.38086 -3.49609,0 0,-10.9375 3.49609,0 0,1.60156 q 0.79102,-0.95703 1.67969,-1.40625 0.88867,-0.45898 1.96289,-0.45898 1.89453,0 2.8711,1.16211 0.98632,1.16211 0.98632,3.3789 z"
           inkscape:connector-curvature="0" />
        <path
           id="path4260"
           d="m 144.60456,402.70901 0,3.08594 q -1.20117,-0.53711 -2.34375,-0.81054 -1.14257,-0.27344 -2.1582,-0.27344 -1.34765,0 -1.99219,0.37109 -0.64453,0.3711 -0.64453,1.15235 0,0.58593 0.42969,0.91796 0.43945,0.32227 1.58203,0.55664 l 1.60156,0.32227 q 2.43164,0.48828 3.45704,1.48438 1.02539,0.99609 1.02539,2.83203 0,2.41211 -1.43555,3.59375 -1.42578,1.17187 -4.36524,1.17187 -1.38671,0 -2.7832,-0.26367 -1.39648,-0.26367 -2.79297,-0.78125 l 0,-3.17383 q 1.39649,0.74219 2.69532,1.12305 1.30859,0.37109 2.51953,0.37109 1.23047,0 1.88476,-0.41015 0.6543,-0.41016 0.6543,-1.17188 0,-0.68359 -0.44922,-1.05469 -0.43945,-0.37109 -1.76758,-0.66406 l -1.45508,-0.32226 q -2.1875,-0.46875 -3.20312,-1.49415 -1.00586,-1.02539 -1.00586,-2.76367 0,-2.17773 1.40625,-3.34961 1.40625,-1.17187 4.04297,-1.17187 1.20117,0 2.4707,0.18555 1.26953,0.17578 2.62695,0.5371 z"
           inkscape:connector-curvature="0" />
        <path
           id="path4262"
           d="m 153.82425,402.78714 0,3.10547 3.60351,0 0,2.5 -3.60351,0 0,4.63867 q 0,0.76172 0.30273,1.03516 0.30274,0.26367 1.20118,0.26367 l 1.79687,0 0,2.5 -2.99805,0 q -2.07031,0 -2.93945,-0.85938 -0.85937,-0.86914 -0.85937,-2.93945 l 0,-4.63867 -1.73829,0 0,-2.5 1.73829,0 0,-3.10547 3.49609,0 z"
           inkscape:connector-curvature="0" />
        <path
           id="path4264"
           d="m 168.9912,408.87112 q -0.45898,-0.21484 -0.91797,-0.3125 -0.44921,-0.10742 -0.9082,-0.10742 -1.34765,0 -2.08008,0.86914 -0.72265,0.85938 -0.72265,2.47071 l 0,5.03906 -3.4961,0 0,-10.9375 3.4961,0 0,1.79687 q 0.67383,-1.07422 1.54297,-1.5625 0.8789,-0.49804 2.09961,-0.49804 0.17578,0 0.38085,0.0195 0.20508,0.01 0.59571,0.0586 l 0.01,3.16406 z"
           inkscape:connector-curvature="0" />
        <path
           id="path4266"
           d="m 172.03902,405.89261 3.49609,0 0,10.9375 -3.49609,0 0,-10.9375 z m 0,-4.25781 3.49609,0 0,2.85156 -3.49609,0 0,-2.85156 z"
           inkscape:connector-curvature="0" />
        <path
           id="path4268"
           d="m 191.20011,410.16995 0,6.66016 -3.51562,0 0,-1.08399 0,-4.01367 q 0,-1.41601 -0.0684,-1.95312 -0.0586,-0.53711 -0.21485,-0.79102 -0.20507,-0.3418 -0.55664,-0.52734 -0.35156,-0.19531 -0.80078,-0.19531 -1.09375,0 -1.71875,0.8496 -0.625,0.83985 -0.625,2.33399 l 0,5.38086 -3.49609,0 0,-10.9375 3.49609,0 0,1.60156 q 0.79102,-0.95703 1.67969,-1.40625 0.88867,-0.45898 1.96289,-0.45898 1.89453,0 2.87109,1.16211 0.98633,1.16211 0.98633,3.3789 z"
           inkscape:connector-curvature="0" />
        <path
           id="path4270"
           d="m 203.19324,414.97464 q -0.72266,0.95703 -1.5918,1.40625 -0.86914,0.44922 -2.01172,0.44922 -2.00195,0 -3.31055,-1.57227 -1.30859,-1.58203 -1.30859,-4.02343 0,-2.45118 1.30859,-4.01368 1.3086,-1.57226 3.31055,-1.57226 1.14258,0 2.01172,0.44922 0.86914,0.44922 1.5918,1.41601 l 0,-1.62109 3.51562,0 0,9.83398 q 0,2.63672 -1.66992,4.02344 -1.66016,1.39648 -4.82422,1.39648 -1.02539,0 -1.98242,-0.15625 -0.95703,-0.15625 -1.92383,-0.47851 l 0,-2.72461 q 0.91797,0.52734 1.79688,0.78125 0.8789,0.26367 1.76757,0.26367 1.71875,0 2.51954,-0.75195 0.80078,-0.75195 0.80078,-2.35352 l 0,-0.75195 z m -2.30469,-6.80664 q -1.08398,0 -1.68945,0.80078 -0.60547,0.80078 -0.60547,2.26563 0,1.5039 0.58594,2.28515 0.58593,0.77149 1.70898,0.77149 1.09375,0 1.69922,-0.80079 0.60547,-0.80078 0.60547,-2.25585 0,-1.46485 -0.60547,-2.26563 -0.60547,-0.80078 -1.69922,-0.80078 z"
           inkscape:connector-curvature="0" />
        <path
           id="path4272"
           d="m 218.21371,402.25003 0,5.41992 -2.31446,0 0,-5.41992 2.31446,0 z m -4.29688,0 0,5.41992 -2.31445,0 0,-5.41992 2.31445,0 z"
           inkscape:connector-curvature="0" />
        <path
           id="path4274"
           d="m 223.45878,413.05081 3.51562,0 0,3.7793 -3.51562,0 0,-3.7793 z"
           inkscape:connector-curvature="0" />
        <path
           id="path4276"
           d="m 240.54957,406.23441 0,2.65625 q -1.12305,-0.46875 -2.16797,-0.70313 -1.04492,-0.23437 -1.97266,-0.23437 -0.99609,0 -1.48437,0.2539 -0.47852,0.24414 -0.47852,0.76172 0,0.41992 0.36133,0.64453 0.37109,0.22461 1.31836,0.33203 l 0.61523,0.0879 q 2.68555,0.3418 3.61329,1.12305 0.92773,0.78125 0.92773,2.45117 0,1.74805 -1.28906,2.62696 -1.28906,0.8789 -3.84766,0.8789 -1.08398,0 -2.24609,-0.17578 -1.15235,-0.16602 -2.37305,-0.50781 l 0,-2.65625 q 1.04492,0.50781 2.13867,0.76172 1.10352,0.2539 2.23633,0.2539 1.02539,0 1.54297,-0.2832 0.51758,-0.2832 0.51758,-0.83984 0,-0.46875 -0.36133,-0.69336 -0.35156,-0.23438 -1.41602,-0.36133 l -0.61523,-0.0781 q -2.33398,-0.29297 -3.27148,-1.08398 -0.9375,-0.79102 -0.9375,-2.40234 0,-1.73829 1.1914,-2.57813 1.19141,-0.83984 3.65235,-0.83984 0.96679,0 2.03125,0.14648 1.06445,0.14649 2.31445,0.45899 z"
           inkscape:connector-curvature="0" />
        <path
           id="path4278"
           d="m 245.2087,401.6348 3.4961,0 0,15.19531 -3.4961,0 0,-15.19531 z"
           inkscape:connector-curvature="0" />
        <path
           id="path4280"
           d="m 253.37371,405.89261 3.49609,0 0,10.9375 -3.49609,0 0,-10.9375 z m 0,-4.25781 3.49609,0 0,2.85156 -3.49609,0 0,-2.85156 z"
           inkscape:connector-curvature="0" />
        <path
           id="path4282"
           d="m 270.37659,406.23441 0,2.85156 q -0.71289,-0.48828 -1.43554,-0.72266 -0.71289,-0.23437 -1.48438,-0.23437 -1.46484,0 -2.28515,0.85937 -0.81055,0.84961 -0.81055,2.38281 0,1.53321 0.81055,2.39258 0.82031,0.84961 2.28515,0.84961 0.82032,0 1.55274,-0.24414 0.74218,-0.24414 1.36718,-0.72266 l 0,2.86133 q -0.82031,0.30274 -1.66992,0.44922 -0.83984,0.15625 -1.68945,0.15625 -2.95898,0 -4.62891,-1.51367 -1.66992,-1.52344 -1.66992,-4.22852 0,-2.70507 1.66992,-4.21875 1.66993,-1.52343 4.62891,-1.52343 0.85937,0 1.68945,0.15625 0.83985,0.14648 1.66992,0.44922 z"
           inkscape:connector-curvature="0" />
        <path
           id="path4284"
           d="m 285.62167,411.33206 0,0.9961 -8.17383,0 q 0.12695,1.23046 0.88867,1.8457 0.76172,0.61523 2.12891,0.61523 1.10351,0 2.25586,-0.32226 1.1621,-0.33203 2.38281,-0.9961 l 0,2.69532 q -1.24024,0.46875 -2.48047,0.70312 -1.24024,0.24414 -2.48047,0.24414 -2.96875,0 -4.61914,-1.5039 -1.64063,-1.51368 -1.64063,-4.23829 0,-2.67578 1.61133,-4.20898 1.6211,-1.5332 4.45313,-1.5332 2.57812,0 4.12109,1.55273 1.55274,1.55274 1.55274,4.15039 z m -3.59375,-1.16211 q 0,-0.99609 -0.58594,-1.60156 -0.57617,-0.61523 -1.51367,-0.61523 -1.01563,0 -1.65039,0.57617 -0.63477,0.5664 -0.79102,1.64062 l 4.54102,0 z"
           inkscape:connector-curvature="0" />
        <path
           id="path4286"
           d="m 295.40777,419.46683 -2.90039,0 q -1.49414,-2.41211 -2.20703,-4.58008 -0.71289,-2.17774 -0.71289,-4.31641 0,-2.13867 0.71289,-4.32617 0.72265,-2.19726 2.20703,-4.58984 l 2.90039,0 q -1.25,2.31445 -1.875,4.53125 -0.625,2.20703 -0.625,4.36523 0,2.1582 0.61523,4.375 0.625,2.2168 1.88477,4.54102 z"
           inkscape:connector-curvature="0" />
        <path
           id="path4288"
           style="fill:#ff0000"
           d="m 300.64307,414.23245 3.32032,0 0,-9.42383 -3.40821,0.70313 0,-2.55859 3.38868,-0.70313 3.57421,0 0,11.98242 3.32032,0 0,2.59766 -10.19532,0 0,-2.59766 z"
           inkscape:connector-curvature="0" />
        <path
           id="path4290"
           d="m 315.5366,413.05081 3.51562,0 0,2.97852 -2.41211,3.64258 -2.08007,0 0.97656,-3.64258 0,-2.97852 z"
           inkscape:connector-curvature="0" />
        <path
           id="path4292"
           style="fill:#0000ff"
           d="m 332.76504,402.25003 9.3457,0 0,2.76367 -6.34766,0 0,2.25586 q 0.42969,-0.11719 0.85938,-0.17578 0.43945,-0.0684 0.9082,-0.0684 2.66602,0 4.15039,1.33789 1.48438,1.32813 1.48438,3.71094 0,2.36328 -1.6211,3.70117 -1.61132,1.33789 -4.48242,1.33789 -1.24023,0 -2.46093,-0.24414 -1.21094,-0.23437 -2.41211,-0.72266 l 0,-2.95898 q 1.1914,0.68359 2.25586,1.02539 1.07421,0.3418 2.02148,0.3418 1.36719,0 2.14844,-0.66406 0.79101,-0.67383 0.79101,-1.81641 0,-1.15234 -0.79101,-1.81641 -0.78125,-0.66406 -2.14844,-0.66406 -0.81055,0 -1.72852,0.21484 -0.91796,0.20508 -1.97265,0.64454 l 0,-8.20313 z"
           inkscape:connector-curvature="0" />
        <path
           id="path4294"
           d="m 347.44372,419.46683 q 1.25,-2.32422 1.875,-4.54102 0.625,-2.2168 0.625,-4.375 0,-2.1582 -0.625,-4.36523 -0.625,-2.2168 -1.875,-4.53125 l 2.90039,0 q 1.48437,2.39258 2.19726,4.58984 0.72266,2.1875 0.72266,4.32617 0,2.13867 -0.71289,4.31641 -0.71289,2.16797 -2.20703,4.58008 l -2.90039,0 z"
           inkscape:connector-curvature="0" />
        <path
           id="path4296"
           d="m 358.31377,413.05081 3.51563,0 0,2.97852 -2.41211,3.64258 -2.08008,0 0.97656,-3.64258 0,-2.97852 z"
           inkscape:connector-curvature="0" />
      </g>
      <g
         id="text4144"
         style="font-style:normal;font-variant:normal;font-weight:normal;font-stretch:normal;font-size:15px;line-height:125%;font-family:'Bitstream Vera Sans';-inkscape-font-specification:'Bitstream Vera Sans, Normal';text-align:center;letter-spacing:1.28999996px;word-spacing:0px;writing-mode:lr-tb;text-anchor:middle;fill:#000000;fill-opacity:1;stroke:none;stroke-width:1px;stroke-linecap:butt;stroke-linejoin:miter;stroke-opacity:1">
        <path
           id="path4157"
           d="m 217.45608,296.39401 0,8.50342 1.78711,0 q 2.26318,0 3.31054,-1.02539 1.05469,-1.02539 1.05469,-3.2373 0,-2.19727 -1.05469,-3.21534 -1.04736,-1.02539 -3.31054,-1.02539 l -1.78711,0 z m -1.4795,-1.21582 3.03956,0 q 3.17871,0 4.66552,1.32569 1.48682,1.31836 1.48682,4.13086 0,2.82714 -1.49414,4.15283 -1.49414,1.32568 -4.6582,1.32568 l -3.03956,0 0,-10.93506 z"
           inkscape:connector-curvature="0" />
        <path
           id="path4159"
           d="m 228.75096,297.91013 1.34766,0 0,8.20312 -1.34766,0 0,-8.20312 z m 0,-3.19336 1.34766,0 0,1.70654 -1.34766,0 0,-1.70654 z"
           inkscape:connector-curvature="0" />
        <path
           id="path4161"
           d="m 241.21772,301.67477 0,0.65918 -6.19629,0 q 0.0879,1.39161 0.83496,2.12403 0.75439,0.72509 2.09473,0.72509 0.77636,0 1.50146,-0.19042 0.73242,-0.19043 1.4502,-0.57129 l 0,1.27441 q -0.7251,0.30762 -1.48682,0.46875 -0.76172,0.16113 -1.54541,0.16113 -1.96289,0 -3.11279,-1.14258 -1.14258,-1.14257 -1.14258,-3.09082 0,-2.01416 1.08398,-3.19335 1.09131,-1.18653 2.93701,-1.18653 1.65528,0 2.61475,1.06934 0.9668,1.06201 0.9668,2.89306 z m -1.34766,-0.3955 q -0.0146,-1.10596 -0.62256,-1.76514 -0.60058,-0.65918 -1.59668,-0.65918 -1.12793,0 -1.80908,0.63721 -0.67383,0.6372 -0.77637,1.79443 l 4.80469,-0.007 z"
           inkscape:connector-curvature="0" />
        <path
           id="path4163"
           d="m 249.94912,298.15182 0,1.27442 q -0.57129,-0.29297 -1.18652,-0.43945 -0.61523,-0.14649 -1.27441,-0.14649 -1.00342,0 -1.50879,0.30762 -0.49805,0.30762 -0.49805,0.92285 0,0.46875 0.35889,0.73975 0.35888,0.26367 1.44287,0.50537 l 0.46142,0.10254 q 1.43555,0.30761 2.03614,0.87158 0.60791,0.55664 0.60791,1.56006 0,1.14258 -0.90821,1.80908 -0.90088,0.6665 -2.48291,0.6665 -0.65918,0 -1.37695,-0.13183 -0.71045,-0.12451 -1.50147,-0.38086 l 0,-1.3916 q 0.74708,0.38818 1.47217,0.58593 0.7251,0.19043 1.43555,0.19043 0.95215,0 1.46484,-0.32226 0.5127,-0.32959 0.5127,-0.92285 0,-0.54932 -0.37354,-0.84229 -0.36621,-0.29297 -1.61865,-0.56396 l -0.46875,-0.10987 q -1.25244,-0.26367 -1.80908,-0.80566 -0.55664,-0.54932 -0.55664,-1.50147 0,-1.15722 0.82031,-1.78711 0.82031,-0.62988 2.3291,-0.62988 0.74707,0 1.40625,0.10987 0.65918,0.10986 1.21582,0.32958 z"
           inkscape:connector-curvature="0" />
        <path
           id="path4165"
           d="m 260.8485,301.67477 0,0.65918 -6.19629,0 q 0.0879,1.39161 0.83496,2.12403 0.7544,0.72509 2.09473,0.72509 0.77636,0 1.50146,-0.19042 0.73242,-0.19043 1.4502,-0.57129 l 0,1.27441 q -0.7251,0.30762 -1.48682,0.46875 -0.76172,0.16113 -1.54541,0.16113 -1.96289,0 -3.11279,-1.14258 -1.14258,-1.14257 -1.14258,-3.09082 0,-2.01416 1.08398,-3.19335 1.09131,-1.18653 2.93702,-1.18653 1.65527,0 2.61474,1.06934 0.9668,1.06201 0.9668,2.89306 z m -1.34766,-0.3955 q -0.0146,-1.10596 -0.62256,-1.76514 -0.60058,-0.65918 -1.59668,-0.65918 -1.12793,0 -1.80908,0.63721 -0.67383,0.6372 -0.77636,1.79443 l 4.80468,-0.007 z"
           inkscape:connector-curvature="0" />
        <path
           id="path4167"
           d="m 276.30447,302.01901 q 0,-1.48681 -0.61523,-2.3291 -0.60791,-0.84961 -1.67725,-0.84961 -1.06933,0 -1.68457,0.84961 -0.60791,0.84229 -0.60791,2.3291 0,1.48682 0.60791,2.33643 0.61524,0.84228 1.68457,0.84228 1.06934,0 1.67725,-0.84228 0.61523,-0.84961 0.61523,-2.33643 z m -4.58496,-2.86377 q 0.42481,-0.73242 1.06934,-1.08398 0.65185,-0.35889 1.55273,-0.35889 1.49414,0 2.42432,1.18653 0.9375,1.18652 0.9375,3.12011 0,1.9336 -0.9375,3.12012 -0.93018,1.18652 -2.42432,1.18652 -0.90088,0 -1.55273,-0.35156 -0.64453,-0.35889 -1.06934,-1.09131 l 0,1.23047 -1.35498,0 0,-11.39648 1.35498,0 0,4.43847 z"
           inkscape:connector-curvature="0" />
        <path
           id="path4169"
           d="m 288.24389,301.67477 0,0.65918 -6.19629,0 q 0.0879,1.39161 0.83496,2.12403 0.75439,0.72509 2.09473,0.72509 0.77636,0 1.50146,-0.19042 0.73242,-0.19043 1.4502,-0.57129 l 0,1.27441 q -0.7251,0.30762 -1.48682,0.46875 -0.76172,0.16113 -1.54541,0.16113 -1.96289,0 -3.11279,-1.14258 -1.14258,-1.14257 -1.14258,-3.09082 0,-2.01416 1.08398,-3.19335 1.09131,-1.18653 2.93702,-1.18653 1.65527,0 2.61474,1.06934 0.9668,1.06201 0.9668,2.89306 z m -1.34766,-0.3955 q -0.0147,-1.10596 -0.62256,-1.76514 -0.60058,-0.65918 -1.59668,-0.65918 -1.12793,0 -1.80908,0.63721 -0.67383,0.6372 -0.77637,1.79443 l 4.80469,-0.007 z"
           inkscape:connector-curvature="0" />
        <path
           id="path4171"
           d="m 291.7458,297.91013 1.34766,0 0,8.20312 -1.34766,0 0,-8.20312 z m 0,-3.19336 1.34766,0 0,1.70654 -1.34766,0 0,-1.70654 z"
           inkscape:connector-curvature="0" />
        <path
           id="path4173"
           d="m 302.59391,299.15524 0,-4.43847 1.34766,0 0,11.39648 -1.34766,0 0,-1.23047 q -0.4248,0.73242 -1.07666,1.09131 -0.64453,0.35156 -1.55273,0.35156 -1.48682,0 -2.42432,-1.18652 -0.93018,-1.18652 -0.93018,-3.12012 0,-1.93359 0.93018,-3.12011 0.9375,-1.18653 2.42432,-1.18653 0.9082,0 1.55273,0.35889 0.65186,0.35156 1.07666,1.08398 z m -4.59229,2.86377 q 0,1.48682 0.60791,2.33643 0.61524,0.84228 1.68458,0.84228 1.06933,0 1.68457,-0.84228 0.61523,-0.84961 0.61523,-2.33643 0,-1.48681 -0.61523,-2.3291 -0.61524,-0.84961 -1.68457,-0.84961 -1.06934,0 -1.68458,0.84961 -0.60791,0.84229 -0.60791,2.3291 z"
           inkscape:connector-curvature="0" />
        <path
           id="path4175"
           d="m 315.02405,301.67477 0,0.65918 -6.19629,0 q 0.0879,1.39161 0.83496,2.12403 0.75439,0.72509 2.09473,0.72509 0.77636,0 1.50146,-0.19042 0.73242,-0.19043 1.4502,-0.57129 l 0,1.27441 q -0.7251,0.30762 -1.48682,0.46875 -0.76172,0.16113 -1.54541,0.16113 -1.96289,0 -3.11279,-1.14258 -1.14258,-1.14257 -1.14258,-3.09082 0,-2.01416 1.08398,-3.19335 1.09131,-1.18653 2.93701,-1.18653 1.65528,0 2.61475,1.06934 0.9668,1.06201 0.9668,2.89306 z m -1.34766,-0.3955 q -0.0147,-1.10596 -0.62256,-1.76514 -0.60058,-0.65918 -1.59668,-0.65918 -1.12793,0 -1.80908,0.63721 -0.67383,0.6372 -0.77637,1.79443 l 4.80469,-0.007 z"
           inkscape:connector-curvature="0" />
        <path
           id="path4177"
           d="m 324.02006,295.17819 8.59131,0 0,1.12793 -6.91407,8.56201 7.08252,0 0,1.24512 -8.92822,0 0,-1.12793 6.91406,-8.56201 -6.7456,0 0,-1.24512 z"
           inkscape:connector-curvature="0" />
        <path
           id="path4179"
           d="m 339.89258,301.98972 q -1.6333,0 -2.26319,0.37353 -0.62988,0.37354 -0.62988,1.27441 0,0.71778 0.46875,1.14258 0.47608,0.41748 1.28906,0.41748 1.12061,0 1.79444,-0.79101 0.68115,-0.79834 0.68115,-2.1167 l 0,-0.30029 -1.34033,0 z m 2.68799,-0.55665 0,4.68018 -1.34766,0 0,-1.24512 q -0.46143,0.74707 -1.1499,1.10596 -0.68848,0.35156 -1.68457,0.35156 -1.25977,0 -2.00684,-0.70312 -0.73975,-0.71045 -0.73975,-1.89697 0,-1.38428 0.92286,-2.08741 0.93017,-0.70312 2.76855,-0.70312 l 1.88965,0 0,-0.13184 q 0,-0.93017 -0.61523,-1.43554 -0.60791,-0.5127 -1.71387,-0.5127 -0.70313,0 -1.36963,0.16846 -0.6665,0.16845 -1.28174,0.50537 l 0,-1.24512 q 0.73975,-0.28564 1.43555,-0.4248 0.6958,-0.14649 1.35498,-0.14649 1.77978,0 2.65869,0.92285 0.87891,0.92285 0.87891,2.79785 z"
           inkscape:connector-curvature="0" />
        <path
           id="path4181"
           d="m 353.47262,301.16208 0,4.95117 -1.34766,0 0,-4.90723 q 0,-1.16455 -0.4541,-1.74316 -0.4541,-0.57861 -1.3623,-0.57861 -1.09131,0 -1.7212,0.6958 -0.62988,0.6958 -0.62988,1.89697 l 0,4.63623 -1.35498,0 0,-11.39648 1.35498,0 0,4.46777 q 0.4834,-0.73975 1.13525,-1.10596 0.65918,-0.36621 1.51612,-0.36621 1.41357,0 2.13867,0.87891 0.7251,0.87158 0.7251,2.5708 z"
           inkscape:connector-curvature="0" />
        <path
           id="path4183"
           d="m 357.46526,294.71677 1.34766,0 0,11.39648 -1.34766,0 0,-11.39648 z"
           inkscape:connector-curvature="0" />
        <path
           id="path4185"
           d="m 369.93201,301.67477 0,0.65918 -6.19629,0 q 0.0879,1.39161 0.83497,2.12403 0.75439,0.72509 2.09472,0.72509 0.77637,0 1.50147,-0.19042 0.73242,-0.19043 1.45019,-0.57129 l 0,1.27441 q -0.7251,0.30762 -1.48681,0.46875 -0.76172,0.16113 -1.54541,0.16113 -1.96289,0 -3.1128,-1.14258 -1.14258,-1.14257 -1.14258,-3.09082 0,-2.01416 1.08399,-3.19335 1.09131,-1.18653 2.93701,-1.18653 1.65527,0 2.61475,1.06934 0.96679,1.06201 0.96679,2.89306 z m -1.34765,-0.3955 q -0.0147,-1.10596 -0.62256,-1.76514 -0.60059,-0.65918 -1.59668,-0.65918 -1.12793,0 -1.80908,0.63721 -0.67383,0.6372 -0.77637,1.79443 l 4.80469,-0.007 z"
           inkscape:connector-curvature="0" />
        <path
           id="path4187"
           d="m 380.25277,301.16208 0,4.95117 -1.34766,0 0,-4.90723 q 0,-1.16455 -0.4541,-1.74316 -0.4541,-0.57861 -1.3623,-0.57861 -1.09131,0 -1.72119,0.6958 -0.62989,0.6958 -0.62989,1.89697 l 0,4.63623 -1.35498,0 0,-8.20312 1.35498,0 0,1.27441 q 0.4834,-0.73975 1.13526,-1.10596 0.65918,-0.36621 1.51611,-0.36621 1.41357,0 2.13867,0.87891 0.7251,0.87158 0.7251,2.5708 z"
           inkscape:connector-curvature="0" />
        <path
           id="path4189"
           d="m 395.70875,301.91647 q 0,-1.46484 -0.60791,-2.2705 -0.60059,-0.80567 -1.6919,-0.80567 -1.08398,0 -1.69189,0.80567 -0.60059,0.80566 -0.60059,2.2705 0,1.45752 0.60059,2.26319 0.60791,0.80566 1.69189,0.80566 1.09131,0 1.6919,-0.80566 0.60791,-0.80567 0.60791,-2.26319 z m 1.34765,3.17871 q 0,2.09473 -0.93017,3.1128 -0.93018,1.02539 -2.84912,1.02539 -0.71045,0 -1.34034,-0.10987 -0.62988,-0.10253 -1.22314,-0.32226 l 0,-1.31104 q 0.59326,0.32227 1.17188,0.47608 0.57861,0.15381 1.17919,0.15381 1.32569,0 1.98487,-0.6958 0.65918,-0.68848 0.65918,-2.08741 l 0,-0.6665 q -0.41748,0.7251 -1.06934,1.08398 -0.65185,0.35889 -1.56006,0.35889 -1.50879,0 -2.43164,-1.1499 -0.92285,-1.1499 -0.92285,-3.04688 0,-1.90429 0.92285,-3.0542 0.92285,-1.1499 2.43164,-1.1499 0.90821,0 1.56006,0.35889 0.65186,0.35889 1.06934,1.08398 l 0,-1.24511 1.34765,0 0,7.18505 z"
           inkscape:connector-curvature="0" />
        <path
           id="path4191"
           d="m 408.13889,301.67477 0,0.65918 -6.19629,0 q 0.0879,1.39161 0.83496,2.12403 0.7544,0.72509 2.09473,0.72509 0.77637,0 1.50147,-0.19042 0.73242,-0.19043 1.45019,-0.57129 l 0,1.27441 q -0.7251,0.30762 -1.48682,0.46875 -0.76171,0.16113 -1.54541,0.16113 -1.96289,0 -3.11279,-1.14258 -1.14258,-1.14257 -1.14258,-3.09082 0,-2.01416 1.08399,-3.19335 1.09131,-1.18653 2.93701,-1.18653 1.65527,0 2.61475,1.06934 0.96679,1.06201 0.96679,2.89306 z m -1.34765,-0.3955 q -0.0147,-1.10596 -0.62256,-1.76514 -0.60059,-0.65918 -1.59668,-0.65918 -1.12793,0 -1.80908,0.63721 -0.67383,0.6372 -0.77637,1.79443 l 4.80469,-0.007 z"
           inkscape:connector-curvature="0" />
        <path
           id="path4193"
           d="m 417.52947,302.01901 q 0,-1.48681 -0.61523,-2.3291 -0.60791,-0.84961 -1.67725,-0.84961 -1.06933,0 -1.68457,0.84961 -0.60791,0.84229 -0.60791,2.3291 0,1.48682 0.60791,2.33643 0.61524,0.84228 1.68457,0.84228 1.06934,0 1.67725,-0.84228 0.61523,-0.84961 0.61523,-2.33643 z m -4.58496,-2.86377 q 0.42481,-0.73242 1.06934,-1.08398 0.65185,-0.35889 1.55273,-0.35889 1.49414,0 2.42432,1.18653 0.9375,1.18652 0.9375,3.12011 0,1.9336 -0.9375,3.12012 -0.93018,1.18652 -2.42432,1.18652 -0.90088,0 -1.55273,-0.35156 -0.64453,-0.35889 -1.06934,-1.09131 l 0,1.23047 -1.35498,0 0,-11.39648 1.35498,0 0,4.43847 z"
           inkscape:connector-curvature="0" />
        <path
           id="path4195"
           d="m 429.46889,301.67477 0,0.65918 -6.19628,0 q 0.0879,1.39161 0.83496,2.12403 0.75439,0.72509 2.09472,0.72509 0.77637,0 1.50147,-0.19042 0.73242,-0.19043 1.45019,-0.57129 l 0,1.27441 q -0.72509,0.30762 -1.48681,0.46875 -0.76172,0.16113 -1.54541,0.16113 -1.96289,0 -3.1128,-1.14258 -1.14257,-1.14257 -1.14257,-3.09082 0,-2.01416 1.08398,-3.19335 1.09131,-1.18653 2.93701,-1.18653 1.65527,0 2.61475,1.06934 0.96679,1.06201 0.96679,2.89306 z m -1.34765,-0.3955 q -0.0147,-1.10596 -0.62256,-1.76514 -0.60059,-0.65918 -1.59668,-0.65918 -1.12793,0 -1.80908,0.63721 -0.67383,0.6372 -0.77637,1.79443 l 4.80469,-0.007 z"
           inkscape:connector-curvature="0" />
        <path
           id="path4197"
           d="m 439.78965,301.16208 0,4.95117 -1.34766,0 0,-4.90723 q 0,-1.16455 -0.4541,-1.74316 -0.4541,-0.57861 -1.3623,-0.57861 -1.09131,0 -1.72119,0.6958 -0.62989,0.6958 -0.62989,1.89697 l 0,4.63623 -1.35498,0 0,-8.20312 1.35498,0 0,1.27441 q 0.4834,-0.73975 1.13526,-1.10596 0.65918,-0.36621 1.51611,-0.36621 1.41357,0 2.13867,0.87891 0.7251,0.87158 0.7251,2.5708 z"
           inkscape:connector-curvature="0" />
        <path
           id="path4199"
           style="fill:#ff0000"
           d="m 241.04973,315.38571 -2.00684,5.4419 4.021,0 -2.01416,-5.4419 z m -0.83496,-1.45752 1.67724,0 4.16748,10.93506 -1.53808,0 -0.99609,-2.80518 -4.9292,0 -0.9961,2.80518 -1.56006,0 4.17481,-10.93506 z"
           inkscape:connector-curvature="0" />
        <path
           id="path4201"
           style="fill:#ff0000"
           d="m 255.6991,319.91208 0,4.95117 -1.34765,0 0,-4.90723 q 0,-1.16455 -0.4541,-1.74316 -0.45411,-0.57861 -1.36231,-0.57861 -1.09131,0 -1.72119,0.6958 -0.62988,0.6958 -0.62988,1.89697 l 0,4.63623 -1.35498,0 0,-8.20312 1.35498,0 0,1.27441 q 0.4834,-0.73975 1.13525,-1.10596 0.65918,-0.36621 1.51611,-0.36621 1.41358,0 2.13868,0.87891 0.72509,0.87158 0.72509,2.5708 z"
           inkscape:connector-curvature="0" />
        <path
           id="path4203"
           style="fill:#ff0000"
           d="m 263.84457,313.46677 0,1.1206 -1.28906,0 q -0.7251,0 -1.01074,0.29297 -0.27832,0.29297 -0.27832,1.05469 l 0,0.7251 2.21924,0 0,1.04736 -2.21924,0 0,7.15576 -1.35498,0 0,-7.15576 -1.28906,0 0,-1.04736 1.28906,0 0,-0.57129 q 0,-1.36963 0.6372,-1.99219 0.63721,-0.62988 2.02149,-0.62988 l 1.27441,0 z"
           inkscape:connector-curvature="0" />
        <path
           id="path4205"
           style="fill:#ff0000"
           d="m 269.9832,320.73972 q -1.6333,0 -2.26318,0.37353 -0.62988,0.37354 -0.62988,1.27441 0,0.71778 0.46875,1.14258 0.47607,0.41748 1.28906,0.41748 1.12061,0 1.79443,-0.79101 0.68116,-0.79834 0.68116,-2.1167 l 0,-0.30029 -1.34034,0 z m 2.68799,-0.55665 0,4.68018 -1.34765,0 0,-1.24512 q -0.46143,0.74707 -1.14991,1.10596 -0.68847,0.35156 -1.68457,0.35156 -1.25976,0 -2.00683,-0.70312 -0.73975,-0.71045 -0.73975,-1.89697 0,-1.38428 0.92285,-2.08741 0.93018,-0.70312 2.76856,-0.70312 l 1.88965,0 0,-0.13184 q 0,-0.93017 -0.61524,-1.43554 -0.60791,-0.5127 -1.71386,-0.5127 -0.70313,0 -1.36963,0.16846 -0.66651,0.16845 -1.28174,0.50537 l 0,-1.24512 q 0.73974,-0.28564 1.43554,-0.4248 0.69581,-0.14649 1.35499,-0.14649 1.77978,0 2.65869,0.92285 0.8789,0.92285 0.8789,2.79785 z"
           inkscape:connector-curvature="0" />
        <path
           id="path4207"
           style="fill:#ff0000"
           d="m 283.56324,319.91208 0,4.95117 -1.34765,0 0,-4.90723 q 0,-1.16455 -0.4541,-1.74316 -0.4541,-0.57861 -1.36231,-0.57861 -1.09131,0 -1.72119,0.6958 -0.62988,0.6958 -0.62988,1.89697 l 0,4.63623 -1.35498,0 0,-8.20312 1.35498,0 0,1.27441 q 0.4834,-0.73975 1.13525,-1.10596 0.65918,-0.36621 1.51612,-0.36621 1.41357,0 2.13867,0.87891 0.72509,0.87158 0.72509,2.5708 z"
           inkscape:connector-curvature="0" />
        <path
           id="path4209"
           style="fill:#ff0000"
           d="m 292.95383,320.66647 q 0,-1.46484 -0.60791,-2.2705 -0.60058,-0.80567 -1.69189,-0.80567 -1.08399,0 -1.6919,0.80567 -0.60058,0.80566 -0.60058,2.2705 0,1.45752 0.60058,2.26319 0.60791,0.80566 1.6919,0.80566 1.09131,0 1.69189,-0.80566 0.60791,-0.80567 0.60791,-2.26319 z m 1.34766,3.17871 q 0,2.09473 -0.93018,3.1128 -0.93017,1.02539 -2.84912,1.02539 -0.71045,0 -1.34033,-0.10987 -0.62988,-0.10253 -1.22315,-0.32226 l 0,-1.31104 q 0.59327,0.32227 1.17188,0.47608 0.57861,0.15381 1.1792,0.15381 1.32568,0 1.98486,-0.6958 0.65918,-0.68848 0.65918,-2.08741 l 0,-0.6665 q -0.41748,0.7251 -1.06933,1.08398 -0.65186,0.35889 -1.56006,0.35889 -1.50879,0 -2.43164,-1.1499 -0.92286,-1.1499 -0.92286,-3.04688 0,-1.90429 0.92286,-3.0542 0.92285,-1.1499 2.43164,-1.1499 0.9082,0 1.56006,0.35889 0.65185,0.35889 1.06933,1.08398 l 0,-1.24511 1.34766,0 0,7.18505 z"
           inkscape:connector-curvature="0" />
        <path
           id="path4211"
           d="m 304.2936,321.62595 0,-4.96582 1.34765,0 0,4.91455 q 0,1.16455 0.4541,1.75048 0.4541,0.57862 1.36231,0.57862 1.09131,0 1.72119,-0.6958 0.63721,-0.6958 0.63721,-1.89698 l 0,-4.65087 1.34765,0 0,8.20312 -1.34765,0 0,-1.25976 q -0.49073,0.74707 -1.14258,1.11328 -0.64453,0.35888 -1.50147,0.35888 -1.41357,0 -2.14599,-0.8789 -0.73242,-0.87891 -0.73242,-2.5708 z"
           inkscape:connector-curvature="0" />
        <path
           id="path4213"
           d="m 322.06309,319.91208 0,4.95117 -1.34766,0 0,-4.90723 q 0,-1.16455 -0.4541,-1.74316 -0.4541,-0.57861 -1.3623,-0.57861 -1.09131,0 -1.7212,0.6958 -0.62988,0.6958 -0.62988,1.89697 l 0,4.63623 -1.35498,0 0,-8.20312 1.35498,0 0,1.27441 q 0.4834,-0.73975 1.13526,-1.10596 0.65918,-0.36621 1.51611,-0.36621 1.41357,0 2.13867,0.87891 0.7251,0.87158 0.7251,2.5708 z"
           inkscape:connector-curvature="0" />
        <path
           id="path4215"
           d="m 331.45368,317.90524 0,-4.43847 1.34765,0 0,11.39648 -1.34765,0 0,-1.23047 q -0.42481,0.73242 -1.07666,1.09131 -0.64454,0.35156 -1.55274,0.35156 -1.48682,0 -2.42432,-1.18652 -0.93017,-1.18652 -0.93017,-3.12012 0,-1.93359 0.93017,-3.12011 0.9375,-1.18653 2.42432,-1.18653 0.9082,0 1.55274,0.35889 0.65185,0.35156 1.07666,1.08398 z m -4.59229,2.86377 q 0,1.48682 0.60791,2.33643 0.61523,0.84228 1.68457,0.84228 1.06934,0 1.68457,-0.84228 0.61524,-0.84961 0.61524,-2.33643 0,-1.48681 -0.61524,-2.3291 -0.61523,-0.84961 -1.68457,-0.84961 -1.06934,0 -1.68457,0.84961 -0.60791,0.84229 -0.60791,2.3291 z"
           inkscape:connector-curvature="0" />
        <path
           id="path4217"
           style="fill:#0000ff"
           d="m 342.9912,313.92819 6.91406,0 0,1.24512 -5.43457,0 0,3.2373 5.20752,0 0,1.24512 -5.20752,0 0,3.9624 5.56641,0 0,1.24512 -7.0459,0 0,-10.93506 z"
           inkscape:connector-curvature="0" />
        <path
           id="path4219"
           style="fill:#0000ff"
           d="m 360.53363,319.91208 0,4.95117 -1.34765,0 0,-4.90723 q 0,-1.16455 -0.45411,-1.74316 -0.4541,-0.57861 -1.3623,-0.57861 -1.09131,0 -1.72119,0.6958 -0.62989,0.6958 -0.62989,1.89697 l 0,4.63623 -1.35498,0 0,-8.20312 1.35498,0 0,1.27441 q 0.4834,-0.73975 1.13526,-1.10596 0.65918,-0.36621 1.51611,-0.36621 1.41358,0 2.13867,0.87891 0.7251,0.87158 0.7251,2.5708 z"
           inkscape:connector-curvature="0" />
        <path
           id="path4221"
           style="fill:#0000ff"
           d="m 369.92422,317.90524 0,-4.43847 1.34765,0 0,11.39648 -1.34765,0 0,-1.23047 q -0.42481,0.73242 -1.07666,1.09131 -0.64453,0.35156 -1.55274,0.35156 -1.48681,0 -2.42431,-1.18652 -0.93018,-1.18652 -0.93018,-3.12012 0,-1.93359 0.93018,-3.12011 0.9375,-1.18653 2.42431,-1.18653 0.90821,0 1.55274,0.35889 0.65185,0.35156 1.07666,1.08398 z m -4.59229,2.86377 q 0,1.48682 0.60791,2.33643 0.61524,0.84228 1.68457,0.84228 1.06934,0 1.68457,-0.84228 0.61524,-0.84961 0.61524,-2.33643 0,-1.48681 -0.61524,-2.3291 -0.61523,-0.84961 -1.68457,-0.84961 -1.06933,0 -1.68457,0.84961 -0.60791,0.84229 -0.60791,2.3291 z"
           inkscape:connector-curvature="0" />
        <path
           id="path4223"
           style="fill:#0000ff"
           d="m 382.35436,320.42477 0,0.65918 -6.19629,0 q 0.0879,1.39161 0.83496,2.12403 0.75439,0.72509 2.09472,0.72509 0.77637,0 1.50147,-0.19042 0.73242,-0.19043 1.45019,-0.57129 l 0,1.27441 q -0.72509,0.30762 -1.48681,0.46875 -0.76172,0.16113 -1.54541,0.16113 -1.96289,0 -3.1128,-1.14258 -1.14257,-1.14257 -1.14257,-3.09082 0,-2.01416 1.08398,-3.19335 1.09131,-1.18653 2.93701,-1.18653 1.65528,0 2.61475,1.06934 0.9668,1.06201 0.9668,2.89306 z m -1.34766,-0.3955 q -0.0147,-1.10596 -0.62256,-1.76514 -0.60058,-0.65918 -1.59668,-0.65918 -1.12793,0 -1.80908,0.63721 -0.67383,0.6372 -0.77637,1.79443 l 4.80469,-0.007 z"
           inkscape:connector-curvature="0" />
        <path
           id="path4225"
           d="m 397.31961,317.90524 0,-4.43847 1.34766,0 0,11.39648 -1.34766,0 0,-1.23047 q -0.4248,0.73242 -1.07666,1.09131 -0.64453,0.35156 -1.55273,0.35156 -1.48682,0 -2.42432,-1.18652 -0.93018,-1.18652 -0.93018,-3.12012 0,-1.93359 0.93018,-3.12011 0.9375,-1.18653 2.42432,-1.18653 0.9082,0 1.55273,0.35889 0.65186,0.35156 1.07666,1.08398 z m -4.59228,2.86377 q 0,1.48682 0.60791,2.33643 0.61523,0.84228 1.68457,0.84228 1.06933,0 1.68457,-0.84228 0.61523,-0.84961 0.61523,-2.33643 0,-1.48681 -0.61523,-2.3291 -0.61524,-0.84961 -1.68457,-0.84961 -1.06934,0 -1.68457,0.84961 -0.60791,0.84229 -0.60791,2.3291 z"
           inkscape:connector-curvature="0" />
        <path
           id="path4227"
           d="m 409.74974,320.42477 0,0.65918 -6.19629,0 q 0.0879,1.39161 0.83496,2.12403 0.7544,0.72509 2.09473,0.72509 0.77637,0 1.50146,-0.19042 0.73243,-0.19043 1.4502,-0.57129 l 0,1.27441 q -0.7251,0.30762 -1.48682,0.46875 -0.76172,0.16113 -1.54541,0.16113 -1.96289,0 -3.11279,-1.14258 -1.14258,-1.14257 -1.14258,-3.09082 0,-2.01416 1.08399,-3.19335 1.09131,-1.18653 2.93701,-1.18653 1.65527,0 2.61474,1.06934 0.9668,1.06201 0.9668,2.89306 z m -1.34765,-0.3955 q -0.0146,-1.10596 -0.62256,-1.76514 -0.60059,-0.65918 -1.59668,-0.65918 -1.12793,0 -1.80909,0.63721 -0.67382,0.6372 -0.77636,1.79443 l 4.80469,-0.007 z"
           inkscape:connector-curvature="0" />
        <path
           id="path4229"
           d="m 418.48116,316.90182 0,1.27442 q -0.57129,-0.29297 -1.18653,-0.43945 -0.61523,-0.14649 -1.27441,-0.14649 -1.00342,0 -1.50879,0.30762 -0.49805,0.30762 -0.49805,0.92285 0,0.46875 0.35889,0.73975 0.35889,0.26367 1.44287,0.50537 l 0.46143,0.10254 q 1.43554,0.30761 2.03613,0.87158 0.60791,0.55664 0.60791,1.56006 0,1.14258 -0.9082,1.80908 -0.90088,0.6665 -2.48291,0.6665 -0.65918,0 -1.37696,-0.13183 -0.71045,-0.12451 -1.50146,-0.38086 l 0,-1.3916 q 0.74707,0.38818 1.47217,0.58593 0.72509,0.19043 1.43554,0.19043 0.95215,0 1.46485,-0.32226 0.51269,-0.32959 0.51269,-0.92285 0,-0.54932 -0.37353,-0.84229 -0.36621,-0.29297 -1.61866,-0.56396 l -0.46875,-0.10987 q -1.25244,-0.26367 -1.80908,-0.80566 -0.55664,-0.54932 -0.55664,-1.50147 0,-1.15722 0.82031,-1.78711 0.82032,-0.62988 2.32911,-0.62988 0.74707,0 1.40625,0.10987 0.65918,0.10986 1.21582,0.32958 z"
           inkscape:connector-curvature="0" />
        <path
           id="path4231"
           d="m 287.32789,333.03708 0,1.44287 q -0.84228,-0.40283 -1.58935,-0.60059 -0.74707,-0.19775 -1.44287,-0.19775 -1.2085,0 -1.86768,0.46875 -0.65185,0.46875 -0.65185,1.33301 0,0.7251 0.43212,1.09863 0.43946,0.36621 1.65528,0.59326 l 0.89355,0.18311 q 1.65528,0.31494 2.43897,1.11328 0.79101,0.79101 0.79101,2.12402 0,1.58936 -1.06933,2.40967 -1.06201,0.82031 -3.12012,0.82031 -0.77637,0 -1.65527,-0.17578 -0.87159,-0.17578 -1.80909,-0.52002 l 0,-1.52344 q 0.90088,0.50538 1.76514,0.76172 0.86426,0.25635 1.69922,0.25635 1.26709,0 1.95557,-0.49805 0.68847,-0.49804 0.68847,-1.42089 0,-0.80567 -0.49804,-1.25977 -0.49073,-0.4541 -1.61866,-0.68115 l -0.90088,-0.17578 q -1.65527,-0.32959 -2.39501,-1.03272 -0.73975,-0.70312 -0.73975,-1.95556 0,-1.4502 1.01807,-2.28516 1.02539,-0.83496 2.81982,-0.83496 0.76904,0 1.56738,0.13916 0.79834,0.13916 1.6333,0.41748 z"
           inkscape:connector-curvature="0" />
        <path
           id="path4233"
           d="m 297.42893,335.72507 0,1.25976 q -0.57129,-0.31494 -1.1499,-0.46875 -0.57129,-0.16113 -1.15723,-0.16113 -1.31104,0 -2.03613,0.83496 -0.7251,0.82764 -0.7251,2.3291 0,1.50147 0.7251,2.33643 0.72509,0.82763 2.03613,0.82763 0.58594,0 1.15723,-0.1538 0.57861,-0.16114 1.1499,-0.47608 l 0,1.24512 q -0.56397,0.26367 -1.17188,0.39551 -0.60058,0.13183 -1.28173,0.13183 -1.85303,0 -2.94434,-1.16455 -1.09131,-1.16455 -1.09131,-3.14209 0,-2.00683 1.09863,-3.15674 1.10596,-1.1499 3.02491,-1.1499 0.62255,0 1.21582,0.13184 0.59326,0.12451 1.1499,0.38086 z"
           inkscape:connector-curvature="0" />
        <path
           id="path4235"
           d="m 307.89617,338.66208 0,4.95117 -1.34765,0 0,-4.90723 q 0,-1.16455 -0.4541,-1.74316 -0.4541,-0.57861 -1.36231,-0.57861 -1.09131,0 -1.72119,0.6958 -0.62988,0.6958 -0.62988,1.89697 l 0,4.63623 -1.35498,0 0,-11.39648 1.35498,0 0,4.46777 q 0.4834,-0.73975 1.13525,-1.10596 0.65918,-0.36621 1.51611,-0.36621 1.41358,0 2.13868,0.87891 0.72509,0.87158 0.72509,2.5708 z"
           inkscape:connector-curvature="0" />
        <path
           id="path4237"
           d="m 318.70766,338.66208 0,4.95117 -1.34766,0 0,-4.90723 q 0,-1.16455 -0.4541,-1.74316 -0.4541,-0.57861 -1.3623,-0.57861 -1.09131,0 -1.7212,0.6958 -0.62988,0.6958 -0.62988,1.89697 l 0,4.63623 -1.35498,0 0,-8.20312 1.35498,0 0,1.27441 q 0.4834,-0.73975 1.13526,-1.10596 0.65917,-0.36621 1.51611,-0.36621 1.41357,0 2.13867,0.87891 0.7251,0.87158 0.7251,2.5708 z"
           inkscape:connector-curvature="0" />
        <path
           id="path4239"
           d="m 322.7003,335.41013 1.34765,0 0,8.20312 -1.34765,0 0,-8.20312 z m 0,-3.19336 1.34765,0 0,1.70654 -1.34765,0 0,-1.70654 z"
           inkscape:connector-curvature="0" />
        <path
           id="path4241"
           d="m 329.48346,333.08102 0,2.32911 2.77588,0 0,1.04736 -2.77588,0 0,4.45312 q 0,1.00342 0.271,1.28907 0.27832,0.28564 1.1206,0.28564 l 1.38428,0 0,1.12793 -1.38428,0 q -1.56006,0 -2.15332,-0.57861 -0.59326,-0.58594 -0.59326,-2.12403 l 0,-4.45312 -0.98877,0 0,-1.04736 0.98877,0 0,-2.32911 1.35498,0 z"
           inkscape:connector-curvature="0" />
        <path
           id="path4243"
           d="m 336.66213,333.08102 0,2.32911 2.77588,0 0,1.04736 -2.77588,0 0,4.45312 q 0,1.00342 0.271,1.28907 0.27832,0.28564 1.1206,0.28564 l 1.38428,0 0,1.12793 -1.38428,0 q -1.56006,0 -2.15332,-0.57861 -0.59326,-0.58594 -0.59326,-2.12403 l 0,-4.45312 -0.98877,0 0,-1.04736 0.98877,0 0,-2.32911 1.35498,0 z"
           inkscape:connector-curvature="0" />
        <path
           id="path4245"
           d="m 347.73729,335.65182 0,1.27442 q -0.57129,-0.29297 -1.18653,-0.43945 -0.61523,-0.14649 -1.27441,-0.14649 -1.00342,0 -1.50879,0.30762 -0.49805,0.30762 -0.49805,0.92285 0,0.46875 0.35889,0.73975 0.35889,0.26367 1.44287,0.50537 l 0.46143,0.10254 q 1.43554,0.30761 2.03613,0.87158 0.60791,0.55664 0.60791,1.56006 0,1.14258 -0.9082,1.80908 -0.90088,0.6665 -2.48291,0.6665 -0.65918,0 -1.37696,-0.13183 -0.71045,-0.12451 -1.50146,-0.38086 l 0,-1.3916 q 0.74707,0.38818 1.47217,0.58593 0.72509,0.19043 1.43554,0.19043 0.95215,0 1.46485,-0.32226 0.51269,-0.32959 0.51269,-0.92285 0,-0.54932 -0.37353,-0.84229 -0.36621,-0.29297 -1.61866,-0.56396 l -0.46875,-0.10987 q -1.25244,-0.26367 -1.80908,-0.80566 -0.55664,-0.54932 -0.55664,-1.50147 0,-1.15722 0.82031,-1.78711 0.82032,-0.62988 2.32911,-0.62988 0.74707,0 1.40625,0.10987 0.65918,0.10986 1.21582,0.32958 z"
           inkscape:connector-curvature="0" />
        <path
           id="path4247"
           d="m 361.41348,339.48972 q -1.6333,0 -2.26318,0.37353 -0.62989,0.37354 -0.62989,1.27441 0,0.71778 0.46875,1.14258 0.47608,0.41748 1.28907,0.41748 1.1206,0 1.79443,-0.79101 0.68115,-0.79834 0.68115,-2.1167 l 0,-0.30029 -1.34033,0 z m 2.68799,-0.55665 0,4.68018 -1.34766,0 0,-1.24512 q -0.46142,0.74707 -1.1499,1.10596 -0.68848,0.35156 -1.68457,0.35156 -1.25977,0 -2.00684,-0.70312 -0.73974,-0.71045 -0.73974,-1.89697 0,-1.38428 0.92285,-2.08741 0.93017,-0.70312 2.76855,-0.70312 l 1.88965,0 0,-0.13184 q 0,-0.93017 -0.61523,-1.43554 -0.60791,-0.5127 -1.71387,-0.5127 -0.70312,0 -1.36963,0.16846 -0.6665,0.16845 -1.28174,0.50537 l 0,-1.24512 q 0.73975,-0.28564 1.43555,-0.4248 0.6958,-0.14649 1.35498,-0.14649 1.77979,0 2.65869,0.92285 0.87891,0.92285 0.87891,2.79785 z"
           inkscape:connector-curvature="0" />
        <path
           id="path4249"
           d="m 374.99352,338.66208 0,4.95117 -1.34766,0 0,-4.90723 q 0,-1.16455 -0.4541,-1.74316 -0.4541,-0.57861 -1.3623,-0.57861 -1.09131,0 -1.72119,0.6958 -0.62989,0.6958 -0.62989,1.89697 l 0,4.63623 -1.35498,0 0,-8.20312 1.35498,0 0,1.27441 q 0.4834,-0.73975 1.13526,-1.10596 0.65918,-0.36621 1.51611,-0.36621 1.41357,0 2.13867,0.87891 0.7251,0.87158 0.7251,2.5708 z"
           inkscape:connector-curvature="0" />
      </g>
      <g
         style="fill:#ff0000;stroke:none"
         id="g4604">
        <path
           inkscape:connector-curvature="0"
           id="path4298"
           d="m 251.06836,335.24609 a 0.50005,0.50005 0 0 0 -0.49219,0.55664 c 0,0 0.66155,6.90629 4.19141,14.30274 3.52986,7.39644 9.98575,15.34687 21.5039,17.30859 22.377,3.81115 25.96485,24.00586 25.96485,24.00586 a 0.50014304,0.50014304 0 1 0 0.98437,-0.17773 c 0,0 -3.84278,-20.90768 -26.78125,-24.81446 -11.13958,-1.89724 -17.32292,-9.53191 -20.76953,-16.7539 -3.44661,-7.22199 -4.09765,-13.9668 -4.09765,-13.9668 a 0.50005,0.50005 0 0 0 -0.50391,-0.46094 z"
           style="color:#000000;font-style:normal;font-variant:normal;font-weight:normal;font-stretch:normal;font-size:medium;line-height:normal;font-family:sans-serif;text-indent:0;text-align:start;text-decoration:none;text-decoration-line:none;text-decoration-style:solid;text-decoration-color:#000000;letter-spacing:normal;word-spacing:normal;text-transform:none;direction:ltr;block-progression:tb;writing-mode:lr-tb;baseline-shift:baseline;text-anchor:start;white-space:normal;clip-rule:nonzero;display:inline;overflow:visible;visibility:visible;opacity:1;isolation:auto;mix-blend-mode:normal;color-interpolation:sRGB;color-interpolation-filters:linearRGB;solid-color:#000000;solid-opacity:1;fill:#ff0000;fill-opacity:1;fill-rule:evenodd;stroke:none;stroke-width:1px;stroke-linecap:round;stroke-linejoin:round;stroke-miterlimit:4;stroke-dasharray:none;stroke-dashoffset:0;stroke-opacity:1;color-rendering:auto;image-rendering:auto;shape-rendering:auto;text-rendering:auto;enable-background:accumulate" />
        <path
           sodipodi:nodetypes="ccccc"
           inkscape:connector-curvature="0"
           id="path4610"
           d="m 301.41707,387.33963 -2.37828,-1.04036 4.35716,7.43181 0.015,-8.57902 z"
           style="fill:#ff0000;fill-opacity:1;fill-rule:evenodd;stroke:none;stroke-width:0.4pt;stroke-opacity:1" />
      </g>
      <g
         transform="matrix(-1,0,0,1,639.41895,0.43589307)"
         id="g4612"
         style="fill:#0000ff;stroke:none">
        <path
           sodipodi:nodetypes="ccssccsscc"
           style="color:#000000;font-style:normal;font-variant:normal;font-weight:normal;font-stretch:normal;font-size:medium;line-height:normal;font-family:sans-serif;text-indent:0;text-align:start;text-decoration:none;text-decoration-line:none;text-decoration-style:solid;text-decoration-color:#000000;letter-spacing:normal;word-spacing:normal;text-transform:none;direction:ltr;block-progression:tb;writing-mode:lr-tb;baseline-shift:baseline;text-anchor:start;white-space:normal;clip-rule:nonzero;display:inline;overflow:visible;visibility:visible;opacity:1;isolation:auto;mix-blend-mode:normal;color-interpolation:sRGB;color-interpolation-filters:linearRGB;solid-color:#000000;solid-opacity:1;fill:#0000ff;fill-opacity:1;fill-rule:evenodd;stroke:none;stroke-width:1px;stroke-linecap:round;stroke-linejoin:round;stroke-miterlimit:4;stroke-dasharray:none;stroke-dashoffset:0;stroke-opacity:1;color-rendering:auto;image-rendering:auto;shape-rendering:auto;text-rendering:auto;enable-background:accumulate"
           d="m 256.42373,331.77858 c -0.29672,0.003 -0.52578,0.26181 -0.49219,0.55664 0,0 -4.69382,10.3738 -1.16396,17.77025 3.52986,7.39644 9.98575,15.34687 21.5039,17.30859 22.377,3.81115 25.96485,24.00586 25.96485,24.00586 0.11849,0.65625 1.10286,0.47852 0.98437,-0.17773 0,0 -3.84278,-20.90768 -26.78125,-24.81446 -11.13958,-1.89724 -17.32292,-9.53191 -20.76953,-16.7539 -3.44661,-7.22199 1.25772,-17.43431 1.25772,-17.43431 -0.0206,-0.26228 -0.24083,-0.46377 -0.50391,-0.46094 z"
           id="path4614"
           inkscape:connector-curvature="0" />
        <path
           style="fill:#0000ff;fill-opacity:1;fill-rule:evenodd;stroke:none;stroke-width:0.4pt;stroke-opacity:1"
           d="m 301.41707,387.33963 -2.37828,-1.04036 4.35716,7.43181 0.015,-8.57902 z"
           id="path4616"
           inkscape:connector-curvature="0"
           sodipodi:nodetypes="ccccc" />
      </g>
    </g>
  </g>
</svg>
