<?xml version="1.0" encoding="UTF-8" standalone="no"?>
<!-- Created with Inkscape (http://www.inkscape.org/) -->

<svg
   xmlns:dc="http://purl.org/dc/elements/1.1/"
   xmlns:cc="http://creativecommons.org/ns#"
   xmlns:rdf="http://www.w3.org/1999/02/22-rdf-syntax-ns#"
   xmlns:svg="http://www.w3.org/2000/svg"
   xmlns="http://www.w3.org/2000/svg"
   xmlns:sodipodi="http://sodipodi.sourceforge.net/DTD/sodipodi-0.dtd"
   xmlns:inkscape="http://www.inkscape.org/namespaces/inkscape"
   width="240.71193mm"
   height="48.475639mm"
   viewBox="0 0 852.91628 171.76408"
   id="svg4727"
   version="1.1"
   inkscape:version="0.91 r13725"
   sodipodi:docname="01_05-arrays-index.svg"
   inkscape:export-filename="/home/tina/coderdojo/repo/coderdojo-nbg.org/JavaScript-Sushi/01-beginner/01_05-arrays-index.png"
   inkscape:export-xdpi="299"
   inkscape:export-ydpi="299">
  <defs
     id="defs4729">
    <marker
       inkscape:stockid="Arrow1Mend"
       orient="auto"
       refY="0"
       refX="0"
       id="Arrow1Mend"
       style="overflow:visible"
       inkscape:isstock="true">
      <path
         id="path5354"
         d="M 0,0 5,-5 -12.5,0 5,5 0,0 Z"
         style="fill:#000000;fill-opacity:1;fill-rule:evenodd;stroke:#000000;stroke-width:1pt;stroke-opacity:1"
         transform="matrix(-0.4,0,0,-0.4,-4,0)"
         inkscape:connector-curvature="0" />
    </marker>
    <marker
       inkscape:stockid="Arrow1Lend"
       orient="auto"
       refY="0"
       refX="0"
       id="Arrow1Lend"
       style="overflow:visible"
       inkscape:isstock="true">
      <path
         id="path5348"
         d="M 0,0 5,-5 -12.5,0 5,5 0,0 Z"
         style="fill:#000000;fill-opacity:1;fill-rule:evenodd;stroke:#000000;stroke-width:1pt;stroke-opacity:1"
         transform="matrix(-0.8,0,0,-0.8,-10,0)"
         inkscape:connector-curvature="0" />
    </marker>
    <marker
       inkscape:stockid="Arrow1Lstart"
       orient="auto"
       refY="0"
       refX="0"
       id="Arrow1Lstart"
       style="overflow:visible"
       inkscape:isstock="true">
      <path
         id="path5345"
         d="M 0,0 5,-5 -12.5,0 5,5 0,0 Z"
         style="fill:#000000;fill-opacity:1;fill-rule:evenodd;stroke:#000000;stroke-width:1pt;stroke-opacity:1"
         transform="matrix(0.8,0,0,0.8,10,0)"
         inkscape:connector-curvature="0" />
    </marker>
    <marker
       style="overflow:visible"
       id="DistanceStart"
       refX="0"
       refY="0"
       orient="auto"
       inkscape:stockid="DistanceStart"
       inkscape:isstock="true">
      <g
         id="g2300"
         style="fill:#000000;fill-opacity:1;stroke:#000000;stroke-opacity:1">
        <path
           style="fill:#000000;fill-opacity:1;stroke:#000000;stroke-width:1.14999998;stroke-linecap:square;stroke-opacity:1"
           d="M 0,0 2,0"
           id="path2306"
           inkscape:connector-curvature="0" />
        <path
           style="fill:#000000;fill-opacity:1;fill-rule:evenodd;stroke:#000000;stroke-opacity:1"
           d="M 0,0 13,4 9,0 13,-4 0,0 Z"
           id="path2302"
           inkscape:connector-curvature="0" />
        <path
           style="fill:#000000;fill-opacity:1;stroke:#000000;stroke-width:1;stroke-linecap:square;stroke-opacity:1"
           d="M 0,-4 0,40"
           id="path2304"
           inkscape:connector-curvature="0" />
      </g>
    </marker>
  </defs>
  <sodipodi:namedview
     id="base"
     pagecolor="#ffffff"
     bordercolor="#666666"
     borderopacity="1.0"
     inkscape:pageopacity="0.0"
     inkscape:pageshadow="2"
     inkscape:zoom="0.57353516"
     inkscape:cx="302.43116"
     inkscape:cy="27.596121"
     inkscape:document-units="px"
     inkscape:current-layer="layer1"
     showgrid="false"
     fit-margin-top="0"
     fit-margin-left="0"
     fit-margin-right="0"
     fit-margin-bottom="0" />
  <metadata
     id="metadata4732">
    <rdf:RDF>
      <cc:Work
         rdf:about="">
        <dc:format>image/svg+xml</dc:format>
        <dc:type
           rdf:resource="http://purl.org/dc/dcmitype/StillImage" />
        <dc:title></dc:title>
      </cc:Work>
    </rdf:RDF>
  </metadata>
  <g
     inkscape:label="Ebene 1"
     inkscape:groupmode="layer"
     id="layer1"
     transform="translate(48.844845,-180.15352)">
    <text
       xml:space="preserve"
       style="font-style:normal;font-variant:normal;font-weight:bold;font-stretch:normal;font-size:20px;line-height:125%;font-family:'Bitstream Vera Sans';-inkscape-font-specification:'Bitstream Vera Sans, Bold';text-align:start;letter-spacing:1.28999996px;word-spacing:0px;writing-mode:lr-tb;text-anchor:start;fill:#000000;fill-opacity:1;stroke:none;stroke-width:1px;stroke-linecap:butt;stroke-linejoin:miter;stroke-opacity:1"
       x="-50.563595"
       y="276.47256"
       id="text5275"
       sodipodi:linespacing="125%"><tspan
         sodipodi:role="line"
         x="-50.563595"
         y="276.47256"
         id="tspan5289">[&quot;Schokolade&quot;, 3, true, 54, &quot;Fliege&quot;, [&quot;Dinosaurier&quot;, &quot;Katze&quot;, 3.456]]</tspan></text>
    <g
       style="font-style:normal;font-variant:normal;font-weight:normal;font-stretch:normal;font-size:15px;line-height:125%;font-family:'Bitstream Vera Sans';-inkscape-font-specification:'Bitstream Vera Sans, Normal';text-align:center;letter-spacing:1.28999996px;word-spacing:0px;writing-mode:lr-tb;text-anchor:middle;fill:#ff0000;fill-opacity:1;stroke:none;stroke-width:1px;stroke-linecap:butt;stroke-linejoin:miter;stroke-opacity:1"
       id="text5303">
      <path
         d="m 17.812529,180.61494 1.479492,0 0,10.93506 -1.479492,0 0,-10.93506 z"
         id="path5984"
         inkscape:connector-curvature="0" />
      <path
         d="m 30.286611,186.59883 0,4.95117 -1.347657,0 0,-4.90722 q 0,-1.16455 -0.454101,-1.74317 -0.454102,-0.57861 -1.362305,-0.57861 -1.091308,0 -1.721191,0.6958 -0.629883,0.6958 -0.629883,1.89697 l 0,4.63623 -1.354981,0 0,-8.20312 1.354981,0 0,1.27441 q 0.483398,-0.73974 1.135254,-1.10595 0.659179,-0.36622 1.516113,-0.36622 1.413574,0 2.138672,0.87891 0.725098,0.87158 0.725098,2.5708 z"
         id="path5986"
         inkscape:connector-curvature="0" />
      <path
         d="m 39.677197,184.592 0,-4.43848 1.347656,0 0,11.39648 -1.347656,0 0,-1.23047 q -0.424805,0.73243 -1.076661,1.09131 -0.644531,0.35157 -1.552734,0.35157 -1.486816,0 -2.424316,-1.18653 -0.930176,-1.18652 -0.930176,-3.12012 0,-1.93359 0.930176,-3.12011 0.9375,-1.18653 2.424316,-1.18653 0.908203,0 1.552734,0.35889 0.651856,0.35156 1.076661,1.08399 z m -4.592286,2.86376 q 0,1.48682 0.607911,2.33643 0.615234,0.84229 1.68457,0.84229 1.069336,0 1.68457,-0.84229 0.615235,-0.84961 0.615235,-2.33643 0,-1.48681 -0.615235,-2.3291 -0.615234,-0.84961 -1.68457,-0.84961 -1.069336,0 -1.68457,0.84961 -0.607911,0.84229 -0.607911,2.3291 z"
         id="path5988"
         inkscape:connector-curvature="0" />
      <path
         d="m 52.107332,187.11153 0,0.65918 -6.196289,0 q 0.08789,1.3916 0.834961,2.12402 0.754395,0.7251 2.094727,0.7251 0.776367,0 1.501465,-0.19043 0.732421,-0.19043 1.450195,-0.57129 l 0,1.27441 q -0.725098,0.30762 -1.486817,0.46875 -0.761718,0.16114 -1.54541,0.16114 -1.96289,0 -3.112793,-1.14258 -1.142578,-1.14258 -1.142578,-3.09082 0,-2.01416 1.083985,-3.19336 1.091308,-1.18653 2.937011,-1.18653 1.655274,0 2.614746,1.06934 0.966797,1.06201 0.966797,2.89307 z m -1.347656,-0.39551 q -0.01465,-1.10596 -0.622559,-1.76514 -0.600586,-0.65918 -1.596679,-0.65918 -1.12793,0 -1.809082,0.63721 -0.673828,0.63721 -0.776368,1.79443 l 4.804688,-0.007 z"
         id="path5990"
         inkscape:connector-curvature="0" />
      <path
         d="m 62.179071,183.34688 -2.966308,3.9917 3.120117,4.21142 -1.589355,0 -2.387696,-3.22265 -2.387695,3.22265 -1.589356,0 3.186036,-4.29199 -2.915039,-3.91113 1.589355,0 2.175293,2.92236 2.175293,-2.92236 1.589355,0 z"
         id="path5992"
         inkscape:connector-curvature="0" />
      <path
         d="m 28.953603,198.90352 3.105469,0 0,1.04736 -1.757813,0 0,11.2793 1.757813,0 0,1.04736 -3.105469,0 0,-13.37402 z"
         id="path5994"
         inkscape:connector-curvature="0" />
      <path
         d="m 39.581982,200.33907 q -1.142578,0 -1.721192,1.12793 -0.571289,1.1206 -0.571289,3.37646 0,2.24854 0.571289,3.37646 0.578614,1.12061 1.721192,1.12061 1.149902,0 1.721191,-1.12061 0.578613,-1.12792 0.578613,-3.37646 0,-2.25586 -0.578613,-3.37646 -0.571289,-1.12793 -1.721191,-1.12793 z m 0,-1.17188 q 1.838379,0 2.805175,1.45752 0.974122,1.4502 0.974122,4.21875 0,2.76123 -0.974122,4.21875 -0.966796,1.4502 -2.805175,1.4502 -1.838379,0 -2.8125,-1.4502 -0.966797,-1.45752 -0.966797,-4.21875 0,-2.76855 0.966797,-4.21875 0.974121,-1.45752 2.8125,-1.45752 z"
         id="path5996"
         inkscape:connector-curvature="0" />
      <path
         d="m 50.217685,198.90352 0,13.37402 -3.105469,0 0,-1.04736 1.750488,0 0,-11.2793 -1.750488,0 0,-1.04736 3.105469,0 z"
         id="path5998"
         inkscape:connector-curvature="0" />
    </g>
    <g
       style="font-style:normal;font-variant:normal;font-weight:normal;font-stretch:normal;font-size:15px;line-height:125%;font-family:'Bitstream Vera Sans';-inkscape-font-specification:'Bitstream Vera Sans, Normal';text-align:center;letter-spacing:1.28999996px;word-spacing:0px;writing-mode:lr-tb;text-anchor:middle;fill:#ff0000;fill-opacity:1;stroke:none;stroke-width:1px;stroke-linecap:butt;stroke-linejoin:miter;stroke-opacity:1"
       id="text5309">
      <path
         d="m 128.17044,180.61494 1.47949,0 0,10.93506 -1.47949,0 0,-10.93506 z"
         id="path5967"
         inkscape:connector-curvature="0" />
      <path
         d="m 140.64452,186.59883 0,4.95117 -1.34765,0 0,-4.90722 q 0,-1.16455 -0.4541,-1.74317 -0.4541,-0.57861 -1.36231,-0.57861 -1.09131,0 -1.72119,0.6958 -0.62988,0.6958 -0.62988,1.89697 l 0,4.63623 -1.35498,0 0,-8.20312 1.35498,0 0,1.27441 q 0.4834,-0.73974 1.13525,-1.10595 0.65918,-0.36622 1.51612,-0.36622 1.41357,0 2.13867,0.87891 0.72509,0.87158 0.72509,2.5708 z"
         id="path5969"
         inkscape:connector-curvature="0" />
      <path
         d="m 150.03511,184.592 0,-4.43848 1.34766,0 0,11.39648 -1.34766,0 0,-1.23047 q -0.4248,0.73243 -1.07666,1.09131 -0.64453,0.35157 -1.55273,0.35157 -1.48682,0 -2.42432,-1.18653 -0.93018,-1.18652 -0.93018,-3.12012 0,-1.93359 0.93018,-3.12011 0.9375,-1.18653 2.42432,-1.18653 0.9082,0 1.55273,0.35889 0.65186,0.35156 1.07666,1.08399 z m -4.59228,2.86376 q 0,1.48682 0.60791,2.33643 0.61523,0.84229 1.68457,0.84229 1.06933,0 1.68457,-0.84229 0.61523,-0.84961 0.61523,-2.33643 0,-1.48681 -0.61523,-2.3291 -0.61524,-0.84961 -1.68457,-0.84961 -1.06934,0 -1.68457,0.84961 -0.60791,0.84229 -0.60791,2.3291 z"
         id="path5971"
         inkscape:connector-curvature="0" />
      <path
         d="m 162.46525,187.11153 0,0.65918 -6.19629,0 q 0.0879,1.3916 0.83496,2.12402 0.75439,0.7251 2.09472,0.7251 0.77637,0 1.50147,-0.19043 0.73242,-0.19043 1.45019,-0.57129 l 0,1.27441 q -0.72509,0.30762 -1.48681,0.46875 -0.76172,0.16114 -1.54541,0.16114 -1.96289,0 -3.11279,-1.14258 -1.14258,-1.14258 -1.14258,-3.09082 0,-2.01416 1.08398,-3.19336 1.09131,-1.18653 2.93701,-1.18653 1.65528,0 2.61475,1.06934 0.9668,1.06201 0.9668,2.89307 z m -1.34766,-0.39551 q -0.0147,-1.10596 -0.62256,-1.76514 -0.60058,-0.65918 -1.59668,-0.65918 -1.12793,0 -1.80908,0.63721 -0.67383,0.63721 -0.77637,1.79443 l 4.80469,-0.007 z"
         id="path5973"
         inkscape:connector-curvature="0" />
      <path
         d="m 172.53699,183.34688 -2.96631,3.9917 3.12011,4.21142 -1.58935,0 -2.3877,-3.22265 -2.38769,3.22265 -1.58936,0 3.18604,-4.29199 -2.91504,-3.91113 1.58935,0 2.1753,2.92236 2.17529,-2.92236 1.58936,0 z"
         id="path5975"
         inkscape:connector-curvature="0" />
      <path
         d="m 139.31152,198.90352 3.10547,0 0,1.04736 -1.75782,0 0,11.2793 1.75782,0 0,1.04736 -3.10547,0 0,-13.37402 z"
         id="path5977"
         inkscape:connector-curvature="0" />
      <path
         d="m 147.03218,209.05489 2.41699,0 0,-8.34229 -2.62939,0.52734 0,-1.34765 2.61474,-0.52735 1.4795,0 0,9.68995 2.41699,0 0,1.24511 -6.29883,0 0,-1.24511 z"
         id="path5979"
         inkscape:connector-curvature="0" />
      <path
         d="m 160.5756,198.90352 0,13.37402 -3.10547,0 0,-1.04736 1.75049,0 0,-11.2793 -1.75049,0 0,-1.04736 3.10547,0 z"
         id="path5981"
         inkscape:connector-curvature="0" />
    </g>
    <g
       style="font-style:normal;font-variant:normal;font-weight:normal;font-stretch:normal;font-size:15px;line-height:125%;font-family:'Bitstream Vera Sans';-inkscape-font-specification:'Bitstream Vera Sans, Normal';text-align:center;letter-spacing:1.28999996px;word-spacing:0px;writing-mode:lr-tb;text-anchor:middle;fill:#ff0000;fill-opacity:1;stroke:none;stroke-width:1px;stroke-linecap:butt;stroke-linejoin:miter;stroke-opacity:1"
       id="text5315">
      <path
         d="m 185.3494,180.61494 1.47949,0 0,10.93506 -1.47949,0 0,-10.93506 z"
         id="path5950"
         inkscape:connector-curvature="0" />
      <path
         d="m 197.82348,186.59883 0,4.95117 -1.34766,0 0,-4.90722 q 0,-1.16455 -0.4541,-1.74317 -0.4541,-0.57861 -1.3623,-0.57861 -1.09131,0 -1.72119,0.6958 -0.62989,0.6958 -0.62989,1.89697 l 0,4.63623 -1.35498,0 0,-8.20312 1.35498,0 0,1.27441 q 0.4834,-0.73974 1.13526,-1.10595 0.65918,-0.36622 1.51611,-0.36622 1.41357,0 2.13867,0.87891 0.7251,0.87158 0.7251,2.5708 z"
         id="path5952"
         inkscape:connector-curvature="0" />
      <path
         d="m 207.21407,184.592 0,-4.43848 1.34765,0 0,11.39648 -1.34765,0 0,-1.23047 q -0.42481,0.73243 -1.07666,1.09131 -0.64454,0.35157 -1.55274,0.35157 -1.48682,0 -2.42432,-1.18653 -0.93017,-1.18652 -0.93017,-3.12012 0,-1.93359 0.93017,-3.12011 0.9375,-1.18653 2.42432,-1.18653 0.9082,0 1.55274,0.35889 0.65185,0.35156 1.07666,1.08399 z m -4.59229,2.86376 q 0,1.48682 0.60791,2.33643 0.61523,0.84229 1.68457,0.84229 1.06934,0 1.68457,-0.84229 0.61524,-0.84961 0.61524,-2.33643 0,-1.48681 -0.61524,-2.3291 -0.61523,-0.84961 -1.68457,-0.84961 -1.06934,0 -1.68457,0.84961 -0.60791,0.84229 -0.60791,2.3291 z"
         id="path5954"
         inkscape:connector-curvature="0" />
      <path
         d="m 219.6442,187.11153 0,0.65918 -6.19629,0 q 0.0879,1.3916 0.83496,2.12402 0.7544,0.7251 2.09473,0.7251 0.77637,0 1.50146,-0.19043 0.73243,-0.19043 1.4502,-0.57129 l 0,1.27441 q -0.7251,0.30762 -1.48682,0.46875 -0.76172,0.16114 -1.54541,0.16114 -1.96289,0 -3.11279,-1.14258 -1.14258,-1.14258 -1.14258,-3.09082 0,-2.01416 1.08399,-3.19336 1.09131,-1.18653 2.93701,-1.18653 1.65527,0 2.61474,1.06934 0.9668,1.06201 0.9668,2.89307 z m -1.34765,-0.39551 q -0.0146,-1.10596 -0.62256,-1.76514 -0.60059,-0.65918 -1.59668,-0.65918 -1.12793,0 -1.80909,0.63721 -0.67382,0.63721 -0.77636,1.79443 l 4.80469,-0.007 z"
         id="path5956"
         inkscape:connector-curvature="0" />
      <path
         d="m 229.71594,183.34688 -2.96631,3.9917 3.12012,4.21142 -1.58936,0 -2.38769,-3.22265 -2.3877,3.22265 -1.58935,0 3.18603,-4.29199 -2.91504,-3.91113 1.58936,0 2.17529,2.92236 2.1753,-2.92236 1.58935,0 z"
         id="path5958"
         inkscape:connector-curvature="0" />
      <path
         d="m 196.49047,198.90352 3.10547,0 0,1.04736 -1.75781,0 0,11.2793 1.75781,0 0,1.04736 -3.10547,0 0,-13.37402 z"
         id="path5960"
         inkscape:connector-curvature="0" />
      <path
         d="m 205.2292,209.05489 5.16358,0 0,1.24511 -6.94336,0 0,-1.24511 q 0.84228,-0.87159 2.29248,-2.33643 1.45752,-1.47217 1.83105,-1.89697 0.71045,-0.79834 0.98877,-1.34766 0.28565,-0.55664 0.28565,-1.09131 0,-0.87158 -0.61524,-1.4209 -0.60791,-0.54931 -1.58935,-0.54931 -0.6958,0 -1.47217,0.2417 -0.76904,0.2417 -1.64795,0.73242 l 0,-1.49414 q 0.89355,-0.35889 1.66992,-0.54199 0.77637,-0.18311 1.4209,-0.18311 1.69922,0 2.70996,0.84961 1.01074,0.84961 1.01074,2.27051 0,0.67383 -0.25634,1.28174 -0.24903,0.60058 -0.91553,1.42089 -0.18311,0.21241 -1.16455,1.23047 -0.98145,1.01075 -2.76856,2.83448 z"
         id="path5962"
         inkscape:connector-curvature="0" />
      <path
         d="m 217.75455,198.90352 0,13.37402 -3.10546,0 0,-1.04736 1.75048,0 0,-11.2793 -1.75048,0 0,-1.04736 3.10546,0 z"
         id="path5964"
         inkscape:connector-curvature="0" />
    </g>
    <g
       style="font-style:normal;font-variant:normal;font-weight:normal;font-stretch:normal;font-size:15px;line-height:125%;font-family:'Bitstream Vera Sans';-inkscape-font-specification:'Bitstream Vera Sans, Normal';text-align:center;letter-spacing:1.28999996px;word-spacing:0px;writing-mode:lr-tb;text-anchor:middle;fill:#ff0000;fill-opacity:1;stroke:none;stroke-width:1px;stroke-linecap:butt;stroke-linejoin:miter;stroke-opacity:1"
       id="text5321">
      <path
         d="m 240.01549,180.61494 1.47949,0 0,10.93506 -1.47949,0 0,-10.93506 z"
         id="path5933"
         inkscape:connector-curvature="0" />
      <path
         d="m 252.48957,186.59883 0,4.95117 -1.34765,0 0,-4.90722 q 0,-1.16455 -0.45411,-1.74317 -0.4541,-0.57861 -1.3623,-0.57861 -1.09131,0 -1.72119,0.6958 -0.62989,0.6958 -0.62989,1.89697 l 0,4.63623 -1.35498,0 0,-8.20312 1.35498,0 0,1.27441 q 0.4834,-0.73974 1.13526,-1.10595 0.65918,-0.36622 1.51611,-0.36622 1.41358,0 2.13867,0.87891 0.7251,0.87158 0.7251,2.5708 z"
         id="path5935"
         inkscape:connector-curvature="0" />
      <path
         d="m 261.88016,184.592 0,-4.43848 1.34765,0 0,11.39648 -1.34765,0 0,-1.23047 q -0.42481,0.73243 -1.07666,1.09131 -0.64453,0.35157 -1.55274,0.35157 -1.48681,0 -2.42431,-1.18653 -0.93018,-1.18652 -0.93018,-3.12012 0,-1.93359 0.93018,-3.12011 0.9375,-1.18653 2.42431,-1.18653 0.90821,0 1.55274,0.35889 0.65185,0.35156 1.07666,1.08399 z m -4.59229,2.86376 q 0,1.48682 0.60791,2.33643 0.61524,0.84229 1.68457,0.84229 1.06934,0 1.68457,-0.84229 0.61524,-0.84961 0.61524,-2.33643 0,-1.48681 -0.61524,-2.3291 -0.61523,-0.84961 -1.68457,-0.84961 -1.06933,0 -1.68457,0.84961 -0.60791,0.84229 -0.60791,2.3291 z"
         id="path5937"
         inkscape:connector-curvature="0" />
      <path
         d="m 274.31029,187.11153 0,0.65918 -6.19629,0 q 0.0879,1.3916 0.83497,2.12402 0.75439,0.7251 2.09472,0.7251 0.77637,0 1.50147,-0.19043 0.73242,-0.19043 1.45019,-0.57129 l 0,1.27441 q -0.7251,0.30762 -1.48681,0.46875 -0.76172,0.16114 -1.54541,0.16114 -1.9629,0 -3.1128,-1.14258 -1.14258,-1.14258 -1.14258,-3.09082 0,-2.01416 1.08399,-3.19336 1.09131,-1.18653 2.93701,-1.18653 1.65527,0 2.61475,1.06934 0.96679,1.06201 0.96679,2.89307 z m -1.34765,-0.39551 q -0.0147,-1.10596 -0.62256,-1.76514 -0.60059,-0.65918 -1.59668,-0.65918 -1.12793,0 -1.80908,0.63721 -0.67383,0.63721 -0.77637,1.79443 l 4.80469,-0.007 z"
         id="path5939"
         inkscape:connector-curvature="0" />
      <path
         d="m 284.38203,183.34688 -2.96631,3.9917 3.12012,4.21142 -1.58935,0 -2.3877,-3.22265 -2.3877,3.22265 -1.58935,0 3.18603,-4.29199 -2.91503,-3.91113 1.58935,0 2.17529,2.92236 2.1753,-2.92236 1.58935,0 z"
         id="path5941"
         inkscape:connector-curvature="0" />
      <path
         d="m 251.15656,198.90352 3.10547,0 0,1.04736 -1.75781,0 0,11.2793 1.75781,0 0,1.04736 -3.10547,0 0,-13.37402 z"
         id="path5943"
         inkscape:connector-curvature="0" />
      <path
         d="m 263.1033,204.40401 q 1.06201,0.22705 1.65528,0.94482 0.60058,0.71777 0.60058,1.77246 0,1.61865 -1.11328,2.50488 -1.11328,0.88624 -3.16406,0.88624 -0.68848,0 -1.4209,-0.13916 -0.7251,-0.13184 -1.50147,-0.40284 l 0,-1.42822 q 0.61524,0.35889 1.34766,0.54199 0.73242,0.18311 1.53076,0.18311 1.3916,0 2.1167,-0.54932 0.73242,-0.54931 0.73242,-1.59668 0,-0.96679 -0.68115,-1.50879 -0.67383,-0.54931 -1.88232,-0.54931 l -1.27442,0 0,-1.21582 1.33301,0 q 1.09131,0 1.66992,-0.43213 0.57862,-0.43946 0.57862,-1.25977 0,-0.84228 -0.60059,-1.28906 -0.59326,-0.4541 -1.70654,-0.4541 -0.60791,0 -1.30371,0.13183 -0.6958,0.13184 -1.53077,0.41016 l 0,-1.31836 q 0.84229,-0.23437 1.57471,-0.35156 0.73975,-0.11719 1.3916,-0.11719 1.68457,0 2.66602,0.76904 0.98144,0.76172 0.98144,2.06543 0,0.90821 -0.52002,1.53809 -0.52002,0.62256 -1.47949,0.86426 z"
         id="path5945"
         inkscape:connector-curvature="0" />
      <path
         d="m 272.42065,198.90352 0,13.37402 -3.10547,0 0,-1.04736 1.75049,0 0,-11.2793 -1.75049,0 0,-1.04736 3.10547,0 z"
         id="path5947"
         inkscape:connector-curvature="0" />
    </g>
    <g
       style="font-style:normal;font-variant:normal;font-weight:normal;font-stretch:normal;font-size:15px;line-height:125%;font-family:'Bitstream Vera Sans';-inkscape-font-specification:'Bitstream Vera Sans, Normal';text-align:center;letter-spacing:1.28999996px;word-spacing:0px;writing-mode:lr-tb;text-anchor:middle;fill:#ff0000;fill-opacity:1;stroke:none;stroke-width:1px;stroke-linecap:butt;stroke-linejoin:miter;stroke-opacity:1"
       id="text5327">
      <path
         d="m 320.32231,180.61494 1.4795,0 0,10.93506 -1.4795,0 0,-10.93506 z"
         id="path5916"
         inkscape:connector-curvature="0" />
      <path
         d="m 332.7964,186.59883 0,4.95117 -1.34766,0 0,-4.90722 q 0,-1.16455 -0.4541,-1.74317 -0.4541,-0.57861 -1.36231,-0.57861 -1.09131,0 -1.72119,0.6958 -0.62988,0.6958 -0.62988,1.89697 l 0,4.63623 -1.35498,0 0,-8.20312 1.35498,0 0,1.27441 q 0.4834,-0.73974 1.13525,-1.10595 0.65918,-0.36622 1.51612,-0.36622 1.41357,0 2.13867,0.87891 0.7251,0.87158 0.7251,2.5708 z"
         id="path5918"
         inkscape:connector-curvature="0" />
      <path
         d="m 342.18698,184.592 0,-4.43848 1.34766,0 0,11.39648 -1.34766,0 0,-1.23047 q -0.4248,0.73243 -1.07666,1.09131 -0.64453,0.35157 -1.55273,0.35157 -1.48682,0 -2.42432,-1.18653 -0.93018,-1.18652 -0.93018,-3.12012 0,-1.93359 0.93018,-3.12011 0.9375,-1.18653 2.42432,-1.18653 0.9082,0 1.55273,0.35889 0.65186,0.35156 1.07666,1.08399 z m -4.59228,2.86376 q 0,1.48682 0.60791,2.33643 0.61523,0.84229 1.68457,0.84229 1.06933,0 1.68457,-0.84229 0.61523,-0.84961 0.61523,-2.33643 0,-1.48681 -0.61523,-2.3291 -0.61524,-0.84961 -1.68457,-0.84961 -1.06934,0 -1.68457,0.84961 -0.60791,0.84229 -0.60791,2.3291 z"
         id="path5920"
         inkscape:connector-curvature="0" />
      <path
         d="m 354.61712,187.11153 0,0.65918 -6.19629,0 q 0.0879,1.3916 0.83496,2.12402 0.75439,0.7251 2.09473,0.7251 0.77636,0 1.50146,-0.19043 0.73242,-0.19043 1.4502,-0.57129 l 0,1.27441 q -0.7251,0.30762 -1.48682,0.46875 -0.76172,0.16114 -1.54541,0.16114 -1.96289,0 -3.11279,-1.14258 -1.14258,-1.14258 -1.14258,-3.09082 0,-2.01416 1.08398,-3.19336 1.09131,-1.18653 2.93701,-1.18653 1.65528,0 2.61475,1.06934 0.9668,1.06201 0.9668,2.89307 z m -1.34766,-0.39551 q -0.0146,-1.10596 -0.62256,-1.76514 -0.60058,-0.65918 -1.59668,-0.65918 -1.12793,0 -1.80908,0.63721 -0.67383,0.63721 -0.77637,1.79443 l 4.80469,-0.007 z"
         id="path5922"
         inkscape:connector-curvature="0" />
      <path
         d="m 364.68886,183.34688 -2.96631,3.9917 3.12011,4.21142 -1.58935,0 -2.3877,-3.22265 -2.38769,3.22265 -1.58936,0 3.18604,-4.29199 -2.91504,-3.91113 1.58935,0 2.1753,2.92236 2.17529,-2.92236 1.58936,0 z"
         id="path5924"
         inkscape:connector-curvature="0" />
      <path
         d="m 331.46339,198.90352 3.10547,0 0,1.04736 -1.75782,0 0,11.2793 1.75782,0 0,1.04736 -3.10547,0 0,-13.37402 z"
         id="path5926"
         inkscape:connector-curvature="0" />
      <path
         d="m 342.99265,200.65401 -3.73536,5.8374 3.73536,0 0,-5.8374 z m -0.38819,-1.28907 1.86035,0 0,7.12647 1.56006,0 0,1.23047 -1.56006,0 0,2.57812 -1.47216,0 0,-2.57812 -4.93653,0 0,-1.42822 4.54834,-6.92872 z"
         id="path5928"
         inkscape:connector-curvature="0" />
      <path
         d="m 352.72747,198.90352 0,13.37402 -3.10547,0 0,-1.04736 1.75049,0 0,-11.2793 -1.75049,0 0,-1.04736 3.10547,0 z"
         id="path5930"
         inkscape:connector-curvature="0" />
    </g>
    <g
       style="font-style:normal;font-variant:normal;font-weight:normal;font-stretch:normal;font-size:15px;line-height:125%;font-family:'Bitstream Vera Sans';-inkscape-font-specification:'Bitstream Vera Sans, Normal';text-align:center;letter-spacing:1.28999996px;word-spacing:0px;writing-mode:lr-tb;text-anchor:middle;fill:#ff0000;fill-opacity:1;stroke:none;stroke-width:1px;stroke-linecap:butt;stroke-linejoin:miter;stroke-opacity:1"
       id="text5333">
      <path
         d="m 638.67952,180.61494 1.47949,0 0,10.93506 -1.47949,0 0,-10.93506 z"
         id="path5899"
         inkscape:connector-curvature="0" />
      <path
         d="m 651.1536,186.59883 0,4.95117 -1.34765,0 0,-4.90722 q 0,-1.16455 -0.4541,-1.74317 -0.45411,-0.57861 -1.36231,-0.57861 -1.09131,0 -1.72119,0.6958 -0.62988,0.6958 -0.62988,1.89697 l 0,4.63623 -1.35498,0 0,-8.20312 1.35498,0 0,1.27441 q 0.4834,-0.73974 1.13525,-1.10595 0.65918,-0.36622 1.51611,-0.36622 1.41358,0 2.13868,0.87891 0.72509,0.87158 0.72509,2.5708 z"
         id="path5901"
         inkscape:connector-curvature="0" />
      <path
         d="m 660.54419,184.592 0,-4.43848 1.34766,0 0,11.39648 -1.34766,0 0,-1.23047 q -0.42481,0.73243 -1.07666,1.09131 -0.64453,0.35157 -1.55274,0.35157 -1.48681,0 -2.42431,-1.18653 -0.93018,-1.18652 -0.93018,-3.12012 0,-1.93359 0.93018,-3.12011 0.9375,-1.18653 2.42431,-1.18653 0.90821,0 1.55274,0.35889 0.65185,0.35156 1.07666,1.08399 z m -4.59229,2.86376 q 0,1.48682 0.60791,2.33643 0.61524,0.84229 1.68457,0.84229 1.06934,0 1.68458,-0.84229 0.61523,-0.84961 0.61523,-2.33643 0,-1.48681 -0.61523,-2.3291 -0.61524,-0.84961 -1.68458,-0.84961 -1.06933,0 -1.68457,0.84961 -0.60791,0.84229 -0.60791,2.3291 z"
         id="path5903"
         inkscape:connector-curvature="0" />
      <path
         d="m 672.97433,187.11153 0,0.65918 -6.19629,0 q 0.0879,1.3916 0.83496,2.12402 0.75439,0.7251 2.09472,0.7251 0.77637,0 1.50147,-0.19043 0.73242,-0.19043 1.45019,-0.57129 l 0,1.27441 q -0.72509,0.30762 -1.48681,0.46875 -0.76172,0.16114 -1.54541,0.16114 -1.96289,0 -3.1128,-1.14258 -1.14257,-1.14258 -1.14257,-3.09082 0,-2.01416 1.08398,-3.19336 1.09131,-1.18653 2.93701,-1.18653 1.65528,0 2.61475,1.06934 0.9668,1.06201 0.9668,2.89307 z m -1.34766,-0.39551 q -0.0146,-1.10596 -0.62256,-1.76514 -0.60059,-0.65918 -1.59668,-0.65918 -1.12793,0 -1.80908,0.63721 -0.67383,0.63721 -0.77637,1.79443 l 4.80469,-0.007 z"
         id="path5905"
         inkscape:connector-curvature="0" />
      <path
         d="m 683.04606,183.34688 -2.9663,3.9917 3.12011,4.21142 -1.58935,0 -2.3877,-3.22265 -2.38769,3.22265 -1.58936,0 3.18604,-4.29199 -2.91504,-3.91113 1.58935,0 2.1753,2.92236 2.17529,-2.92236 1.58935,0 z"
         id="path5907"
         inkscape:connector-curvature="0" />
      <path
         d="m 649.8206,198.90352 3.10546,0 0,1.04736 -1.75781,0 0,11.2793 1.75781,0 0,1.04736 -3.10546,0 0,-13.37402 z"
         id="path5909"
         inkscape:connector-curvature="0" />
      <path
         d="m 657.29956,199.36494 5.80811,0 0,1.24512 -4.45313,0 0,2.68067 q 0.32227,-0.10987 0.64453,-0.16114 0.32227,-0.0586 0.64453,-0.0586 1.83106,0 2.90039,1.00342 1.06934,1.00342 1.06934,2.71728 0,1.76514 -1.09863,2.74658 -1.09864,0.97413 -3.09815,0.97413 -0.68847,0 -1.40625,-0.11719 -0.71045,-0.11719 -1.47217,-0.35156 l 0,-1.48682 q 0.65918,0.35889 1.36231,0.53467 0.70312,0.17578 1.48682,0.17578 1.26709,0 2.00683,-0.66651 0.73975,-0.6665 0.73975,-1.80908 0,-1.14258 -0.73975,-1.80908 -0.73974,-0.6665 -2.00683,-0.6665 -0.59327,0 -1.18653,0.13183 -0.58594,0.13184 -1.20117,0.41016 l 0,-5.49317 z"
         id="path5911"
         inkscape:connector-curvature="0" />
      <path
         d="m 671.08468,198.90352 0,13.37402 -3.10547,0 0,-1.04736 1.75049,0 0,-11.2793 -1.75049,0 0,-1.04736 3.10547,0 z"
         id="path5913"
         inkscape:connector-curvature="0" />
    </g>
    <path
       style="color:#000000;font-style:normal;font-variant:normal;font-weight:normal;font-stretch:normal;font-size:medium;line-height:normal;font-family:sans-serif;text-indent:0;text-align:start;text-decoration:none;text-decoration-line:none;text-decoration-style:solid;text-decoration-color:#000000;letter-spacing:normal;word-spacing:normal;text-transform:none;direction:ltr;block-progression:tb;writing-mode:lr-tb;baseline-shift:baseline;text-anchor:start;white-space:normal;clip-rule:nonzero;display:inline;overflow:visible;visibility:visible;opacity:1;isolation:auto;mix-blend-mode:normal;color-interpolation:sRGB;color-interpolation-filters:linearRGB;solid-color:#000000;solid-opacity:1;fill:#ff0000;fill-opacity:1;fill-rule:evenodd;stroke:none;stroke-width:1px;stroke-linecap:butt;stroke-linejoin:miter;stroke-miterlimit:4;stroke-dasharray:none;stroke-dashoffset:0;stroke-opacity:1;color-rendering:auto;image-rendering:auto;shape-rendering:auto;text-rendering:auto;enable-background:accumulate"
       d="m 407.86719,243.67188 0,11.55078 1,0 0,-5.27539 386.20117,0 0,5.27539 1,0 0,-11.55078 -1,0 0,5.27539 -386.20117,0 0,-5.27539 -1,0 z"
       id="path5339"
       inkscape:connector-curvature="0" />
    <g
       style="font-style:normal;font-variant:normal;font-weight:normal;font-stretch:normal;font-size:15px;line-height:125%;font-family:'Bitstream Vera Sans';-inkscape-font-specification:'Bitstream Vera Sans, Normal';text-align:center;letter-spacing:1.28999996px;word-spacing:0px;writing-mode:lr-tb;text-anchor:middle;fill:#0000ff;fill-opacity:1;stroke:none;stroke-width:1px;stroke-linecap:butt;stroke-linejoin:miter;stroke-opacity:1"
       id="text5874">
      <path
         d="m 466.06587,320.255 1.4795,0 0,10.93506 -1.4795,0 0,-10.93506 z"
         id="path6047"
         inkscape:connector-curvature="0" />
      <path
         d="m 478.53996,326.23889 0,4.95117 -1.34766,0 0,-4.90722 q 0,-1.16455 -0.4541,-1.74317 -0.4541,-0.57861 -1.36231,-0.57861 -1.09131,0 -1.72119,0.6958 -0.62988,0.6958 -0.62988,1.89697 l 0,4.63623 -1.35498,0 0,-8.20312 1.35498,0 0,1.27441 q 0.4834,-0.73974 1.13525,-1.10595 0.65918,-0.36622 1.51612,-0.36622 1.41357,0 2.13867,0.87891 0.7251,0.87158 0.7251,2.5708 z"
         id="path6049"
         inkscape:connector-curvature="0" />
      <path
         d="m 487.93054,324.23206 0,-4.43848 1.34766,0 0,11.39648 -1.34766,0 0,-1.23047 q -0.4248,0.73243 -1.07666,1.09131 -0.64453,0.35157 -1.55273,0.35157 -1.48682,0 -2.42432,-1.18653 -0.93017,-1.18652 -0.93017,-3.12011 0,-1.9336 0.93017,-3.12012 0.9375,-1.18653 2.42432,-1.18653 0.9082,0 1.55273,0.35889 0.65186,0.35156 1.07666,1.08399 z m -4.59228,2.86377 q 0,1.48681 0.60791,2.33642 0.61523,0.84229 1.68457,0.84229 1.06933,0 1.68457,-0.84229 0.61523,-0.84961 0.61523,-2.33642 0,-1.48682 -0.61523,-2.32911 -0.61524,-0.84961 -1.68457,-0.84961 -1.06934,0 -1.68457,0.84961 -0.60791,0.84229 -0.60791,2.32911 z"
         id="path6051"
         inkscape:connector-curvature="0" />
      <path
         d="m 500.36068,326.75159 0,0.65918 -6.19629,0 q 0.0879,1.3916 0.83496,2.12402 0.75439,0.7251 2.09473,0.7251 0.77636,0 1.50146,-0.19043 0.73242,-0.19043 1.4502,-0.57129 l 0,1.27441 q -0.7251,0.30762 -1.48682,0.46875 -0.76172,0.16114 -1.54541,0.16114 -1.96289,0 -3.11279,-1.14258 -1.14258,-1.14258 -1.14258,-3.09082 0,-2.01416 1.08398,-3.19336 1.09131,-1.18653 2.93701,-1.18653 1.65528,0 2.61475,1.06934 0.9668,1.06201 0.9668,2.89307 z m -1.34766,-0.39551 q -0.0146,-1.10596 -0.62256,-1.76514 -0.60058,-0.65918 -1.59668,-0.65918 -1.12793,0 -1.80908,0.63721 -0.67383,0.63721 -0.77637,1.79443 l 4.80469,-0.007 z"
         id="path6053"
         inkscape:connector-curvature="0" />
      <path
         d="m 510.43242,322.98694 -2.96631,3.9917 3.12012,4.21142 -1.58936,0 -2.3877,-3.22265 -2.38769,3.22265 -1.58936,0 3.18604,-4.29199 -2.91504,-3.91113 1.58936,0 2.17529,2.92236 2.17529,-2.92236 1.58936,0 z"
         id="path6055"
         inkscape:connector-curvature="0" />
      <path
         d="m 464.63718,338.54358 3.10547,0 0,1.04736 -1.75781,0 0,11.2793 1.75781,0 0,1.04736 -3.10547,0 0,-13.37402 z"
         id="path6057"
         inkscape:connector-curvature="0" />
      <path
         d="m 472.11615,339.005 5.8081,0 0,1.24512 -4.45312,0 0,2.68067 q 0.32226,-0.10987 0.64453,-0.16114 0.32226,-0.0586 0.64453,-0.0586 1.83106,0 2.90039,1.00342 1.06934,1.00342 1.06934,2.71728 0,1.76514 -1.09864,2.74658 -1.09863,0.97413 -3.09814,0.97413 -0.68848,0 -1.40625,-0.11719 -0.71045,-0.11719 -1.47217,-0.35156 l 0,-1.48682 q 0.65918,0.35889 1.36231,0.53467 0.70312,0.17578 1.48681,0.17578 1.26709,0 2.00684,-0.66651 0.73974,-0.6665 0.73974,-1.80908 0,-1.14258 -0.73974,-1.80908 -0.73975,-0.6665 -2.00684,-0.6665 -0.59326,0 -1.18652,0.13183 -0.58594,0.13184 -1.20117,0.41016 l 0,-5.49317 z"
         id="path6059"
         inkscape:connector-curvature="0" />
      <path
         d="m 485.90126,338.54358 0,13.37402 -3.10546,0 0,-1.04736 1.75048,0 0,-11.2793 -1.75048,0 0,-1.04736 3.10546,0 z"
         id="path6061"
         inkscape:connector-curvature="0" />
      <path
         d="m 489.77671,338.54358 3.10547,0 0,1.04736 -1.75781,0 0,11.2793 1.75781,0 0,1.04736 -3.10547,0 0,-13.37402 z"
         id="path6063"
         inkscape:connector-curvature="0" />
      <path
         d="m 500.40509,339.97913 q -1.14258,0 -1.72119,1.12793 -0.57129,1.1206 -0.57129,3.37646 0,2.24854 0.57129,3.37647 0.57861,1.1206 1.72119,1.1206 1.14991,0 1.72119,-1.1206 0.57862,-1.12793 0.57862,-3.37647 0,-2.25586 -0.57862,-3.37646 -0.57128,-1.12793 -1.72119,-1.12793 z m 0,-1.17188 q 1.83838,0 2.80518,1.45752 0.97412,1.4502 0.97412,4.21875 0,2.76123 -0.97412,4.21875 -0.9668,1.4502 -2.80518,1.4502 -1.83838,0 -2.8125,-1.4502 -0.96679,-1.45752 -0.96679,-4.21875 0,-2.76855 0.96679,-4.21875 0.97412,-1.45752 2.8125,-1.45752 z"
         id="path6065"
         inkscape:connector-curvature="0" />
      <path
         d="m 511.0408,338.54358 0,13.37402 -3.10547,0 0,-1.04736 1.75049,0 0,-11.2793 -1.75049,0 0,-1.04736 3.10547,0 z"
         id="path6067"
         inkscape:connector-curvature="0" />
    </g>
    <g
       style="font-style:normal;font-variant:normal;font-weight:normal;font-stretch:normal;font-size:15px;line-height:125%;font-family:'Bitstream Vera Sans';-inkscape-font-specification:'Bitstream Vera Sans, Normal';text-align:center;letter-spacing:1.28999996px;word-spacing:0px;writing-mode:lr-tb;text-anchor:middle;fill:#0000ff;fill-opacity:1;stroke:none;stroke-width:1px;stroke-linecap:butt;stroke-linejoin:miter;stroke-opacity:1"
       id="text5880">
      <path
         d="m 627.34633,320.255 1.47949,0 0,10.93506 -1.47949,0 0,-10.93506 z"
         id="path6024"
         inkscape:connector-curvature="0" />
      <path
         d="m 639.82041,326.23889 0,4.95117 -1.34765,0 0,-4.90722 q 0,-1.16455 -0.45411,-1.74317 -0.4541,-0.57861 -1.3623,-0.57861 -1.09131,0 -1.72119,0.6958 -0.62988,0.6958 -0.62988,1.89697 l 0,4.63623 -1.35498,0 0,-8.20312 1.35498,0 0,1.27441 q 0.48339,-0.73974 1.13525,-1.10595 0.65918,-0.36622 1.51611,-0.36622 1.41358,0 2.13867,0.87891 0.7251,0.87158 0.7251,2.5708 z"
         id="path6026"
         inkscape:connector-curvature="0" />
      <path
         d="m 649.211,324.23206 0,-4.43848 1.34765,0 0,11.39648 -1.34765,0 0,-1.23047 q -0.42481,0.73243 -1.07666,1.09131 -0.64453,0.35157 -1.55274,0.35157 -1.48681,0 -2.42431,-1.18653 -0.93018,-1.18652 -0.93018,-3.12011 0,-1.9336 0.93018,-3.12012 0.9375,-1.18653 2.42431,-1.18653 0.90821,0 1.55274,0.35889 0.65185,0.35156 1.07666,1.08399 z m -4.59229,2.86377 q 0,1.48681 0.60791,2.33642 0.61524,0.84229 1.68457,0.84229 1.06934,0 1.68457,-0.84229 0.61524,-0.84961 0.61524,-2.33642 0,-1.48682 -0.61524,-2.32911 -0.61523,-0.84961 -1.68457,-0.84961 -1.06933,0 -1.68457,0.84961 -0.60791,0.84229 -0.60791,2.32911 z"
         id="path6028"
         inkscape:connector-curvature="0" />
      <path
         d="m 661.64113,326.75159 0,0.65918 -6.19628,0 q 0.0879,1.3916 0.83496,2.12402 0.75439,0.7251 2.09472,0.7251 0.77637,0 1.50147,-0.19043 0.73242,-0.19043 1.45019,-0.57129 l 0,1.27441 q -0.72509,0.30762 -1.48681,0.46875 -0.76172,0.16114 -1.54541,0.16114 -1.96289,0 -3.1128,-1.14258 -1.14257,-1.14258 -1.14257,-3.09082 0,-2.01416 1.08398,-3.19336 1.09131,-1.18653 2.93701,-1.18653 1.65527,0 2.61475,1.06934 0.96679,1.06201 0.96679,2.89307 z m -1.34765,-0.39551 q -0.0147,-1.10596 -0.62256,-1.76514 -0.60059,-0.65918 -1.59668,-0.65918 -1.12793,0 -1.80908,0.63721 -0.67383,0.63721 -0.77637,1.79443 l 4.80469,-0.007 z"
         id="path6030"
         inkscape:connector-curvature="0" />
      <path
         d="m 671.71287,322.98694 -2.96631,3.9917 3.12012,4.21142 -1.58935,0 -2.3877,-3.22265 -2.38769,3.22265 -1.58936,0 3.18604,-4.29199 -2.91504,-3.91113 1.58935,0 2.1753,2.92236 2.17529,-2.92236 1.58935,0 z"
         id="path6032"
         inkscape:connector-curvature="0" />
      <path
         d="m 625.91764,338.54358 3.10547,0 0,1.04736 -1.75781,0 0,11.2793 1.75781,0 0,1.04736 -3.10547,0 0,-13.37402 z"
         id="path6034"
         inkscape:connector-curvature="0" />
      <path
         d="m 633.3966,339.005 5.80811,0 0,1.24512 -4.45313,0 0,2.68067 q 0.32227,-0.10987 0.64454,-0.16114 0.32226,-0.0586 0.64453,-0.0586 1.83105,0 2.90039,1.00342 1.06933,1.00342 1.06933,2.71728 0,1.76514 -1.09863,2.74658 -1.09863,0.97413 -3.09814,0.97413 -0.68848,0 -1.40625,-0.11719 -0.71045,-0.11719 -1.47217,-0.35156 l 0,-1.48682 q 0.65918,0.35889 1.3623,0.53467 0.70313,0.17578 1.48682,0.17578 1.26709,0 2.00684,-0.66651 0.73974,-0.6665 0.73974,-1.80908 0,-1.14258 -0.73974,-1.80908 -0.73975,-0.6665 -2.00684,-0.6665 -0.59326,0 -1.18652,0.13183 -0.58594,0.13184 -1.20118,0.41016 l 0,-5.49317 z"
         id="path6036"
         inkscape:connector-curvature="0" />
      <path
         d="m 647.18172,338.54358 0,13.37402 -3.10547,0 0,-1.04736 1.75049,0 0,-11.2793 -1.75049,0 0,-1.04736 3.10547,0 z"
         id="path6038"
         inkscape:connector-curvature="0" />
      <path
         d="m 651.05717,338.54358 3.10547,0 0,1.04736 -1.75781,0 0,11.2793 1.75781,0 0,1.04736 -3.10547,0 0,-13.37402 z"
         id="path6040"
         inkscape:connector-curvature="0" />
      <path
         d="m 658.77783,348.69495 2.417,0 0,-8.34229 -2.6294,0.52734 0,-1.34765 2.61475,-0.52735 1.47949,0 0,9.68995 2.41699,0 0,1.24511 -6.29883,0 0,-1.24511 z"
         id="path6042"
         inkscape:connector-curvature="0" />
      <path
         d="m 672.32125,338.54358 0,13.37402 -3.10547,0 0,-1.04736 1.75049,0 0,-11.2793 -1.75049,0 0,-1.04736 3.10547,0 z"
         id="path6044"
         inkscape:connector-curvature="0" />
    </g>
    <g
       style="font-style:normal;font-variant:normal;font-weight:normal;font-stretch:normal;font-size:15px;line-height:125%;font-family:'Bitstream Vera Sans';-inkscape-font-specification:'Bitstream Vera Sans, Normal';text-align:center;letter-spacing:1.28999996px;word-spacing:0px;writing-mode:lr-tb;text-anchor:middle;fill:#0000ff;fill-opacity:1;stroke:none;stroke-width:1px;stroke-linecap:butt;stroke-linejoin:miter;stroke-opacity:1"
       id="text5886">
      <path
         d="m 733.70424,320.255 1.47949,0 0,10.93506 -1.47949,0 0,-10.93506 z"
         id="path6001"
         inkscape:connector-curvature="0" />
      <path
         d="m 746.17832,326.23889 0,4.95117 -1.34765,0 0,-4.90722 q 0,-1.16455 -0.45411,-1.74317 -0.4541,-0.57861 -1.3623,-0.57861 -1.09131,0 -1.72119,0.6958 -0.62988,0.6958 -0.62988,1.89697 l 0,4.63623 -1.35498,0 0,-8.20312 1.35498,0 0,1.27441 q 0.48339,-0.73974 1.13525,-1.10595 0.65918,-0.36622 1.51611,-0.36622 1.41358,0 2.13868,0.87891 0.72509,0.87158 0.72509,2.5708 z"
         id="path6003"
         inkscape:connector-curvature="0" />
      <path
         d="m 755.56891,324.23206 0,-4.43848 1.34765,0 0,11.39648 -1.34765,0 0,-1.23047 q -0.42481,0.73243 -1.07666,1.09131 -0.64453,0.35157 -1.55274,0.35157 -1.48681,0 -2.42431,-1.18653 -0.93018,-1.18652 -0.93018,-3.12011 0,-1.9336 0.93018,-3.12012 0.9375,-1.18653 2.42431,-1.18653 0.90821,0 1.55274,0.35889 0.65185,0.35156 1.07666,1.08399 z m -4.59229,2.86377 q 0,1.48681 0.60791,2.33642 0.61524,0.84229 1.68457,0.84229 1.06934,0 1.68457,-0.84229 0.61524,-0.84961 0.61524,-2.33642 0,-1.48682 -0.61524,-2.32911 -0.61523,-0.84961 -1.68457,-0.84961 -1.06933,0 -1.68457,0.84961 -0.60791,0.84229 -0.60791,2.32911 z"
         id="path6005"
         inkscape:connector-curvature="0" />
      <path
         d="m 767.99904,326.75159 0,0.65918 -6.19628,0 q 0.0879,1.3916 0.83496,2.12402 0.75439,0.7251 2.09472,0.7251 0.77637,0 1.50147,-0.19043 0.73242,-0.19043 1.45019,-0.57129 l 0,1.27441 q -0.72509,0.30762 -1.48681,0.46875 -0.76172,0.16114 -1.54541,0.16114 -1.96289,0 -3.1128,-1.14258 -1.14257,-1.14258 -1.14257,-3.09082 0,-2.01416 1.08398,-3.19336 1.09131,-1.18653 2.93701,-1.18653 1.65527,0 2.61475,1.06934 0.96679,1.06201 0.96679,2.89307 z m -1.34765,-0.39551 q -0.0146,-1.10596 -0.62256,-1.76514 -0.60059,-0.65918 -1.59668,-0.65918 -1.12793,0 -1.80908,0.63721 -0.67383,0.63721 -0.77637,1.79443 l 4.80469,-0.007 z"
         id="path6007"
         inkscape:connector-curvature="0" />
      <path
         d="m 778.07078,322.98694 -2.9663,3.9917 3.12011,4.21142 -1.58935,0 -2.3877,-3.22265 -2.38769,3.22265 -1.58936,0 3.18604,-4.29199 -2.91504,-3.91113 1.58935,0 2.1753,2.92236 2.17529,-2.92236 1.58935,0 z"
         id="path6009"
         inkscape:connector-curvature="0" />
      <path
         d="m 732.27555,338.54358 3.10547,0 0,1.04736 -1.75781,0 0,11.2793 1.75781,0 0,1.04736 -3.10547,0 0,-13.37402 z"
         id="path6011"
         inkscape:connector-curvature="0" />
      <path
         d="m 739.75451,339.005 5.80811,0 0,1.24512 -4.45313,0 0,2.68067 q 0.32227,-0.10987 0.64454,-0.16114 0.32226,-0.0586 0.64453,-0.0586 1.83105,0 2.90039,1.00342 1.06933,1.00342 1.06933,2.71728 0,1.76514 -1.09863,2.74658 -1.09863,0.97413 -3.09814,0.97413 -0.68848,0 -1.40625,-0.11719 -0.71045,-0.11719 -1.47217,-0.35156 l 0,-1.48682 q 0.65918,0.35889 1.3623,0.53467 0.70313,0.17578 1.48682,0.17578 1.26709,0 2.00684,-0.66651 0.73974,-0.6665 0.73974,-1.80908 0,-1.14258 -0.73974,-1.80908 -0.73975,-0.6665 -2.00684,-0.6665 -0.59326,0 -1.18652,0.13183 -0.58594,0.13184 -1.20118,0.41016 l 0,-5.49317 z"
         id="path6013"
         inkscape:connector-curvature="0" />
      <path
         d="m 753.53963,338.54358 0,13.37402 -3.10547,0 0,-1.04736 1.75049,0 0,-11.2793 -1.75049,0 0,-1.04736 3.10547,0 z"
         id="path6015"
         inkscape:connector-curvature="0" />
      <path
         d="m 757.41508,338.54358 3.10547,0 0,1.04736 -1.75781,0 0,11.2793 1.75781,0 0,1.04736 -3.10547,0 0,-13.37402 z"
         id="path6017"
         inkscape:connector-curvature="0" />
      <path
         d="m 766.15381,348.69495 5.16358,0 0,1.24511 -6.94336,0 0,-1.24511 q 0.84228,-0.87159 2.29248,-2.33643 1.45752,-1.47217 1.83105,-1.89697 0.71045,-0.79834 0.98877,-1.34766 0.28565,-0.55664 0.28565,-1.09131 0,-0.87158 -0.61524,-1.4209 -0.60791,-0.54931 -1.58935,-0.54931 -0.69581,0 -1.47217,0.2417 -0.76905,0.2417 -1.64795,0.73242 l 0,-1.49414 q 0.89355,-0.35889 1.66992,-0.54199 0.77637,-0.18311 1.4209,-0.18311 1.69922,0 2.70996,0.84961 1.01074,0.84961 1.01074,2.27051 0,0.67383 -0.25635,1.28174 -0.24902,0.60058 -0.91552,1.42089 -0.18311,0.21241 -1.16455,1.23047 -0.98145,1.01075 -2.76856,2.83448 z"
         id="path6019"
         inkscape:connector-curvature="0" />
      <path
         d="m 778.67916,338.54358 0,13.37402 -3.10547,0 0,-1.04736 1.75049,0 0,-11.2793 -1.75049,0 0,-1.04736 3.10547,0 z"
         id="path6021"
         inkscape:connector-curvature="0" />
    </g>
    <g
       id="g6165"
       style="fill:#ff0000;stroke:none"
       transform="translate(0.125805,0)">
      <path
         style="color:#000000;font-style:normal;font-variant:normal;font-weight:normal;font-stretch:normal;font-size:medium;line-height:normal;font-family:sans-serif;text-indent:0;text-align:start;text-decoration:none;text-decoration-line:none;text-decoration-style:solid;text-decoration-color:#000000;letter-spacing:normal;word-spacing:normal;text-transform:none;direction:ltr;block-progression:tb;writing-mode:lr-tb;baseline-shift:baseline;text-anchor:start;white-space:normal;clip-rule:nonzero;display:inline;overflow:visible;visibility:visible;opacity:1;isolation:auto;mix-blend-mode:normal;color-interpolation:sRGB;color-interpolation-filters:linearRGB;solid-color:#000000;solid-opacity:1;fill:#ff0000;fill-opacity:1;fill-rule:evenodd;stroke:none;stroke-width:1px;stroke-linecap:butt;stroke-linejoin:round;stroke-miterlimit:4;stroke-dasharray:none;stroke-dashoffset:0;stroke-opacity:1;color-rendering:auto;image-rendering:auto;shape-rendering:auto;text-rendering:auto;enable-background:accumulate"
         d="m 660.31445,218.0625 0,23.53906 1,0 0,-23.53906 -1,0 z"
         id="path6069"
         inkscape:connector-curvature="0" />
      <path
         style="fill:#ff0000;fill-opacity:1;fill-rule:evenodd;stroke:none;stroke-width:0.4pt;stroke-opacity:1"
         d="m 660.81389,237.60109 -2,-2 2,8.81081 2,-8.81081 z"
         id="path6171"
         inkscape:connector-curvature="0"
         sodipodi:nodetypes="ccccc" />
    </g>
    <g
       transform="translate(-620.74119,1.7435723)"
       style="fill:#ff0000;stroke:none"
       id="g6173">
      <path
         inkscape:connector-curvature="0"
         id="path6175"
         d="m 660.31445,218.0625 0,23.53906 1,0 0,-23.53906 -1,0 z"
         style="color:#000000;font-style:normal;font-variant:normal;font-weight:normal;font-stretch:normal;font-size:medium;line-height:normal;font-family:sans-serif;text-indent:0;text-align:start;text-decoration:none;text-decoration-line:none;text-decoration-style:solid;text-decoration-color:#000000;letter-spacing:normal;word-spacing:normal;text-transform:none;direction:ltr;block-progression:tb;writing-mode:lr-tb;baseline-shift:baseline;text-anchor:start;white-space:normal;clip-rule:nonzero;display:inline;overflow:visible;visibility:visible;opacity:1;isolation:auto;mix-blend-mode:normal;color-interpolation:sRGB;color-interpolation-filters:linearRGB;solid-color:#000000;solid-opacity:1;fill:#ff0000;fill-opacity:1;fill-rule:evenodd;stroke:none;stroke-width:1px;stroke-linecap:butt;stroke-linejoin:round;stroke-miterlimit:4;stroke-dasharray:none;stroke-dashoffset:0;stroke-opacity:1;color-rendering:auto;image-rendering:auto;shape-rendering:auto;text-rendering:auto;enable-background:accumulate" />
      <path
         sodipodi:nodetypes="ccccc"
         inkscape:connector-curvature="0"
         id="path6177"
         d="m 660.81389,237.60109 -2,-2 2,8.81081 2,-8.81081 z"
         style="fill:#ff0000;fill-opacity:1;fill-rule:evenodd;stroke:none;stroke-width:0.4pt;stroke-opacity:1" />
    </g>
    <g
       transform="translate(-510.38328,0)"
       style="fill:#ff0000;stroke:none"
       id="g6179">
      <path
         inkscape:connector-curvature="0"
         id="path6181"
         d="m 660.31445,218.0625 0,23.53906 1,0 0,-23.53906 -1,0 z"
         style="color:#000000;font-style:normal;font-variant:normal;font-weight:normal;font-stretch:normal;font-size:medium;line-height:normal;font-family:sans-serif;text-indent:0;text-align:start;text-decoration:none;text-decoration-line:none;text-decoration-style:solid;text-decoration-color:#000000;letter-spacing:normal;word-spacing:normal;text-transform:none;direction:ltr;block-progression:tb;writing-mode:lr-tb;baseline-shift:baseline;text-anchor:start;white-space:normal;clip-rule:nonzero;display:inline;overflow:visible;visibility:visible;opacity:1;isolation:auto;mix-blend-mode:normal;color-interpolation:sRGB;color-interpolation-filters:linearRGB;solid-color:#000000;solid-opacity:1;fill:#ff0000;fill-opacity:1;fill-rule:evenodd;stroke:none;stroke-width:1px;stroke-linecap:butt;stroke-linejoin:round;stroke-miterlimit:4;stroke-dasharray:none;stroke-dashoffset:0;stroke-opacity:1;color-rendering:auto;image-rendering:auto;shape-rendering:auto;text-rendering:auto;enable-background:accumulate" />
      <path
         sodipodi:nodetypes="ccccc"
         inkscape:connector-curvature="0"
         id="path6183"
         d="m 660.81389,237.60109 -2,-2 2,8.81081 2,-8.81081 z"
         style="fill:#ff0000;fill-opacity:1;fill-rule:evenodd;stroke:none;stroke-width:0.4pt;stroke-opacity:1" />
    </g>
    <g
       transform="translate(-453.20431,0)"
       style="fill:#ff0000;stroke:none"
       id="g6185">
      <path
         inkscape:connector-curvature="0"
         id="path6187"
         d="m 660.31445,218.0625 0,23.53906 1,0 0,-23.53906 -1,0 z"
         style="color:#000000;font-style:normal;font-variant:normal;font-weight:normal;font-stretch:normal;font-size:medium;line-height:normal;font-family:sans-serif;text-indent:0;text-align:start;text-decoration:none;text-decoration-line:none;text-decoration-style:solid;text-decoration-color:#000000;letter-spacing:normal;word-spacing:normal;text-transform:none;direction:ltr;block-progression:tb;writing-mode:lr-tb;baseline-shift:baseline;text-anchor:start;white-space:normal;clip-rule:nonzero;display:inline;overflow:visible;visibility:visible;opacity:1;isolation:auto;mix-blend-mode:normal;color-interpolation:sRGB;color-interpolation-filters:linearRGB;solid-color:#000000;solid-opacity:1;fill:#ff0000;fill-opacity:1;fill-rule:evenodd;stroke:none;stroke-width:1px;stroke-linecap:butt;stroke-linejoin:round;stroke-miterlimit:4;stroke-dasharray:none;stroke-dashoffset:0;stroke-opacity:1;color-rendering:auto;image-rendering:auto;shape-rendering:auto;text-rendering:auto;enable-background:accumulate" />
      <path
         sodipodi:nodetypes="ccccc"
         inkscape:connector-curvature="0"
         id="path6189"
         d="m 660.81389,237.60109 -2,-2 2,8.81081 2,-8.81081 z"
         style="fill:#ff0000;fill-opacity:1;fill-rule:evenodd;stroke:none;stroke-width:0.4pt;stroke-opacity:1" />
    </g>
    <g
       transform="translate(-398.53822,0)"
       style="fill:#ff0000;stroke:none"
       id="g6191">
      <path
         inkscape:connector-curvature="0"
         id="path6193"
         d="m 660.31445,218.0625 0,23.53906 1,0 0,-23.53906 -1,0 z"
         style="color:#000000;font-style:normal;font-variant:normal;font-weight:normal;font-stretch:normal;font-size:medium;line-height:normal;font-family:sans-serif;text-indent:0;text-align:start;text-decoration:none;text-decoration-line:none;text-decoration-style:solid;text-decoration-color:#000000;letter-spacing:normal;word-spacing:normal;text-transform:none;direction:ltr;block-progression:tb;writing-mode:lr-tb;baseline-shift:baseline;text-anchor:start;white-space:normal;clip-rule:nonzero;display:inline;overflow:visible;visibility:visible;opacity:1;isolation:auto;mix-blend-mode:normal;color-interpolation:sRGB;color-interpolation-filters:linearRGB;solid-color:#000000;solid-opacity:1;fill:#ff0000;fill-opacity:1;fill-rule:evenodd;stroke:none;stroke-width:1px;stroke-linecap:butt;stroke-linejoin:round;stroke-miterlimit:4;stroke-dasharray:none;stroke-dashoffset:0;stroke-opacity:1;color-rendering:auto;image-rendering:auto;shape-rendering:auto;text-rendering:auto;enable-background:accumulate" />
      <path
         sodipodi:nodetypes="ccccc"
         inkscape:connector-curvature="0"
         id="path6195"
         d="m 660.81389,237.60109 -2,-2 2,8.81081 2,-8.81081 z"
         style="fill:#ff0000;fill-opacity:1;fill-rule:evenodd;stroke:none;stroke-width:0.4pt;stroke-opacity:1" />
    </g>
    <g
       transform="translate(-318.2314,0)"
       style="fill:#ff0000;stroke:none"
       id="g6197">
      <path
         inkscape:connector-curvature="0"
         id="path6199"
         d="m 660.31445,218.0625 0,23.53906 1,0 0,-23.53906 -1,0 z"
         style="color:#000000;font-style:normal;font-variant:normal;font-weight:normal;font-stretch:normal;font-size:medium;line-height:normal;font-family:sans-serif;text-indent:0;text-align:start;text-decoration:none;text-decoration-line:none;text-decoration-style:solid;text-decoration-color:#000000;letter-spacing:normal;word-spacing:normal;text-transform:none;direction:ltr;block-progression:tb;writing-mode:lr-tb;baseline-shift:baseline;text-anchor:start;white-space:normal;clip-rule:nonzero;display:inline;overflow:visible;visibility:visible;opacity:1;isolation:auto;mix-blend-mode:normal;color-interpolation:sRGB;color-interpolation-filters:linearRGB;solid-color:#000000;solid-opacity:1;fill:#ff0000;fill-opacity:1;fill-rule:evenodd;stroke:none;stroke-width:1px;stroke-linecap:butt;stroke-linejoin:round;stroke-miterlimit:4;stroke-dasharray:none;stroke-dashoffset:0;stroke-opacity:1;color-rendering:auto;image-rendering:auto;shape-rendering:auto;text-rendering:auto;enable-background:accumulate" />
      <path
         sodipodi:nodetypes="ccccc"
         inkscape:connector-curvature="0"
         id="path6201"
         d="m 660.81389,237.60109 -2,-2 2,8.81081 2,-8.81081 z"
         style="fill:#ff0000;fill-opacity:1;fill-rule:evenodd;stroke:none;stroke-width:0.4pt;stroke-opacity:1" />
    </g>
    <g
       transform="matrix(1,0,0,-1,-172.9749,530.4744)"
       style="fill:#0000ff;stroke:none"
       id="g6227">
      <path
         inkscape:connector-curvature="0"
         id="path6229"
         d="m 660.31445,218.0625 0,23.53906 1,0 0,-23.53906 -1,0 z"
         style="color:#000000;font-style:normal;font-variant:normal;font-weight:normal;font-stretch:normal;font-size:medium;line-height:normal;font-family:sans-serif;text-indent:0;text-align:start;text-decoration:none;text-decoration-line:none;text-decoration-style:solid;text-decoration-color:#000000;letter-spacing:normal;word-spacing:normal;text-transform:none;direction:ltr;block-progression:tb;writing-mode:lr-tb;baseline-shift:baseline;text-anchor:start;white-space:normal;clip-rule:nonzero;display:inline;overflow:visible;visibility:visible;opacity:1;isolation:auto;mix-blend-mode:normal;color-interpolation:sRGB;color-interpolation-filters:linearRGB;solid-color:#000000;solid-opacity:1;fill:#0000ff;fill-opacity:1;fill-rule:evenodd;stroke:none;stroke-width:1px;stroke-linecap:butt;stroke-linejoin:round;stroke-miterlimit:4;stroke-dasharray:none;stroke-dashoffset:0;stroke-opacity:1;color-rendering:auto;image-rendering:auto;shape-rendering:auto;text-rendering:auto;enable-background:accumulate" />
      <path
         sodipodi:nodetypes="ccccc"
         inkscape:connector-curvature="0"
         id="path6231"
         d="m 660.81389,237.60109 -2,-2 2,8.81081 2,-8.81081 z"
         style="fill:#0000ff;fill-opacity:1;fill-rule:evenodd;stroke:none;stroke-width:0.4pt;stroke-opacity:1" />
    </g>
    <g
       id="g6233"
       style="fill:#0000ff;stroke:none"
       transform="matrix(1,0,0,-1,-11.694445,530.4744)">
      <path
         style="color:#000000;font-style:normal;font-variant:normal;font-weight:normal;font-stretch:normal;font-size:medium;line-height:normal;font-family:sans-serif;text-indent:0;text-align:start;text-decoration:none;text-decoration-line:none;text-decoration-style:solid;text-decoration-color:#000000;letter-spacing:normal;word-spacing:normal;text-transform:none;direction:ltr;block-progression:tb;writing-mode:lr-tb;baseline-shift:baseline;text-anchor:start;white-space:normal;clip-rule:nonzero;display:inline;overflow:visible;visibility:visible;opacity:1;isolation:auto;mix-blend-mode:normal;color-interpolation:sRGB;color-interpolation-filters:linearRGB;solid-color:#000000;solid-opacity:1;fill:#0000ff;fill-opacity:1;fill-rule:evenodd;stroke:none;stroke-width:1px;stroke-linecap:butt;stroke-linejoin:round;stroke-miterlimit:4;stroke-dasharray:none;stroke-dashoffset:0;stroke-opacity:1;color-rendering:auto;image-rendering:auto;shape-rendering:auto;text-rendering:auto;enable-background:accumulate"
         d="m 660.31445,218.0625 0,23.53906 1,0 0,-23.53906 -1,0 z"
         id="path6235"
         inkscape:connector-curvature="0" />
      <path
         style="fill:#0000ff;fill-opacity:1;fill-rule:evenodd;stroke:none;stroke-width:0.4pt;stroke-opacity:1"
         d="m 660.81389,237.60109 -2,-2 2,8.81081 2,-8.81081 z"
         id="path6237"
         inkscape:connector-curvature="0"
         sodipodi:nodetypes="ccccc" />
    </g>
    <g
       transform="matrix(1,0,0,-1,94.663465,530.4744)"
       style="fill:#0000ff;stroke:none"
       id="g6239">
      <path
         inkscape:connector-curvature="0"
         id="path6241"
         d="m 660.31445,218.0625 0,23.53906 1,0 0,-23.53906 -1,0 z"
         style="color:#000000;font-style:normal;font-variant:normal;font-weight:normal;font-stretch:normal;font-size:medium;line-height:normal;font-family:sans-serif;text-indent:0;text-align:start;text-decoration:none;text-decoration-line:none;text-decoration-style:solid;text-decoration-color:#000000;letter-spacing:normal;word-spacing:normal;text-transform:none;direction:ltr;block-progression:tb;writing-mode:lr-tb;baseline-shift:baseline;text-anchor:start;white-space:normal;clip-rule:nonzero;display:inline;overflow:visible;visibility:visible;opacity:1;isolation:auto;mix-blend-mode:normal;color-interpolation:sRGB;color-interpolation-filters:linearRGB;solid-color:#000000;solid-opacity:1;fill:#0000ff;fill-opacity:1;fill-rule:evenodd;stroke:none;stroke-width:1px;stroke-linecap:butt;stroke-linejoin:round;stroke-miterlimit:4;stroke-dasharray:none;stroke-dashoffset:0;stroke-opacity:1;color-rendering:auto;image-rendering:auto;shape-rendering:auto;text-rendering:auto;enable-background:accumulate" />
      <path
         sodipodi:nodetypes="ccccc"
         inkscape:connector-curvature="0"
         id="path6243"
         d="m 660.81389,237.60109 -2,-2 2,8.81081 2,-8.81081 z"
         style="fill:#0000ff;fill-opacity:1;fill-rule:evenodd;stroke:none;stroke-width:0.4pt;stroke-opacity:1" />
    </g>
  </g>
</svg>
