<?xml version="1.0" encoding="utf-8"?><!DOCTYPE svg PUBLIC "-//W3C//DTD SVG 1.1//EN" "http://www.w3.org/Graphics/SVG/1.1/DTD/svg11.dtd"><svg xmlns="http://www.w3.org/2000/svg" width="76.735" height="22.878" viewBox="0 0 76.735 22.878"><path fill-rule="evenodd" clip-rule="evenodd" fill="#FFF" d="M30.003,9.538v1.959c-0.02,0.583-0.133,1.106-0.349,1.552 c-0.176,0.389-0.447,0.758-0.836,1.051c-0.389,0.309-0.911,0.481-1.611,0.481c-0.698,0-1.242-0.173-1.631-0.481 c-0.389-0.293-0.64-0.662-0.814-1.051c-0.213-0.445-0.329-0.969-0.35-1.552V3.09c0.021-0.565,0.137-1.089,0.35-1.536 c0.174-0.387,0.426-0.776,0.814-1.068C25.966,0.198,26.509,0,27.208,0c0.701,0,1.222,0.198,1.611,0.485 c0.389,0.292,0.66,0.682,0.836,1.068C29.87,2,29.983,2.525,30.003,3.09v1.959h-1.96V3.09c0-0.389-0.097-0.662-0.312-0.894 c-0.097-0.097-0.271-0.157-0.486-0.157c-0.367,0-0.543,0.273-0.64,0.526c-0.058,0.153-0.078,0.329-0.097,0.524v8.408 c0.019,0.406,0.135,0.682,0.331,0.894c0.097,0.098,0.234,0.153,0.406,0.153c0.447,0,0.621-0.232,0.72-0.524 c0.056-0.133,0.078-0.31,0.078-0.522V9.538H30.003L30.003,9.538z M36.116,11.844c-0.058,1.034-0.37,1.751-1.051,2.312 c-0.348,0.293-0.834,0.426-1.474,0.426c-1.263,0-1.885-0.698-2.196-1.399c-0.174-0.401-0.291-0.87-0.308-1.392V6.448 c0.056-1.029,0.368-1.788,1.047-2.368c0.331-0.292,0.814-0.43,1.457-0.43c1.262,0,1.904,0.698,2.213,1.379 c0.174,0.408,0.292,0.853,0.312,1.358V11.844L36.116,11.844z M34.271,6.448c0.019-0.408-0.058-0.7-0.253-0.93 c-0.097-0.099-0.251-0.159-0.426-0.159c-0.372,0-0.524,0.256-0.602,0.548c-0.058,0.152-0.077,0.329-0.058,0.541v5.342 c-0.019,0.406,0.077,0.699,0.251,0.911c0.096,0.1,0.232,0.152,0.408,0.152c0.368,0,0.544-0.229,0.621-0.521 c0.058-0.152,0.077-0.329,0.058-0.542V6.448L34.271,6.448z M42.432,14.431h-1.963v-0.7c-0.328,0.309-0.621,0.541-0.988,0.718 c-0.195,0.098-0.389,0.133-0.563,0.133c-0.543,0-0.913-0.31-1.147-0.718c-0.251-0.39-0.368-0.911-0.368-1.355V5.731 c0-0.449,0.116-0.974,0.368-1.382c0.234-0.389,0.604-0.698,1.147-0.698c0.368,0,0.756,0.212,1.048,0.43 c0.175,0.135,0.329,0.269,0.503,0.427V0.157h1.963V14.431L42.432,14.431z M40.469,6.137c0-0.31-0.292-0.638-0.58-0.638 c-0.292,0-0.525,0.269-0.525,0.638v5.962c0,0.365,0.232,0.641,0.525,0.641c0.288,0,0.58-0.275,0.58-0.641V6.137L40.469,6.137z M48.914,10.621v1.223c-0.055,1.034-0.37,1.751-1.066,2.312c-0.348,0.293-0.836,0.426-1.476,0.426c-1.26,0-1.902-0.698-2.215-1.399 c-0.172-0.401-0.291-0.87-0.31-1.392V6.448c0.061-1.029,0.388-1.788,1.087-2.368c0.333-0.292,0.817-0.43,1.457-0.43 c1.265,0,1.904,0.698,2.213,1.379c0.176,0.408,0.293,0.853,0.31,1.358v3.09h-3.241v2.312c0.021,0.406,0.138,0.699,0.313,0.911 c0.097,0.1,0.229,0.152,0.405,0.152c0.37,0,0.545-0.229,0.62-0.521c0.059-0.152,0.081-0.329,0.081-0.542v-1.169H48.914 L48.914,10.621z M45.672,7.944h1.42V6.448c0-0.408-0.081-0.7-0.272-0.93c-0.1-0.099-0.255-0.159-0.429-0.159 c-0.367,0-0.524,0.256-0.621,0.548c-0.059,0.152-0.077,0.329-0.098,0.541V7.944L45.672,7.944z M54.144,5.827 c-0.171-0.06-0.365-0.079-0.541-0.079c-0.314,0-0.685,0.043-0.993,0.329c-0.369,0.312-0.426,0.645-0.426,0.973v7.381h-1.965V3.807 h1.965v1.187c0.018-0.14,0.155-0.469,0.464-0.778c0.313-0.292,0.777-0.565,1.496-0.565V5.827L54.144,5.827z M54.999,14.431V0.157 h1.651c1.946,0,2.994,0.387,3.558,1.474c0.537,1.087,0.62,2.877,0.62,5.67c0,2.798-0.083,4.562-0.62,5.651 c-0.563,1.087-1.611,1.479-3.558,1.479H54.999L54.999,14.431z M57.1,12.332c0.719,0,1.127-0.08,1.337-0.778 c0.099-0.329,0.176-0.834,0.197-1.515c0.019-0.677,0.019-1.59,0.019-2.757c0-1.163,0-2.076-0.019-2.757 c-0.021-0.662-0.099-1.167-0.197-1.515c-0.21-0.681-0.618-0.754-1.337-0.754V12.332L57.1,12.332z M67.062,11.844 c-0.064,1.034-0.37,1.751-1.048,2.312c-0.35,0.293-0.834,0.426-1.48,0.426c-1.258,0-1.881-0.698-2.194-1.399 c-0.172-0.401-0.289-0.87-0.305-1.392V6.448c0.055-1.029,0.369-1.788,1.044-2.368c0.335-0.292,0.815-0.43,1.455-0.43 c1.265,0,1.908,0.698,2.215,1.379c0.176,0.408,0.295,0.853,0.313,1.358V11.844L67.062,11.844z M65.218,6.448 c0.022-0.408-0.064-0.7-0.258-0.93c-0.096-0.099-0.249-0.159-0.427-0.159c-0.363,0-0.519,0.256-0.602,0.548 c-0.055,0.152-0.076,0.329-0.055,0.541v5.342c-0.021,0.406,0.077,0.699,0.249,0.911c0.103,0.1,0.232,0.152,0.407,0.152 c0.37,0,0.548-0.229,0.62-0.521c0.064-0.152,0.087-0.329,0.064-0.542V6.448L65.218,6.448z M68.368,0.157h1.957v1.959h-1.957V0.157 L68.368,0.157z M70.325,3.807v10.89c0,0.546,0,1.401-0.267,2.102c-0.272,0.718-0.874,1.281-1.986,1.281 c-0.306,0-0.516-0.018-0.656-0.061c-0.075-0.018-0.14-0.038-0.194-0.056v-1.805c0.055,0.017,0.119,0.017,0.176,0.034 c0.138,0.021,0.248,0.042,0.369,0.042c0.327,0,0.48-0.274,0.567-0.601c0.019-0.159,0.034-0.336,0.034-0.508c0-0.176,0-0.331,0-0.447 V3.807H70.325L70.325,3.807z M76.735,11.844c-0.064,1.034-0.369,1.751-1.056,2.312c-0.342,0.293-0.834,0.426-1.47,0.426 c-1.265,0-1.884-0.698-2.197-1.399c-0.176-0.401-0.288-0.87-0.309-1.392V6.448c0.055-1.029,0.365-1.788,1.048-2.368 c0.335-0.292,0.817-0.43,1.458-0.43c1.258,0,1.894,0.698,2.213,1.379c0.175,0.408,0.286,0.853,0.313,1.358V11.844L76.735,11.844z M74.883,6.448c0.026-0.408-0.057-0.7-0.25-0.93c-0.093-0.099-0.253-0.159-0.424-0.159c-0.374,0-0.521,0.256-0.606,0.548 c-0.057,0.152-0.074,0.329-0.057,0.541v5.342c-0.018,0.406,0.077,0.699,0.253,0.911c0.099,0.1,0.232,0.152,0.41,0.152 c0.369,0,0.545-0.229,0.617-0.521c0.057-0.152,0.083-0.329,0.057-0.542V6.448L74.883,6.448z"/><path fill="#FEFEFE" d="M9.743,18.122c-0.09,0-0.163,0.029-0.225,0.091c-0.063,0.059-0.094,0.134-0.094,0.217 c0,0.087,0.031,0.166,0.094,0.229c0.062,0.063,0.135,0.096,0.225,0.096h2.559c0.089,0,0.162-0.029,0.227-0.092 c0.063-0.063,0.091-0.137,0.091-0.225v-1.638c0-0.092-0.029-0.166-0.091-0.229c-0.064-0.063-0.137-0.092-0.227-0.092 s-0.162,0.033-0.225,0.096s-0.093,0.138-0.093,0.225v1.322h-0.634v-4.378H9.757c-0.089,0-0.162,0.029-0.224,0.092 c-0.064,0.063-0.094,0.137-0.094,0.225c0,0.091,0.029,0.162,0.094,0.225c0.062,0.066,0.135,0.096,0.224,0.096h0.96v3.741H9.743z"/><path d="M10.736,0C4.806,0,0,4.81,0,10.738s4.808,10.734,10.736,10.734c5.931,0,10.736-4.806,10.736-10.734 C21.472,4.806,16.664,0,10.736,0z M12.619,18.437c0,0.088-0.029,0.162-0.091,0.225c-0.064,0.063-0.137,0.092-0.227,0.092H9.743 c-0.09,0-0.163-0.033-0.225-0.096c-0.063-0.063-0.094-0.142-0.094-0.229c0-0.083,0.031-0.158,0.094-0.217 c0.062-0.062,0.135-0.091,0.225-0.091h0.975V14.38h-0.96c-0.089,0-0.162-0.029-0.224-0.096c-0.064-0.063-0.094-0.134-0.094-0.225 c0-0.088,0.029-0.162,0.094-0.225c0.062-0.063,0.135-0.092,0.224-0.092h1.592v4.378h0.634v-1.322c0-0.087,0.031-0.162,0.093-0.225 s0.135-0.096,0.225-0.096s0.162,0.029,0.227,0.092c0.063,0.063,0.091,0.137,0.091,0.229V18.437z M10.626,10.738 c-2.808,0-5.091,2.278-5.091,5.088c0,2.765,2.214,5.018,4.962,5.089c-5.558-0.071-10.05-4.603-10.05-10.177 c0-5.571,4.479-10.098,10.032-10.179c0.05-0.004,0.098-0.004,0.149-0.004l-0.002,0.004c2.806,0,5.088,2.276,5.088,5.091 C15.714,8.456,13.436,10.738,10.626,10.738z"/><path fill="#FEFEFE" d="M9.657 2.885H11.588000000000001V6.6259999999999994H9.657z"/><path fill="#FEFEFE" d="M10.626,0.559l0.002-0.004c-0.052,0-0.1,0-0.149,0.004C4.926,0.64,0.447,5.167,0.447,10.738 c0,5.575,4.492,10.106,10.05,10.177c-2.748-0.071-4.962-2.324-4.962-5.089c0-2.811,2.283-5.088,5.091-5.088 c2.81,0,5.088-2.282,5.088-5.088C15.714,2.835,13.432,0.559,10.626,0.559z M12.22,6.647c0,0.17-0.058,0.316-0.181,0.432 c-0.117,0.121-0.262,0.183-0.431,0.183h-1.97c-0.17,0-0.318-0.063-0.435-0.183C9.085,6.963,9.025,6.818,9.025,6.647H9.023V2.856 c0-0.166,0.058-0.312,0.181-0.428c0.121-0.121,0.264-0.183,0.43-0.183h1.981c0.162,0,0.308,0.062,0.424,0.183 c0.118,0.121,0.181,0.266,0.181,0.428V6.647z"/><path d="M11.615,2.245H9.634c-0.166,0-0.31,0.062-0.43,0.183C9.082,2.544,9.023,2.69,9.023,2.856v3.792h0.002 c0,0.17,0.06,0.316,0.179,0.432C9.32,7.2,9.468,7.263,9.639,7.263h1.97c0.168,0,0.314-0.063,0.431-0.183 c0.123-0.116,0.181-0.262,0.181-0.432V2.856c0-0.162-0.063-0.308-0.181-0.428C11.923,2.307,11.777,2.245,11.615,2.245z M11.588,6.626H9.657V2.885h1.931V6.626z"/><g fill="#FFF"><path d="M25.552 18.655l-.064-.245h-.046v3.039h-.721V16.09h.701l.765 2.793.066.246h.044V16.09h.721v5.358h-.698L25.552 18.655zM28.739 17.462h.738v3.986h-.738v-.333c-.015.005-.044.034-.079.071-.087.087-.189.191-.322.262-.064.037-.131.059-.197.059-.195 0-.335-.117-.422-.271-.087-.146-.131-.341-.131-.507v-3.268h.736v3.155c0 .153.087.174.177.174.079 0 .123-.041.175-.091.021-.025.043-.059.064-.096V17.462zM27.689 16.09h.68v.715h-.68V16.09zM28.718 16.09h.678v.715h-.678V16.09zM31.532 18.218c-.066-.021-.137-.028-.204-.028-.116 0-.256.017-.372.124-.139.116-.16.241-.16.366v2.769h-.738v-3.986h.738v.444c.006-.054.058-.175.175-.295.116-.108.291-.208.561-.208V18.218zM32.59 21.449h-.738v-3.986h.738v.332c.015-.004.043-.033.087-.079.081-.079.189-.191.32-.262.067-.037.125-.05.191-.05.195 0 .334.116.422.262.087.154.131.35.131.516v3.268h-.736v-3.155c0-.154-.087-.175-.174-.175-.081 0-.125.042-.175.092-.023.029-.043.058-.066.096V21.449zM34.312 16.09h.736v1.634c.125-.116.235-.204.38-.271.064-.037.139-.05.204-.05.204 0 .343.116.438.262.087.154.131.35.131.516v2.549c0 .166-.043.361-.131.507-.096.153-.235.271-.438.271-.139 0-.285-.079-.393-.158-.066-.05-.125-.104-.191-.162v.262h-.736V16.09zM35.047 20.576c0 .138.11.241.22.241.108 0 .195-.104.195-.241v-2.24c0-.138-.087-.241-.195-.241-.11 0-.22.124-.22.241V20.576zM38.6 20.019v.461c-.021.387-.137.657-.403.869-.129.108-.312.158-.551.158-.476 0-.715-.263-.833-.524-.064-.153-.108-.328-.116-.523v-2.008c.022-.387.147-.67.409-.89.125-.108.306-.158.547-.158.474 0 .715.262.832.516.062.153.112.32.116.511v1.16h-1.218v.869c.008.153.05.262.117.341.037.037.087.059.154.059.139 0 .204-.088.233-.196.022-.058.031-.124.031-.203v-.44H38.6zM37.381 19.012h.534v-.561c0-.154-.031-.262-.104-.35-.036-.037-.094-.058-.16-.058-.139 0-.198.095-.233.203-.023.059-.029.125-.038.204V19.012zM40.561 18.218c-.066-.021-.137-.028-.203-.028-.117 0-.258.017-.374.124-.137.116-.158.241-.158.366v2.769h-.739v-3.986h.739v.444c.009-.054.059-.175.175-.295.116-.108.291-.208.561-.208V18.218zM42.686 19.524c-.025.374-.158.636-.408.831-.133.104-.316.154-.539.154-.025 0-.047 0-.068 0-.023 0-.049 0-.074-.009-.066.059-.1.117-.1.184 0 .087.07.137.18.17.111.033.244.055.377.079.232.029.482.088.691.225.195.142.332.35.332.702 0 .387-.166.649-.398.803-.242.154-.566.216-.865.216-.35-.008-.648-.058-.848-.174-.217-.117-.334-.308-.334-.599 0-.138.076-.254.184-.357.107-.101.258-.184.395-.246-.236-.066-.445-.22-.445-.532 0-.116.068-.236.154-.345.088-.108.195-.195.305-.254-.209-.141-.313-.357-.363-.54-.027-.108-.053-.221-.057-.328v-1.09c.029-.369.145-.64.402-.852.125-.108.303-.158.533-.158.369 0 .598.166.73.361.055-.05.141-.137.258-.216.107-.083.232-.146.35-.146v.657c-.195 0-.342.033-.432.087.008.033.016.07.023.092 0 .028 0 .058.01.083.008.021.008.05.008.07V19.524zM41.622 21.631c-.158.088-.275.2-.275.35 0 .153.143.278.482.278.125 0 .268-.021.375-.066.107-.042.191-.108.191-.204 0-.066-.008-.116-.059-.166-.059-.05-.158-.087-.342-.116L41.622 21.631zM41.961 18.443c0-.137-.033-.225-.086-.304-.029-.037-.07-.058-.137-.058-.117 0-.176.096-.201.183-.016.05-.023.116-.016.179v1.098c-.008.138.016.225.082.3.029.033.072.058.135.058.123 0 .174-.087.199-.175.016-.054.023-.12.023-.183V18.443z"/></g></svg>