<?xml version="1.0" encoding="utf-8"?><!DOCTYPE svg PUBLIC "-//W3C//DTD SVG 1.1//EN" "http://www.w3.org/Graphics/SVG/1.1/DTD/svg11.dtd"><svg xmlns="http://www.w3.org/2000/svg" width="420.055" height="500" viewBox="0 0 420.055 500"><path d="M44.883,351.186v15.761c-0.131,4.674-1.091,8.861-2.796,12.486c-1.396,3.1-3.578,6.071-6.721,8.426 c-3.101,2.49-7.338,3.889-12.925,3.889c-5.634,0-9.999-1.398-13.1-3.889c-3.1-2.354-5.151-5.282-6.55-8.426 c-1.701-3.578-2.661-7.77-2.792-12.486v-67.497c0.175-4.542,1.091-8.733,2.792-12.314c1.398-3.101,3.406-6.243,6.55-8.559 c3.101-2.354,7.466-3.885,13.1-3.885c5.632,0,9.824,1.573,12.925,3.885c3.096,2.358,5.279,5.458,6.721,8.559 c1.705,3.581,2.665,7.772,2.796,12.314v15.76H29.119v-15.76c0-3.101-0.784-5.284-2.486-7.163c-0.788-0.785-2.184-1.265-3.888-1.265 c-2.969,0-4.364,2.181-5.151,4.189c-0.478,1.266-0.61,2.665-0.786,4.238v67.497c0.176,3.274,1.093,5.458,2.666,7.16 c0.784,0.785,1.875,1.267,3.271,1.267c3.581,0,4.979-1.877,5.765-4.192c0.48-1.091,0.609-2.486,0.609-4.19v-15.761h15.764V351.186z M93.956,369.74c-0.481,8.251-2.969,14.016-8.426,18.557c-2.794,2.357-6.725,3.404-11.833,3.404 c-10.128,0-15.105-5.63-17.638-11.22c-1.398-3.274-2.357-7.028-2.489-11.22v-42.875c0.48-8.252,2.968-14.321,8.426-18.993 c2.665-2.358,6.55-3.45,11.701-3.45c10.131,0,15.282,5.633,17.769,11.092c1.398,3.274,2.358,6.853,2.49,10.915V369.74z M79.155,326.387c0.175-3.275-0.482-5.59-2.009-7.467c-0.785-0.785-2.008-1.267-3.406-1.267c-2.969,0-4.235,2.009-4.846,4.366 c-0.48,1.267-0.608,2.664-0.48,4.367v42.875c-0.128,3.274,0.613,5.63,2.009,7.335c0.787,0.784,1.88,1.267,3.274,1.267 c2.971,0,4.367-1.881,4.976-4.192c0.482-1.267,0.614-2.664,0.482-4.366V326.387z M144.691,390.48h-15.765v-5.633 c-2.661,2.49-4.976,4.366-7.944,5.762c-1.572,0.788-3.143,1.092-4.542,1.092c-4.365,0-7.333-2.487-9.21-5.762 c-2.009-3.101-2.972-7.335-2.972-10.916v-54.398c0-3.582,0.92-7.773,2.972-11.049c1.877-3.1,4.845-5.633,9.21-5.633 c2.97,0,6.069,1.705,8.428,3.45c1.397,1.091,2.664,2.183,4.059,3.406v-34.929h15.765V390.48z M128.927,323.896 c0-2.487-2.354-5.151-4.669-5.151c-2.358,0-4.192,2.183-4.192,5.151v47.853c0,2.968,1.877,5.151,4.192,5.151 c2.357,0,4.669-2.184,4.669-5.151V323.896z M196.732,359.918v9.822c-0.479,8.251-2.969,14.016-8.556,18.557 c-2.796,2.357-6.725,3.404-11.832,3.404c-10.131,0-15.282-5.63-17.77-11.22c-1.397-3.274-2.358-7.028-2.49-11.22v-42.875 c0.482-8.252,3.101-14.321,8.732-18.993c2.663-2.358,6.55-3.45,11.701-3.45c10.129,0,15.28,5.633,17.77,11.092 c1.398,3.274,2.358,6.853,2.49,10.915v24.797h-26.023v18.558c0.174,3.275,1.091,5.633,2.489,7.334 c0.785,0.786,1.876,1.267,3.274,1.267c2.969,0,4.367-1.877,4.978-4.19c0.48-1.268,0.61-2.666,0.61-4.367v-9.343h14.672 L196.732,359.918z M170.711,338.394h11.396v-12.007c0-3.275-0.61-5.59-2.184-7.467c-0.786-0.785-2.005-1.267-3.404-1.267 c-2.968,0-4.234,2.009-4.977,4.366c-0.48,1.267-0.613,2.664-0.787,4.367v12.007H170.711z M238.734,321.409 c-1.396-0.481-2.969-0.612-4.367-0.612c-2.486,0-5.455,0.306-7.944,2.664c-2.968,2.489-3.45,5.151-3.45,7.773v59.246h-15.761 V305.21h15.761v9.519c0.176-1.093,1.267-3.754,3.757-6.244c2.486-2.357,6.243-4.541,12.005-4.541V321.409z M245.59,390.48V275.915 h13.271c15.589,0,24.016,3.1,28.511,11.832c4.367,8.729,4.979,23.096,4.979,45.538c0,22.441-0.612,36.629-4.979,45.362 c-4.495,8.732-12.922,11.833-28.511,11.833H245.59z M262.442,373.629c5.765,0,9.036-0.614,10.741-6.247 c0.785-2.661,1.396-6.722,1.569-12.136c0.176-5.458,0.176-12.793,0.176-22.136s0-16.678-0.176-22.136 c-0.128-5.283-0.784-9.343-1.569-12.139c-1.705-5.459-4.977-6.069-10.741-6.069v80.904V373.629z M342.429,369.74 c-0.48,8.251-2.971,14.016-8.426,18.557c-2.796,2.357-6.725,3.404-11.832,3.404c-10.131,0-15.108-5.63-17.641-11.22 c-1.396-3.274-2.358-7.028-2.486-11.22v-42.875c0.478-8.252,2.968-14.321,8.426-18.993c2.661-2.358,6.55-3.45,11.701-3.45 c10.127,0,15.278,5.633,17.769,11.092c1.398,3.274,2.358,6.853,2.489,10.915V369.74z M327.629,326.387 c0.174-3.275-0.482-5.59-2.009-7.467c-0.788-0.785-2.008-1.267-3.407-1.267c-2.968,0-4.234,2.009-4.845,4.366 c-0.48,1.267-0.613,2.664-0.48,4.367v42.875c-0.133,3.274,0.61,5.63,2.009,7.335c0.784,0.784,1.876,1.267,3.274,1.267 c2.968,0,4.365-1.881,4.976-4.192c0.482-1.267,0.61-2.664,0.482-4.366V326.387z M352.907,275.871h15.761v15.762h-15.761V275.871z M368.668,305.167v87.45c0,4.367,0,11.224-2.184,16.855c-2.184,5.762-7.028,10.303-15.893,10.303c-2.487,0-4.191-0.174-5.283-0.48 c-0.61-0.176-1.091-0.304-1.569-0.479v-14.497c0.479,0.133,0.917,0.133,1.395,0.307c1.092,0.175,2.008,0.307,2.971,0.307 c2.662,0,3.886-2.184,4.496-4.848c0.175-1.267,0.307-2.661,0.307-4.06v-90.857H368.668z M420.055,369.697 c-0.478,8.252-2.968,14.017-8.426,18.558c-2.793,2.354-6.721,3.403-11.829,3.403c-10.131,0-15.108-5.633-17.641-11.221 c-1.397-3.274-2.357-7.029-2.489-11.222v-42.873c0.48-8.251,2.971-14.322,8.43-18.992c2.661-2.358,6.546-3.449,11.7-3.449 c10.128,0,15.279,5.632,17.77,11.09c1.395,3.274,2.357,6.854,2.485,10.913V369.697z M405.255,326.343 c0.174-3.274-0.479-5.59-2.009-7.467c-0.785-0.784-2.008-1.266-3.403-1.266c-2.968,0-4.234,2.008-4.849,4.366 c-0.478,1.267-0.609,2.661-0.478,4.366v42.873c-0.132,3.274,0.609,5.633,2.009,7.337c0.784,0.786,1.877,1.265,3.274,1.265 c2.968,0,4.363-1.877,4.977-4.188c0.479-1.267,0.61-2.666,0.479-4.367V326.343z"/><path fill="#FEFEFE" d="M198.289,214.086c-1.048,0-1.924,0.387-2.658,1.092c-0.74,0.696-1.092,1.557-1.092,2.569 c0,1.047,0.352,1.959,1.092,2.703c0.734,0.743,1.61,1.13,2.658,1.13h30.242c1.054,0,1.912-0.34,2.664-1.092 c0.735-0.735,1.091-1.609,1.091-2.663v-19.363c0-1.053-0.355-1.929-1.091-2.663c-0.752-0.735-1.61-1.093-2.664-1.093 c-1.052,0-1.919,0.396-2.662,1.131c-0.737,0.75-1.093,1.617-1.093,2.625v15.624h-7.502v-51.712h-18.807 c-1.053,0-1.924,0.356-2.663,1.092c-0.747,0.743-1.093,1.61-1.093,2.663c0,1.046,0.346,1.912,1.093,2.656 c0.739,0.743,1.61,1.091,2.663,1.091h11.343v44.21H198.289z"/><path d="M210.027,0C139.947,0,83.176,56.813,83.176,126.852c0,70.077,56.814,126.853,126.852,126.853 c70.077,0,126.852-56.814,126.852-126.853C336.879,56.772,280.064,0,210.027,0z M232.286,217.825c0,1.054-0.355,1.928-1.091,2.663 c-0.752,0.752-1.61,1.092-2.664,1.092h-30.242c-1.048,0-1.924-0.387-2.658-1.13c-0.74-0.744-1.092-1.656-1.092-2.703 c0-1.013,0.352-1.873,1.092-2.569c0.734-0.705,1.61-1.092,2.658-1.092h11.521v-44.21h-11.343c-1.053,0-1.924-0.348-2.663-1.091 c-0.747-0.744-1.093-1.61-1.093-2.656c0-1.053,0.346-1.92,1.093-2.663c0.739-0.735,1.61-1.092,2.663-1.092h18.807v51.712h7.502 v-15.624c0-1.008,0.355-1.875,1.093-2.625c0.743-0.735,1.61-1.131,2.662-1.131c1.054,0,1.912,0.357,2.664,1.093 c0.735,0.734,1.091,1.61,1.091,2.663V217.825z M208.72,126.852c-33.165,0-60.132,26.929-60.132,60.128 c0,32.688,26.138,59.3,58.606,60.136c-65.675-0.836-118.737-54.367-118.737-120.264c0-65.807,52.93-119.298,118.52-120.259 c0.608-0.05,1.173-0.05,1.781-0.05l-0.038,0.05c33.16,0,60.134,26.917,60.134,60.128 C268.854,99.886,241.926,126.852,208.72,126.852z"/><path fill="#FEFEFE" d="M197.284 34.082H220.099V78.283H197.284z"/><path fill="#FEFEFE" d="M208.72,6.593l0.038-0.05c-0.608,0-1.173,0-1.781,0.05c-65.59,0.961-118.52,54.452-118.52,120.259 c0,65.896,53.063,119.428,118.737,120.264c-32.469-0.836-58.606-27.447-58.606-60.136c0-33.199,26.967-60.128,60.132-60.128 c33.206,0,60.134-26.966,60.134-60.131C268.854,33.51,241.88,6.593,208.72,6.593z M227.564,78.548 c0,2.005-0.696,3.703-2.13,5.105c-1.394,1.396-3.098,2.141-5.103,2.141h-23.266c-2.009,0-3.75-0.7-5.144-2.141 c-1.399-1.402-2.1-3.101-2.1-5.105h-0.043V33.73c0-1.968,0.698-3.666,2.143-5.06c1.435-1.44,3.135-2.143,5.102-2.143h23.386 c1.927,0,3.631,0.702,5.024,2.143c1.394,1.436,2.13,3.136,2.13,5.06V78.548z"/><path d="M220.41,26.528h-23.386c-1.967,0-3.667,0.702-5.102,2.143c-1.444,1.394-2.143,3.092-2.143,5.06v44.817h0.043 c0,2.005,0.7,3.703,2.1,5.105c1.394,1.44,3.135,2.141,5.144,2.141h23.266c2.005,0,3.709-0.744,5.103-2.141 c1.434-1.402,2.13-3.101,2.13-5.105V33.73c0-1.924-0.736-3.624-2.13-5.06C224.041,27.23,222.337,26.528,220.41,26.528z M220.1,78.283h-22.815V34.082H220.1V78.283z"/><g><path d="M94.713 441.658l-.907-3.427h-.604v42.019h-9.977v-74.061H92.9l10.58 38.592.906 3.425h.604v-42.017h9.976v74.061h-9.673L94.713 441.658zM138.743 425.133h10.178v55.117h-10.178v-4.635c-.201.101-.604.504-1.108 1.008-1.209 1.209-2.619 2.62-4.435 3.627-.906.505-1.813.807-2.721.807-2.72 0-4.634-1.612-5.844-3.728-1.209-2.015-1.813-4.736-1.813-7.055v-45.142H133v43.63c0 2.118 1.209 2.419 2.418 2.419 1.107 0 1.713-.604 2.418-1.311.303-.302.605-.806.907-1.309V425.133zM124.233 406.189h9.371v9.875h-9.371V406.189zM138.441 406.189h9.371v9.875h-9.371V406.189zM177.333 435.612c-.907-.304-1.914-.404-2.82-.404-1.614 0-3.527.203-5.14 1.714-1.915 1.612-2.218 3.326-2.218 5.038v38.29h-10.177v-55.117h10.177v6.146c.101-.704.806-2.418 2.42-4.029 1.611-1.513 4.029-2.923 7.758-2.923V435.612zM191.94 480.25h-10.177v-55.117h10.177v4.635c.201-.101.604-.504 1.208-1.108 1.108-1.108 2.622-2.62 4.435-3.627.907-.505 1.714-.706 2.62-.706 2.721 0 4.636 1.612 5.844 3.627 1.21 2.116 1.813 4.837 1.813 7.155v45.142h-10.175v-43.63c0-2.116-1.209-2.419-2.419-2.419-1.107 0-1.714.604-2.418 1.311-.303.402-.604.805-.907 1.31V480.25zM215.72 406.189h10.176v22.57c1.712-1.612 3.224-2.821 5.238-3.728.91-.505 1.917-.706 2.822-.706 2.821 0 4.737 1.612 6.045 3.627 1.211 2.116 1.815 4.837 1.815 7.155v35.166c0 2.318-.604 5.04-1.815 7.055-1.308 2.115-3.224 3.728-6.045 3.728-1.912 0-3.93-1.109-5.438-2.216-.91-.706-1.715-1.412-2.622-2.218v3.627H215.72V406.189zM225.896 468.159c0 1.914 1.512 3.325 3.023 3.325 1.511 0 2.722-1.411 2.722-3.325v-30.936c0-1.915-1.211-3.324-2.722-3.324-1.512 0-3.023 1.713-3.023 3.324V468.159zM274.964 460.5v6.349c-.301 5.341-1.913 9.069-5.541 11.992-1.815 1.51-4.331 2.216-7.658 2.216-6.549 0-9.875-3.628-11.489-7.254-.904-2.118-1.511-4.536-1.61-7.255v-27.713c.303-5.339 2.015-9.269 5.643-12.292 1.713-1.511 4.231-2.217 7.558-2.217 6.549 0 9.874 3.627 11.487 7.154.906 2.115 1.51 4.434 1.611 7.054v16.021h-16.827v11.993c.1 2.114.706 3.627 1.612 4.734.505.504 1.209.806 2.116.806 1.914 0 2.82-1.207 3.227-2.719.299-.807.401-1.715.401-2.821V460.5H274.964zM258.137 446.596h7.356v-7.761c0-2.115-.401-3.627-1.41-4.836-.505-.503-1.311-.806-2.218-.806-1.914 0-2.721 1.311-3.226 2.822-.301.806-.403 1.712-.503 2.819V446.596zM302.068 435.612c-.91-.304-1.917-.404-2.822-.404-1.613 0-3.526.203-5.14 1.714-1.915 1.612-2.216 3.326-2.216 5.038v38.29h-10.179v-55.117h10.179v6.146c.1-.704.807-2.418 2.416-4.029 1.613-1.513 4.033-2.923 7.762-2.923V435.612zM331.387 453.649c-.301 5.138-2.115 8.766-5.642 11.486-1.814 1.412-4.333 2.116-7.456 2.116-.304 0-.606 0-.908 0-.303 0-.705 0-1.007-.101-.907.806-1.412 1.611-1.412 2.519 0 1.211 1.008 1.914 2.52 2.317 1.511.505 3.324.806 5.239 1.109 3.225.402 6.651 1.208 9.473 3.123 2.721 1.915 4.636 4.837 4.636 9.674 0 5.341-2.318 8.968-5.544 11.083-3.325 2.116-7.758 3.023-11.888 3.023-4.838-.1-8.969-.806-11.791-2.417-2.922-1.613-4.534-4.233-4.534-8.264 0-1.915 1.009-3.527 2.52-4.938 1.511-1.409 3.525-2.518 5.44-3.425-3.324-.906-6.146-3.023-6.146-7.356 0-1.612.906-3.225 2.117-4.736 1.208-1.512 2.72-2.721 4.231-3.526-2.923-1.914-4.334-4.938-5.038-7.456-.404-1.512-.705-3.022-.808-4.534v-15.016c.403-5.138 2.016-8.866 5.542-11.788 1.714-1.511 4.233-2.217 7.358-2.217 5.138 0 8.26 2.318 10.176 5.037.704-.704 1.915-1.913 3.525-3.021 1.513-1.108 3.224-2.016 4.839-2.016v9.068c-2.72 0-4.735.505-5.946 1.21.102.504.203 1.008.303 1.31 0 .402 0 .806.1 1.108.102.304.102.705.102 1.007V453.649zM316.676 482.77c-2.116 1.208-3.729 2.721-3.729 4.837s1.913 3.829 6.65 3.829c1.713 0 3.628-.302 5.14-.907 1.512-.604 2.619-1.512 2.619-2.821 0-.906-.103-1.612-.808-2.317-.804-.705-2.115-1.209-4.634-1.613L316.676 482.77zM321.412 438.735c0-1.914-.403-3.123-1.211-4.231-.4-.505-1.007-.807-1.912-.807-1.613 0-2.419 1.311-2.723 2.521-.2.704-.301 1.611-.2 2.518v15.114c-.101 1.915.2 3.124 1.107 4.132.404.504 1.008.806 1.815.806 1.712 0 2.418-1.208 2.82-2.418.201-.705.303-1.611.303-2.52V438.735z"/></g></svg>