<?xml version="1.0" encoding="utf-8"?><!DOCTYPE svg PUBLIC "-//W3C//DTD SVG 1.1//EN" "http://www.w3.org/Graphics/SVG/1.1/DTD/svg11.dtd"><svg xmlns="http://www.w3.org/2000/svg" width="181.62" height="196.649" viewBox="708.65 351.72 181.62 196.649"><g fill="#878787"><path d="M710.72 524.43c-1.351-1.44-2.07-3.33-2.07-5.67 0-2.25.45-4.32 1.44-6.21.989-1.891 2.34-3.33 4.14-4.5 1.8-1.08 3.87-1.62 6.21-1.62 1.89 0 3.42.18 4.68.63 1.261.36 1.891 1.26 1.891 2.7 0 .72-.181 2.069-.54 3.87h-1.17c0-.181 0-.54 0-.99 0-1.44-.36-2.521-1.17-3.24-.811-.72-1.98-1.08-3.421-1.08-1.529 0-2.789.63-3.779 1.891-.99 1.26-1.71 2.789-2.16 4.5-.45 1.8-.72 3.42-.72 4.949 0 3.33 1.35 5.04 4.05 5.04 1.35 0 2.43-.27 3.42-.899s1.98-1.44 2.97-2.521l1.08.9c-1.08 1.26-2.25 2.25-3.51 3.06-1.351.811-3.06 1.17-5.13 1.17C714.14 526.591 712.07 525.87 710.72 524.43zM744.289 508.41c.181.45.271.721.271.811l-2.34 1.62c-.09-.271-.271-.54-.54-.811-.54-.54-1.17-.81-1.98-.81-1.62 0-2.88.45-3.87 1.26 0 .18 0 .36 0 .63 0 .18 0 .36 0 .63 0 .271-.09.54-.09.721l-2.43 13.77H728c1.079-6.57 1.709-10.35 1.89-11.16.45-2.97.72-4.5.72-4.68 0-.72-.18-1.351-.54-1.71-.36-.36-.899-.54-1.8-.54h-.45l.181-1.26h4.05c.899 0 1.62.09 2.159.359.45.271.811.63 1.08 1.17 1.711-1.26 3.511-1.89 5.49-1.89 1.17 0 2.07.27 2.79.81C743.84 507.6 744.11 507.961 744.289 508.41zM744.38 524.52c-1.171-1.35-1.801-3.15-1.801-5.311 0-1.979.45-3.96 1.261-5.939.899-1.98 2.069-3.6 3.689-4.86 1.62-1.26 3.51-1.89 5.67-1.89 1.44 0 2.521.36 3.33 1.17.45.36.721.72.9 1.08h.18l1.8-1.8h3.511l-2.7 15.12-.72 4.14h-3.511l-1.17-1.8h-.18c-.36.45-.81.81-1.351 1.17-1.08.72-2.25 1.08-3.779 1.08C747.35 526.591 745.64 525.961 744.38 524.52zM752.39 524.43c.45-.271.899-.54 1.439-.99.45-.36.811-.81 1.171-1.35l1.979-11.07c-.18-.45-.36-.9-.72-1.35-.721-.9-1.53-1.351-2.521-1.351-1.35 0-2.43.72-3.239 2.07-.9 1.439-1.53 3.06-1.891 4.95-.359 1.89-.63 3.51-.63 4.859 0 2.971.99 4.5 2.88 4.5C751.4 524.79 751.94 524.61 752.39 524.43zM779.57 525.51c-.899-.721-1.26-1.891-1.26-3.33 0-.181.18-1.26.45-3.24.27-1.89.899-5.31 1.71-10.17h-2.431l.36-1.8h2.43l.63-3.69 2.521-2.43h3.24l-1.08 6.12h4.5l-.36 1.8h-4.5c-1.529 8.73-2.34 13.32-2.34 13.86 0 .81.18 1.35.45 1.62.27.27.72.449 1.26.449.81 0 1.62-.18 2.34-.54.271-.09.63-.27.99-.54l.36 1.171c-.36.27-.811.539-1.44.899-1.26.63-2.61.9-4.14.9C781.73 526.591 780.47 526.23 779.57 525.51zM793.159 516.33c.721-4.05.99-6.21.99-6.3 0-.72-.18-1.35-.54-1.71-.359-.359-.99-.54-1.8-.54h-.18l.09-.81h3.06c1.08 0 1.8.18 2.25.45.45.27.811.81.9 1.35h.18c1.53-1.53 3.51-2.25 5.94-2.25 1.979 0 3.42.63 4.409 1.979.99 1.351 1.53 3.061 1.53 5.221 0 1.979-.359 3.87-1.08 5.939-.72 1.98-1.89 3.69-3.33 5.04-1.529 1.351-3.329 1.98-5.399 1.98-1.8 0-3.42-.45-4.95-1.261l-1.53 8.641h-3.6L793.159 516.33zM803.24 523.08c1.08-1.26 1.8-2.79 2.25-4.59s.72-3.51.72-5.13-.27-2.88-.899-3.87c-.54-.899-1.44-1.35-2.7-1.35-1.08 0-1.89.27-2.7.72-.72.45-1.439 1.08-2.069 1.8l-2.34 13.141c1.439.81 2.699 1.26 3.689 1.26C800.9 524.97 802.159 524.341 803.24 523.08zM813.949 511.921c.271-1.71.63-3.601.99-5.94.36-2.25.63-3.51.63-3.69 0-.72-.18-1.35-.54-1.71-.359-.359-.99-.63-1.8-.63h-.81l.18-.81h3.689c1.17 0 1.98.18 2.431.45.45.359.72.989.72 1.979 0 .45-.27 1.98-.72 4.771s-1.62 9.359-3.42 19.71h-3.69L813.949 511.921zM821.42 524.61c-.99-1.35-1.53-3.06-1.53-5.13 0-1.98.36-3.96 1.17-5.85.72-1.891 1.89-3.511 3.33-4.86 1.53-1.35 3.239-2.07 5.399-2.25 2.25 0 3.78.72 4.681 2.25h.18l1.8-1.8h2.07l-2.79 15.66-.63 3.6h-2.07l-1.17-1.8h-.18c-.63.63-1.44 1.17-2.34 1.62-.9.449-2.07.63-3.601.63C823.94 526.591 822.409 525.961 821.42 524.61zM830.15 524.341c.72-.45 1.351-1.08 1.98-1.801l2.159-11.88c-.449-.81-.899-1.439-1.35-1.8-.45-.45-1.17-.63-2.07-.63-1.529 0-2.88.63-3.869 1.89-1.08 1.261-1.801 2.79-2.25 4.59-.45 1.801-.721 3.511-.721 5.04 0 1.62.271 2.881.9 3.78.54.9 1.439 1.44 2.7 1.44C828.53 524.97 829.43 524.79 830.15 524.341zM841.67 524.52c-1.261-1.35-1.891-3.24-1.891-5.49 0-2.069.45-4.05 1.351-5.939.899-1.98 2.159-3.511 3.87-4.771 1.709-1.26 3.6-1.8 5.85-1.8 1.71 0 3.24.18 4.41.54 1.26.36 1.8 1.26 1.8 2.61 0 .63-.18 1.71-.45 3.239v.271h-.81c0-.181 0-.54 0-.9 0-1.35-.36-2.43-1.17-3.149-.811-.721-1.891-1.08-3.24-1.08-1.71 0-3.061.54-4.23 1.71s-1.979 2.52-2.609 4.229c-.54 1.71-.811 3.42-.811 5.04 0 1.8.36 3.24 1.17 4.23.811.989 1.98 1.529 3.511 1.529 1.35 0 2.609-.27 3.6-.81s1.98-1.35 2.97-2.52l.72.63c-1.17 1.529-2.43 2.609-3.779 3.33-1.351.63-2.88.989-4.59.989C844.73 526.591 842.93 525.961 841.67 524.52zM860.659 513.091c.45-2.431.63-3.78.63-3.96 0-.54-.09-.99-.359-1.261-.271-.27-.721-.359-1.351-.359h-.27l.18-.9h13.141c1.439 0 2.159.54 2.159 1.71 0 .18-.18 1.26-.539 3.15h-.9c.09-.36.09-.721.09-.99 0-1.71-1.08-2.61-3.15-2.61h-4.77l-1.35 7.471h7.739l-.27 1.35h-7.74l-1.44 8.19h5.131c1.17 0 2.16-.271 2.97-.721.81-.54 1.62-1.35 2.34-2.609l.72.27-1.26 2.34c-.36.72-.81 1.26-1.17 1.62-.45.36-.99.45-1.71.45h-10.98C859.49 519.93 860.209 515.52 860.659 513.091zM877.579 526.32c-.899-.27-1.71-.63-2.25-1.08s-.899-1.08-.899-1.71c0-.18.18-1.439.63-3.87h.81v.181c0 1.979.36 3.33 1.17 4.229.811.9 1.98 1.26 3.69 1.26.72 0 1.44-.09 2.07-.359.63-.271 1.17-.63 1.62-1.17.449-.54.63-1.17.63-1.891 0-.63-.181-1.17-.63-1.71-.36-.45-.99-.989-1.891-1.62l-3.24-2.159c-.989-.631-1.71-1.351-2.159-1.98-.45-.63-.63-1.44-.63-2.25 0-1.26.359-2.34 1.079-3.24.721-.899 1.62-1.62 2.79-2.16 1.17-.449 2.431-.72 3.78-.72 1.08 0 2.07.09 2.97.36.9.27 1.71.63 2.25 1.08s.9 1.08.9 1.71c0 .18-.18 1.439-.63 3.87h-.811v-.36c0-1.89-.359-3.24-1.17-4.14-.72-.811-1.89-1.261-3.42-1.261-.63 0-1.35.091-1.89.36-.63.271-1.08.63-1.53 1.17-.36.54-.63 1.17-.63 1.8s.18 1.17.54 1.53c.36.45.99.9 1.89 1.53l3.33 2.16c1.08.72 1.891 1.439 2.34 2.069.45.63.721 1.351.721 2.16 0 1.351-.45 2.521-1.261 3.51-.81.99-1.89 1.711-3.149 2.16-1.26.45-2.7.721-4.05.721C879.56 526.68 878.48 526.591 877.579 526.32z"/><path d="M772.64,505.801c0.36-1.891,0.81-3.24,1.439-4.051c0.63-0.81,1.44-1.17,2.341-1.17 c0.72,0,1.35,0.181,1.8,0.54c0.18,0.091,0.27,0.181,0.45,0.36l1.8-1.8c-0.09-0.09-0.181-0.181-0.271-0.271 c-0.359-0.18-0.81-0.359-1.529-0.54c-0.631-0.09-1.351-0.18-2.07-0.18c-2.7,0-4.77,0.63-6.3,1.8s-2.521,2.971-2.97,5.311 l-0.181,1.08h-2.43l-0.36,1.8h2.43l-2.88,16.38c-0.45,2.7-1.08,4.59-1.8,5.76s-1.8,1.8-3.15,2.07l-0.18,0.99 c2.25,0,4.141-0.271,5.49-0.811s2.43-1.439,3.24-2.7c0.81-1.26,1.35-3.06,1.8-5.31l2.88-16.38h6.03l0.36-1.8h-6.03L772.64,505.801z"/></g><g fill="#878787"><path d="M780.11,428.22c9.9,12.779,28.53,12.24,38.61,0c1.979-2.34-1.44-5.76-3.42-3.42 c-8.55,10.35-23.49,10.8-31.86,0C781.64,422.461,778.31,425.881,780.11,428.22L780.11,428.22z"/><path d="M799.459,351.72c-33.84,0-61.199,27.45-61.199,61.2c0,32.04,24.66,58.319,56.069,61.02 c-9.359-14.85-27.899-46.35-27.899-61.56c0-20.881,18.45-33.66,33.12-33.66l0,0l0,0l0,0l0,0c14.67,0,33.12,12.779,33.12,33.66 c0,15.21-18.631,46.71-27.9,61.56c31.41-2.61,56.07-28.89,56.07-61.02C860.659,379.08,833.3,351.72,799.459,351.72z"/></g><g fill="#878787"><path d="M714.59 544.14h-3.96l-.721 4.05h-.72l1.53-8.73h5.22l-.09.631h-4.5l-.63 3.42h3.96L714.59 544.14zM719.27 548.19h-.72l1.17-6.48h.72L719.27 548.19zM719.9 539.82c0-.27.18-.45.54-.45.18 0 .27.09.36.181.09.09.09.18.09.359 0 .181-.09.271-.181.36-.09.09-.18.09-.359.18C720.079 540.27 719.9 540.091 719.9 539.82zM725.75 541.711l-.181 1.079c.271-.359.63-.72.99-.899s.81-.36 1.17-.271c.63 0 1.08.271 1.35.631.271.449.36.989.271 1.71l-.72 4.229H728l.72-4.229c0-.271 0-.45 0-.631-.09-.72-.45-1.079-1.17-1.079-.45 0-.811.09-1.17.359-.36.271-.721.63-.99 1.17l-.811 4.41h-.72l1.17-6.479H725.75L725.75 541.711zM733.49 544.95c.09-.72.271-1.26.54-1.8.271-.54.63-.9.99-1.17.45-.27.9-.36 1.35-.36.36 0 .721.09 1.08.271.36.18.54.45.721.81l.63-3.6h.72l-1.62 9.18h-.63l.18-.899c-.54.72-1.26.989-2.069.989-.63 0-1.08-.27-1.44-.72-.359-.45-.54-1.08-.54-1.8 0-.271 0-.45 0-.72L733.49 544.95zM734.209 545.04c0 .271 0 .54 0 .811 0 .54.181.99.36 1.26.271.271.54.45.99.45s.81-.09 1.17-.271c.36-.18.63-.539.81-.899l.54-3.061c-.09-.359-.27-.72-.54-.899-.27-.181-.63-.36-.989-.36-.63 0-1.08.18-1.53.72-.45.45-.63 1.17-.811 1.98V545.04zM750.86 539.461l1.8 7.649 4.5-7.649h.99l-1.53 8.729h-.72l.63-3.87.721-3.78-4.41 7.561h-.54l-1.8-7.65-.631 3.87-.63 3.78h-.72l1.53-8.73h.81V539.461zM761.48 544.86c.09-.63.271-1.17.54-1.71s.72-.9 1.17-1.17.99-.36 1.53-.36.989.181 1.35.45c.36.271.63.63.811 1.17.18.45.27 1.08.18 1.62v.09c-.09.99-.45 1.8-1.08 2.431-.63.63-1.35.899-2.16.899-.72 0-1.35-.27-1.71-.81-.45-.54-.63-1.17-.63-2.07v-.36V544.86zM762.199 545.04c-.09.45 0 .9.09 1.351.091.359.36.72.54.899.271.271.63.36.99.36.45 0 .811-.09 1.17-.36.36-.27.63-.54.9-.989.27-.45.36-.9.45-1.351v-.18c.09-.811-.09-1.44-.36-1.89-.271-.45-.72-.721-1.35-.721s-1.171.271-1.62.721c-.45.54-.721 1.17-.811 2.069V545.04zM776.42 544.95c-.181.99-.45 1.891-.99 2.431s-1.17.899-1.891.899c-.449 0-.81-.09-1.08-.27-.27-.181-.539-.45-.72-.721l-.18.9h-.63l1.62-9.18h.72l-.72 3.689c.54-.72 1.26-1.08 2.069-1.08.63 0 1.08.271 1.44.721.36.449.54 1.08.54 1.8 0 .27 0 .54 0 .72L776.42 544.95zM775.699 544.86v-.54c0-.63-.09-1.17-.359-1.53-.271-.359-.631-.539-1.08-.539-.9 0-1.53.449-2.07 1.35l-.45 2.97c.09.36.271.72.63.9.36.18.631.359.99.359.63 0 1.08-.18 1.53-.72C775.34 546.48 775.61 545.76 775.699 544.86zM780.92 548.19h-.721l1.17-6.48h.721L780.92 548.19zM781.55 539.82c0-.27.18-.45.54-.45.18 0 .27.09.359.181.09.09.09.18.09.359 0 .181-.09.271-.18.36s-.18.09-.359.18C781.73 540.27 781.55 540.091 781.55 539.82zM786.409 548.19h-.72l1.62-9.18h.72L786.409 548.19zM793.61 548.28c-.54 0-.99-.18-1.35-.45-.36-.27-.63-.63-.811-1.17-.18-.54-.27-.989-.18-1.529v-.181c.09-.63.27-1.17.54-1.71.27-.54.72-.99 1.17-1.26.45-.271.99-.45 1.44-.45.449 0 .899.18 1.26.36.359.27.54.63.72 1.08s.18.989.18 1.529l-.09.45h-4.5v.181c-.09.449 0 .81.09 1.26.091.36.36.72.63.99.271.27.631.359.99.359.36 0 .721-.09 1.08-.18.271-.18.63-.36.811-.63l.449.359c-.27.36-.63.631-1.08.811C794.51 548.19 794.06 548.28 793.61 548.28zM794.329 542.16c-.54 0-.989.181-1.35.54-.36.36-.72.9-.9 1.62h3.78v-.09c.09-.54 0-1.08-.27-1.44C795.23 542.43 794.869 542.16 794.329 542.16zM805.76 548.19l1.529-8.73h2.431c.81 0 1.439.271 1.89.631.45.359.63.899.54 1.619 0 .45-.18.811-.54 1.171-.359.359-.72.63-1.17.81.45.09.72.36.99.72.27.36.359.811.27 1.261-.09.72-.359 1.35-.899 1.8s-1.261.72-2.16.72H805.76zM807.199 543.961l-.63 3.6h2.07c.63 0 1.17-.18 1.62-.54.449-.36.72-.81.72-1.35.09-.54-.09-.9-.36-1.17-.27-.271-.72-.45-1.26-.45L807.199 543.961zM807.289 543.33h1.891c.63 0 1.17-.18 1.529-.449.36-.271.631-.721.631-1.261.09-.989-.45-1.529-1.71-1.62h-1.8L807.289 543.33zM819.98 547.381c-.54.63-1.26.989-2.16.899-.63 0-1.08-.27-1.35-.63-.271-.45-.45-.99-.36-1.8l.72-4.14h.721l-.721 4.14c0 .18 0 .45 0 .63 0 .36.181.63.36.81.18.181.45.271.811.36.449 0 .899-.09 1.35-.36.45-.27.63-.539.81-.989l.811-4.681h.72l-1.17 6.48h-.72L819.98 547.381zM829.07 546.48c.09-.54-.27-.99-.99-1.17l-.989-.271c-.99-.359-1.351-.81-1.351-1.619 0-.54.271-.99.72-1.351.45-.359.99-.54 1.711-.45.63 0 1.17.181 1.529.54.36.36.54.811.54 1.44h-.72c0-.36-.09-.72-.36-.99-.27-.27-.63-.36-1.08-.36-.449 0-.81.091-1.17.36-.27.18-.45.54-.54.811-.09.54.271.899.99 1.08l.72.18.36.18c.9.36 1.35.9 1.26 1.62 0 .54-.27.99-.63 1.26-.45.36-.989.54-1.62.54h-.27c-.45 0-.811-.09-1.17-.27-.36-.181-.63-.36-.811-.72-.18-.271-.27-.631-.27-.99h.72c0 .45.181.72.45.99.27.27.63.359 1.17.359.45 0 .9-.09 1.26-.359C828.8 547.11 828.98 546.841 829.07 546.48zM834.56 548.19h-.72l1.17-6.48h.72L834.56 548.19zM835.19 539.82c0-.27.18-.45.54-.45.18 0 .27.09.36.181.09.09.09.18.09.359 0 .181-.09.271-.181.36-.09.09-.18.09-.359.18C835.28 540.27 835.19 540.091 835.19 539.82zM841.039 541.711l-.18 1.079c.27-.359.63-.72.99-.899.359-.18.81-.36 1.17-.271.63 0 1.08.271 1.35.631.271.449.36.989.271 1.71l-.72 4.229h-.721l.721-4.229c0-.271 0-.45 0-.631-.091-.72-.45-1.079-1.17-1.079-.45 0-.811.09-1.171.359-.359.271-.72.63-.989 1.17l-.811 4.41h-.72l1.17-6.479H841.039L841.039 541.711zM851.03 548.28c-.54 0-.99-.18-1.35-.45-.36-.27-.63-.63-.811-1.17-.18-.54-.27-.989-.18-1.529v-.181c.09-.63.27-1.17.54-1.71.27-.54.72-.99 1.17-1.26.45-.271.99-.45 1.44-.45.449 0 .899.18 1.26.36.359.27.54.63.72 1.08s.18.989.18 1.529l-.09.45h-4.5v.181c-.09.449 0 .81.09 1.26.091.36.36.72.63.99.271.27.631.359.99.359.36 0 .721-.09 1.08-.18.271-.18.63-.36.811-.63l.449.359c-.27.36-.63.631-1.08.811C852.02 548.19 851.57 548.28 851.03 548.28zM851.84 542.16c-.54 0-.99.181-1.351.54-.36.36-.72.9-.899 1.62h3.779v-.09c.09-.54 0-1.08-.27-1.44C852.74 542.43 852.289 542.16 851.84 542.16zM861.47 546.48c.09-.54-.271-.99-.99-1.17l-.99-.271c-.989-.359-1.35-.81-1.35-1.619 0-.54.27-.99.72-1.351.45-.359.99-.54 1.71-.45.63 0 1.17.181 1.53.54.36.36.54.811.54 1.44h-.72c0-.36-.09-.72-.36-.99-.271-.27-.63-.36-1.08-.36s-.81.091-1.17.36c-.271.18-.45.54-.54.811-.09.54.27.899.99 1.08l.72.18.36.18c.899.36 1.35.9 1.26 1.62 0 .54-.27.99-.63 1.26-.45.36-.99.54-1.62.54h-.27c-.45 0-.811-.09-1.171-.27-.359-.181-.63-.36-.81-.72-.18-.271-.27-.631-.27-.99h.72c0 .45.18.72.45.99.27.27.63.359 1.17.359.449 0 .899-.09 1.26-.359C861.289 547.11 861.47 546.841 861.47 546.48zM870.289 546.48c.09-.54-.27-.99-.989-1.17l-.99-.271c-.99-.359-1.351-.81-1.351-1.619 0-.54.271-.99.721-1.351.45-.359.99-.54 1.71-.45.63 0 1.17.181 1.53.54.359.36.539.811.539 1.44h-.72c0-.36-.09-.72-.359-.99-.271-.27-.63-.36-1.08-.36s-.811.091-1.17.36c-.271.18-.45.54-.54.811-.09.54.27.899.989 1.08l.721.18.359.18c.9.36 1.351.9 1.261 1.62 0 .54-.271.99-.631 1.26-.449.36-.989.54-1.619.54H868.4c-.45 0-.81-.09-1.17-.27-.36-.181-.63-.36-.81-.72-.181-.271-.271-.631-.271-.99h.72c0 .45.181.72.45.99.271.27.63.359 1.17.359.45 0 .9-.09 1.261-.359C870.11 547.11 870.289 546.841 870.289 546.48zM877.579 548.28c-.54 0-.989-.18-1.35-.45-.36-.27-.63-.63-.81-1.17-.181-.54-.271-.989-.181-1.529v-.181c.09-.63.271-1.17.54-1.71.271-.54.72-.99 1.17-1.26.45-.271.99-.45 1.44-.45s.899.18 1.26.36c.36.27.54.63.72 1.08.181.45.181.989.181 1.529l-.091.45h-4.5v.181c-.09.449 0 .81.091 1.26.09.36.359.72.63.99.27.27.63.359.99.359.359 0 .72-.09 1.079-.18.271-.18.63-.36.811-.63l.45.359c-.271.36-.631.631-1.08.811C878.48 548.19 878.03 548.28 877.579 548.28zM878.3 542.16c-.54 0-.99.181-1.351.54-.359.36-.72.9-.899 1.62h3.779v-.09c.091-.54 0-1.08-.27-1.44C879.199 542.43 878.84 542.16 878.3 542.16zM888.02 546.48c.09-.54-.27-.99-.99-1.17l-.99-.271c-.989-.359-1.35-.81-1.35-1.619 0-.54.27-.99.72-1.351.45-.359.99-.54 1.71-.45.631 0 1.17.181 1.53.54.36.36.54.811.54 1.44h-.72c0-.36-.09-.72-.36-.99-.27-.27-.63-.36-1.08-.36s-.81.091-1.17.36c-.27.18-.45.54-.54.811-.09.54.271.899.99 1.08l.72.18.36.18c.899.36 1.35.9 1.26 1.62 0 .54-.27.99-.63 1.26-.45.36-.99.54-1.62.54h-.27c-.45 0-.811-.09-1.17-.27-.36-.181-.63-.36-.811-.72-.18-.271-.27-.631-.27-.99h.72c0 .45.18.72.45.99.27.27.63.359 1.17.359.45 0 .899-.09 1.26-.359C887.75 547.11 887.93 546.841 888.02 546.48z"/></g></svg>