<?xml version="1.0" encoding="utf-8"?><!DOCTYPE svg PUBLIC "-//W3C//DTD SVG 1.1//EN" "http://www.w3.org/Graphics/SVG/1.1/DTD/svg11.dtd"><svg xmlns="http://www.w3.org/2000/svg" width="501.965" height="501.891" viewBox="0 0 501.965 501.891"><path fill="#4CC2F1" d="M118.325 74.631L118.325 301.166 359.269 301.166 359.269 74.631 118.325 74.631z"/><path fill="#E85E0C" d="M499.181,213.498l-9.393-8.883l5.381-11.755l-10.104-8.066l4.379-12.165l-10.742-7.192l3.345-12.489 l-11.307-6.268l2.289-12.724l-11.792-5.301l1.216-12.87l-12.194-4.296l0.134-12.926l-12.51-3.261l-0.948-12.893l-12.738-2.201 l-2.024-12.769l-12.878-1.128l-3.085-12.554l-12.928-0.047l-4.125-12.252l-12.887,1.036l-5.135-11.864l-12.755,2.11l-6.11-11.393 l-12.532,3.17l-7.042-10.841l-12.225,4.208l-7.925-10.214l-11.829,5.216l-8.752-9.515l-11.351,6.188l-9.518-8.75l-10.793,7.115 L250.088,0l-10.16,7.994l-10.843-7.04l-9.456,8.816l-11.394-6.108l-8.685,9.576l-11.865-5.133l-7.853,10.269l-12.253-4.122 l-6.966,10.891l-12.555-3.083l-6.031,11.435l-12.769-2.021l-5.052,11.899l-12.894-0.945l-4.039,12.281l-12.927,0.136l-2.997,12.576 l-12.871,1.218l-1.934,12.782l-12.723,2.291l-0.858,12.9l-12.487,3.347l0.224,12.925l-12.163,4.381l1.305,12.862l-11.754,5.382 l2.377,12.708l-11.263,6.347l3.432,12.465l-10.691,7.267l4.462,12.133l-10.046,8.137l5.463,11.717l-9.33,8.949l6.424,11.219 l-8.549,9.698l7.34,10.643L0,257.171l8.205,9.991l-6.812,10.986l9.012,9.27l-5.868,11.52l9.756,8.483L9.41,319.39l10.431,7.637 l-3.864,12.336l11.034,6.737l-2.819,12.617l11.559,5.79l-1.753,12.808L46,382.117l-0.675,12.91l12.363,3.78l0.407,12.922 l12.636,2.733l1.487,12.842l12.82,1.667l2.556,12.672l12.915,0.588l3.608,12.414l12.918-0.495l4.635,12.068l12.831-1.573 l5.628,11.639l12.655-2.644l6.582,11.128l12.389-3.692l7.49,10.536l12.037-4.715l8.346,9.873l11.6-5.706l9.142,9.141l11.082-6.657 l9.875,8.343l10.485-7.561l10.539,7.487l9.817-8.411l11.128,6.579l9.078-9.204l11.64,5.625l8.276-9.932l12.07,4.632l7.416-10.589 l12.415,3.606l6.504-11.173l12.673,2.554l5.547-11.678l12.842,1.484l4.55-12.101l12.921,0.404l3.521-12.438l12.911-0.678 l2.468-12.69l12.808-1.756l1.397-12.852l12.616-2.821l0.317-12.924l12.336-3.867l-0.766-12.906l11.969-4.886l-1.842-12.796 l11.518-5.87l-2.906-12.597l10.986-6.814l-3.95-12.309l10.378-7.709l-4.968-11.936l9.696-8.551l-5.948-11.479l8.947-9.332 l-6.888-10.938l8.135-10.048l-7.779-10.326l7.266-10.693l-8.616-9.638L499.181,213.498L499.181,213.498z M318.493,119.006 c1.326,15.152-5.818,29.245-17.783,38.296c1.605,4.115,2.672,8.519,3.076,13.142c2.286,26.123-17.038,49.153-43.161,51.438 c-17.104,1.497-32.879-6.272-42.377-19.146c0.281,24.586-18.427,45.615-43.326,47.792c-26.123,2.286-49.153-17.039-51.438-43.162 c-2.286-26.122,17.038-49.151,43.161-51.437c17.104-1.496,32.88,6.272,42.377,19.146c-0.163-14.255,6.066-27.305,16.176-36.188 c-1.424-3.61-2.364-7.455-2.716-11.482c-2.132-24.368,17.633-46.003,44.145-48.323C293.14,76.764,316.361,94.638,318.493,119.006 L318.493,119.006z"/><path fill="#FFF" d="M412.143,182.152c-4.786-7.096-12.36-11.167-20.279-11.779c2.398-7.572,1.462-16.12-3.324-23.216 c-8.322-12.337-25.068-15.592-37.405-7.271c-12.336,8.321-15.592,25.068-7.27,37.404c1.169,1.733,2.509,3.279,3.975,4.645 l-21.824,14.72c-0.336-6.898-1.31-13.86-3.045-20.816c-1.988-7.975-4.849-15.498-8.407-22.535 c7.774-11.688,10.794-26.481,7.13-41.175c-1.504-6.033-4.013-11.551-7.3-16.424l9.854-11.749l-14.027,6.388 c-0.311-0.35-0.645-0.675-0.964-1.015l7.467-13.606l-12.651,8.781c-0.229-0.185-0.47-0.354-0.7-0.535l4.365-17.827l-11.229,13.267 c-0.697-0.387-1.411-0.741-2.127-1.095l5.233-19.89L286.46,75.193c-0.493-0.15-0.98-0.314-1.479-0.449l-0.686-16.952l-6.338,15.55 c-1.127-0.144-2.259-0.262-3.401-0.33l-4.174-12.516l-1.81,12.499c-3.179,0.181-6.387,0.655-9.592,1.454 c-12.618,3.145-22.975,10.684-29.876,20.57c-11.799-1.127-23.983-0.325-36.138,2.706c-12.912,3.219-24.674,8.668-35.011,15.81 c-11.829-8.247-27.018-11.544-42.109-7.781c-4.478,1.116-8.668,2.792-12.524,4.922l-9.153-8.172l4.437,11.116 c-1.305,0.918-2.554,1.899-3.76,2.926L83.651,110.9l7.112,9.522c-0.825,0.876-1.615,1.78-2.376,2.708l-13.999-2.914l10.267,8.091 c-0.633,1.002-1.245,2.017-1.809,3.06l-13.503-3.306l10.811,9.15c-0.466,1.197-0.898,2.409-1.275,3.642l-11.175,0.242l9.93,4.681 c-0.402,2-0.679,4.033-0.841,6.089l-9.229,2.688l9.067,1.638c0.022,4.053,0.511,8.166,1.535,12.274 c4.416,17.708,17.472,30.974,33.549,36.456c0.228,7.547,1.237,15.182,3.138,22.807c1.253,5.023,2.859,9.862,4.752,14.524 l-20.523-2.157c0.28-1.155,0.507-2.332,0.634-3.546c1.556-14.799-9.18-28.057-23.979-29.612 c-14.799-1.556-28.057,9.18-29.613,23.979c-0.894,8.512,2.292,16.501,7.964,22.06c-6.704,4.257-11.482,11.409-12.376,19.921 c-1.556,14.799,9.181,28.058,23.98,29.612s28.057-9.181,29.612-23.98c0.128-1.214,0.151-2.411,0.117-3.6l50.383,5.296 c8.36,7.776,17.909,14.16,28.242,18.935l-35.17,23.723c-0.528-1.064-1.111-2.112-1.794-3.124 c-8.321-12.337-25.067-15.592-37.404-7.271c-12.337,8.322-15.591,25.068-7.27,37.405c4.786,7.095,12.361,11.167,20.28,11.779 c-2.399,7.571-1.462,16.12,3.324,23.216c8.321,12.336,25.068,15.592,37.404,7.271c12.337-8.321,15.592-25.067,7.271-37.404 c-0.683-1.013-1.436-1.945-2.225-2.833l63.652-42.934c7.524-0.229,15.139-1.25,22.742-3.145 c10.593-2.642,20.414-6.783,29.31-12.126l91.982,9.668c-0.279,1.154-0.507,2.331-0.635,3.545 c-1.555,14.8,9.182,28.057,23.98,29.613c14.799,1.555,28.057-9.181,29.612-23.98c0.895-8.512-2.292-16.5-7.964-22.059 c6.704-4.258,11.481-11.409,12.376-19.921c1.556-14.8-9.181-28.058-23.979-29.613s-28.058,9.181-29.612,23.979 c-0.128,1.215-0.15,2.413-0.117,3.601l-62.183-6.536c3.649-5.378,6.777-11.095,9.403-17.047l49.869-33.638 c0.196,0.317,0.358,0.646,0.568,0.957c8.322,12.337,25.068,15.592,37.405,7.271C417.209,211.235,420.464,194.489,412.143,182.152 L412.143,182.152z M180.686,243.183c-21.962,5.476-44.261-8.115-49.806-30.355c-5.545-22.24,7.764-44.708,29.726-50.184 c21.962-5.476,44.261,8.114,49.806,30.355C215.957,215.239,202.649,237.707,180.686,243.183L180.686,243.183z M244.213,131.707 c23.763-5.925,47.89,8.779,53.889,32.843c6,24.063-8.399,48.373-32.162,54.298c-23.763,5.924-47.89-8.78-53.889-32.843 C206.051,161.942,220.451,137.632,244.213,131.707L244.213,131.707z M306.671,146.633c-10.653-22.262-36.158-39.212-68.628-46.529 c5.53-7.547,13.628-13.279,23.416-15.72c22.235-5.544,44.754,7.987,50.298,30.222C314.593,125.979,312.428,137.421,306.671,146.633 L306.671,146.633z"/><path fill="#FFF" d="M256.323,193.145c7.783-1.941,12.521-9.825,10.58-17.609c-1.94-7.784-9.824-12.521-17.608-10.58 s-12.521,9.824-10.58,17.609C240.656,190.349,248.539,195.085,256.323,193.145L256.323,193.145z"/><path d="M258.844,165.848c-2.889-1.323-6.226-1.72-9.549-0.892c-7.784,1.941-12.521,9.825-10.58,17.609 c1.941,7.784,9.824,12.52,17.608,10.58c5.554-1.385,9.54-5.799,10.673-11.039c-4.941,1.034-9.857-1.988-11.089-6.929 C255.026,171.642,256.293,168.106,258.844,165.848L258.844,165.848z"/><path fill="#FFF" d="M184.664,217.913c7.784-1.94,12.521-9.824,10.58-17.608c-1.94-7.784-9.824-12.521-17.608-10.58 c-7.784,1.941-12.521,9.824-10.58,17.608C168.997,215.117,176.88,219.854,184.664,217.913L184.664,217.913z"/><path d="M187.185 190.616c-2.889-1.323-6.226-1.72-9.549-.891-7.784 1.941-12.521 9.824-10.58 17.608 1.941 7.784 9.824 12.521 17.608 10.58 5.554-1.384 9.54-5.798 10.673-11.038-4.941 1.033-9.857-1.989-11.089-6.929C183.366 196.411 184.634 192.875 187.185 190.616L187.185 190.616zM238.886 255.118l-6.632-11.964c3.426-3.013 4.424-8.098 2.121-12.252-2.656-4.792-8.695-6.524-13.487-3.867-4.792 2.656-6.524 8.695-3.867 13.487 2.302 4.153 7.144 6.002 11.514 4.693l6.632 11.964-21.034 6.172 1.523 3.944 23.659-6.942.01.012.026-.022.033-.01-.006-.016 18.425-16.385-2.538-3.381L238.886 255.118 238.886 255.118z"/><path fill="#FFF" d="M180.342 367.03L193.184 418.539 357.264 377.629 344.422 326.121 180.342 367.03z"/><path fill="#FFF" d="M191.696 411.093L203.388 457.988 416.424 404.873 404.731 357.977 191.696 411.093z"/><path d="M224.016 387.987l-8.89 2.217c-.051 2.135-.701 4.207-3.598 4.929-1.598.397-2.958.048-3.819-.639-1.061-.851-1.921-1.961-3.54-8.453-1.619-6.493-1.381-7.878-.843-9.126.437-1.012 1.474-1.959 3.072-2.357 2.897-.723 4.444.801 5.491 2.662l8.889-2.216c-3.253-7.518-9.63-9.906-16.372-8.226-4.145 1.034-6.943 3.218-8.892 6.461-2.812 4.68-1.417 9.637-.085 14.98 1.333 5.343 2.428 10.374 7.107 13.186 3.245 1.949 6.74 2.563 10.885 1.53C220.163 401.255 224.672 396.151 224.016 387.987L224.016 387.987zM257.176 378.446l-5.752-23.071-8.74 2.179 5.703 22.872c.822 3.296-.603 5.667-3.499 6.389-2.897.724-5.168-.727-5.99-4.022l-5.702-22.872-8.74 2.179 5.753 23.072c1.942 7.79 9.23 11.277 16.621 9.435C254.221 392.763 259.119 386.237 257.176 378.446L257.176 378.446zM297.494 381.655l-11.39-12.915c2.448-2.095 4.686-5.889 3.478-10.732-1.457-5.843-7.096-10.378-14.987-8.411l-14.083 3.512 8.866 35.558 8.739-2.18-3.3-13.233 2.946-.735 9.592 11.665L297.494 381.655 297.494 381.655zM280.843 360.187c.46 1.849-.502 3.944-2.898 4.542L273 365.962l-1.793-7.192 4.944-1.231C278.548 356.939 280.382 358.339 280.843 360.187L280.843 360.187zM320.385 346.456l-1.943-7.791-26.218 6.537 1.942 7.791 8.74-2.18 6.923 27.767 8.738-2.18-6.923-27.766L320.385 346.456 320.385 346.456zM342.401 358.895l-1.918-7.689-13.104 3.267 1.917 7.691L342.401 358.895 342.401 358.895zM241.027 441.776l-17.814-18.05 8.549-17.408-10.687 2.664-7.15 15.15-3.138-12.585-8.639 2.155 8.865 35.557 8.64-2.154-2.777-11.137 2.137-4.193 11.826 12.541L241.027 441.776 241.027 441.776zM256.059 438.028l-6.438-25.818-8.19 2.042 6.437 25.818L256.059 438.028 256.059 438.028zM248.675 408.414l-1.557-6.242-8.19 2.042 1.557 6.242L248.675 408.414 248.675 408.414zM287.283 411.359c-1.396-5.593-2.078-10.25-7.257-13.361-3.058-1.836-6.765-2.026-10.461-1.105l-13.184 3.288 8.865 35.557 13.184-3.286c3.696-.923 6.88-2.83 8.717-5.888C290.26 421.386 288.677 416.953 287.283 411.359L287.283 411.359zM278.543 413.539c1.507 6.043 1.494 7.054 1.044 8.227-.501 1.398-1.5 2.496-3.697 3.043l-3.846.959-4.98-19.976 3.846-.959c2.196-.547 3.595-.047 4.692.952C276.55 406.609 277.049 407.546 278.543 413.539L278.543 413.539zM321.411 410.171c-.821-3.296-2.23-5.756-4.589-7.131-1.872-1.125-4.418-1.552-7.727-1.203l-4.443.471c-1.286.162-2.147-.101-2.71-.438-.686-.413-.997-1.024-1.109-1.475-.386-1.548.427-3.606 3.473-4.367 1.548-.386 4.457-1.27 7.266.417l4.124-6.862c-3.807-2.287-7.95-2.527-13.044-1.257-8.092 2.017-11.803 7.981-10.184 14.474.759 3.046 2.156 5.244 4.229 6.531 2.008 1.25 4.667 1.7 7.925 1.365l4.444-.472c1.187-.136 2.022.027 2.583.364.638.425 1.012 1.074 1.223 1.923.511 2.048-.852 3.607-4.297 4.466-2.847.71-6.254.87-8.563-.517l-4.198 6.987c4.518 2.8 9.211 2.69 14.654 1.332C317.958 422.914 323.217 417.412 321.411 410.171L321.411 410.171zM339.356 417.26l-2.24-8.989-8.99 2.241 2.242 8.989L339.356 417.26 339.356 417.26zM370.331 390.653c-1.396-5.594-2.078-10.25-7.257-13.361-3.058-1.837-6.765-2.026-10.46-1.105l-13.185 3.287 8.866 35.559 13.184-3.288c3.695-.922 6.881-2.829 8.718-5.887C373.308 400.679 371.726 396.247 370.331 390.653L370.331 390.653zM361.592 392.833c1.506 6.042 1.493 7.053 1.043 8.227-.5 1.397-1.5 2.495-3.697 3.043l-3.845.959-4.98-19.976 3.845-.959c2.198-.548 3.596-.048 4.692.952C359.599 385.902 360.097 386.84 361.592 392.833L361.592 392.833zM406.225 400.588l-1.941-7.791-15.433 3.848-1.556-6.243 13.184-3.287-1.941-7.789-13.186 3.286-1.48-5.942 15.431-3.849-1.941-7.79-24.172 6.026 8.865 35.558L406.225 400.588 406.225 400.588z"/></svg>