<?xml version="1.0" encoding="utf-8"?><!DOCTYPE svg PUBLIC "-//W3C//DTD SVG 1.1//EN" "http://www.w3.org/Graphics/SVG/1.1/DTD/svg11.dtd"><svg xmlns="http://www.w3.org/2000/svg" xmlns:xlink="http://www.w3.org/1999/xlink" width="133.229" height="133.228" viewBox="0 0 133.229 133.228"><defs><path id="aia" d="M0 0H133.229V133.228H0z"/></defs><clipPath id="aib"><use xlink:href="#aia" overflow="visible"/></clipPath><path clip-path="url(#aib)" fill="#009FE3" d="M66.614,133.228c36.79,0,66.614-29.824,66.614-66.614S103.404,0,66.614,0 S0,29.823,0,66.613S29.824,133.228,66.614,133.228"/><path clip-path="url(#aib)" fill="#FFF" d="M72.783 96.104v-.806h-2.887v-1.782h2.462V92.72h-2.462v-1.731h2.887v-.807h-3.785v5.923H72.783zM66.686 93.102c0 .815-.008 1.456-.316 1.798-.25.274-.583.399-1.007.399h-1.09v-4.311h1.09c.424 0 .757.125 1.007.398C66.678 91.729 66.686 92.286 66.686 93.102M67.584 93.102c0-.856.041-1.723-.599-2.362-.374-.374-.916-.558-1.531-.558h-2.08v5.923h2.08c.615 0 1.157-.183 1.531-.557C67.625 94.908 67.584 93.959 67.584 93.102M61.494 95.091h-1.014v1.014h1.014V95.091zM59.996 90.988v-.807h-4.159v.807h1.631v5.116h.897v-5.116H59.996zM53.648 91.92c0 .583-.408.924-1.007.924H51.31v-1.855h1.332C53.241 90.988 53.648 91.338 53.648 91.92M54.729 96.104l-1.364-2.62c.665-.184 1.181-.724 1.181-1.572 0-1.007-.715-1.73-1.839-1.73h-2.295v5.923h.897v-2.495h1.124l1.248 2.495H54.729zM48.456 94.109v-3.928h-.897v3.886c0 .791-.491 1.281-1.232 1.281-.741 0-1.224-.49-1.224-1.281v-3.886h-.897v3.928c0 1.223.914 2.046 2.121 2.046S48.456 95.332 48.456 94.109M42.599 94.333h-.907c-.141.6-.549 1.016-1.206 1.016-.349 0-.666-.133-.874-.357-.291-.316-.357-.658-.357-1.849 0-1.189.066-1.53.357-1.847.208-.225.525-.358.874-.358.657 0 1.057.416 1.198 1.016h.915c-.208-1.182-1.023-1.821-2.113-1.821-.616 0-1.148.224-1.555.632-.582.582-.574 1.239-.574 2.379 0 1.142-.008 1.799.574 2.38.407.407.939.633 1.555.633C41.559 96.155 42.399 95.515 42.599 94.333M36.691 95.091h-1.014v1.014h1.014V95.091zM35.312 90.182h-.949l-1.032 4.234-1.189-4.234h-.724l-1.19 4.234-1.032-4.234h-.948l1.547 5.923h.782l1.199-4.15 1.206 4.15h.782L35.312 90.182zM27.565 90.182h-.949l-1.031 4.234-1.19-4.234h-.724l-1.19 4.234-1.031-4.234h-.949l1.548 5.923h.782l1.198-4.15 1.206 4.15h.782L27.565 90.182zM19.82 90.182h-.948l-1.032 4.234-1.19-4.234h-.724l-1.19 4.234-1.031-4.234h-.949l1.548 5.923h.782l1.198-4.15 1.206 4.15h.782L19.82 90.182zM122.354 83.713v-17.8h-2.699v12.5l-8.226-12.5h-2.475v17.8h2.7V71.188l8.225 12.525H122.354zM103.43 65.913h-2.699v17.8h2.699V65.913zM96.33 83.713v-2.425h-8.275l8.275-13.175v-2.2H85.279v2.425h7.875l-8.225 13.05v2.325H96.33zM77.18 77.838h-5.475l2.775-7.9L77.18 77.838zM82.029 83.713l-6.524-17.8H73.33l-6.525 17.8h2.875l1.225-3.575h7.025l1.225 3.575H82.029zM63.706 76.813v-2.725h-6.5v2.3h3.8v1c0 1.15-.25 2.05-.9 2.8-.7.801-1.725 1.25-2.9 1.25-1.05 0-2-.399-2.625-1.074-.875-.95-1.075-1.976-1.075-5.551 0-3.574.2-4.574 1.075-5.524.625-.675 1.575-1.101 2.625-1.101 2 0 3.3 1.15 3.75 3.101h2.725c-.5-3.05-2.7-5.525-6.475-5.525-1.9 0-3.45.675-4.675 1.9-1.75 1.75-1.725 3.725-1.725 7.149 0 3.426-.025 5.4 1.725 7.15 1.225 1.225 2.825 1.9 4.675 1.9 1.875 0 3.55-.601 4.9-2.025C63.281 80.588 63.706 79.113 63.706 76.813M42.831 77.838h-5.475l2.775-7.9L42.831 77.838zM47.681 83.713l-6.525-17.8h-2.175l-6.525 17.8h2.875l1.225-3.575h7.025l1.225 3.575H47.681zM28.456 83.713v-17.8h-2.7l-5.1 11.075-5.2-11.075h-2.7v17.8h2.7v-11.9l4.2 8.676h2l4.1-8.676v11.9H28.456zM77.779 45.136v-2.425h-12.5v2.425h4.9v15.375h2.7V45.136H77.779zM58.705 47.936c0 1.75-1.225 2.775-3.025 2.775h-4v-5.575h4C57.48 45.136 58.705 46.186 58.705 47.936M61.955 60.511l-4.1-7.875c2-.55 3.55-2.175 3.55-4.725 0-3.025-2.15-5.2-5.525-5.2h-6.9v17.8h2.7v-7.5h3.375l3.75 7.5H61.955zM43.106 54.511v-11.8h-2.7v11.675c0 2.375-1.475 3.85-3.7 3.85-2.225 0-3.675-1.475-3.675-3.85V42.711h-2.7v11.8c0 3.675 2.75 6.15 6.375 6.15S43.106 58.186 43.106 54.511M25.506 55.186h-2.725c-.425 1.8-1.65 3.05-3.625 3.05-1.05 0-2-.399-2.625-1.074-.875-.95-1.075-1.976-1.075-5.551 0-3.574.2-4.6 1.075-5.55.625-.675 1.575-1.075 2.625-1.075 1.975 0 3.175 1.25 3.6 3.051h2.75c-.625-3.551-3.075-5.476-6.35-5.476-1.85 0-3.45.675-4.675 1.9-1.75 1.75-1.725 3.725-1.725 7.149 0 3.426-.025 5.4 1.725 7.15 1.225 1.225 2.825 1.9 4.675 1.9C22.381 60.661 24.906 58.735 25.506 55.186"/></svg>