<?xml version="1.0" encoding="utf-8"?><!DOCTYPE svg PUBLIC "-//W3C//DTD SVG 1.0//EN" "http://www.w3.org/TR/2001/REC-SVG-20010904/DTD/svg10.dtd"><svg version="1" xmlns="http://www.w3.org/2000/svg" xmlns:xlink="http://www.w3.org/1999/xlink" width="100" height="79.126" viewBox="0 0 100 79.126"><defs><path id="aja" d="M9.866,19.246c1.788-0.141,3.53-0.258,5.224-0.353c-0.095,2.307-0.165,5.13-0.212,8.472 c-1.318,0.047-3.035,0.071-5.153,0.071C9.818,24.659,9.866,21.929,9.866,19.246 M7.8,0C7.601,0,7.407,0.05,7.219,0.15 c-0.401,0.212-0.6,0.577-0.6,1.095C6.76,6.751,6.83,11.811,6.83,16.422c-1.883,0.188-3.741,0.377-5.577,0.565 c-0.518,0.095-0.882,0.365-1.094,0.812C0.055,18.02,0.002,18.233,0,18.442v0.021c0.002,0.208,0.055,0.41,0.159,0.606 c0.211,0.4,0.576,0.6,1.094,0.6c1.93-0.094,3.788-0.188,5.577-0.283c-0.047,2.778-0.095,5.46-0.141,8.048 c-2.071,0-3.812,0.047-5.224,0.141c-0.612,0.141-0.965,0.6-1.059,1.376c-0.095,0.776,0.188,1.212,0.847,1.306 c1.554,0.236,3.318,0.353,5.295,0.353c-0.141,3.483-0.33,6.872-0.564,10.166c-0.048,0.847,0.376,1.329,1.271,1.447 c0.894,0.117,1.458-0.224,1.694-1.024c0.046-0.094,0.106-0.258,0.176-0.494c0.071-0.235,0.129-0.423,0.177-0.564 c0.141-0.47,0.094-0.871-0.142-1.2c0.188-2.824,0.354-5.577,0.494-8.26c0.235,0,0.505-0.011,0.812-0.035 c0.306-0.023,0.565-0.035,0.776-0.035h0.883c0.8,0,1.694-0.023,2.683-0.071c-0.141,5.13-0.236,8.895-0.282,11.295h0.07 c-0.047,0.611,0.177,1.046,0.671,1.306c0.494,0.258,1.011,0.258,1.553,0c0.541-0.26,0.812-0.695,0.812-1.306 c0-0.894,0.023-1.859,0.071-2.895c0.046-1.035,0.082-1.964,0.106-2.789c0.023-0.823,0.046-1.811,0.07-2.965 c0.023-1.153,0.059-2.083,0.106-2.789c0.141-0.046,0.376-0.071,0.706-0.071c0.283,0,0.717-0.023,1.306-0.07 c0.588-0.046,1.024-0.094,1.306-0.141c1.224,0,1.953-0.023,2.188-0.071c0.235,0.141,0.494,0.212,0.777,0.212h0.282 c0.517,0.047,0.964-0.212,1.341-0.777c0.046,0,0.071-0.046,0.071-0.141l0.07-0.071c0.47-0.706,0.399-1.317-0.212-1.835 c-0.519-0.47-1.153-0.729-1.906-0.777c-0.424,0-0.918,0.012-1.483,0.035c-0.564,0.024-1.012,0.048-1.341,0.071 c-0.33,0.024-0.872,0.083-1.624,0.176c-0.753,0.095-1.225,0.166-1.412,0.212c0.046-1.553,0.082-3.023,0.105-4.412 c0.023-1.388,0.059-2.764,0.106-4.13c2.118-0.188,4.211-0.376,6.283-0.565c0.611-0.046,1.047-0.329,1.306-0.847 c0.258-0.517,0.258-1.011,0-1.482c-0.259-0.47-0.694-0.706-1.306-0.706c-2.118,0.142-4.189,0.283-6.212,0.424 c0.046-2.353,0.07-4.647,0.07-6.883v-6.6c-0.095-0.848-0.553-1.259-1.376-1.236c-0.824,0.024-1.26,0.436-1.306,1.236 c-0.236,4.094-0.424,8.66-0.565,13.695c-1.789,0.188-3.554,0.353-5.295,0.494c-0.047-1.647-0.095-3.294-0.141-4.942 C9.677,9.551,9.619,7.904,9.548,6.257C9.478,4.61,9.372,2.963,9.23,1.315C9.183,0.797,8.936,0.421,8.489,0.186 C8.254,0.062,8.025,0,7.803,0H7.8z"/></defs><use xlink:href="#aja" overflow="visible" fill="#878787"/><path fill="#878787" d="M39.769 43.464h-4.527v-5.051h2.821l.312-.902h-3.133v-3.854h4.56v-.853h-5.478v11.48h5.445V43.464zM31.191 32.804h-2.018v.804l1.099.033v10.644h.919V32.804zM23.697 43.464h-2.23v-9.84h2.329c.722 0 1.355.224 1.902.672.547.449.82 1.132.82 2.05v4.822C26.518 42.699 25.578 43.464 23.697 43.464M27.437 41.004V36.51c0-1.125-.326-2.028-.976-2.706-.65-.678-1.593-1.017-2.829-1.017h-3.083v11.497h3.411C26.277 44.284 27.437 43.191 27.437 41.004M35.336 45.25v1.375l1.88.056v18.214h1.572V45.25H35.336zM57.816 45.25v1.375l1.88.056v18.214h1.572V45.25H57.816zM63.581 45.25v1.403h4.771v18.243h1.572V46.653h4.939V45.25H63.581zM80.242 47.692l2.807 8.784H77.52L80.242 47.692zM79.513 45.25l-6.287 19.646h1.655l2.189-6.876h6.399l2.245 6.876h1.684L81 45.25H79.513zM89.869 45.25v19.646H100v-1.403h-8.56V45.25H89.869zM22.12 46.653h3.985c1.234 0 2.319.384 3.255 1.151.936.768 1.403 1.937 1.403 3.508v8.251c0 2.62-1.609 3.929-4.827 3.929H22.12V46.653zM20.548 45.222v19.674h5.837c3.966 0 5.95-1.871 5.95-5.613v-7.69c0-1.927-.557-3.47-1.67-4.63s-2.727-1.74-4.841-1.74H20.548zM45.991 45.699c-1.628.992-2.441 2.685-2.441 5.08v8.812c0 1.853.575 3.247 1.726 4.182 1.15.936 2.572 1.403 4.266 1.403s3.026-.478 4-1.432l.393 1.151h1.15v-8.42h-3.873l.533 1.544h1.853v1.656c0 1.198-.375 2.161-1.123 2.891-.749.73-1.754 1.095-3.017 1.095-1.263 0-2.302-.355-3.116-1.066-.813-.711-1.221-1.693-1.221-2.947v-9.121c0-2.75 1.459-4.125 4.378-4.125.954 0 1.964.196 3.031.589l.449-1.066c-1.216-.618-2.545-.926-3.985-.926C47.834 44.998 46.833 45.232 45.991 45.699M96.769 66.992H100v-.918h-7.38v.918h3.121v11.933h1.028V66.992zM89.389 66.992h3.231v-.918h-7.379v.918h3.121v11.933h1.028V66.992zM79.452 73.417l1.78-5.746 1.836 5.746H79.452zM81.728 66.074h-.973l-4.112 12.851h1.083l1.432-4.498h4.186l1.468 4.498h1.102L81.728 66.074zM74.403 66.992h3.231v-.918h-7.38v.918h3.121v11.933h1.028V66.992zM62.86 78.07c.765.704 1.854 1.056 3.268 1.056s2.478-.34 3.194-1.019c.716-.68 1.074-1.582 1.074-2.708 0-.587-.135-1.107-.404-1.561-.27-.453-.618-.811-1.046-1.074-.429-.263-.906-.499-1.432-.707-.526-.208-1.05-.397-1.57-.569-.521-.171-.995-.355-1.423-.551-.967-.441-1.45-1.052-1.45-1.836 0-.697.281-1.242.844-1.634.563-.391 1.294-.587 2.194-.587s1.698.178 2.396.533c.208-.624.313-.948.313-.973-.771-.367-1.665-.551-2.68-.551-1.334 0-2.356.312-3.066.936-.71.625-1.065 1.365-1.065 2.222 0 .649.181 1.206.542 1.67.361.465.811.814 1.349 1.046s1.123.468 1.753.707 1.214.462 1.753.67c.539.208.988.511 1.35.909.361.398.542.878.542 1.441 0 .918-.318 1.588-.955 2.01s-1.42.633-2.35.633c-.93 0-1.692-.251-2.286-.753-.594-.501-.921-1.077-.982-1.726h-1.046C61.7 76.563 62.095 77.367 62.86 78.07M56.713 71.618l3.763-5.562h-1.193l-4.112 6.131v-6.131h-1.028v12.869h1.028v-4.938l.881-1.395 4.149 6.333h1.23L56.713 71.618zM44.383 67.047h3.561c.722 0 1.294.245 1.717.734.422.489.633 1.229.633 2.221 0 .673-.049 1.224-.146 1.652-.074.379-.184.679-.331.899-.146.221-.374.42-.679.597-.306.178-.679.267-1.12.267h-3.635V67.047zM49.707 74.059c.478-.257.845-.651 1.102-1.184.257-.532.407-1 .45-1.404s.064-.893.064-1.468c0-1.199-.285-2.154-.854-2.864-.569-.71-1.435-1.065-2.598-1.065h-4.516v12.851h1.028v-4.498H48c.269 0 .514-.018.734-.055l1.56 4.553h1.046L49.707 74.059zM41.122 78.006h-5.066v-5.654h3.157l.349-1.009h-3.506v-4.314h5.104v-.955h-6.131v12.851h6.094V78.006zM33.198 66.074h-1.102l-2.588 11.583-1.964-11.583h-1.432l-1.964 11.583-2.625-11.583h-1.101l3.029 12.851h1.56l1.818-10.997 1.817 10.997h1.56L33.198 66.074z"/></svg>