<?xml version="1.0" encoding="utf-8"?><!DOCTYPE svg PUBLIC "-//W3C//DTD SVG 1.0//EN" "http://www.w3.org/TR/2001/REC-SVG-20010904/DTD/svg10.dtd"><svg version="1" xmlns="http://www.w3.org/2000/svg" width="100" height="35.599" viewBox="0 0 100 35.599"><path fill="#D5B503" d="M38.222 13.766L43.113 13.766 43.113 15.922 41.758 15.922 41.758 15.034 40.261 15.034 40.261 16.364 41.558 16.364 41.558 17.577 40.261 17.577 40.261 18.945 40.928 18.945 40.928 20.087 38.222 20.087 38.222 18.945 38.876 18.945 38.876 15.034 38.222 15.034zM46.445 20.2c-.286 0-.56-.039-.821-.117s-.505-.188-.732-.33c-.227-.142-.432-.312-.617-.511s-.342-.42-.473-.663-.232-.504-.305-.782-.108-.568-.108-.872c0-.303.036-.594.108-.874s.174-.541.305-.784c.131-.243.288-.464.473-.663.185-.199.391-.369.617-.511s.471-.251.732-.329c.261-.078.535-.117.821-.117.287 0 .561.039.824.117.263.078.507.188.734.329s.432.312.617.511c.185.199.343.42.475.663.132.244.234.505.307.784s.108.571.108.874c0 .3-.036.59-.108.87-.072.279-.174.541-.307.784-.132.243-.291.464-.475.663-.185.199-.391.369-.617.511-.227.142-.471.252-.734.33S46.731 20.2 46.445 20.2M46.445 18.891c.242 0 .464-.052.666-.156.201-.104.375-.246.519-.425s.256-.388.335-.625c.08-.238.119-.49.119-.757 0-.27-.041-.524-.121-.763-.081-.239-.194-.448-.34-.627s-.319-.321-.52-.425c-.2-.104-.419-.157-.659-.157s-.458.052-.659.157c-.2.104-.373.246-.517.425s-.258.389-.34.627c-.082.239-.123.494-.123.763 0 .267.041.519.123.757s.195.446.34.625.317.321.517.425C45.986 18.839 46.206 18.891 46.445 18.891M53.2 20.2c-.286 0-.56-.039-.821-.117s-.505-.188-.732-.33c-.227-.142-.432-.312-.617-.511s-.343-.42-.473-.663c-.131-.243-.232-.504-.305-.782s-.108-.568-.108-.872c0-.303.036-.594.108-.874s.174-.541.305-.784c.13-.243.288-.464.473-.663.185-.199.391-.369.617-.511s.471-.251.732-.329c.261-.078.535-.117.821-.117.287 0 .561.039.824.117.263.078.507.188.734.329s.432.312.617.511c.185.199.343.42.475.663.132.244.234.505.307.784s.108.571.108.874c0 .3-.036.59-.108.87-.072.279-.174.541-.307.784-.132.243-.291.464-.475.663-.185.199-.391.369-.617.511-.227.142-.471.252-.734.33S53.487 20.2 53.2 20.2M53.2 18.891c.242 0 .464-.052.665-.156.202-.104.375-.246.52-.425.145-.179.256-.388.335-.625s.119-.49.119-.757c0-.27-.041-.524-.121-.763-.081-.239-.194-.448-.34-.627s-.319-.321-.52-.425c-.2-.104-.419-.157-.659-.157s-.458.052-.659.157c-.2.104-.373.246-.517.425s-.258.389-.34.627c-.082.239-.123.494-.123.763 0 .267.041.519.123.757.082.238.195.446.34.625s.317.321.517.425C52.742 18.839 52.961 18.891 53.2 18.891M56.966 13.766h2.427c.289 0 .566.038.832.112.266.075.513.181.742.317.229.136.438.3.625.49s.348.402.482.636c.133.233.236.485.309.755.072.27.108.55.108.842s-.036.573-.108.842c-.073.27-.175.522-.309.757-.134.235-.294.449-.482.642-.188.193-.396.359-.625.497-.229.137-.477.244-.742.319-.266.075-.543.112-.832.112h-2.427v-1.143h.504v-4.032h-.504V13.766zM58.855 14.913v4.032h.529c.225 0 .438-.053.638-.158.2-.106.374-.25.521-.432.147-.182.264-.396.351-.642.086-.246.129-.511.129-.794 0-.281-.043-.543-.129-.788-.086-.245-.203-.458-.351-.638-.147-.181-.321-.322-.521-.425-.2-.103-.413-.154-.638-.154H58.855zM64.301 18.945L64.956 18.945 64.956 14.871 64.188 14.871 64.188 15.688 62.829 15.688 62.829 13.766 68.579 13.766 68.579 15.688 67.211 15.688 67.211 14.871 66.34 14.871 66.34 18.945 67.007 18.945 67.007 20.087 64.301 20.087zM69.18 13.766h3.344c.325 0 .616.048.872.146.256.097.471.227.646.39.175.163.309.352.402.567.093.216.14.44.14.674 0 .214-.023.401-.069.563-.046.161-.113.304-.2.429-.087.125-.195.236-.323.332-.128.096-.274.183-.438.261.142.072.267.183.375.332.108.148.19.341.246.578l.212.821h.521l.008 1.23h-1.835l-.25-1.501c-.025-.178-.063-.332-.115-.461-.051-.129-.12-.235-.206-.317-.086-.082-.191-.143-.315-.181-.124-.039-.27-.059-.439-.059h-.538v1.376h.58v1.143H69.18v-1.143h.655v-4.032H69.18V13.766zM71.219 14.913v1.53h.83c.158 0 .301-.014.427-.043s.235-.075.325-.138.16-.141.208-.236c.049-.094.073-.207.073-.337 0-.245-.087-.435-.263-.571-.175-.136-.432-.205-.771-.205H71.219zM75.301 13.766h2.535v1.146h-.58v2.623c0 .239.027.442.082.609s.13.303.227.409c.097.105.213.183.346.231.133.048.279.073.438.073.164 0 .313-.021.449-.063.135-.042.25-.113.346-.215.096-.102.17-.237.221-.406.051-.17.077-.382.077-.638v-2.623h-.671v-1.146h2.536v1.146h-.505v2.46c0 .445-.064.84-.191 1.187-.128.346-.304.639-.528.877-.224.239-.487.421-.788.546-.302.125-.625.188-.97.188-.342 0-.662-.062-.959-.186s-.557-.303-.778-.538c-.221-.235-.396-.521-.523-.857-.128-.336-.192-.717-.192-1.142v-2.536h-.571V13.766zM86.21 15.688c-.156-.223-.296-.38-.421-.474-.125-.093-.26-.16-.404-.2-.145-.04-.296-.06-.455-.06-.234 0-.45.052-.651.156-.2.104-.373.246-.519.425s-.261.388-.344.625c-.083.238-.125.49-.125.757 0 .27.041.523.123.761.082.237.195.445.34.623.145.178.317.319.518.423.2.104.419.156.659.156.167 0 .322-.027.467-.081s.276-.126.394-.215.222-.191.311-.307c.089-.115.158-.235.208-.36l1.343.375c-.086.272-.213.525-.38.757-.167.232-.368.433-.603.603-.235.17-.499.303-.792.4-.293.097-.61.146-.949.146-.287 0-.561-.039-.822-.117s-.505-.188-.732-.33c-.227-.142-.432-.313-.617-.513-.185-.2-.343-.422-.474-.665-.13-.244-.232-.505-.304-.784s-.108-.571-.108-.874c0-.453.079-.878.238-1.274.158-.396.375-.742.65-1.038.275-.296.598-.53.969-.701s.771-.257 1.199-.257c.342 0 .629.042.863.127.234.085.491.252.771.502h.934v1.41H86.21zM88.549 13.766L91.255 13.766 91.255 14.913 90.588 14.913 90.588 16.751 92.611 14.988 92.611 13.766 94.767 13.766 94.767 14.996 94.295 14.996 92.189 16.806 94.208 18.849 94.721 18.849 94.721 20.087 92.623 20.087 92.623 18.849 90.588 16.814 90.588 18.945 91.255 18.945 91.255 20.087 88.549 20.087 88.549 18.945 89.204 18.945 89.204 14.913 88.549 14.913zM98.49 15.546c-.014-.097-.048-.189-.102-.275-.054-.086-.124-.16-.208-.223s-.181-.112-.288-.148c-.107-.036-.219-.054-.336-.054-.105 0-.205.011-.296.033-.092.022-.172.056-.24.102-.068.046-.123.105-.163.177-.041.072-.061.159-.061.258 0 .125.027.225.081.298s.124.134.208.182c.085.047.179.084.282.112.103.028.203.059.3.092l1.146.384c.159.056.307.132.446.229.139.098.259.216.361.354.101.139.181.299.24.479.058.181.087.384.087.609 0 .306-.056.585-.169.838-.112.253-.271.47-.473.65-.203.181-.446.321-.73.421-.283.1-.598.15-.942.15-.242 0-.47-.027-.686-.082-.215-.054-.412-.132-.59-.235-.178-.103-.333-.226-.467-.369-.134-.143-.238-.305-.313-.486h-.43V17.79h1.51v.259c0 .125.02.24.061.346s.101.197.181.275c.081.078.182.138.305.181.122.043.265.065.429.065.25 0 .441-.058.571-.173.131-.115.196-.276.196-.481 0-.106-.023-.194-.069-.265-.046-.071-.105-.131-.177-.18-.072-.048-.153-.089-.242-.123-.089-.033-.177-.064-.263-.091l-.955-.309c-.181-.056-.355-.134-.523-.234s-.317-.225-.446-.375c-.129-.15-.232-.326-.309-.528-.076-.201-.114-.432-.114-.69 0-.3.056-.568.167-.803.111-.235.267-.433.467-.594.2-.161.438-.284.713-.367.275-.083.577-.125.905-.125.259 0 .498.03.717.09.22.06.417.14.59.24s.321.215.442.344.213.263.277.402H100v1.259H98.49V15.546z"/><path fill="#656564" d="M38.228 23.229h1.882c.231 0 .451.03.66.09s.404.145.584.253.344.24.49.392c.147.152.272.322.375.509.104.187.183.387.238.602.056.214.083.438.083.669 0 .236-.028.461-.083.677-.056.215-.135.418-.238.607s-.229.361-.375.516c-.146.154-.31.287-.49.397-.18.11-.375.195-.584.255s-.429.09-.66.09h-1.882v-.574h.48v-3.907h-.48V23.229zM39.362 23.806v3.907h.787c.234 0 .454-.051.659-.154.206-.102.385-.242.539-.418.154-.177.275-.385.364-.624.089-.239.133-.497.133-.772 0-.271-.044-.525-.133-.761s-.21-.441-.364-.616c-.153-.174-.333-.312-.539-.412s-.425-.15-.659-.15H39.362zM43.323 23.229L46.946 23.229 46.946 24.66 46.262 24.66 46.262 23.806 44.458 23.806 44.458 25.424 45.976 25.424 45.976 25.998 44.458 25.998 44.458 27.712 46.262 27.712 46.262 26.858 46.946 26.858 46.946 28.286 43.323 28.286 43.323 27.712 43.804 27.712 43.804 23.806 43.323 23.806zM47.582 23.229h1.638v.577h-.517v2.355c0 .282.032.523.095.722s.151.361.264.487c.112.126.246.217.4.275.154.058.324.086.508.086.191 0 .367-.025.527-.077.16-.051.297-.137.412-.258.114-.121.204-.282.267-.484.063-.201.095-.452.095-.752v-2.355h-.547v-.577h1.638v.577h-.45v2.282c0 .365-.051.688-.152.971-.101.282-.24.519-.416.71-.175.191-.382.336-.62.435-.238.099-.494.148-.768.148-.267 0-.516-.049-.749-.146-.232-.098-.435-.242-.607-.431s-.308-.419-.407-.692c-.099-.272-.148-.584-.148-.936v-2.342h-.464V23.229zM53.955 27.712L54.418 27.712 54.418 23.776 53.264 23.776 53.264 24.563 52.58 24.563 52.58 23.229 57.09 23.229 57.09 24.563 56.407 24.563 56.407 23.776 55.072 23.776 55.072 27.712 55.593 27.712 55.593 28.286 53.955 28.286zM60.258 24.163c-.071-.098-.149-.173-.235-.225-.086-.052-.18-.092-.282-.12-.102-.028-.205-.042-.307-.042-.169 0-.317.02-.444.058-.127.039-.232.092-.315.159-.083.067-.146.145-.188.233-.042.089-.063.183-.063.28 0 .147.026.265.078.355.052.09.119.162.199.217.08.054.168.097.265.128s.189.062.279.093l.673.22c.203.064.381.138.536.22s.284.18.389.292.184.242.238.389c.055.146.082.317.082.51 0 .209-.043.402-.128.581-.086.178-.205.333-.359.463-.153.131-.336.234-.549.309-.212.075-.445.112-.699.112-.26 0-.482-.029-.667-.088-.185-.059-.34-.138-.465-.237-.126-.099-.227-.212-.302-.339-.076-.126-.134-.257-.177-.39h-.253v-.574h.841c0 .247.026.421.078.524.052.102.125.188.219.255.093.068.205.119.333.154.129.034.271.052.427.052.151 0 .288-.018.409-.054.122-.035.225-.087.311-.155.085-.068.151-.15.197-.247.045-.097.068-.207.068-.329 0-.136-.028-.25-.085-.345s-.13-.175-.219-.242c-.089-.067-.186-.122-.292-.164-.105-.042-.207-.079-.305-.11l-.73-.207c-.16-.049-.306-.111-.438-.187s-.246-.168-.34-.277c-.095-.109-.167-.236-.219-.382s-.077-.314-.077-.505c0-.194.038-.375.113-.544.076-.169.187-.317.334-.443.146-.127.326-.227.539-.299s.456-.108.729-.108c.18 0 .346.021.499.063.152.042.291.102.414.178.124.077.232.169.327.277.094.108.174.227.238.355h.25v.574h-.817C60.365 24.407 60.329 24.261 60.258 24.163M65.467 24.563c-.149-.253-.347-.453-.592-.597-.246-.145-.52-.217-.822-.217-.258 0-.494.055-.708.164s-.396.255-.549.438c-.152.184-.271.396-.355.637s-.127.496-.127.762c0 .316.047.596.14.839.093.243.215.446.365.607.15.161.329.296.536.404.207.108.439.162.697.162.351 0 .657-.085.917-.255.26-.17.482-.45.667-.839l.587.277c-.084.24-.228.472-.43.696-.203.223-.452.403-.749.541-.297.137-.625.205-.986.205-.345 0-.662-.065-.951-.195s-.546-.315-.772-.555c-.226-.24-.398-.525-.517-.854-.119-.329-.179-.672-.179-1.031 0-.36.06-.7.179-1.021.119-.32.286-.599.5-.836.215-.237.471-.423.768-.56.297-.137.619-.206.966-.206.309 0 .576.044.8.132s.416.192.572.313c.157.122.292.253.405.396h.354v.594H65.467zM70.533 23.229L72.174 23.229 72.174 23.802 71.693 23.802 71.693 27.712 72.174 27.712 72.174 28.286 70.533 28.286 70.533 27.712 71.04 27.712 71.04 25.894 68.114 25.894 68.114 27.712 68.621 27.712 68.621 28.286 66.98 28.286 66.98 27.712 67.46 27.712 67.46 23.802 66.98 23.802 66.98 23.229 68.621 23.229 68.621 23.802 68.114 23.802 68.114 25.333 71.04 25.333 71.04 23.802 70.533 23.802zM73.196 23.229h1.641v.577h-.507v3.907h1.745c.036 0 .071-.009.107-.025.035-.017.067-.038.097-.065.029-.027.052-.057.07-.092.018-.034.027-.069.027-.105v-.637h.634v1.498h-3.813v-.574h.48v-3.907h-.48V23.229zM80.581 27.712H81l-.4-1.147h-1.945l-.391 1.147h.521v.574h-1.642v-.574h.44l1.575-4.484h.984l1.571 4.484h.507v.574h-1.641V27.712zM78.846 26.011h1.561l-.787-2.262L78.846 26.011zM85.93 23.229L87.571 23.229 87.571 23.806 87.141 23.806 87.141 28.286 86.287 28.286 83.935 24.093 83.935 27.712 84.455 27.712 84.455 28.286 82.814 28.286 82.814 27.712 83.281 27.712 83.281 23.806 82.8 23.806 82.8 23.222 84.162 23.222 86.47 27.375 86.497 27.215 86.497 23.806 85.93 23.806zM88.286 23.229h1.882c.231 0 .451.03.661.09.208.06.403.145.583.253s.344.24.49.392c.147.152.272.322.375.509.104.187.183.387.238.602.056.214.083.438.083.669 0 .236-.028.461-.083.677-.056.215-.135.418-.238.607s-.229.361-.375.516c-.146.154-.31.287-.49.397-.18.11-.375.195-.583.255-.209.06-.43.09-.661.09h-1.882v-.574h.48v-3.907h-.48V23.229zM89.42 23.806v3.907h.788c.233 0 .453-.051.659-.154.206-.102.385-.242.539-.418.154-.177.275-.385.364-.624.089-.239.133-.497.133-.772 0-.271-.044-.525-.133-.761s-.21-.441-.364-.616c-.153-.174-.333-.312-.539-.412s-.425-.15-.659-.15H89.42zM23.85 10.754l-.435.5 4.814.822c.852-.156 1.607-.627 2.267-1.413.728-.868 2.149-3.344 4.263-7.429l-.386-.324-4.732 5.639c-.296.354-.589.409-.878.166-.225-.189-.234-.471-.029-.846l.041-.048 4.25-6.043-.385-.323-5.166 5.275-.041.048c-.334.268-.629.293-.886.078-.289-.243-.286-.541.011-.894l4.731-5.639L30.902 0c-.307.235-.852.64-1.635 1.215s-1.405 1.039-1.866 1.391c-.46.353-.987.801-1.579 1.344-.593.543-1.091 1.056-1.496 1.537-1.105 1.318-1.293 2.749-.563 4.292C23.983 10.236 24.012 10.562 23.85 10.754"/><path fill="#D5B503" d="M27.188,28.856c0.212,1.197,1.284,2.107,2.576,2.107c1.443,0,2.614-1.137,2.614-2.541 c0-0.11-0.008-0.219-0.021-0.325L27.188,28.856z"/><path fill="#656564" d="M8.786,28.907c-0.558,1.514-1.579,1.973-2.452,2.056c-0.626,0.688-1.142,1.249-1.142,1.249 c-0.377,0.45-0.54,0.97-0.488,1.561c0.041,0.473,0.287,0.897,0.736,1.275c0.482,0.404,0.959,0.586,1.432,0.544 c0.532-0.047,1-0.311,1.404-0.793c0.123-0.146,1.938-2.518,4.11-5.363L8.786,28.907z"/><path fill="#D5B503" d="M5.783 28.026c.022-.167.056-.494.056-.963 0-1.206-.338-2.487-.965-2.487-.627 0-.965 1.282-.965 2.487 0 .992.217 1.882.551 2.266.337.409.919.653 1.557.653.948 0 1.569-.531 1.909-1.634C7.682 28.31 5.783 28.026 5.783 28.026M22.19 28.814c0 .239-.194 1.396-.5 2.152-.298.763-1.035 1.002-2.827 1.002h-.077c-1.292 0-2.339-1.575-2.339-3.518s1.048-3.517 2.339-3.517c1.292 0 2.34 1.575 2.34 3.517 0 .125-.004.242-.012.363H22.19z"/><path fill="#D5B503" d="M23.76,31.371c-2.072,1.343-4.541,2.124-7.188,2.124c-1.85,0-3.613-0.382-5.214-1.07 c-0.422,0.552-0.821,1.074-1.166,1.523c1.939,0.906,4.101,1.414,6.379,1.414c3.108,0,6-0.943,8.405-2.558 C24.612,32.375,24.207,31.897,23.76,31.371"/><path fill="#656564" d="M25.404,29.116H23.15c2.749,3.235,4.85,5.709,4.976,5.86c0.653,0.778,1.885-0.255,1.232-1.034 C29.247,33.81,27.632,31.836,25.404,29.116"/><path fill="#D5B503" d="M4.407 11.255c-.967 1.307-1.73 2.773-2.239 4.353l2.31-.813c.487-1.08 1.117-2.082 1.862-2.985C5.647 11.501 4.994 11.369 4.407 11.255M22.641 6.378c-1.859-.817-3.912-1.273-6.069-1.273-2.26 0-4.405.5-6.333 1.393-.001.578.035 1.235.239 1.96 1.826-.949 3.899-1.486 6.095-1.486 2.07 0 4.03.477 5.777 1.326C22.303 7.642 22.4 6.999 22.641 6.378"/><path fill="#656564" d="M3.582,10.04c1.218,0.421,3.578,0.224,5.903,2.994l2.144-0.754c-0.325-0.397-0.505-0.619-0.505-0.619 C8.774,8.862,9.324,6.458,9.248,5.286C9.171,4.114,8.926,3.288,8.2,2.423C6.557,0.464,3.634,0.2,1.677,1.843 s-2.254,4.607-0.61,6.566C1.714,9.192,2.363,9.619,3.582,10.04"/><path fill="#D5B503" d="M3.248,27.088c0.009-1.437,0.442-3.091,1.641-3.091c1.211,0,1.641,1.69,1.641,3.137 c0,0.159-0.004,0.304-0.01,0.433l9.221,1.357c-0.008-0.132-0.013-0.265-0.013-0.399c0-2.408,1.383-4.293,3.149-4.293 c1.666,0,2.991,1.678,3.136,3.889h4.617l7.587-1.002v-0.901l-1.015-0.812l-8.625,0.65v-0.48l8.422-0.638V23.69l-1.947,0.076 l0-2.236h-4.275v2.407l-2.201,0.087l-0.001-2.973h8.129l-1.97-1.616l-1.091-6.101l-12.123-2.071L2.158,16.667v1.268l-1.066,1.728 l1.066-0.286v7.551C2.158,26.929,3.247,27.09,3.248,27.088 M11.551,21.868l-8.404,0.966v-3.721l6.664-1.785l1.727-2.54l0.014-0.006 V21.868z M15.024,19.081l0.001-5.458l1.886-0.633l1.02,5.594L15.024,19.081z M28.888,14.472l0.812,4.445l-4.387-0.187l-0.877-4.939 L28.888,14.472z M19.895,18.499l-1.014-5.559l5.053,0.775l0.881,4.994L19.895,18.499z"/></svg>