<?xml version="1.0" encoding="utf-8"?><!DOCTYPE svg PUBLIC "-//W3C//DTD SVG 1.1//EN" "http://www.w3.org/Graphics/SVG/1.1/DTD/svg11.dtd"><svg xmlns="http://www.w3.org/2000/svg" width="32" height="32" viewBox="0 0 32 32"><path d="M0,0v32h32V0H0z M19.906,27.978c-0.627,0.12-0.85-0.264-0.85-0.594c0-0.404,0.017-1.735,0.017-3.384 c0-1.15-0.395-1.904-0.838-2.285c2.748-0.306,5.633-1.348,5.633-6.087c0-1.346-0.479-2.447-1.269-3.31 c0.128-0.313,0.551-1.566-0.123-3.265c0,0-1.033-0.332-3.388,1.265C18.103,10.044,17.048,9.907,16,9.902 c-1.048,0.005-2.104,0.142-3.088,0.416c-2.357-1.597-3.393-1.265-3.393-1.265c-0.67,1.699-0.247,2.952-0.12,3.265 c-0.79,0.863-1.271,1.964-1.271,3.31c0,4.728,2.88,5.786,5.619,6.097c-0.353,0.309-0.67,0.853-0.782,1.649 c-0.704,0.314-2.491,0.86-3.591-1.024c0,0-0.651-1.184-1.889-1.272c0,0-1.206-0.015-0.085,0.751c0,0,0.809,0.379,1.37,1.803 c0,0,0.724,2.399,4.155,1.654c0.006,1.029,0.016,1.806,0.016,2.099c0,0.327-0.225,0.708-0.841,0.595 c-4.903-1.632-8.437-6.256-8.437-11.705c0-6.814,5.523-12.337,12.336-12.337c6.813,0,12.337,5.523,12.337,12.337 C28.336,21.722,24.804,26.342,19.906,27.978z"/></svg>