<?xml version="1.0" encoding="utf-8"?><!DOCTYPE svg PUBLIC "-//W3C//DTD SVG 1.1//EN" "http://www.w3.org/Graphics/SVG/1.1/DTD/svg11.dtd"><svg xmlns="http://www.w3.org/2000/svg" width="100.049" height="18.069" viewBox="-0.047 0 100.049 18.069"><path fill="#383738" d="M97.357,2.577c-1.705-1.658-4.063-2.573-6.641-2.576V0H9.213C6.64,0.001,4.286,0.917,2.586,2.577 C0.888,4.237-0.047,6.53-0.047,9.035c0,2.504,0.935,4.798,2.633,6.457c1.7,1.661,4.055,2.577,6.63,2.577 c0.002,0,0.004-0.002,0.007-0.002h81.472c0.004,0,0.006,0.002,0.006,0.002c0.005,0,0.007-0.002,0.007-0.002h0.01 c2.578-0.002,4.937-0.916,6.64-2.575c1.705-1.66,2.645-3.953,2.645-6.457C100.002,6.531,99.063,4.237,97.357,2.577"/><path fill="#878787" d="M96.793,3.096c-1.564-1.523-3.729-2.363-6.094-2.369h-0.018c-0.002,0-0.006-0.001-0.009-0.001	c0,0-0.006,0.001-0.009,0.001h-50.32v0.004c3.305,1.354,5.479,4.469,5.479,8.307c0,3.836-2.172,6.949-5.477,8.303H90.66	c0.004,0,0.01,0,0.015,0s0.011,0,0.017,0h0.01c2.365-0.006,4.527-0.846,6.094-2.367c1.566-1.528,2.432-3.637,2.432-5.938	C99.225,6.731,98.361,4.622,96.793,3.096"/><path fill="#383738" d="M55.061 11.013L56.552 6.138 58.509 6.138 56.157 13.084 54.02 13.084 52.479 8.389 50.953 13.084 48.831 13.084 46.479 6.138 48.473 6.138 49.956 10.991 51.512 6.138 53.482 6.138 55.061 11.013M65.961 9.6c0 .216-.016.474-.035.632H61c.201 1.003.904 1.44 1.786 1.44.603 0 1.254-.244 1.756-.667l1.097 1.205c-.789.724-1.791 1.053-2.961 1.053-2.129 0-3.604-1.448-3.604-3.634s1.434-3.678 3.513-3.678C64.586 5.952 65.956 7.436 65.961 9.6M61.008 8.956h3.075c-.172-.889-.709-1.392-1.513-1.392C61.689 7.564 61.173 8.095 61.008 8.956zM67.102 3.513H68.973V13.084H67.102zM75.6 7.801h-2.517v2.537c0 .867.459 1.184 1.039 1.184.444 0 .926-.223 1.304-.452l.69 1.461c-.61.417-1.313.731-2.304.731-1.721 0-2.603-.974-2.603-2.774V7.801h-1.339V6.138h1.339V4.073h1.872v2.064h2.516v1.664M85.695 6.862v-3.35h1.865v9.573h-1.828v-.767c-.453.56-1.127.946-2.08.946-1.914 0-3.361-1.57-3.361-3.656s1.447-3.656 3.361-3.656C84.584 5.952 85.245 6.317 85.695 6.862M82.205 9.608c0 1.061.695 1.914 1.793 1.914 1.066 0 1.792-.817 1.792-1.914 0-1.096-.726-1.915-1.792-1.915C82.9 7.693 82.205 8.547 82.205 9.608zM96.003 9.6c0 .216-.015.474-.035.632h-4.926c.2 1.003.903 1.44 1.785 1.44.603 0 1.255-.244 1.757-.667l1.096 1.205c-.787.724-1.791 1.053-2.959 1.053-2.131 0-3.605-1.448-3.605-3.634s1.433-3.678 3.513-3.678C94.626 5.952 95.997 7.436 96.003 9.6M91.05 8.956h3.075c-.174-.889-.71-1.392-1.514-1.392C91.73 7.564 91.214 8.095 91.05 8.956zM79.52 11.995c.045.735-.531 1.304-1.264 1.267-.589-.031-1.084-.521-1.119-1.11-.044-.732.521-1.318 1.254-1.281C78.986 10.902 79.484 11.4 79.52 11.995"/><path fill="#878787" d="M9.058 3.865c0 .674-.524 1.19-1.197 1.19-.674 0-1.191-.516-1.191-1.19 0-.673.517-1.205 1.191-1.205C8.534 2.661 9.058 3.192 9.058 3.865M8.807 13.084h-1.87V6.138h1.871L8.807 13.084 8.807 13.084zM21.99 8.661v4.423h-1.864V9.263c0-1.003-.509-1.555-1.355-1.555-.803 0-1.47.523-1.47 1.57v3.806H15.43V9.263c0-1.003-.502-1.555-1.354-1.555-.803 0-1.47.523-1.47 1.57v3.806h-1.871V6.138h1.82v.817c.494-.738 1.254-1.003 2.043-1.003 1.003 0 1.829.451 2.293 1.19.538-.882 1.449-1.19 2.359-1.19C20.886 5.951 21.99 7.048 21.99 8.661M35.129 8.661v4.423h-1.863V9.263c0-1.003-.509-1.555-1.355-1.555-.803 0-1.47.523-1.47 1.57v3.806H28.57V9.263c0-1.003-.501-1.555-1.354-1.555-.803 0-1.47.523-1.47 1.57v3.806h-1.871V6.138h1.82v.817c.495-.738 1.254-1.003 2.043-1.003 1.004 0 1.828.451 2.293 1.19.538-.882 1.448-1.19 2.359-1.19C34.025 5.951 35.129 7.048 35.129 8.661M44.104 9.608c0 2.094-1.599 3.656-3.764 3.656-2.158 0-3.75-1.562-3.75-3.656 0-2.094 1.592-3.656 3.75-3.656C42.505 5.952 44.104 7.514 44.104 9.608M38.498 9.608c0 1.125.788 1.914 1.843 1.914 1.054 0 1.849-.789 1.849-1.914 0-1.126-.795-1.915-1.849-1.915C39.286 7.693 38.498 8.482 38.498 9.608z"/></svg>