<?xml version="1.0" encoding="utf-8"?><!DOCTYPE svg PUBLIC "-//W3C//DTD SVG 1.0//EN" "http://www.w3.org/TR/2001/REC-SVG-20010904/DTD/svg10.dtd"><svg version="1" xmlns="http://www.w3.org/2000/svg" width="100" height="41.28" viewBox="0 0 100 41.28"><path fill="#C49941" d="M6.323 34.123v3.5c0 .125-.068.181-.181.181H4.806c-.113 0-.169-.057-.169-.181v-3.069c0-1.62-.17-1.699-1.212-1.699H2.394v4.768c0 .125-.057.181-.17.181H.876c-.113 0-.17-.057-.17-.181v-5.855c0-.136.057-.147.17-.17.759-.17 1.857-.192 2.707-.192C5.757 31.405 6.323 31.813 6.323 34.123M15.904 34.553v.351c0 .226-.068.306-.362.306h-3.556c.022 1.019.294 1.201 1.28 1.201h2.004c.113 0 .17.056.17.169v.94c0 .125-.057.17-.159.182-.6.125-1.416.158-2.163.158-2.288 0-2.842-.646-2.842-3.228 0-2.593.555-3.228 2.842-3.228C15.349 31.405 15.893 32.028 15.904 34.553M11.974 34.111h2.242c-.011-.997-.272-1.257-1.099-1.257C12.269 32.854 11.985 33.115 11.974 34.111M28.678 31.461c.113 0 .147.034.136.159l-.974 5.107c-.192 1.008-.509 1.132-1.551 1.132-1.302 0-1.438-.125-1.665-1.132l-.555-2.514-.555 2.514c-.215 1.008-.362 1.132-1.653 1.132-1.053 0-1.359-.125-1.563-1.132l-.962-5.107c-.023-.125.022-.159.136-.159h1.438c.068 0 .103.034.125.159l.781 4.621c.045.192.08.215.181.215.125 0 .147-.022.181-.215l1.054-4.428c.034-.125.09-.159.181-.159h1.325c.08 0 .147.034.17.159l1.053 4.428c.045.192.068.215.181.215.102 0 .147-.022.193-.215l.781-4.621c.023-.125.045-.159.125-.159H28.678zM45.041 33.806l-.012 3.816c0 .125-.057.181-.169.181h-1.336c-.113 0-.17-.057-.17-.181v-3.069c0-1.62-.17-1.699-1.076-1.699-.306 0-.634.023-.917.068.102.306.147.691.147 1.2l-.011 3.5c0 .125-.045.181-.159.181H39.99c-.113 0-.159-.057-.159-.181v-3.454c-.011-1.257-.215-1.314-1.087-1.314h-.77v4.768c0 .125-.057.181-.17.181h-1.336c-.113 0-.17-.057-.17-.181v-5.855c0-.125.045-.147.147-.17.623-.136 1.586-.192 2.175-.192.872 0 1.608.158 2.027.362.623-.238 1.393-.374 1.97-.374C44.384 31.393 45.041 31.892 45.041 33.806M54.882 34.632c0 2.582-.532 3.228-2.888 3.228-2.344 0-2.888-.646-2.888-3.228 0-2.593.543-3.228 2.888-3.228C54.35 31.405 54.882 32.039 54.882 34.632M50.793 34.632c0 1.427.17 1.778 1.201 1.778 1.042 0 1.212-.352 1.212-1.778s-.17-1.778-1.212-1.778C50.963 32.854 50.793 33.206 50.793 34.632M60.26 29.377c.125 0 .17.057.17.181v1.914c.419-.045.872-.068 1.393-.068 2.062 0 2.605.725 2.605 3.239 0 2.548-.555 3.216-2.945 3.216-.781 0-1.563-.068-2.491-.215-.147-.023-.238-.113-.238-.283v-7.803c0-.125.045-.181.17-.181H60.26zM60.43 32.866v3.465c.34.057.815.08 1.087.08 1.144 0 1.223-.453 1.223-1.778 0-1.461-.147-1.767-1.291-1.767H60.43zM69.807 31.235c.113 0 .17.057.17.17v6.217c0 .125-.057.181-.17.181h-1.336c-.113 0-.17-.057-.17-.181v-6.217c0-.113.057-.17.17-.17H69.807zM75.56 29.377c.113 0 .17.057.17.17v8.075c0 .125-.057.181-.17.181h-1.336c-.113 0-.169-.057-.169-.181v-8.075c0-.113.056-.17.169-.17H75.56zM81.313 31.235c.113 0 .17.057.17.17v6.217c0 .125-.057.181-.17.181h-1.336c-.113 0-.17-.057-.17-.181v-6.217c0-.113.057-.17.17-.17H81.313zM87.45 29.706c.113-.034.181.045.181.17v1.619h1.042c.125 0 .192.057.192.17v.906c0 .113-.068.169-.192.169h-1.042v3.092c0 .487.17.578.668.578h.464c.136 0 .193.045.193.169v.963c0 .136-.057.192-.181.215-.396.08-.713.102-.963.102-.974 0-1.857-.034-1.857-1.461v-3.658h-.668c-.125 0-.181-.056-.181-.169v-.906c0-.113.057-.17.181-.17h.668v-1.257c0-.113.045-.159.159-.181L87.45 29.706zM98.208 31.461c.113 0 .17.057.17.17v6.036c0 1.862-.34 3.613-2.774 3.613-.815 0-1.484-.045-2.129-.159-.102-.011-.159-.057-.159-.181V40.08c0-.125.045-.17.159-.17h1.982c.997 0 1.234-.739 1.234-2.106v-.068c-.487.091-.906.125-1.381.125-2.062 0-2.673-.792-2.673-2.922v-3.307c0-.113.057-.17.17-.17h1.348c.113 0 .17.057.17.17v2.99c0 1.461.215 1.778 1.359 1.778.283 0 .691-.011 1.008-.068v-4.7c0-.113.057-.17.17-.17H98.208z"/><path fill="#5E5F5F" d="M36.298 2.144H38.676V11.26H36.298zM43.271 2.144h2.378v.65c.698-.349 1.617-.745 2.394-.745h.444c1.997 0 3.012.507 3.012 2.711v6.5h-2.378V4.998c0-.777-.317-.999-1.094-.999h-.365c-.603 0-1.3.286-2.014.46v6.801h-2.378V2.144zM63.582 3.999h-3.979c-.634 0-.888 0-.888.396v.286c0 .38.127.428.396.476l2.426.444c1.696.317 2.647.459 2.647 2.331v.65c0 2.061-1.094 2.774-3.155 2.759-2.537 0-4.788-.254-4.788-.254l.016-1.728h4.344c.952 0 1.348-.174 1.348-.792V8.248c0-.301-.095-.46-.808-.603l-3.124-.571c-1.094-.222-1.665-.539-1.665-1.966V4.443c0-2.061 1.03-2.394 3.091-2.378 2.521 0 4.138.143 4.138.143V3.999zM76.431 11.07c0 0-2.061.253-4.566.253-2.061.016-3.092-.539-3.092-2.774V5.014c0-1.696 1.157-2.901 3.219-2.901h1.998c2.061 0 3.091 1.205 3.091 2.901v2.358c0 .159-.016.206-.158.206h-5.771v.781c0 1.015.19 1.078 1.094 1.078h4.217L76.431 11.07zM74.782 5.331c0-1.237-.38-1.379-1.237-1.379h-1.03c-.872 0-1.363.095-1.363 1.379v.55l3.63-.048V5.331zM81.728 2.144h2.378v.777c.698-.396 1.617-.856 2.394-.856h1.015v2.108H86.12c-.603 0-1.3.206-2.014.507v6.58h-2.378V2.144zM91.745 2.128h2.174V.162h2.378v1.982h2.441V4.11h-2.441v4.439c0 .586.206.824.761.824.143 0 1.792-.031 1.792-.031l-.032 1.648c0 0-1.648.333-2.663.333-1.871 0-2.236-1.125-2.236-2.521V4.11h-2.174V2.128zM36.298 15.79L44.447 15.79 44.447 17.851 38.739 17.851 38.739 20.198 43.67 20.198 43.67 22.322 38.739 22.322 38.739 24.716 44.416 24.716 44.416 26.888 36.298 26.888zM47.475 15.79L55.624 15.79 55.624 17.915 49.917 17.915 49.917 20.436 54.736 20.436 54.736 22.56 49.917 22.56 49.917 26.888 47.475 26.888zM58.24 15.79L66.389 15.79 66.389 17.915 60.682 17.915 60.682 20.436 65.501 20.436 65.501 22.56 60.682 22.56 60.682 26.888 58.24 26.888zM69.005 15.79L77.154 15.79 77.154 17.851 71.446 17.851 71.446 20.198 76.377 20.198 76.377 22.322 71.446 22.322 71.446 24.716 77.123 24.716 77.123 26.888 69.005 26.888zM88.299 17.867h-4.471c-.967 0-1.411.38-1.411 1.252v4.313c0 .888.444 1.379 1.411 1.379h4.471l.016 1.966c0 0-2.758.19-5.374.19-2.045.016-3.076-1.427-3.076-3.139v-5.105c0-1.712 1.031-3.028 3.076-3.013 2.854 0 5.374.143 5.374.143L88.299 17.867zM100 17.852L96.48 17.852 96.48 26.888 94.039 26.888 94.039 17.852 90.503 17.852 90.503 15.79 100 15.79zM6.296 24.321c-.099.026-.236.067-.378.119-.143.051-.293.112-.446.178-.306.133-.618.286-.929.449-.311.163-.622.336-.929.515-.153.089-.306.181-.456.273l-.221.138c-.069.045-.146.095-.188.129h0l-.417.123c-.749.219-1.534-.209-1.753-.958-.053-.182-.067-.373-.049-.55L.56 24.45c.003-.027.006-.043.008-.058l.008-.048.016-.096.063-.378.12-.735c.077-.489.151-.974.217-1.461.136-.974.248-1.949.347-2.924.193-1.951.312-3.907.38-5.857.033-.975.044-1.948.036-2.918-.009-.482-.022-.97-.039-1.446C1.701 8.296 1.691 8.064 1.672 7.833 1.649 7.602 1.628 7.371 1.599 7.14c-.116-.923-.3-1.843-.547-2.745C.931 3.944.792 3.497.635 3.059.559 2.839.478 2.622.392 2.41.35 2.302.305 2.199.261 2.094.218 1.996.167 1.881.131 1.81c-.308-.619-.056-1.371.563-1.679.408-.203.873-.163 1.231.065l.093.06c.334.298.704.606 1.064.9.364.296.732.585 1.106.865C4.563 2.302 4.941 2.571 5.324 2.82 5.706 3.065 6.098 3.3 6.473 3.462L6.5 3.474c.328.143.479.524.336.852C6.713 4.61 6.41 4.761 6.119 4.704 5.572 4.597 5.089 4.43 4.61 4.253 4.135 4.074 3.675 3.878 3.221 3.672c-.453-.207-.9-.422-1.342-.646C1.434 2.8 1.005 2.577.554 2.324l0 0 1.888-1.554c.064.156.105.27.154.4.045.125.091.251.132.376.085.25.165.499.241.749.153.5.285 1.002.406 1.507.237 1.011.421 2.035.53 3.073.028.259.044.52.068.78.019.26.028.522.042.784.014.51.021 1.009.026 1.513.002 1.004-.004 2.005-.03 3.002-.042 1.996-.146 3.982-.232 5.969-.046.993-.086 1.986-.122 2.978-.018.496-.032.994-.043 1.488-.008.249-.01.494-.013.739-.002.125-.002.242 0 .359l0 .088 0 .044c0 .016 0 .03.002.034.003.028.008.055.01.082l-2.22-1.386 0 0c.125-.046.217-.073.317-.104l.289-.085c.191-.054.382-.106.573-.155.382-.099.765-.19 1.155-.272.39-.082.786-.154 1.198-.21.207-.027.418-.05.641-.063.224-.013.456-.019.729.004.508.044.885.491.841 1-.034.398-.317.716-.682.813L6.296 24.321zM13.87 18.905c.373-.117.743-.241 1.113-.364.37-.122.741-.245 1.11-.373.738-.254 1.481-.495 2.217-.754.737-.255 1.479-.5 2.22-.747.74-.25 1.481-.495 2.226-.731.744-.238 1.489-.467 2.234-.692l2.23-.679c1.487-.443 2.967-.895 4.441-1.365l.052 1.35c-1.534-.374-3.07-.748-4.606-1.145-.768-.198-1.534-.41-2.299-.626-.767-.214-1.53-.443-2.292-.68-1.522-.479-3.025-1.017-4.52-1.566-1.495-.549-2.977-1.122-4.463-1.676-.651-.243-.983-.968-.74-1.619.243-.651.968-.982 1.619-.74.05.019.099.041.145.065l.007.004c1.386.737 2.79 1.432 4.208 2.083 1.418.651 2.856 1.246 4.315 1.788.729.27 1.463.531 2.203.78.739.247 1.485.479 2.234.705 1.498.454 3.012.868 4.532 1.263.377.098.604.483.506.86-.061.234-.233.41-.444.487l-.009.003c-1.463.515-2.925 1.032-4.377 1.565-.726.267-1.452.53-2.172.805-.719.277-1.437.558-2.149.846-.714.287-1.424.582-2.132.881-.707.304-1.408.622-2.108.94-.702.316-1.395.654-2.088.993-.347.168-.693.339-1.036.518-.344.177-.688.352-1.029.535l-.006.003c-.72.386-1.618.115-2.003-.606-.386-.72-.115-1.617.605-2.003C13.694 18.969 13.785 18.932 13.87 18.905"/><path fill-rule="evenodd" clip-rule="evenodd" fill="#C49941" d="M27.917,4.726c-2.848-3.04-5.598-3.917-7.164-4.046 c-0.305-0.06-0.611-0.11-0.92-0.145c-1.406-0.175-2.851-0.061-4.218,0.286c-1.372,0.339-2.671,0.935-3.819,1.734 c-1.156,0.79-2.161,1.779-3.007,2.882C7.946,6.544,7.274,7.78,6.795,9.089c-0.242,0.654-0.432,1.327-0.576,2.01 c-0.139,0.685-0.229,1.379-0.269,2.078c-0.042,0.699-0.022,1.396,0.041,2.092c0.063,0.695,0.174,1.389,0.342,2.068 c0.33,1.362,0.871,2.675,1.599,3.879c0.729,1.204,1.647,2.302,2.735,3.219c1.087,0.914,2.346,1.649,3.714,2.101 c0.682,0.226,1.389,0.383,2.104,0.464c0.357,0.041,0.716,0.064,1.075,0.068l0.269,0l0.261-0.012 c0.174-0.008,0.347-0.015,0.521-0.034c1.388-0.109,2.763-0.464,4.033-1.033c1.268-0.575,2.429-1.368,3.398-2.344 c0.484-0.489,0.929-1.015,1.306-1.593c0.38-0.575,0.703-1.191,0.91-1.89c0.08-0.267-0.045-0.56-0.306-0.682 c-0.286-0.135-0.628-0.012-0.763,0.274l-0.009,0.02c-0.235,0.5-0.585,0.983-0.968,1.427c-0.385,0.444-0.816,0.854-1.275,1.222 c-0.463,0.364-0.949,0.697-1.461,0.979c-0.511,0.285-1.047,0.517-1.592,0.714c-1.093,0.393-2.246,0.58-3.403,0.61 c-0.145,0.007-0.29,0.003-0.435,0.001l-0.217-0.003l-0.209-0.006c-0.279-0.012-0.556-0.038-0.831-0.078 c-0.551-0.079-1.092-0.217-1.614-0.407c-1.046-0.376-2.021-0.965-2.868-1.709c-0.848-0.745-1.57-1.643-2.141-2.632 c-1.138-1.983-1.7-4.302-1.639-6.611c0.013-0.576,0.068-1.151,0.163-1.72c0.094-0.569,0.226-1.133,0.401-1.685 c0.348-1.104,0.862-2.158,1.521-3.111c0.657-0.956,1.476-1.798,2.408-2.474c0.466-0.338,0.964-0.628,1.483-0.87 c0.518-0.241,1.056-0.44,1.611-0.568c2.225-0.52,4.598,0.039,6.534,1.176c0.97,0.569,1.849,1.279,2.558,2.108 c0.18,0.206,0.342,0.423,0.501,0.642l0.479,0.657c0.156,0.223,0.322,0.446,0.483,0.68c0.17,0.231,0.33,0.473,0.535,0.721 l0.055,0.067c0.116,0.141,0.282,0.241,0.477,0.271c0.352,0.055,0.685-0.136,0.825-0.445C29.159,8.178,29.7,6.627,27.917,4.726"/><path fill-rule="evenodd" clip-rule="evenodd" fill="#C49941" d="M29.106,7.233c0,1.056-0.581,1.911-1.297,1.911 c-0.717,0-1.298-0.855-1.298-1.911s0.581-1.912,1.298-1.912C28.525,5.322,29.106,6.178,29.106,7.233"/></svg>