<?xml version="1.0" encoding="utf-8"?><!DOCTYPE svg PUBLIC "-//W3C//DTD SVG 1.0//EN" "http://www.w3.org/TR/2001/REC-SVG-20010904/DTD/svg10.dtd"><svg version="1" xmlns="http://www.w3.org/2000/svg" width="100" height="39.551" viewBox="0 0 100 39.551"><path fill="#878787" d="M84.499 23.382c0-5.411-3.562-5.411-4.496-5.411-2.965 0-4.596 2.526-4.596 5.312 0 3.164 1.612 5.372 5.252 5.372 1.074 0 2.268-.219 3.282-.597l-.06-2.367c-.776.417-1.85.815-2.924.815-1.771 0-2.566-1.134-2.566-2.368h6.108V23.382zM78.391 22.427c0-.557 0-2.546 1.612-2.546 1.293 0 1.631 1.233 1.631 2.546H78.391zM67.647 23.322c0-1.651.12-3.203 1.512-3.203 1.273 0 1.572 1.552 1.572 3.203 0 1.194-.278 3.064-1.572 3.064C67.728 26.386 67.647 24.396 67.647 23.322M73.875 13.574h-3.144v6.088h-.04c-.378-.935-1.214-1.691-2.667-1.691-2.606 0-3.641 2.308-3.641 5.093 0 3.303 1.313 5.591 3.641 5.591 1.811 0 2.507-1.174 2.825-1.811h.04c0 .716.04 1.253.08 1.651h2.984c-.04-.478-.08-1.015-.08-2.328V13.574zM59.929 28.495h2.865v-2.984h-2.865V28.495zM40.5 28.495h6.003V17.401c0-2.545.684-4.217 2.622-4.217 1.216 0 2.317.646 2.317 3.115v12.196h6.003V15.54c0-3.952-1.444-7.143-5.813-7.143-2.166 0-4.369 1.026-5.053 3.229h-.076V0H40.5V28.495zM37.081 13.146c0-2.508.076-3.533.152-4.445h-5.699l-.152 3.153h-.076c-.532-1.216-1.862-3.457-5.319-3.457-4.521 0-7.029 3.913-7.029 10.22 0 7.447 3.534 9.878 6.991 9.878 3.344 0 4.864-2.432 5.206-3.496h.076c0 4.104-.19 7.599-4.939 7.599-2.736 0-5.205-1.216-6.231-1.748l-.19 4.901c1.899.57 4.331 1.178 7.143 1.178 9.992 0 10.068-7.94 10.068-10.828V13.146zM25.189 18.579c0-2.051.152-5.851 2.926-5.851 2.431 0 2.963 3.571 2.963 5.851 0 2.774-.57 5.699-3.001 5.699C25.417 24.277 25.189 20.136 25.189 18.579M0 28.495h6.003V19.11h.076l4.977 9.385h6.687l-6.61-10.714 6.192-9.08h-6.23l-5.015 8.017H6.003V0H0V28.495zM98.663 39.477H100v-1.393h-1.337V39.477zM98.189 37.09c0-2.525-1.662-2.525-2.098-2.525-1.383 0-2.145 1.179-2.145 2.479 0 1.476.752 2.507 2.451 2.507.502 0 1.059-.102 1.532-.279l-.028-1.104c-.362.195-.863.38-1.365.38-.826 0-1.197-.529-1.197-1.104h2.85V37.09zM95.339 36.645c0-.26 0-1.188.752-1.188.604 0 .761.576.761 1.188H95.339zM90.261 35.67h.798v2.451c0 1.059.659 1.43 1.42 1.43.474 0 .873-.074 1.021-.13V38.39c-.148.065-.279.102-.482.102-.278 0-.492-.13-.492-.604V35.67h.947v-1.031h-.947v-1.448l-1.43.455v.993h-.835V35.67zM88.293 39.477h1.467v-6.963h-1.467V39.477zM85.684 33.859h1.095v-1.17h-1.095V33.859zM84.087 33.859h1.096v-1.17h-1.096V33.859zM86.092 37.425c0 1.179-.743 1.197-.873 1.197-.121 0-.631 0-.631-.631 0-.808.919-.845 1.504-.845V37.425zM83.846 35.958c.576-.343.975-.427 1.346-.427.213 0 .9 0 .9.929h-.445c-.511 0-2.396.009-2.396 1.625 0 .882.594 1.467 1.495 1.467.697 0 1.263-.446 1.328-.743h.019l.037.668h1.337c-.028-.325-.038-.65-.038-1.365v-1.764c0-1.077-.39-1.782-2.089-1.782-.529 0-1.179.186-1.56.306L83.846 35.958zM75.778 34.639l1.3 4.837h1.597l.743-3.538h.019l.789 3.538h1.561l1.29-4.837h-1.393l-.678 3.445h-.019l-.659-3.445h-1.671l-.687 3.445H77.95l-.706-3.445H75.778zM73.939 39.477h1.467v-3.166c0-.966-.353-1.745-1.421-1.745-.77 0-1.142.353-1.365.881h-.019c0-.325-.019-.594-.037-.808h-1.337c.028.251.037.548.037 1.012v3.825h1.467v-2.711c0-.622.167-1.031.641-1.031.297 0 .566.158.566.761V39.477zM69.112 37.425c0 1.179-.743 1.197-.873 1.197-.121 0-.631 0-.631-.631 0-.808.919-.845 1.504-.845V37.425zM66.865 35.958c.576-.343.975-.427 1.346-.427.213 0 .901 0 .901.929h-.446c-.511 0-2.396.009-2.396 1.625 0 .882.595 1.467 1.495 1.467.696 0 1.263-.446 1.328-.743h.019l.037.668h1.337c-.028-.325-.037-.65-.037-1.365v-1.764c0-1.077-.39-1.782-2.089-1.782-.529 0-1.179.186-1.56.306L66.865 35.958zM63.56 37.09c0-2.525-1.662-2.525-2.098-2.525-1.383 0-2.145 1.179-2.145 2.479 0 1.476.752 2.507 2.451 2.507.501 0 1.059-.102 1.532-.279l-.028-1.104c-.362.195-.863.38-1.364.38-.827 0-1.198-.529-1.198-1.104h2.85V37.09zM60.71 36.645c0-.26 0-1.188.752-1.188.604 0 .761.576.761 1.188H60.71zM57.135 39.477h1.467v-3.166c0-.966-.353-1.745-1.42-1.745-.771 0-1.142.353-1.365.881h-.019c0-.325-.019-.594-.037-.808h-1.337c.028.251.037.548.037 1.012v3.825h1.467v-2.711c0-.622.167-1.031.641-1.031.297 0 .566.158.566.761V39.477zM52.112 33.813h1.467v-1.3h-1.467V33.813zM52.112 39.477h1.467v-4.837h-1.467V39.477zM51.389 37.09c0-2.525-1.662-2.525-2.098-2.525-1.383 0-2.145 1.179-2.145 2.479 0 1.476.752 2.507 2.451 2.507.501 0 1.059-.102 1.532-.279l-.028-1.104c-.362.195-.863.38-1.364.38-.827 0-1.198-.529-1.198-1.104h2.851V37.09zM48.538 36.645c0-.26 0-1.188.752-1.188.604 0 .761.576.761 1.188H48.538zM44.964 39.477h1.467v-3.166c0-.966-.353-1.745-1.42-1.745-.771 0-1.114.353-1.328.808-.204-.483-.557-.808-1.253-.808-.771 0-1.142.353-1.365.881h-.019c0-.325-.019-.594-.037-.808h-1.337c.028.251.037.548.037 1.012v3.825h1.467v-2.711c0-.613.167-1.031.65-1.031.242 0 .511.148.511.761v2.98h1.467v-3.064c0-.362.167-.678.604-.678.325 0 .557.204.557.761V39.477z"/></svg>