<?xml version="1.0" encoding="utf-8"?><!DOCTYPE svg PUBLIC "-//W3C//DTD SVG 1.0//EN" "http://www.w3.org/TR/2001/REC-SVG-20010904/DTD/svg10.dtd"><svg version="1" xmlns="http://www.w3.org/2000/svg" width="100" height="63.891" viewBox="0 0 100 63.891"><path fill-rule="evenodd" clip-rule="evenodd" fill="#878787" d="M79.26,32.06c-3.92,0-7.457-1.645-10.007-4.25v29.226	c7.951-3.18,14.777-7.265,19.959-11.871V27.837C86.69,30.442,83.181,32.06,79.26,32.06z"/><path fill-rule="evenodd" clip-rule="evenodd" fill="#878787" d="M99.658,22.245C96.149,5.658,70.323-3.444,40.11,1.216	c-7.046,1.097-13.598,2.659-19.52,5.127C27.937,3.985,36.436,3.19,45.483,3.19c28.02,0,50.72,12.804,50.72,28.595	c0,3.016-0.85,5.949-2.385,8.691C98.506,34.691,100.947,28.358,99.658,22.245z"/><path fill-rule="evenodd" clip-rule="evenodd" fill="#878787" d="M90.474 18.187c0 6.196-5.017 11.213-11.213 11.213-6.196 0-11.213-5.017-11.213-11.213 0-6.196 5.018-11.213 11.213-11.213C85.457 6.974 90.474 11.991 90.474 18.187zM.055 35.021c-.027 0-.027-.027-.055-.055v-6.141c5.045-2.988 11.816-5.428 19.822-7.101l.192 11.871c-.027.027-.055.055-.082.083v21.028c6.552 2.249 13.818 3.921 21.549 4.798 7.101.823 14.229.877 20.672.302-3.756 1.014-7.924 1.974-11.981 2.632-9.788 1.645-19.658 1.974-28.87.576-8.608-1.672-15.901-4.194-21.248-7.375V35.021z"/><path fill="none" d="M25.908,12.183	c1.81,1.015,18.945,19.685,18.945,19.685L44.359,52.32c-7.923-0.219-12.337-0.63-18.204-1.261L25.908,12.183z"/><path fill-rule="evenodd" clip-rule="evenodd" fill="#878787" d="M62.674,17.995c-6.854-0.905-9.514-1.207-18.342-1.618	c-0.137,0.878,0.06,9.959,0.185,15.125c-2.374-2.581-16.947-18.388-18.609-19.32l0.247,38.876c5.867,0.63,10.281,1.042,18.204,1.261	l0.412-17.084L62.674,55.61C62.646,53.252,62.537,43.053,62.674,17.995z"/></svg>