<?xml version="1.0" encoding="utf-8"?><!DOCTYPE svg PUBLIC "-//W3C//DTD SVG 1.0//EN" "http://www.w3.org/TR/2001/REC-SVG-20010904/DTD/svg10.dtd"><svg version="1" xmlns="http://www.w3.org/2000/svg" width="100" height="24.842" viewBox="0 0 100 24.842"><g fill="#010202"><path d="M15.341 15.061c0 2.954.035 8.515 4.329 8.515 3.87 0 4.504-3.873 4.504-5.243h1.337c0 2.816-1.549 6.439-5.701 6.439-4.75 0-5.948-3.87-5.948-10.135 0-5.63 2.005-9.113 6.158-9.113 4.329 0 5.736 3.589 5.736 9.537H15.341zM24.278 13.864c0-3.345-.528-7.145-4.328-7.145-4.083 0-4.609 4.752-4.609 7.145H24.278zM53.694 0h2.955v5.487h3.273V7.81h-3.273v12.106c0 1.514.388 2.108 1.937 2.108.632 0 .984-.07 1.3-.104v2.426c-.387.073-1.159.214-2.391.214-3.063 0-3.801-1.267-3.801-3.732V7.81h-2.745V5.487h2.745V0zM0 5.948h1.337v2.777h.07c.633-1.618 2.182-3.202 4.68-3.202 2.604 0 4.645 1.478 4.645 4.962v13.861H9.395V11.118c0-3.271-1.374-4.398-3.661-4.398-2.814 0-4.397 2.64-4.397 5.841v11.786H0V5.948zM27.128 5.948h2.5V.491h1.337v5.457h3.061v1.193h-3.061v14.181c0 1.758.845 2.042 1.617 2.042.564 0 1.056-.036 1.654-.211v1.193c-.669.144-1.372.211-1.9.211-1.9 0-2.708-1.09-2.708-3.095V7.141h-2.5V5.948zM36.383 11.188c0-4.291 1.83-6.192 6.333-6.192 5.735 0 5.735 3.449 5.735 5.42v10.522c0 .772 0 1.511.916 1.511.387 0 .563-.07.703-.178v2.112c-.211.036-.986.177-1.725.177-1.126 0-2.533 0-2.673-2.43h-.07c-.951 1.691-2.78 2.711-4.54 2.711-3.519 0-5.137-2.112-5.137-5.491 0-2.64 1.126-4.468 3.554-5.206l3.976-1.2c2.147-.665 2.147-1.263 2.147-2.847 0-1.761-1.058-2.78-3.027-2.78-3.236 0-3.236 3.027-3.236 3.695v.174H36.383zM45.496 14.075c-1.092 1.163-3.694 1.407-5.031 2.215-.952.599-1.442 1.337-1.442 2.991 0 1.901.667 3.237 2.672 3.237 1.937 0 3.802-1.654 3.802-3.588V14.075zM62.209 5.487h2.814v2.218h.07c.775-1.724 2.745-2.71 4.575-2.71 2.18 0 3.483.845 4.08 2.991.845-1.651 2.534-2.991 4.471-2.991 4.961 0 4.961 3.766 4.961 5.981v13.37h-2.956V11.331c0-1.443-.106-3.802-2.534-3.802-1.372 0-3.519.845-3.519 3.802v13.016h-2.956V11.331c0-1.443-.105-3.802-2.533-3.802-1.371 0-3.517.845-3.517 3.802v13.016h-2.957V5.487zM93.208 4.996c5.454 0 6.792 4.608 6.792 9.924 0 5.313-1.375 9.922-6.792 9.922-5.453 0-6.79-4.608-6.79-9.922C86.418 9.604 87.79 4.996 93.208 4.996M96.902 14.92c0-4.083-.598-7.602-3.765-7.602-2.992 0-3.624 3.519-3.624 7.602 0 4.08.599 7.599 3.624 7.599C96.27 22.519 96.902 19 96.902 14.92"/></g></svg>