<?xml version="1.0" encoding="utf-8"?><!DOCTYPE svg PUBLIC "-//W3C//DTD SVG 1.1//EN" "http://www.w3.org/Graphics/SVG/1.1/DTD/svg11.dtd"><svg xmlns="http://www.w3.org/2000/svg" width="100" height="26.667" viewBox="0 0 100 26.667"><path fill-rule="evenodd" clip-rule="evenodd" fill="#F5821F" d="M9.641,20.64c-1.421-2.148-2.249-4.727-2.249-7.501	c0-1.45,0.225-2.848,0.644-4.157C3.786,10.792,0.71,14.73,0,19.372C2.98,21.017,6.432,21.431,9.641,20.64"/><path fill-rule="evenodd" clip-rule="evenodd" fill="#006EB7" d="M26.615,20.268c-0.407-4.679-3.128-8.59-6.927-10.689	c-0.39,2.55-1.506,5.018-3.363,7.063c-1.859,2.046-4.198,3.383-6.684,3.999c2.404,3.634,6.505,6.027,11.164,6.027	c1.85,0,3.612-0.377,5.215-1.062C26.556,23.934,26.776,22.132,26.615,20.268"/><path fill-rule="evenodd" clip-rule="evenodd" fill="#66AE3E" d="M8.036,8.982c1.258-0.535,2.618-0.884,4.049-1.011	c2.739-0.241,5.361,0.367,7.604,1.608C20.193,6.285,19.484,2.851,17.596,0C13.074,1.119,9.454,4.55,8.036,8.982"/><path fill="#161413" d="M28.889 17.528l1.568-8.889h5.252c1.418 0 2.365.246 2.843.737.477.491.605 1.355.387 2.596l-.98 5.557H28.889M29.773 16.909h3.364l.979-5.556h.115c.214 0 .372.037.47.116.1.078.136.188.111.333-.004.021-.008.063-.014.129-.007.064-.012.116-.021.157l-.85 4.821h3.355l.882-4.999c.176-1.003.09-1.695-.261-2.077-.35-.382-1.064-.574-2.141-.574h-4.643L29.773 16.909zM43.248 17.528c-1.429 0-2.475-.392-3.139-1.175-.665-.786-.875-1.873-.629-3.265.246-1.396.839-2.488 1.782-3.273.941-.784 2.125-1.176 3.554-1.176s2.477.392 3.147 1.176c.671.785.882 1.876.636 3.273-.246 1.392-.842 2.479-1.789 3.265C45.863 17.136 44.675 17.528 43.248 17.528M43.631 13.25h4.189l.036-.199c.21-1.188.034-2.122-.525-2.803-.562-.678-1.434-1.017-2.62-1.017-1.192 0-2.183.34-2.977 1.021-.791.68-1.294 1.627-1.507 2.836-.212 1.194-.039 2.132.516 2.813.554.681 1.424 1.022 2.611 1.022 1.035 0 1.934-.271 2.698-.815.765-.543 1.303-1.292 1.613-2.25h-3.401l-.158.895c-.022.125-.074.226-.156.305-.082.078-.178.118-.288.118-.115 0-.199-.039-.251-.114-.052-.078-.065-.179-.044-.309L43.631 13.25zM44.014 11.082c.021-.124.073-.225.155-.303.082-.081.178-.119.289-.119.105 0 .187.038.244.111.058.074.078.167.058.281l-.006.03-.166.939h-.74L44.014 11.082zM50.196 8.638l5.321-2.295L55.11 8.638h1.831l-.571 3.226h-1.828l-.972 5.523c-.327.042-.633.079-.919.105-.286.024-.546.036-.776.036-1.192 0-1.991-.235-2.393-.704-.405-.469-.498-1.31-.286-2.522L50.196 8.638M52.911 16.825l.974-5.536h1.831l.366-2.077h-1.828l.315-1.801-3.679 1.582-.939 5.325c-.175.995-.116 1.676.18 2.043.294.366.885.55 1.771.55.201 0 .378-.007.542-.021C52.604 16.879 52.758 16.855 52.911 16.825M56.275 17.528l1.978-11.207h4.916l-1.977 11.207H56.275M57.158 16.911h3.37l1.76-9.971h-3.37L57.158 16.911zM68.248 8.634c1.43 0 2.478.392 3.148 1.175.67.785.883 1.877.636 3.273-.247 1.392-.843 2.479-1.788 3.266-.948.783-2.134 1.174-3.564 1.174-1.428 0-2.472-.391-3.137-1.174-.665-.787-.875-1.874-.631-3.266.247-1.396.84-2.488 1.782-3.273C65.636 9.026 66.819 8.634 68.248 8.634M68.145 9.226c-1.193 0-2.184.34-2.977 1.021-.79.681-1.292 1.627-1.507 2.836-.212 1.194-.039 2.132.517 2.813.554.681 1.424 1.023 2.61 1.023 1.188 0 2.181-.342 2.981-1.026.801-.684 1.305-1.62 1.514-2.81.214-1.208.042-2.155-.515-2.836C70.211 9.566 69.336 9.226 68.145 9.226M68.113 11.595l-.524 2.967c-.021.125-.076.227-.165.31-.086.081-.185.123-.296.123-.115 0-.199-.041-.25-.12-.053-.08-.067-.182-.044-.313l.522-2.967c.023-.128.076-.231.157-.307.082-.077.178-.114.289-.114.11 0 .194.038.254.118C68.115 11.371 68.134 11.472 68.113 11.595M83.273 8.61l-1.33 7.542c-.289 1.632-.792 2.748-1.517 3.349-.722.6-1.888.899-3.497.899-.428 0-.869-.016-1.32-.052-.45-.038-.923-.096-1.416-.173l.483-2.731c-.818-.272-1.378-.739-1.681-1.407-.305-.667-.358-1.559-.163-2.673.188-1.061.485-1.93.895-2.609.408-.679.949-1.202 1.62-1.569.372-.207.834-.354 1.383-.442.549-.087 1.353-.132 2.411-.132H83.273M82.379 9.231h-3.588c-.848 0-1.511.042-1.987.123-.478.084-.87.218-1.178.404-.525.311-.947.757-1.273 1.337-.327.58-.567 1.315-.723 2.205-.231 1.301-.127 2.251.31 2.855.435.603 1.231.905 2.388.905.051 0 .112-.001.188-.007.076-.005.193-.017.348-.031l.874-4.957c.057-.32.134-.525.234-.61.103-.085.274-.126.517-.126h.154l-.941 5.344c-.076.427-.205.693-.388.791-.183.098-.548.148-1.098.148-.105 0-.234-.004-.383-.012-.15-.007-.313-.018-.487-.035l-.363 2.066c.524.056.953.095 1.28.118.33.019.632.03.906.03 1.287 0 2.201-.217 2.752-.65.55-.431.945-1.329 1.186-2.692L82.379 9.231zM82.516 17.529l1.985-11.26h4.942l-1.988 11.26H82.516M83.401 16.909h3.387l1.356-7.682h-3.387L83.401 16.909zM84.858 8.652h3.387l.31-1.763h-3.386L84.858 8.652zM88.346 17.529l3.578-4.76-1.54-4.129H100l-2.622 4.394 1.64 4.495H88.346M92.755 14.832l.529-.797 1.033 2.875h3.646l-1.402-3.836 2.282-3.813h-2.944l.666 1.605-.507.773L95.076 9.26h-3.628l1.302 3.495-3.098 4.155h3.852L92.755 14.832z"/></svg>