<?xml version="1.0" encoding="utf-8"?><!DOCTYPE svg PUBLIC "-//W3C//DTD SVG 1.1//EN" "http://www.w3.org/Graphics/SVG/1.1/DTD/svg11.dtd"><svg xmlns="http://www.w3.org/2000/svg" width="100" height="26.667" viewBox="0 0 100 26.667"><path fill-rule="evenodd" clip-rule="evenodd" fill="#878787" d="M9.641 20.64c-1.422-2.148-2.249-4.728-2.249-7.501 0-1.45.225-2.848.644-4.157C3.785 10.792.71 14.73 0 19.373 2.98 21.017 6.432 21.431 9.641 20.64M26.615 20.268c-.407-4.679-3.128-8.59-6.927-10.689-.39 2.551-1.507 5.018-3.363 7.063-1.859 2.047-4.198 3.384-6.684 3.999 2.404 3.633 6.506 6.026 11.164 6.026 1.85 0 3.612-.377 5.215-1.062C26.556 23.934 26.776 22.132 26.615 20.268M8.036 8.982c1.258-.535 2.617-.884 4.049-1.011 2.739-.241 5.361.367 7.604 1.608C20.192 6.285 19.484 2.851 17.596 0 13.074 1.119 9.454 4.55 8.036 8.982"/><path fill="#878787" d="M28.889 17.78l1.568-8.889h5.252c1.418 0 2.365.246 2.843.737.477.491.605 1.355.387 2.596l-.98 5.556H28.889M29.773 17.16h3.365l.979-5.555h.115c.214 0 .371.037.47.116.1.079.136.188.111.333-.005.021-.008.063-.014.129-.007.064-.012.116-.021.157l-.849 4.82h3.355l.881-4.997c.176-1.003.09-1.695-.26-2.078-.35-.382-1.064-.574-2.142-.574h-4.643L29.773 17.16zM43.248 17.78c-1.429 0-2.475-.393-3.14-1.176-.664-.786-.875-1.873-.628-3.264.247-1.397.839-2.489 1.782-3.273.94-.784 2.126-1.176 3.553-1.176 1.428 0 2.477.392 3.147 1.176.67.785.882 1.876.636 3.273-.246 1.391-.842 2.478-1.789 3.264C45.863 17.387 44.675 17.78 43.248 17.78M43.631 13.502h4.188l.037-.199c.209-1.189.034-2.123-.526-2.804-.561-.677-1.434-1.017-2.62-1.017-1.193 0-2.183.341-2.977 1.021-.792.68-1.294 1.627-1.507 2.836-.212 1.193-.039 2.131.516 2.812.554.681 1.424 1.022 2.611 1.022 1.034 0 1.933-.271 2.698-.814.765-.543 1.304-1.293 1.614-2.251h-3.401l-.158.895c-.022.125-.074.227-.156.305-.083.078-.178.118-.288.118-.115 0-.199-.039-.251-.114-.052-.078-.065-.179-.044-.309L43.631 13.502zM44.014 11.334c.021-.123.073-.225.156-.303.082-.081.178-.119.288-.119.105 0 .187.038.245.111.058.075.077.168.057.281l-.006.03-.166.94h-.74L44.014 11.334zM50.196 8.888l5.32-2.294L55.11 8.888h1.831l-.572 3.227h-1.827l-.971 5.523c-.328.043-.634.079-.92.105-.285.024-.546.036-.776.036-1.192 0-1.99-.235-2.393-.703-.405-.47-.498-1.312-.286-2.522L50.196 8.888M52.911 17.077l.975-5.536h1.831l.365-2.077h-1.828l.316-1.801-3.679 1.581-.94 5.324c-.175.996-.115 1.676.181 2.044.294.365.884.55 1.77.55.202 0 .379-.007.542-.022C52.603 17.129 52.758 17.106 52.911 17.077M56.274 17.78l1.979-11.206h4.916L61.191 17.78H56.274M57.158 17.162h3.37l1.759-9.97h-3.369L57.158 17.162zM68.247 8.886c1.431 0 2.479.392 3.149 1.176.671.784.883 1.876.636 3.273-.247 1.391-.844 2.479-1.788 3.265-.947.783-2.134 1.176-3.564 1.176-1.428 0-2.472-.393-3.137-1.176-.665-.786-.875-1.874-.631-3.265.246-1.397.841-2.489 1.782-3.273S66.819 8.886 68.247 8.886M68.144 9.478c-1.192 0-2.184.34-2.977 1.021-.79.681-1.293 1.627-1.507 2.836-.212 1.193-.038 2.132.518 2.812.553.683 1.423 1.022 2.608 1.022 1.188 0 2.182-.342 2.981-1.024.801-.685 1.306-1.621 1.514-2.81.214-1.209.042-2.155-.515-2.836C70.211 9.818 69.336 9.478 68.144 9.478M68.112 11.846l-.523 2.966c-.021.126-.076.227-.165.31-.086.08-.185.123-.297.123-.114 0-.198-.041-.249-.12-.054-.078-.067-.183-.043-.313l.521-2.966c.022-.128.075-.231.156-.307.082-.077.178-.114.289-.114.11 0 .193.038.254.118C68.114 11.622 68.133 11.724 68.112 11.846M83.272 8.861l-1.329 7.542c-.289 1.632-.793 2.748-1.517 3.349-.723.6-1.888.899-3.497.899-.428 0-.869-.017-1.32-.052-.45-.038-.924-.096-1.416-.174l.483-2.73c-.818-.272-1.379-.74-1.682-1.408-.305-.667-.357-1.559-.163-2.672.188-1.061.486-1.93.896-2.609.408-.679.949-1.202 1.62-1.569.372-.207.833-.355 1.383-.443.549-.087 1.353-.131 2.41-.131H83.272M82.379 9.483h-3.588c-.848 0-1.511.041-1.987.124-.478.084-.87.218-1.178.404-.525.312-.947.757-1.273 1.337-.327.58-.567 1.316-.722 2.206-.232 1.3-.129 2.25.31 2.854.435.604 1.23.905 2.387.905.052 0 .112-.002.188-.008.075-.005.192-.017.349-.03l.873-4.957c.058-.32.135-.524.235-.61.103-.085.273-.127.517-.127h.155l-.942 5.344c-.076.428-.204.693-.388.791-.184.099-.549.147-1.099.147-.104 0-.233-.003-.383-.012-.15-.008-.313-.018-.486-.035l-.363 2.066c.523.056.952.095 1.279.118.33.019.633.03.907.03 1.286 0 2.2-.217 2.751-.65.551-.431.945-1.329 1.186-2.692L82.379 9.483zM82.516 17.78L84.5 6.52h4.942l-1.988 11.26H82.516M83.401 17.16h3.386l1.356-7.682h-3.387L83.401 17.16zM84.858 8.903h3.388l.31-1.763h-3.387L84.858 8.903zM88.345 17.78l3.579-4.759-1.54-4.13H100l-2.623 4.395 1.64 4.495H88.345M92.755 15.083l.528-.797 1.034 2.874h3.645l-1.401-3.835 2.282-3.813h-2.945l.666 1.604-.506.774-.982-2.378h-3.629l1.303 3.495-3.098 4.154h3.852L92.755 15.083z"/></svg>