<?xml version="1.0" encoding="utf-8"?><!DOCTYPE svg PUBLIC "-//W3C//DTD SVG 1.1//EN" "http://www.w3.org/Graphics/SVG/1.1/DTD/svg11.dtd"><svg xmlns="http://www.w3.org/2000/svg" width="606.293" height="643.132" viewBox="499.076 17.284 606.293 643.132"><path fill="#008D5A" d="M499.576 17.784H1104.8690000000001V659.9159999999999H499.576z"/><path fill="none" stroke="#FFF" stroke-miterlimit="10" d="M499.576 17.784H1104.8690000000001V659.9159999999999H499.576z"/><path fill="#FFF" d="M937.826 595.766L937.826 433.169 966.407 433.169 966.407 522.724 1011.503 473.818 1045.165 473.818 998.8 526.535 1054.058 595.766 1019.124 595.766 966.407 530.346 966.407 595.766zM581.51 452.223h22.23c0 0 30.486-1.905 30.486 21.595 0 0 2.541 24.136-19.689 27.946-.635 0-1.905 0-2.54 0H581.51V452.223zM662.809 527.171c-3.812-7.622-10.798-13.974-18.42-18.42 2.541-1.905 5.082-4.445 6.987-6.986 10.797-10.797 10.797-34.298 3.811-47.001-8.892-15.878-24.136-24.771-51.446-26.041l-50.177.636v105.434 59.704h27.946c0-18.419 0-41.284 0-59.704v-12.067h30.487c1.905 0 4.445 0 6.351.635 6.352 1.271 12.068 4.446 16.515 9.527 5.081 6.352 7.621 19.055 3.176 26.041-4.446 8.892-13.974 13.974-25.406 13.974h-29.852l7.621 21.595h23.501c20.324 1.27 36.838-6.987 47-20.325C669.795 563.374 670.43 540.509 662.809 527.171M897.812 526.535v69.231h28.582V524.63c-.636-56.527-56.528-51.446-56.528-51.446-6.986.635-14.608 1.27-20.96 5.716-2.54 12.068-4.445 24.136-7.621 35.568l-.636 2.54v-43.189h-28.581v121.313h28.581v-67.325-1.271c.636-3.811 1.271-6.986 2.541-10.162 4.446-8.892 13.973-15.243 24.771-15.879C867.325 500.494 897.812 497.318 897.812 526.535M737.756 569.725c-19.055 0-34.934-15.244-34.934-34.934 0-19.054 15.244-34.933 34.934-34.933 19.054 0 34.933 15.243 34.933 34.933C772.053 554.481 756.81 569.725 737.756 569.725M800 535.427c.635-34.934-27.947-62.244-62.244-62.244-34.299 0-62.245 27.946-62.245 62.244s27.946 62.244 62.245 62.244c8.892 0 17.783-1.905 25.405-5.717 2.54-12.067 8.257-36.838 8.257-36.838v26.676 5.717 7.621H800v-51.446V535.427zM864.15 345.519c-5.717 19.689-20.325 42.555-43.825 48.271-9.527 2.541-24.136 5.717-39.379 4.446v-31.122c13.973 0 30.487-1.271 40.649-13.974 7.621-8.257 9.527-19.054 11.433-29.217l.635-3.811c1.271-6.352 3.176-13.973 4.446-23.5l0 0 0 0 .635-3.812c4.446-41.284 9.527-84.474 55.893-94.001 14.608-1.905 26.041-2.541 38.109-1.905v31.757c-13.339-.635-29.853-.635-41.284 9.527-6.987 6.352-11.434 15.243-13.339 27.312l-5.081 31.122v.635L864.15 345.519z"/><path fill="#FFF" d="M746.012 308.046c-22.865 0-41.919-17.784-41.919-40.015s18.419-40.014 41.919-40.014c22.865 0 41.92 17.783 41.92 40.014S768.877 308.046 746.012 308.046M746.012 196.26c-41.919 0-76.217 32.393-76.217 72.406 0 .636 0 128.935 0 128.935h34.298V287.086l12.067 48.271c9.527 3.812 19.689 5.717 29.852 5.717 41.92 0 76.218-32.393 76.218-72.407C822.23 228.652 787.932 196.26 746.012 196.26M964.502 364.573c-22.865 0-41.92-17.784-41.92-40.014 0-22.23 18.42-40.015 41.92-40.015 22.865 0 41.92 17.784 41.92 40.015C1006.422 346.789 988.002 364.573 964.502 364.573M1006.422 196.26V306.14l-12.068-48.271c-9.527-3.811-19.689-5.717-29.852-5.717-41.92 0-76.217 32.393-76.217 72.407 0 40.014 34.297 72.406 76.217 72.406s76.218-32.393 76.218-72.406c0-.636 0-128.935 0-128.935h-34.298V196.26z"/><path fill="#FFF" d="M551.658,306.14c7.621-105.435,110.515-193.085,246.436-201.977c81.299-5.717,157.517,17.784,212.773,59.703	l16.514-30.486C967.043,92.731,887.015,71.136,802.54,80.028C658.363,95.272,552.293,193.084,550.388,306.14	C550.388,306.14,550.388,308.046,551.658,306.14"/></svg>