<?xml version="1.0" encoding="utf-8"?><svg xmlns="http://www.w3.org/2000/svg" width="220" height="80" viewBox="-0.421 -1.228 220 80"><path fill="#878787" d="M21.301 9.65c2.05 0 3.45-2 3.45-4.201 0-3.55-2.4-5.449-6.5-5.449-4.15 0-9.601 2.899-9.601 8.35 0 5.701 6.351 8.501 6.351 15.951 0 3.6-1.75 6.25-4.15 6.25-2.25 0-3.85-1.6-3.85-4.1 0-2.351 1.35-4.301 2.8-5.25.5-.301.85-.5.85-1.051 0-.449-.5-.8-2.2-.8-3.5 0-8.451 2.2-8.451 6.8 0 4.9 4.55 7.701 9.851 7.701 7.201 0 12.651-5 12.651-11.65 0-7.301-6.8-10.102-6.8-15.951 0-2.2 1.55-3.701 3.3-3.701 1.25 0 1.55.601 1.55 1.351 0 1.3-1.7 1.851-1.7 3.55-.001 1.35 1.099 2.2 2.449 2.2zm83.596 17c0 4.801 3.3 6.9 8 6.9 4.048 0 6.421-1.706 8.057-3.287-.185.886-.308 1.618-.308 2.063 0 .85.399 1.1 1.05 1.1.75 0 2.7-.25 4.201-.25.75 0 1.1-.199 1.1-1.05 0-1.95 1.301-6.2 2.15-7.9 1.1-2.2 2.3-3.05 3.15-3.05.699 0 1.149.6 1.149 1.4 0 1.949-1.6 3.949-1.6 7 0 2.15 1.75 3.85 4.6 3.85 2.554 0 4.437-1.279 5.623-2.483.94 1.62 3.198 2.56 6.026 2.56 4.4 0 7-2.201 7-5.451 0-3.65-5.5-4.05-5.5-7 0-.95.8-1.65 1.449-1.65.551 0 .951.2.951.7 0 .45-.4.75-.4 1.5 0 .95.85 1.7 1.8 1.7 1.649 0 2.351-1.2 2.351-2.551 0-2.049-1.65-3.449-5.301-3.449-3.75 0-6.9 1.6-6.9 4.75 0 3.75 4.951 4.2 4.951 7.15 0 .9-.4 1.35-1.101 1.35-.899 0-1.351-.85-1.351-2.1 0-1.2-.799-1.85-2.149-1.85-1.043 0-2.077.786-2.263 2.126-.441.407-.831.648-1.486.648-.9 0-1.6-.5-1.6-1.8 0-2.051 1.399-4.551 1.399-6.851 0-1.9-1.1-3.15-3.851-3.15-2.95 0-5.9 2.45-6.801 3.55 0 0 .4-1.449.4-2.25 0-.85-.6-1.3-1.699-1.3-2.9 0-5.602.75-5.602 1.851 0 .65.35.75.35 1.6 0 1.415-.576 3.939-1.125 6.291a5.407 5.407 0 0 0-.424.334c-1.1.9-2.85 2.551-5.4 2.551-2.399 0-3.75-1.35-3.75-3.1 5-.4 8.352-3.15 8.352-6.001 0-2.149-1.55-3.65-4.95-3.65-6.647-.001-10.548 4.35-10.548 9.199zm10.65-7.049c.801 0 1.201.399 1.201 1.149 0 1.201-1.851 3.701-4.701 4.251 0-2.95 2-5.4 3.5-5.4zM54.101 39.927c-3.75 0-6.9 1.6-6.9 4.75 0 3.75 4.95 4.2 4.95 7.149 0 .899-.4 1.351-1.1 1.351-.9 0-1.35-.851-1.35-2.101 0-1.199-.8-1.851-2.15-1.851-1.15 0-2.3.951-2.3 2.551 0 2.699 2.75 4.351 6.5 4.351 4.4 0 7-2.2 7-5.45 0-3.65-5.5-4.05-5.5-7 0-.949.8-1.65 1.45-1.65.55 0 .95.201.95.701 0 .449-.4.75-.4 1.5 0 .949.85 1.699 1.8 1.699 1.65 0 2.35-1.199 2.35-2.551 0-2.05-1.651-3.449-5.3-3.449z"/><path fill="#878787" d="M148.749 39.927c-3.75 0-6.899 1.6-6.899 4.75 0 3.75 4.95 4.2 4.95 7.149 0 .899-.4 1.351-1.1 1.351-.9 0-1.351-.851-1.351-2.101 0-1.199-.8-1.851-2.149-1.851-.89 0-1.773.573-2.13 1.569-1.1.901-2.655 2.03-4.771 2.03-2.399 0-3.75-1.35-3.75-3.1 5-.4 8.352-3.15 8.352-6 0-2.15-1.55-3.65-4.949-3.65-4.254 0-7.375 1.783-9.078 4.334.013-.196.028-.396.028-.584 0-2.35-1.101-3.65-3.101-3.65-1.75 0-3 1.15-3 2.85 0 1.752 1.5 1.951 1.5 3.4 0 2.701-1.75 5.801-3.899 5.801-1.05 0-1.75-.649-1.75-1.85 0-3.051 1.601-6.701 1.601-8.9 0-.851-.601-1.301-1.701-1.301-2.899 0-5.549.75-5.549 1.85 0 .65.35.75.35 1.602 0 1.801-.55 4.65-1.4 6.301-.7 1.399-1.8 2.301-2.95 2.301-.95 0-1.45-.851-1.45-1.851 0-3.2 1.7-6.7 1.7-8.899 0-.852-.6-1.301-1.7-1.301-2.9 0-5.55.75-5.55 1.85 0 .65.3.75.3 1.601 0 1.927-1.265 4.39-1.579 7.188-.04.037-.075.067-.119.111-.65.649-1.05 1.051-1.9 1.051-.9 0-1.55-.601-1.55-1.701 0-2.25 1.5-4.199 1.5-6.699 0-2.15-1.5-3.4-4.25-3.4-2.85 0-5.2 1.7-6.45 3.1.476-1.493 1.642-5.433 2.342-8.686.796-2.934 1.868-8.198 2.506-11.489.396-2.029 1.437-3.026 4.757-3.046.396.11.542.392.542.846 0 .203-.131 1.142-.343 2.46-.573 3.148-1.656 7.542-1.656 8.966 0 .85.4 1.1 1.05 1.1.75 0 2.7-.25 4.201-.25.75 0 1.605-.311 1.698-1.156.255-2.318.446-3.74.618-4.77.146-.704.287-1.395.418-2.055.106-.442.218-.891.347-1.466.007-.03-.009-.07-.034-.114l.101-.515c.4-2.05 1.45-3.05 4.851-3.05.6 0 1.15-.7 1.15-1.7 0-.4-.4-.55-.7-.55-3.4 0-3.9-.75-3.9-2.301 0-1.35.75-4.4 2-4.4 1.15 0 .1 3.051 2.7 3.051 1.45 0 2.55-1 2.55-2.65 0-1.801-1.7-3.301-4.951-3.301-2.167 0-4.782.573-6.792 2.939-.217-1.634-1.88-2.939-4.907-2.939-3.3 0-7.65 1.301-9.3 8.301-.25 1-.5 1.301-1.5 1.301-.45 0-1.1.8-1.1 1.5 0 .4.3.699.8.699.75 0 1 .301 1 .9 0 .401-.51 3.666-1.153 7.132a3.422 3.422 0 0 0-.295.269c-.65.65-1.05 1.051-1.9 1.051-.9 0-1.7-.75-1.7-2.051 0-3.9 1.75-7.801 1.75-9 0-.551-.3-.75-.75-.75-1.15 0-3.3.949-4.15.949-.8 0-1.55-.949-4.201-.949-7.15 0-10.15 5.05-10.15 10 0 .232.036.436.053.654-.034.033-.064.059-.101.096-.65.65-1.05 1.051-1.9 1.051-.9 0-1.55-.601-1.55-1.701 0-2.25 1.5-4.199 1.5-6.699 0-2.15-1.5-3.4-4.25-3.4-2.85 0-5.2 1.699-6.45 3.1.7-2.199 2.9-9.7 2.9-12.5 0-2.5-1.6-3.9-4.25-3.9-2.85 0-5.5 1.65-5.5 2.699 0 .4.3.601.75.601 1.05 0 1.9.8 1.9 2.45 0 4.992-2.232 12.033-3.516 17.209-.181.107-.375.26-.583.441-1.2 1.051-3.05 2.551-5.25 2.551-2.1 0-4-1.35-4-4.301 0-3.55 2.15-6.199 3.6-6.199.6 0 .9.25.9.649-.05.601-.8 1.05-.8 2.149 0 1.001.85 1.65 2 1.65 1.65 0 2.95-1.149 2.95-3.199 0-1.9-1.4-3.501-5.2-3.501C27.6 17.45 23.6 21.701 23.6 26.9c0 4.201 3.35 6.65 8 6.65 4.109 0 6.538-1.951 8.221-3.578-.166.898-.272 1.695-.272 2.328 0 .851.35 1.101.95 1.101.8 0 2.8-.25 4.35-.25.7 0 1.05-.2 1.05-1.05.05-1.051 1.2-6.15 2.1-7.851 1-2.001 2.101-3.101 3.15-3.101.7 0 1.2.45 1.2 1.2 0 1.9-1.6 4.501-1.6 7.2 0 2.301 1.4 3.851 4.45 3.851 2.997 0 5.076-1.76 6.177-3.094.859 2.034 2.689 3.094 4.822 3.094 3.65 0 6.301-2.65 6.301-2.65s.85 2.65 3.85 2.65c2.306 0 4.07-1.046 5.265-2.136-.679 3.285-1.341 6.575-2.147 9.833-.354 1.432-.745 2.854-1.133 4.275-.205.75-.6 4.132-1.188 4.518-.156.104-.32.231-.495.385-1.2 1.051-3.05 2.551-5.25 2.551-2.1 0-4-1.35-4-4.301 0-3.549 2.15-6.199 3.6-6.199.6 0 .9.25.9.65-.05.6-.8 1.049-.8 2.148 0 1.001.85 1.65 2 1.65 1.65 0 2.95-1.149 2.95-3.201 0-1.899-1.4-3.5-5.2-3.5-6.451 0-10.451 4.25-10.451 9.451 0 4.199 3.35 6.649 8 6.649 4.072 0 6.495-1.917 8.176-3.534-.14.846-.227 1.621-.227 2.284 0 .851.35 1.101.95 1.101.8 0 2.8-.25 4.35-.25.7 0 1.05-.2 1.05-1.051.05-1.05 1.2-6.149 2.1-7.85 1-2.001 2.101-3.102 3.15-3.102.7 0 1.2.451 1.2 1.201 0 1.899-1.6 4.5-1.6 7.199 0 2.301 1.4 3.852 4.45 3.852 2.728 0 4.703-1.463 5.866-2.731.52 1.579 2.021 2.731 4.333 2.731 4.15 0 6.7-2.5 7.55-3.352.75 1.398 2.549 3.352 5.9 3.352 4.103 0 7.106-2.969 8.767-6.354.183 4.514 3.418 6.502 7.983 6.502 3.817 0 6.146-1.52 7.771-3.02.777 1.871 3.17 2.97 6.229 2.97 4.4 0 7-2.2 7-5.45 0-3.65-5.5-4.05-5.5-7.001 0-.948.8-1.649 1.45-1.649.55 0 .95.201.95.701 0 .448-.4.75-.4 1.5 0 .948.85 1.698 1.8 1.698 1.65 0 2.351-1.198 2.351-2.55 0-2.044-1.65-3.443-5.3-3.443zm-13.7 2.301c.8 0 1.199.398 1.199 1.148 0 1.2-1.85 3.7-4.699 4.251 0-2.95 2-5.399 3.5-5.399zM93.199 11.1c1.15 0 .1 3.051 2.7 3.051.277 0 .536-.048.783-.118-.326.8-.588 1.625-.784 2.468-.234.936-.476 1.256-1.325 1.293-2.924-.077-3.375-.826-3.375-2.293.001-1.351.751-4.401 2.001-4.401zM71.65 27.751c-.65 1.5-1.65 2.351-2.6 2.351-1.1 0-1.7-1.051-1.7-2.351 0-2.75 1.25-8.001 4.1-8.001 1.05 0 1.5.551 1.5 1.451 0 1.949-.7 5.25-1.3 6.55zm124.048 12.625c-3.05 0-4.4 3.25-4.4 3.25s.301-1.352.301-2.148c0-.852-.6-1.301-1.7-1.301-2.899 0-5.601.75-5.601 1.85 0 .65.35.75.35 1.601 0 1.421-.581 3.961-1.132 6.319a5.584 5.584 0 0 0-.417.33c-1.1.9-2.85 2.551-5.4 2.551-2.4 0-3.75-1.35-3.75-3.1 5-.4 8.352-3.15 8.352-6 0-2.15-1.551-3.65-4.95-3.65-6.649 0-10.552 4.35-10.552 9.199 0 .359.024.697.061 1.025-.792.611-1.873 1.676-2.908 1.676-1.201 0-1.951-.551-1.951-2.051 0-1.65.65-4.199 1.051-5.65.35-1.199.9-1.6 2.15-1.6.6 0 1.149-.699 1.149-1.699 0-.4-.3-.551-.7-.551-1.5 0-1.699-.351-1.699-1 0-.851.699-2.901.699-4 0-.4-.25-.801-.8-.801-.45 0-.851.301-1.351 1.101-1.299 2.101-3.75 4.701-6.399 4.701-.55 0-.851.949-.851 1.449 0 .898 1.351.5 1.351 1.148 0 2.502-1.55 5.002-1.55 8.201 0 2.65 1.55 4.801 5.15 4.801 2.703 0 5.652-2.073 7.133-3.793 1.111 2.713 3.877 3.943 7.465 3.943 4.043 0 6.416-1.703 8.051-3.283-.182.873-.301 1.594-.301 2.033 0 .85.399 1.1 1.05 1.1.75 0 2.7-.25 4.2-.25.75 0 1.101-.2 1.101-1.051 0-1.949 1.149-6.1 2.05-7.801.75-1.398 1.4-2.05 1.7-2.148 0 .898.7 1.898 2.101 1.898 2.049 0 3.25-2.1 3.25-3.949-.002-1.498-.903-2.35-2.303-2.35zm-18.25 1.852c.801 0 1.2.398 1.2 1.148 0 1.2-1.851 3.7-4.7 4.251 0-2.95 2-5.399 3.5-5.399zm41.2 9.149c-.3 0-.399.149-.75.399-.399.3-.8.5-1.399.5-.701 0-1.101-.5-1.101-1.7 0-2.05 1.399-4.949 1.399-7.25 0-1.899-1.1-3.149-3.851-3.149-2.95 0-5.899 2.449-6.8 3.551 0 0 .4-1.451.4-2.25 0-.852-.601-1.301-1.7-1.301-2.9 0-5.601.75-5.601 1.85 0 .65.35.75.35 1.601 0 2.7-2.1 9.45-2.1 11.302 0 .85.399 1.1 1.049 1.1.75 0 2.701-.25 4.201-.25.75 0 1.101-.2 1.101-1.051 0-1.949 1.3-6.199 2.149-7.899 1.101-2.2 2.301-3.05 3.15-3.05.7 0 1.15.6 1.15 1.398 0 1.951-1.601 3.951-1.601 7.002 0 2.148 1.601 3.85 4.45 3.85 2.6 0 4.25-1.35 5.4-2.85.35-.451.6-.852.6-1.25.004-.303-.145-.553-.496-.553z"/><path fill="#878787" d="M21.301 9.65c2.05 0 3.45-2 3.45-4.201 0-3.55-2.4-5.449-6.5-5.449-4.15 0-9.601 2.899-9.601 8.35 0 5.701 6.351 8.501 6.351 15.951 0 3.6-1.75 6.25-4.15 6.25-2.25 0-3.85-1.6-3.85-4.1 0-2.351 1.35-4.301 2.8-5.25.5-.301.85-.5.85-1.051 0-.449-.5-.8-2.2-.8-3.5 0-8.451 2.2-8.451 6.8 0 4.9 4.55 7.701 9.851 7.701 7.201 0 12.651-5 12.651-11.65 0-7.301-6.8-10.102-6.8-15.951 0-2.2 1.55-3.701 3.3-3.701 1.25 0 1.55.601 1.55 1.351 0 1.3-1.7 1.851-1.7 3.55-.001 1.35 1.099 2.2 2.449 2.2zm83.596 17c0 4.801 3.3 6.9 8 6.9 4.048 0 6.421-1.706 8.057-3.287-.185.886-.308 1.618-.308 2.063 0 .85.399 1.1 1.05 1.1.75 0 2.7-.25 4.201-.25.75 0 1.1-.199 1.1-1.05 0-1.95 1.301-6.2 2.15-7.9 1.1-2.2 2.3-3.05 3.15-3.05.699 0 1.149.6 1.149 1.4 0 1.949-1.6 3.949-1.6 7 0 2.15 1.75 3.85 4.6 3.85 2.554 0 4.437-1.279 5.623-2.483.94 1.62 3.198 2.56 6.026 2.56 4.4 0 7-2.201 7-5.451 0-3.65-5.5-4.05-5.5-7 0-.95.8-1.65 1.449-1.65.551 0 .951.2.951.7 0 .45-.4.75-.4 1.5 0 .95.85 1.7 1.8 1.7 1.649 0 2.351-1.2 2.351-2.551 0-2.049-1.65-3.449-5.301-3.449-3.75 0-6.9 1.6-6.9 4.75 0 3.75 4.951 4.2 4.951 7.15 0 .9-.4 1.35-1.101 1.35-.899 0-1.351-.85-1.351-2.1 0-1.2-.799-1.85-2.149-1.85-1.043 0-2.077.786-2.263 2.126-.441.407-.831.648-1.486.648-.9 0-1.6-.5-1.6-1.8 0-2.051 1.399-4.551 1.399-6.851 0-1.9-1.1-3.15-3.851-3.15-2.95 0-5.9 2.45-6.801 3.55 0 0 .4-1.449.4-2.25 0-.85-.6-1.3-1.699-1.3-2.9 0-5.602.75-5.602 1.851 0 .65.35.75.35 1.6 0 1.415-.576 3.939-1.125 6.291a5.407 5.407 0 0 0-.424.334c-1.1.9-2.85 2.551-5.4 2.551-2.399 0-3.75-1.35-3.75-3.1 5-.4 8.352-3.15 8.352-6.001 0-2.149-1.55-3.65-4.95-3.65-6.647-.001-10.548 4.35-10.548 9.199zm10.65-7.049c.801 0 1.201.399 1.201 1.149 0 1.201-1.851 3.701-4.701 4.251 0-2.95 2-5.4 3.5-5.4zM54.101 39.927c-3.75 0-6.9 1.6-6.9 4.75 0 3.75 4.95 4.2 4.95 7.149 0 .899-.4 1.351-1.1 1.351-.9 0-1.35-.851-1.35-2.101 0-1.199-.8-1.851-2.15-1.851-1.15 0-2.3.951-2.3 2.551 0 2.699 2.75 4.351 6.5 4.351 4.4 0 7-2.2 7-5.45 0-3.65-5.5-4.05-5.5-7 0-.949.8-1.65 1.45-1.65.55 0 .95.201.95.701 0 .449-.4.75-.4 1.5 0 .949.85 1.699 1.8 1.699 1.65 0 2.35-1.199 2.35-2.551 0-2.05-1.651-3.449-5.3-3.449z"/><path fill="#878787" d="M148.749 39.927c-3.75 0-6.899 1.6-6.899 4.75 0 3.75 4.95 4.2 4.95 7.149 0 .899-.4 1.351-1.1 1.351-.9 0-1.351-.851-1.351-2.101 0-1.199-.8-1.851-2.149-1.851-.89 0-1.773.573-2.13 1.569-1.1.901-2.655 2.03-4.771 2.03-2.399 0-3.75-1.35-3.75-3.1 5-.4 8.352-3.15 8.352-6 0-2.15-1.55-3.65-4.949-3.65-4.254 0-7.375 1.783-9.078 4.334.013-.196.028-.396.028-.584 0-2.35-1.101-3.65-3.101-3.65-1.75 0-3 1.15-3 2.85 0 1.752 1.5 1.951 1.5 3.4 0 2.701-1.75 5.801-3.899 5.801-1.05 0-1.75-.649-1.75-1.85 0-3.051 1.601-6.701 1.601-8.9 0-.851-.601-1.301-1.701-1.301-2.899 0-5.549.75-5.549 1.85 0 .65.35.75.35 1.602 0 1.801-.55 4.65-1.4 6.301-.7 1.399-1.8 2.301-2.95 2.301-.95 0-1.45-.851-1.45-1.851 0-3.2 1.7-6.7 1.7-8.899 0-.852-.6-1.301-1.7-1.301-2.9 0-5.55.75-5.55 1.85 0 .65.3.75.3 1.601 0 1.927-1.265 4.39-1.579 7.188-.04.037-.075.067-.119.111-.65.649-1.05 1.051-1.9 1.051-.9 0-1.55-.601-1.55-1.701 0-2.25 1.5-4.199 1.5-6.699 0-2.15-1.5-3.4-4.25-3.4-2.85 0-5.2 1.7-6.45 3.1.476-1.493 1.642-5.433 2.342-8.686.796-2.934 1.868-8.198 2.506-11.489.396-2.029 1.437-3.026 4.757-3.046.396.11.542.392.542.846 0 .203-.131 1.142-.343 2.46-.573 3.148-1.656 7.542-1.656 8.966 0 .85.4 1.1 1.05 1.1.75 0 2.7-.25 4.201-.25.75 0 1.605-.311 1.698-1.156.255-2.318.446-3.74.618-4.77.146-.704.287-1.395.418-2.055.106-.442.218-.891.347-1.466.007-.03-.009-.07-.034-.114l.101-.515c.4-2.05 1.45-3.05 4.851-3.05.6 0 1.15-.7 1.15-1.7 0-.4-.4-.55-.7-.55-3.4 0-3.9-.75-3.9-2.301 0-1.35.75-4.4 2-4.4 1.15 0 .1 3.051 2.7 3.051 1.45 0 2.55-1 2.55-2.65 0-1.801-1.7-3.301-4.951-3.301-2.167 0-4.782.573-6.792 2.939-.217-1.634-1.88-2.939-4.907-2.939-3.3 0-7.65 1.301-9.3 8.301-.25 1-.5 1.301-1.5 1.301-.45 0-1.1.8-1.1 1.5 0 .4.3.699.8.699.75 0 1 .301 1 .9 0 .401-.51 3.666-1.153 7.132a3.422 3.422 0 0 0-.295.269c-.65.65-1.05 1.051-1.9 1.051-.9 0-1.7-.75-1.7-2.051 0-3.9 1.75-7.801 1.75-9 0-.551-.3-.75-.75-.75-1.15 0-3.3.949-4.15.949-.8 0-1.55-.949-4.201-.949-7.15 0-10.15 5.05-10.15 10 0 .232.036.436.053.654-.034.033-.064.059-.101.096-.65.65-1.05 1.051-1.9 1.051-.9 0-1.55-.601-1.55-1.701 0-2.25 1.5-4.199 1.5-6.699 0-2.15-1.5-3.4-4.25-3.4-2.85 0-5.2 1.699-6.45 3.1.7-2.199 2.9-9.7 2.9-12.5 0-2.5-1.6-3.9-4.25-3.9-2.85 0-5.5 1.65-5.5 2.699 0 .4.3.601.75.601 1.05 0 1.9.8 1.9 2.45 0 4.992-2.232 12.033-3.516 17.209-.181.107-.375.26-.583.441-1.2 1.051-3.05 2.551-5.25 2.551-2.1 0-4-1.35-4-4.301 0-3.55 2.15-6.199 3.6-6.199.6 0 .9.25.9.649-.05.601-.8 1.05-.8 2.149 0 1.001.85 1.65 2 1.65 1.65 0 2.95-1.149 2.95-3.199 0-1.9-1.4-3.501-5.2-3.501C27.6 17.45 23.6 21.701 23.6 26.9c0 4.201 3.35 6.65 8 6.65 4.109 0 6.538-1.951 8.221-3.578-.166.898-.272 1.695-.272 2.328 0 .851.35 1.101.95 1.101.8 0 2.8-.25 4.35-.25.7 0 1.05-.2 1.05-1.05.05-1.051 1.2-6.15 2.1-7.851 1-2.001 2.101-3.101 3.15-3.101.7 0 1.2.45 1.2 1.2 0 1.9-1.6 4.501-1.6 7.2 0 2.301 1.4 3.851 4.45 3.851 2.997 0 5.076-1.76 6.177-3.094.859 2.034 2.689 3.094 4.822 3.094 3.65 0 6.301-2.65 6.301-2.65s.85 2.65 3.85 2.65c2.306 0 4.07-1.046 5.265-2.136-.679 3.285-1.341 6.575-2.147 9.833-.354 1.432-.745 2.854-1.133 4.275-.205.75-.6 4.132-1.188 4.518-.156.104-.32.231-.495.385-1.2 1.051-3.05 2.551-5.25 2.551-2.1 0-4-1.35-4-4.301 0-3.549 2.15-6.199 3.6-6.199.6 0 .9.25.9.65-.05.6-.8 1.049-.8 2.148 0 1.001.85 1.65 2 1.65 1.65 0 2.95-1.149 2.95-3.201 0-1.899-1.4-3.5-5.2-3.5-6.451 0-10.451 4.25-10.451 9.451 0 4.199 3.35 6.649 8 6.649 4.072 0 6.495-1.917 8.176-3.534-.14.846-.227 1.621-.227 2.284 0 .851.35 1.101.95 1.101.8 0 2.8-.25 4.35-.25.7 0 1.05-.2 1.05-1.051.05-1.05 1.2-6.149 2.1-7.85 1-2.001 2.101-3.102 3.15-3.102.7 0 1.2.451 1.2 1.201 0 1.899-1.6 4.5-1.6 7.199 0 2.301 1.4 3.852 4.45 3.852 2.728 0 4.703-1.463 5.866-2.731.52 1.579 2.021 2.731 4.333 2.731 4.15 0 6.7-2.5 7.55-3.352.75 1.398 2.549 3.352 5.9 3.352 4.103 0 7.106-2.969 8.767-6.354.183 4.514 3.418 6.502 7.983 6.502 3.817 0 6.146-1.52 7.771-3.02.777 1.871 3.17 2.97 6.229 2.97 4.4 0 7-2.2 7-5.45 0-3.65-5.5-4.05-5.5-7.001 0-.948.8-1.649 1.45-1.649.55 0 .95.201.95.701 0 .448-.4.75-.4 1.5 0 .948.85 1.698 1.8 1.698 1.65 0 2.351-1.198 2.351-2.55 0-2.044-1.65-3.443-5.3-3.443zm-13.7 2.301c.8 0 1.199.398 1.199 1.148 0 1.2-1.85 3.7-4.699 4.251 0-2.95 2-5.399 3.5-5.399zM93.199 11.1c1.15 0 .1 3.051 2.7 3.051.277 0 .536-.048.783-.118-.326.8-.588 1.625-.784 2.468-.234.936-.476 1.256-1.325 1.293-2.924-.077-3.375-.826-3.375-2.293.001-1.351.751-4.401 2.001-4.401zM71.65 27.751c-.65 1.5-1.65 2.351-2.6 2.351-1.1 0-1.7-1.051-1.7-2.351 0-2.75 1.25-8.001 4.1-8.001 1.05 0 1.5.551 1.5 1.451 0 1.949-.7 5.25-1.3 6.55zm124.048 12.625c-3.05 0-4.4 3.25-4.4 3.25s.301-1.352.301-2.148c0-.852-.6-1.301-1.7-1.301-2.899 0-5.601.75-5.601 1.85 0 .65.35.75.35 1.601 0 1.421-.581 3.961-1.132 6.319a5.584 5.584 0 0 0-.417.33c-1.1.9-2.85 2.551-5.4 2.551-2.4 0-3.75-1.35-3.75-3.1 5-.4 8.352-3.15 8.352-6 0-2.15-1.551-3.65-4.95-3.65-6.649 0-10.552 4.35-10.552 9.199 0 .359.024.697.061 1.025-.792.611-1.873 1.676-2.908 1.676-1.201 0-1.951-.551-1.951-2.051 0-1.65.65-4.199 1.051-5.65.35-1.199.9-1.6 2.15-1.6.6 0 1.149-.699 1.149-1.699 0-.4-.3-.551-.7-.551-1.5 0-1.699-.351-1.699-1 0-.851.699-2.901.699-4 0-.4-.25-.801-.8-.801-.45 0-.851.301-1.351 1.101-1.299 2.101-3.75 4.701-6.399 4.701-.55 0-.851.949-.851 1.449 0 .898 1.351.5 1.351 1.148 0 2.502-1.55 5.002-1.55 8.201 0 2.65 1.55 4.801 5.15 4.801 2.703 0 5.652-2.073 7.133-3.793 1.111 2.713 3.877 3.943 7.465 3.943 4.043 0 6.416-1.703 8.051-3.283-.182.873-.301 1.594-.301 2.033 0 .85.399 1.1 1.05 1.1.75 0 2.7-.25 4.2-.25.75 0 1.101-.2 1.101-1.051 0-1.949 1.149-6.1 2.05-7.801.75-1.398 1.4-2.05 1.7-2.148 0 .898.7 1.898 2.101 1.898 2.049 0 3.25-2.1 3.25-3.949-.002-1.498-.903-2.35-2.303-2.35zm-18.25 1.852c.801 0 1.2.398 1.2 1.148 0 1.2-1.851 3.7-4.7 4.251 0-2.95 2-5.399 3.5-5.399zm41.2 9.149c-.3 0-.399.149-.75.399-.399.3-.8.5-1.399.5-.701 0-1.101-.5-1.101-1.7 0-2.05 1.399-4.949 1.399-7.25 0-1.899-1.1-3.149-3.851-3.149-2.95 0-5.899 2.449-6.8 3.551 0 0 .4-1.451.4-2.25 0-.852-.601-1.301-1.7-1.301-2.9 0-5.601.75-5.601 1.85 0 .65.35.75.35 1.601 0 2.7-2.1 9.45-2.1 11.302 0 .85.399 1.1 1.049 1.1.75 0 2.701-.25 4.201-.25.75 0 1.101-.2 1.101-1.051 0-1.949 1.3-6.199 2.149-7.899 1.101-2.2 2.301-3.05 3.15-3.05.7 0 1.15.6 1.15 1.398 0 1.951-1.601 3.951-1.601 7.002 0 2.148 1.601 3.85 4.45 3.85 2.6 0 4.25-1.35 5.4-2.85.35-.451.6-.852.6-1.25.004-.303-.145-.553-.496-.553zM52.378 77.369v-6.211h-.066l-3.09 4.981h-.236l-3.091-4.981h-.065v6.211h-1.087v-8.192h1.205l3.196 5.156h.026l3.196-5.156h1.153v8.192h-1.141zm7.974 0v-8.192h1.139v8.192h-1.139zm6.795-8.192h7.78v.967h-3.314v7.227h-1.14v-7.227h-3.327l.001-.967zm20.05 8.192v-8.192h1.14v3.264h5.252v-3.264h1.126v8.192h-1.126v-3.964h-5.252v3.964h-1.14zm13.213 0l3.969-8.192h1.074l3.969 8.192h-1.244l-1.166-2.459h-4.271l-1.153 2.459h-1.178zm2.736-3.336h3.458l-1.69-3.577h-.079l-1.689 3.577zm19.565-4.856v8.192h-1.035l-5.436-6.286h-.013v6.286h-1.14v-8.192h1.035l5.436 6.286h.013v-6.286h1.14zm6.834 8.192v-8.192h3.799c1.598 0 2.488.438 3.262 1.141.76.742 1.191 1.783 1.191 2.949 0 1.191-.457 2.283-1.256 3.024-.787.677-1.6 1.078-3.197 1.078h-3.799zm3.76-.966c1.23 0 1.742-.301 2.345-.791.603-.577.956-1.418.956-2.346 0-.904-.328-1.719-.917-2.295-.589-.516-1.166-.83-2.384-.83h-2.62v6.26h2.62v.002zm22.746-5.431c-.379-.238-1.008-.541-1.768-.541-.772 0-1.375.375-1.375.941 0 .652.982 1.43 1.415 1.818l2.109 1.932a9.82 9.82 0 0 0 1.493-1.743l.904.452c-.576.79-1.14 1.43-1.703 1.932l1.77 1.606h-1.494l-1.074-.966c-1.205.865-2.291 1.143-3.131 1.143-1.349 0-2.974-.689-2.974-2.372 0-1.38 1.009-2.057 2.136-2.458-.367-.428-.576-.828-.576-1.316 0-1.217 1.204-1.934 2.514-1.934 1.021 0 1.795.364 2.318.651l-.564.855zm-3.025 2.433c-.708.25-1.677.641-1.677 1.705 0 1.08 1.101 1.469 1.952 1.469.602 0 1.414-.215 2.318-.816l-2.188-1.982-.405-.376zm18.176 3.964v-8.192h1.139v3.264h5.252v-3.264h1.128v8.192h-1.128v-3.964h-5.252v3.964h-1.139zm18.963-3.825h-3.457v2.859h6.037v.966h-7.178v-8.192h6.876v.967h-5.735v2.434h3.457v.966zm8.457 3.825v-8.192h4.715c1.102 0 1.86.288 2.397.829.419.425.655.978.655 1.604 0 1.104-.786 1.971-1.991 2.285l2.108 3.475h-1.295l-1.965-3.336h-3.484v3.336l-1.14-.001zm1.139-7.225v2.922h3.864c.942 0 1.637-.664 1.637-1.467 0-.365-.157-.705-.406-.953-.419-.402-.93-.502-1.52-.502h-3.575zm19.396 7.225h-7.479v-.69l5.79-6.535h-5.41v-.967h7.047v.69l-5.79 6.536h5.842v.966z"/></svg>