<?xml version="1.0" encoding="utf-8"?><!DOCTYPE svg PUBLIC "-//W3C//DTD SVG 1.1//EN" "http://www.w3.org/Graphics/SVG/1.1/DTD/svg11.dtd"><svg xmlns="http://www.w3.org/2000/svg" width="100" height="10.664" viewBox="0 0 100 10.664"><g fill="#231F20"><path d="M49.295 2.041C49 1.706 48.605 1.435 48.112 1.228c-.493-.207-1.055-.311-1.686-.311-.927 0-1.603.174-2.026.525-.424.35-.636.826-.636 1.427 0 .315.056.574.17.776.113.202.288.376.524.525.237.148.54.276.91.385.37.108.806.216 1.309.325.562.118 1.067.251 1.516.399.449.148.831.332 1.146.555.315.222.557.49.725.806.168.316.251.71.251 1.183 0 .484-.094.903-.281 1.258-.187.355-.449.651-.783.887-.336.237-.735.411-1.198.524s-.971.171-1.523.171c-1.627 0-3.032-.508-4.215-1.524l.518-.842c.187.197.411.384.673.562.261.177.552.332.873.466.32.132.663.235 1.028.31.365.074.749.111 1.153.111.838 0 1.491-.15 1.959-.451.468-.301.702-.757.702-1.369 0-.325-.066-.598-.199-.821-.133-.221-.333-.414-.599-.576-.266-.163-.596-.303-.991-.421s-.853-.237-1.375-.355c-.553-.127-1.035-.261-1.449-.399-.414-.137-.764-.311-1.05-.518-.287-.207-.5-.457-.644-.747-.143-.291-.215-.648-.215-1.072 0-.482.092-.915.274-1.293.182-.38.441-.696.776-.947.335-.251.73-.443 1.183-.577C45.386.066 45.889 0 46.441 0c.7 0 1.324.106 1.871.318.547.213 1.043.51 1.486.895L49.295 2.041M51.043 5.25c0-.631.111-1.259.333-1.885.222-.627.544-1.186.969-1.679.423-.493.946-.895 1.567-1.206.621-.311 1.326-.465 2.115-.465.937 0 1.738.213 2.403.636.666.424 1.156.976 1.471 1.656L59.089 2.81c-.168-.345-.373-.636-.614-.873-.242-.237-.5-.43-.777-.576-.275-.148-.562-.254-.857-.319-.296-.064-.587-.095-.873-.095-.631 0-1.188.127-1.67.384-.483.256-.89.592-1.221 1.006s-.579.88-.747 1.397c-.167.517-.251 1.042-.251 1.574 0 .583.101 1.14.303 1.672.202.532.478 1.004.829 1.413.35.409.764.734 1.242.976.478.241.999.362 1.561.362.295 0 .599-.038.909-.112.311-.074.612-.191.902-.354.291-.164.56-.365.806-.606.246-.242.453-.536.621-.88l.857.443c-.168.395-.404.742-.709 1.043-.306.299-.646.553-1.021.761-.375.207-.771.366-1.19.474-.419.108-.831.163-1.235.163-.72 0-1.38-.158-1.981-.473-.601-.317-1.119-.728-1.553-1.236-.434-.507-.771-1.084-1.014-1.73C51.164 6.579 51.043 5.921 51.043 5.25M69.706.015L69.706 10.646 68.672 10.646 68.672 5.674 62.369 5.674 62.369 10.646 61.32 10.646 61.32.015 62.369.015 62.369 4.746 68.672 4.746 68.672.015 69.706.015M92.804 10.646L92.804 0 93.853 0 93.853 9.716 100 9.716 100 10.646 92.804 10.646M89.215.958c.782 0 1.418.637 1.418 1.419v5.905c0 .782-.636 1.419-1.418 1.419H73.294c-.783 0-1.419-.637-1.419-1.419V2.377c0-.782.636-1.419 1.419-1.419H89.215M89.215 0H73.294c-1.308 0-2.377 1.07-2.377 2.377v5.905c0 1.308 1.07 2.377 2.377 2.377h15.921c1.307 0 2.377-1.069 2.377-2.377V2.377C91.592 1.07 90.522 0 89.215 0z"/><path d="M77.002,8.316L74.5,8.313l0.002-1.875l-1.351-0.001l2.617-2.373l2.612,2.378l-1.375-0.001L77.002,8.316 M74.864,7.949l1.774,0.002l0.002-1.875l0.797,0l-1.67-1.521l-1.674,1.517l0.773,0.001L74.864,7.949z"/><path d="M77.122 8.436l-2.743-.003.002-1.875-1.541-.002 2.927-2.653 2.921 2.661-1.565-.002L77.122 8.436M74.619 8.194l2.263.002.002-1.875 1.185.001-2.302-2.097-2.307 2.091 1.161.001L74.619 8.194zM76.758 8.071l-2.014-.002.002-1.875-.963-.001 1.984-1.798 1.98 1.803L76.76 6.197 76.758 8.071zM74.984 7.83l1.535.002.002-1.875.607 0-1.361-1.239-1.363 1.236.583 0L74.984 7.83zM7.019 3.494c-.294-.176-.597-.332-.91-.47C5.845 2.907 5.548 2.797 5.22 2.694 4.892 2.592 4.572 2.541 4.259 2.541c-.255 0-.458.038-.609.117-.152.079-.228.21-.228.396 0 .138.043.25.132.337.088.088.215.17.382.243.166.074.37.145.609.213.24.069.512.151.815.25.479.147.913.309 1.299.485.387.175.717.384.992.624.273.24.484.531.631.874.147.343.22.759.22 1.249 0 .626-.115 1.152-.345 1.577-.23.427-.534.767-.91 1.021-.377.256-.803.438-1.278.551-.475.112-.952.169-1.432.169-.381 0-.773-.03-1.174-.088-.402-.058-.8-.142-1.197-.25C1.77 10.2 1.388 10.072 1.021 9.925.654 9.779.314 9.612 0 9.427l1.234-2.512c.342.216.7.406 1.072.574C2.619 7.636 2.974 7.767 3.37 7.884c.396.118.8.177 1.211.177.313 0 .531-.042.654-.125.122-.083.183-.192.183-.33 0-.147-.061-.271-.183-.374C5.113 7.129 4.944 7.038 4.729 6.959 4.513 6.882 4.266 6.803 3.987 6.725c-.279-.079-.576-.172-.889-.28-.46-.156-.857-.325-1.189-.506-.333-.18-.607-.386-.822-.617C.872 5.093.712 4.831.609 4.537.507 4.244.455 3.905.455 3.524c0-.577.105-1.086.316-1.527.21-.441.497-.808.858-1.102.362-.293.776-.516 1.241-.668C3.335.075 3.828 0 4.347 0 4.729 0 5.1.037 5.463.11c.362.073.712.167 1.05.278C6.85.502 7.166.624 7.459.756 7.753.888 8.018 1.014 8.252 1.13L7.019 3.494M19.13 0L19.13 10.646 16.207 10.646 16.207 6.477 12.637 6.477 12.637 10.646 9.713 10.646 9.713 0 12.637 0 12.637 3.928 16.207 3.928 16.207 0 19.13 0M20.342 0H23.266V10.646H20.342zM24.477 10.659L24.477 0 31.79 0 31.79 2.551 27.405 2.551 27.405 4.323 30.979 4.323 30.979 6.696 27.405 6.696 27.405 10.659 24.477 10.659M41.83 2.552L38.766 2.552 38.766 10.664 35.837 10.664 35.837 2.552 32.758 2.552 32.758 0 41.83 0 41.83 2.552"/></g></svg>