<?xml version="1.0" encoding="utf-8"?><!DOCTYPE svg PUBLIC "-//W3C//DTD SVG 1.0//EN" "http://www.w3.org/TR/2001/REC-SVG-20010904/DTD/svg10.dtd"><svg version="1" xmlns="http://www.w3.org/2000/svg" xmlns:xlink="http://www.w3.org/1999/xlink" width="100" height="20.876" viewBox="0 0 100 20.876"><defs><path id="bba" d="M0 0H100V20.876H0z"/></defs><clipPath id="bbb"><use xlink:href="#bba" overflow="visible"/></clipPath><path clip-path="url(#bbb)" fill="#00628B" d="M81.699,10.419c2.455-3.375,5.436-8.071,11.48-9.634 c0.009-0.002,0.018-0.005,0.028-0.008c0.855-0.22,1.584-0.375,2.247-0.483c1.15-0.187,2.102-0.229,3.167-0.208 c0.316,0.006,0.642,0.019,0.985,0.034c0.127,0.006,0.256,0.012,0.388,0.02c-0.639-0.017-1.228-0.013-1.806,0.02 c-0.074,0.005-0.148,0.008-0.222,0.014c-1.372,0.097-2.707,0.368-4.531,0.95c-5.34,1.704-7.777,6.006-10.06,9.315h-1.691 C81.688,10.433,81.694,10.426,81.699,10.419"/><path clip-path="url(#bbb)" fill="#00628B" d="M62.944 20.582c1.196-.081 2.438-.193 3.599-.336 1.55-.191 2.953-.438 3.899-.739 5.513-1.759 8.808-5.77 11.235-9.069h1.712c-.083.115-.166.228-.248.34-2.459 3.38-6.017 7.656-12.082 9.207-2.956.755-7.973.892-11.283.805C60.842 20.812 61.794 20.769 62.944 20.582M76.694 10.419c-2.456-3.375-5.436-8.071-11.479-9.634-.011-.002-.019-.005-.028-.008-.855-.22-1.584-.375-2.248-.483-1.149-.187-2.102-.229-3.167-.208-.314.006-.64.019-.983.034-.127.006-.256.012-.389.02.64-.017 1.229-.013 1.806.02.074.005.149.008.222.014 1.373.097 2.708.368 4.531.95 5.341 1.704 7.777 6.006 10.059 9.315h1.692C76.703 10.433 76.698 10.426 76.694 10.419"/><path clip-path="url(#bbb)" fill="#00628B" d="M95.454,0.295c-1.196,0.081-2.438,0.193-3.599,0.336 c-1.55,0.191-2.954,0.438-3.9,0.74c-5.513,1.759-8.809,5.77-11.235,9.068h-1.713c0.084-0.114,0.167-0.228,0.249-0.34 c2.459-3.38,6.017-7.656,12.084-9.206C90.295,0.136,95.311,0,98.621,0.087C97.556,0.065,96.604,0.108,95.454,0.295"/><path clip-path="url(#bbb)" fill="#00628B" d="M62.938.295c1.197.081 2.439.193 3.6.336 1.549.191 2.953.438 3.9.74 5.512 1.759 8.807 5.77 11.234 9.068h1.712c-.083-.114-.166-.228-.248-.34-2.458-3.38-6.017-7.656-12.083-9.206C68.098.136 63.082 0 59.771.087 60.836.065 61.789.108 62.938.295M95.46 20.582c-1.196-.081-2.438-.193-3.598-.336-1.551-.191-2.954-.438-3.9-.739-5.512-1.759-8.808-5.77-11.235-9.069h-1.711c.083.115.166.228.248.34 2.459 3.38 6.018 7.656 12.083 9.207 2.956.755 7.971.892 11.282.805C97.562 20.812 96.61 20.769 95.46 20.582"/><path clip-path="url(#bbb)" fill="#00628B" d="M81.704 10.458c2.456 3.374 5.437 8.07 11.48 9.633.009.001.019.005.028.007.856.22 1.584.375 2.248.483 1.15.187 2.102.23 3.167.208.315-.007.641-.019.984-.035.127-.006.256-.012.389-.019-.64.017-1.228.013-1.807-.02-.074-.004-.148-.008-.222-.014-1.373-.097-2.708-.367-4.531-.949-5.34-1.704-7.777-6.006-10.058-9.315H81.69C81.695 10.444 81.699 10.451 81.704 10.458M76.7 10.458c-2.457 3.374-5.436 8.07-11.481 9.633-.009.001-.018.005-.027.007-.856.22-1.584.375-2.248.483-1.15.187-2.102.23-3.168.208-.315-.007-.641-.019-.983-.035-.127-.006-.256-.012-.389-.019.639.017 1.229.013 1.807-.02.073-.004.149-.008.222-.014 1.372-.097 2.707-.367 4.53-.949 5.341-1.704 7.778-6.006 10.059-9.315h1.692C76.709 10.444 76.705 10.451 76.7 10.458"/><path clip-path="url(#bbb)" fill="#0095D4" d="M93.212,20.098c-0.009-0.002-0.019-0.005-0.028-0.007 c-0.65-0.144-1.286-0.312-1.902-0.508c-5.514-1.758-8.759-5.839-11.182-9.145h-0.005c2.423-3.306,5.668-7.385,11.181-9.144 c0.618-0.196,1.253-0.365,1.903-0.508c0.009-0.002,0.018-0.005,0.028-0.008c0.856-0.22,1.584-0.374,2.247-0.482 c-1.196,0.081-2.438,0.193-3.599,0.336c-0.384,0.078-0.766,0.164-1.141,0.261c-5.615,1.44-9.083,5.209-11.517,8.444 c-2.436-3.235-5.904-7.004-11.52-8.444c-0.375-0.097-0.756-0.183-1.141-0.261c-1.16-0.143-2.402-0.255-3.599-0.336 c0.664,0.108,1.393,0.263,2.248,0.482c0.01,0.003,0.018,0.006,0.028,0.008c0.649,0.144,1.286,0.312,1.903,0.508 c5.512,1.759,8.759,5.839,11.181,9.145h0.005c-2.423,3.305-5.668,7.385-11.18,9.144c-0.617,0.197-1.254,0.365-1.904,0.508 c-0.008,0.002-0.018,0.005-0.027,0.007c-0.856,0.22-1.584,0.375-2.248,0.483c1.196-0.081,2.438-0.193,3.598-0.336 c0.385-0.078,0.766-0.164,1.141-0.26c5.616-1.441,9.084-5.21,11.519-8.444c2.436,3.233,5.903,7.002,11.519,8.444 c0.376,0.096,0.756,0.182,1.141,0.26c1.16,0.143,2.402,0.255,3.599,0.336C94.797,20.474,94.068,20.318,93.212,20.098"/><path clip-path="url(#bbb)" fill="#878787" d="M8.347 11.91c0 .702-.117 1.334-.352 1.897-.234.563-.565 1.042-.993 1.436-.428.396-.94.7-1.535.912-.595.211-1.254.318-1.976.318-.683 0-1.332-.077-1.946-.23C.929 16.089.414 15.888 0 15.64l.602-1.646c.334.205.752.384 1.254.538.501.153 1.026.23 1.575.23.923 0 1.678-.241 2.268-.725.588-.482.883-1.162.883-2.04 0-.395-.074-.747-.221-1.053-.147-.307-.345-.578-.592-.812C5.521 9.899 5.236 9.69 4.916 9.507 4.594 9.325 4.267 9.153 3.933 8.992c-.455-.22-.907-.461-1.354-.725C2.13 8.004 1.726 7.697 1.364 7.346c-.361-.352-.656-.764-.883-1.24C.254 5.631.14 5.064.14 4.406s.11-1.254.331-1.788c.221-.534.525-.987.913-1.36C1.772.885 2.24.6 2.789.402c.548-.198 1.157-.296 1.826-.296.668 0 1.277.08 1.826.241C6.989.509 7.437.706 7.785.94L7.203 2.498C6.922 2.322 6.554 2.154 6.099 1.993c-.455-.161-.93-.242-1.424-.242-.816 0-1.485.224-2.006.669C2.146 2.867 1.886 3.5 1.886 4.319c0 .395.081.742.241 1.042.16.3.374.57.642.812S3.337 6.63 3.671 6.819C4.005 7.01 4.347 7.192 4.695 7.369c.428.205.859.431 1.294.68.435.249.826.548 1.174.899.348.352.632.769.853 1.251C8.236 10.681 8.347 11.251 8.347 11.91M12.408 2.125c0 .283-.104.526-.311.728-.208.203-.458.304-.752.304-.294 0-.545-.101-.752-.304-.208-.202-.311-.445-.311-.728s.104-.529.311-.739c.207-.208.458-.313.752-.313.294 0 .545.104.752.313C12.304 1.595 12.408 1.841 12.408 2.125M10.524 5.346h1.665V16.25h-1.665V5.346zM14.632.368H16.297V16.25H14.632zM27.367 10.585c0 1.025-.127 1.909-.381 2.65-.254.741-.612 1.353-1.074 1.832-.461.479-1.01.832-1.645 1.062-.635.229-1.334.344-2.097.344-.669 0-1.304-.075-1.906-.223-.602-.147-1.11-.33-1.524-.546V.368h1.685v5.301c.281-.135.622-.25 1.023-.344s.809-.142 1.224-.142c.695 0 1.33.125 1.906.375.575.25 1.069.606 1.484 1.072.415.466.736 1.032.963 1.7C27.252 8.997 27.367 9.75 27.367 10.585M25.683 10.687c0-1.308-.294-2.33-.883-3.065-.588-.735-1.371-1.103-2.347-1.103-.361 0-.726.04-1.093.121-.368.081-.679.189-.933.324v7.789c.187.095.444.176.772.243.328.067.679.102 1.054.102.481 0 .929-.084 1.344-.253.415-.168.779-.427 1.093-.778.314-.351.558-.807.732-1.367C25.596 12.14 25.683 11.469 25.683 10.687M37.675 15.704c-.415.216-.977.398-1.686.546-.709.148-1.464.223-2.267.223-1.351 0-2.384-.307-3.1-.92-.716-.614-1.073-1.582-1.073-2.904V5.345h1.685v7.324c0 1.591.829 2.388 2.488 2.388.495 0 .946-.037 1.354-.112.408-.074.719-.158.933-.253V5.345h1.665V15.704zM44.795 6.62c-.147-.027-.301-.047-.461-.061-.161-.013-.328-.02-.501-.02-.375 0-.746.03-1.114.091-.368.061-.679.145-.933.253v9.367h-1.685V5.892c.495-.229 1.09-.415 1.786-.556.695-.142 1.417-.212 2.167-.212.201 0 .391.007.571.02.181.014.344.033.492.061L44.795 6.62zM50.824 20.6h-1.746l1.625-4.35L46.65 5.345h1.826l2.688 7.931c.121.364.213.715.281 1.052l.1.506h.041l.1-.506c.067-.336.161-.688.281-1.052l2.668-7.931h1.846L50.824 20.6z"/></svg>