<?xml version="1.0" encoding="utf-8"?><!DOCTYPE svg PUBLIC "-//W3C//DTD SVG 1.1//EN" "http://www.w3.org/Graphics/SVG/1.1/DTD/svg11.dtd"><svg xmlns="http://www.w3.org/2000/svg" width="32" height="32" viewBox="0 0 32 32"><path fill="#DDD" d="M24.551,11.616c0.006,0.19,0.012,0.38,0.012,0.571c0,5.829-4.436,12.549-12.55,12.549 c-2.49,0-4.809-0.729-6.761-1.982c0.345,0.041,0.696,0.061,1.052,0.061c2.067,0,3.969-0.7,5.479-1.887 c-1.931-0.033-3.56-1.309-4.122-3.063c0.27,0.053,0.546,0.078,0.83,0.078c0.402,0,0.793-0.053,1.164-0.152 c-2.018-0.407-3.539-2.189-3.539-4.326c0-0.018,0-0.037,0.001-0.058c0.594,0.333,1.272,0.53,1.995,0.553 C6.93,13.17,6.15,11.818,6.15,10.289c0-0.809,0.219-1.566,0.597-2.219c2.176,2.67,5.427,4.426,9.092,4.609 c-0.073-0.322-0.114-0.658-0.114-1.006c0-2.435,1.975-4.41,4.412-4.41c1.271,0,2.414,0.536,3.219,1.394 c1.006-0.198,1.949-0.565,2.802-1.071c-0.329,1.03-1.029,1.895-1.938,2.441c0.891-0.107,1.742-0.344,2.532-0.695 C26.158,10.217,25.412,10.993,24.551,11.616z"/></svg>