<?xml version="1.0" encoding="utf-8"?><!DOCTYPE svg PUBLIC "-//W3C//DTD SVG 1.0//EN" "http://www.w3.org/TR/2001/REC-SVG-20010904/DTD/svg10.dtd"><svg version="1" xmlns="http://www.w3.org/2000/svg" width="100" height="100" viewBox="0 0 100 100"><path fill="#1D1D1B" d="M49.999,0C22.386,0,0,22.386,0,50c0,27.614,22.386,50,49.999,50c27.615,0,50-22.386,50-50 C100,22.386,77.614,0,49.999,0z M49.999,98.015C23.524,98.015,1.984,76.476,1.984,50c0-26.476,21.54-48.017,48.015-48.017 c26.477,0,48.015,21.541,48.015,48.017C98.014,76.476,76.476,98.015,49.999,98.015z M31.654,54.256V52.79 c0-0.365-0.132-0.679-0.393-0.941c-0.263-0.262-0.576-0.393-0.941-0.393s-0.679,0.13-0.941,0.393 c-0.261,0.262-0.391,0.576-0.391,0.941v6.931c0,0.365,0.13,0.679,0.391,0.939c0.262,0.262,0.576,0.393,0.941,0.393 s0.678-0.13,0.941-0.393c0.261-0.261,0.393-0.575,0.393-0.939v-1.466h0.666v1.466c0,0.551-0.195,1.023-0.586,1.413 c-0.393,0.392-0.862,0.588-1.413,0.588s-1.022-0.196-1.413-0.588c-0.391-0.39-0.587-0.862-0.587-1.413V52.79 c0-0.552,0.196-1.023,0.587-1.413c0.391-0.393,0.862-0.588,1.413-0.588s1.021,0.195,1.413,0.588 c0.392,0.39,0.586,0.861,0.586,1.413v1.466H31.654z M33.69,64.283h4.73v0.675h-2.026v10.143h-0.676V64.958H33.69V64.283z M36.048,47.269c-0.88,0.891-1.949,1.337-3.207,1.337c-1.258,0-2.329-0.446-3.207-1.337c-0.884-0.89-1.322-1.954-1.322-3.192 V25.094h1.976v19.009c0,0.698,0.25,1.294,0.753,1.787c0.502,0.494,1.102,0.741,1.8,0.741c0.697,0,1.298-0.247,1.798-0.741 c0.504-0.492,0.756-1.089,0.756-1.787V25.094h1.976v18.983C37.371,45.315,36.928,46.379,36.048,47.269z M31.742,64.742 c0.398,0.399,0.595,0.875,0.595,1.435v0.811h-0.675v-0.811c0-0.37-0.133-0.687-0.399-0.954c-0.267-0.266-0.585-0.401-0.955-0.401 c-0.369,0-0.687,0.136-0.954,0.401c-0.266,0.267-0.397,0.584-0.397,0.954v0.811c0,0.632,0.292,1.233,0.877,1.813 c0.541,0.506,1.083,1.003,1.623,1.5c0.588,0.64,0.879,1.338,0.879,2.096v0.811c0,0.561-0.197,1.038-0.595,1.433 c-0.395,0.398-0.875,0.595-1.433,0.595c-0.56,0-1.036-0.197-1.432-0.595c-0.398-0.395-0.597-0.872-0.597-1.433v-0.811h0.678v0.811 c0,0.37,0.131,0.686,0.397,0.955c0.267,0.265,0.585,0.397,0.954,0.397c0.37,0,0.688-0.133,0.955-0.397 c0.266-0.269,0.399-0.585,0.399-0.955v-0.811c0-0.63-0.294-1.233-0.88-1.813c-0.542-0.504-1.083-1.003-1.622-1.5 c-0.585-0.641-0.88-1.34-0.88-2.097v-0.811c0-0.56,0.199-1.036,0.597-1.435c0.396-0.396,0.873-0.594,1.432-0.594 C30.867,64.147,31.347,64.345,31.742,64.742z M71.416,64.283h0.703l-2.162,6.084v4.733h-0.678v-4.733l-2.163-6.084h0.733 l1.781,4.975L71.416,64.283z M64.888,38.401h2.548l0.086,0l2.496,9.889h2.034L69.44,37.937c0.775-0.388,1.386-0.943,1.842-1.668 c0.455-0.727,0.683-1.533,0.683-2.422v-4.235c0-1.256-0.441-2.324-1.322-3.205c-0.88-0.879-1.947-1.319-3.205-1.319h-4.527v23.202 h1.977V38.401z M64.888,27.06h2.55c0.696,0,1.298,0.253,1.798,0.755c0.503,0.505,0.756,1.107,0.756,1.804v4.25 c0,0.718-0.253,1.323-0.756,1.818c-0.5,0.494-1.102,0.742-1.798,0.742h-2.55V27.06z M67.983,50.923v10.665h2 c0.55,0,1.022-0.195,1.413-0.585c0.39-0.393,0.585-0.864,0.585-1.413v-6.668c0-0.549-0.195-1.021-0.585-1.413 c-0.391-0.39-0.863-0.585-1.413-0.585H67.983z M71.315,52.921v6.668c0,0.363-0.131,0.676-0.393,0.938 c-0.262,0.262-0.577,0.394-0.939,0.394h-1.334v-9.333h1.334c0.362,0,0.678,0.132,0.939,0.393 C71.184,52.245,71.315,52.558,71.315,52.921z M34.652,51.589v3.999h3.334v0.667h-3.334v4.667h3.334v0.666h-4V50.923h4v0.666H34.652 z M59.861,48.286h-9.04V25.104h9.04v1.969h-7.069v7.939h7.069v1.971h-7.069v9.332h7.069V48.286z M47.282,47.284 c-0.881,0.891-1.951,1.337-3.21,1.337c-1.26,0-2.327-0.446-3.208-1.336c-0.88-0.891-1.322-1.955-1.322-3.195v-2.004h1.976v2.017 c0,0.702,0.253,1.301,0.756,1.798c0.503,0.496,1.104,0.745,1.799,0.745c0.699,0,1.298-0.247,1.801-0.741 c0.502-0.495,0.754-1.09,0.754-1.79v-1.716c0-1.26-0.609-2.492-1.828-3.694c-1.142-1.045-2.285-2.093-3.428-3.142 c-1.221-1.356-1.83-2.859-1.83-4.508V29.34c0-1.241,0.442-2.307,1.322-3.201c0.881-0.892,1.949-1.337,3.208-1.337 c1.259,0,2.329,0.445,3.21,1.335c0.883,0.893,1.322,1.957,1.322,3.197v2.003h-1.977v-2.017c0-0.702-0.252-1.301-0.754-1.797 c-0.503-0.497-1.102-0.747-1.801-0.747c-0.695,0-1.296,0.248-1.799,0.743c-0.502,0.494-0.756,1.089-0.756,1.789v1.715 c0,1.26,0.618,2.492,1.86,3.694c1.121,1.046,2.255,2.094,3.397,3.141c1.22,1.358,1.83,2.861,1.83,4.509v1.715 C48.604,45.325,48.165,46.391,47.282,47.284z M50.214,64.283h4.732v0.675h-2.027v10.143h-0.679V64.958h-2.026V64.283z M47.348,64.283l-2.166,10.817h0.678l0.541-2.705h2.571l0.538,2.705h0.705l-2.165-10.817H47.348z M46.55,71.719l1.135-5.678 l1.137,5.678H46.55z M50.985,50.923h4v0.666h-3.334v3.999h3.334v0.667h-3.334v4.667h3.334v0.666h-4V50.923z M56.298,64.283h4.057 v0.675h-3.378v4.057h3.378v0.676h-3.378v4.732h3.378v0.677h-4.057V64.283z M41.803,64.283h-2.028v10.817h0.677v-4.733h1.356 c0.072,0,0.122,0,0.149-0.003l1.177,4.736h0.698l-1.23-4.895c0.367-0.153,0.667-0.4,0.89-0.737c0.226-0.339,0.34-0.714,0.34-1.129 v-2.028c0-0.557-0.198-1.036-0.595-1.434C42.838,64.482,42.362,64.283,41.803,64.283z M43.155,68.339 c0,0.37-0.133,0.689-0.399,0.954c-0.266,0.266-0.583,0.399-0.954,0.399h-1.351v-4.733h1.351c0.371,0,0.688,0.134,0.954,0.399 c0.266,0.267,0.399,0.583,0.399,0.954V68.339z M65.509,64.742c0.396,0.399,0.594,0.875,0.594,1.435v1.486h-0.678v-1.486 c0-0.37-0.13-0.687-0.397-0.954c-0.266-0.266-0.585-0.401-0.954-0.401c-0.368,0-0.688,0.136-0.953,0.401 c-0.266,0.267-0.399,0.584-0.399,0.954v7.03c0,0.37,0.133,0.686,0.399,0.955c0.265,0.265,0.585,0.397,0.953,0.397 c0.369,0,0.688-0.133,0.954-0.397c0.267-0.269,0.397-0.585,0.397-0.955v-2.839h-1.351v-0.676h2.029v5.409H65.83l-0.296-0.489 c-0.396,0.416-0.885,0.623-1.46,0.623c-0.558,0-1.038-0.197-1.433-0.595c-0.396-0.395-0.594-0.872-0.594-1.433v-7.03 c0-0.56,0.198-1.036,0.594-1.435c0.395-0.396,0.875-0.594,1.433-0.594C64.632,64.147,65.108,64.345,65.509,64.742z M62.316,50.923 h4.001v0.666h-3.333v3.999h3.333v0.667h-3.333v4.667h3.333v0.666h-4.001V50.923z M58.65,50.923h-1.999v10.665h0.667v-4.665h1.338 c0.071,0,0.119-0.002,0.146-0.002l1.162,4.667h0.686l-1.213-4.827c0.365-0.149,0.658-0.393,0.88-0.726 c0.224-0.333,0.333-0.704,0.333-1.113v-2.001c0-0.549-0.195-1.021-0.585-1.413C59.672,51.118,59.203,50.923,58.65,50.923z M59.984,54.922c0,0.365-0.13,0.677-0.393,0.939c-0.262,0.263-0.576,0.394-0.941,0.394h-1.332v-4.666h1.332 c0.365,0,0.679,0.132,0.941,0.393c0.262,0.264,0.393,0.576,0.393,0.939V54.922z M40.319,61.587h-0.667V50.923h0.667l2.667,8.547 v-8.547h0.666v10.665h-0.692l-2.64-8.507V61.587z M46.985,51.589h-2v-0.666h4.666v0.666h-2v9.999h-0.666V51.589z"/></svg>