<?xml version="1.0" encoding="utf-8"?><!DOCTYPE svg PUBLIC "-//W3C//DTD SVG 1.1//EN" "http://www.w3.org/Graphics/SVG/1.1/DTD/svg11.dtd"><svg xmlns="http://www.w3.org/2000/svg" xmlns:xlink="http://www.w3.org/1999/xlink" width="134.786" height="54.919" viewBox="0 0 134.786 54.919"><path fill="#878787" d="M3.625 36.333L5.252 36.333 5.252 26.992 5.285 26.992 10.427 36.333 12.511 36.333 12.511 24.974 10.883 24.974 10.883 34.12 10.851 34.12 5.837 24.974 3.625 24.974z"/><defs><path id="cda" d="M0 0H113.387V36.801H0z"/></defs><clipPath id="cdb"><use xlink:href="#cda" overflow="visible"/></clipPath><path clip-path="url(#cdb)" fill-rule="evenodd" clip-rule="evenodd" fill="#878787" d="M29.493,26.406h1.563 c1.497,0,2.278,0.65,2.278,1.676c0,1.091-0.911,1.773-2.457,1.773h-1.384V26.406z M27.866,36.333h1.627v-5.045h0.977 c0.862,0,1.399,0,1.904,1.106l1.741,3.938h1.855l-2.148-4.524c-0.358-0.699-0.602-0.943-1.107-1.139v-0.033 c1.319-0.228,2.344-1.204,2.344-2.587c0-2.718-2.164-3.076-4.41-3.076h-2.783V36.333z"/><path clip-path="url(#cdb)" fill="#878787" d="M38.717 36.333L40.344 36.333 40.344 26.992 40.376 26.992 45.519 36.333 47.603 36.333 47.603 24.974 45.975 24.974 45.975 34.12 45.943 34.12 40.93 24.974 38.717 24.974z"/><path clip-path="url(#cdb)" fill-rule="evenodd" clip-rule="evenodd" fill="#878787" d="M52.667,26.308h1.708 c0.944,0,2.1,0.342,2.1,1.693c0,1.676-1.335,1.823-2.913,1.823h-0.895V26.308z M52.667,31.158h1.057c1.4,0,2.946,0.244,2.946,2.002 c0,1.528-1.318,1.839-2.783,1.839h-1.22V31.158z M51.039,36.333h3.027c2.311,0,4.329-0.586,4.329-3.027 c0-1.595-1.091-2.604-2.636-2.733v-0.033c1.432-0.358,2.343-1.14,2.343-2.701c0-2.099-1.627-2.864-3.987-2.864h-3.076V36.333z"/><path clip-path="url(#cdb)" fill="#878787" d="M61.312 36.333L67.675 36.333 67.675 34.901 62.939 34.901 62.939 31.158 67.252 31.158 67.252 29.726 62.939 29.726 62.939 26.406 67.675 26.406 67.675 24.974 61.312 24.974z"/><path clip-path="url(#cdb)" fill-rule="evenodd" clip-rule="evenodd" fill="#878787" d="M72.489,26.406h1.562 c1.498,0,2.279,0.65,2.279,1.676c0,1.091-0.912,1.773-2.457,1.773h-1.384V26.406z M70.951,36.333h1.627v-5.045h0.977 c0.861,0,1.398,0,1.904,1.106l1.74,3.938h1.855l-2.148-4.524c-0.357-0.699-0.602-0.943-1.105-1.139v-0.033 c1.318-0.228,2.343-1.204,2.343-2.587c0-2.718-2.164-3.076-4.41-3.076h-2.782V36.333z"/><path clip-path="url(#cdb)" fill="#878787" d="M89.925 25.348c-.944-.325-1.677-.569-3.336-.569-3.466 0-6.005 2.328-6.005 5.826 0 3.612 2.392 5.924 5.988 5.924 1.774 0 2.848-.293 3.467-.504v-5.908h-4.021v1.335h2.392v3.45c-.405.081-.698.194-1.821.194-2.36 0-4.28-1.773-4.28-4.442 0-2.539 1.741-4.442 4.361-4.442 1.465 0 2.328.26 3.125.781L89.925 25.348zM24.5 24.974v6.656c0 3.189-1.611 4.897-4.41 4.897s-4.41-1.708-4.41-4.897v-6.656l1.174-.003h2.431v1.695h-1.978v4.753c0 2.18.683 3.677 2.783 3.677 2.099 0 2.782-1.497 2.782-3.677v-4.753h-1.977v-1.695h2.004L24.5 24.974zM112.545 36.333v-1.998h-6.415c-.175.917-.322 1.695-.38 1.998H112.545zM95.717 34.335L95.717 36.333 102.463 36.333 102.014 34.335zM99.031 29.627l-.49-2.067h4.189l1.357 5.935h.057L105 29.691c.431-1.725.593-2.132 3.021-2.132h1.745c0 0-.352 1.592-.791 3.317-.167.659-1.625.58-1.552-.034.008-.063.077-.527.131-.856.08-.475-.474-.532-.573-.064-.07.336-.391 2.004-.689 3.572h6.254v-8.521H95.717v8.521h6.107l-.871-3.864L99.031 29.627z"/><path clip-path="url(#cdb)" fill-rule="evenodd" clip-rule="evenodd" fill="#878787" d="M47.179 2.304c.244-.163.737-.213 1.772-.227 1.869-.025 3.906.695 3.906 3.305 0 2.487-1.578 3.487-4.274 3.487H46.93V3.285C46.93 2.705 46.958 2.45 47.179 2.304M48.714 9.991c3.205 0 4.929 1.59 4.929 4.3 0 3.062-2.072 3.881-4.3 3.881-2.06 0-2.413-.364-2.413-1.916V9.991H48.714zM52.213 9.272c2.402.43 4.439 1.834 4.439 4.836 0 3.728-2.648 5.186-6.654 5.186h-8.227v-.958l.096-.007c1.171-.08 1.72-.133 1.991-.328.249-.179.272-.49.272-1.247V3.495c0-.756-.023-1.067-.272-1.247C43.587 2.055 43.038 2 41.867 1.92l-.096-.006V.955h7.676c2.05-.025 3.648.263 4.697.961 1.078.729 1.67 1.835 1.67 3.309C55.814 7.195 54.476 8.691 52.213 9.272M65.29 3.813c.025.254 2.458 7.284 2.458 7.284h-4.931C63.634 8.553 64.523 6.061 65.29 3.813M67.973 19.296V18.34l1.273-.114c.764-.071.863-.285.62-.991l-1.732-4.936h-5.723c-.594 1.83-1.135 3.432-1.575 4.982-.196.664-.139.849.567.918l1.455.141v.956h-5.971v-.96l.098-.005c1.603-.076 1.808-.358 2.347-1.743.917-2.384 2.017-5.528 2.829-7.808l2.776-7.824h2.084l5.58 15.871c.454 1.312.696 1.375 2.192 1.504l.094.008v.957H67.973z"/><path clip-path="url(#cdb)" fill="#878787" d="M79.465 3.664v10.209c0 1.383.053 2.374.184 3.234.144 1.009.671 1.092 2.395 1.224l.096.007v.958h-6.416v-.958l.095-.007c1.372-.106 1.909-.21 2.055-1.224.13-.86.183-1.852.183-3.234V3.495c0-.756-.022-1.068-.271-1.246C77.512 2.054 76.963 2 75.791 1.92l-.095-.006V.955h5.188l.029.044c3.337 4.76 6.699 9.519 10.087 14.278V6.378c0-1.383-.052-2.374-.183-3.235-.145-1.008-.672-1.09-2.395-1.223l-.096-.007V.955h6.416v.958L94.649 1.92c-1.372.106-1.91.21-2.056 1.223-.131.861-.183 1.853-.183 3.235v12.918h-1.885l-.031-.044C86.844 14.047 83.167 8.868 79.465 3.664M101.312 10.165v6.591c0 .754.028 1.066.28 1.246.275.194.824.249 1.982.329l.096.006v.958h-7.517v-.958l.095-.006c1.172-.08 1.721-.135 1.992-.329.249-.179.271-.49.271-1.246V3.494c0-.756-.022-1.066-.271-1.245C97.969 2.054 97.42 2 96.248 1.921l-.095-.007V.956h7.517v.958l-.096.007c-1.158.079-1.707.133-1.982.328-.252.179-.28.491-.28 1.245v5.933c1.89-1.944 4.715-4.899 6.188-6.549.59-.697.422-.844.041-.879l-1.089-.087V.956h6.573v.959l-.096.006c-2.205.129-2.709.409-4.053 1.599-1.58 1.372-3.57 3.334-5.285 5.226 1.771 2.646 3.951 5.265 6.261 7.73 1.128 1.18 1.946 1.89 2.987 2.119l.08.018v.819l-1.757-.084c-1.651-.053-3.067-.537-4.606-2.288C104.559 14.805 102.785 12.4 101.312 10.165M10.034 16.106l2.646-7.301c.942-2.617 1.753-4.921 2.041-6.071.121-.459.11-.64-.486-.686L12.7 1.91V.953h5.997v.96L18.6 1.919c-1.395.077-1.664.119-2.192 1.303-.629 1.388-1.676 4.059-2.75 6.964l-3.379 9.108H8.274l-2.986-8.455C4.372 8.219 3.403 5.6 2.563 3.399 2.058 2.058 1.787 1.97.35 1.919L.25 1.915V.953h6.967v.956l-1.456.14c-.536.045-.609.188-.41.811.682 2.096 1.493 4.4 2.305 6.68L10.034 16.106z"/><path clip-path="url(#cdb)" fill-rule="evenodd" clip-rule="evenodd" fill="#878787" d="M25.241,3.284 c0-1.017,0.105-1.208,1.81-1.208c1.918,0,4.039,0.691,4.039,3.697c0,2.69-1.391,3.854-3.881,3.854h-1.968V3.284z M30.054,10.185 c2.574,0.751,3.032,2.519,3.337,4.774c0.235,1.781,0.645,3.169,2.608,3.37l0.092,0.01v0.955h-2.226 c-1.585,0-2.629-0.602-3.034-2.333c-0.289-1.205-0.577-3.274-0.76-4.008c-0.43-1.721-1.58-2.203-3.124-2.203h-1.706v6.004 c0,0.754,0.029,1.067,0.281,1.246c0.275,0.195,0.825,0.249,1.982,0.329l0.095,0.006v0.959h-7.516v-0.959l0.095-0.006 c1.171-0.08,1.721-0.134,1.992-0.328c0.249-0.179,0.271-0.49,0.271-1.247V3.493c0-0.756-0.022-1.067-0.271-1.247 c-0.271-0.193-0.821-0.248-1.992-0.328l-0.095-0.006V0.953h7.755c4.624,0,6.261,1.995,6.261,4.584 C34.099,7.983,32.393,9.63,30.054,10.185"/><g fill="#878787"><path d="M55.315 49.196c-.009-.113-.08-.183-.215-.207-.244-.04-.372-.131-.383-.274-.008-.107.03-.217.118-.328.086-.111.184-.172.292-.181l.615-.03c.286-.023.662-.07 1.126-.145.461-.075.807-.122 1.038-.141.806-.063 1.472.113 1.997.529.524.416.816.994.875 1.736.064.814-.228 1.585-.874 2.31-.647.726-1.605 1.294-2.875 1.705-.501.163-.838.313-1.009.455-.226.182-.418.279-.576.292-.111.009-.215-.042-.31-.154-.096-.111-.146-.202-.151-.272-.002-.029.021-.107.069-.235.051-.136.083-.271.098-.408.014-.137.016-.379.006-.729-.012-.346-.002-.906.029-1.684.031-.776.063-1.328.097-1.654C55.312 49.496 55.323 49.302 55.315 49.196zM56.085 48.841c-.184 2.116-.241 3.603-.174 4.461.015.191.045.331.091.425.025.02.071.026.138.021.187-.016.667-.177 1.439-.484.772-.307 1.385-.735 1.838-1.286.454-.55.654-1.149.603-1.802-.042-.539-.267-.957-.673-1.25-.407-.293-.923-.414-1.548-.365-.379.029-.834.102-1.363.213C56.318 48.8 56.201 48.823 56.085 48.841zM62.756 52.954c.018.222.068.469.151.741.016.051.025.095.027.13.004.053-.038.125-.128.216-.089.09-.188.141-.297.148-.283.022-.445-.227-.486-.746-.042-.537.001-1.396.132-2.576.043-.412.062-.664.055-.758-.015-.186.007-.344.064-.479.057-.136.147-.209.269-.219.149-.012.269.016.362.081.091.063.141.14.147.228.007.088-.004.205-.034.352-.158.787-.251 1.35-.277 1.688C62.715 52.096 62.72 52.495 62.756 52.954zM62.945 48.014c-.062.006-.114-.057-.156-.185-.015-.04-.034-.084-.059-.134-.094-.183-.146-.345-.157-.484-.009-.117.05-.24.18-.373.128-.133.278-.206.447-.22.085-.007.183.019.292.077.111.058.168.117.173.178.007.096-.015.264-.068.499-.054.236-.156.401-.305.495C63.142 47.959 63.027 48.008 62.945 48.014zM68.223 52.007c.023.298-.212.678-.706 1.14-.494.464-1.021.717-1.582.761-.47.037-.844-.073-1.121-.331-.278-.258-.436-.634-.475-1.131-.066-.834.153-1.652.658-2.451.504-.797 1.091-1.223 1.76-1.275.219-.017.403.041.554.174.149.132.232.299.249.5.035.449-.151.898-.56 1.345-.409.446-.967.897-1.674 1.353-.146.092-.214.199-.204.325.019.242.104.431.256.565s.365.191.639.17c.628-.05 1.242-.447 1.841-1.193.088-.104.158-.158.208-.162C68.159 51.787 68.211 51.858 68.223 52.007zM65.125 51.563c1.18-.832 1.753-1.473 1.718-1.92-.014-.174-.1-.256-.258-.244-.269.021-.556.242-.862.663C65.416 50.482 65.217 50.982 65.125 51.563zM72.016 47.843c-.035-.056-.058-.128-.064-.216-.01-.131.029-.224.121-.278.092-.054.373-.103.846-.146.582-.049 1.102-.111 1.563-.188.459-.074 1.166-.217 2.119-.424.361-.078.707-.131 1.037-.157.166-.013.324-.015.478-.007.151.01.26.021.324.035.064.014.119.063.163.146.045.082.07.147.073.193.017.208-.048.317-.194.328-.097.008-.229.01-.396.006-.17-.002-.4.008-.689.031-.299.023-.658.073-1.08.149-.421.075-.652.163-.69.263-.04.101-.071.676-.096 1.728s-.017 1.833.023 2.343c.019.236.077.508.174.812.017.058.024.093.026.104.01.127-.016.246-.078.356-.063.108-.143.167-.242.175-.151.012-.283-.052-.396-.189s-.194-.542-.248-1.215c-.05-.636-.026-1.889.07-3.757.004-.1.005-.151.005-.155-.008-.098-.064-.145-.174-.137-.174.014-.508.063-.998.146-.489.085-.84.137-1.049.152C72.326 47.969 72.117 47.935 72.016 47.843zM81.993 50.923c.023.298-.212.679-.706 1.141-.494.464-1.021.716-1.582.761-.471.037-.844-.074-1.121-.332-.278-.257-.436-.634-.475-1.131-.066-.834.152-1.652.658-2.45.504-.798 1.09-1.223 1.76-1.275.219-.018.402.041.553.173.15.133.232.299.249.501.035.449-.151.897-.56 1.344-.409.446-.967.897-1.676 1.354-.145.091-.213.198-.203.324.02.242.104.431.257.565.151.136.364.191.64.17.627-.049 1.241-.446 1.84-1.193.09-.104.158-.158.209-.162C81.93 50.704 81.981 50.774 81.993 50.923zM78.895 50.479c1.181-.832 1.754-1.472 1.719-1.919-.015-.175-.101-.257-.258-.244-.27.021-.557.241-.863.662C79.187 49.398 78.987 49.898 78.895 50.479zM83.785 51.299c.018.222.068.469.152.74.016.053.024.096.027.131.004.053-.039.125-.129.216s-.188.141-.297.149c-.283.021-.445-.227-.486-.748-.042-.537.002-1.395.133-2.575.043-.411.063-.665.055-.759-.015-.184.007-.343.064-.479.057-.135.146-.207.27-.217.148-.012.268.015.36.08.091.064.142.141.147.229.008.087-.004.205-.033.351-.159.788-.252 1.351-.277 1.687C83.745 50.441 83.75 50.84 83.785 51.299zM83.975 46.359c-.061.004-.113-.057-.156-.186-.015-.04-.033-.084-.059-.133-.094-.184-.146-.346-.157-.484-.009-.117.051-.241.181-.375.129-.131.277-.205.447-.219.085-.006.183.02.293.078.11.057.168.115.172.178.008.096-.015.264-.068.498-.053.236-.155.402-.305.495C84.172 46.303 84.057 46.353 83.975 46.359zM86.568 44.595c.211-.017.326.11.348.378.019.24-.063.818-.246 1.738-.117.581-.191 1.215-.226 1.904-.034.69-.035 1.23-.005 1.619.038.482.106.958.205 1.43.02.09.029.155.033.195.012.147-.027.276-.119.39-.091.113-.192.175-.303.183-.155.013-.27-.076-.346-.265-.074-.188-.129-.497-.162-.927-.078-.979-.056-2.199.066-3.663.121-1.465.24-2.325.361-2.581C86.294 44.74 86.426 44.605 86.568 44.595zM88.801 50.561c.93-2.093 1.746-3.167 2.449-3.223.188-.015.348.081.48.285.135.204.266.67.397 1.396.134.773.343 1.325.628 1.652.146.168.221.293.229.379.006.076-.033.149-.115.221-.082.07-.174.11-.273.118-.228.018-.439-.093-.635-.337-.195-.24-.343-.68-.443-1.319-.098-.603-.182-.996-.251-1.181-.07-.181-.169-.268-.298-.258-.307.023-.861.875-1.664 2.552-.24.501-.42.83-.539.987-.12.158-.234.242-.342.25-.129.011-.24-.02-.334-.088s-.145-.159-.153-.271c-.007-.08.005-.24.033-.479.214-1.881.353-3.739.417-5.569.014-.426.066-.715.159-.862.092-.148.174-.225.243-.23.127-.01.244.031.354.125.111.096.174.232.188.414.043.537-.031 1.285-.221 2.242-.092.475-.181 1.076-.268 1.803-.087.728-.123 1.175-.109 1.345.002.035.02.052.051.049L88.801 50.561zM96.631 49.662c-.366.581-.738 1.025-1.117 1.33-.379.307-.734.473-1.066.498-.225.018-.428-.061-.605-.239-.179-.175-.279-.413-.303-.711-.061-.769.217-1.622.834-2.563.617-.942 1.264-1.438 1.941-1.491.244-.02.438.105.58.377.045.091.109.133.191.127.233-.02.357.063.371.243.008.091.002.216-.014.376-.09.875-.121 1.488-.094 1.841.057.708.223 1.12.503 1.239.134.06.205.142.214.243.006.091-.049.188-.168.288-.117.103-.235.158-.352.168-.226.018-.424-.123-.594-.422C96.783 50.669 96.676 50.234 96.631 49.662zM96.168 47.215c-.385.031-.805.428-1.259 1.191s-.662 1.383-.625 1.857c.026.338.151.496.372.479.322-.025.742-.385 1.26-1.078.519-.693.757-1.312.715-1.855C96.598 47.393 96.443 47.193 96.168 47.215zM99.674 48.518c.32-.709.725-1.297 1.211-1.758.486-.464.939-.712 1.356-.744.231-.019.435.072.612.273.178.2.278.453.303.76.07.908-.205 1.789-.826 2.639-.623.85-1.314 1.304-2.078 1.363-.207.017-.402-.023-.584-.123-.184-.1-.291-.23-.324-.4-.023-.135-.07-.234-.143-.297-.137-.115-.209-.244-.221-.389-.021-.266.008-.839.085-1.721l.245-2.656c.086-.891.156-1.442.211-1.656.056-.213.125-.358.207-.435.082-.077.188-.12.315-.131.204-.017.321.152.349.506.026.336-.049.815-.227 1.438C99.996 45.785 99.832 46.896 99.674 48.518zM99.684 49.985c.175.271.369.398.586.382.333-.026.674-.191 1.023-.498.35-.304.639-.718.869-1.24.231-.521.334-.955.307-1.301-.013-.154-.051-.285-.115-.392s-.139-.157-.223-.15c-.406.032-.877.403-1.409 1.114C100.188 48.611 99.842 49.307 99.684 49.985zM107.924 48.883c.023.297-.211.678-.705 1.14-.495.464-1.021.716-1.583.761-.47.037-.844-.074-1.121-.332-.278-.257-.436-.634-.475-1.131-.065-.834.153-1.652.657-2.45.505-.798 1.092-1.223 1.761-1.275.219-.017.403.041.554.173.148.133.232.299.248.501.035.449-.15.897-.56 1.345-.409.445-.966.896-1.675 1.353-.146.091-.213.198-.203.325.02.242.104.43.256.564.152.136.365.191.64.17.628-.049 1.241-.446 1.841-1.193.09-.104.158-.158.208-.162C107.859 48.663 107.912 48.734 107.924 48.883zM104.826 48.438c1.18-.832 1.753-1.472 1.718-1.919-.015-.175-.101-.257-.258-.244-.269.021-.556.241-.862.663C105.117 47.357 104.918 47.857 104.826 48.438zM109.705 48.486c.025-.055.055-.129.088-.227.162-.472.317-.843.463-1.115.146-.271.31-.533.492-.785.181-.253.35-.445.505-.582.155-.135.298-.232.429-.291.131-.06.258-.094.384-.104.255-.021.468.041.64.182.174.141.268.313.284.518.007.091-.015.174-.065.252-.052.078-.137.121-.253.13-.122.01-.239-.035-.351-.136-.113-.1-.227-.145-.341-.137-.304.024-.695.426-1.175 1.203-.479.779-.742 1.615-.789 2.51-.012.23-.056.384-.131.465-.077.078-.189.125-.338.137-.144.011-.256-.088-.336-.297-.082-.207-.143-.563-.182-1.07-.012-.135-.027-.438-.05-.908-.026-.553-.026-1 0-1.345.005-.056.009-.187.013-.392.003-.228.017-.386.041-.477.023-.09.079-.175.168-.26.089-.082.189-.129.301-.139.107-.008.191.021.251.085.06.065.093.136.099.214.009.115-.008.277-.051.49-.049.236-.075.397-.08.486-.001.1-.009.205-.023.314-.02.129-.023.461-.01.997l.008.162L109.705 48.486zM114.393 47.359c.32-.709.724-1.297 1.21-1.758.487-.464.938-.712 1.356-.744.23-.02.436.072.612.273.178.2.278.453.302.76.072.908-.203 1.788-.825 2.639-.623.85-1.315 1.304-2.077 1.363-.207.017-.402-.023-.585-.123s-.29-.231-.325-.4c-.021-.135-.069-.234-.142-.297-.136-.115-.209-.244-.22-.389-.021-.266.006-.84.084-1.721l.245-2.656c.086-.891.155-1.442.212-1.656.055-.213.123-.358.205-.435.082-.077.188-.121.316-.131.204-.017.32.152.348.506.027.336-.049.815-.226 1.438C114.713 44.627 114.549 45.738 114.393 47.359zM114.402 48.827c.174.271.369.398.585.382.333-.026.675-.191 1.022-.498.35-.305.64-.718.871-1.24.23-.521.332-.955.305-1.301-.012-.154-.05-.285-.114-.392s-.139-.157-.224-.15c-.406.032-.875.403-1.408 1.114C114.906 47.452 114.561 48.147 114.402 48.827zM121.836 47.678c-.365.582-.738 1.025-1.116 1.331s-.733.472-1.067.498c-.225.018-.426-.062-.605-.239-.178-.176-.279-.414-.303-.711-.061-.77.219-1.623.834-2.563.617-.941 1.264-1.438 1.941-1.491.246-.02.439.106.581.376.046.092.108.134.19.127.234-.018.357.063.373.244.006.091.002.215-.016.375-.09.875-.121 1.488-.094 1.842.057.707.225 1.119.504 1.238.134.061.205.143.213.244.008.09-.049.188-.166.287-.119.104-.236.158-.354.168-.225.018-.422-.123-.593-.421S121.881 48.25 121.836 47.678zM121.375 45.231c-.387.03-.806.428-1.26 1.19-.455.764-.662 1.384-.625 1.858.025.337.15.496.373.479.32-.025.74-.385 1.26-1.078.518-.693.756-1.312.713-1.855C121.803 45.409 121.648 45.21 121.375 45.231zM126.993 45.486c-.151.012-.31.125-.474.336-.164.215-.402.681-.717 1.402-.412.967-.684 1.52-.814 1.66-.132.14-.244.213-.338.22-.345.027-.53-.126-.557-.458-.011-.141-.003-.341.023-.602.092-.895.099-1.83.021-2.811-.009-.109.029-.236.113-.381.084-.143.168-.218.254-.225.151-.012.264.025.335.115.071.088.118.273.141.557.023.295-.017.908-.119 1.844-.034.309-.049.504-.042.585.004.048.017.069.04.067.044-.004.22-.368.526-1.095.31-.739.59-1.263.842-1.573.252-.313.543-.48.873-.506.263-.021.486.083.67.309.184.227.339.654.465 1.281.139.715.248 1.158.327 1.33s.19.252.334.24c.091-.007.202-.048.335-.123.021-.014.039-.021.051-.021.125-.01.193.059.205.203.01.129-.064.271-.227.432-.16.156-.362.245-.604.264-.249.02-.448-.063-.6-.249s-.3-.704-.446-1.555C127.462 45.881 127.256 45.465 126.993 45.486zM130.912 46.509c.035-.052.277-.308.729-.767.427-.436.724-.752.891-.947.622-.729 1.08-1.104 1.375-1.127.228-.018.351.083.368.302.02.249-.078.44-.295.574-.28.173-.65.45-1.111.835-.46.385-.686.648-.674.791.005.06.194.264.568.615.375.352.695.606.96.766.266.16.517.23.753.211l.145-.015c.102-.015.156.026.164.124.01.129-.061.266-.211.411s-.355.229-.619.249c-.17.014-.346-.033-.528-.137-.184-.105-.517-.398-1.003-.885-.387-.401-.627-.641-.721-.717-.096-.076-.171-.113-.229-.107-.032.002-.128.087-.289.252-.16.166-.245.289-.255.369-.01.079.006.381.047.904l.016.205c.009.109-.035.208-.13.302-.097.093-.204.144-.323.153-.123.01-.223-.02-.297-.085-.076-.066-.117-.138-.123-.214-.009-.105.012-.355.06-.754.066-.571.108-1.335.128-2.289.041-2.251.107-3.527.201-3.831.094-.302.249-.462.465-.479.076-.006.143.03.201.106.057.078.091.182.101.311.019.234-.034.861-.155 1.885C130.996 44.549 130.928 45.545 130.912 46.509z"/></g></svg>