<?xml version="1.0" encoding="utf-8"?><!DOCTYPE svg PUBLIC "-//W3C//DTD SVG 1.1//EN" "http://www.w3.org/Graphics/SVG/1.1/DTD/svg11.dtd"><svg xmlns="http://www.w3.org/2000/svg" width="110.443" height="71.942" viewBox="0 0 110.443 71.942"><path fill="#878787" d="M51.185 29.817c-.064-.237-.172-.625-.238-.861l-2.729-9.829c-.066-.237-.166-.626-.224-.865l-.274-1.154c-.057-.239-.117-.437-.132-.439-.017-.003-.078.19-.139.428l-.291 1.166c-.06.238-.159.628-.223.865l-2.621 9.917c-.063.238-.165.627-.228.864l-.199.751c-.063.237-.316.432-.562.432h-5.523c-.246 0-.513-.19-.594-.423 0 0-.284-.819-.454-1.325-2.132-6.337-5.941-19.132-5.941-19.132-.071-.236.073-.428.319-.428h4.69c.246 0 .504.192.572.428 0 0 .156.528.296 1.02.762 2.669 3.078 10.972 3.078 10.972.066.236.176.623.245.859l.01.035c.266.907.656 2.298.656 2.298.066.237.13.43.139.43.011 0 .023-.01.029-.022.006-.013.058-.218.118-.457l.557-2.238c.06-.238.158-.628.222-.865l2.684-10.181c.063-.238.164-.627.227-.865l.255-.982c.062-.238.313-.432.559-.432h4.502c.246 0 .501.193.567.43l.216.78c.064.237.173.624.237.861l2.875 10.432c.065.237.169.626.229.864l.568 2.242c.06.239.117.433.128.433.01 0 .028-.021.041-.047.172-.594.335-1.231.49-1.849.12-.47.237-.932.363-1.378.852-3.102 2.069-8.574 2.65-11.229.111-.51.238-1.103.238-1.103.053-.24.297-.436.542-.436h4.89c.246 0 .396.194.333.432l-.205.779c-.063.238-.166.626-.229.864l-4.552 17.046c-.063.238-.168.626-.23.863l-.239.892c-.064.237-.317.432-.563.432h-6.338c-.246 0-.5-.194-.564-.431L51.185 29.817M72.306 26.449c.451.191 1.045.405 1.719.564.661.156 1.411.265 2.215.265 3.61 0 5.599-2.518 5.599-7.089 0-4.366-1.42-6.674-4.105-6.674-1.912 0-3.588.971-5.43 3.15C72.303 16.665 72.3 26.447 72.306 26.449M75.867 31.465c-2.557 0-5.51-.445-8.35-1.256-.097-.027-.097-.027-.097-.027-.234-.065-.425-.319-.425-.565l.001-29.17c0-.246.2-.447.446-.447h4.411c.246 0 .447.201.447.447l.001 11.492c1.989-1.893 4.008-2.736 6.549-2.736 5.348 0 8.541 3.875 8.541 10.364C87.393 27.239 83.299 31.465 75.867 31.465M44.467 62.785H45.698V71.822H44.467zM56.234 71.822v-4.271c0-.924-.214-1.513-1.085-1.513-.95 0-1.859 1.005-1.859 2.61v3.174h-1.191v-4.284c0-.83-.175-1.5-1.085-1.5-1.017 0-1.861 1.085-1.861 2.61v3.174h-1.205v-6.654h1.165c0 .389-.026.991-.106 1.393l.025.014c.39-.938 1.246-1.54 2.317-1.54 1.405 0 1.78.978 1.834 1.513.281-.629.991-1.513 2.276-1.513 1.258 0 1.98.683 1.98 2.183v4.605H56.234M67.979 71.822v-4.271c0-.924-.214-1.513-1.085-1.513-.95 0-1.86 1.005-1.86 2.61v3.174h-1.191v-4.284c0-.83-.174-1.5-1.084-1.5-1.018 0-1.861 1.085-1.861 2.61v3.174h-1.205v-6.654h1.164c0 .389-.025.991-.105 1.393l.025.014c.389-.938 1.246-1.54 2.317-1.54 1.405 0 1.78.978 1.834 1.513.281-.629.99-1.513 2.276-1.513 1.258 0 1.979.683 1.979 2.183v4.605H67.979M73.805 71.941c-1.807 0-2.986-1.043-2.986-3.385 0-1.955 1.232-3.509 3.24-3.509 1.701 0 2.999.938 2.999 3.333C77.058 70.391 75.772 71.941 73.805 71.941M73.952 66.053c-.964 0-1.874.735-1.874 2.383 0 1.605.656 2.49 1.874 2.49.99 0 1.848-.777 1.848-2.478C75.8 66.936 75.184 66.053 73.952 66.053zM80.996 71.916c-.925 0-1.58-.081-2.289-.268v-9.601h1.205v3.228c0 .388-.041.91-.121 1.244l.026.014c.361-.938 1.191-1.486 2.195-1.486 1.566 0 2.45 1.098 2.45 3.133C84.463 70.51 83.138 71.916 80.996 71.916M81.731 66.038c-1.204 0-1.819 1.406-1.819 2.558v2.209c.347.106.709.16 1.178.16 1.271 0 2.114-.763 2.114-2.678C83.204 66.855 82.735 66.038 81.731 66.038zM86.755 64.071c-.443 0-.803-.349-.803-.79 0-.43.359-.777.803-.777.44 0 .803.335.803.777C87.558 63.709 87.195 64.071 86.755 64.071M87.356 71.822h-1.205v-6.654h1.205V71.822zM89.606 62.049H90.81099999999999V71.822H89.606zM93.665 64.071c-.443 0-.805-.349-.805-.79 0-.43.361-.777.805-.777.44 0 .803.335.803.777C94.468 63.709 94.105 64.071 93.665 64.071M94.267 71.822h-1.205v-6.654h1.205V71.822zM101.523 68.421h-4.351c-.054 1.781.682 2.544 2.101 2.544.684 0 1.406-.16 1.942-.414l.105.977c-.642.268-1.419.415-2.249.415-2.048 0-3.146-1.071-3.146-3.414 0-1.994 1.085-3.481 2.973-3.481 1.873 0 2.663 1.272 2.663 2.799C101.563 68.006 101.55 68.194 101.523 68.421M98.846 65.932c-.87 0-1.486.655-1.621 1.633h3.106C100.358 66.587 99.782 65.932 98.846 65.932zM107.521 71.822v-4.297c0-.938-.254-1.487-1.137-1.487-1.098 0-1.888 1.112-1.888 2.584v3.2h-1.205v-6.654h1.165c0 .389-.027 1.005-.107 1.393l.026.014c.388-.924 1.206-1.54 2.343-1.54 1.526 0 2.008.951 2.008 2.129v4.659H107.521M58.738 56.65l-2.65-4.565c-.401-.683-.709-1.353-.978-1.94.055.775.081 2.194.081 3.279v3.227h-1.688v-9.036h2.263l2.517 4.31c.415.697.777 1.446 1.111 2.129-.066-.91-.093-2.517-.093-3.627v-2.812h1.686v9.036H58.738M67.108 56.648c0-.307.014-.828.08-1.176l-.013-.015c-.402.79-1.165 1.339-2.263 1.339-1.499 0-1.981-.964-1.981-2.128v-4.673h1.7v4.257c0 .697.188 1.111.83 1.111.87 0 1.539-.99 1.539-2.155v-3.213h1.714v6.652H67.108M64.391 48.898c-.509 0-.924-.416-.924-.924 0-.522.415-.924.924-.924.508 0 .924.401.924.924C65.314 48.482 64.898 48.898 64.391 48.898zM67.095 48.898c-.508 0-.923-.416-.923-.924 0-.522.415-.924.923-.924.509 0 .924.401.924.924C68.019 48.482 67.604 48.898 67.095 48.898zM74.15 51.536c-1.23-.254-1.847.549-1.847 2.396v2.719H70.59v-6.653h1.62c0 .334-.04.87-.12 1.338h.026c.321-.843.964-1.58 2.115-1.485L74.15 51.536M79.495 56.65v-4.258c0-.695-.188-1.11-.817-1.11-.87 0-1.553.991-1.553 2.155v3.213H75.41v-6.653h1.62c0 .308-.026.829-.093 1.177l.014.014c.401-.789 1.178-1.338 2.263-1.338 1.499 0 1.98.963 1.98 2.129v4.672H79.495M85.535 56.784c-.965 0-1.715-.108-2.478-.322v-9.585h1.714v2.865c0 .4-.04.949-.107 1.298h.014c.335-.724 1.084-1.178 2.008-1.178 1.594 0 2.45 1.151 2.45 3.118C89.136 55.23 87.823 56.784 85.535 56.784M86.204 51.281c-.897 0-1.433 1.031-1.433 2.142v1.875c.241.08.522.12.897.12.963 0 1.673-.615 1.673-2.262C87.342 51.91 86.979 51.281 86.204 51.281zM96.126 53.598h-4.124c-.014 1.244.603 1.847 1.834 1.847.656 0 1.365-.147 1.941-.414l.16 1.325c-.709.281-1.553.428-2.383.428-2.115 0-3.293-1.057-3.293-3.4 0-2.035 1.124-3.535 3.119-3.535 1.94 0 2.798 1.326 2.798 2.973C96.179 53.048 96.166 53.316 96.126 53.598M93.328 51.107c-.711 0-1.205.521-1.3 1.324h2.45C94.506 51.602 94.05 51.107 93.328 51.107zM101.281 51.536c-1.231-.254-1.848.549-1.848 2.396v2.719h-1.713v-6.653h1.619c0 .334-.04.87-.12 1.338h.027c.32-.843.964-1.58 2.114-1.485L101.281 51.536M105.004 60.037c-1.767 0-2.852-.669-2.852-1.968 0-.696.469-1.326 1.018-1.607-.401-.2-.656-.548-.656-1.017 0-.482.322-.979.79-1.151-.656-.335-.99-1.044-.99-1.86 0-1.406 1.058-2.584 3.013-2.584.44 0 .789.066 1.163.146h2.25v1.339h-.897c.201.187.335.509.335.884 0 1.473-1.031 2.437-2.878 2.437-.228 0-.482-.013-.656-.054-.214.094-.321.268-.321.429 0 .308.255.415 1.031.415h1.031c1.445 0 2.276.67 2.276 1.955C108.66 58.846 107.227 60.037 105.004 60.037M105.915 56.797h-1.165c-.095 0-.228 0-.309 0-.388.215-.603.576-.603.951 0 .615.563.977 1.42.977 1.125 0 1.714-.469 1.714-1.098C106.973 57.145 106.65 56.797 105.915 56.797zM105.259 51.094c-.817 0-1.313.495-1.313 1.205 0 .736.482 1.191 1.313 1.191.776 0 1.285-.441 1.285-1.178C106.544 51.549 106.062 51.094 105.259 51.094zM8.415 30.652c-.074.234.066.426.313.426h10.867c.246 0 .507-.192.581-.426l6.41-20.456c.074-.235-.067-.427-.313-.427H15.405c-.245 0-.507.192-.581.427L8.415 30.652M.02 30.652c-.074.234.067.426.313.426h4.286c.244 0 .506-.192.579-.426l6.41-20.456c.074-.235-.066-.427-.313-.427H7.011c-.246 0-.507.192-.581.427L.02 30.652M100.965 13.386c-3.578 0-5.63 2.559-5.63 7.026 0 4.408 1.48 6.643 4.401 6.643 1.239 0 2.384-.386 3.499-1.196.024-.018.051-.036.076-.055.564-.419 1.154-.967 1.712-1.608.013-.012.002-10.007.002-10.007C103.848 13.671 102.405 13.386 100.965 13.386M99.355 40.471c-1.96 0-4.185-.188-6.045-.509-.136-.022-.247-.045-.247-.045-.241-.048-.43-.288-.419-.532l.134-3.124c.012-.246.22-.423.464-.393 0 0 .217.027.247.03 1.732.192 3.725.298 5.654.298 2.72 0 4.604-.424 5.422-2.237.183-.403.312-.874.386-1.425.05-.366.062-.758.062-.758.007-.246.013-.648.013-.894V28.79c-1.904 1.819-3.947 2.667-6.432 2.667-5.617 0-8.971-3.925-8.971-10.496 0-7.503 4.304-11.807 11.806-11.807 2.699 0 5.76.459 8.457 1.265.109.033.132.041.132.041.234.076.426.339.426.585v19.523C110.443 37.416 107.023 40.471 99.355 40.471"/></svg>